<?xml version="1.0" encoding="UTF-8" standalone="no"?>
<!DOCTYPE svg PUBLIC "-//W3C//DTD SVG 1.1//EN"
 "http://www.w3.org/Graphics/SVG/1.1/DTD/svg11.dtd">
<!-- Generated by graphviz version 2.38.0 (20140413.2041)
 -->
<!-- Title: /travis/pairinteraction/Basisnames.cpp Pages: 1 -->
<svg width="1112pt" height="285pt"
 viewBox="0.00 0.00 1111.50 285.00" xmlns="http://www.w3.org/2000/svg" xmlns:xlink="http://www.w3.org/1999/xlink">
<g id="graph0" class="graph" transform="scale(1 1) rotate(0) translate(4 281)">
<title>/travis/pairinteraction/Basisnames.cpp</title>
<!-- Node0 -->
<g id="node1" class="node"><title>Node0</title>
<polygon fill="#bfbfbf" stroke="black" points="521,-246.5 521,-276.5 639,-276.5 639,-246.5 521,-246.5"/>
<text text-anchor="start" x="529" y="-264.5" font-family="Helvetica,sans-Serif" font-size="10.00">/travis/pairinteraction</text>
<text text-anchor="middle" x="580" y="-253.5" font-family="Helvetica,sans-Serif" font-size="10.00">/Basisnames.cpp</text>
</g>
<!-- Node1 -->
<g id="node2" class="node"><title>Node1</title>
<g id="a_node2"><a xlink:href="Basisnames_8h.html" target="_top" xlink:title="Basisnames.h">
<polygon fill="none" stroke="black" points="492,-190.5 492,-209.5 576,-209.5 576,-190.5 492,-190.5"/>
<text text-anchor="middle" x="534" y="-197.5" font-family="Helvetica,sans-Serif" font-size="10.00">Basisnames.h</text>
</a>
</g>
</g>
<!-- Node0&#45;&gt;Node1 -->
<g id="edge1" class="edge"><title>Node0&#45;&gt;Node1</title>
<path fill="none" stroke="midnightblue" d="M569.099,-246.399C562.414,-237.753 553.824,-226.642 546.815,-217.576"/>
<polygon fill="midnightblue" stroke="midnightblue" points="549.579,-215.428 540.693,-209.658 544.041,-219.71 549.579,-215.428"/>
</g>
<!-- Node25 -->
<g id="node26" class="node"><title>Node25</title>
<polygon fill="none" stroke="#bfbfbf" points="594,-190.5 594,-209.5 658,-209.5 658,-190.5 594,-190.5"/>
<text text-anchor="middle" x="626" y="-197.5" font-family="Helvetica,sans-Serif" font-size="10.00">stdexcept</text>
</g>
<!-- Node0&#45;&gt;Node25 -->
<g id="edge31" class="edge"><title>Node0&#45;&gt;Node25</title>
<path fill="none" stroke="midnightblue" d="M590.901,-246.399C597.586,-237.753 606.176,-226.642 613.185,-217.576"/>
<polygon fill="midnightblue" stroke="midnightblue" points="615.959,-219.71 619.307,-209.658 610.421,-215.428 615.959,-219.71"/>
</g>
<!-- Node2 -->
<g id="node3" class="node"><title>Node2</title>
<g id="a_node3"><a xlink:href="ConfParser_8h.html" target="_top" xlink:title="ConfParser.h">
<polygon fill="none" stroke="black" points="152,-134.5 152,-153.5 230,-153.5 230,-134.5 152,-134.5"/>
<text text-anchor="middle" x="191" y="-141.5" font-family="Helvetica,sans-Serif" font-size="10.00">ConfParser.h</text>
</a>
</g>
</g>
<!-- Node1&#45;&gt;Node2 -->
<g id="edge2" class="edge"><title>Node1&#45;&gt;Node2</title>
<path fill="none" stroke="midnightblue" d="M491.941,-192.379C428.304,-182.36 307.818,-163.391 240.202,-152.746"/>
<polygon fill="midnightblue" stroke="midnightblue" points="240.644,-149.273 230.221,-151.175 239.555,-156.187 240.644,-149.273"/>
</g>
<!-- Node5 -->
<g id="node6" class="node"><title>Node5</title>
<polygon fill="none" stroke="#bfbfbf" points="270,-73 270,-92 314,-92 314,-73 270,-73"/>
<text text-anchor="middle" x="292" y="-80" font-family="Helvetica,sans-Serif" font-size="10.00">string</text>
</g>
<!-- Node1&#45;&gt;Node5 -->
<g id="edge28" class="edge"><title>Node1&#45;&gt;Node5</title>
<path fill="none" stroke="midnightblue" d="M491.896,-194.093C439.324,-187.248 353.221,-173.448 328,-154 311.376,-141.181 301.773,-118.56 296.732,-102.398"/>
<polygon fill="midnightblue" stroke="midnightblue" points="300.01,-101.124 293.94,-92.4406 293.27,-103.014 300.01,-101.124"/>
</g>
<!-- Node7 -->
<g id="node8" class="node"><title>Node7</title>
<g id="a_node8"><a xlink:href="Iter_8h.html" target="_top" xlink:title="Iter.h">
<polygon fill="none" stroke="black" points="550.5,-134.5 550.5,-153.5 591.5,-153.5 591.5,-134.5 550.5,-134.5"/>
<text text-anchor="middle" x="571" y="-141.5" font-family="Helvetica,sans-Serif" font-size="10.00">Iter.h</text>
</a>
</g>
</g>
<!-- Node1&#45;&gt;Node7 -->
<g id="edge7" class="edge"><title>Node1&#45;&gt;Node7</title>
<path fill="none" stroke="midnightblue" d="M540.11,-190.083C545.282,-182.534 552.846,-171.495 559.194,-162.23"/>
<polygon fill="midnightblue" stroke="midnightblue" points="562.239,-163.979 565.004,-153.751 556.464,-160.022 562.239,-163.979"/>
</g>
<!-- Node8 -->
<g id="node9" class="node"><title>Node8</title>
<g id="a_node9"><a xlink:href="StateOld_8h.html" target="_top" xlink:title="StateOld.h">
<polygon fill="none" stroke="black" points="464,-134.5 464,-153.5 532,-153.5 532,-134.5 464,-134.5"/>
<text text-anchor="middle" x="498" y="-141.5" font-family="Helvetica,sans-Serif" font-size="10.00">StateOld.h</text>
</a>
</g>
</g>
<!-- Node1&#45;&gt;Node8 -->
<g id="edge8" class="edge"><title>Node1&#45;&gt;Node8</title>
<path fill="none" stroke="midnightblue" d="M528.055,-190.083C523.023,-182.534 515.663,-171.495 509.487,-162.23"/>
<polygon fill="midnightblue" stroke="midnightblue" points="512.293,-160.13 503.834,-153.751 506.469,-164.013 512.293,-160.13"/>
</g>
<!-- Node9 -->
<g id="node10" class="node"><title>Node9</title>
<g id="a_node10"><a xlink:href="dtypes_8h.html" target="_top" xlink:title="dtypes.h">
<polygon fill="none" stroke="black" points="370,-73 370,-92 428,-92 428,-73 370,-73"/>
<text text-anchor="middle" x="399" y="-80" font-family="Helvetica,sans-Serif" font-size="10.00">dtypes.h</text>
</a>
</g>
</g>
<!-- Node1&#45;&gt;Node9 -->
<g id="edge24" class="edge"><title>Node1&#45;&gt;Node9</title>
<path fill="none" stroke="midnightblue" d="M514.498,-190.485C497.651,-182.551 473.216,-169.614 455,-154 436.72,-138.331 420.164,-115.995 409.876,-100.687"/>
<polygon fill="midnightblue" stroke="midnightblue" points="412.721,-98.6425 404.32,-92.1866 406.861,-102.472 412.721,-98.6425"/>
</g>
<!-- Node15 -->
<g id="node16" class="node"><title>Node15</title>
<polygon fill="none" stroke="#bfbfbf" points="295.5,-6 295.5,-25 342.5,-25 342.5,-6 295.5,-6"/>
<text text-anchor="middle" x="319" y="-13" font-family="Helvetica,sans-Serif" font-size="10.00">vector</text>
</g>
<!-- Node1&#45;&gt;Node15 -->
<g id="edge30" class="edge"><title>Node1&#45;&gt;Node15</title>
<path fill="none" stroke="midnightblue" d="M508.153,-190.467C470.557,-176.782 400.93,-146.439 361,-98 344.985,-78.5726 332.727,-52.0394 325.696,-34.5975"/>
<polygon fill="midnightblue" stroke="midnightblue" points="328.879,-33.1222 322.008,-25.0572 322.35,-35.6465 328.879,-33.1222"/>
</g>
<!-- Node21 -->
<g id="node22" class="node"><title>Node21</title>
<polygon fill="none" stroke="#bfbfbf" points="610,-134.5 610,-153.5 664,-153.5 664,-134.5 610,-134.5"/>
<text text-anchor="middle" x="637" y="-141.5" font-family="Helvetica,sans-Serif" font-size="10.00">fstream</text>
</g>
<!-- Node1&#45;&gt;Node21 -->
<g id="edge25" class="edge"><title>Node1&#45;&gt;Node21</title>
<path fill="none" stroke="midnightblue" d="M550.549,-190.324C566.992,-181.703 592.435,-168.364 611.468,-158.386"/>
<polygon fill="midnightblue" stroke="midnightblue" points="613.261,-161.398 620.492,-153.655 610.011,-155.198 613.261,-161.398"/>
</g>
<!-- Node22 -->
<g id="node23" class="node"><title>Node22</title>
<polygon fill="none" stroke="#bfbfbf" points="682.5,-134.5 682.5,-153.5 739.5,-153.5 739.5,-134.5 682.5,-134.5"/>
<text text-anchor="middle" x="711" y="-141.5" font-family="Helvetica,sans-Serif" font-size="10.00">memory</text>
</g>
<!-- Node1&#45;&gt;Node22 -->
<g id="edge26" class="edge"><title>Node1&#45;&gt;Node22</title>
<path fill="none" stroke="midnightblue" d="M562.046,-190.444C592.082,-181.28 639.913,-166.688 673.243,-156.519"/>
<polygon fill="midnightblue" stroke="midnightblue" points="674.542,-159.782 683.085,-153.516 672.499,-153.087 674.542,-159.782"/>
</g>
<!-- Node23 -->
<g id="node24" class="node"><title>Node23</title>
<polygon fill="none" stroke="#bfbfbf" points="758,-134.5 758,-153.5 790,-153.5 790,-134.5 758,-134.5"/>
<text text-anchor="middle" x="774" y="-141.5" font-family="Helvetica,sans-Serif" font-size="10.00">set</text>
</g>
<!-- Node1&#45;&gt;Node23 -->
<g id="edge27" class="edge"><title>Node1&#45;&gt;Node23</title>
<path fill="none" stroke="midnightblue" d="M576.22,-190.889C625.291,-181.345 704.229,-165.603 748.122,-153.88"/>
<polygon fill="midnightblue" stroke="midnightblue" points="749.272,-157.193 757.969,-151.143 747.397,-150.449 749.272,-157.193"/>
</g>
<!-- Node24 -->
<g id="node25" class="node"><title>Node24</title>
<polygon fill="none" stroke="#bfbfbf" points="808,-134.5 808,-153.5 894,-153.5 894,-134.5 808,-134.5"/>
<text text-anchor="middle" x="851" y="-141.5" font-family="Helvetica,sans-Serif" font-size="10.00">unordered_set</text>
</g>
<!-- Node1&#45;&gt;Node24 -->
<g id="edge29" class="edge"><title>Node1&#45;&gt;Node24</title>
<path fill="none" stroke="midnightblue" d="M576.02,-191.557C579.059,-191.027 582.076,-190.504 585,-190 676.89,-174.163 702.263,-170.464 797.778,-154.201"/>
<polygon fill="midnightblue" stroke="midnightblue" points="798.603,-157.611 807.872,-152.48 797.426,-150.711 798.603,-157.611"/>
</g>
<!-- Node3 -->
<g id="node4" class="node"><title>Node3</title>
<polygon fill="none" stroke="#bfbfbf" points="0,-73 0,-92 38,-92 38,-73 0,-73"/>
<text text-anchor="middle" x="19" y="-80" font-family="Helvetica,sans-Serif" font-size="10.00">map</text>
</g>
<!-- Node2&#45;&gt;Node3 -->
<g id="edge3" class="edge"><title>Node2&#45;&gt;Node3</title>
<path fill="none" stroke="midnightblue" d="M158.113,-134.492C128.546,-126.43 84.1806,-113.299 47,-98 45.9622,-97.573 44.9111,-97.1214 43.8554,-96.6518"/>
<polygon fill="midnightblue" stroke="midnightblue" points="44.9961,-93.3162 34.4687,-92.1226 41.9541,-99.6206 44.9961,-93.3162"/>
</g>
<!-- Node4 -->
<g id="node5" class="node"><title>Node4</title>
<polygon fill="none" stroke="#bfbfbf" points="56,-73 56,-92 112,-92 112,-73 56,-73"/>
<text text-anchor="middle" x="84" y="-80" font-family="Helvetica,sans-Serif" font-size="10.00">sstream</text>
</g>
<!-- Node2&#45;&gt;Node4 -->
<g id="edge4" class="edge"><title>Node2&#45;&gt;Node4</title>
<path fill="none" stroke="midnightblue" d="M175.67,-134.475C158.03,-124.666 128.84,-108.435 108.142,-96.925"/>
<polygon fill="midnightblue" stroke="midnightblue" points="109.743,-93.8102 99.3021,-92.0091 106.341,-99.9279 109.743,-93.8102"/>
</g>
<!-- Node2&#45;&gt;Node5 -->
<g id="edge5" class="edge"><title>Node2&#45;&gt;Node5</title>
<path fill="none" stroke="midnightblue" d="M205.471,-134.475C221.971,-124.755 249.178,-108.727 268.681,-97.2372"/>
<polygon fill="midnightblue" stroke="midnightblue" points="270.716,-100.101 277.556,-92.0091 267.163,-94.0693 270.716,-100.101"/>
</g>
<!-- Node6 -->
<g id="node7" class="node"><title>Node6</title>
<polygon fill="none" stroke="#bfbfbf" points="130,-73 130,-92 252,-92 252,-73 130,-73"/>
<text text-anchor="middle" x="191" y="-80" font-family="Helvetica,sans-Serif" font-size="10.00">boost/lexical_cast.hpp</text>
</g>
<!-- Node2&#45;&gt;Node6 -->
<g id="edge6" class="edge"><title>Node2&#45;&gt;Node6</title>
<path fill="none" stroke="midnightblue" d="M191,-134.475C191,-126.08 191,-112.981 191,-102.163"/>
<polygon fill="midnightblue" stroke="midnightblue" points="194.5,-102.009 191,-92.0091 187.5,-102.009 194.5,-102.009"/>
</g>
<!-- Node8&#45;&gt;Node5 -->
<g id="edge20" class="edge"><title>Node8&#45;&gt;Node5</title>
<path fill="none" stroke="midnightblue" d="M468.485,-134.475C430.107,-123.39 363.326,-104.102 323.839,-92.6963"/>
<polygon fill="midnightblue" stroke="midnightblue" points="324.763,-89.3202 314.185,-89.9077 322.821,-96.0453 324.763,-89.3202"/>
</g>
<!-- Node8&#45;&gt;Node9 -->
<g id="edge9" class="edge"><title>Node8&#45;&gt;Node9</title>
<path fill="none" stroke="midnightblue" d="M483.816,-134.475C467.642,-124.755 440.974,-108.727 421.857,-97.2372"/>
<polygon fill="midnightblue" stroke="midnightblue" points="423.532,-94.1606 413.158,-92.0091 419.926,-100.16 423.532,-94.1606"/>
</g>
<!-- Node12 -->
<g id="node13" class="node"><title>Node12</title>
<polygon fill="none" stroke="#bfbfbf" points="730.5,-6 730.5,-25 771.5,-25 771.5,-6 730.5,-6"/>
<text text-anchor="middle" x="751" y="-13" font-family="Helvetica,sans-Serif" font-size="10.00">array</text>
</g>
<!-- Node8&#45;&gt;Node12 -->
<g id="edge16" class="edge"><title>Node8&#45;&gt;Node12</title>
<path fill="none" stroke="midnightblue" d="M532.069,-135.808C535.42,-135.168 538.772,-134.554 542,-134 599.272,-124.173 762.844,-141.826 801,-98 819.283,-77 792.142,-48.5307 771.253,-31.3954"/>
<polygon fill="midnightblue" stroke="midnightblue" points="773.412,-28.6403 763.386,-25.2148 769.087,-34.1448 773.412,-28.6403"/>
</g>
<!-- Node13 -->
<g id="node14" class="node"><title>Node13</title>
<polygon fill="none" stroke="#bfbfbf" points="819.5,-6 819.5,-25 866.5,-25 866.5,-6 819.5,-6"/>
<text text-anchor="middle" x="843" y="-13" font-family="Helvetica,sans-Serif" font-size="10.00">cmath</text>
</g>
<!-- Node8&#45;&gt;Node13 -->
<g id="edge18" class="edge"><title>Node8&#45;&gt;Node13</title>
<path fill="none" stroke="midnightblue" d="M532.065,-135.78C535.416,-135.145 538.77,-134.54 542,-134 603.005,-123.796 770.749,-137.914 818,-98 836.344,-82.5045 841.478,-53.9142 842.778,-35.0515"/>
<polygon fill="midnightblue" stroke="midnightblue" points="846.277,-35.1348 843.173,-25.0047 839.282,-34.8592 846.277,-35.1348"/>
</g>
<!-- Node16 -->
<g id="node17" class="node"><title>Node16</title>
<polygon fill="none" stroke="#bfbfbf" points="886,-73 886,-92 1026,-92 1026,-73 886,-73"/>
<text text-anchor="middle" x="956" y="-80" font-family="Helvetica,sans-Serif" font-size="10.00">boost/functional/hash.hpp</text>
</g>
<!-- Node8&#45;&gt;Node16 -->
<g id="edge17" class="edge"><title>Node8&#45;&gt;Node16</title>
<path fill="none" stroke="midnightblue" d="M532.053,-135.709C535.406,-135.089 538.765,-134.506 542,-134 687.763,-111.192 725.903,-118.558 872,-98 880.837,-96.7564 890.173,-95.2941 899.28,-93.7852"/>
<polygon fill="midnightblue" stroke="midnightblue" points="900.151,-97.1877 909.428,-92.0708 898.985,-90.2855 900.151,-97.1877"/>
</g>
<!-- Node17 -->
<g id="node18" class="node"><title>Node17</title>
<polygon fill="none" stroke="#bfbfbf" points="1044.5,-73 1044.5,-92 1103.5,-92 1103.5,-73 1044.5,-73"/>
<text text-anchor="middle" x="1074" y="-80" font-family="Helvetica,sans-Serif" font-size="10.00">iostream</text>
</g>
<!-- Node8&#45;&gt;Node17 -->
<g id="edge19" class="edge"><title>Node8&#45;&gt;Node17</title>
<path fill="none" stroke="midnightblue" d="M532.035,-135.587C535.392,-134.992 538.756,-134.448 542,-134 759.626,-103.925 820.337,-144.748 1035,-98 1038.08,-97.3299 1041.24,-96.4676 1044.36,-95.4979"/>
<polygon fill="midnightblue" stroke="midnightblue" points="1045.78,-98.7126 1054.08,-92.1386 1043.49,-92.0964 1045.78,-98.7126"/>
</g>
<!-- Node18 -->
<g id="node19" class="node"><title>Node18</title>
<polygon fill="none" stroke="#bfbfbf" points="446,-67.5 446,-97.5 550,-97.5 550,-67.5 446,-67.5"/>
<text text-anchor="start" x="454" y="-85.5" font-family="Helvetica,sans-Serif" font-size="10.00">boost/serialization</text>
<text text-anchor="middle" x="498" y="-74.5" font-family="Helvetica,sans-Serif" font-size="10.00">/array.hpp</text>
</g>
<!-- Node8&#45;&gt;Node18 -->
<g id="edge21" class="edge"><title>Node8&#45;&gt;Node18</title>
<path fill="none" stroke="midnightblue" d="M498,-134.475C498,-127.471 498,-117.192 498,-107.696"/>
<polygon fill="midnightblue" stroke="midnightblue" points="501.5,-107.523 498,-97.523 494.5,-107.523 501.5,-107.523"/>
</g>
<!-- Node19 -->
<g id="node20" class="node"><title>Node19</title>
<polygon fill="none" stroke="#bfbfbf" points="568,-67.5 568,-97.5 672,-97.5 672,-67.5 568,-67.5"/>
<text text-anchor="start" x="576" y="-85.5" font-family="Helvetica,sans-Serif" font-size="10.00">boost/serialization</text>
<text text-anchor="middle" x="620" y="-74.5" font-family="Helvetica,sans-Serif" font-size="10.00">/string.hpp</text>
</g>
<!-- Node8&#45;&gt;Node19 -->
<g id="edge22" class="edge"><title>Node8&#45;&gt;Node19</title>
<path fill="none" stroke="midnightblue" d="M515.48,-134.475C532.775,-126.04 559.81,-112.855 582.051,-102.008"/>
<polygon fill="midnightblue" stroke="midnightblue" points="583.793,-105.052 591.247,-97.523 580.725,-98.7607 583.793,-105.052"/>
</g>
<!-- Node20 -->
<g id="node21" class="node"><title>Node20</title>
<polygon fill="none" stroke="#bfbfbf" points="690.5,-73 690.5,-92 791.5,-92 791.5,-73 690.5,-73"/>
<text text-anchor="middle" x="741" y="-80" font-family="Helvetica,sans-Serif" font-size="10.00">boost/variant.hpp</text>
</g>
<!-- Node8&#45;&gt;Node20 -->
<g id="edge23" class="edge"><title>Node8&#45;&gt;Node20</title>
<path fill="none" stroke="midnightblue" d="M532.044,-134.664C574.879,-124.176 648.565,-106.133 696.009,-94.5163"/>
<polygon fill="midnightblue" stroke="midnightblue" points="697.126,-97.8464 706.006,-92.0684 695.461,-91.0472 697.126,-97.8464"/>
</g>
<!-- Node10 -->
<g id="node11" class="node"><title>Node10</title>
<polygon fill="none" stroke="#bfbfbf" points="360.5,-6 360.5,-25 437.5,-25 437.5,-6 360.5,-6"/>
<text text-anchor="middle" x="399" y="-13" font-family="Helvetica,sans-Serif" font-size="10.00">Eigen/Dense</text>
</g>
<!-- Node9&#45;&gt;Node10 -->
<g id="edge10" class="edge"><title>Node9&#45;&gt;Node10</title>
<path fill="none" stroke="midnightblue" d="M399,-72.7338C399,-63.1826 399,-47.6183 399,-35.2829"/>
<polygon fill="midnightblue" stroke="midnightblue" points="402.5,-35.1273 399,-25.1273 395.5,-35.1273 402.5,-35.1273"/>
</g>
<!-- Node11 -->
<g id="node12" class="node"><title>Node11</title>
<polygon fill="none" stroke="#bfbfbf" points="456,-6 456,-25 536,-25 536,-6 456,-6"/>
<text text-anchor="middle" x="496" y="-13" font-family="Helvetica,sans-Serif" font-size="10.00">Eigen/Sparse</text>
</g>
<!-- Node9&#45;&gt;Node11 -->
<g id="edge11" class="edge"><title>Node9&#45;&gt;Node11</title>
<path fill="none" stroke="midnightblue" d="M412.082,-72.7338C428.153,-61.9644 455.633,-43.55 474.75,-30.7395"/>
<polygon fill="midnightblue" stroke="midnightblue" points="476.766,-33.6017 483.125,-25.1273 472.87,-27.7865 476.766,-33.6017"/>
</g>
<!-- Node9&#45;&gt;Node12 -->
<g id="edge12" class="edge"><title>Node9&#45;&gt;Node12</title>
<path fill="none" stroke="midnightblue" d="M418.835,-72.937C424.605,-70.7196 430.977,-68.5285 437,-67 554.342,-37.2202 589.002,-58.0622 707,-31 711.442,-29.9814 716.072,-28.7034 720.591,-27.3308"/>
<polygon fill="midnightblue" stroke="midnightblue" points="721.742,-30.6371 730.187,-24.2386 719.595,-23.9745 721.742,-30.6371"/>
</g>
<!-- Node9&#45;&gt;Node13 -->
<g id="edge13" class="edge"><title>Node9&#45;&gt;Node13</title>
<path fill="none" stroke="midnightblue" d="M418.415,-72.9782C424.287,-70.7064 430.819,-68.476 437,-67 586.52,-31.2964 629.415,-56.5537 781,-31 790.266,-29.4379 800.215,-27.3144 809.371,-25.1746"/>
<polygon fill="midnightblue" stroke="midnightblue" points="810.393,-28.5285 819.294,-22.7807 808.752,-21.7237 810.393,-28.5285"/>
</g>
<!-- Node14 -->
<g id="node15" class="node"><title>Node14</title>
<polygon fill="none" stroke="#bfbfbf" points="554.5,-0.5 554.5,-30.5 697.5,-30.5 697.5,-0.5 554.5,-0.5"/>
<text text-anchor="start" x="562.5" y="-18.5" font-family="Helvetica,sans-Serif" font-size="10.00">unsupported/Eigen/CXX11</text>
<text text-anchor="middle" x="626" y="-7.5" font-family="Helvetica,sans-Serif" font-size="10.00">/Tensor</text>
</g>
<!-- Node9&#45;&gt;Node14 -->
<g id="edge14" class="edge"><title>Node9&#45;&gt;Node14</title>
<path fill="none" stroke="midnightblue" d="M420.166,-72.9795C425.612,-70.9099 431.491,-68.7818 437,-67 476.434,-54.246 521.217,-42.1766 557.29,-33.037"/>
<polygon fill="midnightblue" stroke="midnightblue" points="558.378,-36.3725 567.222,-30.5387 556.67,-29.584 558.378,-36.3725"/>
</g>
<!-- Node9&#45;&gt;Node15 -->
<g id="edge15" class="edge"><title>Node9&#45;&gt;Node15</title>
<path fill="none" stroke="midnightblue" d="M388.211,-72.7338C375.256,-62.208 353.313,-44.3793 337.606,-31.6174"/>
<polygon fill="midnightblue" stroke="midnightblue" points="339.586,-28.7169 329.618,-25.1273 335.172,-34.1497 339.586,-28.7169"/>
</g>
</g>
</svg>
