<?xml version="1.0" encoding="UTF-8" standalone="no"?>
<!DOCTYPE svg PUBLIC "-//W3C//DTD SVG 1.1//EN"
 "http://www.w3.org/Graphics/SVG/1.1/DTD/svg11.dtd">
<!-- Generated by graphviz version 2.38.0 (20140413.2041)
 -->
<!-- Title: /travis/pairinteraction/Basisnames.h Pages: 1 -->
<!--zoomable 229 -->
<svg id="main" version="1.1" xmlns="http://www.w3.org/2000/svg" xmlns:xlink="http://www.w3.org/1999/xlink" xml:space="preserve" onload="init(evt)">
<style type="text/css"><![CDATA[
.edge:hover path { stroke: red; }
.edge:hover polygon { stroke: red; fill: red; }
]]></style>
<script type="text/javascript"><![CDATA[
var edges = document.getElementsByTagName('g');
if (edges && edges.length) {
  for (var i=0;i<edges.length;i++) {
    if (edges[i].id.substr(0,4)=='edge') {
      edges[i].setAttribute('class','edge');
    }
  }
}
]]></script>
        <defs>
                <circle id="rim" cx="0" cy="0" r="7"/>
                <circle id="rim2" cx="0" cy="0" r="3.5"/>
                <g id="zoomPlus">
                        <use xlink:href="#rim" fill="#404040">
                                <set attributeName="fill" to="#808080" begin="zoomplus.mouseover" end="zoomplus.mouseout"/>
                        </use>
                        <path d="M-4,0h8M0,-4v8" fill="none" stroke="white" stroke-width="1.5" pointer-events="none"/>
                </g>
                <g id="zoomMin">
                        <use xlink:href="#rim" fill="#404040">
                                <set attributeName="fill" to="#808080" begin="zoomminus.mouseover" end="zoomminus.mouseout"/>
                        </use>
                        <path d="M-4,0h8" fill="none" stroke="white" stroke-width="1.5" pointer-events="none"/>
                </g>
                <g id="dirArrow">
                        <path fill="none" stroke="white" stroke-width="1.5" d="M0,-3.0v7 M-2.5,-0.5L0,-3.0L2.5,-0.5"/>
                </g>
               <g id="resetDef">
                       <use xlink:href="#rim2" fill="#404040">
                               <set attributeName="fill" to="#808080" begin="reset.mouseover" end="reset.mouseout"/>
                       </use>
               </g>
        </defs>

<script type="text/javascript">
var viewWidth = 1112;
var viewHeight = 229;
var sectionId = 'dynsection-0';
</script>
<script xlink:href="svgpan.js"/>
<svg id="graph" class="graph">
<g id="viewport">
<title>/travis/pairinteraction/Basisnames.h</title>
<!-- Node0 -->
<g id="node1" class="node"><title>Node0</title>
<polygon fill="#bfbfbf" stroke="black" points="475,-190.5 475,-220.5 593,-220.5 593,-190.5 475,-190.5"/>
<text text-anchor="start" x="483" y="-208.5" font-family="Helvetica,sans-Serif" font-size="10.00">/travis/pairinteraction</text>
<text text-anchor="middle" x="534" y="-197.5" font-family="Helvetica,sans-Serif" font-size="10.00">/Basisnames.h</text>
</g>
<!-- Node1 -->
<g id="node2" class="node"><title>Node1</title>
<g id="a_node2"><a xlink:href="ConfParser_8h.html" target="_top" xlink:title="ConfParser.h">
<polygon fill="none" stroke="black" points="152,-134.5 152,-153.5 230,-153.5 230,-134.5 152,-134.5"/>
<text text-anchor="middle" x="191" y="-141.5" font-family="Helvetica,sans-Serif" font-size="10.00">ConfParser.h</text>
</a>
</g>
</g>
<!-- Node0&#45;&gt;Node1 -->
<g id="edge1" class="edge"><title>Node0&#45;&gt;Node1</title>
<path fill="none" stroke="midnightblue" d="M474.646,-194.204C408.351,-182.704 302.244,-164.297 240.327,-153.557"/>
<polygon fill="midnightblue" stroke="midnightblue" points="240.862,-150.097 230.411,-151.837 239.666,-156.994 240.862,-150.097"/>
</g>
<!-- Node4 -->
<g id="node5" class="node"><title>Node4</title>
<polygon fill="none" stroke="#bfbfbf" points="270,-73 270,-92 314,-92 314,-73 270,-73"/>
<text text-anchor="middle" x="292" y="-80" font-family="Helvetica,sans-Serif" font-size="10.00">string</text>
</g>
<!-- Node0&#45;&gt;Node4 -->
<g id="edge27" class="edge"><title>Node0&#45;&gt;Node4</title>
<path fill="none" stroke="midnightblue" d="M474.55,-202.899C429.977,-198.856 369.722,-187.023 328,-154 311.54,-140.972 301.905,-118.391 296.812,-102.296"/>
<polygon fill="midnightblue" stroke="midnightblue" points="300.093,-101.041 293.983,-92.386 293.362,-102.963 300.093,-101.041"/>
</g>
<!-- Node6 -->
<g id="node7" class="node"><title>Node6</title>
<g id="a_node7"><a xlink:href="Iter_8h.html" target="_top" xlink:title="Iter.h">
<polygon fill="none" stroke="black" points="550.5,-134.5 550.5,-153.5 591.5,-153.5 591.5,-134.5 550.5,-134.5"/>
<text text-anchor="middle" x="571" y="-141.5" font-family="Helvetica,sans-Serif" font-size="10.00">Iter.h</text>
</a>
</g>
</g>
<!-- Node0&#45;&gt;Node6 -->
<g id="edge6" class="edge"><title>Node0&#45;&gt;Node6</title>
<path fill="none" stroke="midnightblue" d="M542.768,-190.399C547.979,-182.021 554.629,-171.327 560.166,-162.423"/>
<polygon fill="midnightblue" stroke="midnightblue" points="563.308,-163.998 565.616,-153.658 557.363,-160.302 563.308,-163.998"/>
</g>
<!-- Node7 -->
<g id="node8" class="node"><title>Node7</title>
<g id="a_node8"><a xlink:href="StateOld_8h.html" target="_top" xlink:title="StateOld.h">
<polygon fill="none" stroke="black" points="464,-134.5 464,-153.5 532,-153.5 532,-134.5 464,-134.5"/>
<text text-anchor="middle" x="498" y="-141.5" font-family="Helvetica,sans-Serif" font-size="10.00">StateOld.h</text>
</a>
</g>
</g>
<!-- Node0&#45;&gt;Node7 -->
<g id="edge7" class="edge"><title>Node0&#45;&gt;Node7</title>
<path fill="none" stroke="midnightblue" d="M525.469,-190.399C520.399,-182.021 513.929,-171.327 508.542,-162.423"/>
<polygon fill="midnightblue" stroke="midnightblue" points="511.41,-160.402 503.238,-153.658 505.42,-164.025 511.41,-160.402"/>
</g>
<!-- Node8 -->
<g id="node9" class="node"><title>Node8</title>
<g id="a_node9"><a xlink:href="dtypes_8h.html" target="_top" xlink:title="dtypes.h">
<polygon fill="none" stroke="black" points="370,-73 370,-92 428,-92 428,-73 370,-73"/>
<text text-anchor="middle" x="399" y="-80" font-family="Helvetica,sans-Serif" font-size="10.00">dtypes.h</text>
</a>
</g>
</g>
<!-- Node0&#45;&gt;Node8 -->
<g id="edge23" class="edge"><title>Node0&#45;&gt;Node8</title>
<path fill="none" stroke="midnightblue" d="M507.212,-190.356C491.147,-181.175 470.831,-168.286 455,-154 437.125,-137.87 420.487,-115.627 410.069,-100.468"/>
<polygon fill="midnightblue" stroke="midnightblue" points="412.907,-98.4165 404.43,-92.0618 407.094,-102.316 412.907,-98.4165"/>
</g>
<!-- Node14 -->
<g id="node15" class="node"><title>Node14</title>
<polygon fill="none" stroke="#bfbfbf" points="295.5,-6 295.5,-25 342.5,-25 342.5,-6 295.5,-6"/>
<text text-anchor="middle" x="319" y="-13" font-family="Helvetica,sans-Serif" font-size="10.00">vector</text>
</g>
<!-- Node0&#45;&gt;Node14 -->
<g id="edge29" class="edge"><title>Node0&#45;&gt;Node14</title>
<path fill="none" stroke="midnightblue" d="M497.344,-190.367C458.552,-173.697 397.943,-142.507 361,-98 344.919,-78.6271 332.676,-52.081 325.668,-34.6214"/>
<polygon fill="midnightblue" stroke="midnightblue" points="328.85,-33.146 321.992,-25.0699 322.317,-35.6598 328.85,-33.146"/>
</g>
<!-- Node20 -->
<g id="node21" class="node"><title>Node20</title>
<polygon fill="none" stroke="#bfbfbf" points="610,-134.5 610,-153.5 664,-153.5 664,-134.5 610,-134.5"/>
<text text-anchor="middle" x="637" y="-141.5" font-family="Helvetica,sans-Serif" font-size="10.00">fstream</text>
</g>
<!-- Node0&#45;&gt;Node20 -->
<g id="edge24" class="edge"><title>Node0&#45;&gt;Node20</title>
<path fill="none" stroke="midnightblue" d="M558.41,-190.399C574.92,-180.862 596.623,-168.325 613.038,-158.842"/>
<polygon fill="midnightblue" stroke="midnightblue" points="615.104,-161.691 622.013,-153.658 611.603,-155.629 615.104,-161.691"/>
</g>
<!-- Node21 -->
<g id="node22" class="node"><title>Node21</title>
<polygon fill="none" stroke="#bfbfbf" points="682.5,-134.5 682.5,-153.5 739.5,-153.5 739.5,-134.5 682.5,-134.5"/>
<text text-anchor="middle" x="711" y="-141.5" font-family="Helvetica,sans-Serif" font-size="10.00">memory</text>
</g>
<!-- Node0&#45;&gt;Node21 -->
<g id="edge25" class="edge"><title>Node0&#45;&gt;Node21</title>
<path fill="none" stroke="midnightblue" d="M575.947,-190.399C606.398,-180.163 647.13,-166.47 675.873,-156.808"/>
<polygon fill="midnightblue" stroke="midnightblue" points="677.14,-160.075 685.503,-153.571 674.909,-153.44 677.14,-160.075"/>
</g>
<!-- Node22 -->
<g id="node23" class="node"><title>Node22</title>
<polygon fill="none" stroke="#bfbfbf" points="758,-134.5 758,-153.5 790,-153.5 790,-134.5 758,-134.5"/>
<text text-anchor="middle" x="774" y="-141.5" font-family="Helvetica,sans-Serif" font-size="10.00">set</text>
</g>
<!-- Node0&#45;&gt;Node22 -->
<g id="edge26" class="edge"><title>Node0&#45;&gt;Node22</title>
<path fill="none" stroke="midnightblue" d="M593.338,-192.482C634.492,-183.708 690.68,-170.86 748.315,-153.947"/>
<polygon fill="midnightblue" stroke="midnightblue" points="749.363,-157.287 757.952,-151.084 747.369,-150.577 749.363,-157.287"/>
</g>
<!-- Node23 -->
<g id="node24" class="node"><title>Node23</title>
<polygon fill="none" stroke="#bfbfbf" points="808,-134.5 808,-153.5 894,-153.5 894,-134.5 808,-134.5"/>
<text text-anchor="middle" x="851" y="-141.5" font-family="Helvetica,sans-Serif" font-size="10.00">unordered_set</text>
</g>
<!-- Node0&#45;&gt;Node23 -->
<g id="edge28" class="edge"><title>Node0&#45;&gt;Node23</title>
<path fill="none" stroke="midnightblue" d="M593.253,-193.378C651.962,-182.359 741.067,-165.634 797.633,-155.017"/>
<polygon fill="midnightblue" stroke="midnightblue" points="798.619,-158.393 807.802,-153.108 797.328,-151.513 798.619,-158.393"/>
</g>
<!-- Node2 -->
<g id="node3" class="node"><title>Node2</title>
<polygon fill="none" stroke="#bfbfbf" points="0,-73 0,-92 38,-92 38,-73 0,-73"/>
<text text-anchor="middle" x="19" y="-80" font-family="Helvetica,sans-Serif" font-size="10.00">map</text>
</g>
<!-- Node1&#45;&gt;Node2 -->
<g id="edge2" class="edge"><title>Node1&#45;&gt;Node2</title>
<path fill="none" stroke="midnightblue" d="M158.113,-134.492C128.546,-126.43 84.1806,-113.299 47,-98 45.9622,-97.573 44.9111,-97.1214 43.8554,-96.6518"/>
<polygon fill="midnightblue" stroke="midnightblue" points="44.9961,-93.3162 34.4687,-92.1226 41.9541,-99.6206 44.9961,-93.3162"/>
</g>
<!-- Node3 -->
<g id="node4" class="node"><title>Node3</title>
<polygon fill="none" stroke="#bfbfbf" points="56,-73 56,-92 112,-92 112,-73 56,-73"/>
<text text-anchor="middle" x="84" y="-80" font-family="Helvetica,sans-Serif" font-size="10.00">sstream</text>
</g>
<!-- Node1&#45;&gt;Node3 -->
<g id="edge3" class="edge"><title>Node1&#45;&gt;Node3</title>
<path fill="none" stroke="midnightblue" d="M175.67,-134.475C158.03,-124.666 128.84,-108.435 108.142,-96.925"/>
<polygon fill="midnightblue" stroke="midnightblue" points="109.743,-93.8102 99.3021,-92.0091 106.341,-99.9279 109.743,-93.8102"/>
</g>
<!-- Node1&#45;&gt;Node4 -->
<g id="edge4" class="edge"><title>Node1&#45;&gt;Node4</title>
<path fill="none" stroke="midnightblue" d="M205.471,-134.475C221.971,-124.755 249.178,-108.727 268.681,-97.2372"/>
<polygon fill="midnightblue" stroke="midnightblue" points="270.716,-100.101 277.556,-92.0091 267.163,-94.0693 270.716,-100.101"/>
</g>
<!-- Node5 -->
<g id="node6" class="node"><title>Node5</title>
<polygon fill="none" stroke="#bfbfbf" points="130,-73 130,-92 252,-92 252,-73 130,-73"/>
<text text-anchor="middle" x="191" y="-80" font-family="Helvetica,sans-Serif" font-size="10.00">boost/lexical_cast.hpp</text>
</g>
<!-- Node1&#45;&gt;Node5 -->
<g id="edge5" class="edge"><title>Node1&#45;&gt;Node5</title>
<path fill="none" stroke="midnightblue" d="M191,-134.475C191,-126.08 191,-112.981 191,-102.163"/>
<polygon fill="midnightblue" stroke="midnightblue" points="194.5,-102.009 191,-92.0091 187.5,-102.009 194.5,-102.009"/>
</g>
<!-- Node7&#45;&gt;Node4 -->
<g id="edge19" class="edge"><title>Node7&#45;&gt;Node4</title>
<path fill="none" stroke="midnightblue" d="M468.485,-134.475C430.107,-123.39 363.326,-104.102 323.839,-92.6963"/>
<polygon fill="midnightblue" stroke="midnightblue" points="324.763,-89.3202 314.185,-89.9077 322.821,-96.0453 324.763,-89.3202"/>
</g>
<!-- Node7&#45;&gt;Node8 -->
<g id="edge8" class="edge"><title>Node7&#45;&gt;Node8</title>
<path fill="none" stroke="midnightblue" d="M483.816,-134.475C467.642,-124.755 440.974,-108.727 421.857,-97.2372"/>
<polygon fill="midnightblue" stroke="midnightblue" points="423.532,-94.1606 413.158,-92.0091 419.926,-100.16 423.532,-94.1606"/>
</g>
<!-- Node11 -->
<g id="node12" class="node"><title>Node11</title>
<polygon fill="none" stroke="#bfbfbf" points="730.5,-6 730.5,-25 771.5,-25 771.5,-6 730.5,-6"/>
<text text-anchor="middle" x="751" y="-13" font-family="Helvetica,sans-Serif" font-size="10.00">array</text>
</g>
<!-- Node7&#45;&gt;Node11 -->
<g id="edge15" class="edge"><title>Node7&#45;&gt;Node11</title>
<path fill="none" stroke="midnightblue" d="M532.069,-135.808C535.42,-135.168 538.772,-134.554 542,-134 599.272,-124.173 762.844,-141.826 801,-98 819.283,-77 792.142,-48.5307 771.253,-31.3954"/>
<polygon fill="midnightblue" stroke="midnightblue" points="773.412,-28.6403 763.386,-25.2148 769.087,-34.1448 773.412,-28.6403"/>
</g>
<!-- Node12 -->
<g id="node13" class="node"><title>Node12</title>
<polygon fill="none" stroke="#bfbfbf" points="819.5,-6 819.5,-25 866.5,-25 866.5,-6 819.5,-6"/>
<text text-anchor="middle" x="843" y="-13" font-family="Helvetica,sans-Serif" font-size="10.00">cmath</text>
</g>
<!-- Node7&#45;&gt;Node12 -->
<g id="edge17" class="edge"><title>Node7&#45;&gt;Node12</title>
<path fill="none" stroke="midnightblue" d="M532.065,-135.78C535.416,-135.145 538.77,-134.54 542,-134 603.005,-123.796 770.749,-137.914 818,-98 836.344,-82.5045 841.478,-53.9142 842.778,-35.0515"/>
<polygon fill="midnightblue" stroke="midnightblue" points="846.277,-35.1348 843.173,-25.0047 839.282,-34.8592 846.277,-35.1348"/>
</g>
<!-- Node15 -->
<g id="node16" class="node"><title>Node15</title>
<polygon fill="none" stroke="#bfbfbf" points="886,-73 886,-92 1026,-92 1026,-73 886,-73"/>
<text text-anchor="middle" x="956" y="-80" font-family="Helvetica,sans-Serif" font-size="10.00">boost/functional/hash.hpp</text>
</g>
<!-- Node7&#45;&gt;Node15 -->
<g id="edge16" class="edge"><title>Node7&#45;&gt;Node15</title>
<path fill="none" stroke="midnightblue" d="M532.053,-135.709C535.406,-135.089 538.765,-134.506 542,-134 687.763,-111.192 725.903,-118.558 872,-98 880.837,-96.7564 890.173,-95.2941 899.28,-93.7852"/>
<polygon fill="midnightblue" stroke="midnightblue" points="900.151,-97.1877 909.428,-92.0708 898.985,-90.2855 900.151,-97.1877"/>
</g>
<!-- Node16 -->
<g id="node17" class="node"><title>Node16</title>
<polygon fill="none" stroke="#bfbfbf" points="1044.5,-73 1044.5,-92 1103.5,-92 1103.5,-73 1044.5,-73"/>
<text text-anchor="middle" x="1074" y="-80" font-family="Helvetica,sans-Serif" font-size="10.00">iostream</text>
</g>
<!-- Node7&#45;&gt;Node16 -->
<g id="edge18" class="edge"><title>Node7&#45;&gt;Node16</title>
<path fill="none" stroke="midnightblue" d="M532.035,-135.587C535.392,-134.992 538.756,-134.448 542,-134 759.626,-103.925 820.337,-144.748 1035,-98 1038.08,-97.3299 1041.24,-96.4676 1044.36,-95.4979"/>
<polygon fill="midnightblue" stroke="midnightblue" points="1045.78,-98.7126 1054.08,-92.1386 1043.49,-92.0964 1045.78,-98.7126"/>
</g>
<!-- Node17 -->
<g id="node18" class="node"><title>Node17</title>
<polygon fill="none" stroke="#bfbfbf" points="446,-67.5 446,-97.5 550,-97.5 550,-67.5 446,-67.5"/>
<text text-anchor="start" x="454" y="-85.5" font-family="Helvetica,sans-Serif" font-size="10.00">boost/serialization</text>
<text text-anchor="middle" x="498" y="-74.5" font-family="Helvetica,sans-Serif" font-size="10.00">/array.hpp</text>
</g>
<!-- Node7&#45;&gt;Node17 -->
<g id="edge20" class="edge"><title>Node7&#45;&gt;Node17</title>
<path fill="none" stroke="midnightblue" d="M498,-134.475C498,-127.471 498,-117.192 498,-107.696"/>
<polygon fill="midnightblue" stroke="midnightblue" points="501.5,-107.523 498,-97.523 494.5,-107.523 501.5,-107.523"/>
</g>
<!-- Node18 -->
<g id="node19" class="node"><title>Node18</title>
<polygon fill="none" stroke="#bfbfbf" points="568,-67.5 568,-97.5 672,-97.5 672,-67.5 568,-67.5"/>
<text text-anchor="start" x="576" y="-85.5" font-family="Helvetica,sans-Serif" font-size="10.00">boost/serialization</text>
<text text-anchor="middle" x="620" y="-74.5" font-family="Helvetica,sans-Serif" font-size="10.00">/string.hpp</text>
</g>
<!-- Node7&#45;&gt;Node18 -->
<g id="edge21" class="edge"><title>Node7&#45;&gt;Node18</title>
<path fill="none" stroke="midnightblue" d="M515.48,-134.475C532.775,-126.04 559.81,-112.855 582.051,-102.008"/>
<polygon fill="midnightblue" stroke="midnightblue" points="583.793,-105.052 591.247,-97.523 580.725,-98.7607 583.793,-105.052"/>
</g>
<!-- Node19 -->
<g id="node20" class="node"><title>Node19</title>
<polygon fill="none" stroke="#bfbfbf" points="690.5,-73 690.5,-92 791.5,-92 791.5,-73 690.5,-73"/>
<text text-anchor="middle" x="741" y="-80" font-family="Helvetica,sans-Serif" font-size="10.00">boost/variant.hpp</text>
</g>
<!-- Node7&#45;&gt;Node19 -->
<g id="edge22" class="edge"><title>Node7&#45;&gt;Node19</title>
<path fill="none" stroke="midnightblue" d="M532.044,-134.664C574.879,-124.176 648.565,-106.133 696.009,-94.5163"/>
<polygon fill="midnightblue" stroke="midnightblue" points="697.126,-97.8464 706.006,-92.0684 695.461,-91.0472 697.126,-97.8464"/>
</g>
<!-- Node9 -->
<g id="node10" class="node"><title>Node9</title>
<polygon fill="none" stroke="#bfbfbf" points="360.5,-6 360.5,-25 437.5,-25 437.5,-6 360.5,-6"/>
<text text-anchor="middle" x="399" y="-13" font-family="Helvetica,sans-Serif" font-size="10.00">Eigen/Dense</text>
</g>
<!-- Node8&#45;&gt;Node9 -->
<g id="edge9" class="edge"><title>Node8&#45;&gt;Node9</title>
<path fill="none" stroke="midnightblue" d="M399,-72.7338C399,-63.1826 399,-47.6183 399,-35.2829"/>
<polygon fill="midnightblue" stroke="midnightblue" points="402.5,-35.1273 399,-25.1273 395.5,-35.1273 402.5,-35.1273"/>
</g>
<!-- Node10 -->
<g id="node11" class="node"><title>Node10</title>
<polygon fill="none" stroke="#bfbfbf" points="456,-6 456,-25 536,-25 536,-6 456,-6"/>
<text text-anchor="middle" x="496" y="-13" font-family="Helvetica,sans-Serif" font-size="10.00">Eigen/Sparse</text>
</g>
<!-- Node8&#45;&gt;Node10 -->
<g id="edge10" class="edge"><title>Node8&#45;&gt;Node10</title>
<path fill="none" stroke="midnightblue" d="M412.082,-72.7338C428.153,-61.9644 455.633,-43.55 474.75,-30.7395"/>
<polygon fill="midnightblue" stroke="midnightblue" points="476.766,-33.6017 483.125,-25.1273 472.87,-27.7865 476.766,-33.6017"/>
</g>
<!-- Node8&#45;&gt;Node11 -->
<g id="edge11" class="edge"><title>Node8&#45;&gt;Node11</title>
<path fill="none" stroke="midnightblue" d="M418.835,-72.937C424.605,-70.7196 430.977,-68.5285 437,-67 554.342,-37.2202 589.002,-58.0622 707,-31 711.442,-29.9814 716.072,-28.7034 720.591,-27.3308"/>
<polygon fill="midnightblue" stroke="midnightblue" points="721.742,-30.6371 730.187,-24.2386 719.595,-23.9745 721.742,-30.6371"/>
</g>
<!-- Node8&#45;&gt;Node12 -->
<g id="edge12" class="edge"><title>Node8&#45;&gt;Node12</title>
<path fill="none" stroke="midnightblue" d="M418.415,-72.9782C424.287,-70.7064 430.819,-68.476 437,-67 586.52,-31.2964 629.415,-56.5537 781,-31 790.266,-29.4379 800.215,-27.3144 809.371,-25.1746"/>
<polygon fill="midnightblue" stroke="midnightblue" points="810.393,-28.5285 819.294,-22.7807 808.752,-21.7237 810.393,-28.5285"/>
</g>
<!-- Node13 -->
<g id="node14" class="node"><title>Node13</title>
<polygon fill="none" stroke="#bfbfbf" points="554.5,-0.5 554.5,-30.5 697.5,-30.5 697.5,-0.5 554.5,-0.5"/>
<text text-anchor="start" x="562.5" y="-18.5" font-family="Helvetica,sans-Serif" font-size="10.00">unsupported/Eigen/CXX11</text>
<text text-anchor="middle" x="626" y="-7.5" font-family="Helvetica,sans-Serif" font-size="10.00">/Tensor</text>
</g>
<!-- Node8&#45;&gt;Node13 -->
<g id="edge13" class="edge"><title>Node8&#45;&gt;Node13</title>
<path fill="none" stroke="midnightblue" d="M420.166,-72.9795C425.612,-70.9099 431.491,-68.7818 437,-67 476.434,-54.246 521.217,-42.1766 557.29,-33.037"/>
<polygon fill="midnightblue" stroke="midnightblue" points="558.378,-36.3725 567.222,-30.5387 556.67,-29.584 558.378,-36.3725"/>
</g>
<!-- Node8&#45;&gt;Node14 -->
<g id="edge14" class="edge"><title>Node8&#45;&gt;Node14</title>
<path fill="none" stroke="midnightblue" d="M388.211,-72.7338C375.256,-62.208 353.313,-44.3793 337.606,-31.6174"/>
<polygon fill="midnightblue" stroke="midnightblue" points="339.586,-28.7169 329.618,-25.1273 335.172,-34.1497 339.586,-28.7169"/>
</g>
</g>
</svg>
        <g id="navigator" transform="translate(0 0)" fill="#404254">
                <rect fill="#f2f5e9" fill-opacity="0.5" stroke="#606060" stroke-width=".5" x="0" y="0" width="60" height="60"/>
                <use id="zoomplus" xlink:href="#zoomPlus" x="17" y="9" onmousedown="handleZoom(evt,'in')"/>
                <use id="zoomminus" xlink:href="#zoomMin" x="42" y="9" onmousedown="handleZoom(evt,'out')"/>
                <use id="reset" xlink:href="#resetDef" x="30" y="36" onmousedown="handleReset()"/>
                <g id="arrowUp" xlink:href="#dirArrow" transform="translate(30 24)" onmousedown="handlePan(0,-1)">
                  <use xlink:href="#rim" fill="#404040">
                        <set attributeName="fill" to="#808080" begin="arrowUp.mouseover" end="arrowUp.mouseout"/>
                  </use>
                  <path fill="none" stroke="white" stroke-width="1.5" d="M0,-3.0v7 M-2.5,-0.5L0,-3.0L2.5,-0.5"/>
                </g>
                <g id="arrowRight" xlink:href="#dirArrow" transform="rotate(90) translate(36 -43)" onmousedown="handlePan(1,0)">
                  <use xlink:href="#rim" fill="#404040">
                        <set attributeName="fill" to="#808080" begin="arrowRight.mouseover" end="arrowRight.mouseout"/>
                  </use>
                  <path fill="none" stroke="white" stroke-width="1.5" d="M0,-3.0v7 M-2.5,-0.5L0,-3.0L2.5,-0.5"/>
                </g>
                <g id="arrowDown" xlink:href="#dirArrow" transform="rotate(180) translate(-30 -48)" onmousedown="handlePan(0,1)">
                  <use xlink:href="#rim" fill="#404040">
                        <set attributeName="fill" to="#808080" begin="arrowDown.mouseover" end="arrowDown.mouseout"/>
                  </use>
                  <path fill="none" stroke="white" stroke-width="1.5" d="M0,-3.0v7 M-2.5,-0.5L0,-3.0L2.5,-0.5"/>
                </g>
                <g id="arrowLeft" xlink:href="#dirArrow" transform="rotate(270) translate(-36 17)" onmousedown="handlePan(-1,0)">
                  <use xlink:href="#rim" fill="#404040">
                        <set attributeName="fill" to="#808080" begin="arrowLeft.mouseover" end="arrowLeft.mouseout"/>
                  </use>
                  <path fill="none" stroke="white" stroke-width="1.5" d="M0,-3.0v7 M-2.5,-0.5L0,-3.0L2.5,-0.5"/>
                </g>
        </g>
        <svg viewBox="0 0 15 15" width="100%" height="30px" preserveAspectRatio="xMaxYMin meet">
         <g id="arrow_out" transform="scale(0.3 0.3)">
          <a xlink:href="Basisnames_8h__incl_org.svg" target="_base">
           <rect id="button" ry="5" rx="5" y="6" x="6" height="38" width="38"
                fill="#f2f5e9" fill-opacity="0.5" stroke="#606060" stroke-width="1.0"/>
           <path id="arrow"
             d="M 11.500037,31.436501 C 11.940474,20.09759 22.043105,11.32322 32.158766,21.979434 L 37.068811,17.246167 C 37.068811,17.246167 37.088388,32 37.088388,32 L 22.160133,31.978069 C 22.160133,31.978069 26.997745,27.140456 26.997745,27.140456 C 18.528582,18.264221 13.291696,25.230495 11.500037,31.436501 z"
             style="fill:#404040;"/>
          </a>
         </g>
        </svg>
</svg>
