<?xml version="1.0" encoding="UTF-8" standalone="no"?>
<!DOCTYPE svg PUBLIC "-//W3C//DTD SVG 1.1//EN"
 "http://www.w3.org/Graphics/SVG/1.1/DTD/svg11.dtd">
<!-- Generated by graphviz version 2.38.0 (20140413.2041)
 -->
<!-- Title: StateOne::getEnergy Pages: 1 -->
<svg width="316pt" height="66pt"
 viewBox="0.00 0.00 316.00 66.00" xmlns="http://www.w3.org/2000/svg" xmlns:xlink="http://www.w3.org/1999/xlink">
<g id="graph0" class="graph" transform="scale(1 1) rotate(0) translate(4 62)">
<title>StateOne::getEnergy</title>
<!-- Node19 -->
<g id="node1" class="node"><title>Node19</title>
<polygon fill="#bfbfbf" stroke="black" points="0,-19.5 0,-38.5 117,-38.5 117,-19.5 0,-19.5"/>
<text text-anchor="middle" x="58.5" y="-26.5" font-family="Helvetica,sans-Serif" font-size="10.00">StateOne::getEnergy</text>
</g>
<!-- Node20 -->
<g id="node2" class="node"><title>Node20</title>
<g id="a_node2"><a xlink:href="integration__test_8cpp.html#a0edc7e03850724a3784df426b75fb1d2" target="_top" xlink:title="BOOST_FIXTURE_TEST_CASE">
<polygon fill="none" stroke="black" points="153,-38.5 153,-57.5 308,-57.5 308,-38.5 153,-38.5"/>
<text text-anchor="middle" x="230.5" y="-45.5" font-family="Helvetica,sans-Serif" font-size="10.00">BOOST_FIXTURE_TEST_CASE</text>
</a>
</g>
</g>
<!-- Node19&#45;&gt;Node20 -->
<g id="edge1" class="edge"><title>Node19&#45;&gt;Node20</title>
<path fill="none" stroke="midnightblue" d="M127.158,-36.5618C135.557,-37.5004 144.191,-38.4655 152.714,-39.4181"/>
<polygon fill="midnightblue" stroke="midnightblue" points="127.381,-33.065 117.054,-35.4325 126.604,-40.0217 127.381,-33.065"/>
</g>
<!-- Node21 -->
<g id="node3" class="node"><title>Node21</title>
<g id="a_node3"><a xlink:href="classSystemOne.html#a1548df0406b8a36e4307f8dbf9226990" target="_top" xlink:title="Method that allows base class to initialize Basis //////////////. ">
<polygon fill="none" stroke="black" points="159,-0.5 159,-19.5 302,-19.5 302,-0.5 159,-0.5"/>
<text text-anchor="middle" x="230.5" y="-7.5" font-family="Helvetica,sans-Serif" font-size="10.00">SystemOne::initializeBasis</text>
</a>
</g>
</g>
<!-- Node19&#45;&gt;Node21 -->
<g id="edge2" class="edge"><title>Node19&#45;&gt;Node21</title>
<path fill="none" stroke="midnightblue" d="M127.263,-21.4265C137.614,-20.2696 148.322,-19.0729 158.736,-17.909"/>
<polygon fill="midnightblue" stroke="midnightblue" points="126.604,-17.9783 117.054,-22.5675 127.381,-24.935 126.604,-17.9783"/>
</g>
</g>
</svg>
