<?xml version="1.0" encoding="UTF-8" standalone="no"?>
<!DOCTYPE svg PUBLIC "-//W3C//DTD SVG 1.1//EN"
 "http://www.w3.org/Graphics/SVG/1.1/DTD/svg11.dtd">
<!-- Generated by graphviz version 2.38.0 (20140413.2041)
 -->
<!-- Title: StateTwo::getN Pages: 1 -->
<svg width="261pt" height="78pt"
 viewBox="0.00 0.00 261.00 77.50" xmlns="http://www.w3.org/2000/svg" xmlns:xlink="http://www.w3.org/1999/xlink">
<g id="graph0" class="graph" transform="scale(1 1) rotate(0) translate(4 73.5)">
<title>StateTwo::getN</title>
<!-- Node54 -->
<g id="node1" class="node"><title>Node54</title>
<polygon fill="#bfbfbf" stroke="black" points="0,-22.5 0,-41.5 90,-41.5 90,-22.5 0,-22.5"/>
<text text-anchor="middle" x="45" y="-29.5" font-family="Helvetica,sans-Serif" font-size="10.00">StateTwo::getN</text>
</g>
<!-- Node55 -->
<g id="node2" class="node"><title>Node55</title>
<g id="a_node2"><a xlink:href="classPerturbativeInteraction.html#aef0f5d43fdcf0377dc53e31730c99cb9" target="_top" xlink:title="PerturbativeInteraction\l::getC6">
<polygon fill="none" stroke="black" points="126.5,-39 126.5,-69 252.5,-69 252.5,-39 126.5,-39"/>
<text text-anchor="start" x="134.5" y="-57" font-family="Helvetica,sans-Serif" font-size="10.00">PerturbativeInteraction</text>
<text text-anchor="middle" x="189.5" y="-46" font-family="Helvetica,sans-Serif" font-size="10.00">::getC6</text>
</a>
</g>
</g>
<!-- Node54&#45;&gt;Node55 -->
<g id="edge1" class="edge"><title>Node54&#45;&gt;Node55</title>
<path fill="none" stroke="midnightblue" d="M100.463,-40.4083C108.955,-41.7194 117.785,-43.0826 126.431,-44.4175"/>
<polygon fill="midnightblue" stroke="midnightblue" points="100.724,-36.9072 90.3068,-38.8403 99.6556,-43.8252 100.724,-36.9072"/>
</g>
<!-- Node56 -->
<g id="node3" class="node"><title>Node56</title>
<g id="a_node3"><a xlink:href="classStateTwo.html#a8144dc47a35a397f9b040a5de5d8673e" target="_top" xlink:title="StateTwo::getReflected">
<polygon fill="none" stroke="black" points="126,-0.5 126,-19.5 253,-19.5 253,-0.5 126,-0.5"/>
<text text-anchor="middle" x="189.5" y="-7.5" font-family="Helvetica,sans-Serif" font-size="10.00">StateTwo::getReflected</text>
</a>
</g>
</g>
<!-- Node54&#45;&gt;Node56 -->
<g id="edge2" class="edge"><title>Node54&#45;&gt;Node56</title>
<path fill="none" stroke="midnightblue" d="M100.327,-23.6126C109.032,-22.2688 118.094,-20.8697 126.952,-19.5021"/>
<polygon fill="midnightblue" stroke="midnightblue" points="99.6556,-20.1748 90.3068,-25.1597 100.724,-27.0928 99.6556,-20.1748"/>
</g>
</g>
</svg>
