<?xml version="1.0" encoding="UTF-8" standalone="no"?>
<!DOCTYPE svg PUBLIC "-//W3C//DTD SVG 1.1//EN"
 "http://www.w3.org/Graphics/SVG/1.1/DTD/svg11.dtd">
<!-- Generated by graphviz version 2.38.0 (20140413.2041)
 -->
<!-- Title: BasisnamesTwo Pages: 1 -->
<svg width="346pt" height="185pt"
 viewBox="0.00 0.00 345.50 185.00" xmlns="http://www.w3.org/2000/svg" xmlns:xlink="http://www.w3.org/1999/xlink">
<g id="graph0" class="graph" transform="scale(1 1) rotate(0) translate(4 181)">
<title>BasisnamesTwo</title>
<!-- Node2 -->
<g id="node1" class="node"><title>Node2</title>
<polygon fill="#bfbfbf" stroke="black" points="150,-0.5 150,-19.5 243,-19.5 243,-0.5 150,-0.5"/>
<text text-anchor="middle" x="196.5" y="-7.5" font-family="Helvetica,sans-Serif" font-size="10.00">BasisnamesTwo</text>
</g>
<!-- Node3 -->
<g id="node2" class="node"><title>Node3</title>
<g id="a_node2"><a xlink:href="classBasisnames.html" target="_top" xlink:title="Basisnames\&lt; StateTwoOld \&gt;">
<polygon fill="none" stroke="black" points="117.5,-57.5 117.5,-76.5 275.5,-76.5 275.5,-57.5 117.5,-57.5"/>
<text text-anchor="middle" x="196.5" y="-64.5" font-family="Helvetica,sans-Serif" font-size="10.00">Basisnames&lt; StateTwoOld &gt;</text>
</a>
</g>
</g>
<!-- Node3&#45;&gt;Node2 -->
<g id="edge1" class="edge"><title>Node3&#45;&gt;Node2</title>
<path fill="none" stroke="midnightblue" d="M196.5,-47.1166C196.5,-37.8173 196.5,-27.0557 196.5,-19.7149"/>
<polygon fill="midnightblue" stroke="midnightblue" points="193,-47.4062 196.5,-57.4062 200,-47.4063 193,-47.4062"/>
</g>
<!-- Node4 -->
<g id="node3" class="node"><title>Node4</title>
<g id="a_node3"><a xlink:href="classstd_1_1vector_3_01StateTwoOld_01_4.html" target="_top" xlink:title="vector\&lt; StateTwoOld \&gt;">
<polygon fill="none" stroke="black" points="0,-157.5 0,-176.5 129,-176.5 129,-157.5 0,-157.5"/>
<text text-anchor="middle" x="64.5" y="-164.5" font-family="Helvetica,sans-Serif" font-size="10.00">vector&lt; StateTwoOld &gt;</text>
</a>
</g>
</g>
<!-- Node4&#45;&gt;Node3 -->
<g id="edge2" class="edge"><title>Node4&#45;&gt;Node3</title>
<path fill="none" stroke="#9a32cd" stroke-dasharray="5,2" d="M74.9332,-148.451C85.219,-132.509 102.301,-109.355 122.5,-95 134.093,-86.7611 148.48,-80.7602 161.477,-76.5388"/>
<polygon fill="#9a32cd" stroke="#9a32cd" points="71.7395,-146.959 69.44,-157.302 77.6871,-150.651 71.7395,-146.959"/>
<text text-anchor="middle" x="143.5" y="-114.5" font-family="Helvetica,sans-Serif" font-size="10.00"> names_</text>
</g>
<!-- Node5 -->
<g id="node4" class="node"><title>Node5</title>
<g id="a_node4"><a xlink:href="classsize__t.html" target="_top" xlink:title="size_t">
<polygon fill="none" stroke="black" points="147.5,-157.5 147.5,-176.5 191.5,-176.5 191.5,-157.5 147.5,-157.5"/>
<text text-anchor="middle" x="169.5" y="-164.5" font-family="Helvetica,sans-Serif" font-size="10.00">size_t</text>
</a>
</g>
</g>
<!-- Node5&#45;&gt;Node3 -->
<g id="edge3" class="edge"><title>Node5&#45;&gt;Node3</title>
<path fill="none" stroke="#9a32cd" stroke-dasharray="5,2" d="M168.224,-147.01C167.909,-132.318 168.961,-111.727 175.5,-95 178.181,-88.1418 183.192,-81.5928 187.646,-76.6625"/>
<polygon fill="#9a32cd" stroke="#9a32cd" points="164.742,-147.509 168.69,-157.341 171.735,-147.193 164.742,-147.509"/>
<text text-anchor="middle" x="189" y="-114.5" font-family="Helvetica,sans-Serif" font-size="10.00"> dim_</text>
</g>
<!-- Node6 -->
<g id="node5" class="node"><title>Node6</title>
<g id="a_node5"><a xlink:href="classint.html" target="_top" xlink:title="int">
<polygon fill="none" stroke="black" points="210,-157.5 210,-176.5 239,-176.5 239,-157.5 210,-157.5"/>
<text text-anchor="middle" x="224.5" y="-164.5" font-family="Helvetica,sans-Serif" font-size="10.00">int</text>
</a>
</g>
</g>
<!-- Node6&#45;&gt;Node3 -->
<g id="edge4" class="edge"><title>Node6&#45;&gt;Node3</title>
<path fill="none" stroke="#9a32cd" stroke-dasharray="5,2" d="M219.218,-147.514C213.146,-126.263 203.441,-92.2919 198.939,-76.5374"/>
<polygon fill="#9a32cd" stroke="#9a32cd" points="215.903,-148.649 222.015,-157.303 222.633,-146.726 215.903,-148.649"/>
<text text-anchor="middle" x="236.5" y="-131" font-family="Helvetica,sans-Serif" font-size="10.00"> delta_j</text>
<text text-anchor="middle" x="236.5" y="-120" font-family="Helvetica,sans-Serif" font-size="10.00">delta_l</text>
<text text-anchor="middle" x="236.5" y="-109" font-family="Helvetica,sans-Serif" font-size="10.00">delta_m</text>
<text text-anchor="middle" x="236.5" y="-98" font-family="Helvetica,sans-Serif" font-size="10.00">delta_n</text>
</g>
<!-- Node7 -->
<g id="node6" class="node"><title>Node7</title>
<g id="a_node6"><a xlink:href="classConfiguration.html" target="_top" xlink:title="Configuration storage ">
<polygon fill="none" stroke="black" points="257.5,-157.5 257.5,-176.5 337.5,-176.5 337.5,-157.5 257.5,-157.5"/>
<text text-anchor="middle" x="297.5" y="-164.5" font-family="Helvetica,sans-Serif" font-size="10.00">Configuration</text>
</a>
</g>
</g>
<!-- Node7&#45;&gt;Node3 -->
<g id="edge5" class="edge"><title>Node7&#45;&gt;Node3</title>
<path fill="none" stroke="#9a32cd" stroke-dasharray="5,2" d="M291.917,-147.691C286.265,-131.887 276.11,-109.392 260.5,-95 251.456,-86.6623 239.459,-80.6824 228.298,-76.505"/>
<polygon fill="#9a32cd" stroke="#9a32cd" points="288.659,-148.987 295.122,-157.382 295.305,-146.789 288.659,-148.987"/>
<text text-anchor="middle" x="300.5" y="-114.5" font-family="Helvetica,sans-Serif" font-size="10.00"> conf</text>
</g>
</g>
</svg>
