<?xml version="1.0" encoding="UTF-8" standalone="no"?>
<!DOCTYPE svg PUBLIC "-//W3C//DTD SVG 1.1//EN"
 "http://www.w3.org/Graphics/SVG/1.1/DTD/svg11.dtd">
<!-- Generated by graphviz version 2.38.0 (20140413.2041)
 -->
<!-- Title: MatrixElementCache::getRadial Pages: 1 -->
<svg width="470pt" height="39pt"
 viewBox="0.00 0.00 470.00 39.00" xmlns="http://www.w3.org/2000/svg" xmlns:xlink="http://www.w3.org/1999/xlink">
<g id="graph0" class="graph" transform="scale(1 1) rotate(0) translate(4 35)">
<title>MatrixElementCache::getRadial</title>
<!-- Node56 -->
<g id="node1" class="node"><title>Node56</title>
<polygon fill="#bfbfbf" stroke="black" points="0,-0.5 0,-30.5 116,-30.5 116,-0.5 0,-0.5"/>
<text text-anchor="start" x="8" y="-18.5" font-family="Helvetica,sans-Serif" font-size="10.00">MatrixElementCache</text>
<text text-anchor="middle" x="58" y="-7.5" font-family="Helvetica,sans-Serif" font-size="10.00">::getRadial</text>
</g>
<!-- Node57 -->
<g id="node2" class="node"><title>Node57</title>
<g id="a_node2"><a xlink:href="classMatrixElementCache.html#aebf63bfd2c9cc016e6c21410b92a4983" target="_top" xlink:title="MatrixElementCache\l::getLeRoyRadius">
<polygon fill="none" stroke="black" points="152,-0.5 152,-30.5 268,-30.5 268,-0.5 152,-0.5"/>
<text text-anchor="start" x="160" y="-18.5" font-family="Helvetica,sans-Serif" font-size="10.00">MatrixElementCache</text>
<text text-anchor="middle" x="210" y="-7.5" font-family="Helvetica,sans-Serif" font-size="10.00">::getLeRoyRadius</text>
</a>
</g>
</g>
<!-- Node56&#45;&gt;Node57 -->
<g id="edge1" class="edge"><title>Node56&#45;&gt;Node57</title>
<path fill="none" stroke="midnightblue" d="M126.311,-15.5C134.728,-15.5 143.277,-15.5 151.525,-15.5"/>
<polygon fill="midnightblue" stroke="midnightblue" points="126.137,-12.0001 116.136,-15.5 126.136,-19.0001 126.137,-12.0001"/>
</g>
<!-- Node58 -->
<g id="node3" class="node"><title>Node58</title>
<g id="a_node3"><a xlink:href="classSystemTwo.html#aabf2ba0d13067b81c2f7d1c78368a63e" target="_top" xlink:title="Methods that allows base class to communicate with subclass ////. ">
<polygon fill="none" stroke="black" points="304,-6 304,-25 462,-25 462,-6 304,-6"/>
<text text-anchor="middle" x="383" y="-13" font-family="Helvetica,sans-Serif" font-size="10.00">SystemTwo::onStatesChange</text>
</a>
</g>
</g>
<!-- Node57&#45;&gt;Node58 -->
<g id="edge2" class="edge"><title>Node57&#45;&gt;Node58</title>
<path fill="none" stroke="midnightblue" d="M278.424,-15.5C286.745,-15.5 295.305,-15.5 303.769,-15.5"/>
<polygon fill="midnightblue" stroke="midnightblue" points="278.416,-12.0001 268.416,-15.5 278.416,-19.0001 278.416,-12.0001"/>
</g>
</g>
</svg>
