<?xml version="1.0" encoding="UTF-8" standalone="no"?>
<!DOCTYPE svg PUBLIC "-//W3C//DTD SVG 1.1//EN"
 "http://www.w3.org/Graphics/SVG/1.1/DTD/svg11.dtd">
<!-- Generated by graphviz version 2.38.0 (20140413.2041)
 -->
<!-- Title: StateTwo::getReflected Pages: 1 -->
<svg width="291pt" height="218pt"
 viewBox="0.00 0.00 291.00 218.00" xmlns="http://www.w3.org/2000/svg" xmlns:xlink="http://www.w3.org/1999/xlink">
<g id="graph0" class="graph" transform="scale(1 1) rotate(0) translate(4 214)">
<title>StateTwo::getReflected</title>
<!-- Node64 -->
<g id="node1" class="node"><title>Node64</title>
<polygon fill="#bfbfbf" stroke="black" points="0,-95.5 0,-114.5 127,-114.5 127,-95.5 0,-95.5"/>
<text text-anchor="middle" x="63.5" y="-102.5" font-family="Helvetica,sans-Serif" font-size="10.00">StateTwo::getReflected</text>
</g>
<!-- Node65 -->
<g id="node2" class="node"><title>Node65</title>
<g id="a_node2"><a xlink:href="classStateTwo.html#a8da7f3d40cddcdd7dbb2886427f7952d" target="_top" xlink:title="StateTwo::getJ">
<polygon fill="none" stroke="black" points="180.5,-190.5 180.5,-209.5 265.5,-209.5 265.5,-190.5 180.5,-190.5"/>
<text text-anchor="middle" x="223" y="-197.5" font-family="Helvetica,sans-Serif" font-size="10.00">StateTwo::getJ</text>
</a>
</g>
</g>
<!-- Node64&#45;&gt;Node65 -->
<g id="edge1" class="edge"><title>Node64&#45;&gt;Node65</title>
<path fill="none" stroke="midnightblue" d="M74.5916,-114.744C91.5592,-130.65 127.447,-162.293 163,-181 167.184,-183.202 171.67,-185.207 176.231,-187.019"/>
<polygon fill="midnightblue" stroke="midnightblue" points="175.032,-190.307 185.625,-190.467 177.444,-183.736 175.032,-190.307"/>
</g>
<!-- Node66 -->
<g id="node3" class="node"><title>Node66</title>
<g id="a_node3"><a xlink:href="classStateTwo.html#aba98b05bc1257f73bcbbb9b079ad2928" target="_top" xlink:title="StateTwo::getL">
<polygon fill="none" stroke="black" points="179,-152.5 179,-171.5 267,-171.5 267,-152.5 179,-152.5"/>
<text text-anchor="middle" x="223" y="-159.5" font-family="Helvetica,sans-Serif" font-size="10.00">StateTwo::getL</text>
</a>
</g>
</g>
<!-- Node64&#45;&gt;Node66 -->
<g id="edge2" class="edge"><title>Node64&#45;&gt;Node66</title>
<path fill="none" stroke="midnightblue" d="M88.2442,-114.595C108.108,-122.516 137.252,-133.896 163,-143 168.992,-145.119 175.36,-147.271 181.611,-149.329"/>
<polygon fill="midnightblue" stroke="midnightblue" points="180.675,-152.705 191.267,-152.466 182.838,-146.048 180.675,-152.705"/>
</g>
<!-- Node67 -->
<g id="node4" class="node"><title>Node67</title>
<g id="a_node4"><a xlink:href="classStateTwo.html#af2e91e00e5839735357e41e14646a0bd" target="_top" xlink:title="StateTwo::getM">
<polygon fill="none" stroke="black" points="177.5,-114.5 177.5,-133.5 268.5,-133.5 268.5,-114.5 177.5,-114.5"/>
<text text-anchor="middle" x="223" y="-121.5" font-family="Helvetica,sans-Serif" font-size="10.00">StateTwo::getM</text>
</a>
</g>
</g>
<!-- Node64&#45;&gt;Node67 -->
<g id="edge3" class="edge"><title>Node64&#45;&gt;Node67</title>
<path fill="none" stroke="midnightblue" d="M127.201,-112.564C140.468,-114.164 154.37,-115.841 167.312,-117.403"/>
<polygon fill="midnightblue" stroke="midnightblue" points="167.108,-120.903 177.456,-118.626 167.947,-113.954 167.108,-120.903"/>
</g>
<!-- Node68 -->
<g id="node5" class="node"><title>Node68</title>
<g id="a_node5"><a xlink:href="classStateTwo.html#a63046074605d8d7a3201082ba9e13673" target="_top" xlink:title="StateTwo::getN">
<polygon fill="none" stroke="black" points="178,-76.5 178,-95.5 268,-95.5 268,-76.5 178,-76.5"/>
<text text-anchor="middle" x="223" y="-83.5" font-family="Helvetica,sans-Serif" font-size="10.00">StateTwo::getN</text>
</a>
</g>
</g>
<!-- Node64&#45;&gt;Node68 -->
<g id="edge4" class="edge"><title>Node64&#45;&gt;Node68</title>
<path fill="none" stroke="midnightblue" d="M127.201,-97.4361C140.603,-95.8193 154.653,-94.1244 167.708,-92.5495"/>
<polygon fill="midnightblue" stroke="midnightblue" points="168.424,-95.9886 177.933,-91.316 167.586,-89.039 168.424,-95.9886"/>
</g>
<!-- Node69 -->
<g id="node6" class="node"><title>Node69</title>
<g id="a_node6"><a xlink:href="classStateTwo.html#a11bbc5b4c7f83c44a3536a349e78a925" target="_top" xlink:title="StateTwo::getSpecies">
<polygon fill="none" stroke="black" points="163,-38.5 163,-57.5 283,-57.5 283,-38.5 163,-38.5"/>
<text text-anchor="middle" x="223" y="-45.5" font-family="Helvetica,sans-Serif" font-size="10.00">StateTwo::getSpecies</text>
</a>
</g>
</g>
<!-- Node64&#45;&gt;Node69 -->
<g id="edge5" class="edge"><title>Node64&#45;&gt;Node69</title>
<path fill="none" stroke="midnightblue" d="M88.2442,-95.4054C108.108,-87.4835 137.252,-76.1043 163,-67 168.992,-64.8812 175.36,-62.7287 181.611,-60.6709"/>
<polygon fill="midnightblue" stroke="midnightblue" points="182.838,-63.9524 191.267,-57.5335 180.675,-57.295 182.838,-63.9524"/>
</g>
<!-- Node70 -->
<g id="node7" class="node"><title>Node70</title>
<g id="a_node7"><a xlink:href="classStateTwo.html#a6444d1eb8cef228b718db82bbd7c6031" target="_top" xlink:title="StateTwo::StateTwo">
<polygon fill="none" stroke="black" points="167.5,-0.5 167.5,-19.5 278.5,-19.5 278.5,-0.5 167.5,-0.5"/>
<text text-anchor="middle" x="223" y="-7.5" font-family="Helvetica,sans-Serif" font-size="10.00">StateTwo::StateTwo</text>
</a>
</g>
</g>
<!-- Node64&#45;&gt;Node70 -->
<g id="edge6" class="edge"><title>Node64&#45;&gt;Node70</title>
<path fill="none" stroke="midnightblue" d="M74.5916,-95.2565C91.5592,-79.3502 127.447,-47.7068 163,-29 167.184,-26.7984 171.67,-24.7928 176.231,-22.9809"/>
<polygon fill="midnightblue" stroke="midnightblue" points="177.444,-26.2642 185.625,-19.5327 175.032,-19.6928 177.444,-26.2642"/>
</g>
</g>
</svg>
