<?xml version="1.0" encoding="UTF-8" standalone="no"?>
<!DOCTYPE svg PUBLIC "-//W3C//DTD SVG 1.1//EN"
 "http://www.w3.org/Graphics/SVG/1.1/DTD/svg11.dtd">
<!-- Generated by graphviz version 2.38.0 (20140413.2041)
 -->
<!-- Title: SystemTwo::enableGreenTensor Pages: 1 -->
<svg width="386pt" height="66pt"
 viewBox="0.00 0.00 386.00 66.00" xmlns="http://www.w3.org/2000/svg" xmlns:xlink="http://www.w3.org/1999/xlink">
<g id="graph0" class="graph" transform="scale(1 1) rotate(0) translate(4 62)">
<title>SystemTwo::enableGreenTensor</title>
<!-- Node17 -->
<g id="node1" class="node"><title>Node17</title>
<polygon fill="#bfbfbf" stroke="black" points="0,-19.5 0,-38.5 171,-38.5 171,-19.5 0,-19.5"/>
<text text-anchor="middle" x="85.5" y="-26.5" font-family="Helvetica,sans-Serif" font-size="10.00">SystemTwo::enableGreenTensor</text>
</g>
<!-- Node18 -->
<g id="node2" class="node"><title>Node18</title>
<g id="a_node2"><a xlink:href="classSystemTwo.html#a54002580bc1b3d706f540ae57c66db0e" target="_top" xlink:title="SystemTwo::setDistanceVector">
<polygon fill="none" stroke="black" points="209.5,-38.5 209.5,-57.5 375.5,-57.5 375.5,-38.5 209.5,-38.5"/>
<text text-anchor="middle" x="292.5" y="-45.5" font-family="Helvetica,sans-Serif" font-size="10.00">SystemTwo::setDistanceVector</text>
</a>
</g>
</g>
<!-- Node17&#45;&gt;Node18 -->
<g id="edge1" class="edge"><title>Node17&#45;&gt;Node18</title>
<path fill="none" stroke="midnightblue" d="M181.237,-37.7805C190.657,-38.6536 200.165,-39.5348 209.44,-40.3945"/>
<polygon fill="midnightblue" stroke="midnightblue" points="181.345,-34.2756 171.065,-36.8377 180.699,-41.2457 181.345,-34.2756"/>
</g>
<!-- Node19 -->
<g id="node3" class="node"><title>Node19</title>
<g id="a_node3"><a xlink:href="classSystemTwo.html#a22e479743949d6f9d325231da6e1d269" target="_top" xlink:title="SystemTwo::setSurfaceDistance">
<polygon fill="none" stroke="black" points="207,-0.5 207,-19.5 378,-19.5 378,-0.5 207,-0.5"/>
<text text-anchor="middle" x="292.5" y="-7.5" font-family="Helvetica,sans-Serif" font-size="10.00">SystemTwo::setSurfaceDistance</text>
</a>
</g>
</g>
<!-- Node17&#45;&gt;Node19 -->
<g id="edge2" class="edge"><title>Node17&#45;&gt;Node19</title>
<path fill="none" stroke="midnightblue" d="M181.085,-20.2335C189.663,-19.4386 198.315,-18.6367 206.799,-17.8504"/>
<polygon fill="midnightblue" stroke="midnightblue" points="180.699,-16.7542 171.065,-21.1623 181.345,-23.7244 180.699,-16.7542"/>
</g>
</g>
</svg>
