<?xml version="1.0" encoding="UTF-8" standalone="no"?>
<!DOCTYPE svg PUBLIC "-//W3C//DTD SVG 1.1//EN"
 "http://www.w3.org/Graphics/SVG/1.1/DTD/svg11.dtd">
<!-- Generated by graphviz version 2.38.0 (20140413.2041)
 -->
<!-- Title: StateOne::getSpecies Pages: 1 -->
<!--zoomable 290 -->
<svg id="main" version="1.1" xmlns="http://www.w3.org/2000/svg" xmlns:xlink="http://www.w3.org/1999/xlink" xml:space="preserve" onload="init(evt)">
<style type="text/css"><![CDATA[
.edge:hover path { stroke: red; }
.edge:hover polygon { stroke: red; fill: red; }
]]></style>
<script type="text/javascript"><![CDATA[
var edges = document.getElementsByTagName('g');
if (edges && edges.length) {
  for (var i=0;i<edges.length;i++) {
    if (edges[i].id.substr(0,4)=='edge') {
      edges[i].setAttribute('class','edge');
    }
  }
}
]]></script>
        <defs>
                <circle id="rim" cx="0" cy="0" r="7"/>
                <circle id="rim2" cx="0" cy="0" r="3.5"/>
                <g id="zoomPlus">
                        <use xlink:href="#rim" fill="#404040">
                                <set attributeName="fill" to="#808080" begin="zoomplus.mouseover" end="zoomplus.mouseout"/>
                        </use>
                        <path d="M-4,0h8M0,-4v8" fill="none" stroke="white" stroke-width="1.5" pointer-events="none"/>
                </g>
                <g id="zoomMin">
                        <use xlink:href="#rim" fill="#404040">
                                <set attributeName="fill" to="#808080" begin="zoomminus.mouseover" end="zoomminus.mouseout"/>
                        </use>
                        <path d="M-4,0h8" fill="none" stroke="white" stroke-width="1.5" pointer-events="none"/>
                </g>
                <g id="dirArrow">
                        <path fill="none" stroke="white" stroke-width="1.5" d="M0,-3.0v7 M-2.5,-0.5L0,-3.0L2.5,-0.5"/>
                </g>
               <g id="resetDef">
                       <use xlink:href="#rim2" fill="#404040">
                               <set attributeName="fill" to="#808080" begin="reset.mouseover" end="reset.mouseout"/>
                       </use>
               </g>
        </defs>

<script type="text/javascript">
var viewWidth = 719;
var viewHeight = 290;
var sectionId = 'dynsection-15';
</script>
<script xlink:href="svgpan.js"/>
<svg id="graph" class="graph">
<g id="viewport">
<title>StateOne::getSpecies</title>
<!-- Node112 -->
<g id="node1" class="node"><title>Node112</title>
<polygon fill="#bfbfbf" stroke="black" points="0,-120.5 0,-139.5 122,-139.5 122,-120.5 0,-120.5"/>
<text text-anchor="middle" x="61" y="-127.5" font-family="Helvetica,sans-Serif" font-size="10.00">StateOne::getSpecies</text>
</g>
<!-- Node113 -->
<g id="node2" class="node"><title>Node113</title>
<g id="a_node2"><a xlink:href="integration__test_8cpp.html#a0edc7e03850724a3784df426b75fb1d2" target="_top" xlink:title="BOOST_FIXTURE_TEST_CASE">
<polygon fill="none" stroke="black" points="158,-262.5 158,-281.5 313,-281.5 313,-262.5 158,-262.5"/>
<text text-anchor="middle" x="235.5" y="-269.5" font-family="Helvetica,sans-Serif" font-size="10.00">BOOST_FIXTURE_TEST_CASE</text>
</a>
</g>
</g>
<!-- Node112&#45;&gt;Node113 -->
<g id="edge1" class="edge"><title>Node112&#45;&gt;Node113</title>
<path fill="none" stroke="midnightblue" d="M71.3511,-148.704C85.9828,-175.985 116.921,-226.335 158,-253 163.969,-256.874 170.669,-259.959 177.558,-262.414"/>
<polygon fill="midnightblue" stroke="midnightblue" points="74.4302,-147.039 66.7096,-139.783 68.2205,-150.27 74.4302,-147.039"/>
</g>
<!-- Node114 -->
<g id="node3" class="node"><title>Node114</title>
<g id="a_node3"><a xlink:href="classMatrixElementCache.html#afc9f56a599c9ea24bbfbd4aeb41efbd4" target="_top" xlink:title="MatrixElementCache\l::getElectricMultipole">
<polygon fill="none" stroke="black" points="177.5,-213 177.5,-243 293.5,-243 293.5,-213 177.5,-213"/>
<text text-anchor="start" x="185.5" y="-231" font-family="Helvetica,sans-Serif" font-size="10.00">MatrixElementCache</text>
<text text-anchor="middle" x="235.5" y="-220" font-family="Helvetica,sans-Serif" font-size="10.00">::getElectricMultipole</text>
</a>
</g>
</g>
<!-- Node112&#45;&gt;Node114 -->
<g id="edge2" class="edge"><title>Node112&#45;&gt;Node114</title>
<path fill="none" stroke="midnightblue" d="M79.3348,-146.449C97.6186,-163.019 127.899,-188.315 158,-204 164.419,-207.345 171.387,-210.321 178.415,-212.94"/>
<polygon fill="midnightblue" stroke="midnightblue" points="81.5445,-143.726 71.822,-139.516 76.7972,-148.87 81.5445,-143.726"/>
</g>
<!-- Node115 -->
<g id="node4" class="node"><title>Node115</title>
<g id="a_node4"><a xlink:href="classMatrixElementCache.html#aeef0496ad6db911dac50c0625660d9c0" target="_top" xlink:title="MatrixElementCache\l::getMagneticDipole">
<polygon fill="none" stroke="black" points="177.5,-164 177.5,-194 293.5,-194 293.5,-164 177.5,-164"/>
<text text-anchor="start" x="185.5" y="-182" font-family="Helvetica,sans-Serif" font-size="10.00">MatrixElementCache</text>
<text text-anchor="middle" x="235.5" y="-171" font-family="Helvetica,sans-Serif" font-size="10.00">::getMagneticDipole</text>
</a>
</g>
</g>
<!-- Node112&#45;&gt;Node115 -->
<g id="edge3" class="edge"><title>Node112&#45;&gt;Node115</title>
<path fill="none" stroke="midnightblue" d="M105.532,-142.366C128.629,-148.926 157.193,-157.04 181.564,-163.963"/>
<polygon fill="midnightblue" stroke="midnightblue" points="106.245,-138.93 95.6692,-139.564 104.332,-145.663 106.245,-138.93"/>
</g>
<!-- Node117 -->
<g id="node6" class="node"><title>Node117</title>
<g id="a_node6"><a xlink:href="classMatrixElementCache.html#ad624534d20e42d8c4f495b51d6084057" target="_top" xlink:title="MatrixElementCache\l::getRadial">
<polygon fill="none" stroke="black" points="177.5,-115 177.5,-145 293.5,-145 293.5,-115 177.5,-115"/>
<text text-anchor="start" x="185.5" y="-133" font-family="Helvetica,sans-Serif" font-size="10.00">MatrixElementCache</text>
<text text-anchor="middle" x="235.5" y="-122" font-family="Helvetica,sans-Serif" font-size="10.00">::getRadial</text>
</a>
</g>
</g>
<!-- Node112&#45;&gt;Node117 -->
<g id="edge5" class="edge"><title>Node112&#45;&gt;Node117</title>
<path fill="none" stroke="midnightblue" d="M132.538,-130C147.462,-130 163.036,-130 177.389,-130"/>
<polygon fill="midnightblue" stroke="midnightblue" points="132.332,-126.5 122.332,-130 132.332,-133.5 132.332,-126.5"/>
</g>
<!-- Node120 -->
<g id="node9" class="node"><title>Node120</title>
<g id="a_node9"><a xlink:href="classStateOne.html#a0b5646c4160083ef4b24460e9159ad2c" target="_top" xlink:title="StateOne::getReflected">
<polygon fill="none" stroke="black" points="171.5,-76.5 171.5,-95.5 299.5,-95.5 299.5,-76.5 171.5,-76.5"/>
<text text-anchor="middle" x="235.5" y="-83.5" font-family="Helvetica,sans-Serif" font-size="10.00">StateOne::getReflected</text>
</a>
</g>
</g>
<!-- Node112&#45;&gt;Node120 -->
<g id="edge8" class="edge"><title>Node112&#45;&gt;Node120</title>
<path fill="none" stroke="midnightblue" d="M109.288,-117.938C136.953,-110.882 171.39,-102.098 197.143,-95.5287"/>
<polygon fill="midnightblue" stroke="midnightblue" points="108.255,-114.59 99.4299,-120.453 109.985,-121.372 108.255,-114.59"/>
</g>
<!-- Node123 -->
<g id="node12" class="node"><title>Node123</title>
<g id="a_node12"><a xlink:href="State_8cpp.html#ae62083584a93c249d0c3b4a6f046fee1" target="_top" xlink:title="operator\&lt;\&lt;">
<polygon fill="none" stroke="black" points="198.5,-38.5 198.5,-57.5 272.5,-57.5 272.5,-38.5 198.5,-38.5"/>
<text text-anchor="middle" x="235.5" y="-45.5" font-family="Helvetica,sans-Serif" font-size="10.00">operator&lt;&lt;</text>
</a>
</g>
</g>
<!-- Node112&#45;&gt;Node123 -->
<g id="edge11" class="edge"><title>Node112&#45;&gt;Node123</title>
<path fill="none" stroke="midnightblue" d="M81.676,-114.206C100.319,-99.9642 129.616,-79.4074 158,-67 170.664,-61.464 185.244,-57.3388 198.255,-54.3729"/>
<polygon fill="midnightblue" stroke="midnightblue" points="79.4081,-111.536 73.6658,-120.439 83.7072,-117.06 79.4081,-111.536"/>
</g>
<!-- Node124 -->
<g id="node13" class="node"><title>Node124</title>
<g id="a_node13"><a xlink:href="classStateOne.html#a5b05a258a43a682cfe7af5eb57d0221c" target="_top" xlink:title="Implementation of one&#45;atom state ///////////////////////////////. ">
<polygon fill="none" stroke="black" points="178.5,-0.5 178.5,-19.5 292.5,-19.5 292.5,-0.5 178.5,-0.5"/>
<text text-anchor="middle" x="235.5" y="-7.5" font-family="Helvetica,sans-Serif" font-size="10.00">StateOne::StateOne</text>
</a>
</g>
</g>
<!-- Node112&#45;&gt;Node124 -->
<g id="edge12" class="edge"><title>Node112&#45;&gt;Node124</title>
<path fill="none" stroke="midnightblue" d="M74.2826,-111.73C90.652,-88.8409 121.799,-50.0705 158,-29 164.623,-25.145 172.01,-22.0674 179.508,-19.6115"/>
<polygon fill="midnightblue" stroke="midnightblue" points="71.2274,-109.993 68.3836,-120.199 76.9713,-113.994 71.2274,-109.993"/>
</g>
<!-- Node116 -->
<g id="node5" class="node"><title>Node116</title>
<g id="a_node5"><a xlink:href="classSystemOne.html#abf6d26d44765fa787251956c128644a7" target="_top" xlink:title="Method that allows base class to calculate the interaction /////. ">
<polygon fill="none" stroke="black" points="349,-169.5 349,-188.5 517,-188.5 517,-169.5 349,-169.5"/>
<text text-anchor="middle" x="433" y="-176.5" font-family="Helvetica,sans-Serif" font-size="10.00">SystemOne::initializeInteraction</text>
</a>
</g>
</g>
<!-- Node115&#45;&gt;Node116 -->
<g id="edge4" class="edge"><title>Node115&#45;&gt;Node116</title>
<path fill="none" stroke="midnightblue" d="M303.891,-179C318.328,-179 333.745,-179 348.702,-179"/>
<polygon fill="midnightblue" stroke="midnightblue" points="303.572,-175.5 293.572,-179 303.572,-182.5 303.572,-175.5"/>
</g>
<!-- Node118 -->
<g id="node7" class="node"><title>Node118</title>
<g id="a_node7"><a xlink:href="classMatrixElementCache.html#aebf63bfd2c9cc016e6c21410b92a4983" target="_top" xlink:title="MatrixElementCache\l::getLeRoyRadius">
<polygon fill="none" stroke="black" points="375,-115 375,-145 491,-145 491,-115 375,-115"/>
<text text-anchor="start" x="383" y="-133" font-family="Helvetica,sans-Serif" font-size="10.00">MatrixElementCache</text>
<text text-anchor="middle" x="433" y="-122" font-family="Helvetica,sans-Serif" font-size="10.00">::getLeRoyRadius</text>
</a>
</g>
</g>
<!-- Node117&#45;&gt;Node118 -->
<g id="edge6" class="edge"><title>Node117&#45;&gt;Node118</title>
<path fill="none" stroke="midnightblue" d="M303.672,-130C326.843,-130 352.564,-130 374.857,-130"/>
<polygon fill="midnightblue" stroke="midnightblue" points="303.572,-126.5 293.572,-130 303.572,-133.5 303.572,-126.5"/>
</g>
<!-- Node119 -->
<g id="node8" class="node"><title>Node119</title>
<g id="a_node8"><a xlink:href="classSystemTwo.html#aabf2ba0d13067b81c2f7d1c78368a63e" target="_top" xlink:title="Methods that allows base class to communicate with subclass ////. ">
<polygon fill="none" stroke="black" points="553,-120.5 553,-139.5 711,-139.5 711,-120.5 553,-120.5"/>
<text text-anchor="middle" x="632" y="-127.5" font-family="Helvetica,sans-Serif" font-size="10.00">SystemTwo::onStatesChange</text>
</a>
</g>
</g>
<!-- Node118&#45;&gt;Node119 -->
<g id="edge7" class="edge"><title>Node118&#45;&gt;Node119</title>
<path fill="none" stroke="midnightblue" d="M501.352,-130C517.885,-130 535.723,-130 552.722,-130"/>
<polygon fill="midnightblue" stroke="midnightblue" points="501.245,-126.5 491.245,-130 501.245,-133.5 501.245,-126.5"/>
</g>
<!-- Node121 -->
<g id="node10" class="node"><title>Node121</title>
<g id="a_node10"><a xlink:href="classSystemOne.html#a4278feede19c90186f22f37c1d5d53b2" target="_top" xlink:title="Method that allows base class to combine systems ///////////////. ">
<polygon fill="none" stroke="black" points="366,-76.5 366,-95.5 500,-95.5 500,-76.5 366,-76.5"/>
<text text-anchor="middle" x="433" y="-83.5" font-family="Helvetica,sans-Serif" font-size="10.00">SystemOne::incorporate</text>
</a>
</g>
</g>
<!-- Node120&#45;&gt;Node121 -->
<g id="edge9" class="edge"><title>Node120&#45;&gt;Node121</title>
<path fill="none" stroke="midnightblue" d="M309.803,-86C328.245,-86 347.927,-86 365.988,-86"/>
<polygon fill="midnightblue" stroke="midnightblue" points="309.703,-82.5001 299.703,-86 309.703,-89.5001 309.703,-82.5001"/>
</g>
<!-- Node122 -->
<g id="node11" class="node"><title>Node122</title>
<g id="a_node11"><a xlink:href="classSystemTwo.html#a7aa70b668bd55e25ba9ed8f9d037052c" target="_top" xlink:title="Method that allows base class to initialize Basis //////////////. ">
<polygon fill="none" stroke="black" points="362.5,-38.5 362.5,-57.5 503.5,-57.5 503.5,-38.5 362.5,-38.5"/>
<text text-anchor="middle" x="433" y="-45.5" font-family="Helvetica,sans-Serif" font-size="10.00">SystemTwo::initializeBasis</text>
</a>
</g>
</g>
<!-- Node120&#45;&gt;Node122 -->
<g id="edge10" class="edge"><title>Node120&#45;&gt;Node122</title>
<path fill="none" stroke="midnightblue" d="M295.61,-74.5106C323.504,-69.0886 356.402,-62.6942 382.899,-57.5439"/>
<polygon fill="midnightblue" stroke="midnightblue" points="294.729,-71.1162 285.581,-76.46 296.065,-77.9876 294.729,-71.1162"/>
</g>
</g>
</svg>
        <g id="navigator" transform="translate(0 0)" fill="#404254">
                <rect fill="#f2f5e9" fill-opacity="0.5" stroke="#606060" stroke-width=".5" x="0" y="0" width="60" height="60"/>
                <use id="zoomplus" xlink:href="#zoomPlus" x="17" y="9" onmousedown="handleZoom(evt,'in')"/>
                <use id="zoomminus" xlink:href="#zoomMin" x="42" y="9" onmousedown="handleZoom(evt,'out')"/>
                <use id="reset" xlink:href="#resetDef" x="30" y="36" onmousedown="handleReset()"/>
                <g id="arrowUp" xlink:href="#dirArrow" transform="translate(30 24)" onmousedown="handlePan(0,-1)">
                  <use xlink:href="#rim" fill="#404040">
                        <set attributeName="fill" to="#808080" begin="arrowUp.mouseover" end="arrowUp.mouseout"/>
                  </use>
                  <path fill="none" stroke="white" stroke-width="1.5" d="M0,-3.0v7 M-2.5,-0.5L0,-3.0L2.5,-0.5"/>
                </g>
                <g id="arrowRight" xlink:href="#dirArrow" transform="rotate(90) translate(36 -43)" onmousedown="handlePan(1,0)">
                  <use xlink:href="#rim" fill="#404040">
                        <set attributeName="fill" to="#808080" begin="arrowRight.mouseover" end="arrowRight.mouseout"/>
                  </use>
                  <path fill="none" stroke="white" stroke-width="1.5" d="M0,-3.0v7 M-2.5,-0.5L0,-3.0L2.5,-0.5"/>
                </g>
                <g id="arrowDown" xlink:href="#dirArrow" transform="rotate(180) translate(-30 -48)" onmousedown="handlePan(0,1)">
                  <use xlink:href="#rim" fill="#404040">
                        <set attributeName="fill" to="#808080" begin="arrowDown.mouseover" end="arrowDown.mouseout"/>
                  </use>
                  <path fill="none" stroke="white" stroke-width="1.5" d="M0,-3.0v7 M-2.5,-0.5L0,-3.0L2.5,-0.5"/>
                </g>
                <g id="arrowLeft" xlink:href="#dirArrow" transform="rotate(270) translate(-36 17)" onmousedown="handlePan(-1,0)">
                  <use xlink:href="#rim" fill="#404040">
                        <set attributeName="fill" to="#808080" begin="arrowLeft.mouseover" end="arrowLeft.mouseout"/>
                  </use>
                  <path fill="none" stroke="white" stroke-width="1.5" d="M0,-3.0v7 M-2.5,-0.5L0,-3.0L2.5,-0.5"/>
                </g>
        </g>
        <svg viewBox="0 0 15 15" width="100%" height="30px" preserveAspectRatio="xMaxYMin meet">
         <g id="arrow_out" transform="scale(0.3 0.3)">
          <a xlink:href="classStateOne_a45b245f5da0068df4ff72093c654da89_icgraph_org.svg" target="_base">
           <rect id="button" ry="5" rx="5" y="6" x="6" height="38" width="38"
                fill="#f2f5e9" fill-opacity="0.5" stroke="#606060" stroke-width="1.0"/>
           <path id="arrow"
             d="M 11.500037,31.436501 C 11.940474,20.09759 22.043105,11.32322 32.158766,21.979434 L 37.068811,17.246167 C 37.068811,17.246167 37.088388,32 37.088388,32 L 22.160133,31.978069 C 22.160133,31.978069 26.997745,27.140456 26.997745,27.140456 C 18.528582,18.264221 13.291696,25.230495 11.500037,31.436501 z"
             style="fill:#404040;"/>
          </a>
         </g>
        </svg>
</svg>
