<?xml version="1.0" encoding="UTF-8" standalone="no"?>
<!DOCTYPE svg PUBLIC "-//W3C//DTD SVG 1.1//EN"
 "http://www.w3.org/Graphics/SVG/1.1/DTD/svg11.dtd">
<!-- Generated by graphviz version 2.38.0 (20140413.2041)
 -->
<!-- Title: SystemTwo Pages: 1 -->
<svg width="561pt" height="428pt"
 viewBox="0.00 0.00 561.00 428.28" xmlns="http://www.w3.org/2000/svg" xmlns:xlink="http://www.w3.org/1999/xlink">
<g id="graph0" class="graph" transform="scale(1 1) rotate(0) translate(4 424.279)">
<title>SystemTwo</title>
<!-- Node2 -->
<g id="node1" class="node"><title>Node2</title>
<polygon fill="#bfbfbf" stroke="black" points="482,-229.779 482,-248.779 553,-248.779 553,-229.779 482,-229.779"/>
<text text-anchor="middle" x="517.5" y="-236.779" font-family="Helvetica,sans-Serif" font-size="10.00">SystemTwo</text>
</g>
<!-- Node3 -->
<g id="node2" class="node"><title>Node3</title>
<g id="a_node2"><a xlink:href="classSystemBase.html" target="_top" xlink:title="SystemBase\&lt; StateTwo \&gt;">
<polygon fill="none" stroke="black" points="301,-229.779 301,-248.779 445,-248.779 445,-229.779 301,-229.779"/>
<text text-anchor="middle" x="373" y="-236.779" font-family="Helvetica,sans-Serif" font-size="10.00">SystemBase&lt; StateTwo &gt;</text>
</a>
</g>
</g>
<!-- Node3&#45;&gt;Node2 -->
<g id="edge1" class="edge"><title>Node3&#45;&gt;Node2</title>
<path fill="none" stroke="midnightblue" d="M455.311,-239.279C464.528,-239.279 473.516,-239.279 481.641,-239.279"/>
<polygon fill="midnightblue" stroke="midnightblue" points="455.25,-235.779 445.25,-239.279 455.25,-242.779 455.25,-235.779"/>
</g>
<!-- Node4 -->
<g id="node3" class="node"><title>Node4</title>
<polygon fill="none" stroke="#bfbfbf" points="32.5,-382.779 32.5,-401.779 107.5,-401.779 107.5,-382.779 32.5,-382.779"/>
<text text-anchor="middle" x="70" y="-389.779" font-family="Helvetica,sans-Serif" font-size="10.00">set&lt; float &gt;</text>
</g>
<!-- Node4&#45;&gt;Node3 -->
<g id="edge2" class="edge"><title>Node4&#45;&gt;Node3</title>
<path fill="none" stroke="#9a32cd" stroke-dasharray="5,2" d="M117.797,-397.915C163.255,-401.051 232.603,-399.438 283,-369.279 331.349,-340.345 359.516,-273.799 368.674,-248.908"/>
<polygon fill="#9a32cd" stroke="#9a32cd" points="117.875,-394.411 107.629,-397.108 117.32,-401.389 117.875,-394.411"/>
<text text-anchor="middle" x="220.5" y="-412.279" font-family="Helvetica,sans-Serif" font-size="10.00"> range_j</text>
<text text-anchor="middle" x="220.5" y="-401.279" font-family="Helvetica,sans-Serif" font-size="10.00">range_m</text>
</g>
<!-- Node5 -->
<g id="node4" class="node"><title>Node5</title>
<g id="a_node4"><a xlink:href="classdouble.html" target="_top" xlink:title="double">
<polygon fill="none" stroke="black" points="45.5,-328.779 45.5,-347.779 94.5,-347.779 94.5,-328.779 45.5,-328.779"/>
<text text-anchor="middle" x="70" y="-335.779" font-family="Helvetica,sans-Serif" font-size="10.00">double</text>
</a>
</g>
</g>
<!-- Node5&#45;&gt;Node3 -->
<g id="edge3" class="edge"><title>Node5&#45;&gt;Node3</title>
<path fill="none" stroke="#9a32cd" stroke-dasharray="5,2" d="M104.895,-336.423C156.41,-333.218 251.732,-325.665 283,-312.279 317.538,-297.493 349.347,-265.055 363.808,-248.865"/>
<polygon fill="#9a32cd" stroke="#9a32cd" points="104.377,-332.948 94.6054,-337.042 104.797,-339.935 104.377,-332.948"/>
<text text-anchor="middle" x="220.5" y="-357.279" font-family="Helvetica,sans-Serif" font-size="10.00"> energy_max</text>
<text text-anchor="middle" x="220.5" y="-346.279" font-family="Helvetica,sans-Serif" font-size="10.00">threshold_for_sqnorm</text>
<text text-anchor="middle" x="220.5" y="-335.279" font-family="Helvetica,sans-Serif" font-size="10.00">energy_min</text>
</g>
<!-- Node6 -->
<g id="node5" class="node"><title>Node6</title>
<g id="a_node5"><a xlink:href="classstd_1_1set_3_01StateTwo_01_4.html" target="_top" xlink:title="set\&lt; StateTwo \&gt;">
<polygon fill="none" stroke="black" points="21,-290.779 21,-309.779 119,-309.779 119,-290.779 21,-290.779"/>
<text text-anchor="middle" x="70" y="-297.779" font-family="Helvetica,sans-Serif" font-size="10.00">set&lt; StateTwo &gt;</text>
</a>
</g>
</g>
<!-- Node6&#45;&gt;Node3 -->
<g id="edge4" class="edge"><title>Node6&#45;&gt;Node3</title>
<path fill="none" stroke="#9a32cd" stroke-dasharray="5,2" d="M129.358,-299.063C172.436,-297.005 232.159,-291.706 283,-278.279 308.934,-271.43 336.985,-258.044 354.52,-248.884"/>
<polygon fill="#9a32cd" stroke="#9a32cd" points="129.17,-295.568 119.332,-299.498 129.474,-302.561 129.17,-295.568"/>
<text text-anchor="middle" x="220.5" y="-300.279" font-family="Helvetica,sans-Serif" font-size="10.00"> states_to_add</text>
</g>
<!-- Node7 -->
<g id="node6" class="node"><title>Node7</title>
<polygon fill="none" stroke="#bfbfbf" points="37,-248.779 37,-267.779 103,-267.779 103,-248.779 37,-248.779"/>
<text text-anchor="middle" x="70" y="-255.779" font-family="Helvetica,sans-Serif" font-size="10.00">set&lt; int &gt;</text>
</g>
<!-- Node7&#45;&gt;Node3 -->
<g id="edge5" class="edge"><title>Node7&#45;&gt;Node3</title>
<path fill="none" stroke="#9a32cd" stroke-dasharray="5,2" d="M113.381,-255.604C162.014,-252.534 242.551,-247.45 300.846,-243.77"/>
<polygon fill="#9a32cd" stroke="#9a32cd" points="112.972,-252.122 103.212,-256.246 113.413,-259.109 112.972,-252.122"/>
<text text-anchor="middle" x="220.5" y="-266.279" font-family="Helvetica,sans-Serif" font-size="10.00"> range_l</text>
<text text-anchor="middle" x="220.5" y="-255.279" font-family="Helvetica,sans-Serif" font-size="10.00">range_n</text>
</g>
<!-- Node8 -->
<g id="node7" class="node"><title>Node8</title>
<g id="a_node7"><a xlink:href="structstates__set.html" target="_top" xlink:title="states_set\&lt; StateTwo \&gt;">
<polygon fill="none" stroke="black" points="3,-210.779 3,-229.779 137,-229.779 137,-210.779 3,-210.779"/>
<text text-anchor="middle" x="70" y="-217.779" font-family="Helvetica,sans-Serif" font-size="10.00">states_set&lt; StateTwo &gt;</text>
</a>
</g>
</g>
<!-- Node8&#45;&gt;Node3 -->
<g id="edge6" class="edge"><title>Node8&#45;&gt;Node3</title>
<path fill="none" stroke="#9a32cd" stroke-dasharray="5,2" d="M147.452,-222.894C187.799,-224.525 238.116,-226.953 283,-230.279 288.73,-230.704 294.664,-231.193 300.621,-231.721"/>
<polygon fill="#9a32cd" stroke="#9a32cd" points="147.549,-219.395 137.419,-222.497 147.272,-226.39 147.549,-219.395"/>
<text text-anchor="middle" x="220.5" y="-233.279" font-family="Helvetica,sans-Serif" font-size="10.00"> states</text>
</g>
<!-- Node9 -->
<g id="node8" class="node"><title>Node9</title>
<g id="a_node8"><a xlink:href="classbool.html" target="_top" xlink:title="bool">
<polygon fill="none" stroke="black" points="51.5,-134.779 51.5,-153.779 88.5,-153.779 88.5,-134.779 51.5,-134.779"/>
<text text-anchor="middle" x="70" y="-141.779" font-family="Helvetica,sans-Serif" font-size="10.00">bool</text>
</a>
</g>
</g>
<!-- Node9&#45;&gt;Node3 -->
<g id="edge7" class="edge"><title>Node9&#45;&gt;Node3</title>
<path fill="none" stroke="#9a32cd" stroke-dasharray="5,2" d="M98.8309,-141.772C140.601,-139.118 221.192,-138.354 283,-164.279 318.217,-179.05 349.944,-212.89 364.139,-229.592"/>
<polygon fill="#9a32cd" stroke="#9a32cd" points="98.3258,-138.299 88.604,-142.511 98.8303,-145.281 98.3258,-138.299"/>
<text text-anchor="middle" x="220.5" y="-211.279" font-family="Helvetica,sans-Serif" font-size="10.00"> memory_saving</text>
<text text-anchor="start" x="168" y="-200.279" font-family="Helvetica,sans-Serif" font-size="10.00">is_interaction_already</text>
<text text-anchor="middle" x="220.5" y="-189.279" font-family="Helvetica,sans-Serif" font-size="10.00">_contained</text>
<text text-anchor="start" x="168" y="-178.279" font-family="Helvetica,sans-Serif" font-size="10.00">is_new_hamiltonian</text>
<text text-anchor="middle" x="220.5" y="-167.279" font-family="Helvetica,sans-Serif" font-size="10.00">_required</text>
</g>
<!-- Node10 -->
<g id="node9" class="node"><title>Node10</title>
<polygon fill="none" stroke="#bfbfbf" points="0,-45.7789 0,-64.7789 140,-64.7789 140,-45.7789 0,-45.7789"/>
<text text-anchor="middle" x="70" y="-52.7789" font-family="Helvetica,sans-Serif" font-size="10.00">SparseMatrix&lt; scalar_t &gt;</text>
</g>
<!-- Node10&#45;&gt;Node3 -->
<g id="edge8" class="edge"><title>Node10&#45;&gt;Node3</title>
<path fill="none" stroke="#9a32cd" stroke-dasharray="5,2" d="M132.464,-44.6235C177.699,-40.1324 238.765,-41.4012 283,-70.2789 341.866,-108.708 364.271,-199.388 370.233,-229.423"/>
<polygon fill="#9a32cd" stroke="#9a32cd" points="132.039,-41.1491 122.487,-45.7318 132.812,-48.1063 132.039,-41.1491"/>
<text text-anchor="start" x="158" y="-128.279" font-family="Helvetica,sans-Serif" font-size="10.00"> hamiltonian_unperturbed</text>
<text text-anchor="middle" x="220.5" y="-117.279" font-family="Helvetica,sans-Serif" font-size="10.00">_cache</text>
<text text-anchor="middle" x="220.5" y="-106.279" font-family="Helvetica,sans-Serif" font-size="10.00">hamiltonian</text>
<text text-anchor="start" x="158" y="-95.2789" font-family="Helvetica,sans-Serif" font-size="10.00">basisvectors_unperturbed</text>
<text text-anchor="middle" x="220.5" y="-84.2789" font-family="Helvetica,sans-Serif" font-size="10.00">_cache</text>
<text text-anchor="middle" x="220.5" y="-73.2789" font-family="Helvetica,sans-Serif" font-size="10.00">basisvectors</text>
</g>
<!-- Node11 -->
<g id="node10" class="node"><title>Node11</title>
<g id="a_node10"><a xlink:href="classMatrixElementCache.html" target="_top" xlink:title="MatrixElementCache">
<polygon fill="none" stroke="black" points="12,-7.77894 12,-26.7789 128,-26.7789 128,-7.77894 12,-7.77894"/>
<text text-anchor="middle" x="70" y="-14.7789" font-family="Helvetica,sans-Serif" font-size="10.00">MatrixElementCache</text>
</a>
</g>
</g>
<!-- Node11&#45;&gt;Node3 -->
<g id="edge9" class="edge"><title>Node11&#45;&gt;Node3</title>
<path fill="none" stroke="#9a32cd" stroke-dasharray="5,2" d="M119.4,-5.89328C165.676,2.07062 235.276,6.0929 283,-27.2789 353.987,-76.9175 368.577,-194.73 371.375,-229.474"/>
<polygon fill="#9a32cd" stroke="#9a32cd" points="118.52,-2.49665 109.321,-7.75338 119.79,-9.38041 118.52,-2.49665"/>
<text text-anchor="middle" x="220.5" y="-30.2789" font-family="Helvetica,sans-Serif" font-size="10.00"> cache</text>
</g>
</g>
</svg>
