<?xml version="1.0" encoding="UTF-8" standalone="no"?>
<!DOCTYPE svg PUBLIC "-//W3C//DTD SVG 1.1//EN"
 "http://www.w3.org/Graphics/SVG/1.1/DTD/svg11.dtd">
<!-- Generated by graphviz version 2.38.0 (20140413.2041)
 -->
<!-- Title: StateOne::getM Pages: 1 -->
<svg width="704pt" height="385pt"
 viewBox="0.00 0.00 704.00 384.50" xmlns="http://www.w3.org/2000/svg" xmlns:xlink="http://www.w3.org/1999/xlink">
<g id="graph0" class="graph" transform="scale(1 1) rotate(0) translate(4 380.5)">
<title>StateOne::getM</title>
<!-- Node65 -->
<g id="node1" class="node"><title>Node65</title>
<polygon fill="#bfbfbf" stroke="black" points="0,-174.5 0,-193.5 92,-193.5 92,-174.5 0,-174.5"/>
<text text-anchor="middle" x="46" y="-181.5" font-family="Helvetica,sans-Serif" font-size="10.00">StateOne::getM</text>
</g>
<!-- Node66 -->
<g id="node2" class="node"><title>Node66</title>
<g id="a_node2"><a xlink:href="classMatrixElementCache.html#afc9f56a599c9ea24bbfbd4aeb41efbd4" target="_top" xlink:title="MatrixElementCache\l::getElectricMultipole">
<polygon fill="none" stroke="black" points="150.5,-346 150.5,-376 266.5,-376 266.5,-346 150.5,-346"/>
<text text-anchor="start" x="158.5" y="-364" font-family="Helvetica,sans-Serif" font-size="10.00">MatrixElementCache</text>
<text text-anchor="middle" x="208.5" y="-353" font-family="Helvetica,sans-Serif" font-size="10.00">::getElectricMultipole</text>
</a>
</g>
</g>
<!-- Node65&#45;&gt;Node66 -->
<g id="edge1" class="edge"><title>Node65&#45;&gt;Node66</title>
<path fill="none" stroke="midnightblue" d="M52.8065,-203.419C63.0575,-234.54 87.2232,-295.666 128,-331 135.024,-337.086 143.405,-341.994 152.051,-345.934"/>
<polygon fill="midnightblue" stroke="midnightblue" points="56.1037,-202.237 49.7565,-193.754 49.4282,-204.343 56.1037,-202.237"/>
</g>
<!-- Node67 -->
<g id="node3" class="node"><title>Node67</title>
<g id="a_node3"><a xlink:href="classMatrixElementCache.html#aeef0496ad6db911dac50c0625660d9c0" target="_top" xlink:title="MatrixElementCache\l::getMagneticDipole">
<polygon fill="none" stroke="black" points="350.5,-298 350.5,-328 466.5,-328 466.5,-298 350.5,-298"/>
<text text-anchor="start" x="358.5" y="-316" font-family="Helvetica,sans-Serif" font-size="10.00">MatrixElementCache</text>
<text text-anchor="middle" x="408.5" y="-305" font-family="Helvetica,sans-Serif" font-size="10.00">::getMagneticDipole</text>
</a>
</g>
</g>
<!-- Node65&#45;&gt;Node67 -->
<g id="edge2" class="edge"><title>Node65&#45;&gt;Node67</title>
<path fill="none" stroke="midnightblue" d="M55.941,-202.855C68.3992,-226.781 93.4075,-267.193 128,-286 197.491,-323.781 291.169,-324.517 350.461,-319.99"/>
<polygon fill="midnightblue" stroke="midnightblue" points="58.9786,-201.104 51.3789,-193.722 52.7164,-204.232 58.9786,-201.104"/>
</g>
<!-- Node69 -->
<g id="node5" class="node"><title>Node69</title>
<g id="a_node5"><a xlink:href="classStateOne.html#a0b5646c4160083ef4b24460e9159ad2c" target="_top" xlink:title="StateOne::getReflected">
<polygon fill="none" stroke="black" points="144.5,-231.5 144.5,-250.5 272.5,-250.5 272.5,-231.5 144.5,-231.5"/>
<text text-anchor="middle" x="208.5" y="-238.5" font-family="Helvetica,sans-Serif" font-size="10.00">StateOne::getReflected</text>
</a>
</g>
</g>
<!-- Node65&#45;&gt;Node69 -->
<g id="edge4" class="edge"><title>Node65&#45;&gt;Node69</title>
<path fill="none" stroke="midnightblue" d="M78.0928,-197.464C93.0544,-203.738 111.325,-211.101 128,-217 142.679,-222.193 159.122,-227.276 173.228,-231.417"/>
<polygon fill="midnightblue" stroke="midnightblue" points="79.362,-194.201 68.7888,-193.526 76.6331,-200.647 79.362,-194.201"/>
</g>
<!-- Node70 -->
<g id="node6" class="node"><title>Node70</title>
<g id="a_node6"><a xlink:href="classSystemOne.html#a4278feede19c90186f22f37c1d5d53b2" target="_top" xlink:title="Method that allows base class to combine systems ///////////////. ">
<polygon fill="none" stroke="black" points="341.5,-255.5 341.5,-274.5 475.5,-274.5 475.5,-255.5 341.5,-255.5"/>
<text text-anchor="middle" x="408.5" y="-262.5" font-family="Helvetica,sans-Serif" font-size="10.00">SystemOne::incorporate</text>
</a>
</g>
</g>
<!-- Node65&#45;&gt;Node70 -->
<g id="edge7" class="edge"><title>Node65&#45;&gt;Node70</title>
<path fill="none" stroke="midnightblue" d="M59.4754,-201.734C73.6545,-220.21 98.6738,-248.092 128,-260 203.543,-290.676 300.307,-283.243 357.905,-274.508"/>
<polygon fill="midnightblue" stroke="midnightblue" points="62.1717,-199.493 53.4141,-193.531 56.5418,-203.653 62.1717,-199.493"/>
</g>
<!-- Node71 -->
<g id="node7" class="node"><title>Node71</title>
<g id="a_node7"><a xlink:href="classSystemTwo.html#a7aa70b668bd55e25ba9ed8f9d037052c" target="_top" xlink:title="Method that allows base class to initialize Basis //////////////. ">
<polygon fill="none" stroke="black" points="338,-209.5 338,-228.5 479,-228.5 479,-209.5 338,-209.5"/>
<text text-anchor="middle" x="408.5" y="-216.5" font-family="Helvetica,sans-Serif" font-size="10.00">SystemTwo::initializeBasis</text>
</a>
</g>
</g>
<!-- Node65&#45;&gt;Node71 -->
<g id="edge8" class="edge"><title>Node65&#45;&gt;Node71</title>
<path fill="none" stroke="midnightblue" d="M102.46,-189.384C165.654,-195.52 269.034,-205.557 337.669,-212.22"/>
<polygon fill="midnightblue" stroke="midnightblue" points="102.584,-185.88 92.2925,-188.397 101.908,-192.847 102.584,-185.88"/>
</g>
<!-- Node72 -->
<g id="node8" class="node"><title>Node72</title>
<g id="a_node8"><a xlink:href="classSystemOne.html#a1548df0406b8a36e4307f8dbf9226990" target="_top" xlink:title="Method that allows base class to initialize Basis //////////////. ">
<polygon fill="none" stroke="black" points="137,-155.5 137,-174.5 280,-174.5 280,-155.5 137,-155.5"/>
<text text-anchor="middle" x="208.5" y="-162.5" font-family="Helvetica,sans-Serif" font-size="10.00">SystemOne::initializeBasis</text>
</a>
</g>
</g>
<!-- Node65&#45;&gt;Node72 -->
<g id="edge9" class="edge"><title>Node65&#45;&gt;Node72</title>
<path fill="none" stroke="midnightblue" d="M102.174,-177.468C113.358,-176.145 125.264,-174.735 136.896,-173.358"/>
<polygon fill="midnightblue" stroke="midnightblue" points="101.654,-174.005 92.1353,-178.657 102.477,-180.957 101.654,-174.005"/>
</g>
<!-- Node73 -->
<g id="node9" class="node"><title>Node73</title>
<g id="a_node9"><a xlink:href="State_8cpp.html#ae62083584a93c249d0c3b4a6f046fee1" target="_top" xlink:title="operator\&lt;\&lt;">
<polygon fill="none" stroke="black" points="171.5,-117.5 171.5,-136.5 245.5,-136.5 245.5,-117.5 171.5,-117.5"/>
<text text-anchor="middle" x="208.5" y="-124.5" font-family="Helvetica,sans-Serif" font-size="10.00">operator&lt;&lt;</text>
</a>
</g>
</g>
<!-- Node65&#45;&gt;Node73 -->
<g id="edge10" class="edge"><title>Node65&#45;&gt;Node73</title>
<path fill="none" stroke="midnightblue" d="M73.5963,-169.839C89.1318,-161.998 109.302,-152.543 128,-146 141.93,-141.125 157.663,-137.076 171.434,-133.985"/>
<polygon fill="midnightblue" stroke="midnightblue" points="71.8724,-166.79 64.5767,-174.472 75.071,-173.016 71.8724,-166.79"/>
</g>
<!-- Node74 -->
<g id="node10" class="node"><title>Node74</title>
<g id="a_node10"><a xlink:href="MatrixElementCache_8h.html#a15aabd3025cfa0ca9485cd672c0a1a4a" target="_top" xlink:title="selectionRulesMomentumNew">
<polygon fill="none" stroke="black" points="128,-79.5 128,-98.5 289,-98.5 289,-79.5 128,-79.5"/>
<text text-anchor="middle" x="208.5" y="-86.5" font-family="Helvetica,sans-Serif" font-size="10.00">selectionRulesMomentumNew</text>
</a>
</g>
</g>
<!-- Node65&#45;&gt;Node74 -->
<g id="edge11" class="edge"><title>Node65&#45;&gt;Node74</title>
<path fill="none" stroke="midnightblue" d="M60.7381,-166.635C75.5016,-149.17 100.571,-122.774 128,-108 135.246,-104.097 143.29,-100.987 151.398,-98.5114"/>
<polygon fill="midnightblue" stroke="midnightblue" points="58.0005,-164.453 54.3532,-174.401 63.4076,-168.899 58.0005,-164.453"/>
</g>
<!-- Node76 -->
<g id="node12" class="node"><title>Node76</title>
<g id="a_node12"><a xlink:href="MatrixElementCache_8h.html#a06a268e07e2a0edb3fca096b8c941c78" target="_top" xlink:title="selectionRulesMultipoleNew">
<polygon fill="none" stroke="black" points="134.5,-41.5 134.5,-60.5 282.5,-60.5 282.5,-41.5 134.5,-41.5"/>
<text text-anchor="middle" x="208.5" y="-48.5" font-family="Helvetica,sans-Serif" font-size="10.00">selectionRulesMultipoleNew</text>
</a>
</g>
</g>
<!-- Node65&#45;&gt;Node76 -->
<g id="edge15" class="edge"><title>Node65&#45;&gt;Node76</title>
<path fill="none" stroke="midnightblue" d="M55.2745,-164.853C67.3926,-139.163 92.4514,-93.9988 128,-70 133.763,-66.1093 140.233,-63.012 146.927,-60.5468"/>
<polygon fill="midnightblue" stroke="midnightblue" points="51.9528,-163.703 51.0091,-174.256 58.3276,-166.595 51.9528,-163.703"/>
</g>
<!-- Node78 -->
<g id="node14" class="node"><title>Node78</title>
<g id="a_node14"><a xlink:href="classStateOne.html#a5b05a258a43a682cfe7af5eb57d0221c" target="_top" xlink:title="Implementation of one&#45;atom state ///////////////////////////////. ">
<polygon fill="none" stroke="black" points="151.5,-3.5 151.5,-22.5 265.5,-22.5 265.5,-3.5 151.5,-3.5"/>
<text text-anchor="middle" x="208.5" y="-10.5" font-family="Helvetica,sans-Serif" font-size="10.00">StateOne::StateOne</text>
</a>
</g>
</g>
<!-- Node65&#45;&gt;Node78 -->
<g id="edge19" class="edge"><title>Node65&#45;&gt;Node78</title>
<path fill="none" stroke="midnightblue" d="M51.726,-164.681C60.7398,-132.076 83.5709,-66.3314 128,-32 134.85,-26.7071 142.949,-22.8578 151.313,-20.0647"/>
<polygon fill="midnightblue" stroke="midnightblue" points="48.3351,-163.815 49.1877,-174.375 55.1068,-165.588 48.3351,-163.815"/>
</g>
<!-- Node68 -->
<g id="node4" class="node"><title>Node68</title>
<g id="a_node4"><a xlink:href="classSystemOne.html#abf6d26d44765fa787251956c128644a7" target="_top" xlink:title="Method that allows base class to calculate the interaction /////. ">
<polygon fill="none" stroke="black" points="528,-104.5 528,-123.5 696,-123.5 696,-104.5 528,-104.5"/>
<text text-anchor="middle" x="612" y="-111.5" font-family="Helvetica,sans-Serif" font-size="10.00">SystemOne::initializeInteraction</text>
</a>
</g>
</g>
<!-- Node67&#45;&gt;Node68 -->
<g id="edge3" class="edge"><title>Node67&#45;&gt;Node68</title>
<path fill="none" stroke="midnightblue" d="M476.372,-293.682C481.897,-290.857 487.196,-287.645 492,-284 552.558,-238.054 594.131,-152.36 606.875,-123.653"/>
<polygon fill="midnightblue" stroke="midnightblue" points="474.501,-290.692 466.908,-298.081 477.451,-297.04 474.501,-290.692"/>
</g>
<!-- Node69&#45;&gt;Node70 -->
<g id="edge5" class="edge"><title>Node69&#45;&gt;Node70</title>
<path fill="none" stroke="midnightblue" d="M282.633,-249.865C301.918,-252.202 322.613,-254.711 341.498,-257"/>
<polygon fill="midnightblue" stroke="midnightblue" points="283.041,-246.389 272.693,-248.66 282.199,-253.338 283.041,-246.389"/>
</g>
<!-- Node69&#45;&gt;Node71 -->
<g id="edge6" class="edge"><title>Node69&#45;&gt;Node71</title>
<path fill="none" stroke="midnightblue" d="M282.812,-232.854C300.762,-230.86 319.922,-228.731 337.702,-226.755"/>
<polygon fill="midnightblue" stroke="midnightblue" points="282.245,-229.396 272.693,-233.979 283.018,-236.353 282.245,-229.396"/>
</g>
<!-- Node74&#45;&gt;Node68 -->
<g id="edge12" class="edge"><title>Node74&#45;&gt;Node68</title>
<path fill="none" stroke="midnightblue" d="M259.184,-100.884C288.874,-107.941 321.508,-115.597 325,-116 392.948,-123.836 470.58,-122.66 527.8,-119.902"/>
<polygon fill="midnightblue" stroke="midnightblue" points="259.812,-97.4364 249.274,-98.5257 258.191,-104.246 259.812,-97.4364"/>
</g>
<!-- Node75 -->
<g id="node11" class="node"><title>Node75</title>
<g id="a_node11"><a xlink:href="classMatrixElementCache.html#a41efbe3c4a7e3e5f2ed2c807a0b3178e" target="_top" xlink:title="MatrixElementCache\l::precalculateDiamagnetism">
<polygon fill="none" stroke="black" points="332.5,-77 332.5,-107 484.5,-107 484.5,-77 332.5,-77"/>
<text text-anchor="start" x="340.5" y="-95" font-family="Helvetica,sans-Serif" font-size="10.00">MatrixElementCache</text>
<text text-anchor="middle" x="408.5" y="-84" font-family="Helvetica,sans-Serif" font-size="10.00">::precalculateDiamagnetism</text>
</a>
</g>
</g>
<!-- Node74&#45;&gt;Node75 -->
<g id="edge13" class="edge"><title>Node74&#45;&gt;Node75</title>
<path fill="none" stroke="midnightblue" d="M299.303,-90.3607C310.394,-90.5287 321.639,-90.6991 332.477,-90.8633"/>
<polygon fill="midnightblue" stroke="midnightblue" points="299.23,-86.8592 289.178,-90.2072 299.124,-93.8584 299.23,-86.8592"/>
</g>
<!-- Node75&#45;&gt;Node68 -->
<g id="edge14" class="edge"><title>Node75&#45;&gt;Node68</title>
<path fill="none" stroke="midnightblue" d="M494.547,-101.286C505.549,-102.487 516.807,-103.716 527.779,-104.914"/>
<polygon fill="midnightblue" stroke="midnightblue" points="494.852,-97.7981 484.531,-100.192 494.092,-104.757 494.852,-97.7981"/>
</g>
<!-- Node76&#45;&gt;Node68 -->
<g id="edge17" class="edge"><title>Node76&#45;&gt;Node68</title>
<path fill="none" stroke="midnightblue" d="M292.655,-48.79C349.435,-48.9601 426.032,-52.5 492,-67 528.881,-75.1067 569.256,-93.1727 592.221,-104.396"/>
<polygon fill="midnightblue" stroke="midnightblue" points="292.646,-45.2899 282.648,-48.7942 292.649,-52.2899 292.646,-45.2899"/>
</g>
<!-- Node76&#45;&gt;Node75 -->
<g id="edge18" class="edge"><title>Node76&#45;&gt;Node75</title>
<path fill="none" stroke="midnightblue" d="M265.372,-62.5695C286.894,-67.0261 311.796,-72.1825 334.686,-76.9223"/>
<polygon fill="midnightblue" stroke="midnightblue" points="265.925,-59.1098 255.423,-60.5093 264.505,-65.9643 265.925,-59.1098"/>
</g>
<!-- Node77 -->
<g id="node13" class="node"><title>Node77</title>
<g id="a_node13"><a xlink:href="classSystemTwo.html#a5cc89c42ab8066027b0c375b818c8333" target="_top" xlink:title="Method that allows base class to calculate the interaction /////. ">
<polygon fill="none" stroke="black" points="325,-0.5 325,-19.5 492,-19.5 492,-0.5 325,-0.5"/>
<text text-anchor="middle" x="408.5" y="-7.5" font-family="Helvetica,sans-Serif" font-size="10.00">SystemTwo::initializeInteraction</text>
</a>
</g>
</g>
<!-- Node76&#45;&gt;Node77 -->
<g id="edge16" class="edge"><title>Node76&#45;&gt;Node77</title>
<path fill="none" stroke="midnightblue" d="M265.435,-39.4175C295.78,-33.134 332.829,-25.4621 361.484,-19.5286"/>
<polygon fill="midnightblue" stroke="midnightblue" points="264.505,-36.0357 255.423,-41.4907 265.925,-42.8902 264.505,-36.0357"/>
</g>
</g>
</svg>
