<?xml version="1.0" encoding="UTF-8" standalone="no"?>
<!DOCTYPE svg PUBLIC "-//W3C//DTD SVG 1.1//EN"
 "http://www.w3.org/Graphics/SVG/1.1/DTD/svg11.dtd">
<!-- Generated by graphviz version 2.38.0 (20140413.2041)
 -->
<!-- Title: Numerov::power_kernel Pages: 1 -->
<svg width="574pt" height="75pt"
 viewBox="0.00 0.00 574.00 75.31" xmlns="http://www.w3.org/2000/svg" xmlns:xlink="http://www.w3.org/1999/xlink">
<g id="graph0" class="graph" transform="scale(1 1) rotate(0) translate(4 71.3122)">
<title>Numerov::power_kernel</title>
<!-- Node7 -->
<g id="node1" class="node"><title>Node7</title>
<polygon fill="#bfbfbf" stroke="black" points="0,-20.3122 0,-39.3122 130,-39.3122 130,-20.3122 0,-20.3122"/>
<text text-anchor="middle" x="65" y="-27.3122" font-family="Helvetica,sans-Serif" font-size="10.00">Numerov::power_kernel</text>
</g>
<!-- Node8 -->
<g id="node2" class="node"><title>Node8</title>
<g id="a_node2"><a xlink:href="namespacewhittaker__functions.html#a9fe8c4e2c3ae8b4330b54af0abfc2224" target="_top" xlink:title="Compute the confluent hypergeometric function. ">
<polygon fill="none" stroke="black" points="457,-36.8122 457,-66.8122 566,-66.8122 566,-36.8122 457,-36.8122"/>
<text text-anchor="start" x="465" y="-54.8122" font-family="Helvetica,sans-Serif" font-size="10.00">whittaker_functions</text>
<text text-anchor="middle" x="511.5" y="-43.8122" font-family="Helvetica,sans-Serif" font-size="10.00">::HypergeometricU</text>
</a>
</g>
</g>
<!-- Node7&#45;&gt;Node8 -->
<g id="edge1" class="edge"><title>Node7&#45;&gt;Node8</title>
<path fill="none" stroke="midnightblue" d="M97.6294,-39.4248C117.132,-44.8439 142.773,-51.064 166,-53.8122 263.314,-65.3264 377.172,-61.2833 446.539,-56.88"/>
<polygon fill="midnightblue" stroke="midnightblue" points="447.113,-60.3499 456.862,-56.2011 446.654,-53.365 447.113,-60.3499"/>
</g>
<!-- Node9 -->
<g id="node3" class="node"><title>Node9</title>
<g id="a_node3"><a xlink:href="namespacewhittaker__functions.html#ab69b6f45a0c575b401bdaf26a250f084" target="_top" xlink:title="Radial wavefunctions from Whittaker&#39;s function. ">
<polygon fill="none" stroke="black" points="166,-14.8122 166,-44.8122 276,-44.8122 276,-14.8122 166,-14.8122"/>
<text text-anchor="start" x="174" y="-32.8122" font-family="Helvetica,sans-Serif" font-size="10.00">whittaker_functions</text>
<text text-anchor="middle" x="221" y="-21.8122" font-family="Helvetica,sans-Serif" font-size="10.00">::RadialWFWhittaker</text>
</a>
</g>
</g>
<!-- Node7&#45;&gt;Node9 -->
<g id="edge2" class="edge"><title>Node7&#45;&gt;Node9</title>
<path fill="none" stroke="midnightblue" d="M130.418,-29.8122C138.738,-29.8122 147.261,-29.8122 155.581,-29.8122"/>
<polygon fill="midnightblue" stroke="midnightblue" points="155.604,-33.3123 165.604,-29.8122 155.604,-26.3123 155.604,-33.3123"/>
</g>
<!-- Node10 -->
<g id="node4" class="node"><title>Node10</title>
<g id="a_node4"><a xlink:href="namespacewhittaker__functions.html#a27cc4e33339852cc4bce929bf7c0b4d4" target="_top" xlink:title="Compute the Whittaker function. ">
<polygon fill="none" stroke="black" points="312,-14.8122 312,-44.8122 421,-44.8122 421,-14.8122 312,-14.8122"/>
<text text-anchor="start" x="320" y="-32.8122" font-family="Helvetica,sans-Serif" font-size="10.00">whittaker_functions</text>
<text text-anchor="middle" x="366.5" y="-21.8122" font-family="Helvetica,sans-Serif" font-size="10.00">::WhittakerW</text>
</a>
</g>
</g>
<!-- Node7&#45;&gt;Node10 -->
<g id="edge5" class="edge"><title>Node7&#45;&gt;Node10</title>
<path fill="none" stroke="midnightblue" d="M96.271,-20.1868C115.917,-14.4545 142.2,-7.74218 166,-4.81224 214.523,1.16116 227.564,1.82554 276,-4.81224 287.497,-6.38781 299.599,-9.05166 311.058,-12.0679"/>
<polygon fill="midnightblue" stroke="midnightblue" points="310.361,-15.5062 320.932,-14.7906 312.222,-8.75809 310.361,-15.5062"/>
</g>
<!-- Node9&#45;&gt;Node10 -->
<g id="edge3" class="edge"><title>Node9&#45;&gt;Node10</title>
<path fill="none" stroke="midnightblue" d="M276.251,-29.8122C284.489,-29.8122 293.055,-29.8122 301.478,-29.8122"/>
<polygon fill="midnightblue" stroke="midnightblue" points="301.648,-33.3123 311.648,-29.8122 301.648,-26.3123 301.648,-33.3123"/>
</g>
<!-- Node10&#45;&gt;Node8 -->
<g id="edge4" class="edge"><title>Node10&#45;&gt;Node8</title>
<path fill="none" stroke="midnightblue" d="M421.155,-38.0668C429.471,-39.3463 438.132,-40.6787 446.646,-41.9886"/>
<polygon fill="midnightblue" stroke="midnightblue" points="446.129,-45.45 456.545,-43.5114 447.193,-38.5314 446.129,-45.45"/>
</g>
</g>
</svg>
