<?xml version="1.0" encoding="UTF-8" standalone="no"?>
<!DOCTYPE svg PUBLIC "-//W3C//DTD SVG 1.1//EN"
 "http://www.w3.org/Graphics/SVG/1.1/DTD/svg11.dtd">
<!-- Generated by graphviz version 2.38.0 (20140413.2041)
 -->
<!-- Title: SystemOne::initializeBasis Pages: 1 -->
<svg width="434pt" height="165pt"
 viewBox="0.00 0.00 434.00 165.00" xmlns="http://www.w3.org/2000/svg" xmlns:xlink="http://www.w3.org/1999/xlink">
<g id="graph0" class="graph" transform="scale(1 1) rotate(0) translate(4 161)">
<title>SystemOne::initializeBasis</title>
<!-- Node28 -->
<g id="node1" class="node"><title>Node28</title>
<polygon fill="#bfbfbf" stroke="black" points="0,-69 0,-88 143,-88 143,-69 0,-69"/>
<text text-anchor="middle" x="71.5" y="-76" font-family="Helvetica,sans-Serif" font-size="10.00">SystemOne::initializeBasis</text>
</g>
<!-- Node29 -->
<g id="node2" class="node"><title>Node29</title>
<g id="a_node2"><a xlink:href="classSystemBase.html#a5fa7511cb2459a67370d4e33242092c7" target="_top" xlink:title="SystemBase\&lt; StateOne\l \&gt;::checkIsEnergyValid">
<polygon fill="none" stroke="black" points="179,-126.5 179,-156.5 313,-156.5 313,-126.5 179,-126.5"/>
<text text-anchor="start" x="187" y="-144.5" font-family="Helvetica,sans-Serif" font-size="10.00">SystemBase&lt; StateOne</text>
<text text-anchor="middle" x="246" y="-133.5" font-family="Helvetica,sans-Serif" font-size="10.00"> &gt;::checkIsEnergyValid</text>
</a>
</g>
</g>
<!-- Node28&#45;&gt;Node29 -->
<g id="edge1" class="edge"><title>Node28&#45;&gt;Node29</title>
<path fill="none" stroke="midnightblue" d="M98.699,-88.0683C123.982,-97.302 162.931,-111.527 194.287,-122.979"/>
<polygon fill="midnightblue" stroke="midnightblue" points="193.157,-126.292 203.75,-126.435 195.558,-119.717 193.157,-126.292"/>
</g>
<!-- Node30 -->
<g id="node3" class="node"><title>Node30</title>
<g id="a_node3"><a xlink:href="classStateOne.html#a6262da11406dbaa811f361cab2cf71b6" target="_top" xlink:title="StateOne::getEnergy">
<polygon fill="none" stroke="black" points="187.5,-88 187.5,-107 304.5,-107 304.5,-88 187.5,-88"/>
<text text-anchor="middle" x="246" y="-95" font-family="Helvetica,sans-Serif" font-size="10.00">StateOne::getEnergy</text>
</a>
</g>
</g>
<!-- Node28&#45;&gt;Node30 -->
<g id="edge2" class="edge"><title>Node28&#45;&gt;Node30</title>
<path fill="none" stroke="midnightblue" d="M143.16,-86.2828C154.415,-87.5226 166.037,-88.8026 177.224,-90.0348"/>
<polygon fill="midnightblue" stroke="midnightblue" points="177.029,-93.5344 187.352,-91.1504 177.795,-86.5765 177.029,-93.5344"/>
</g>
<!-- Node32 -->
<g id="node5" class="node"><title>Node32</title>
<g id="a_node5"><a xlink:href="classStateOne.html#aab2b41262381d67893113ed6f5ad18bc" target="_top" xlink:title="StateOne::getM">
<polygon fill="none" stroke="black" points="200,-50 200,-69 292,-69 292,-50 200,-50"/>
<text text-anchor="middle" x="246" y="-57" font-family="Helvetica,sans-Serif" font-size="10.00">StateOne::getM</text>
</a>
</g>
</g>
<!-- Node28&#45;&gt;Node32 -->
<g id="edge4" class="edge"><title>Node28&#45;&gt;Node32</title>
<path fill="none" stroke="midnightblue" d="M143.16,-70.7172C158.733,-69.0018 175.008,-67.2093 189.861,-65.5733"/>
<polygon fill="midnightblue" stroke="midnightblue" points="190.334,-69.0424 199.891,-64.4686 189.568,-62.0845 190.334,-69.0424"/>
</g>
<!-- Node33 -->
<g id="node6" class="node"><title>Node33</title>
<g id="a_node6"><a xlink:href="classSystemBase.html#a8da674b7b97c0b8d2dca5d9d2d7952a2" target="_top" xlink:title="SystemBase\&lt; StateOne\l \&gt;::range">
<polygon fill="none" stroke="black" points="179,-0.5 179,-30.5 313,-30.5 313,-0.5 179,-0.5"/>
<text text-anchor="start" x="187" y="-18.5" font-family="Helvetica,sans-Serif" font-size="10.00">SystemBase&lt; StateOne</text>
<text text-anchor="middle" x="246" y="-7.5" font-family="Helvetica,sans-Serif" font-size="10.00"> &gt;::range</text>
</a>
</g>
</g>
<!-- Node28&#45;&gt;Node33 -->
<g id="edge5" class="edge"><title>Node28&#45;&gt;Node33</title>
<path fill="none" stroke="midnightblue" d="M98.699,-68.9317C123.982,-59.698 162.931,-45.4729 194.287,-34.0213"/>
<polygon fill="midnightblue" stroke="midnightblue" points="195.558,-37.2833 203.75,-30.565 193.157,-30.708 195.558,-37.2833"/>
</g>
<!-- Node31 -->
<g id="node4" class="node"><title>Node31</title>
<g id="a_node4"><a xlink:href="QuantumDefect_8cpp.html#a854f2230d8c234ac6c9aa6f07c3ac266" target="_top" xlink:title="Returns only the energy of a state. ">
<polygon fill="none" stroke="black" points="349,-88 349,-107 426,-107 426,-88 349,-88"/>
<text text-anchor="middle" x="387.5" y="-95" font-family="Helvetica,sans-Serif" font-size="10.00">energy_level</text>
</a>
</g>
</g>
<!-- Node30&#45;&gt;Node31 -->
<g id="edge3" class="edge"><title>Node30&#45;&gt;Node31</title>
<path fill="none" stroke="midnightblue" d="M304.545,-97.5C315.807,-97.5 327.506,-97.5 338.42,-97.5"/>
<polygon fill="midnightblue" stroke="midnightblue" points="338.603,-101 348.603,-97.5 338.603,-94.0001 338.603,-101"/>
</g>
</g>
</svg>
