<?xml version="1.0" encoding="UTF-8" standalone="no"?>
<!DOCTYPE svg PUBLIC "-//W3C//DTD SVG 1.1//EN"
 "http://www.w3.org/Graphics/SVG/1.1/DTD/svg11.dtd">
<!-- Generated by graphviz version 2.38.0 (20140413.2041)
 -->
<!-- Title: MatrixElementCache::getLeRoyRadius Pages: 1 -->
<svg width="463pt" height="142pt"
 viewBox="0.00 0.00 463.00 142.00" xmlns="http://www.w3.org/2000/svg" xmlns:xlink="http://www.w3.org/1999/xlink">
<g id="graph0" class="graph" transform="scale(1 1) rotate(0) translate(4 138)">
<title>MatrixElementCache::getLeRoyRadius</title>
<!-- Node32 -->
<g id="node1" class="node"><title>Node32</title>
<polygon fill="#bfbfbf" stroke="black" points="0,-52 0,-82 116,-82 116,-52 0,-52"/>
<text text-anchor="start" x="8" y="-70" font-family="Helvetica,sans-Serif" font-size="10.00">MatrixElementCache</text>
<text text-anchor="middle" x="58" y="-59" font-family="Helvetica,sans-Serif" font-size="10.00">::getLeRoyRadius</text>
</g>
<!-- Node33 -->
<g id="node2" class="node"><title>Node33</title>
<g id="a_node2"><a xlink:href="classStateTwo.html#a48d2a882bdaf347c38d36ea1a2de4d25" target="_top" xlink:title="StateTwo::getFirstState">
<polygon fill="none" stroke="black" points="160,-101.5 160,-120.5 289,-120.5 289,-101.5 160,-101.5"/>
<text text-anchor="middle" x="224.5" y="-108.5" font-family="Helvetica,sans-Serif" font-size="10.00">StateTwo::getFirstState</text>
</a>
</g>
</g>
<!-- Node32&#45;&gt;Node33 -->
<g id="edge1" class="edge"><title>Node32&#45;&gt;Node33</title>
<path fill="none" stroke="midnightblue" d="M115.151,-82.0192C135.6,-87.4888 158.45,-93.6007 177.875,-98.7964"/>
<polygon fill="midnightblue" stroke="midnightblue" points="177.125,-102.219 187.69,-101.422 178.934,-95.4566 177.125,-102.219"/>
</g>
<!-- Node34 -->
<g id="node3" class="node"><title>Node34</title>
<g id="a_node3"><a xlink:href="classMatrixElementCache.html#ad624534d20e42d8c4f495b51d6084057" target="_top" xlink:title="MatrixElementCache\l::getRadial">
<polygon fill="none" stroke="black" points="166.5,-52 166.5,-82 282.5,-82 282.5,-52 166.5,-52"/>
<text text-anchor="start" x="174.5" y="-70" font-family="Helvetica,sans-Serif" font-size="10.00">MatrixElementCache</text>
<text text-anchor="middle" x="224.5" y="-59" font-family="Helvetica,sans-Serif" font-size="10.00">::getRadial</text>
</a>
</g>
</g>
<!-- Node32&#45;&gt;Node34 -->
<g id="edge2" class="edge"><title>Node32&#45;&gt;Node34</title>
<path fill="none" stroke="midnightblue" d="M116.072,-67C129.013,-67 142.874,-67 156.194,-67"/>
<polygon fill="midnightblue" stroke="midnightblue" points="156.25,-70.5001 166.25,-67 156.25,-63.5001 156.25,-70.5001"/>
</g>
<!-- Node39 -->
<g id="node8" class="node"><title>Node39</title>
<g id="a_node8"><a xlink:href="classStateTwo.html#a5f39ceea2e8f442364fec097566365d0" target="_top" xlink:title="StateTwo::getSecondState">
<polygon fill="none" stroke="black" points="152,-13.5 152,-32.5 297,-32.5 297,-13.5 152,-13.5"/>
<text text-anchor="middle" x="224.5" y="-20.5" font-family="Helvetica,sans-Serif" font-size="10.00">StateTwo::getSecondState</text>
</a>
</g>
</g>
<!-- Node32&#45;&gt;Node39 -->
<g id="edge7" class="edge"><title>Node32&#45;&gt;Node39</title>
<path fill="none" stroke="midnightblue" d="M115.056,-51.9031C127.234,-48.6313 140.047,-45.1946 152,-42 160.294,-39.7831 169.132,-37.4286 177.663,-35.1594"/>
<polygon fill="midnightblue" stroke="midnightblue" points="178.722,-38.4996 187.487,-32.5481 176.924,-31.7345 178.722,-38.4996"/>
</g>
<!-- Node35 -->
<g id="node4" class="node"><title>Node35</title>
<g id="a_node4"><a xlink:href="classStateOne.html#a45b245f5da0068df4ff72093c654da89" target="_top" xlink:title="StateOne::getSpecies">
<polygon fill="none" stroke="black" points="333,-114.5 333,-133.5 455,-133.5 455,-114.5 333,-114.5"/>
<text text-anchor="middle" x="394" y="-121.5" font-family="Helvetica,sans-Serif" font-size="10.00">StateOne::getSpecies</text>
</a>
</g>
</g>
<!-- Node34&#45;&gt;Node35 -->
<g id="edge3" class="edge"><title>Node34&#45;&gt;Node35</title>
<path fill="none" stroke="midnightblue" d="M268.628,-82C277.988,-85.2779 287.831,-88.7415 297,-92 313.029,-97.6963 316.888,-99.5422 333,-105 339.18,-107.093 345.742,-109.244 352.171,-111.311"/>
<polygon fill="midnightblue" stroke="midnightblue" points="351.501,-114.771 362.091,-114.471 353.625,-108.101 351.501,-114.771"/>
</g>
<!-- Node36 -->
<g id="node5" class="node"><title>Node36</title>
<g id="a_node5"><a xlink:href="classStateOne.html#a7deae740570ef5262e7fd2d254a8c530" target="_top" xlink:title="StateOne::getN">
<polygon fill="none" stroke="black" points="348,-76.5 348,-95.5 440,-95.5 440,-76.5 348,-76.5"/>
<text text-anchor="middle" x="394" y="-83.5" font-family="Helvetica,sans-Serif" font-size="10.00">StateOne::getN</text>
</a>
</g>
</g>
<!-- Node34&#45;&gt;Node36 -->
<g id="edge4" class="edge"><title>Node34&#45;&gt;Node36</title>
<path fill="none" stroke="midnightblue" d="M282.676,-73.4856C300.501,-75.5076 320.118,-77.7328 337.805,-79.7391"/>
<polygon fill="midnightblue" stroke="midnightblue" points="337.637,-83.2424 347.968,-80.8919 338.426,-76.287 337.637,-83.2424"/>
</g>
<!-- Node37 -->
<g id="node6" class="node"><title>Node37</title>
<g id="a_node6"><a xlink:href="classStateOne.html#a3783cebe5bbd63f072caf8450fea4aca" target="_top" xlink:title="StateOne::getL">
<polygon fill="none" stroke="black" points="349.5,-38.5 349.5,-57.5 438.5,-57.5 438.5,-38.5 349.5,-38.5"/>
<text text-anchor="middle" x="394" y="-45.5" font-family="Helvetica,sans-Serif" font-size="10.00">StateOne::getL</text>
</a>
</g>
</g>
<!-- Node34&#45;&gt;Node37 -->
<g id="edge5" class="edge"><title>Node34&#45;&gt;Node37</title>
<path fill="none" stroke="midnightblue" d="M282.676,-60.5144C300.982,-58.4378 321.179,-56.1469 339.233,-54.0989"/>
<polygon fill="midnightblue" stroke="midnightblue" points="339.759,-57.5618 349.301,-52.9569 338.97,-50.6064 339.759,-57.5618"/>
</g>
<!-- Node38 -->
<g id="node7" class="node"><title>Node38</title>
<g id="a_node7"><a xlink:href="classStateOne.html#aedba5bfce70f73fa324b9d5ae1115578" target="_top" xlink:title="StateOne::getJ">
<polygon fill="none" stroke="black" points="351,-0.5 351,-19.5 437,-19.5 437,-0.5 351,-0.5"/>
<text text-anchor="middle" x="394" y="-7.5" font-family="Helvetica,sans-Serif" font-size="10.00">StateOne::getJ</text>
</a>
</g>
</g>
<!-- Node34&#45;&gt;Node38 -->
<g id="edge6" class="edge"><title>Node34&#45;&gt;Node38</title>
<path fill="none" stroke="midnightblue" d="M268.628,-52C277.988,-48.7221 287.831,-45.2585 297,-42 313.029,-36.3037 316.888,-34.4578 333,-29 339.18,-26.9065 345.742,-24.7558 352.171,-22.6885"/>
<polygon fill="midnightblue" stroke="midnightblue" points="353.625,-25.8988 362.091,-19.5288 351.501,-19.229 353.625,-25.8988"/>
</g>
</g>
</svg>
