<?xml version="1.0" encoding="UTF-8" standalone="no"?>
<!DOCTYPE svg PUBLIC "-//W3C//DTD SVG 1.1//EN"
 "http://www.w3.org/Graphics/SVG/1.1/DTD/svg11.dtd">
<!-- Generated by graphviz version 2.38.0 (20140413.2041)
 -->
<!-- Title: PerturbativeInteraction::getC6 Pages: 1 -->
<svg width="467pt" height="382pt"
 viewBox="0.00 0.00 467.00 381.50" xmlns="http://www.w3.org/2000/svg" xmlns:xlink="http://www.w3.org/1999/xlink">
<g id="graph0" class="graph" transform="scale(1 1) rotate(0) translate(4 377.5)">
<title>PerturbativeInteraction::getC6</title>
<!-- Node8 -->
<g id="node1" class="node"><title>Node8</title>
<polygon fill="#bfbfbf" stroke="black" points="0,-166 0,-196 126,-196 126,-166 0,-166"/>
<text text-anchor="start" x="8" y="-184" font-family="Helvetica,sans-Serif" font-size="10.00">PerturbativeInteraction</text>
<text text-anchor="middle" x="63" y="-173" font-family="Helvetica,sans-Serif" font-size="10.00">::getC6</text>
</g>
<!-- Node9 -->
<g id="node2" class="node"><title>Node9</title>
<g id="a_node2"><a xlink:href="classMatrixElementCache.html#ac6191cd01c85dd9cf28a373b524f0b1b" target="_top" xlink:title="Get matrix elements ////////////////////////////////////////////. ">
<polygon fill="none" stroke="black" points="176.5,-343 176.5,-373 292.5,-373 292.5,-343 176.5,-343"/>
<text text-anchor="start" x="184.5" y="-361" font-family="Helvetica,sans-Serif" font-size="10.00">MatrixElementCache</text>
<text text-anchor="middle" x="234.5" y="-350" font-family="Helvetica,sans-Serif" font-size="10.00">::getElectricDipole</text>
</a>
</g>
</g>
<!-- Node8&#45;&gt;Node9 -->
<g id="edge1" class="edge"><title>Node8&#45;&gt;Node9</title>
<path fill="none" stroke="midnightblue" d="M69.8488,-196.324C82.2186,-226.751 113.905,-295.112 162,-333 164.276,-334.793 166.689,-336.462 169.2,-338.016"/>
<polygon fill="midnightblue" stroke="midnightblue" points="167.601,-341.131 178.053,-342.866 170.965,-334.992 167.601,-341.131"/>
</g>
<!-- Node11 -->
<g id="node4" class="node"><title>Node11</title>
<g id="a_node4"><a xlink:href="classStateTwo.html#a3f9e530a17bed5048f16653dcd9c7991" target="_top" xlink:title="StateTwo::getEnergy">
<polygon fill="none" stroke="black" points="176.5,-304.5 176.5,-323.5 292.5,-323.5 292.5,-304.5 176.5,-304.5"/>
<text text-anchor="middle" x="234.5" y="-311.5" font-family="Helvetica,sans-Serif" font-size="10.00">StateTwo::getEnergy</text>
</a>
</g>
</g>
<!-- Node8&#45;&gt;Node11 -->
<g id="edge3" class="edge"><title>Node8&#45;&gt;Node11</title>
<path fill="none" stroke="midnightblue" d="M72.7504,-196.123C87.7767,-220.713 120.876,-269.204 162,-295 165.392,-297.127 169.017,-299.019 172.77,-300.699"/>
<polygon fill="midnightblue" stroke="midnightblue" points="171.712,-304.044 182.298,-304.459 174.281,-297.533 171.712,-304.044"/>
</g>
<!-- Node12 -->
<g id="node5" class="node"><title>Node12</title>
<g id="a_node5"><a xlink:href="classStateTwo.html#a48d2a882bdaf347c38d36ea1a2de4d25" target="_top" xlink:title="StateTwo::getFirstState">
<polygon fill="none" stroke="black" points="170,-266.5 170,-285.5 299,-285.5 299,-266.5 170,-266.5"/>
<text text-anchor="middle" x="234.5" y="-273.5" font-family="Helvetica,sans-Serif" font-size="10.00">StateTwo::getFirstState</text>
</a>
</g>
</g>
<!-- Node8&#45;&gt;Node12 -->
<g id="edge4" class="edge"><title>Node8&#45;&gt;Node12</title>
<path fill="none" stroke="midnightblue" d="M79.2875,-196.078C97.5085,-213.237 129.583,-240.952 162,-257 166.82,-259.386 171.976,-261.5 177.23,-263.367"/>
<polygon fill="midnightblue" stroke="midnightblue" points="176.147,-266.695 186.74,-266.466 178.316,-260.04 176.147,-266.695"/>
</g>
<!-- Node13 -->
<g id="node6" class="node"><title>Node13</title>
<g id="a_node6"><a xlink:href="classStateTwo.html#a8da7f3d40cddcdd7dbb2886427f7952d" target="_top" xlink:title="StateTwo::getJ">
<polygon fill="none" stroke="black" points="192,-228.5 192,-247.5 277,-247.5 277,-228.5 192,-228.5"/>
<text text-anchor="middle" x="234.5" y="-235.5" font-family="Helvetica,sans-Serif" font-size="10.00">StateTwo::getJ</text>
</a>
</g>
</g>
<!-- Node8&#45;&gt;Node13 -->
<g id="edge5" class="edge"><title>Node8&#45;&gt;Node13</title>
<path fill="none" stroke="midnightblue" d="M99.9586,-196.038C118.344,-203.446 141.178,-212.219 162,-219 169.218,-221.351 176.914,-223.628 184.483,-225.742"/>
<polygon fill="midnightblue" stroke="midnightblue" points="183.74,-229.167 194.308,-228.418 185.579,-222.413 183.74,-229.167"/>
</g>
<!-- Node14 -->
<g id="node7" class="node"><title>Node14</title>
<g id="a_node7"><a xlink:href="classStateTwo.html#aba98b05bc1257f73bcbbb9b079ad2928" target="_top" xlink:title="StateTwo::getL">
<polygon fill="none" stroke="black" points="190.5,-190.5 190.5,-209.5 278.5,-209.5 278.5,-190.5 190.5,-190.5"/>
<text text-anchor="middle" x="234.5" y="-197.5" font-family="Helvetica,sans-Serif" font-size="10.00">StateTwo::getL</text>
</a>
</g>
</g>
<!-- Node8&#45;&gt;Node14 -->
<g id="edge6" class="edge"><title>Node8&#45;&gt;Node14</title>
<path fill="none" stroke="midnightblue" d="M126.153,-187.967C143.836,-189.949 162.935,-192.09 180.052,-194.009"/>
<polygon fill="midnightblue" stroke="midnightblue" points="180.096,-197.535 190.423,-195.171 180.875,-190.579 180.096,-197.535"/>
</g>
<!-- Node15 -->
<g id="node8" class="node"><title>Node15</title>
<g id="a_node8"><a xlink:href="classStateTwo.html#af2e91e00e5839735357e41e14646a0bd" target="_top" xlink:title="StateTwo::getM">
<polygon fill="none" stroke="black" points="189,-152.5 189,-171.5 280,-171.5 280,-152.5 189,-152.5"/>
<text text-anchor="middle" x="234.5" y="-159.5" font-family="Helvetica,sans-Serif" font-size="10.00">StateTwo::getM</text>
</a>
</g>
</g>
<!-- Node8&#45;&gt;Node15 -->
<g id="edge7" class="edge"><title>Node8&#45;&gt;Node15</title>
<path fill="none" stroke="midnightblue" d="M126.153,-174.033C143.367,-172.103 161.922,-170.023 178.685,-168.145"/>
<polygon fill="midnightblue" stroke="midnightblue" points="179.314,-171.596 188.862,-167.004 178.534,-164.64 179.314,-171.596"/>
</g>
<!-- Node16 -->
<g id="node9" class="node"><title>Node16</title>
<g id="a_node9"><a xlink:href="classStateTwo.html#a63046074605d8d7a3201082ba9e13673" target="_top" xlink:title="StateTwo::getN">
<polygon fill="none" stroke="black" points="189.5,-114.5 189.5,-133.5 279.5,-133.5 279.5,-114.5 189.5,-114.5"/>
<text text-anchor="middle" x="234.5" y="-121.5" font-family="Helvetica,sans-Serif" font-size="10.00">StateTwo::getN</text>
</a>
</g>
</g>
<!-- Node8&#45;&gt;Node16 -->
<g id="edge8" class="edge"><title>Node8&#45;&gt;Node16</title>
<path fill="none" stroke="midnightblue" d="M99.9586,-165.962C118.344,-158.554 141.178,-149.781 162,-143 169.218,-140.649 176.914,-138.372 184.483,-136.258"/>
<polygon fill="midnightblue" stroke="midnightblue" points="185.579,-139.587 194.308,-133.582 183.74,-132.833 185.579,-139.587"/>
</g>
<!-- Node17 -->
<g id="node10" class="node"><title>Node17</title>
<g id="a_node10"><a xlink:href="classStateTwo.html#a9f1e6b6e11b9941a85b7fd587ebe15aa" target="_top" xlink:title="StateTwo::getS">
<polygon fill="none" stroke="black" points="190,-76.5 190,-95.5 279,-95.5 279,-76.5 190,-76.5"/>
<text text-anchor="middle" x="234.5" y="-83.5" font-family="Helvetica,sans-Serif" font-size="10.00">StateTwo::getS</text>
</a>
</g>
</g>
<!-- Node8&#45;&gt;Node17 -->
<g id="edge9" class="edge"><title>Node8&#45;&gt;Node17</title>
<path fill="none" stroke="midnightblue" d="M79.2875,-165.922C97.5085,-148.763 129.583,-121.048 162,-105 167.665,-102.195 173.795,-99.7668 180.002,-97.6734"/>
<polygon fill="midnightblue" stroke="midnightblue" points="181.243,-100.953 189.762,-94.6539 179.174,-94.2659 181.243,-100.953"/>
</g>
<!-- Node18 -->
<g id="node11" class="node"><title>Node18</title>
<g id="a_node11"><a xlink:href="classStateTwo.html#a5f39ceea2e8f442364fec097566365d0" target="_top" xlink:title="StateTwo::getSecondState">
<polygon fill="none" stroke="black" points="162,-38.5 162,-57.5 307,-57.5 307,-38.5 162,-38.5"/>
<text text-anchor="middle" x="234.5" y="-45.5" font-family="Helvetica,sans-Serif" font-size="10.00">StateTwo::getSecondState</text>
</a>
</g>
</g>
<!-- Node8&#45;&gt;Node18 -->
<g id="edge10" class="edge"><title>Node8&#45;&gt;Node18</title>
<path fill="none" stroke="midnightblue" d="M72.7504,-165.877C87.7767,-141.287 120.876,-92.7959 162,-67 165.392,-64.8725 169.017,-62.9814 172.77,-61.3007"/>
<polygon fill="midnightblue" stroke="midnightblue" points="174.281,-64.4673 182.298,-57.5414 171.712,-57.9558 174.281,-64.4673"/>
</g>
<!-- Node19 -->
<g id="node12" class="node"><title>Node19</title>
<g id="a_node12"><a xlink:href="classStateTwo.html#a11bbc5b4c7f83c44a3536a349e78a925" target="_top" xlink:title="StateTwo::getSpecies">
<polygon fill="none" stroke="black" points="174.5,-0.5 174.5,-19.5 294.5,-19.5 294.5,-0.5 174.5,-0.5"/>
<text text-anchor="middle" x="234.5" y="-7.5" font-family="Helvetica,sans-Serif" font-size="10.00">StateTwo::getSpecies</text>
</a>
</g>
</g>
<!-- Node8&#45;&gt;Node19 -->
<g id="edge11" class="edge"><title>Node8&#45;&gt;Node19</title>
<path fill="none" stroke="midnightblue" d="M69.4254,-165.831C81.2268,-135.07 112.235,-65.203 162,-29 164.649,-27.0733 167.479,-25.3418 170.428,-23.7859"/>
<polygon fill="midnightblue" stroke="midnightblue" points="171.92,-26.9525 179.573,-19.6251 169.021,-20.5811 171.92,-26.9525"/>
</g>
<!-- Node10 -->
<g id="node3" class="node"><title>Node10</title>
<g id="a_node3"><a xlink:href="classMatrixElementCache.html#a2407b99847793920a9d4ed0d8b156d8a" target="_top" xlink:title="MatrixElementCache\l::getElectricMultipole">
<polygon fill="none" stroke="black" points="343,-343 343,-373 459,-373 459,-343 343,-343"/>
<text text-anchor="start" x="351" y="-361" font-family="Helvetica,sans-Serif" font-size="10.00">MatrixElementCache</text>
<text text-anchor="middle" x="401" y="-350" font-family="Helvetica,sans-Serif" font-size="10.00">::getElectricMultipole</text>
</a>
</g>
</g>
<!-- Node9&#45;&gt;Node10 -->
<g id="edge2" class="edge"><title>Node9&#45;&gt;Node10</title>
<path fill="none" stroke="midnightblue" d="M292.572,-358C305.513,-358 319.374,-358 332.694,-358"/>
<polygon fill="midnightblue" stroke="midnightblue" points="332.75,-361.5 342.75,-358 332.75,-354.5 332.75,-361.5"/>
</g>
</g>
</svg>
