<?xml version="1.0" encoding="UTF-8" standalone="no"?>
<!DOCTYPE svg PUBLIC "-//W3C//DTD SVG 1.1//EN"
 "http://www.w3.org/Graphics/SVG/1.1/DTD/svg11.dtd">
<!-- Generated by graphviz version 2.38.0 (20140413.2041)
 -->
<!-- Title: StateOne::StateOne Pages: 1 -->
<svg width="280pt" height="180pt"
 viewBox="0.00 0.00 280.00 180.00" xmlns="http://www.w3.org/2000/svg" xmlns:xlink="http://www.w3.org/1999/xlink">
<g id="graph0" class="graph" transform="scale(1 1) rotate(0) translate(4 176)">
<title>StateOne::StateOne</title>
<!-- Node5 -->
<g id="node1" class="node"><title>Node5</title>
<polygon fill="#bfbfbf" stroke="black" points="0,-76.5 0,-95.5 114,-95.5 114,-76.5 0,-76.5"/>
<text text-anchor="middle" x="57" y="-83.5" font-family="Helvetica,sans-Serif" font-size="10.00">StateOne::StateOne</text>
</g>
<!-- Node6 -->
<g id="node2" class="node"><title>Node6</title>
<g id="a_node2"><a xlink:href="classStateOne.html#aedba5bfce70f73fa324b9d5ae1115578" target="_top" xlink:title="StateOne::getJ">
<polygon fill="none" stroke="black" points="168,-152.5 168,-171.5 254,-171.5 254,-152.5 168,-152.5"/>
<text text-anchor="middle" x="211" y="-159.5" font-family="Helvetica,sans-Serif" font-size="10.00">StateOne::getJ</text>
</a>
</g>
</g>
<!-- Node5&#45;&gt;Node6 -->
<g id="edge1" class="edge"><title>Node5&#45;&gt;Node6</title>
<path fill="none" stroke="midnightblue" d="M71.1265,-95.5969C88.4666,-107.923 120.292,-129.351 150,-143 154.78,-145.196 159.884,-147.238 165.021,-149.106"/>
<polygon fill="midnightblue" stroke="midnightblue" points="164.269,-152.548 174.864,-152.48 166.539,-145.927 164.269,-152.548"/>
</g>
<!-- Node7 -->
<g id="node3" class="node"><title>Node7</title>
<g id="a_node3"><a xlink:href="classStateOne.html#a3783cebe5bbd63f072caf8450fea4aca" target="_top" xlink:title="StateOne::getL">
<polygon fill="none" stroke="black" points="166.5,-114.5 166.5,-133.5 255.5,-133.5 255.5,-114.5 166.5,-114.5"/>
<text text-anchor="middle" x="211" y="-121.5" font-family="Helvetica,sans-Serif" font-size="10.00">StateOne::getL</text>
</a>
</g>
</g>
<!-- Node5&#45;&gt;Node7 -->
<g id="edge2" class="edge"><title>Node5&#45;&gt;Node7</title>
<path fill="none" stroke="midnightblue" d="M96.356,-95.589C116.324,-100.581 140.93,-106.732 162.133,-112.033"/>
<polygon fill="midnightblue" stroke="midnightblue" points="161.369,-115.45 171.92,-114.48 163.067,-108.659 161.369,-115.45"/>
</g>
<!-- Node8 -->
<g id="node4" class="node"><title>Node8</title>
<g id="a_node4"><a xlink:href="classStateOne.html#aab2b41262381d67893113ed6f5ad18bc" target="_top" xlink:title="StateOne::getM">
<polygon fill="none" stroke="black" points="165,-76.5 165,-95.5 257,-95.5 257,-76.5 165,-76.5"/>
<text text-anchor="middle" x="211" y="-83.5" font-family="Helvetica,sans-Serif" font-size="10.00">StateOne::getM</text>
</a>
</g>
</g>
<!-- Node5&#45;&gt;Node8 -->
<g id="edge3" class="edge"><title>Node5&#45;&gt;Node8</title>
<path fill="none" stroke="midnightblue" d="M114.167,-86C127.38,-86 141.452,-86 154.629,-86"/>
<polygon fill="midnightblue" stroke="midnightblue" points="154.972,-89.5001 164.972,-86 154.972,-82.5001 154.972,-89.5001"/>
</g>
<!-- Node9 -->
<g id="node5" class="node"><title>Node9</title>
<g id="a_node5"><a xlink:href="classStateOne.html#a7deae740570ef5262e7fd2d254a8c530" target="_top" xlink:title="StateOne::getN">
<polygon fill="none" stroke="black" points="165,-38.5 165,-57.5 257,-57.5 257,-38.5 165,-38.5"/>
<text text-anchor="middle" x="211" y="-45.5" font-family="Helvetica,sans-Serif" font-size="10.00">StateOne::getN</text>
</a>
</g>
</g>
<!-- Node5&#45;&gt;Node9 -->
<g id="edge4" class="edge"><title>Node5&#45;&gt;Node9</title>
<path fill="none" stroke="midnightblue" d="M96.356,-76.411C116.324,-71.4191 140.93,-65.2676 162.133,-59.9666"/>
<polygon fill="midnightblue" stroke="midnightblue" points="163.067,-63.341 171.92,-57.5201 161.369,-56.55 163.067,-63.341"/>
</g>
<!-- Node10 -->
<g id="node6" class="node"><title>Node10</title>
<g id="a_node6"><a xlink:href="classStateOne.html#a45b245f5da0068df4ff72093c654da89" target="_top" xlink:title="StateOne::getSpecies">
<polygon fill="none" stroke="black" points="150,-0.5 150,-19.5 272,-19.5 272,-0.5 150,-0.5"/>
<text text-anchor="middle" x="211" y="-7.5" font-family="Helvetica,sans-Serif" font-size="10.00">StateOne::getSpecies</text>
</a>
</g>
</g>
<!-- Node5&#45;&gt;Node10 -->
<g id="edge5" class="edge"><title>Node5&#45;&gt;Node10</title>
<path fill="none" stroke="midnightblue" d="M71.1265,-76.4031C88.4666,-64.0765 120.292,-42.6491 150,-29 154.78,-26.804 159.884,-24.762 165.021,-22.8938"/>
<polygon fill="midnightblue" stroke="midnightblue" points="166.539,-26.0734 174.864,-19.5204 164.269,-19.4515 166.539,-26.0734"/>
</g>
</g>
</svg>
