<?xml version="1.0" encoding="UTF-8" standalone="no"?>
<!DOCTYPE svg PUBLIC "-//W3C//DTD SVG 1.1//EN"
 "http://www.w3.org/Graphics/SVG/1.1/DTD/svg11.dtd">
<!-- Generated by graphviz version 2.38.0 (20140413.2041)
 -->
<!-- Title: MatrixElementCache::getMagneticDipole Pages: 1 -->
<svg width="282pt" height="218pt"
 viewBox="0.00 0.00 282.00 218.00" xmlns="http://www.w3.org/2000/svg" xmlns:xlink="http://www.w3.org/1999/xlink">
<g id="graph0" class="graph" transform="scale(1 1) rotate(0) translate(4 214)">
<title>MatrixElementCache::getMagneticDipole</title>
<!-- Node42 -->
<g id="node1" class="node"><title>Node42</title>
<polygon fill="#bfbfbf" stroke="black" points="0,-90 0,-120 116,-120 116,-90 0,-90"/>
<text text-anchor="start" x="8" y="-108" font-family="Helvetica,sans-Serif" font-size="10.00">MatrixElementCache</text>
<text text-anchor="middle" x="58" y="-97" font-family="Helvetica,sans-Serif" font-size="10.00">::getMagneticDipole</text>
</g>
<!-- Node43 -->
<g id="node2" class="node"><title>Node43</title>
<g id="a_node2"><a xlink:href="classStateOne.html#aedba5bfce70f73fa324b9d5ae1115578" target="_top" xlink:title="StateOne::getJ">
<polygon fill="none" stroke="black" points="170,-190.5 170,-209.5 256,-209.5 256,-190.5 170,-190.5"/>
<text text-anchor="middle" x="213" y="-197.5" font-family="Helvetica,sans-Serif" font-size="10.00">StateOne::getJ</text>
</a>
</g>
</g>
<!-- Node42&#45;&gt;Node43 -->
<g id="edge1" class="edge"><title>Node42&#45;&gt;Node43</title>
<path fill="none" stroke="midnightblue" d="M73.8005,-120.162C91.1282,-137.137 121.373,-164.431 152,-181 156,-183.164 160.286,-185.127 164.658,-186.896"/>
<polygon fill="midnightblue" stroke="midnightblue" points="163.699,-190.273 174.292,-190.465 166.131,-183.709 163.699,-190.273"/>
</g>
<!-- Node44 -->
<g id="node3" class="node"><title>Node44</title>
<g id="a_node3"><a xlink:href="classStateOne.html#a3783cebe5bbd63f072caf8450fea4aca" target="_top" xlink:title="StateOne::getL">
<polygon fill="none" stroke="black" points="168.5,-152.5 168.5,-171.5 257.5,-171.5 257.5,-152.5 168.5,-152.5"/>
<text text-anchor="middle" x="213" y="-159.5" font-family="Helvetica,sans-Serif" font-size="10.00">StateOne::getL</text>
</a>
</g>
</g>
<!-- Node42&#45;&gt;Node44 -->
<g id="edge2" class="edge"><title>Node42&#45;&gt;Node44</title>
<path fill="none" stroke="midnightblue" d="M94.0674,-120.116C111.377,-127.374 132.648,-135.995 152,-143 157.933,-145.148 164.243,-147.293 170.457,-149.328"/>
<polygon fill="midnightblue" stroke="midnightblue" points="169.485,-152.692 180.076,-152.42 171.627,-146.028 169.485,-152.692"/>
</g>
<!-- Node45 -->
<g id="node4" class="node"><title>Node45</title>
<g id="a_node4"><a xlink:href="classStateOne.html#aab2b41262381d67893113ed6f5ad18bc" target="_top" xlink:title="StateOne::getM">
<polygon fill="none" stroke="black" points="167,-114.5 167,-133.5 259,-133.5 259,-114.5 167,-114.5"/>
<text text-anchor="middle" x="213" y="-121.5" font-family="Helvetica,sans-Serif" font-size="10.00">StateOne::getM</text>
</a>
</g>
</g>
<!-- Node42&#45;&gt;Node45 -->
<g id="edge3" class="edge"><title>Node42&#45;&gt;Node45</title>
<path fill="none" stroke="midnightblue" d="M116.407,-112.129C129.521,-113.757 143.434,-115.485 156.468,-117.104"/>
<polygon fill="midnightblue" stroke="midnightblue" points="156.345,-120.615 166.7,-118.374 157.207,-113.669 156.345,-120.615"/>
</g>
<!-- Node46 -->
<g id="node5" class="node"><title>Node46</title>
<g id="a_node5"><a xlink:href="classStateOne.html#a7deae740570ef5262e7fd2d254a8c530" target="_top" xlink:title="StateOne::getN">
<polygon fill="none" stroke="black" points="167,-76.5 167,-95.5 259,-95.5 259,-76.5 167,-76.5"/>
<text text-anchor="middle" x="213" y="-83.5" font-family="Helvetica,sans-Serif" font-size="10.00">StateOne::getN</text>
</a>
</g>
</g>
<!-- Node42&#45;&gt;Node46 -->
<g id="edge4" class="edge"><title>Node42&#45;&gt;Node46</title>
<path fill="none" stroke="midnightblue" d="M116.407,-97.871C129.521,-96.2425 143.434,-94.5147 156.468,-92.8961"/>
<polygon fill="midnightblue" stroke="midnightblue" points="157.207,-96.3313 166.7,-91.6255 156.345,-89.3846 157.207,-96.3313"/>
</g>
<!-- Node47 -->
<g id="node6" class="node"><title>Node47</title>
<g id="a_node6"><a xlink:href="classStateOne.html#a5f4c17ef50eca7f317a55b5e0a572117" target="_top" xlink:title="StateOne::getS">
<polygon fill="none" stroke="black" points="167.5,-38.5 167.5,-57.5 258.5,-57.5 258.5,-38.5 167.5,-38.5"/>
<text text-anchor="middle" x="213" y="-45.5" font-family="Helvetica,sans-Serif" font-size="10.00">StateOne::getS</text>
</a>
</g>
</g>
<!-- Node42&#45;&gt;Node47 -->
<g id="edge5" class="edge"><title>Node42&#45;&gt;Node47</title>
<path fill="none" stroke="midnightblue" d="M94.0674,-89.8845C111.377,-82.6256 132.648,-74.0048 152,-67 157.933,-64.8524 164.243,-62.7068 170.457,-60.6717"/>
<polygon fill="midnightblue" stroke="midnightblue" points="171.627,-63.9721 180.076,-57.58 169.485,-57.3079 171.627,-63.9721"/>
</g>
<!-- Node48 -->
<g id="node7" class="node"><title>Node48</title>
<g id="a_node7"><a xlink:href="classStateOne.html#a45b245f5da0068df4ff72093c654da89" target="_top" xlink:title="StateOne::getSpecies">
<polygon fill="none" stroke="black" points="152,-0.5 152,-19.5 274,-19.5 274,-0.5 152,-0.5"/>
<text text-anchor="middle" x="213" y="-7.5" font-family="Helvetica,sans-Serif" font-size="10.00">StateOne::getSpecies</text>
</a>
</g>
</g>
<!-- Node42&#45;&gt;Node48 -->
<g id="edge6" class="edge"><title>Node42&#45;&gt;Node48</title>
<path fill="none" stroke="midnightblue" d="M73.8005,-89.8377C91.1282,-72.8629 121.373,-45.5694 152,-29 156,-26.8358 160.286,-24.8731 164.658,-23.1036"/>
<polygon fill="midnightblue" stroke="midnightblue" points="166.131,-26.2907 174.292,-19.5351 163.699,-19.7266 166.131,-26.2907"/>
</g>
</g>
</svg>
