<?xml version="1.0" encoding="UTF-8" standalone="no"?>
<!DOCTYPE svg PUBLIC "-//W3C//DTD SVG 1.1//EN"
 "http://www.w3.org/Graphics/SVG/1.1/DTD/svg11.dtd">
<!-- Generated by graphviz version 2.38.0 (20140413.2041)
 -->
<!-- Title: Hamiltonianmatrix::load Pages: 1 -->
<svg width="529pt" height="66pt"
 viewBox="0.00 0.00 529.00 66.00" xmlns="http://www.w3.org/2000/svg" xmlns:xlink="http://www.w3.org/1999/xlink">
<g id="graph0" class="graph" transform="scale(1 1) rotate(0) translate(4 62)">
<title>Hamiltonianmatrix::load</title>
<!-- Node133 -->
<g id="node1" class="node"><title>Node133</title>
<polygon fill="#bfbfbf" stroke="black" points="0,-19.5 0,-38.5 131,-38.5 131,-19.5 0,-19.5"/>
<text text-anchor="middle" x="65.5" y="-26.5" font-family="Helvetica,sans-Serif" font-size="10.00">Hamiltonianmatrix::load</text>
</g>
<!-- Node134 -->
<g id="node2" class="node"><title>Node134</title>
<g id="a_node2"><a xlink:href="classHamiltonianOne.html#a9cb71dcb34ab9f0779c0bd66b758185e" target="_top" xlink:title="HamiltonianOne::build">
<polygon fill="none" stroke="black" points="176.5,-38.5 176.5,-57.5 298.5,-57.5 298.5,-38.5 176.5,-38.5"/>
<text text-anchor="middle" x="237.5" y="-45.5" font-family="Helvetica,sans-Serif" font-size="10.00">HamiltonianOne::build</text>
</a>
</g>
</g>
<!-- Node133&#45;&gt;Node134 -->
<g id="edge1" class="edge"><title>Node133&#45;&gt;Node134</title>
<path fill="none" stroke="midnightblue" d="M141.443,-37.376C153.138,-38.6831 165.09,-40.0189 176.398,-41.2827"/>
<polygon fill="midnightblue" stroke="midnightblue" points="141.582,-33.8698 131.255,-36.2373 140.804,-40.8264 141.582,-33.8698"/>
</g>
<!-- Node136 -->
<g id="node4" class="node"><title>Node136</title>
<g id="a_node4"><a xlink:href="classHamiltonianTwo.html#a6ca0a318f25170b69e571a07064a5afb" target="_top" xlink:title="HamiltonianTwo::calculate">
<polygon fill="none" stroke="black" points="167,-0.5 167,-19.5 308,-19.5 308,-0.5 167,-0.5"/>
<text text-anchor="middle" x="237.5" y="-7.5" font-family="Helvetica,sans-Serif" font-size="10.00">HamiltonianTwo::calculate</text>
</a>
</g>
</g>
<!-- Node133&#45;&gt;Node136 -->
<g id="edge3" class="edge"><title>Node133&#45;&gt;Node136</title>
<path fill="none" stroke="midnightblue" d="M141.456,-20.6225C149.893,-19.6796 158.464,-18.7217 166.829,-17.7867"/>
<polygon fill="midnightblue" stroke="midnightblue" points="140.804,-17.1736 131.255,-21.7627 141.582,-24.1302 140.804,-17.1736"/>
</g>
<!-- Node135 -->
<g id="node3" class="node"><title>Node135</title>
<g id="a_node3"><a xlink:href="classHamiltonianOne.html#ad3ba2d70879a60c9f065b5a2545dfe36" target="_top" xlink:title="HamiltonianOne::HamiltonianOne">
<polygon fill="none" stroke="black" points="344,-38.5 344,-57.5 521,-57.5 521,-38.5 344,-38.5"/>
<text text-anchor="middle" x="432.5" y="-45.5" font-family="Helvetica,sans-Serif" font-size="10.00">HamiltonianOne::HamiltonianOne</text>
</a>
</g>
</g>
<!-- Node134&#45;&gt;Node135 -->
<g id="edge2" class="edge"><title>Node134&#45;&gt;Node135</title>
<path fill="none" stroke="midnightblue" d="M308.812,-48C320.215,-48 332.146,-48 343.899,-48"/>
<polygon fill="midnightblue" stroke="midnightblue" points="308.508,-44.5001 298.508,-48 308.508,-51.5001 308.508,-44.5001"/>
</g>
<!-- Node137 -->
<g id="node5" class="node"><title>Node137</title>
<g id="a_node5"><a xlink:href="classHamiltonianTwo.html#abd374713c9b38f72265c7fe496c42b96" target="_top" xlink:title="HamiltonianTwo::HamiltonianTwo">
<polygon fill="none" stroke="black" points="345.5,-0.5 345.5,-19.5 519.5,-19.5 519.5,-0.5 345.5,-0.5"/>
<text text-anchor="middle" x="432.5" y="-7.5" font-family="Helvetica,sans-Serif" font-size="10.00">HamiltonianTwo::HamiltonianTwo</text>
</a>
</g>
</g>
<!-- Node136&#45;&gt;Node137 -->
<g id="edge4" class="edge"><title>Node136&#45;&gt;Node137</title>
<path fill="none" stroke="midnightblue" d="M318.217,-10C327.2,-10 336.383,-10 345.442,-10"/>
<polygon fill="midnightblue" stroke="midnightblue" points="318.177,-6.5001 308.177,-10 318.177,-13.5001 318.177,-6.5001"/>
</g>
</g>
</svg>
