<?xml version="1.0" encoding="UTF-8" standalone="no"?>
<!DOCTYPE svg PUBLIC "-//W3C//DTD SVG 1.1//EN"
 "http://www.w3.org/Graphics/SVG/1.1/DTD/svg11.dtd">
<!-- Generated by graphviz version 2.38.0 (20140413.2041)
 -->
<!-- Title: SystemTwo::initializeInteraction Pages: 1 -->
<!--zoomable 432 -->
<svg id="main" version="1.1" xmlns="http://www.w3.org/2000/svg" xmlns:xlink="http://www.w3.org/1999/xlink" xml:space="preserve" onload="init(evt)">
<style type="text/css"><![CDATA[
.edge:hover path { stroke: red; }
.edge:hover polygon { stroke: red; fill: red; }
]]></style>
<script type="text/javascript"><![CDATA[
var edges = document.getElementsByTagName('g');
if (edges && edges.length) {
  for (var i=0;i<edges.length;i++) {
    if (edges[i].id.substr(0,4)=='edge') {
      edges[i].setAttribute('class','edge');
    }
  }
}
]]></script>
        <defs>
                <circle id="rim" cx="0" cy="0" r="7"/>
                <circle id="rim2" cx="0" cy="0" r="3.5"/>
                <g id="zoomPlus">
                        <use xlink:href="#rim" fill="#404040">
                                <set attributeName="fill" to="#808080" begin="zoomplus.mouseover" end="zoomplus.mouseout"/>
                        </use>
                        <path d="M-4,0h8M0,-4v8" fill="none" stroke="white" stroke-width="1.5" pointer-events="none"/>
                </g>
                <g id="zoomMin">
                        <use xlink:href="#rim" fill="#404040">
                                <set attributeName="fill" to="#808080" begin="zoomminus.mouseover" end="zoomminus.mouseout"/>
                        </use>
                        <path d="M-4,0h8" fill="none" stroke="white" stroke-width="1.5" pointer-events="none"/>
                </g>
                <g id="dirArrow">
                        <path fill="none" stroke="white" stroke-width="1.5" d="M0,-3.0v7 M-2.5,-0.5L0,-3.0L2.5,-0.5"/>
                </g>
               <g id="resetDef">
                       <use xlink:href="#rim2" fill="#404040">
                               <set attributeName="fill" to="#808080" begin="reset.mouseover" end="reset.mouseout"/>
                       </use>
               </g>
        </defs>

<script type="text/javascript">
var viewWidth = 541;
var viewHeight = 432;
var sectionId = 'dynsection-14';
</script>
<script xlink:href="svgpan.js"/>
<svg id="graph" class="graph">
<g id="viewport">
<title>SystemTwo::initializeInteraction</title>
<!-- Node55 -->
<g id="node1" class="node"><title>Node55</title>
<polygon fill="#bfbfbf" stroke="black" points="0,-221.5 0,-240.5 167,-240.5 167,-221.5 0,-221.5"/>
<text text-anchor="middle" x="83.5" y="-228.5" font-family="Helvetica,sans-Serif" font-size="10.00">SystemTwo::initializeInteraction</text>
</g>
<!-- Node56 -->
<g id="node2" class="node"><title>Node56</title>
<g id="a_node2"><a xlink:href="classGreenTensor.html#aac53ebde0a9b5ff5d4dccec359aa99a2" target="_top" xlink:title="GreenTensor::addSurface">
<polygon fill="none" stroke="black" points="214,-404.5 214,-423.5 353,-423.5 353,-404.5 214,-404.5"/>
<text text-anchor="middle" x="283.5" y="-411.5" font-family="Helvetica,sans-Serif" font-size="10.00">GreenTensor::addSurface</text>
</a>
</g>
</g>
<!-- Node55&#45;&gt;Node56 -->
<g id="edge1" class="edge"><title>Node55&#45;&gt;Node56</title>
<path fill="none" stroke="midnightblue" d="M88.4877,-240.599C100.844,-269.095 141.406,-353.773 203,-395 206.07,-397.055 209.337,-398.888 212.731,-400.524"/>
<polygon fill="midnightblue" stroke="midnightblue" points="211.383,-403.754 221.957,-404.408 214.099,-397.302 211.383,-403.754"/>
</g>
<!-- Node57 -->
<g id="node3" class="node"><title>Node57</title>
<g id="a_node3"><a xlink:href="classGreenTensor.html#ad947e11ec6469180c3150da22d0679c7" target="_top" xlink:title="GreenTensor::getDDTensor">
<polygon fill="none" stroke="black" points="210,-366.5 210,-385.5 357,-385.5 357,-366.5 210,-366.5"/>
<text text-anchor="middle" x="283.5" y="-373.5" font-family="Helvetica,sans-Serif" font-size="10.00">GreenTensor::getDDTensor</text>
</a>
</g>
</g>
<!-- Node55&#45;&gt;Node57 -->
<g id="edge2" class="edge"><title>Node55&#45;&gt;Node57</title>
<path fill="none" stroke="midnightblue" d="M90.6213,-240.682C106.22,-264.508 150,-326.278 203,-357 206.904,-359.263 211.064,-361.257 215.358,-363.013"/>
<polygon fill="midnightblue" stroke="midnightblue" points="214.326,-366.363 224.92,-366.493 216.72,-359.785 214.326,-366.363"/>
</g>
<!-- Node58 -->
<g id="node4" class="node"><title>Node58</title>
<g id="a_node4"><a xlink:href="classGreenTensor.html#a3fb907f3372d6d23ff01b201b92e67e3" target="_top" xlink:title="GreenTensor::getDQTensor">
<polygon fill="none" stroke="black" points="210,-328.5 210,-347.5 357,-347.5 357,-328.5 210,-328.5"/>
<text text-anchor="middle" x="283.5" y="-335.5" font-family="Helvetica,sans-Serif" font-size="10.00">GreenTensor::getDQTensor</text>
</a>
</g>
</g>
<!-- Node55&#45;&gt;Node58 -->
<g id="edge3" class="edge"><title>Node55&#45;&gt;Node58</title>
<path fill="none" stroke="midnightblue" d="M94.3552,-240.565C113.59,-258.688 158.184,-298.083 203,-319 208.272,-321.461 213.895,-323.621 219.621,-325.513"/>
<polygon fill="midnightblue" stroke="midnightblue" points="218.724,-328.898 229.31,-328.451 220.756,-322.2 218.724,-328.898"/>
</g>
<!-- Node59 -->
<g id="node5" class="node"><title>Node59</title>
<g id="a_node5"><a xlink:href="classMatrixElementCache.html#ac6191cd01c85dd9cf28a373b524f0b1b" target="_top" xlink:title="Get matrix elements ////////////////////////////////////////////. ">
<polygon fill="none" stroke="black" points="225.5,-279 225.5,-309 341.5,-309 341.5,-279 225.5,-279"/>
<text text-anchor="start" x="233.5" y="-297" font-family="Helvetica,sans-Serif" font-size="10.00">MatrixElementCache</text>
<text text-anchor="middle" x="283.5" y="-286" font-family="Helvetica,sans-Serif" font-size="10.00">::getElectricDipole</text>
</a>
</g>
</g>
<!-- Node55&#45;&gt;Node59 -->
<g id="edge4" class="edge"><title>Node55&#45;&gt;Node59</title>
<path fill="none" stroke="midnightblue" d="M114.572,-240.568C143.842,-249.882 189.071,-264.273 225.219,-275.774"/>
<polygon fill="midnightblue" stroke="midnightblue" points="224.562,-279.238 235.153,-278.935 226.685,-272.568 224.562,-279.238"/>
</g>
<!-- Node60 -->
<g id="node6" class="node"><title>Node60</title>
<g id="a_node6"><a xlink:href="classMatrixElementCache.html#a2407b99847793920a9d4ed0d8b156d8a" target="_top" xlink:title="MatrixElementCache\l::getElectricMultipole">
<polygon fill="none" stroke="black" points="408.5,-257 408.5,-287 524.5,-287 524.5,-257 408.5,-257"/>
<text text-anchor="start" x="416.5" y="-275" font-family="Helvetica,sans-Serif" font-size="10.00">MatrixElementCache</text>
<text text-anchor="middle" x="466.5" y="-264" font-family="Helvetica,sans-Serif" font-size="10.00">::getElectricMultipole</text>
</a>
</g>
</g>
<!-- Node55&#45;&gt;Node60 -->
<g id="edge6" class="edge"><title>Node55&#45;&gt;Node60</title>
<path fill="none" stroke="midnightblue" d="M167.171,-239.896C236.35,-247.341 333.816,-257.829 398.276,-264.766"/>
<polygon fill="midnightblue" stroke="midnightblue" points="398.011,-268.258 408.328,-265.848 398.76,-261.298 398.011,-268.258"/>
</g>
<!-- Node61 -->
<g id="node7" class="node"><title>Node61</title>
<g id="a_node7"><a xlink:href="classGreenTensor.html#a774bcf8edd49208cad0c985fce17ea90" target="_top" xlink:title="GreenTensor::getQDTensor">
<polygon fill="none" stroke="black" points="210,-202.5 210,-221.5 357,-221.5 357,-202.5 210,-202.5"/>
<text text-anchor="middle" x="283.5" y="-209.5" font-family="Helvetica,sans-Serif" font-size="10.00">GreenTensor::getQDTensor</text>
</a>
</g>
</g>
<!-- Node55&#45;&gt;Node61 -->
<g id="edge7" class="edge"><title>Node55&#45;&gt;Node61</title>
<path fill="none" stroke="midnightblue" d="M167.036,-223.08C177.811,-222.046 188.854,-220.986 199.635,-219.952"/>
<polygon fill="midnightblue" stroke="midnightblue" points="200.253,-223.409 209.873,-218.969 199.585,-216.441 200.253,-223.409"/>
</g>
<!-- Node62 -->
<g id="node8" class="node"><title>Node62</title>
<g id="a_node8"><a xlink:href="classSystemTwo.html#a021647b47068d8eedf99660723f6300c" target="_top" xlink:title="SystemTwo::getStatesFirst">
<polygon fill="none" stroke="black" points="211,-164.5 211,-183.5 356,-183.5 356,-164.5 211,-164.5"/>
<text text-anchor="middle" x="283.5" y="-171.5" font-family="Helvetica,sans-Serif" font-size="10.00">SystemTwo::getStatesFirst</text>
</a>
</g>
</g>
<!-- Node55&#45;&gt;Node62 -->
<g id="edge8" class="edge"><title>Node55&#45;&gt;Node62</title>
<path fill="none" stroke="midnightblue" d="M112.095,-221.496C135.998,-213.422 171.58,-201.779 203,-193 211.639,-190.586 220.859,-188.206 229.846,-185.99"/>
<polygon fill="midnightblue" stroke="midnightblue" points="230.957,-189.322 239.851,-183.565 229.307,-182.519 230.957,-189.322"/>
</g>
<!-- Node64 -->
<g id="node10" class="node"><title>Node64</title>
<g id="a_node10"><a xlink:href="classSystemTwo.html#ad7078eefe9dfe834e703818f3ffb22ca" target="_top" xlink:title="SystemTwo::getStatesSecond">
<polygon fill="none" stroke="black" points="203,-126.5 203,-145.5 364,-145.5 364,-126.5 203,-126.5"/>
<text text-anchor="middle" x="283.5" y="-133.5" font-family="Helvetica,sans-Serif" font-size="10.00">SystemTwo::getStatesSecond</text>
</a>
</g>
</g>
<!-- Node55&#45;&gt;Node64 -->
<g id="edge10" class="edge"><title>Node55&#45;&gt;Node64</title>
<path fill="none" stroke="midnightblue" d="M96.5204,-221.314C117.101,-205.202 160.947,-172.9 203,-155 208.827,-152.52 215.038,-150.327 221.322,-148.397"/>
<polygon fill="midnightblue" stroke="midnightblue" points="222.556,-151.684 231.213,-145.576 220.637,-144.953 222.556,-151.684"/>
</g>
<!-- Node65 -->
<g id="node11" class="node"><title>Node65</title>
<g id="a_node11"><a xlink:href="classMatrixElementCache.html#afbc00d8b343bbea267e7cbbbc15cc203" target="_top" xlink:title="Precalculate matrix elements ///////////////////////////////////. ">
<polygon fill="none" stroke="black" points="221.5,-77 221.5,-107 345.5,-107 345.5,-77 221.5,-77"/>
<text text-anchor="start" x="229.5" y="-95" font-family="Helvetica,sans-Serif" font-size="10.00">MatrixElementCache</text>
<text text-anchor="middle" x="283.5" y="-84" font-family="Helvetica,sans-Serif" font-size="10.00">::precalculateMultipole</text>
</a>
</g>
</g>
<!-- Node55&#45;&gt;Node65 -->
<g id="edge12" class="edge"><title>Node55&#45;&gt;Node65</title>
<path fill="none" stroke="midnightblue" d="M91.981,-221.203C109.189,-199.323 153.894,-146.127 203,-117 206.64,-114.841 210.486,-112.849 214.443,-111.014"/>
<polygon fill="midnightblue" stroke="midnightblue" points="216.007,-114.152 223.835,-107.013 213.263,-107.712 216.007,-114.152"/>
</g>
<!-- Node66 -->
<g id="node12" class="node"><title>Node66</title>
<g id="a_node12"><a xlink:href="MatrixElementCache_8cpp.html#a06a268e07e2a0edb3fca096b8c941c78" target="_top" xlink:title="selectionRulesMultipoleNew">
<polygon fill="none" stroke="black" points="209.5,-38.5 209.5,-57.5 357.5,-57.5 357.5,-38.5 209.5,-38.5"/>
<text text-anchor="middle" x="283.5" y="-45.5" font-family="Helvetica,sans-Serif" font-size="10.00">selectionRulesMultipoleNew</text>
</a>
</g>
</g>
<!-- Node55&#45;&gt;Node66 -->
<g id="edge13" class="edge"><title>Node55&#45;&gt;Node66</title>
<path fill="none" stroke="midnightblue" d="M88.4877,-221.401C100.844,-192.905 141.406,-108.227 203,-67 206.07,-64.9453 209.337,-63.112 212.731,-61.4763"/>
<polygon fill="midnightblue" stroke="midnightblue" points="214.099,-64.6979 221.957,-57.5918 211.383,-58.2463 214.099,-64.6979"/>
</g>
<!-- Node59&#45;&gt;Node60 -->
<g id="edge5" class="edge"><title>Node59&#45;&gt;Node60</title>
<path fill="none" stroke="midnightblue" d="M341.77,-287.039C359.684,-284.862 379.615,-282.439 398.157,-280.185"/>
<polygon fill="midnightblue" stroke="midnightblue" points="398.788,-283.634 408.293,-278.953 397.943,-276.686 398.788,-283.634"/>
</g>
<!-- Node63 -->
<g id="node9" class="node"><title>Node63</title>
<g id="a_node9"><a xlink:href="classSystemBase.html#aae793919efd7c691ecc8f615cb039bb4" target="_top" xlink:title="SystemBase\&lt; StateTwo\l \&gt;::buildBasis">
<polygon fill="none" stroke="black" points="400,-140 400,-170 533,-170 533,-140 400,-140"/>
<text text-anchor="start" x="408" y="-158" font-family="Helvetica,sans-Serif" font-size="10.00">SystemBase&lt; StateTwo</text>
<text text-anchor="middle" x="466.5" y="-147" font-family="Helvetica,sans-Serif" font-size="10.00"> &gt;::buildBasis</text>
</a>
</g>
</g>
<!-- Node62&#45;&gt;Node63 -->
<g id="edge9" class="edge"><title>Node62&#45;&gt;Node63</title>
<path fill="none" stroke="midnightblue" d="M356.036,-166.491C367.082,-165.331 378.522,-164.13 389.658,-162.961"/>
<polygon fill="midnightblue" stroke="midnightblue" points="390.199,-166.424 399.779,-161.899 389.468,-159.462 390.199,-166.424"/>
</g>
<!-- Node64&#45;&gt;Node63 -->
<g id="edge11" class="edge"><title>Node64&#45;&gt;Node63</title>
<path fill="none" stroke="midnightblue" d="M364.153,-144.361C372.649,-145.253 381.274,-146.159 389.723,-147.046"/>
<polygon fill="midnightblue" stroke="midnightblue" points="389.611,-150.553 399.922,-148.116 390.342,-143.591 389.611,-150.553"/>
</g>
<!-- Node67 -->
<g id="node13" class="node"><title>Node67</title>
<g id="a_node13"><a xlink:href="classStateOne.html#aedba5bfce70f73fa324b9d5ae1115578" target="_top" xlink:title="StateOne::getJ">
<polygon fill="none" stroke="black" points="423.5,-76.5 423.5,-95.5 509.5,-95.5 509.5,-76.5 423.5,-76.5"/>
<text text-anchor="middle" x="466.5" y="-83.5" font-family="Helvetica,sans-Serif" font-size="10.00">StateOne::getJ</text>
</a>
</g>
</g>
<!-- Node66&#45;&gt;Node67 -->
<g id="edge14" class="edge"><title>Node66&#45;&gt;Node67</title>
<path fill="none" stroke="midnightblue" d="M330.174,-57.589C355.525,-62.9114 387.155,-69.552 413.46,-75.0744"/>
<polygon fill="midnightblue" stroke="midnightblue" points="412.751,-78.5018 423.256,-77.1312 414.189,-71.6511 412.751,-78.5018"/>
</g>
<!-- Node68 -->
<g id="node14" class="node"><title>Node68</title>
<g id="a_node14"><a xlink:href="classStateOne.html#a3783cebe5bbd63f072caf8450fea4aca" target="_top" xlink:title="StateOne::getL">
<polygon fill="none" stroke="black" points="422,-38.5 422,-57.5 511,-57.5 511,-38.5 422,-38.5"/>
<text text-anchor="middle" x="466.5" y="-45.5" font-family="Helvetica,sans-Serif" font-size="10.00">StateOne::getL</text>
</a>
</g>
</g>
<!-- Node66&#45;&gt;Node68 -->
<g id="edge15" class="edge"><title>Node66&#45;&gt;Node68</title>
<path fill="none" stroke="midnightblue" d="M357.598,-48C375.635,-48 394.631,-48 411.572,-48"/>
<polygon fill="midnightblue" stroke="midnightblue" points="411.827,-51.5001 421.827,-48 411.827,-44.5001 411.827,-51.5001"/>
</g>
<!-- Node69 -->
<g id="node15" class="node"><title>Node69</title>
<g id="a_node15"><a xlink:href="classStateOne.html#aab2b41262381d67893113ed6f5ad18bc" target="_top" xlink:title="StateOne::getM">
<polygon fill="none" stroke="black" points="420.5,-0.5 420.5,-19.5 512.5,-19.5 512.5,-0.5 420.5,-0.5"/>
<text text-anchor="middle" x="466.5" y="-7.5" font-family="Helvetica,sans-Serif" font-size="10.00">StateOne::getM</text>
</a>
</g>
</g>
<!-- Node66&#45;&gt;Node69 -->
<g id="edge16" class="edge"><title>Node66&#45;&gt;Node69</title>
<path fill="none" stroke="midnightblue" d="M330.174,-38.411C354.582,-33.2867 384.809,-26.9406 410.501,-21.5468"/>
<polygon fill="midnightblue" stroke="midnightblue" points="411.4,-24.9344 420.468,-19.4543 409.962,-18.0837 411.4,-24.9344"/>
</g>
</g>
</svg>
        <g id="navigator" transform="translate(0 0)" fill="#404254">
                <rect fill="#f2f5e9" fill-opacity="0.5" stroke="#606060" stroke-width=".5" x="0" y="0" width="60" height="60"/>
                <use id="zoomplus" xlink:href="#zoomPlus" x="17" y="9" onmousedown="handleZoom(evt,'in')"/>
                <use id="zoomminus" xlink:href="#zoomMin" x="42" y="9" onmousedown="handleZoom(evt,'out')"/>
                <use id="reset" xlink:href="#resetDef" x="30" y="36" onmousedown="handleReset()"/>
                <g id="arrowUp" xlink:href="#dirArrow" transform="translate(30 24)" onmousedown="handlePan(0,-1)">
                  <use xlink:href="#rim" fill="#404040">
                        <set attributeName="fill" to="#808080" begin="arrowUp.mouseover" end="arrowUp.mouseout"/>
                  </use>
                  <path fill="none" stroke="white" stroke-width="1.5" d="M0,-3.0v7 M-2.5,-0.5L0,-3.0L2.5,-0.5"/>
                </g>
                <g id="arrowRight" xlink:href="#dirArrow" transform="rotate(90) translate(36 -43)" onmousedown="handlePan(1,0)">
                  <use xlink:href="#rim" fill="#404040">
                        <set attributeName="fill" to="#808080" begin="arrowRight.mouseover" end="arrowRight.mouseout"/>
                  </use>
                  <path fill="none" stroke="white" stroke-width="1.5" d="M0,-3.0v7 M-2.5,-0.5L0,-3.0L2.5,-0.5"/>
                </g>
                <g id="arrowDown" xlink:href="#dirArrow" transform="rotate(180) translate(-30 -48)" onmousedown="handlePan(0,1)">
                  <use xlink:href="#rim" fill="#404040">
                        <set attributeName="fill" to="#808080" begin="arrowDown.mouseover" end="arrowDown.mouseout"/>
                  </use>
                  <path fill="none" stroke="white" stroke-width="1.5" d="M0,-3.0v7 M-2.5,-0.5L0,-3.0L2.5,-0.5"/>
                </g>
                <g id="arrowLeft" xlink:href="#dirArrow" transform="rotate(270) translate(-36 17)" onmousedown="handlePan(-1,0)">
                  <use xlink:href="#rim" fill="#404040">
                        <set attributeName="fill" to="#808080" begin="arrowLeft.mouseover" end="arrowLeft.mouseout"/>
                  </use>
                  <path fill="none" stroke="white" stroke-width="1.5" d="M0,-3.0v7 M-2.5,-0.5L0,-3.0L2.5,-0.5"/>
                </g>
        </g>
        <svg viewBox="0 0 15 15" width="100%" height="30px" preserveAspectRatio="xMaxYMin meet">
         <g id="arrow_out" transform="scale(0.3 0.3)">
          <a xlink:href="classSystemTwo_a5cc89c42ab8066027b0c375b818c8333_cgraph_org.svg" target="_base">
           <rect id="button" ry="5" rx="5" y="6" x="6" height="38" width="38"
                fill="#f2f5e9" fill-opacity="0.5" stroke="#606060" stroke-width="1.0"/>
           <path id="arrow"
             d="M 11.500037,31.436501 C 11.940474,20.09759 22.043105,11.32322 32.158766,21.979434 L 37.068811,17.246167 C 37.068811,17.246167 37.088388,32 37.088388,32 L 22.160133,31.978069 C 22.160133,31.978069 26.997745,27.140456 26.997745,27.140456 C 18.528582,18.264221 13.291696,25.230495 11.500037,31.436501 z"
             style="fill:#404040;"/>
          </a>
         </g>
        </svg>
</svg>
