<?xml version="1.0" encoding="UTF-8" standalone="no"?>
<!DOCTYPE svg PUBLIC "-//W3C//DTD SVG 1.1//EN"
 "http://www.w3.org/Graphics/SVG/1.1/DTD/svg11.dtd">
<!-- Generated by graphviz version 2.38.0 (20140413.2041)
 -->
<!-- Title: HamiltonianTwo Pages: 1 -->
<svg width="574pt" height="165pt"
 viewBox="0.00 0.00 574.00 165.00" xmlns="http://www.w3.org/2000/svg" xmlns:xlink="http://www.w3.org/1999/xlink">
<g id="graph0" class="graph" transform="scale(1 1) rotate(0) translate(4 161)">
<title>HamiltonianTwo</title>
<!-- Node2 -->
<g id="node1" class="node"><title>Node2</title>
<polygon fill="#bfbfbf" stroke="black" points="474,-69 474,-88 566,-88 566,-69 474,-69"/>
<text text-anchor="middle" x="520" y="-76" font-family="Helvetica,sans-Serif" font-size="10.00">HamiltonianTwo</text>
</g>
<!-- Node3 -->
<g id="node2" class="node"><title>Node3</title>
<g id="a_node2"><a xlink:href="classHamiltonian.html" target="_top" xlink:title="Hamiltonian\&lt; BasisnamesTwo \&gt;">
<polygon fill="none" stroke="black" points="264,-69 264,-88 437,-88 437,-69 264,-69"/>
<text text-anchor="middle" x="350.5" y="-76" font-family="Helvetica,sans-Serif" font-size="10.00">Hamiltonian&lt; BasisnamesTwo &gt;</text>
</a>
</g>
</g>
<!-- Node3&#45;&gt;Node2 -->
<g id="edge1" class="edge"><title>Node3&#45;&gt;Node2</title>
<path fill="none" stroke="midnightblue" d="M447.477,-78.5C456.515,-78.5 465.359,-78.5 473.575,-78.5"/>
<polygon fill="midnightblue" stroke="midnightblue" points="447.213,-75.0001 437.213,-78.5 447.213,-82.0001 447.213,-75.0001"/>
</g>
<!-- Node4 -->
<g id="node3" class="node"><title>Node4</title>
<polygon fill="none" stroke="#bfbfbf" points="17,-126.5 17,-156.5 150,-156.5 150,-126.5 17,-126.5"/>
<text text-anchor="start" x="25" y="-144.5" font-family="Helvetica,sans-Serif" font-size="10.00">vector&lt; std::shared</text>
<text text-anchor="middle" x="83.5" y="-133.5" font-family="Helvetica,sans-Serif" font-size="10.00">_ptr&lt; Configuration &gt; &gt;</text>
</g>
<!-- Node4&#45;&gt;Node3 -->
<g id="edge2" class="edge"><title>Node4&#45;&gt;Node3</title>
<path fill="none" stroke="#9a32cd" stroke-dasharray="5,2" d="M160.06,-125.244C187.207,-119.249 218.024,-112.265 246,-105.5 268.743,-100.001 294.171,-93.374 314.132,-88.0619"/>
<polygon fill="#9a32cd" stroke="#9a32cd" points="159.25,-121.839 150.236,-127.406 160.754,-128.675 159.25,-121.839"/>
<text text-anchor="middle" x="215.5" y="-121.5" font-family="Helvetica,sans-Serif" font-size="10.00"> params</text>
</g>
<!-- Node5 -->
<g id="node4" class="node"><title>Node5</title>
<polygon fill="none" stroke="#bfbfbf" points="25,-88 25,-107 142,-107 142,-88 25,-88"/>
<text text-anchor="middle" x="83.5" y="-95" font-family="Helvetica,sans-Serif" font-size="10.00">vector&lt; std::string &gt;</text>
</g>
<!-- Node5&#45;&gt;Node3 -->
<g id="edge3" class="edge"><title>Node5&#45;&gt;Node3</title>
<path fill="none" stroke="#9a32cd" stroke-dasharray="5,2" d="M152.289,-92.6396C186.265,-90.2037 227.764,-87.2282 263.914,-84.6364"/>
<polygon fill="#9a32cd" stroke="#9a32cd" points="151.725,-89.171 142.001,-93.3773 152.226,-96.1531 151.725,-89.171"/>
<text text-anchor="middle" x="215.5" y="-93.5" font-family="Helvetica,sans-Serif" font-size="10.00"> matrix_path</text>
</g>
<!-- Node6 -->
<g id="node5" class="node"><title>Node6</title>
<g id="a_node5"><a xlink:href="classstd_1_1shared__ptr_3_01BasisnamesTwo_01_4.html" target="_top" xlink:title="shared_ptr\&lt; BasisnamesTwo \&gt;">
<polygon fill="none" stroke="black" points="0,-50 0,-69 167,-69 167,-50 0,-50"/>
<text text-anchor="middle" x="83.5" y="-57" font-family="Helvetica,sans-Serif" font-size="10.00">shared_ptr&lt; BasisnamesTwo &gt;</text>
</a>
</g>
</g>
<!-- Node6&#45;&gt;Node3 -->
<g id="edge4" class="edge"><title>Node6&#45;&gt;Node3</title>
<path fill="none" stroke="#9a32cd" stroke-dasharray="5,2" d="M177.462,-66.1652C205.508,-68.1761 236.156,-70.3734 263.712,-72.3492"/>
<polygon fill="#9a32cd" stroke="#9a32cd" points="177.482,-62.6578 167.258,-65.4336 176.982,-69.6398 177.482,-62.6578"/>
<text text-anchor="middle" x="215.5" y="-74.5" font-family="Helvetica,sans-Serif" font-size="10.00"> basis</text>
</g>
<!-- Node7 -->
<g id="node6" class="node"><title>Node7</title>
<polygon fill="none" stroke="#bfbfbf" points="4.5,-0.5 4.5,-30.5 162.5,-30.5 162.5,-0.5 4.5,-0.5"/>
<text text-anchor="start" x="12.5" y="-18.5" font-family="Helvetica,sans-Serif" font-size="10.00">vector&lt; std::shared</text>
<text text-anchor="middle" x="83.5" y="-7.5" font-family="Helvetica,sans-Serif" font-size="10.00">_ptr&lt; Hamiltonianmatrix &gt; &gt;</text>
</g>
<!-- Node7&#45;&gt;Node3 -->
<g id="edge5" class="edge"><title>Node7&#45;&gt;Node3</title>
<path fill="none" stroke="#9a32cd" stroke-dasharray="5,2" d="M161.81,-32.8665C188.509,-38.9558 218.595,-45.9193 246,-52.5 267.978,-57.7776 292.515,-63.9299 312.179,-68.9246"/>
<polygon fill="#9a32cd" stroke="#9a32cd" points="162.283,-29.3848 151.756,-30.5782 160.73,-36.2102 162.283,-29.3848"/>
<text text-anchor="middle" x="215.5" y="-55.5" font-family="Helvetica,sans-Serif" font-size="10.00"> matrix_diag</text>
</g>
</g>
</svg>
