<?xml version="1.0" encoding="UTF-8" standalone="no"?>
<!DOCTYPE svg PUBLIC "-//W3C//DTD SVG 1.1//EN"
 "http://www.w3.org/Graphics/SVG/1.1/DTD/svg11.dtd">
<!-- Generated by graphviz version 2.38.0 (20140413.2041)
 -->
<!-- Title: BasisnamesOne::fromBoth Pages: 1 -->
<svg width="494pt" height="142pt"
 viewBox="0.00 0.00 494.00 142.00" xmlns="http://www.w3.org/2000/svg" xmlns:xlink="http://www.w3.org/1999/xlink">
<g id="graph0" class="graph" transform="scale(1 1) rotate(0) translate(4 138)">
<title>BasisnamesOne::fromBoth</title>
<!-- Node2 -->
<g id="node1" class="node"><title>Node2</title>
<polygon fill="#bfbfbf" stroke="black" points="0,-57.5 0,-76.5 146,-76.5 146,-57.5 0,-57.5"/>
<text text-anchor="middle" x="73" y="-64.5" font-family="Helvetica,sans-Serif" font-size="10.00">BasisnamesOne::fromBoth</text>
</g>
<!-- Node3 -->
<g id="node2" class="node"><title>Node3</title>
<g id="a_node2"><a xlink:href="classBasisnames.html#a534f7e2dcc2987a1f969cb89c070da04" target="_top" xlink:title="Basisnames::configure">
<polygon fill="none" stroke="black" points="182,-114.5 182,-133.5 307,-133.5 307,-114.5 182,-114.5"/>
<text text-anchor="middle" x="244.5" y="-121.5" font-family="Helvetica,sans-Serif" font-size="10.00">Basisnames::configure</text>
</a>
</g>
</g>
<!-- Node2&#45;&gt;Node3 -->
<g id="edge1" class="edge"><title>Node2&#45;&gt;Node3</title>
<path fill="none" stroke="midnightblue" d="M102.37,-76.5405C130.604,-86.0349 174.114,-100.667 205.359,-111.174"/>
<polygon fill="midnightblue" stroke="midnightblue" points="204.443,-114.558 215.037,-114.428 206.674,-107.923 204.443,-114.558"/>
</g>
<!-- Node4 -->
<g id="node3" class="node"><title>Node4</title>
<g id="a_node3"><a xlink:href="classStateTwoOld.html#aad5fb4307dec316a5b602c2e8bfae0a8" target="_top" xlink:title="StateTwoOld::first">
<polygon fill="none" stroke="black" points="364,-76.5 364,-95.5 465,-95.5 465,-76.5 364,-76.5"/>
<text text-anchor="middle" x="414.5" y="-83.5" font-family="Helvetica,sans-Serif" font-size="10.00">StateTwoOld::first</text>
</a>
</g>
</g>
<!-- Node2&#45;&gt;Node4 -->
<g id="edge2" class="edge"><title>Node2&#45;&gt;Node4</title>
<path fill="none" stroke="midnightblue" d="M146.415,-71.0527C208.234,-74.5123 296.065,-79.4278 353.89,-82.6639"/>
<polygon fill="midnightblue" stroke="midnightblue" points="353.789,-86.1637 363.969,-83.228 354.18,-79.1746 353.789,-86.1637"/>
</g>
<!-- Node5 -->
<g id="node4" class="node"><title>Node5</title>
<g id="a_node4"><a xlink:href="classStateTwoOld.html#a1d7ff079f51711e8a6f40946e5677be8" target="_top" xlink:title="StateTwoOld::order">
<polygon fill="none" stroke="black" points="190.5,-38.5 190.5,-57.5 298.5,-57.5 298.5,-38.5 190.5,-38.5"/>
<text text-anchor="middle" x="244.5" y="-45.5" font-family="Helvetica,sans-Serif" font-size="10.00">StateTwoOld::order</text>
</a>
</g>
</g>
<!-- Node2&#45;&gt;Node5 -->
<g id="edge3" class="edge"><title>Node2&#45;&gt;Node5</title>
<path fill="none" stroke="midnightblue" d="M146.375,-58.8872C157.673,-57.6207 169.271,-56.3207 180.342,-55.0796"/>
<polygon fill="midnightblue" stroke="midnightblue" points="180.79,-58.5515 190.338,-53.9592 180.01,-51.595 180.79,-58.5515"/>
</g>
<!-- Node7 -->
<g id="node6" class="node"><title>Node7</title>
<g id="a_node6"><a xlink:href="classStateTwoOld.html#a6efa9c8f92e433004b778f6f5ce212d9" target="_top" xlink:title="StateTwoOld::second">
<polygon fill="none" stroke="black" points="356,-0.5 356,-19.5 473,-19.5 473,-0.5 356,-0.5"/>
<text text-anchor="middle" x="414.5" y="-7.5" font-family="Helvetica,sans-Serif" font-size="10.00">StateTwoOld::second</text>
</a>
</g>
</g>
<!-- Node2&#45;&gt;Node7 -->
<g id="edge7" class="edge"><title>Node2&#45;&gt;Node7</title>
<path fill="none" stroke="midnightblue" d="M95.86,-57.437C117.345,-48.4898 151.285,-35.55 182,-29 236.266,-17.4276 299.074,-12.8062 345.566,-11.0069"/>
<polygon fill="midnightblue" stroke="midnightblue" points="345.954,-14.4955 355.824,-10.6453 345.707,-7.49987 345.954,-14.4955"/>
</g>
<!-- Node5&#45;&gt;Node4 -->
<g id="edge6" class="edge"><title>Node5&#45;&gt;Node4</title>
<path fill="none" stroke="midnightblue" d="M287.893,-57.589C310.263,-62.6487 337.898,-68.8996 361.547,-74.2488"/>
<polygon fill="midnightblue" stroke="midnightblue" points="360.886,-77.6875 371.411,-76.4799 362.43,-70.8599 360.886,-77.6875"/>
</g>
<!-- Node6 -->
<g id="node5" class="node"><title>Node6</title>
<g id="a_node5"><a xlink:href="classStateTwoOld.html#a33b595b744249754cb86bde5cd125c06" target="_top" xlink:title="StateTwoOld::StateTwoOld">
<polygon fill="none" stroke="black" points="343,-38.5 343,-57.5 486,-57.5 486,-38.5 343,-38.5"/>
<text text-anchor="middle" x="414.5" y="-45.5" font-family="Helvetica,sans-Serif" font-size="10.00">StateTwoOld::StateTwoOld</text>
</a>
</g>
</g>
<!-- Node5&#45;&gt;Node6 -->
<g id="edge4" class="edge"><title>Node5&#45;&gt;Node6</title>
<path fill="none" stroke="midnightblue" d="M298.656,-48C309.511,-48 321.165,-48 332.736,-48"/>
<polygon fill="midnightblue" stroke="midnightblue" points="332.861,-51.5001 342.861,-48 332.861,-44.5001 332.861,-51.5001"/>
</g>
<!-- Node5&#45;&gt;Node7 -->
<g id="edge5" class="edge"><title>Node5&#45;&gt;Node7</title>
<path fill="none" stroke="midnightblue" d="M287.893,-38.411C310.263,-33.3513 337.898,-27.1004 361.547,-21.7512"/>
<polygon fill="midnightblue" stroke="midnightblue" points="362.43,-25.1401 371.411,-19.5201 360.886,-18.3125 362.43,-25.1401"/>
</g>
</g>
</svg>
