<?xml version="1.0" encoding="UTF-8" standalone="no"?>
<!DOCTYPE svg PUBLIC "-//W3C//DTD SVG 1.1//EN"
 "http://www.w3.org/Graphics/SVG/1.1/DTD/svg11.dtd">
<!-- Generated by graphviz version 2.38.0 (20140413.2041)
 -->
<!-- Title: Hamiltonianmatrix::save Pages: 1 -->
<svg width="532pt" height="66pt"
 viewBox="0.00 0.00 532.00 66.00" xmlns="http://www.w3.org/2000/svg" xmlns:xlink="http://www.w3.org/1999/xlink">
<g id="graph0" class="graph" transform="scale(1 1) rotate(0) translate(4 62)">
<title>Hamiltonianmatrix::save</title>
<!-- Node188 -->
<g id="node1" class="node"><title>Node188</title>
<polygon fill="#bfbfbf" stroke="black" points="0,-19.5 0,-38.5 134,-38.5 134,-19.5 0,-19.5"/>
<text text-anchor="middle" x="67" y="-26.5" font-family="Helvetica,sans-Serif" font-size="10.00">Hamiltonianmatrix::save</text>
</g>
<!-- Node189 -->
<g id="node2" class="node"><title>Node189</title>
<g id="a_node2"><a xlink:href="classHamiltonianOne.html#a9cb71dcb34ab9f0779c0bd66b758185e" target="_top" xlink:title="HamiltonianOne::build">
<polygon fill="none" stroke="black" points="179.5,-38.5 179.5,-57.5 301.5,-57.5 301.5,-38.5 179.5,-38.5"/>
<text text-anchor="middle" x="240.5" y="-45.5" font-family="Helvetica,sans-Serif" font-size="10.00">HamiltonianOne::build</text>
</a>
</g>
</g>
<!-- Node188&#45;&gt;Node189 -->
<g id="edge1" class="edge"><title>Node188&#45;&gt;Node189</title>
<path fill="none" stroke="midnightblue" d="M144.468,-37.4717C156.125,-38.7631 168.013,-40.0801 179.257,-41.3258"/>
<polygon fill="midnightblue" stroke="midnightblue" points="144.631,-33.9684 134.306,-36.3459 143.86,-40.9258 144.631,-33.9684"/>
</g>
<!-- Node191 -->
<g id="node4" class="node"><title>Node191</title>
<g id="a_node4"><a xlink:href="classHamiltonianTwo.html#a6ca0a318f25170b69e571a07064a5afb" target="_top" xlink:title="HamiltonianTwo::calculate">
<polygon fill="none" stroke="black" points="170,-0.5 170,-19.5 311,-19.5 311,-0.5 170,-0.5"/>
<text text-anchor="middle" x="240.5" y="-7.5" font-family="Helvetica,sans-Serif" font-size="10.00">HamiltonianTwo::calculate</text>
</a>
</g>
</g>
<!-- Node188&#45;&gt;Node191 -->
<g id="edge3" class="edge"><title>Node188&#45;&gt;Node191</title>
<path fill="none" stroke="midnightblue" d="M144.268,-20.5505C152.822,-19.6029 161.502,-18.6411 169.965,-17.7036"/>
<polygon fill="midnightblue" stroke="midnightblue" points="143.86,-17.0742 134.306,-21.6541 144.631,-24.0316 143.86,-17.0742"/>
</g>
<!-- Node190 -->
<g id="node3" class="node"><title>Node190</title>
<g id="a_node3"><a xlink:href="classHamiltonianOne.html#ad3ba2d70879a60c9f065b5a2545dfe36" target="_top" xlink:title="HamiltonianOne::HamiltonianOne">
<polygon fill="none" stroke="black" points="347,-38.5 347,-57.5 524,-57.5 524,-38.5 347,-38.5"/>
<text text-anchor="middle" x="435.5" y="-45.5" font-family="Helvetica,sans-Serif" font-size="10.00">HamiltonianOne::HamiltonianOne</text>
</a>
</g>
</g>
<!-- Node189&#45;&gt;Node190 -->
<g id="edge2" class="edge"><title>Node189&#45;&gt;Node190</title>
<path fill="none" stroke="midnightblue" d="M311.812,-48C323.215,-48 335.146,-48 346.899,-48"/>
<polygon fill="midnightblue" stroke="midnightblue" points="311.508,-44.5001 301.508,-48 311.508,-51.5001 311.508,-44.5001"/>
</g>
<!-- Node192 -->
<g id="node5" class="node"><title>Node192</title>
<g id="a_node5"><a xlink:href="classHamiltonianTwo.html#abd374713c9b38f72265c7fe496c42b96" target="_top" xlink:title="HamiltonianTwo::HamiltonianTwo">
<polygon fill="none" stroke="black" points="348.5,-0.5 348.5,-19.5 522.5,-19.5 522.5,-0.5 348.5,-0.5"/>
<text text-anchor="middle" x="435.5" y="-7.5" font-family="Helvetica,sans-Serif" font-size="10.00">HamiltonianTwo::HamiltonianTwo</text>
</a>
</g>
</g>
<!-- Node191&#45;&gt;Node192 -->
<g id="edge4" class="edge"><title>Node191&#45;&gt;Node192</title>
<path fill="none" stroke="midnightblue" d="M321.217,-10C330.2,-10 339.383,-10 348.442,-10"/>
<polygon fill="midnightblue" stroke="midnightblue" points="321.177,-6.5001 311.177,-10 321.177,-13.5001 321.177,-6.5001"/>
</g>
</g>
</svg>
