<?xml version="1.0" encoding="UTF-8" standalone="no"?>
<!DOCTYPE svg PUBLIC "-//W3C//DTD SVG 1.1//EN"
 "http://www.w3.org/Graphics/SVG/1.1/DTD/svg11.dtd">
<!-- Generated by graphviz version 2.38.0 (20140413.2041)
 -->
<!-- Title: StateTwo::getFirstState Pages: 1 -->
<svg width="493pt" height="88pt"
 viewBox="0.00 0.00 493.00 88.00" xmlns="http://www.w3.org/2000/svg" xmlns:xlink="http://www.w3.org/1999/xlink">
<g id="graph0" class="graph" transform="scale(1 1) rotate(0) translate(4 84)">
<title>StateTwo::getFirstState</title>
<!-- Node23 -->
<g id="node1" class="node"><title>Node23</title>
<polygon fill="#bfbfbf" stroke="black" points="0,-30 0,-49 129,-49 129,-30 0,-30"/>
<text text-anchor="middle" x="64.5" y="-37" font-family="Helvetica,sans-Serif" font-size="10.00">StateTwo::getFirstState</text>
</g>
<!-- Node24 -->
<g id="node2" class="node"><title>Node24</title>
<g id="a_node2"><a xlink:href="classPerturbativeInteraction.html#aef0f5d43fdcf0377dc53e31730c99cb9" target="_top" xlink:title="PerturbativeInteraction\l::getC6">
<polygon fill="none" stroke="black" points="165,-49.5 165,-79.5 291,-79.5 291,-49.5 165,-49.5"/>
<text text-anchor="start" x="173" y="-67.5" font-family="Helvetica,sans-Serif" font-size="10.00">PerturbativeInteraction</text>
<text text-anchor="middle" x="228" y="-56.5" font-family="Helvetica,sans-Serif" font-size="10.00">::getC6</text>
</a>
</g>
</g>
<!-- Node23&#45;&gt;Node24 -->
<g id="edge1" class="edge"><title>Node23&#45;&gt;Node24</title>
<path fill="none" stroke="midnightblue" d="M137.003,-50.5685C146.287,-52.0057 155.736,-53.4685 164.851,-54.8795"/>
<polygon fill="midnightblue" stroke="midnightblue" points="137.435,-47.0938 127.017,-49.0227 136.364,-54.0114 137.435,-47.0938"/>
</g>
<!-- Node25 -->
<g id="node3" class="node"><title>Node25</title>
<g id="a_node3"><a xlink:href="classMatrixElementCache.html#aebf63bfd2c9cc016e6c21410b92a4983" target="_top" xlink:title="MatrixElementCache\l::getLeRoyRadius">
<polygon fill="none" stroke="black" points="170,-0.5 170,-30.5 286,-30.5 286,-0.5 170,-0.5"/>
<text text-anchor="start" x="178" y="-18.5" font-family="Helvetica,sans-Serif" font-size="10.00">MatrixElementCache</text>
<text text-anchor="middle" x="228" y="-7.5" font-family="Helvetica,sans-Serif" font-size="10.00">::getLeRoyRadius</text>
</a>
</g>
</g>
<!-- Node23&#45;&gt;Node25 -->
<g id="edge2" class="edge"><title>Node23&#45;&gt;Node25</title>
<path fill="none" stroke="midnightblue" d="M139.478,-28.5064C149.7,-26.9874 160.067,-25.4467 169.919,-23.9826"/>
<polygon fill="midnightblue" stroke="midnightblue" points="138.706,-25.0826 129.329,-30.0146 139.735,-32.0065 138.706,-25.0826"/>
</g>
<!-- Node26 -->
<g id="node4" class="node"><title>Node26</title>
<g id="a_node4"><a xlink:href="classSystemTwo.html#aabf2ba0d13067b81c2f7d1c78368a63e" target="_top" xlink:title="Methods that allows base class to communicate with subclass ////. ">
<polygon fill="none" stroke="black" points="327,-6 327,-25 485,-25 485,-6 327,-6"/>
<text text-anchor="middle" x="406" y="-13" font-family="Helvetica,sans-Serif" font-size="10.00">SystemTwo::onStatesChange</text>
</a>
</g>
</g>
<!-- Node25&#45;&gt;Node26 -->
<g id="edge3" class="edge"><title>Node25&#45;&gt;Node26</title>
<path fill="none" stroke="midnightblue" d="M296.337,-15.5C306.272,-15.5 316.579,-15.5 326.712,-15.5"/>
<polygon fill="midnightblue" stroke="midnightblue" points="296.142,-12.0001 286.142,-15.5 296.142,-19.0001 296.142,-12.0001"/>
</g>
</g>
</svg>
