<?xml version="1.0" encoding="UTF-8" standalone="no"?>
<!DOCTYPE svg PUBLIC "-//W3C//DTD SVG 1.1//EN"
 "http://www.w3.org/Graphics/SVG/1.1/DTD/svg11.dtd">
<!-- Generated by graphviz version 2.38.0 (20140413.2041)
 -->
<!-- Title: SystemTwo::setDistanceVector Pages: 1 -->
<svg width="551pt" height="53pt"
 viewBox="0.00 0.00 551.00 52.50" xmlns="http://www.w3.org/2000/svg" xmlns:xlink="http://www.w3.org/1999/xlink">
<g id="graph0" class="graph" transform="scale(1 1) rotate(0) translate(4 48.5)">
<title>SystemTwo::setDistanceVector</title>
<!-- Node105 -->
<g id="node1" class="node"><title>Node105</title>
<polygon fill="#bfbfbf" stroke="black" points="0,-6 0,-25 166,-25 166,-6 0,-6"/>
<text text-anchor="middle" x="83" y="-13" font-family="Helvetica,sans-Serif" font-size="10.00">SystemTwo::setDistanceVector</text>
</g>
<!-- Node106 -->
<g id="node2" class="node"><title>Node106</title>
<g id="a_node2"><a xlink:href="classSystemTwo.html#a5201c2042e25fa25d997ac91a150938d" target="_top" xlink:title="SystemTwo::enableGreenTensor">
<polygon fill="none" stroke="black" points="202,-25 202,-44 373,-44 373,-25 202,-25"/>
<text text-anchor="middle" x="287.5" y="-32" font-family="Helvetica,sans-Serif" font-size="10.00">SystemTwo::enableGreenTensor</text>
</a>
</g>
</g>
<!-- Node105&#45;&gt;Node106 -->
<g id="edge1" class="edge"><title>Node105&#45;&gt;Node106</title>
<path fill="none" stroke="midnightblue" d="M166.073,-23.2006C174.504,-23.9917 183.12,-24.8001 191.674,-25.6028"/>
<polygon fill="midnightblue" stroke="midnightblue" points="191.39,-29.0914 201.673,-26.5409 192.044,-22.122 191.39,-29.0914"/>
</g>
<!-- Node107 -->
<g id="node3" class="node"><title>Node107</title>
<g id="a_node3"><a xlink:href="classSystemBase.html#a74e9ee0a201336d5c493ed98360ae378" target="_top" xlink:title="Helper method that shoul be called by the derived classes //////. ">
<polygon fill="none" stroke="black" points="409,-0.5 409,-30.5 543,-30.5 543,-0.5 409,-0.5"/>
<text text-anchor="start" x="417" y="-18.5" font-family="Helvetica,sans-Serif" font-size="10.00">SystemBase&lt; StateTwo</text>
<text text-anchor="middle" x="476" y="-7.5" font-family="Helvetica,sans-Serif" font-size="10.00"> &gt;::onParameterChange</text>
</a>
</g>
</g>
<!-- Node105&#45;&gt;Node107 -->
<g id="edge3" class="edge"><title>Node105&#45;&gt;Node107</title>
<path fill="none" stroke="midnightblue" d="M166.443,-15.5C235.066,-15.5 332.003,-15.5 398.823,-15.5"/>
<polygon fill="midnightblue" stroke="midnightblue" points="398.868,-19.0001 408.867,-15.5 398.867,-12.0001 398.868,-19.0001"/>
</g>
<!-- Node106&#45;&gt;Node107 -->
<g id="edge2" class="edge"><title>Node106&#45;&gt;Node107</title>
<path fill="none" stroke="midnightblue" d="M373.019,-25.8895C381.584,-25.0169 390.248,-24.1343 398.719,-23.2713"/>
<polygon fill="midnightblue" stroke="midnightblue" points="399.342,-26.726 408.935,-22.2304 398.632,-19.7621 399.342,-26.726"/>
</g>
</g>
</svg>
