<?xml version="1.0" encoding="UTF-8" standalone="no"?>
<!DOCTYPE svg PUBLIC "-//W3C//DTD SVG 1.1//EN"
 "http://www.w3.org/Graphics/SVG/1.1/DTD/svg11.dtd">
<!-- Generated by graphviz version 2.38.0 (20140413.2041)
 -->
<!-- Title: SystemBase&lt; T &gt; Pages: 1 -->
<svg width="414pt" height="435pt"
 viewBox="0.00 0.00 414.00 435.45" xmlns="http://www.w3.org/2000/svg" xmlns:xlink="http://www.w3.org/1999/xlink">
<g id="graph0" class="graph" transform="scale(1 1) rotate(0) translate(4 431.454)">
<title>SystemBase&lt; T &gt;</title>
<!-- Node1 -->
<g id="node1" class="node"><title>Node1</title>
<polygon fill="#bfbfbf" stroke="black" points="301,-160.954 301,-179.954 406,-179.954 406,-160.954 301,-160.954"/>
<text text-anchor="middle" x="353.5" y="-167.954" font-family="Helvetica,sans-Serif" font-size="10.00">SystemBase&lt; T &gt;</text>
</g>
<!-- Node2 -->
<g id="node2" class="node"><title>Node2</title>
<polygon fill="none" stroke="#bfbfbf" points="32.5,-384.954 32.5,-403.954 107.5,-403.954 107.5,-384.954 32.5,-384.954"/>
<text text-anchor="middle" x="70" y="-391.954" font-family="Helvetica,sans-Serif" font-size="10.00">set&lt; float &gt;</text>
</g>
<!-- Node2&#45;&gt;Node1 -->
<g id="edge1" class="edge"><title>Node2&#45;&gt;Node1</title>
<path fill="none" stroke="#9a32cd" stroke-dasharray="5,2" d="M117.789,-402.942C164.677,-408.663 236.404,-409.477 283,-372.454 345.72,-322.619 352.078,-213.074 352.534,-180.057"/>
<polygon fill="#9a32cd" stroke="#9a32cd" points="117.976,-399.436 107.599,-401.574 117.044,-406.373 117.976,-399.436"/>
<text text-anchor="middle" x="220.5" y="-419.454" font-family="Helvetica,sans-Serif" font-size="10.00"> range_j</text>
<text text-anchor="middle" x="220.5" y="-408.454" font-family="Helvetica,sans-Serif" font-size="10.00">range_m</text>
</g>
<!-- Node3 -->
<g id="node3" class="node"><title>Node3</title>
<g id="a_node3"><a xlink:href="classdouble.html" target="_top" xlink:title="double">
<polygon fill="none" stroke="black" points="45.5,-328.954 45.5,-347.954 94.5,-347.954 94.5,-328.954 45.5,-328.954"/>
<text text-anchor="middle" x="70" y="-335.954" font-family="Helvetica,sans-Serif" font-size="10.00">double</text>
</a>
</g>
</g>
<!-- Node3&#45;&gt;Node1 -->
<g id="edge2" class="edge"><title>Node3&#45;&gt;Node1</title>
<path fill="none" stroke="#9a32cd" stroke-dasharray="5,2" d="M105.019,-338.69C157.522,-338.415 255.154,-335.164 283,-315.454 330.394,-281.907 346.654,-207.151 351.085,-180.297"/>
<polygon fill="#9a32cd" stroke="#9a32cd" points="104.842,-335.19 94.8484,-338.709 104.855,-342.19 104.842,-335.19"/>
<text text-anchor="middle" x="220.5" y="-361.454" font-family="Helvetica,sans-Serif" font-size="10.00"> energy_max</text>
<text text-anchor="middle" x="220.5" y="-350.454" font-family="Helvetica,sans-Serif" font-size="10.00">threshold_for_sqnorm</text>
<text text-anchor="middle" x="220.5" y="-339.454" font-family="Helvetica,sans-Serif" font-size="10.00">energy_min</text>
</g>
<!-- Node4 -->
<g id="node4" class="node"><title>Node4</title>
<polygon fill="none" stroke="#bfbfbf" points="37,-283.954 37,-302.954 103,-302.954 103,-283.954 37,-283.954"/>
<text text-anchor="middle" x="70" y="-290.954" font-family="Helvetica,sans-Serif" font-size="10.00">set&lt; int &gt;</text>
</g>
<!-- Node4&#45;&gt;Node1 -->
<g id="edge3" class="edge"><title>Node4&#45;&gt;Node1</title>
<path fill="none" stroke="#9a32cd" stroke-dasharray="5,2" d="M113.44,-292.48C166.919,-290.57 255.214,-284.946 283,-268.454 318.514,-247.374 340.668,-200.278 348.883,-180.019"/>
<polygon fill="#9a32cd" stroke="#9a32cd" points="113.116,-288.988 103.236,-292.814 113.345,-295.984 113.116,-288.988"/>
<text text-anchor="middle" x="220.5" y="-303.454" font-family="Helvetica,sans-Serif" font-size="10.00"> range_l</text>
<text text-anchor="middle" x="220.5" y="-292.454" font-family="Helvetica,sans-Serif" font-size="10.00">range_n</text>
</g>
<!-- Node5 -->
<g id="node5" class="node"><title>Node5</title>
<g id="a_node5"><a xlink:href="classbool.html" target="_top" xlink:title="bool">
<polygon fill="none" stroke="black" points="51.5,-205.954 51.5,-224.954 88.5,-224.954 88.5,-205.954 51.5,-205.954"/>
<text text-anchor="middle" x="70" y="-212.954" font-family="Helvetica,sans-Serif" font-size="10.00">bool</text>
</a>
</g>
</g>
<!-- Node5&#45;&gt;Node1 -->
<g id="edge4" class="edge"><title>Node5&#45;&gt;Node1</title>
<path fill="none" stroke="#9a32cd" stroke-dasharray="5,2" d="M98.7433,-214.485C139.527,-212.632 217.879,-207.435 283,-193.454 298.284,-190.172 314.926,-184.734 328.091,-179.97"/>
<polygon fill="#9a32cd" stroke="#9a32cd" points="98.3565,-210.998 88.5122,-214.914 98.6502,-217.992 98.3565,-210.998"/>
<text text-anchor="middle" x="220.5" y="-256.454" font-family="Helvetica,sans-Serif" font-size="10.00"> memory_saving</text>
<text text-anchor="start" x="168" y="-245.454" font-family="Helvetica,sans-Serif" font-size="10.00">is_interaction_already</text>
<text text-anchor="middle" x="220.5" y="-234.454" font-family="Helvetica,sans-Serif" font-size="10.00">_contained</text>
<text text-anchor="start" x="168" y="-223.454" font-family="Helvetica,sans-Serif" font-size="10.00">is_new_hamiltonian</text>
<text text-anchor="middle" x="220.5" y="-212.454" font-family="Helvetica,sans-Serif" font-size="10.00">_required</text>
</g>
<!-- Node6 -->
<g id="node6" class="node"><title>Node6</title>
<polygon fill="none" stroke="#bfbfbf" points="0,-120.954 0,-139.954 140,-139.954 140,-120.954 0,-120.954"/>
<text text-anchor="middle" x="70" y="-127.954" font-family="Helvetica,sans-Serif" font-size="10.00">SparseMatrix&lt; scalar_t &gt;</text>
</g>
<!-- Node6&#45;&gt;Node1 -->
<g id="edge5" class="edge"><title>Node6&#45;&gt;Node1</title>
<path fill="none" stroke="#9a32cd" stroke-dasharray="5,2" d="M138.15,-119.772C180.502,-115.397 235.899,-114.061 283,-127.454 305.655,-133.895 328.152,-150.063 341.17,-160.635"/>
<polygon fill="#9a32cd" stroke="#9a32cd" points="137.503,-116.322 127.952,-120.909 138.279,-123.279 137.503,-116.322"/>
<text text-anchor="start" x="158" y="-185.454" font-family="Helvetica,sans-Serif" font-size="10.00"> hamiltonian_unperturbed</text>
<text text-anchor="middle" x="220.5" y="-174.454" font-family="Helvetica,sans-Serif" font-size="10.00">_cache</text>
<text text-anchor="middle" x="220.5" y="-163.454" font-family="Helvetica,sans-Serif" font-size="10.00">hamiltonian</text>
<text text-anchor="start" x="158" y="-152.454" font-family="Helvetica,sans-Serif" font-size="10.00">basisvectors_unperturbed</text>
<text text-anchor="middle" x="220.5" y="-141.454" font-family="Helvetica,sans-Serif" font-size="10.00">_cache</text>
<text text-anchor="middle" x="220.5" y="-130.454" font-family="Helvetica,sans-Serif" font-size="10.00">basisvectors</text>
</g>
<!-- Node7 -->
<g id="node7" class="node"><title>Node7</title>
<g id="a_node7"><a xlink:href="classMatrixElementCache.html" target="_top" xlink:title="MatrixElementCache">
<polygon fill="none" stroke="black" points="12,-82.9536 12,-101.954 128,-101.954 128,-82.9536 12,-82.9536"/>
<text text-anchor="middle" x="70" y="-89.9536" font-family="Helvetica,sans-Serif" font-size="10.00">MatrixElementCache</text>
</a>
</g>
</g>
<!-- Node7&#45;&gt;Node1 -->
<g id="edge6" class="edge"><title>Node7&#45;&gt;Node1</title>
<path fill="none" stroke="#9a32cd" stroke-dasharray="5,2" d="M138.505,-83.182C181.605,-80.1368 237.689,-81.6461 283,-101.454 312.133,-114.189 335.789,-145.136 346.424,-160.893"/>
<polygon fill="#9a32cd" stroke="#9a32cd" points="138.089,-79.7041 128.402,-83.9951 138.651,-86.6815 138.089,-79.7041"/>
<text text-anchor="middle" x="220.5" y="-104.454" font-family="Helvetica,sans-Serif" font-size="10.00"> cache</text>
</g>
<!-- Node8 -->
<g id="node8" class="node"><title>Node8</title>
<polygon fill="none" stroke="#bfbfbf" points="51,-44.9536 51,-63.9536 89,-63.9536 89,-44.9536 51,-44.9536"/>
<text text-anchor="middle" x="70" y="-51.9536" font-family="Helvetica,sans-Serif" font-size="10.00">type</text>
</g>
<!-- Node8&#45;&gt;Node1 -->
<g id="edge7" class="edge"><title>Node8&#45;&gt;Node1</title>
<path fill="none" stroke="#9a32cd" stroke-dasharray="5,2" d="M99.249,-48.5467C142.106,-41.1512 224.723,-33.1549 283,-66.4536 320.71,-88.0008 341.918,-139.357 349.391,-160.794"/>
<polygon fill="#9a32cd" stroke="#9a32cd" points="98.4494,-45.135 89.2487,-50.3885 99.7173,-52.0193 98.4494,-45.135"/>
<text text-anchor="middle" x="220.5" y="-69.4536" font-family="Helvetica,sans-Serif" font-size="10.00"> states</text>
</g>
<!-- Node9 -->
<g id="node9" class="node"><title>Node9</title>
<polygon fill="none" stroke="#bfbfbf" points="40.5,-6.95355 40.5,-25.9536 99.5,-25.9536 99.5,-6.95355 40.5,-6.95355"/>
<text text-anchor="middle" x="70" y="-13.9536" font-family="Helvetica,sans-Serif" font-size="10.00">set&lt; T &gt;</text>
</g>
<!-- Node9&#45;&gt;Node1 -->
<g id="edge8" class="edge"><title>Node9&#45;&gt;Node1</title>
<path fill="none" stroke="#9a32cd" stroke-dasharray="5,2" d="M109.563,-7.28184C155.023,1.2209 230.959,7.95055 283,-26.4536 331.397,-58.4488 347.094,-134.181 351.226,-160.91"/>
<polygon fill="#9a32cd" stroke="#9a32cd" points="108.643,-3.89614 99.5198,-9.28247 110.011,-10.7613 108.643,-3.89614"/>
<text text-anchor="middle" x="220.5" y="-29.4536" font-family="Helvetica,sans-Serif" font-size="10.00"> states_to_add</text>
</g>
</g>
</svg>
