<?xml version="1.0" encoding="UTF-8" standalone="no"?>
<!DOCTYPE svg PUBLIC "-//W3C//DTD SVG 1.1//EN"
 "http://www.w3.org/Graphics/SVG/1.1/DTD/svg11.dtd">
<!-- Generated by graphviz version 2.38.0 (20140413.2041)
 -->
<!-- Title: Basisnames::configure Pages: 1 -->
<svg width="715pt" height="104pt"
 viewBox="0.00 0.00 715.00 104.00" xmlns="http://www.w3.org/2000/svg" xmlns:xlink="http://www.w3.org/1999/xlink">
<g id="graph0" class="graph" transform="scale(1 1) rotate(0) translate(4 100)">
<title>Basisnames::configure</title>
<!-- Node5 -->
<g id="node1" class="node"><title>Node5</title>
<polygon fill="#bfbfbf" stroke="black" points="0,-38.5 0,-57.5 125,-57.5 125,-38.5 0,-38.5"/>
<text text-anchor="middle" x="62.5" y="-45.5" font-family="Helvetica,sans-Serif" font-size="10.00">Basisnames::configure</text>
</g>
<!-- Node6 -->
<g id="node2" class="node"><title>Node6</title>
<g id="a_node2"><a xlink:href="classBasisnamesOne.html#ab3030f74ccafcc178f38e7a8ada13b9b" target="_top" xlink:title="BasisnamesOne::fromBoth">
<polygon fill="none" stroke="black" points="167.5,-76.5 167.5,-95.5 313.5,-95.5 313.5,-76.5 167.5,-76.5"/>
<text text-anchor="middle" x="240.5" y="-83.5" font-family="Helvetica,sans-Serif" font-size="10.00">BasisnamesOne::fromBoth</text>
</a>
</g>
</g>
<!-- Node5&#45;&gt;Node6 -->
<g id="edge1" class="edge"><title>Node5&#45;&gt;Node6</title>
<path fill="none" stroke="midnightblue" d="M117.933,-59.7526C142.819,-65.1258 171.919,-71.4086 195.407,-76.4799"/>
<polygon fill="midnightblue" stroke="midnightblue" points="118.426,-56.2784 107.912,-57.589 116.948,-63.1207 118.426,-56.2784"/>
</g>
<!-- Node9 -->
<g id="node5" class="node"><title>Node9</title>
<g id="a_node5"><a xlink:href="classBasisnamesOne.html#a37fe3571090885a8a594eed4019befa9" target="_top" xlink:title="BasisnamesOne::fromFirst">
<polygon fill="none" stroke="black" points="169,-0.5 169,-19.5 312,-19.5 312,-0.5 169,-0.5"/>
<text text-anchor="middle" x="240.5" y="-7.5" font-family="Helvetica,sans-Serif" font-size="10.00">BasisnamesOne::fromFirst</text>
</a>
</g>
</g>
<!-- Node5&#45;&gt;Node9 -->
<g id="edge4" class="edge"><title>Node5&#45;&gt;Node9</title>
<path fill="none" stroke="midnightblue" d="M117.933,-36.2474C142.819,-30.8742 171.919,-24.5914 195.407,-19.5201"/>
<polygon fill="midnightblue" stroke="midnightblue" points="116.948,-32.8793 107.912,-38.411 118.426,-39.7216 116.948,-32.8793"/>
</g>
<!-- Node12 -->
<g id="node8" class="node"><title>Node12</title>
<g id="a_node8"><a xlink:href="classBasisnamesOne.html#a683ae34cba3c56f9a0185e932de62078" target="_top" xlink:title="BasisnamesOne::fromSecond">
<polygon fill="none" stroke="black" points="161,-38.5 161,-57.5 320,-57.5 320,-38.5 161,-38.5"/>
<text text-anchor="middle" x="240.5" y="-45.5" font-family="Helvetica,sans-Serif" font-size="10.00">BasisnamesOne::fromSecond</text>
</a>
</g>
</g>
<!-- Node5&#45;&gt;Node12 -->
<g id="edge8" class="edge"><title>Node5&#45;&gt;Node12</title>
<path fill="none" stroke="midnightblue" d="M135.261,-48C143.73,-48 152.406,-48 160.962,-48"/>
<polygon fill="midnightblue" stroke="midnightblue" points="135.056,-44.5001 125.056,-48 135.056,-51.5001 135.056,-44.5001"/>
</g>
<!-- Node7 -->
<g id="node3" class="node"><title>Node7</title>
<g id="a_node3"><a xlink:href="Interface_8h.html#ad478f0b9610586a2ae8066c78b6d3f96" target="_top" xlink:title="compute">
<polygon fill="none" stroke="black" points="397,-38.5 397,-57.5 456,-57.5 456,-38.5 397,-38.5"/>
<text text-anchor="middle" x="426.5" y="-45.5" font-family="Helvetica,sans-Serif" font-size="10.00">compute</text>
</a>
</g>
</g>
<!-- Node6&#45;&gt;Node7 -->
<g id="edge2" class="edge"><title>Node6&#45;&gt;Node7</title>
<path fill="none" stroke="midnightblue" d="M297.847,-74.3631C330.612,-67.5964 370.514,-59.3558 396.889,-53.9088"/>
<polygon fill="midnightblue" stroke="midnightblue" points="297.016,-70.9607 287.931,-76.411 298.432,-77.816 297.016,-70.9607"/>
</g>
<!-- Node8 -->
<g id="node4" class="node"><title>Node8</title>
<g id="a_node4"><a xlink:href="main_8cpp.html#a3c04138a5bfe5d72780bb7e82a18e627" target="_top" xlink:title="main">
<polygon fill="none" stroke="black" points="599.5,-38.5 599.5,-57.5 640.5,-57.5 640.5,-38.5 599.5,-38.5"/>
<text text-anchor="middle" x="620" y="-45.5" font-family="Helvetica,sans-Serif" font-size="10.00">main</text>
</a>
</g>
</g>
<!-- Node7&#45;&gt;Node8 -->
<g id="edge3" class="edge"><title>Node7&#45;&gt;Node8</title>
<path fill="none" stroke="midnightblue" d="M466.197,-48C506.583,-48 568.282,-48 599.483,-48"/>
<polygon fill="midnightblue" stroke="midnightblue" points="466.17,-44.5001 456.169,-48 466.169,-51.5001 466.17,-44.5001"/>
</g>
<!-- Node9&#45;&gt;Node7 -->
<g id="edge7" class="edge"><title>Node9&#45;&gt;Node7</title>
<path fill="none" stroke="midnightblue" d="M297.847,-21.6369C330.612,-28.4036 370.514,-36.6442 396.889,-42.0912"/>
<polygon fill="midnightblue" stroke="midnightblue" points="298.432,-18.184 287.931,-19.589 297.016,-25.0393 298.432,-18.184"/>
</g>
<!-- Node10 -->
<g id="node6" class="node"><title>Node10</title>
<g id="a_node6"><a xlink:href="classHamiltonianTwo.html#a6ca0a318f25170b69e571a07064a5afb" target="_top" xlink:title="HamiltonianTwo::calculate">
<polygon fill="none" stroke="black" points="356,-0.5 356,-19.5 497,-19.5 497,-0.5 356,-0.5"/>
<text text-anchor="middle" x="426.5" y="-7.5" font-family="Helvetica,sans-Serif" font-size="10.00">HamiltonianTwo::calculate</text>
</a>
</g>
</g>
<!-- Node9&#45;&gt;Node10 -->
<g id="edge5" class="edge"><title>Node9&#45;&gt;Node10</title>
<path fill="none" stroke="midnightblue" d="M322.334,-10C333.554,-10 344.998,-10 355.987,-10"/>
<polygon fill="midnightblue" stroke="midnightblue" points="322.113,-6.5001 312.113,-10 322.113,-13.5001 322.113,-6.5001"/>
</g>
<!-- Node11 -->
<g id="node7" class="node"><title>Node11</title>
<g id="a_node7"><a xlink:href="classHamiltonianTwo.html#abd374713c9b38f72265c7fe496c42b96" target="_top" xlink:title="HamiltonianTwo::HamiltonianTwo">
<polygon fill="none" stroke="black" points="533,-0.5 533,-19.5 707,-19.5 707,-0.5 533,-0.5"/>
<text text-anchor="middle" x="620" y="-7.5" font-family="Helvetica,sans-Serif" font-size="10.00">HamiltonianTwo::HamiltonianTwo</text>
</a>
</g>
</g>
<!-- Node10&#45;&gt;Node11 -->
<g id="edge6" class="edge"><title>Node10&#45;&gt;Node11</title>
<path fill="none" stroke="midnightblue" d="M507.313,-10C515.705,-10 524.265,-10 532.726,-10"/>
<polygon fill="midnightblue" stroke="midnightblue" points="507.178,-6.5001 497.178,-10 507.178,-13.5001 507.178,-6.5001"/>
</g>
<!-- Node12&#45;&gt;Node7 -->
<g id="edge10" class="edge"><title>Node12&#45;&gt;Node7</title>
<path fill="none" stroke="midnightblue" d="M330.305,-48C354.281,-48 378.546,-48 396.578,-48"/>
<polygon fill="midnightblue" stroke="midnightblue" points="330.066,-44.5001 320.066,-48 330.066,-51.5001 330.066,-44.5001"/>
</g>
<!-- Node12&#45;&gt;Node10 -->
<g id="edge9" class="edge"><title>Node12&#45;&gt;Node10</title>
<path fill="none" stroke="midnightblue" d="M298.061,-36.319C324.154,-30.9301 354.738,-24.6139 379.403,-19.5201"/>
<polygon fill="midnightblue" stroke="midnightblue" points="297.016,-32.9607 287.931,-38.411 298.432,-39.816 297.016,-32.9607"/>
</g>
</g>
</svg>
