<?xml version="1.0" encoding="UTF-8" standalone="no"?>
<!DOCTYPE svg PUBLIC "-//W3C//DTD SVG 1.1//EN"
 "http://www.w3.org/Graphics/SVG/1.1/DTD/svg11.dtd">
<!-- Generated by graphviz version 2.38.0 (20140413.2041)
 -->
<!-- Title: StateTwoOld::getEnergy Pages: 1 -->
<svg width="421pt" height="104pt"
 viewBox="0.00 0.00 421.00 104.00" xmlns="http://www.w3.org/2000/svg" xmlns:xlink="http://www.w3.org/1999/xlink">
<g id="graph0" class="graph" transform="scale(1 1) rotate(0) translate(4 100)">
<title>StateTwoOld::getEnergy</title>
<!-- Node27 -->
<g id="node1" class="node"><title>Node27</title>
<polygon fill="#bfbfbf" stroke="black" points="0,-38.5 0,-57.5 131,-57.5 131,-38.5 0,-38.5"/>
<text text-anchor="middle" x="65.5" y="-45.5" font-family="Helvetica,sans-Serif" font-size="10.00">StateTwoOld::getEnergy</text>
</g>
<!-- Node28 -->
<g id="node2" class="node"><title>Node28</title>
<g id="a_node2"><a xlink:href="classStateTwoOld.html#aad5fb4307dec316a5b602c2e8bfae0a8" target="_top" xlink:title="StateTwoOld::first">
<polygon fill="none" stroke="black" points="183,-76.5 183,-95.5 284,-95.5 284,-76.5 183,-76.5"/>
<text text-anchor="middle" x="233.5" y="-83.5" font-family="Helvetica,sans-Serif" font-size="10.00">StateTwoOld::first</text>
</a>
</g>
</g>
<!-- Node27&#45;&gt;Node28 -->
<g id="edge1" class="edge"><title>Node27&#45;&gt;Node28</title>
<path fill="none" stroke="midnightblue" d="M108.389,-57.589C130.393,-62.6261 157.555,-68.8438 180.852,-74.1771"/>
<polygon fill="midnightblue" stroke="midnightblue" points="180.384,-77.6602 190.912,-76.4799 181.946,-70.8367 180.384,-77.6602"/>
</g>
<!-- Node29 -->
<g id="node3" class="node"><title>Node29</title>
<g id="a_node3"><a xlink:href="classStateOneOld.html#a87391af707be61e934c06b4561ba5059" target="_top" xlink:title="StateOneOld::getEnergy">
<polygon fill="none" stroke="black" points="167,-38.5 167,-57.5 300,-57.5 300,-38.5 167,-38.5"/>
<text text-anchor="middle" x="233.5" y="-45.5" font-family="Helvetica,sans-Serif" font-size="10.00">StateOneOld::getEnergy</text>
</a>
</g>
</g>
<!-- Node27&#45;&gt;Node29 -->
<g id="edge2" class="edge"><title>Node27&#45;&gt;Node29</title>
<path fill="none" stroke="midnightblue" d="M131.155,-48C139.596,-48 148.303,-48 156.903,-48"/>
<polygon fill="midnightblue" stroke="midnightblue" points="156.928,-51.5001 166.928,-48 156.928,-44.5001 156.928,-51.5001"/>
</g>
<!-- Node31 -->
<g id="node5" class="node"><title>Node31</title>
<g id="a_node5"><a xlink:href="classStateTwoOld.html#a6efa9c8f92e433004b778f6f5ce212d9" target="_top" xlink:title="StateTwoOld::second">
<polygon fill="none" stroke="black" points="175,-0.5 175,-19.5 292,-19.5 292,-0.5 175,-0.5"/>
<text text-anchor="middle" x="233.5" y="-7.5" font-family="Helvetica,sans-Serif" font-size="10.00">StateTwoOld::second</text>
</a>
</g>
</g>
<!-- Node27&#45;&gt;Node31 -->
<g id="edge4" class="edge"><title>Node27&#45;&gt;Node31</title>
<path fill="none" stroke="midnightblue" d="M108.389,-38.411C130.393,-33.3739 157.555,-27.1562 180.852,-21.8229"/>
<polygon fill="midnightblue" stroke="midnightblue" points="181.946,-25.1633 190.912,-19.5201 180.384,-18.3398 181.946,-25.1633"/>
</g>
<!-- Node30 -->
<g id="node4" class="node"><title>Node30</title>
<g id="a_node4"><a xlink:href="QuantumDefect_8cpp.html#a854f2230d8c234ac6c9aa6f07c3ac266" target="_top" xlink:title="Returns only the energy of a state. ">
<polygon fill="none" stroke="black" points="336,-38.5 336,-57.5 413,-57.5 413,-38.5 336,-38.5"/>
<text text-anchor="middle" x="374.5" y="-45.5" font-family="Helvetica,sans-Serif" font-size="10.00">energy_level</text>
</a>
</g>
</g>
<!-- Node29&#45;&gt;Node30 -->
<g id="edge3" class="edge"><title>Node29&#45;&gt;Node30</title>
<path fill="none" stroke="midnightblue" d="M300.336,-48C308.921,-48 317.581,-48 325.79,-48"/>
<polygon fill="midnightblue" stroke="midnightblue" points="325.906,-51.5001 335.906,-48 325.906,-44.5001 325.906,-51.5001"/>
</g>
</g>
</svg>
