<?xml version="1.0" encoding="UTF-8" standalone="no"?>
<!DOCTYPE svg PUBLIC "-//W3C//DTD SVG 1.1//EN"
 "http://www.w3.org/Graphics/SVG/1.1/DTD/svg11.dtd">
<!-- Generated by graphviz version 2.38.0 (20140413.2041)
 -->
<!-- Title: StateTwo::getM Pages: 1 -->
<svg width="262pt" height="78pt"
 viewBox="0.00 0.00 262.00 77.50" xmlns="http://www.w3.org/2000/svg" xmlns:xlink="http://www.w3.org/1999/xlink">
<g id="graph0" class="graph" transform="scale(1 1) rotate(0) translate(4 73.5)">
<title>StateTwo::getM</title>
<!-- Node48 -->
<g id="node1" class="node"><title>Node48</title>
<polygon fill="#bfbfbf" stroke="black" points="0,-22.5 0,-41.5 91,-41.5 91,-22.5 0,-22.5"/>
<text text-anchor="middle" x="45.5" y="-29.5" font-family="Helvetica,sans-Serif" font-size="10.00">StateTwo::getM</text>
</g>
<!-- Node49 -->
<g id="node2" class="node"><title>Node49</title>
<g id="a_node2"><a xlink:href="classPerturbativeInteraction.html#aef0f5d43fdcf0377dc53e31730c99cb9" target="_top" xlink:title="PerturbativeInteraction\l::getC6">
<polygon fill="none" stroke="black" points="127.5,-39 127.5,-69 253.5,-69 253.5,-39 127.5,-39"/>
<text text-anchor="start" x="135.5" y="-57" font-family="Helvetica,sans-Serif" font-size="10.00">PerturbativeInteraction</text>
<text text-anchor="middle" x="190.5" y="-46" font-family="Helvetica,sans-Serif" font-size="10.00">::getC6</text>
</a>
</g>
</g>
<!-- Node48&#45;&gt;Node49 -->
<g id="edge1" class="edge"><title>Node48&#45;&gt;Node49</title>
<path fill="none" stroke="midnightblue" d="M101.457,-40.4549C109.899,-41.7537 118.668,-43.1027 127.255,-44.4238"/>
<polygon fill="midnightblue" stroke="midnightblue" points="101.77,-36.9619 91.3537,-38.9006 100.705,-43.8805 101.77,-36.9619"/>
</g>
<!-- Node50 -->
<g id="node3" class="node"><title>Node50</title>
<g id="a_node3"><a xlink:href="classStateTwo.html#a8144dc47a35a397f9b040a5de5d8673e" target="_top" xlink:title="StateTwo::getReflected">
<polygon fill="none" stroke="black" points="127,-0.5 127,-19.5 254,-19.5 254,-0.5 127,-0.5"/>
<text text-anchor="middle" x="190.5" y="-7.5" font-family="Helvetica,sans-Serif" font-size="10.00">StateTwo::getReflected</text>
</a>
</g>
</g>
<!-- Node48&#45;&gt;Node50 -->
<g id="edge2" class="edge"><title>Node48&#45;&gt;Node50</title>
<path fill="none" stroke="midnightblue" d="M101.25,-23.5769C109.842,-22.2551 118.775,-20.8807 127.516,-19.5361"/>
<polygon fill="midnightblue" stroke="midnightblue" points="100.705,-20.1195 91.3537,-25.0994 101.77,-27.0381 100.705,-20.1195"/>
</g>
</g>
</svg>
