<?xml version="1.0" encoding="UTF-8" standalone="no"?>
<!DOCTYPE svg PUBLIC "-//W3C//DTD SVG 1.1//EN"
 "http://www.w3.org/Graphics/SVG/1.1/DTD/svg11.dtd">
<!-- Generated by graphviz version 2.38.0 (20140413.2041)
 -->
<!-- Title: SystemOne::initializeInteraction Pages: 1 -->
<!--zoomable 491 -->
<svg id="main" version="1.1" xmlns="http://www.w3.org/2000/svg" xmlns:xlink="http://www.w3.org/1999/xlink" xml:space="preserve" onload="init(evt)">
<style type="text/css"><![CDATA[
.edge:hover path { stroke: red; }
.edge:hover polygon { stroke: red; fill: red; }
]]></style>
<script type="text/javascript"><![CDATA[
var edges = document.getElementsByTagName('g');
if (edges && edges.length) {
  for (var i=0;i<edges.length;i++) {
    if (edges[i].id.substr(0,4)=='edge') {
      edges[i].setAttribute('class','edge');
    }
  }
}
]]></script>
        <defs>
                <circle id="rim" cx="0" cy="0" r="7"/>
                <circle id="rim2" cx="0" cy="0" r="3.5"/>
                <g id="zoomPlus">
                        <use xlink:href="#rim" fill="#404040">
                                <set attributeName="fill" to="#808080" begin="zoomplus.mouseover" end="zoomplus.mouseout"/>
                        </use>
                        <path d="M-4,0h8M0,-4v8" fill="none" stroke="white" stroke-width="1.5" pointer-events="none"/>
                </g>
                <g id="zoomMin">
                        <use xlink:href="#rim" fill="#404040">
                                <set attributeName="fill" to="#808080" begin="zoomminus.mouseover" end="zoomminus.mouseout"/>
                        </use>
                        <path d="M-4,0h8" fill="none" stroke="white" stroke-width="1.5" pointer-events="none"/>
                </g>
                <g id="dirArrow">
                        <path fill="none" stroke="white" stroke-width="1.5" d="M0,-3.0v7 M-2.5,-0.5L0,-3.0L2.5,-0.5"/>
                </g>
               <g id="resetDef">
                       <use xlink:href="#rim2" fill="#404040">
                               <set attributeName="fill" to="#808080" begin="reset.mouseover" end="reset.mouseout"/>
                       </use>
               </g>
        </defs>

<script type="text/javascript">
var viewWidth = 747;
var viewHeight = 491;
var sectionId = 'dynsection-7';
</script>
<script xlink:href="svgpan.js"/>
<svg id="graph" class="graph">
<g id="viewport">
<title>SystemOne::initializeInteraction</title>
<!-- Node35 -->
<g id="node1" class="node"><title>Node35</title>
<polygon fill="#bfbfbf" stroke="black" points="0,-190.5 0,-209.5 168,-209.5 168,-190.5 0,-190.5"/>
<text text-anchor="middle" x="84" y="-197.5" font-family="Helvetica,sans-Serif" font-size="10.00">SystemOne::initializeInteraction</text>
</g>
<!-- Node36 -->
<g id="node2" class="node"><title>Node36</title>
<g id="a_node2"><a xlink:href="classMatrixElementCache.html#ab1120fb945d5c0c5e30821e886c04c42" target="_top" xlink:title="MatrixElementCache\l::getDiamagnetism">
<polygon fill="none" stroke="black" points="236,-382 236,-412 352,-412 352,-382 236,-382"/>
<text text-anchor="start" x="244" y="-400" font-family="Helvetica,sans-Serif" font-size="10.00">MatrixElementCache</text>
<text text-anchor="middle" x="294" y="-389" font-family="Helvetica,sans-Serif" font-size="10.00">::getDiamagnetism</text>
</a>
</g>
</g>
<!-- Node35&#45;&gt;Node36 -->
<g id="edge1" class="edge"><title>Node35&#45;&gt;Node36</title>
<path fill="none" stroke="midnightblue" d="M90.9301,-209.639C106.754,-234.771 152.312,-303.37 204,-347 217.795,-358.644 234.702,-368.938 250.061,-377.113"/>
<polygon fill="midnightblue" stroke="midnightblue" points="248.891,-380.447 259.382,-381.922 252.1,-374.226 248.891,-380.447"/>
</g>
<!-- Node38 -->
<g id="node4" class="node"><title>Node38</title>
<g id="a_node4"><a xlink:href="classMatrixElementCache.html#ac6191cd01c85dd9cf28a373b524f0b1b" target="_top" xlink:title="Get matrix elements ////////////////////////////////////////////. ">
<polygon fill="none" stroke="black" points="236,-441 236,-471 352,-471 352,-441 236,-441"/>
<text text-anchor="start" x="244" y="-459" font-family="Helvetica,sans-Serif" font-size="10.00">MatrixElementCache</text>
<text text-anchor="middle" x="294" y="-448" font-family="Helvetica,sans-Serif" font-size="10.00">::getElectricDipole</text>
</a>
</g>
</g>
<!-- Node35&#45;&gt;Node38 -->
<g id="edge3" class="edge"><title>Node35&#45;&gt;Node38</title>
<path fill="none" stroke="midnightblue" d="M87.4847,-209.521C96.794,-243.384 132.773,-359.299 204,-422 210.675,-427.876 218.472,-432.784 226.625,-436.871"/>
<polygon fill="midnightblue" stroke="midnightblue" points="225.393,-440.156 235.941,-441.144 228.311,-433.793 225.393,-440.156"/>
</g>
<!-- Node39 -->
<g id="node5" class="node"><title>Node39</title>
<g id="a_node5"><a xlink:href="classMatrixElementCache.html#aeef0496ad6db911dac50c0625660d9c0" target="_top" xlink:title="MatrixElementCache\l::getMagneticDipole">
<polygon fill="none" stroke="black" points="442.5,-403 442.5,-433 558.5,-433 558.5,-403 442.5,-403"/>
<text text-anchor="start" x="450.5" y="-421" font-family="Helvetica,sans-Serif" font-size="10.00">MatrixElementCache</text>
<text text-anchor="middle" x="500.5" y="-410" font-family="Helvetica,sans-Serif" font-size="10.00">::getMagneticDipole</text>
</a>
</g>
</g>
<!-- Node35&#45;&gt;Node39 -->
<g id="edge5" class="edge"><title>Node35&#45;&gt;Node39</title>
<path fill="none" stroke="midnightblue" d="M99.8715,-209.605C122.246,-223.974 165.997,-251.755 204,-274 282.795,-320.123 304.561,-327.994 384,-373 400.116,-382.131 403.017,-386.606 420,-394 424.591,-395.999 429.401,-397.897 434.284,-399.686"/>
<polygon fill="midnightblue" stroke="midnightblue" points="433.133,-402.991 443.728,-402.986 435.442,-396.383 433.133,-402.991"/>
</g>
<!-- Node46 -->
<g id="node12" class="node"><title>Node46</title>
<g id="a_node12"><a xlink:href="classSystemBase.html#ab8f443cfd5d8c270361234acc57721c8" target="_top" xlink:title="Methods to get properties of the system ////////////////////////. ">
<polygon fill="none" stroke="black" points="227,-234 227,-264 361,-264 361,-234 227,-234"/>
<text text-anchor="start" x="235" y="-252" font-family="Helvetica,sans-Serif" font-size="10.00">SystemBase&lt; StateOne</text>
<text text-anchor="middle" x="294" y="-241" font-family="Helvetica,sans-Serif" font-size="10.00"> &gt;::getStates</text>
</a>
</g>
</g>
<!-- Node35&#45;&gt;Node46 -->
<g id="edge12" class="edge"><title>Node35&#45;&gt;Node46</title>
<path fill="none" stroke="midnightblue" d="M125.598,-209.564C152.162,-215.822 187.649,-224.182 219.112,-231.594"/>
<polygon fill="midnightblue" stroke="midnightblue" points="218.633,-235.077 229.17,-233.963 220.239,-228.263 218.633,-235.077"/>
</g>
<!-- Node47 -->
<g id="node13" class="node"><title>Node47</title>
<g id="a_node13"><a xlink:href="classMatrixElementCache.html#a41efbe3c4a7e3e5f2ed2c807a0b3178e" target="_top" xlink:title="MatrixElementCache\l::precalculateDiamagnetism">
<polygon fill="none" stroke="black" points="218,-185 218,-215 370,-215 370,-185 218,-185"/>
<text text-anchor="start" x="226" y="-203" font-family="Helvetica,sans-Serif" font-size="10.00">MatrixElementCache</text>
<text text-anchor="middle" x="294" y="-192" font-family="Helvetica,sans-Serif" font-size="10.00">::precalculateDiamagnetism</text>
</a>
</g>
</g>
<!-- Node35&#45;&gt;Node47 -->
<g id="edge13" class="edge"><title>Node35&#45;&gt;Node47</title>
<path fill="none" stroke="midnightblue" d="M168.104,-200C181.051,-200 194.448,-200 207.448,-200"/>
<polygon fill="midnightblue" stroke="midnightblue" points="207.772,-203.5 217.772,-200 207.772,-196.5 207.772,-203.5"/>
</g>
<!-- Node54 -->
<g id="node20" class="node"><title>Node54</title>
<g id="a_node20"><a xlink:href="MatrixElementCache_8cpp.html#a15aabd3025cfa0ca9485cd672c0a1a4a" target="_top" xlink:title="selectionRulesMomentumNew">
<polygon fill="none" stroke="black" points="420,-38.5 420,-57.5 581,-57.5 581,-38.5 420,-38.5"/>
<text text-anchor="middle" x="500.5" y="-45.5" font-family="Helvetica,sans-Serif" font-size="10.00">selectionRulesMomentumNew</text>
</a>
</g>
</g>
<!-- Node35&#45;&gt;Node54 -->
<g id="edge32" class="edge"><title>Node35&#45;&gt;Node54</title>
<path fill="none" stroke="midnightblue" d="M129.16,-190.442C211.095,-172.643 378.859,-135.862 384,-132 410.403,-112.164 393.706,-86.9802 420,-67 422.463,-65.1286 425.083,-63.4381 427.815,-61.9113"/>
<polygon fill="midnightblue" stroke="midnightblue" points="429.364,-65.0501 436.868,-57.5711 426.338,-58.738 429.364,-65.0501"/>
</g>
<!-- Node55 -->
<g id="node21" class="node"><title>Node55</title>
<g id="a_node21"><a xlink:href="MatrixElementCache_8cpp.html#a06a268e07e2a0edb3fca096b8c941c78" target="_top" xlink:title="selectionRulesMultipoleNew">
<polygon fill="none" stroke="black" points="426.5,-0.5 426.5,-19.5 574.5,-19.5 574.5,-0.5 426.5,-0.5"/>
<text text-anchor="middle" x="500.5" y="-7.5" font-family="Helvetica,sans-Serif" font-size="10.00">selectionRulesMultipoleNew</text>
</a>
</g>
</g>
<!-- Node35&#45;&gt;Node55 -->
<g id="edge33" class="edge"><title>Node35&#45;&gt;Node55</title>
<path fill="none" stroke="midnightblue" d="M98.1949,-190.48C119.415,-175.641 162.916,-147.133 204,-132 280.397,-103.86 318.615,-146.509 384,-98 411.779,-77.3904 392.722,-50.269 420,-29 422.308,-27.2003 424.76,-25.5673 427.319,-24.0857"/>
<polygon fill="midnightblue" stroke="midnightblue" points="428.957,-27.1804 436.369,-19.6101 425.853,-20.9057 428.957,-27.1804"/>
</g>
<!-- Node58 -->
<g id="node24" class="node"><title>Node58</title>
<g id="a_node24"><a xlink:href="classMatrixElementCache.html#a34df68dc580d24417fe3fad8fefc44b9" target="_top" xlink:title="MatrixElementCache\l::precalculateElectricMomentum">
<polygon fill="none" stroke="black" points="208.5,-59 208.5,-89 379.5,-89 379.5,-59 208.5,-59"/>
<text text-anchor="start" x="216.5" y="-77" font-family="Helvetica,sans-Serif" font-size="10.00">MatrixElementCache</text>
<text text-anchor="middle" x="294" y="-66" font-family="Helvetica,sans-Serif" font-size="10.00">::precalculateElectricMomentum</text>
</a>
</g>
</g>
<!-- Node35&#45;&gt;Node58 -->
<g id="edge30" class="edge"><title>Node35&#45;&gt;Node58</title>
<path fill="none" stroke="midnightblue" d="M94.3207,-190.488C113.33,-171.57 158.624,-128.905 204,-104 211.685,-99.7818 220.068,-96.0122 228.517,-92.6887"/>
<polygon fill="midnightblue" stroke="midnightblue" points="229.907,-95.9054 238.049,-89.1259 227.457,-89.3484 229.907,-95.9054"/>
</g>
<!-- Node59 -->
<g id="node25" class="node"><title>Node59</title>
<g id="a_node25"><a xlink:href="classMatrixElementCache.html#ad68fd8e84f74d7b35055fec6d09273bb" target="_top" xlink:title="MatrixElementCache\l::precalculateMagneticMomentum">
<polygon fill="none" stroke="black" points="204,-10 204,-40 384,-40 384,-10 204,-10"/>
<text text-anchor="start" x="212" y="-28" font-family="Helvetica,sans-Serif" font-size="10.00">MatrixElementCache</text>
<text text-anchor="middle" x="294" y="-17" font-family="Helvetica,sans-Serif" font-size="10.00">::precalculateMagneticMomentum</text>
</a>
</g>
</g>
<!-- Node35&#45;&gt;Node59 -->
<g id="edge31" class="edge"><title>Node35&#45;&gt;Node59</title>
<path fill="none" stroke="midnightblue" d="M89.6731,-190.485C103.306,-163.754 145.779,-87.4268 204,-49 206.442,-47.3884 208.989,-45.8846 211.613,-44.4815"/>
<polygon fill="midnightblue" stroke="midnightblue" points="213.286,-47.5612 220.796,-40.0878 210.264,-41.2468 213.286,-47.5612"/>
</g>
<!-- Node37 -->
<g id="node3" class="node"><title>Node37</title>
<g id="a_node3"><a xlink:href="classMatrixElementCache.html#a2407b99847793920a9d4ed0d8b156d8a" target="_top" xlink:title="MatrixElementCache\l::getElectricMultipole">
<polygon fill="none" stroke="black" points="442.5,-452 442.5,-482 558.5,-482 558.5,-452 442.5,-452"/>
<text text-anchor="start" x="450.5" y="-470" font-family="Helvetica,sans-Serif" font-size="10.00">MatrixElementCache</text>
<text text-anchor="middle" x="500.5" y="-459" font-family="Helvetica,sans-Serif" font-size="10.00">::getElectricMultipole</text>
</a>
</g>
</g>
<!-- Node36&#45;&gt;Node37 -->
<g id="edge2" class="edge"><title>Node36&#45;&gt;Node37</title>
<path fill="none" stroke="midnightblue" d="M334.197,-412.105C358.725,-421.387 391.054,-433.314 420,-443 425.922,-444.982 432.115,-446.98 438.319,-448.932"/>
<polygon fill="midnightblue" stroke="midnightblue" points="437.451,-452.327 448.04,-451.953 439.529,-445.642 437.451,-452.327"/>
</g>
<!-- Node38&#45;&gt;Node37 -->
<g id="edge4" class="edge"><title>Node38&#45;&gt;Node37</title>
<path fill="none" stroke="midnightblue" d="M352.237,-459.079C377.063,-460.414 406.313,-461.988 432.176,-463.379"/>
<polygon fill="midnightblue" stroke="midnightblue" points="432.104,-466.88 442.277,-463.922 432.48,-459.89 432.104,-466.88"/>
</g>
<!-- Node40 -->
<g id="node6" class="node"><title>Node40</title>
<g id="a_node6"><a xlink:href="classStateOne.html#aedba5bfce70f73fa324b9d5ae1115578" target="_top" xlink:title="StateOne::getJ">
<polygon fill="none" stroke="black" points="635,-76.5 635,-95.5 721,-95.5 721,-76.5 635,-76.5"/>
<text text-anchor="middle" x="678" y="-83.5" font-family="Helvetica,sans-Serif" font-size="10.00">StateOne::getJ</text>
</a>
</g>
</g>
<!-- Node39&#45;&gt;Node40 -->
<g id="edge6" class="edge"><title>Node39&#45;&gt;Node40</title>
<path fill="none" stroke="midnightblue" d="M558.737,-408.215C566.97,-404.794 574.754,-400.191 581,-394 663.649,-312.088 675.377,-160.276 676.863,-105.966"/>
<polygon fill="midnightblue" stroke="midnightblue" points="680.368,-105.713 677.048,-95.6515 673.369,-105.587 680.368,-105.713"/>
</g>
<!-- Node41 -->
<g id="node7" class="node"><title>Node41</title>
<g id="a_node7"><a xlink:href="classStateOne.html#a3783cebe5bbd63f072caf8450fea4aca" target="_top" xlink:title="StateOne::getL">
<polygon fill="none" stroke="black" points="633.5,-38.5 633.5,-57.5 722.5,-57.5 722.5,-38.5 633.5,-38.5"/>
<text text-anchor="middle" x="678" y="-45.5" font-family="Helvetica,sans-Serif" font-size="10.00">StateOne::getL</text>
</a>
</g>
</g>
<!-- Node39&#45;&gt;Node41 -->
<g id="edge7" class="edge"><title>Node39&#45;&gt;Node41</title>
<path fill="none" stroke="midnightblue" d="M558.623,-409.723C567.182,-406.142 575.101,-401.095 581,-394 674.478,-281.574 524.283,-180.054 617,-67 619.148,-64.3809 621.655,-62.1176 624.404,-60.1621"/>
<polygon fill="midnightblue" stroke="midnightblue" points="626.263,-63.1323 633.254,-55.172 622.824,-57.0348 626.263,-63.1323"/>
</g>
<!-- Node42 -->
<g id="node8" class="node"><title>Node42</title>
<g id="a_node8"><a xlink:href="classStateOne.html#aab2b41262381d67893113ed6f5ad18bc" target="_top" xlink:title="StateOne::getM">
<polygon fill="none" stroke="black" points="632,-0.5 632,-19.5 724,-19.5 724,-0.5 632,-0.5"/>
<text text-anchor="middle" x="678" y="-7.5" font-family="Helvetica,sans-Serif" font-size="10.00">StateOne::getM</text>
</a>
</g>
</g>
<!-- Node39&#45;&gt;Node42 -->
<g id="edge8" class="edge"><title>Node39&#45;&gt;Node42</title>
<path fill="none" stroke="midnightblue" d="M558.691,-409.779C567.243,-406.192 575.141,-401.128 581,-394 684.505,-268.068 514.347,-155.627 617,-29 618.716,-26.8834 620.667,-24.9988 622.791,-23.3212"/>
<polygon fill="midnightblue" stroke="midnightblue" points="625.033,-26.0505 631.709,-17.8233 621.36,-20.0918 625.033,-26.0505"/>
</g>
<!-- Node43 -->
<g id="node9" class="node"><title>Node43</title>
<g id="a_node9"><a xlink:href="classStateOne.html#a7deae740570ef5262e7fd2d254a8c530" target="_top" xlink:title="StateOne::getN">
<polygon fill="none" stroke="black" points="632,-446.5 632,-465.5 724,-465.5 724,-446.5 632,-446.5"/>
<text text-anchor="middle" x="678" y="-453.5" font-family="Helvetica,sans-Serif" font-size="10.00">StateOne::getN</text>
</a>
</g>
</g>
<!-- Node39&#45;&gt;Node43 -->
<g id="edge9" class="edge"><title>Node39&#45;&gt;Node43</title>
<path fill="none" stroke="midnightblue" d="M558.965,-430.443C579.575,-434.905 602.726,-439.918 623.029,-444.314"/>
<polygon fill="midnightblue" stroke="midnightblue" points="622.536,-447.788 633.05,-446.484 624.017,-440.947 622.536,-447.788"/>
</g>
<!-- Node44 -->
<g id="node10" class="node"><title>Node44</title>
<g id="a_node10"><a xlink:href="classStateOne.html#a5f4c17ef50eca7f317a55b5e0a572117" target="_top" xlink:title="StateOne::getS">
<polygon fill="none" stroke="black" points="632.5,-408.5 632.5,-427.5 723.5,-427.5 723.5,-408.5 632.5,-408.5"/>
<text text-anchor="middle" x="678" y="-415.5" font-family="Helvetica,sans-Serif" font-size="10.00">StateOne::getS</text>
</a>
</g>
</g>
<!-- Node39&#45;&gt;Node44 -->
<g id="edge10" class="edge"><title>Node39&#45;&gt;Node44</title>
<path fill="none" stroke="midnightblue" d="M558.965,-418C579.311,-418 602.132,-418 622.246,-418"/>
<polygon fill="midnightblue" stroke="midnightblue" points="622.491,-421.5 632.491,-418 622.491,-414.5 622.491,-421.5"/>
</g>
<!-- Node45 -->
<g id="node11" class="node"><title>Node45</title>
<g id="a_node11"><a xlink:href="classStateOne.html#a45b245f5da0068df4ff72093c654da89" target="_top" xlink:title="StateOne::getSpecies">
<polygon fill="none" stroke="black" points="617,-370.5 617,-389.5 739,-389.5 739,-370.5 617,-370.5"/>
<text text-anchor="middle" x="678" y="-377.5" font-family="Helvetica,sans-Serif" font-size="10.00">StateOne::getSpecies</text>
</a>
</g>
</g>
<!-- Node39&#45;&gt;Node45 -->
<g id="edge11" class="edge"><title>Node39&#45;&gt;Node45</title>
<path fill="none" stroke="midnightblue" d="M558.965,-405.557C579.575,-401.095 602.726,-396.082 623.029,-391.686"/>
<polygon fill="midnightblue" stroke="midnightblue" points="624.017,-395.053 633.05,-389.516 622.536,-388.212 624.017,-395.053"/>
</g>
<!-- Node48 -->
<g id="node14" class="node"><title>Node48</title>
<g id="a_node14"><a xlink:href="classsqlite_1_1statement.html#a1b5e34a58010723e10ee31c4d02f7f55" target="_top" xlink:title="Bind a value to a position in the query. ">
<polygon fill="none" stroke="black" points="438,-190.5 438,-209.5 563,-209.5 563,-190.5 438,-190.5"/>
<text text-anchor="middle" x="500.5" y="-197.5" font-family="Helvetica,sans-Serif" font-size="10.00">sqlite::statement::bind</text>
</a>
</g>
</g>
<!-- Node47&#45;&gt;Node48 -->
<g id="edge14" class="edge"><title>Node47&#45;&gt;Node48</title>
<path fill="none" stroke="midnightblue" d="M370.277,-200C389.015,-200 409.054,-200 427.624,-200"/>
<polygon fill="midnightblue" stroke="midnightblue" points="427.771,-203.5 437.771,-200 427.771,-196.5 427.771,-203.5"/>
</g>
<!-- Node49 -->
<g id="node15" class="node"><title>Node49</title>
<g id="a_node15"><a xlink:href="classsqlite_1_1statement.html#add6b491603e9505c82779ad762f72888" target="_top" xlink:title="Execute SQLite statements. ">
<polygon fill="none" stroke="black" points="437,-152.5 437,-171.5 564,-171.5 564,-152.5 437,-152.5"/>
<text text-anchor="middle" x="500.5" y="-159.5" font-family="Helvetica,sans-Serif" font-size="10.00">sqlite::statement::exec</text>
</a>
</g>
</g>
<!-- Node47&#45;&gt;Node49 -->
<g id="edge15" class="edge"><title>Node47&#45;&gt;Node49</title>
<path fill="none" stroke="midnightblue" d="M370.277,-186.012C392.693,-181.847 416.972,-177.335 438.368,-173.359"/>
<polygon fill="midnightblue" stroke="midnightblue" points="439.106,-176.782 448.298,-171.514 437.827,-169.9 439.106,-176.782"/>
</g>
<!-- Node50 -->
<g id="node16" class="node"><title>Node50</title>
<g id="a_node16"><a xlink:href="classsqlite_1_1statement.html#a881b89458af4ea9bde7a80e416f53903" target="_top" xlink:title="Get value of a field. ">
<polygon fill="none" stroke="black" points="440.5,-114.5 440.5,-133.5 560.5,-133.5 560.5,-114.5 440.5,-114.5"/>
<text text-anchor="middle" x="500.5" y="-121.5" font-family="Helvetica,sans-Serif" font-size="10.00">sqlite::statement::get</text>
</a>
</g>
</g>
<!-- Node47&#45;&gt;Node50 -->
<g id="edge16" class="edge"><title>Node47&#45;&gt;Node50</title>
<path fill="none" stroke="midnightblue" d="M348.859,-184.92C360.734,-180.758 373.033,-175.77 384,-170 401.7,-160.688 401.897,-151.502 420,-143 425.266,-140.527 430.885,-138.358 436.608,-136.461"/>
<polygon fill="midnightblue" stroke="midnightblue" points="437.744,-139.774 446.294,-133.516 435.709,-133.076 437.744,-139.774"/>
</g>
<!-- Node51 -->
<g id="node17" class="node"><title>Node51</title>
<g id="a_node17"><a xlink:href="namespaceutils.html#a1ba9020d51335d2ddd62e877803e9e31" target="_top" xlink:title="utils::get_pid">
<polygon fill="none" stroke="black" points="462,-76.5 462,-95.5 539,-95.5 539,-76.5 462,-76.5"/>
<text text-anchor="middle" x="500.5" y="-83.5" font-family="Helvetica,sans-Serif" font-size="10.00">utils::get_pid</text>
</a>
</g>
</g>
<!-- Node47&#45;&gt;Node51 -->
<g id="edge17" class="edge"><title>Node47&#45;&gt;Node51</title>
<path fill="none" stroke="midnightblue" d="M358.871,-184.991C367.901,-181.076 376.611,-176.161 384,-170 409.363,-148.851 393.706,-124.98 420,-105 429.263,-97.961 440.747,-93.4818 452.079,-90.6448"/>
<polygon fill="midnightblue" stroke="midnightblue" points="452.884,-94.0521 461.938,-88.5514 451.43,-87.2047 452.884,-94.0521"/>
</g>
<!-- Node52 -->
<g id="node18" class="node"><title>Node52</title>
<g id="a_node18"><a xlink:href="classsqlite_1_1statement.html#a1b40871fb975892f70ea097f7c6da9c1" target="_top" xlink:title="Prepare the statement. ">
<polygon fill="none" stroke="black" points="448.5,-354 448.5,-384 552.5,-384 552.5,-354 448.5,-354"/>
<text text-anchor="start" x="456.5" y="-372" font-family="Helvetica,sans-Serif" font-size="10.00">sqlite::statement::</text>
<text text-anchor="middle" x="500.5" y="-361" font-family="Helvetica,sans-Serif" font-size="10.00">prepare</text>
</a>
</g>
</g>
<!-- Node47&#45;&gt;Node52 -->
<g id="edge18" class="edge"><title>Node47&#45;&gt;Node52</title>
<path fill="none" stroke="midnightblue" d="M370.084,-214.684C375.156,-217.546 379.879,-220.951 384,-225 423.718,-264.025 380.661,-305.593 420,-345 425.322,-350.331 431.783,-354.486 438.697,-357.723"/>
<polygon fill="midnightblue" stroke="midnightblue" points="437.757,-361.116 448.341,-361.591 440.363,-354.62 437.757,-361.116"/>
</g>
<!-- Node53 -->
<g id="node19" class="node"><title>Node53</title>
<g id="a_node19"><a xlink:href="classsqlite_1_1statement.html#a4feb0002bd8daa77fffef99c0f838f1c" target="_top" xlink:title="Reset the statement. ">
<polygon fill="none" stroke="black" points="448.5,-305 448.5,-335 552.5,-335 552.5,-305 448.5,-305"/>
<text text-anchor="start" x="456.5" y="-323" font-family="Helvetica,sans-Serif" font-size="10.00">sqlite::statement::</text>
<text text-anchor="middle" x="500.5" y="-312" font-family="Helvetica,sans-Serif" font-size="10.00">reset</text>
</a>
</g>
</g>
<!-- Node47&#45;&gt;Node53 -->
<g id="edge19" class="edge"><title>Node47&#45;&gt;Node53</title>
<path fill="none" stroke="midnightblue" d="M368.423,-215.119C373.994,-217.879 379.276,-221.142 384,-225 411.097,-247.129 393.248,-272.456 420,-295 425.553,-299.679 431.984,-303.485 438.735,-306.579"/>
<polygon fill="midnightblue" stroke="midnightblue" points="437.506,-309.857 448.088,-310.373 440.137,-303.37 437.506,-309.857"/>
</g>
<!-- Node47&#45;&gt;Node54 -->
<g id="edge20" class="edge"><title>Node47&#45;&gt;Node54</title>
<path fill="none" stroke="midnightblue" d="M362.544,-184.788C370.44,-180.923 377.855,-176.077 384,-170 418.48,-135.901 384.012,-99.5037 420,-67 421.711,-65.4544 423.526,-64.0284 425.423,-62.7131"/>
<polygon fill="midnightblue" stroke="midnightblue" points="427.31,-65.665 434.213,-57.6276 423.805,-59.6061 427.31,-65.665"/>
</g>
<!-- Node47&#45;&gt;Node55 -->
<g id="edge24" class="edge"><title>Node47&#45;&gt;Node55</title>
<path fill="none" stroke="midnightblue" d="M322.586,-184.855C342.182,-172.832 367.793,-154.355 384,-132 412.464,-92.7392 384.012,-61.5037 420,-29 421.711,-27.4544 423.526,-26.0284 425.423,-24.7131"/>
<polygon fill="midnightblue" stroke="midnightblue" points="427.31,-27.665 434.213,-19.6276 423.805,-21.6061 427.31,-27.665"/>
</g>
<!-- Node56 -->
<g id="node22" class="node"><title>Node56</title>
<g id="a_node22"><a xlink:href="classsqlite_1_1statement.html#aa68ea5317f4837f045502038d0682533" target="_top" xlink:title="Set the query string. ">
<polygon fill="none" stroke="black" points="441,-266.5 441,-285.5 560,-285.5 560,-266.5 441,-266.5"/>
<text text-anchor="middle" x="500.5" y="-273.5" font-family="Helvetica,sans-Serif" font-size="10.00">sqlite::statement::set</text>
</a>
</g>
</g>
<!-- Node47&#45;&gt;Node56 -->
<g id="edge28" class="edge"><title>Node47&#45;&gt;Node56</title>
<path fill="none" stroke="midnightblue" d="M361.463,-215.035C369.273,-217.852 376.959,-221.151 384,-225 402.784,-235.268 401.018,-247.103 420,-257 424.524,-259.359 429.345,-261.43 434.291,-263.247"/>
<polygon fill="midnightblue" stroke="midnightblue" points="433.317,-266.612 443.911,-266.439 435.522,-259.968 433.317,-266.612"/>
</g>
<!-- Node57 -->
<g id="node23" class="node"><title>Node57</title>
<g id="a_node23"><a xlink:href="classsqlite_1_1statement.html#a0ef0c0c1fd66918b9a9c6167fd2e668f" target="_top" xlink:title="Step the statement. ">
<polygon fill="none" stroke="black" points="438,-228.5 438,-247.5 563,-247.5 563,-228.5 438,-228.5"/>
<text text-anchor="middle" x="500.5" y="-235.5" font-family="Helvetica,sans-Serif" font-size="10.00">sqlite::statement::step</text>
</a>
</g>
</g>
<!-- Node47&#45;&gt;Node57 -->
<g id="edge29" class="edge"><title>Node47&#45;&gt;Node57</title>
<path fill="none" stroke="midnightblue" d="M370.277,-213.988C392.693,-218.153 416.972,-222.665 438.368,-226.641"/>
<polygon fill="midnightblue" stroke="midnightblue" points="437.827,-230.1 448.298,-228.486 439.106,-223.218 437.827,-230.1"/>
</g>
<!-- Node54&#45;&gt;Node40 -->
<g id="edge21" class="edge"><title>Node54&#45;&gt;Node40</title>
<path fill="none" stroke="midnightblue" d="M545.786,-57.589C569.794,-62.7872 599.608,-69.2428 624.747,-74.6861"/>
<polygon fill="midnightblue" stroke="midnightblue" points="624.331,-78.1768 634.845,-76.8724 625.812,-71.3354 624.331,-78.1768"/>
</g>
<!-- Node54&#45;&gt;Node41 -->
<g id="edge22" class="edge"><title>Node54&#45;&gt;Node41</title>
<path fill="none" stroke="midnightblue" d="M581.034,-48C595.204,-48 609.661,-48 622.912,-48"/>
<polygon fill="midnightblue" stroke="midnightblue" points="623.251,-51.5001 633.251,-48 623.251,-44.5001 623.251,-51.5001"/>
</g>
<!-- Node54&#45;&gt;Node42 -->
<g id="edge23" class="edge"><title>Node54&#45;&gt;Node42</title>
<path fill="none" stroke="midnightblue" d="M545.786,-38.411C569.258,-33.3287 598.281,-27.0446 623.058,-21.6797"/>
<polygon fill="midnightblue" stroke="midnightblue" points="624,-25.0571 633.032,-19.5201 622.518,-18.2156 624,-25.0571"/>
</g>
<!-- Node55&#45;&gt;Node40 -->
<g id="edge25" class="edge"><title>Node55&#45;&gt;Node40</title>
<path fill="none" stroke="midnightblue" d="M559.067,-19.5297C566.716,-21.9959 574.24,-25.0982 581,-29 601.149,-40.6304 597.283,-54.6512 617,-67 620.342,-69.0934 623.935,-70.9741 627.641,-72.6606"/>
<polygon fill="midnightblue" stroke="midnightblue" points="626.425,-75.9446 637.008,-76.4631 629.058,-69.4587 626.425,-75.9446"/>
</g>
<!-- Node55&#45;&gt;Node41 -->
<g id="edge26" class="edge"><title>Node55&#45;&gt;Node41</title>
<path fill="none" stroke="midnightblue" d="M545.786,-19.589C569.347,-24.6906 598.502,-31.0032 623.341,-36.3815"/>
<polygon fill="midnightblue" stroke="midnightblue" points="622.822,-39.8502 633.336,-38.5457 624.303,-33.0087 622.822,-39.8502"/>
</g>
<!-- Node55&#45;&gt;Node42 -->
<g id="edge27" class="edge"><title>Node55&#45;&gt;Node42</title>
<path fill="none" stroke="midnightblue" d="M574.657,-10C590.399,-10 606.786,-10 621.714,-10"/>
<polygon fill="midnightblue" stroke="midnightblue" points="621.789,-13.5001 631.789,-10 621.789,-6.5001 621.789,-13.5001"/>
</g>
</g>
</svg>
        <g id="navigator" transform="translate(0 0)" fill="#404254">
                <rect fill="#f2f5e9" fill-opacity="0.5" stroke="#606060" stroke-width=".5" x="0" y="0" width="60" height="60"/>
                <use id="zoomplus" xlink:href="#zoomPlus" x="17" y="9" onmousedown="handleZoom(evt,'in')"/>
                <use id="zoomminus" xlink:href="#zoomMin" x="42" y="9" onmousedown="handleZoom(evt,'out')"/>
                <use id="reset" xlink:href="#resetDef" x="30" y="36" onmousedown="handleReset()"/>
                <g id="arrowUp" xlink:href="#dirArrow" transform="translate(30 24)" onmousedown="handlePan(0,-1)">
                  <use xlink:href="#rim" fill="#404040">
                        <set attributeName="fill" to="#808080" begin="arrowUp.mouseover" end="arrowUp.mouseout"/>
                  </use>
                  <path fill="none" stroke="white" stroke-width="1.5" d="M0,-3.0v7 M-2.5,-0.5L0,-3.0L2.5,-0.5"/>
                </g>
                <g id="arrowRight" xlink:href="#dirArrow" transform="rotate(90) translate(36 -43)" onmousedown="handlePan(1,0)">
                  <use xlink:href="#rim" fill="#404040">
                        <set attributeName="fill" to="#808080" begin="arrowRight.mouseover" end="arrowRight.mouseout"/>
                  </use>
                  <path fill="none" stroke="white" stroke-width="1.5" d="M0,-3.0v7 M-2.5,-0.5L0,-3.0L2.5,-0.5"/>
                </g>
                <g id="arrowDown" xlink:href="#dirArrow" transform="rotate(180) translate(-30 -48)" onmousedown="handlePan(0,1)">
                  <use xlink:href="#rim" fill="#404040">
                        <set attributeName="fill" to="#808080" begin="arrowDown.mouseover" end="arrowDown.mouseout"/>
                  </use>
                  <path fill="none" stroke="white" stroke-width="1.5" d="M0,-3.0v7 M-2.5,-0.5L0,-3.0L2.5,-0.5"/>
                </g>
                <g id="arrowLeft" xlink:href="#dirArrow" transform="rotate(270) translate(-36 17)" onmousedown="handlePan(-1,0)">
                  <use xlink:href="#rim" fill="#404040">
                        <set attributeName="fill" to="#808080" begin="arrowLeft.mouseover" end="arrowLeft.mouseout"/>
                  </use>
                  <path fill="none" stroke="white" stroke-width="1.5" d="M0,-3.0v7 M-2.5,-0.5L0,-3.0L2.5,-0.5"/>
                </g>
        </g>
        <svg viewBox="0 0 15 15" width="100%" height="30px" preserveAspectRatio="xMaxYMin meet">
         <g id="arrow_out" transform="scale(0.3 0.3)">
          <a xlink:href="classSystemOne_abf6d26d44765fa787251956c128644a7_cgraph_org.svg" target="_base">
           <rect id="button" ry="5" rx="5" y="6" x="6" height="38" width="38"
                fill="#f2f5e9" fill-opacity="0.5" stroke="#606060" stroke-width="1.0"/>
           <path id="arrow"
             d="M 11.500037,31.436501 C 11.940474,20.09759 22.043105,11.32322 32.158766,21.979434 L 37.068811,17.246167 C 37.068811,17.246167 37.088388,32 37.088388,32 L 22.160133,31.978069 C 22.160133,31.978069 26.997745,27.140456 26.997745,27.140456 C 18.528582,18.264221 13.291696,25.230495 11.500037,31.436501 z"
             style="fill:#404040;"/>
          </a>
         </g>
        </svg>
</svg>
