<?xml version="1.0" encoding="UTF-8" standalone="no"?>
<!DOCTYPE svg PUBLIC "-//W3C//DTD SVG 1.1//EN"
 "http://www.w3.org/Graphics/SVG/1.1/DTD/svg11.dtd">
<!-- Generated by graphviz version 2.38.0 (20140413.2041)
 -->
<!-- Title: StateOne::getL Pages: 1 -->
<svg width="701pt" height="440pt"
 viewBox="0.00 0.00 701.00 439.50" xmlns="http://www.w3.org/2000/svg" xmlns:xlink="http://www.w3.org/1999/xlink">
<g id="graph0" class="graph" transform="scale(1 1) rotate(0) translate(4 435.5)">
<title>StateOne::getL</title>
<!-- Node43 -->
<g id="node1" class="node"><title>Node43</title>
<polygon fill="#bfbfbf" stroke="black" points="0,-199 0,-218 89,-218 89,-199 0,-199"/>
<text text-anchor="middle" x="44.5" y="-206" font-family="Helvetica,sans-Serif" font-size="10.00">StateOne::getL</text>
</g>
<!-- Node44 -->
<g id="node2" class="node"><title>Node44</title>
<g id="a_node2"><a xlink:href="integration__test_8cpp.html#a0edc7e03850724a3784df426b75fb1d2" target="_top" xlink:title="BOOST_FIXTURE_TEST_CASE">
<polygon fill="none" stroke="black" points="128,-412 128,-431 283,-431 283,-412 128,-412"/>
<text text-anchor="middle" x="205.5" y="-419" font-family="Helvetica,sans-Serif" font-size="10.00">BOOST_FIXTURE_TEST_CASE</text>
</a>
</g>
</g>
<!-- Node43&#45;&gt;Node44 -->
<g id="edge1" class="edge"><title>Node43&#45;&gt;Node44</title>
<path fill="none" stroke="midnightblue" d="M47.6919,-228.315C53.147,-267.761 71.0386,-356.284 125,-402.5 129.527,-406.377 134.708,-409.493 140.207,-411.994"/>
<polygon fill="midnightblue" stroke="midnightblue" points="51.1605,-227.846 46.4402,-218.36 44.2152,-228.719 51.1605,-227.846"/>
</g>
<!-- Node45 -->
<g id="node3" class="node"><title>Node45</title>
<g id="a_node3"><a xlink:href="classMatrixElementCache.html#afc9f56a599c9ea24bbfbd4aeb41efbd4" target="_top" xlink:title="MatrixElementCache\l::getElectricMultipole">
<polygon fill="none" stroke="black" points="147.5,-362.5 147.5,-392.5 263.5,-392.5 263.5,-362.5 147.5,-362.5"/>
<text text-anchor="start" x="155.5" y="-380.5" font-family="Helvetica,sans-Serif" font-size="10.00">MatrixElementCache</text>
<text text-anchor="middle" x="205.5" y="-369.5" font-family="Helvetica,sans-Serif" font-size="10.00">::getElectricMultipole</text>
</a>
</g>
</g>
<!-- Node43&#45;&gt;Node45 -->
<g id="edge2" class="edge"><title>Node43&#45;&gt;Node45</title>
<path fill="none" stroke="midnightblue" d="M50.9066,-227.97C60.5558,-259.113 83.7055,-320.022 125,-353.5 131.608,-358.857 139.392,-363.019 147.46,-366.253"/>
<polygon fill="midnightblue" stroke="midnightblue" points="54.2371,-226.89 48.049,-218.29 47.5235,-228.872 54.2371,-226.89"/>
</g>
<!-- Node46 -->
<g id="node4" class="node"><title>Node46</title>
<g id="a_node4"><a xlink:href="classMatrixElementCache.html#aeef0496ad6db911dac50c0625660d9c0" target="_top" xlink:title="MatrixElementCache\l::getMagneticDipole">
<polygon fill="none" stroke="black" points="347.5,-0.5 347.5,-30.5 463.5,-30.5 463.5,-0.5 347.5,-0.5"/>
<text text-anchor="start" x="355.5" y="-18.5" font-family="Helvetica,sans-Serif" font-size="10.00">MatrixElementCache</text>
<text text-anchor="middle" x="405.5" y="-7.5" font-family="Helvetica,sans-Serif" font-size="10.00">::getMagneticDipole</text>
</a>
</g>
</g>
<!-- Node43&#45;&gt;Node46 -->
<g id="edge3" class="edge"><title>Node43&#45;&gt;Node46</title>
<path fill="none" stroke="midnightblue" d="M51.3676,-189.444C61.4338,-160.101 84.8814,-104.247 125,-75.5 134.064,-69.0049 268.197,-42.0501 347.296,-26.5693"/>
<polygon fill="midnightblue" stroke="midnightblue" points="48.0388,-188.363 48.2584,-198.955 54.6923,-190.538 48.0388,-188.363"/>
</g>
<!-- Node48 -->
<g id="node6" class="node"><title>Node48</title>
<g id="a_node6"><a xlink:href="classMatrixElementCache.html#ad624534d20e42d8c4f495b51d6084057" target="_top" xlink:title="MatrixElementCache\l::getRadial">
<polygon fill="none" stroke="black" points="147.5,-313.5 147.5,-343.5 263.5,-343.5 263.5,-313.5 147.5,-313.5"/>
<text text-anchor="start" x="155.5" y="-331.5" font-family="Helvetica,sans-Serif" font-size="10.00">MatrixElementCache</text>
<text text-anchor="middle" x="205.5" y="-320.5" font-family="Helvetica,sans-Serif" font-size="10.00">::getRadial</text>
</a>
</g>
</g>
<!-- Node43&#45;&gt;Node48 -->
<g id="edge5" class="edge"><title>Node43&#45;&gt;Node48</title>
<path fill="none" stroke="midnightblue" d="M57.3524,-226.539C71.3606,-246.6 96.4113,-278.771 125,-298.5 133.621,-304.449 143.574,-309.406 153.459,-313.463"/>
<polygon fill="midnightblue" stroke="midnightblue" points="60.0747,-224.318 51.5575,-218.017 54.2861,-228.254 60.0747,-224.318"/>
</g>
<!-- Node51 -->
<g id="node9" class="node"><title>Node51</title>
<g id="a_node9"><a xlink:href="classStateOne.html#a0b5646c4160083ef4b24460e9159ad2c" target="_top" xlink:title="StateOne::getReflected">
<polygon fill="none" stroke="black" points="141.5,-237 141.5,-256 269.5,-256 269.5,-237 141.5,-237"/>
<text text-anchor="middle" x="205.5" y="-244" font-family="Helvetica,sans-Serif" font-size="10.00">StateOne::getReflected</text>
</a>
</g>
</g>
<!-- Node43&#45;&gt;Node51 -->
<g id="edge8" class="edge"><title>Node43&#45;&gt;Node51</title>
<path fill="none" stroke="midnightblue" d="M95.5766,-220.468C117.858,-225.793 143.729,-231.976 164.666,-236.98"/>
<polygon fill="midnightblue" stroke="midnightblue" points="96.1621,-217.009 85.6224,-218.089 94.5349,-223.818 96.1621,-217.009"/>
</g>
<!-- Node52 -->
<g id="node10" class="node"><title>Node52</title>
<g id="a_node10"><a xlink:href="classSystemOne.html#a4278feede19c90186f22f37c1d5d53b2" target="_top" xlink:title="Method that allows base class to combine systems ///////////////. ">
<polygon fill="none" stroke="black" points="338.5,-262 338.5,-281 472.5,-281 472.5,-262 338.5,-262"/>
<text text-anchor="middle" x="405.5" y="-269" font-family="Helvetica,sans-Serif" font-size="10.00">SystemOne::incorporate</text>
</a>
</g>
</g>
<!-- Node43&#45;&gt;Node52 -->
<g id="edge11" class="edge"><title>Node43&#45;&gt;Node52</title>
<path fill="none" stroke="midnightblue" d="M62.1131,-225.071C77.1139,-238.803 100.531,-257.344 125,-265.5 194.988,-288.829 280.4,-286.57 338.246,-280.885"/>
<polygon fill="midnightblue" stroke="midnightblue" points="64.3563,-222.374 54.692,-218.032 59.5393,-227.453 64.3563,-222.374"/>
</g>
<!-- Node53 -->
<g id="node11" class="node"><title>Node53</title>
<g id="a_node11"><a xlink:href="classSystemTwo.html#a7aa70b668bd55e25ba9ed8f9d037052c" target="_top" xlink:title="Method that allows base class to initialize Basis //////////////. ">
<polygon fill="none" stroke="black" points="335,-220 335,-239 476,-239 476,-220 335,-220"/>
<text text-anchor="middle" x="405.5" y="-227" font-family="Helvetica,sans-Serif" font-size="10.00">SystemTwo::initializeBasis</text>
</a>
</g>
</g>
<!-- Node43&#45;&gt;Node53 -->
<g id="edge12" class="edge"><title>Node43&#45;&gt;Node53</title>
<path fill="none" stroke="midnightblue" d="M99.2373,-211.643C161.936,-215.311 265.781,-221.386 334.675,-225.416"/>
<polygon fill="midnightblue" stroke="midnightblue" points="99.3489,-208.144 89.1615,-211.054 98.9401,-215.132 99.3489,-208.144"/>
</g>
<!-- Node54 -->
<g id="node12" class="node"><title>Node54</title>
<g id="a_node12"><a xlink:href="State_8cpp.html#ae62083584a93c249d0c3b4a6f046fee1" target="_top" xlink:title="operator\&lt;\&lt;">
<polygon fill="none" stroke="black" points="168.5,-123 168.5,-142 242.5,-142 242.5,-123 168.5,-123"/>
<text text-anchor="middle" x="205.5" y="-130" font-family="Helvetica,sans-Serif" font-size="10.00">operator&lt;&lt;</text>
</a>
</g>
</g>
<!-- Node43&#45;&gt;Node54 -->
<g id="edge13" class="edge"><title>Node43&#45;&gt;Node54</title>
<path fill="none" stroke="midnightblue" d="M63.6461,-192.329C78.9815,-179.477 102.058,-161.975 125,-151.5 138.554,-145.311 154.364,-141.003 168.299,-138.074"/>
<polygon fill="midnightblue" stroke="midnightblue" points="61.2805,-189.747 55.9728,-198.917 65.8402,-195.059 61.2805,-189.747"/>
</g>
<!-- Node55 -->
<g id="node13" class="node"><title>Node55</title>
<g id="a_node13"><a xlink:href="MatrixElementCache_8h.html#a15aabd3025cfa0ca9485cd672c0a1a4a" target="_top" xlink:title="selectionRulesMomentumNew">
<polygon fill="none" stroke="black" points="125,-161 125,-180 286,-180 286,-161 125,-161"/>
<text text-anchor="middle" x="205.5" y="-168" font-family="Helvetica,sans-Serif" font-size="10.00">selectionRulesMomentumNew</text>
</a>
</g>
</g>
<!-- Node43&#45;&gt;Node55 -->
<g id="edge14" class="edge"><title>Node43&#45;&gt;Node55</title>
<path fill="none" stroke="midnightblue" d="M95.5766,-196.532C117.858,-191.207 143.729,-185.024 164.666,-180.02"/>
<polygon fill="midnightblue" stroke="midnightblue" points="94.5349,-193.182 85.6224,-198.911 96.1621,-199.991 94.5349,-193.182"/>
</g>
<!-- Node57 -->
<g id="node15" class="node"><title>Node57</title>
<g id="a_node15"><a xlink:href="MatrixElementCache_8h.html#a06a268e07e2a0edb3fca096b8c941c78" target="_top" xlink:title="selectionRulesMultipoleNew">
<polygon fill="none" stroke="black" points="131.5,-85 131.5,-104 279.5,-104 279.5,-85 131.5,-85"/>
<text text-anchor="middle" x="205.5" y="-92" font-family="Helvetica,sans-Serif" font-size="10.00">selectionRulesMultipoleNew</text>
</a>
</g>
</g>
<!-- Node43&#45;&gt;Node57 -->
<g id="edge18" class="edge"><title>Node43&#45;&gt;Node57</title>
<path fill="none" stroke="midnightblue" d="M55.8703,-190.043C69.0651,-168.309 93.9192,-132.74 125,-113.5 131.274,-109.616 138.28,-106.526 145.461,-104.068"/>
<polygon fill="midnightblue" stroke="midnightblue" points="52.6881,-188.55 50.6477,-198.947 58.7261,-192.092 52.6881,-188.55"/>
</g>
<!-- Node59 -->
<g id="node17" class="node"><title>Node59</title>
<g id="a_node17"><a xlink:href="classStateOne.html#a5b05a258a43a682cfe7af5eb57d0221c" target="_top" xlink:title="Implementation of one&#45;atom state ///////////////////////////////. ">
<polygon fill="none" stroke="black" points="148.5,-9 148.5,-28 262.5,-28 262.5,-9 148.5,-9"/>
<text text-anchor="middle" x="205.5" y="-16" font-family="Helvetica,sans-Serif" font-size="10.00">StateOne::StateOne</text>
</a>
</g>
</g>
<!-- Node43&#45;&gt;Node59 -->
<g id="edge22" class="edge"><title>Node43&#45;&gt;Node59</title>
<path fill="none" stroke="midnightblue" d="M49.3868,-189.183C57.3515,-154.614 78.8097,-82.0954 125,-42.5 132.334,-36.2133 141.274,-31.5733 150.478,-28.1488"/>
<polygon fill="midnightblue" stroke="midnightblue" points="45.9604,-188.468 47.2607,-198.983 52.8013,-189.953 45.9604,-188.468"/>
</g>
<!-- Node47 -->
<g id="node5" class="node"><title>Node47</title>
<g id="a_node5"><a xlink:href="classSystemOne.html#abf6d26d44765fa787251956c128644a7" target="_top" xlink:title="Method that allows base class to calculate the interaction /////. ">
<polygon fill="none" stroke="black" points="525,-110 525,-129 693,-129 693,-110 525,-110"/>
<text text-anchor="middle" x="609" y="-117" font-family="Helvetica,sans-Serif" font-size="10.00">SystemOne::initializeInteraction</text>
</a>
</g>
</g>
<!-- Node46&#45;&gt;Node47 -->
<g id="edge4" class="edge"><title>Node46&#45;&gt;Node47</title>
<path fill="none" stroke="midnightblue" d="M473.384,-33.925C478.741,-35.9559 484.007,-38.1486 489,-40.5 531.177,-60.3635 575.584,-93.6577 596.199,-109.944"/>
<polygon fill="midnightblue" stroke="midnightblue" points="474.277,-30.5269 463.682,-30.4447 471.913,-37.1157 474.277,-30.5269"/>
</g>
<!-- Node49 -->
<g id="node7" class="node"><title>Node49</title>
<g id="a_node7"><a xlink:href="classMatrixElementCache.html#aebf63bfd2c9cc016e6c21410b92a4983" target="_top" xlink:title="MatrixElementCache\l::getLeRoyRadius">
<polygon fill="none" stroke="black" points="347.5,-313.5 347.5,-343.5 463.5,-343.5 463.5,-313.5 347.5,-313.5"/>
<text text-anchor="start" x="355.5" y="-331.5" font-family="Helvetica,sans-Serif" font-size="10.00">MatrixElementCache</text>
<text text-anchor="middle" x="405.5" y="-320.5" font-family="Helvetica,sans-Serif" font-size="10.00">::getLeRoyRadius</text>
</a>
</g>
</g>
<!-- Node48&#45;&gt;Node49 -->
<g id="edge6" class="edge"><title>Node48&#45;&gt;Node49</title>
<path fill="none" stroke="midnightblue" d="M273.566,-328.5C297.486,-328.5 324.191,-328.5 347.213,-328.5"/>
<polygon fill="midnightblue" stroke="midnightblue" points="273.504,-325 263.504,-328.5 273.504,-332 273.504,-325"/>
</g>
<!-- Node50 -->
<g id="node8" class="node"><title>Node50</title>
<g id="a_node8"><a xlink:href="classSystemTwo.html#aabf2ba0d13067b81c2f7d1c78368a63e" target="_top" xlink:title="Methods that allows base class to communicate with subclass ////. ">
<polygon fill="none" stroke="black" points="530,-319 530,-338 688,-338 688,-319 530,-319"/>
<text text-anchor="middle" x="609" y="-326" font-family="Helvetica,sans-Serif" font-size="10.00">SystemTwo::onStatesChange</text>
</a>
</g>
</g>
<!-- Node49&#45;&gt;Node50 -->
<g id="edge7" class="edge"><title>Node49&#45;&gt;Node50</title>
<path fill="none" stroke="midnightblue" d="M473.81,-328.5C491.817,-328.5 511.432,-328.5 529.964,-328.5"/>
<polygon fill="midnightblue" stroke="midnightblue" points="473.703,-325 463.703,-328.5 473.703,-332 473.703,-325"/>
</g>
<!-- Node51&#45;&gt;Node52 -->
<g id="edge9" class="edge"><title>Node51&#45;&gt;Node52</title>
<path fill="none" stroke="midnightblue" d="M279.633,-255.734C298.918,-258.169 319.613,-260.782 338.498,-263.166"/>
<polygon fill="midnightblue" stroke="midnightblue" points="280.053,-252.259 269.693,-254.479 279.176,-259.204 280.053,-252.259"/>
</g>
<!-- Node51&#45;&gt;Node53 -->
<g id="edge10" class="edge"><title>Node51&#45;&gt;Node53</title>
<path fill="none" stroke="midnightblue" d="M279.812,-240.206C297.762,-238.664 316.922,-237.019 334.702,-235.493"/>
<polygon fill="midnightblue" stroke="midnightblue" points="279.357,-236.732 269.693,-241.074 279.956,-243.706 279.357,-236.732"/>
</g>
<!-- Node55&#45;&gt;Node47 -->
<g id="edge15" class="edge"><title>Node55&#45;&gt;Node47</title>
<path fill="none" stroke="midnightblue" d="M296.383,-177.429C352.324,-179.727 425.467,-179.059 489,-166.5 526.263,-159.134 566.84,-140.638 589.679,-129.168"/>
<polygon fill="midnightblue" stroke="midnightblue" points="296.292,-173.922 286.144,-176.968 295.976,-180.915 296.292,-173.922"/>
</g>
<!-- Node56 -->
<g id="node14" class="node"><title>Node56</title>
<g id="a_node14"><a xlink:href="classMatrixElementCache.html#a41efbe3c4a7e3e5f2ed2c807a0b3178e" target="_top" xlink:title="MatrixElementCache\l::precalculateDiamagnetism">
<polygon fill="none" stroke="black" points="329.5,-126.5 329.5,-156.5 481.5,-156.5 481.5,-126.5 329.5,-126.5"/>
<text text-anchor="start" x="337.5" y="-144.5" font-family="Helvetica,sans-Serif" font-size="10.00">MatrixElementCache</text>
<text text-anchor="middle" x="405.5" y="-133.5" font-family="Helvetica,sans-Serif" font-size="10.00">::precalculateDiamagnetism</text>
</a>
</g>
</g>
<!-- Node55&#45;&gt;Node56 -->
<g id="edge16" class="edge"><title>Node55&#45;&gt;Node56</title>
<path fill="none" stroke="midnightblue" d="M281.727,-159.482C297.339,-157.195 313.788,-154.786 329.395,-152.5"/>
<polygon fill="midnightblue" stroke="midnightblue" points="280.994,-156.052 271.607,-160.964 282.009,-162.978 280.994,-156.052"/>
</g>
<!-- Node56&#45;&gt;Node47 -->
<g id="edge17" class="edge"><title>Node56&#45;&gt;Node47</title>
<path fill="none" stroke="midnightblue" d="M491.547,-132.214C502.549,-131.013 513.807,-129.784 524.779,-128.586"/>
<polygon fill="midnightblue" stroke="midnightblue" points="491.092,-128.743 481.531,-133.308 491.852,-135.702 491.092,-128.743"/>
</g>
<!-- Node57&#45;&gt;Node47 -->
<g id="edge20" class="edge"><title>Node57&#45;&gt;Node47</title>
<path fill="none" stroke="midnightblue" d="M290.052,-99.7025C358.944,-103.992 456.174,-110.046 524.933,-114.328"/>
<polygon fill="midnightblue" stroke="midnightblue" points="289.873,-96.1846 279.674,-99.0563 289.438,-103.171 289.873,-96.1846"/>
</g>
<!-- Node57&#45;&gt;Node56 -->
<g id="edge21" class="edge"><title>Node57&#45;&gt;Node56</title>
<path fill="none" stroke="midnightblue" d="M256.461,-106.359C282.145,-112.456 313.72,-119.951 341.103,-126.451"/>
<polygon fill="midnightblue" stroke="midnightblue" points="257.106,-102.915 246.568,-104.011 255.49,-109.726 257.106,-102.915"/>
</g>
<!-- Node58 -->
<g id="node16" class="node"><title>Node58</title>
<g id="a_node16"><a xlink:href="classSystemTwo.html#a5cc89c42ab8066027b0c375b818c8333" target="_top" xlink:title="Method that allows base class to calculate the interaction /////. ">
<polygon fill="none" stroke="black" points="322,-50 322,-69 489,-69 489,-50 322,-50"/>
<text text-anchor="middle" x="405.5" y="-57" font-family="Helvetica,sans-Serif" font-size="10.00">SystemTwo::initializeInteraction</text>
</a>
</g>
</g>
<!-- Node57&#45;&gt;Node58 -->
<g id="edge19" class="edge"><title>Node57&#45;&gt;Node58</title>
<path fill="none" stroke="midnightblue" d="M270.44,-83.1974C296.333,-78.6204 325.901,-73.3938 350.668,-69.0158"/>
<polygon fill="midnightblue" stroke="midnightblue" points="269.581,-79.795 260.343,-84.9823 270.799,-86.6881 269.581,-79.795"/>
</g>
</g>
</svg>
