<?xml version="1.0" encoding="UTF-8" standalone="no"?>
<!DOCTYPE svg PUBLIC "-//W3C//DTD SVG 1.1//EN"
 "http://www.w3.org/Graphics/SVG/1.1/DTD/svg11.dtd">
<!-- Generated by graphviz version 2.38.0 (20140413.2041)
 -->
<!-- Title: MatrixElementCache::getRadial Pages: 1 -->
<svg width="282pt" height="142pt"
 viewBox="0.00 0.00 282.00 142.00" xmlns="http://www.w3.org/2000/svg" xmlns:xlink="http://www.w3.org/1999/xlink">
<g id="graph0" class="graph" transform="scale(1 1) rotate(0) translate(4 138)">
<title>MatrixElementCache::getRadial</title>
<!-- Node51 -->
<g id="node1" class="node"><title>Node51</title>
<polygon fill="#bfbfbf" stroke="black" points="0,-52 0,-82 116,-82 116,-52 0,-52"/>
<text text-anchor="start" x="8" y="-70" font-family="Helvetica,sans-Serif" font-size="10.00">MatrixElementCache</text>
<text text-anchor="middle" x="58" y="-59" font-family="Helvetica,sans-Serif" font-size="10.00">::getRadial</text>
</g>
<!-- Node52 -->
<g id="node2" class="node"><title>Node52</title>
<g id="a_node2"><a xlink:href="classStateOne.html#aedba5bfce70f73fa324b9d5ae1115578" target="_top" xlink:title="StateOne::getJ">
<polygon fill="none" stroke="black" points="170,-114.5 170,-133.5 256,-133.5 256,-114.5 170,-114.5"/>
<text text-anchor="middle" x="213" y="-121.5" font-family="Helvetica,sans-Serif" font-size="10.00">StateOne::getJ</text>
</a>
</g>
</g>
<!-- Node51&#45;&gt;Node52 -->
<g id="edge1" class="edge"><title>Node51&#45;&gt;Node52</title>
<path fill="none" stroke="midnightblue" d="M94.0674,-82.1155C111.377,-89.3744 132.648,-97.9952 152,-105 157.933,-107.148 164.243,-109.293 170.457,-111.328"/>
<polygon fill="midnightblue" stroke="midnightblue" points="169.485,-114.692 180.076,-114.42 171.627,-108.028 169.485,-114.692"/>
</g>
<!-- Node53 -->
<g id="node3" class="node"><title>Node53</title>
<g id="a_node3"><a xlink:href="classStateOne.html#a3783cebe5bbd63f072caf8450fea4aca" target="_top" xlink:title="StateOne::getL">
<polygon fill="none" stroke="black" points="168.5,-76.5 168.5,-95.5 257.5,-95.5 257.5,-76.5 168.5,-76.5"/>
<text text-anchor="middle" x="213" y="-83.5" font-family="Helvetica,sans-Serif" font-size="10.00">StateOne::getL</text>
</a>
</g>
</g>
<!-- Node51&#45;&gt;Node53 -->
<g id="edge2" class="edge"><title>Node51&#45;&gt;Node53</title>
<path fill="none" stroke="midnightblue" d="M116.407,-74.129C130.056,-75.8239 144.571,-77.6265 158.059,-79.3015"/>
<polygon fill="midnightblue" stroke="midnightblue" points="157.787,-82.7944 168.142,-80.5536 158.65,-75.8478 157.787,-82.7944"/>
</g>
<!-- Node54 -->
<g id="node4" class="node"><title>Node54</title>
<g id="a_node4"><a xlink:href="classStateOne.html#a7deae740570ef5262e7fd2d254a8c530" target="_top" xlink:title="StateOne::getN">
<polygon fill="none" stroke="black" points="167,-38.5 167,-57.5 259,-57.5 259,-38.5 167,-38.5"/>
<text text-anchor="middle" x="213" y="-45.5" font-family="Helvetica,sans-Serif" font-size="10.00">StateOne::getN</text>
</a>
</g>
</g>
<!-- Node51&#45;&gt;Node54 -->
<g id="edge3" class="edge"><title>Node51&#45;&gt;Node54</title>
<path fill="none" stroke="midnightblue" d="M116.407,-59.871C129.521,-58.2425 143.434,-56.5147 156.468,-54.8961"/>
<polygon fill="midnightblue" stroke="midnightblue" points="157.207,-58.3313 166.7,-53.6255 156.345,-51.3846 157.207,-58.3313"/>
</g>
<!-- Node55 -->
<g id="node5" class="node"><title>Node55</title>
<g id="a_node5"><a xlink:href="classStateOne.html#a45b245f5da0068df4ff72093c654da89" target="_top" xlink:title="StateOne::getSpecies">
<polygon fill="none" stroke="black" points="152,-0.5 152,-19.5 274,-19.5 274,-0.5 152,-0.5"/>
<text text-anchor="middle" x="213" y="-7.5" font-family="Helvetica,sans-Serif" font-size="10.00">StateOne::getSpecies</text>
</a>
</g>
</g>
<!-- Node51&#45;&gt;Node55 -->
<g id="edge4" class="edge"><title>Node51&#45;&gt;Node55</title>
<path fill="none" stroke="midnightblue" d="M94.0674,-51.8845C111.377,-44.6256 132.648,-36.0048 152,-29 157.933,-26.8524 164.243,-24.7068 170.457,-22.6717"/>
<polygon fill="midnightblue" stroke="midnightblue" points="171.627,-25.9721 180.076,-19.58 169.485,-19.3079 171.627,-25.9721"/>
</g>
</g>
</svg>
