<?xml version="1.0" encoding="UTF-8" standalone="no"?>
<!DOCTYPE svg PUBLIC "-//W3C//DTD SVG 1.1//EN"
 "http://www.w3.org/Graphics/SVG/1.1/DTD/svg11.dtd">
<!-- Generated by graphviz version 2.38.0 (20140413.2041)
 -->
<!-- Title: HamiltonianTwo::HamiltonianTwo Pages: 1 -->
<svg width="1031pt" height="801pt"
 viewBox="0.00 0.00 1031.00 800.50" xmlns="http://www.w3.org/2000/svg" xmlns:xlink="http://www.w3.org/1999/xlink">
<g id="graph0" class="graph" transform="scale(1 1) rotate(0) translate(4 796.5)">
<title>HamiltonianTwo::HamiltonianTwo</title>
<!-- Node0 -->
<g id="node1" class="node"><title>Node0</title>
<polygon fill="#bfbfbf" stroke="black" points="0,-417 0,-436 174,-436 174,-417 0,-417"/>
<text text-anchor="middle" x="87" y="-424" font-family="Helvetica,sans-Serif" font-size="10.00">HamiltonianTwo::HamiltonianTwo</text>
</g>
<!-- Node1 -->
<g id="node2" class="node"><title>Node1</title>
<g id="a_node2"><a xlink:href="classHamiltonianTwo.html#a6ca0a318f25170b69e571a07064a5afb" target="_top" xlink:title="HamiltonianTwo::calculate">
<polygon fill="none" stroke="black" points="210,-417 210,-436 351,-436 351,-417 210,-417"/>
<text text-anchor="middle" x="280.5" y="-424" font-family="Helvetica,sans-Serif" font-size="10.00">HamiltonianTwo::calculate</text>
</a>
</g>
</g>
<!-- Node0&#45;&gt;Node1 -->
<g id="edge1" class="edge"><title>Node0&#45;&gt;Node1</title>
<path fill="none" stroke="midnightblue" d="M174.226,-426.5C182.696,-426.5 191.266,-426.5 199.667,-426.5"/>
<polygon fill="midnightblue" stroke="midnightblue" points="199.814,-430 209.814,-426.5 199.814,-423 199.814,-430"/>
</g>
<!-- Node2 -->
<g id="node3" class="node"><title>Node2</title>
<g id="a_node3"><a xlink:href="classStateTwoOld.html#aad5fb4307dec316a5b602c2e8bfae0a8" target="_top" xlink:title="StateTwoOld::first">
<polygon fill="none" stroke="black" points="424.5,-773 424.5,-792 525.5,-792 525.5,-773 424.5,-773"/>
<text text-anchor="middle" x="475" y="-780" font-family="Helvetica,sans-Serif" font-size="10.00">StateTwoOld::first</text>
</a>
</g>
</g>
<!-- Node1&#45;&gt;Node2 -->
<g id="edge2" class="edge"><title>Node1&#45;&gt;Node2</title>
<path fill="none" stroke="midnightblue" d="M281.29,-436.031C280.861,-480.619 285.248,-670.365 387,-763.5 394.692,-770.54 404.369,-775.19 414.452,-778.219"/>
<polygon fill="midnightblue" stroke="midnightblue" points="413.642,-781.624 424.192,-780.653 415.339,-774.833 413.642,-781.624"/>
</g>
<!-- Node3 -->
<g id="node4" class="node"><title>Node3</title>
<g id="a_node4"><a xlink:href="classStateTwoOld.html#a6efa9c8f92e433004b778f6f5ce212d9" target="_top" xlink:title="StateTwoOld::second">
<polygon fill="none" stroke="black" points="416.5,-735 416.5,-754 533.5,-754 533.5,-735 416.5,-735"/>
<text text-anchor="middle" x="475" y="-742" font-family="Helvetica,sans-Serif" font-size="10.00">StateTwoOld::second</text>
</a>
</g>
</g>
<!-- Node1&#45;&gt;Node3 -->
<g id="edge3" class="edge"><title>Node1&#45;&gt;Node3</title>
<path fill="none" stroke="midnightblue" d="M281.902,-436.071C284.15,-476.938 298.528,-638.456 387,-720.5 392.735,-725.819 399.542,-729.976 406.785,-733.222"/>
<polygon fill="midnightblue" stroke="midnightblue" points="405.555,-736.499 416.144,-736.865 408.095,-729.976 405.555,-736.499"/>
</g>
<!-- Node4 -->
<g id="node5" class="node"><title>Node4</title>
<g id="a_node5"><a xlink:href="Hamiltonianmatrix_8cpp.html#a678b50f9b12e7a3fa69970554dd5d206" target="_top" xlink:title="energycutoff">
<polygon fill="none" stroke="black" points="436.5,-609 436.5,-628 513.5,-628 513.5,-609 436.5,-609"/>
<text text-anchor="middle" x="475" y="-616" font-family="Helvetica,sans-Serif" font-size="10.00">energycutoff</text>
</a>
</g>
</g>
<!-- Node1&#45;&gt;Node4 -->
<g id="edge4" class="edge"><title>Node1&#45;&gt;Node4</title>
<path fill="none" stroke="midnightblue" d="M284.396,-436.24C293.77,-465.981 326.262,-556.221 387,-599.5 398.338,-607.579 412.463,-612.325 426.013,-615.083"/>
<polygon fill="midnightblue" stroke="midnightblue" points="425.76,-618.591 436.207,-616.828 426.94,-611.691 425.76,-618.591"/>
</g>
<!-- Node5 -->
<g id="node6" class="node"><title>Node5</title>
<g id="a_node6"><a xlink:href="classHamiltonianmatrix.html#ab0f42b034579983088548dd6dd4e1e78" target="_top" xlink:title="Hamiltonianmatrix::\lbasis">
<polygon fill="none" stroke="black" points="606,-689.5 606,-719.5 717,-719.5 717,-689.5 606,-689.5"/>
<text text-anchor="start" x="614" y="-707.5" font-family="Helvetica,sans-Serif" font-size="10.00">Hamiltonianmatrix::</text>
<text text-anchor="middle" x="661.5" y="-696.5" font-family="Helvetica,sans-Serif" font-size="10.00">basis</text>
</a>
</g>
</g>
<!-- Node1&#45;&gt;Node5 -->
<g id="edge35" class="edge"><title>Node1&#45;&gt;Node5</title>
<path fill="none" stroke="midnightblue" d="M281.963,-436.261C284.413,-475.723 299.366,-624.358 387,-687.5 447.296,-730.945 535.844,-727.699 595.714,-718.568"/>
<polygon fill="midnightblue" stroke="midnightblue" points="596.495,-721.987 605.806,-716.932 595.374,-715.077 596.495,-721.987"/>
</g>
<!-- Node8 -->
<g id="node9" class="node"><title>Node8</title>
<g id="a_node9"><a xlink:href="classBasisnamesOne.html#a37fe3571090885a8a594eed4019befa9" target="_top" xlink:title="BasisnamesOne::fromFirst">
<polygon fill="none" stroke="black" points="403.5,-395 403.5,-414 546.5,-414 546.5,-395 403.5,-395"/>
<text text-anchor="middle" x="475" y="-402" font-family="Helvetica,sans-Serif" font-size="10.00">BasisnamesOne::fromFirst</text>
</a>
</g>
</g>
<!-- Node1&#45;&gt;Node8 -->
<g id="edge8" class="edge"><title>Node1&#45;&gt;Node8</title>
<path fill="none" stroke="midnightblue" d="M351.269,-418.526C364.949,-416.963 379.403,-415.311 393.403,-413.711"/>
<polygon fill="midnightblue" stroke="midnightblue" points="393.962,-417.17 403.5,-412.557 393.167,-410.215 393.962,-417.17"/>
</g>
<!-- Node10 -->
<g id="node11" class="node"><title>Node10</title>
<g id="a_node11"><a xlink:href="classBasisnamesOne.html#a683ae34cba3c56f9a0185e932de62078" target="_top" xlink:title="BasisnamesOne::fromSecond">
<polygon fill="none" stroke="black" points="395.5,-357 395.5,-376 554.5,-376 554.5,-357 395.5,-357"/>
<text text-anchor="middle" x="475" y="-364" font-family="Helvetica,sans-Serif" font-size="10.00">BasisnamesOne::fromSecond</text>
</a>
</g>
</g>
<!-- Node1&#45;&gt;Node10 -->
<g id="edge10" class="edge"><title>Node1&#45;&gt;Node10</title>
<path fill="none" stroke="midnightblue" d="M303.378,-416.843C324.474,-407.809 357.462,-394.406 387,-385.5 395.696,-382.878 404.983,-380.459 414.131,-378.287"/>
<polygon fill="midnightblue" stroke="midnightblue" points="415.005,-381.678 423.969,-376.031 413.44,-374.855 415.005,-381.678"/>
</g>
<!-- Node11 -->
<g id="node12" class="node"><title>Node11</title>
<g id="a_node12"><a xlink:href="classMatrixElements.html#a9c1a327dedbd617cae43dbcff1685a43" target="_top" xlink:title="MatrixElements::precalculate\lMultipole">
<polygon fill="none" stroke="black" points="397.5,-307.5 397.5,-337.5 552.5,-337.5 552.5,-307.5 397.5,-307.5"/>
<text text-anchor="start" x="405.5" y="-325.5" font-family="Helvetica,sans-Serif" font-size="10.00">MatrixElements::precalculate</text>
<text text-anchor="middle" x="475" y="-314.5" font-family="Helvetica,sans-Serif" font-size="10.00">Multipole</text>
</a>
</g>
</g>
<!-- Node1&#45;&gt;Node11 -->
<g id="edge12" class="edge"><title>Node1&#45;&gt;Node11</title>
<path fill="none" stroke="midnightblue" d="M291.723,-416.792C309.638,-400.277 348.478,-366.647 387,-347.5 391.631,-345.198 396.509,-343.075 401.493,-341.123"/>
<polygon fill="midnightblue" stroke="midnightblue" points="402.988,-344.303 411.175,-337.577 400.581,-337.73 402.988,-344.303"/>
</g>
<!-- Node12 -->
<g id="node13" class="node"><title>Node12</title>
<g id="a_node13"><a xlink:href="MatrixElements_8cpp.html#a8091d5442eeac91702ef15b470e70798" target="_top" xlink:title="selectionRulesMultipole">
<polygon fill="none" stroke="black" points="411,-269 411,-288 539,-288 539,-269 411,-269"/>
<text text-anchor="middle" x="475" y="-276" font-family="Helvetica,sans-Serif" font-size="10.00">selectionRulesMultipole</text>
</a>
</g>
</g>
<!-- Node1&#45;&gt;Node12 -->
<g id="edge13" class="edge"><title>Node1&#45;&gt;Node12</title>
<path fill="none" stroke="midnightblue" d="M286.373,-416.873C299.204,-392.576 336.441,-328.508 387,-297.5 391.417,-294.791 396.169,-292.466 401.092,-290.47"/>
<polygon fill="midnightblue" stroke="midnightblue" points="402.49,-293.687 410.727,-287.024 400.132,-287.096 402.49,-293.687"/>
</g>
<!-- Node13 -->
<g id="node14" class="node"><title>Node13</title>
<g id="a_node14"><a xlink:href="classMatrixElements.html#a6b21945229b04895c8a2e896454df444" target="_top" xlink:title="MatrixElements::getMultipole">
<polygon fill="none" stroke="black" points="397.5,-231 397.5,-250 552.5,-250 552.5,-231 397.5,-231"/>
<text text-anchor="middle" x="475" y="-238" font-family="Helvetica,sans-Serif" font-size="10.00">MatrixElements::getMultipole</text>
</a>
</g>
</g>
<!-- Node1&#45;&gt;Node13 -->
<g id="edge14" class="edge"><title>Node1&#45;&gt;Node13</title>
<path fill="none" stroke="midnightblue" d="M284.64,-416.683C294.496,-387.547 327.74,-301.023 387,-259.5 389.722,-257.593 392.601,-255.872 395.59,-254.319"/>
<polygon fill="midnightblue" stroke="midnightblue" points="397.166,-257.448 404.846,-250.149 394.291,-251.066 397.166,-257.448"/>
</g>
<!-- Node14 -->
<g id="node15" class="node"><title>Node14</title>
<g id="a_node15"><a xlink:href="Hamiltonianmatrix_8cpp.html#ae139c21d132020dde7c86db8efc751e1" target="_top" xlink:title="combine">
<polygon fill="none" stroke="black" points="446,-521 446,-540 504,-540 504,-521 446,-521"/>
<text text-anchor="middle" x="475" y="-528" font-family="Helvetica,sans-Serif" font-size="10.00">combine</text>
</a>
</g>
</g>
<!-- Node1&#45;&gt;Node14 -->
<g id="edge15" class="edge"><title>Node1&#45;&gt;Node14</title>
<path fill="none" stroke="midnightblue" d="M291.393,-436.116C309.109,-452.821 348.052,-487.253 387,-506.5 402.325,-514.073 420.39,-519.551 436.075,-523.343"/>
<polygon fill="midnightblue" stroke="midnightblue" points="435.459,-526.792 445.986,-525.597 437.011,-519.966 435.459,-526.792"/>
</g>
<!-- Node18 -->
<g id="node19" class="node"><title>Node18</title>
<g id="a_node19"><a xlink:href="classHamiltonianmatrix.html#a4069febf25da1723d9cc8e27cd2cd669" target="_top" xlink:title="Hamiltonianmatrix::\lnum_basisvectors">
<polygon fill="none" stroke="black" points="606,-395.5 606,-425.5 717,-425.5 717,-395.5 606,-395.5"/>
<text text-anchor="start" x="614" y="-413.5" font-family="Helvetica,sans-Serif" font-size="10.00">Hamiltonianmatrix::</text>
<text text-anchor="middle" x="661.5" y="-402.5" font-family="Helvetica,sans-Serif" font-size="10.00">num_basisvectors</text>
</a>
</g>
</g>
<!-- Node1&#45;&gt;Node18 -->
<g id="edge36" class="edge"><title>Node1&#45;&gt;Node18</title>
<path fill="none" stroke="midnightblue" d="M297.606,-436.039C317.716,-447.344 353.551,-465.525 387,-472.5 463.575,-488.468 491.143,-503.408 563,-472.5 584.371,-463.308 579.698,-447.487 599,-434.5 601.241,-432.992 603.59,-431.559 606.009,-430.199"/>
<polygon fill="midnightblue" stroke="midnightblue" points="607.696,-433.267 615.002,-425.594 604.506,-427.037 607.696,-433.267"/>
</g>
<!-- Node19 -->
<g id="node20" class="node"><title>Node19</title>
<g id="a_node20"><a xlink:href="classsqlite_1_1statement.html#a1b40871fb975892f70ea097f7c6da9c1" target="_top" xlink:title="Prepare the statement. ">
<polygon fill="none" stroke="black" points="423,-181.5 423,-211.5 527,-211.5 527,-181.5 423,-181.5"/>
<text text-anchor="start" x="431" y="-199.5" font-family="Helvetica,sans-Serif" font-size="10.00">sqlite::statement::</text>
<text text-anchor="middle" x="475" y="-188.5" font-family="Helvetica,sans-Serif" font-size="10.00">prepare</text>
</a>
</g>
</g>
<!-- Node1&#45;&gt;Node19 -->
<g id="edge23" class="edge"><title>Node1&#45;&gt;Node19</title>
<path fill="none" stroke="midnightblue" d="M283.634,-416.613C291.286,-383.591 320.501,-276.124 387,-221.5 394.651,-215.216 403.805,-210.51 413.259,-206.988"/>
<polygon fill="midnightblue" stroke="midnightblue" points="414.372,-210.306 422.768,-203.844 412.175,-203.66 414.372,-210.306"/>
</g>
<!-- Node20 -->
<g id="node21" class="node"><title>Node20</title>
<g id="a_node21"><a xlink:href="classConfiguration.html#a545d28b3d64edc05331ee71898acfd1c" target="_top" xlink:title="Load configuration from JSON file. ">
<polygon fill="none" stroke="black" points="421.5,-132.5 421.5,-162.5 528.5,-162.5 528.5,-132.5 421.5,-132.5"/>
<text text-anchor="start" x="429.5" y="-150.5" font-family="Helvetica,sans-Serif" font-size="10.00">Configuration::load</text>
<text text-anchor="middle" x="475" y="-139.5" font-family="Helvetica,sans-Serif" font-size="10.00">_from_json</text>
</a>
</g>
</g>
<!-- Node1&#45;&gt;Node20 -->
<g id="edge24" class="edge"><title>Node1&#45;&gt;Node20</title>
<path fill="none" stroke="midnightblue" d="M282.487,-416.931C286.874,-379.456 308.025,-241.304 387,-171.5 394.145,-165.185 402.809,-160.516 411.867,-157.067"/>
<polygon fill="midnightblue" stroke="midnightblue" points="413.017,-160.374 421.402,-153.898 410.809,-153.731 413.017,-160.374"/>
</g>
<!-- Node21 -->
<g id="node22" class="node"><title>Node21</title>
<g id="a_node22"><a xlink:href="classHamiltonianmatrix.html#ab5561740a111d0e9dc53c865009176a5" target="_top" xlink:title="Hamiltonianmatrix::load">
<polygon fill="none" stroke="black" points="409.5,-94 409.5,-113 540.5,-113 540.5,-94 409.5,-94"/>
<text text-anchor="middle" x="475" y="-101" font-family="Helvetica,sans-Serif" font-size="10.00">Hamiltonianmatrix::load</text>
</a>
</g>
</g>
<!-- Node1&#45;&gt;Node21 -->
<g id="edge25" class="edge"><title>Node1&#45;&gt;Node21</title>
<path fill="none" stroke="midnightblue" d="M281.662,-416.77C282.924,-374.497 293.825,-205.196 387,-122.5 390.875,-119.06 395.227,-116.196 399.864,-113.815"/>
<polygon fill="midnightblue" stroke="midnightblue" points="401.308,-117.004 409.083,-109.807 398.517,-110.584 401.308,-117.004"/>
</g>
<!-- Node25 -->
<g id="node26" class="node"><title>Node25</title>
<g id="a_node26"><a xlink:href="classHamiltonianmatrix.html#a2ff416efff07de6e3df93948c2688989" target="_top" xlink:title="Hamiltonianmatrix::\lremoveUnnecessaryBasisvectors">
<polygon fill="none" stroke="black" points="387,-433.5 387,-463.5 563,-463.5 563,-433.5 387,-433.5"/>
<text text-anchor="start" x="395" y="-451.5" font-family="Helvetica,sans-Serif" font-size="10.00">Hamiltonianmatrix::</text>
<text text-anchor="middle" x="475" y="-440.5" font-family="Helvetica,sans-Serif" font-size="10.00">removeUnnecessaryBasisvectors</text>
</a>
</g>
</g>
<!-- Node1&#45;&gt;Node25 -->
<g id="edge29" class="edge"><title>Node1&#45;&gt;Node25</title>
<path fill="none" stroke="midnightblue" d="M351.269,-434.474C359.544,-435.419 368.102,-436.397 376.672,-437.377"/>
<polygon fill="midnightblue" stroke="midnightblue" points="376.388,-440.867 386.721,-438.525 377.183,-433.912 376.388,-440.867"/>
</g>
<!-- Node26 -->
<g id="node27" class="node"><title>Node26</title>
<g id="a_node27"><a xlink:href="classHamiltonianmatrix.html#a310f8a7bc796d0b431928b82f2d11285" target="_top" xlink:title="Hamiltonianmatrix::\lchangeBasis">
<polygon fill="none" stroke="black" points="419.5,-647.5 419.5,-677.5 530.5,-677.5 530.5,-647.5 419.5,-647.5"/>
<text text-anchor="start" x="427.5" y="-665.5" font-family="Helvetica,sans-Serif" font-size="10.00">Hamiltonianmatrix::</text>
<text text-anchor="middle" x="475" y="-654.5" font-family="Helvetica,sans-Serif" font-size="10.00">changeBasis</text>
</a>
</g>
</g>
<!-- Node1&#45;&gt;Node26 -->
<g id="edge31" class="edge"><title>Node1&#45;&gt;Node26</title>
<path fill="none" stroke="midnightblue" d="M283.439,-436.203C290.633,-469.615 318.969,-580.952 387,-637.5 393.602,-642.987 401.347,-647.271 409.448,-650.615"/>
<polygon fill="midnightblue" stroke="midnightblue" points="408.479,-653.988 419.073,-654.125 410.877,-647.411 408.479,-653.988"/>
</g>
<!-- Node28 -->
<g id="node29" class="node"><title>Node28</title>
<g id="a_node29"><a xlink:href="classHamiltonianmatrix.html#a1db6d20a1d88ef89f1acdad819af34ee" target="_top" xlink:title="Hamiltonianmatrix::\ldiagonalize">
<polygon fill="none" stroke="black" points="419.5,-559.5 419.5,-589.5 530.5,-589.5 530.5,-559.5 419.5,-559.5"/>
<text text-anchor="start" x="427.5" y="-577.5" font-family="Helvetica,sans-Serif" font-size="10.00">Hamiltonianmatrix::</text>
<text text-anchor="middle" x="475" y="-566.5" font-family="Helvetica,sans-Serif" font-size="10.00">diagonalize</text>
</a>
</g>
</g>
<!-- Node1&#45;&gt;Node28 -->
<g id="edge37" class="edge"><title>Node1&#45;&gt;Node28</title>
<path fill="none" stroke="midnightblue" d="M287.014,-436.165C300.764,-459.38 338.944,-518.642 387,-549.5 394.033,-554.016 401.9,-557.735 409.949,-560.793"/>
<polygon fill="midnightblue" stroke="midnightblue" points="408.849,-564.116 419.444,-564.087 411.143,-557.503 408.849,-564.116"/>
</g>
<!-- Node29 -->
<g id="node30" class="node"><title>Node29</title>
<g id="a_node30"><a xlink:href="classHamiltonianmatrix.html#a9e77fcca733a19f250dd619799edc9e6" target="_top" xlink:title="Hamiltonianmatrix::save">
<polygon fill="none" stroke="black" points="408,-53 408,-72 542,-72 542,-53 408,-53"/>
<text text-anchor="middle" x="475" y="-60" font-family="Helvetica,sans-Serif" font-size="10.00">Hamiltonianmatrix::save</text>
</a>
</g>
</g>
<!-- Node1&#45;&gt;Node29 -->
<g id="edge41" class="edge"><title>Node1&#45;&gt;Node29</title>
<path fill="none" stroke="midnightblue" d="M281.307,-416.905C280.953,-372.004 285.628,-180.778 387,-84.5 390.555,-81.1237 394.55,-78.2451 398.825,-75.7928"/>
<polygon fill="midnightblue" stroke="midnightblue" points="400.493,-78.8732 407.937,-71.3349 397.416,-72.5853 400.493,-78.8732"/>
</g>
<!-- Node4&#45;&gt;Node5 -->
<g id="edge5" class="edge"><title>Node4&#45;&gt;Node5</title>
<path fill="none" stroke="midnightblue" d="M513.516,-621.837C529.64,-624.564 548.148,-629.515 563,-638.5 584.036,-651.226 578.949,-666.273 599,-680.5 601.086,-681.98 603.275,-683.384 605.534,-684.715"/>
<polygon fill="midnightblue" stroke="midnightblue" points="604.047,-687.888 614.521,-689.485 607.329,-681.705 604.047,-687.888"/>
</g>
<!-- Node6 -->
<g id="node7" class="node"><title>Node6</title>
<g id="a_node7"><a xlink:href="classHamiltonianmatrix.html#a9a6919d68a5f490c249adaaffd46fe75" target="_top" xlink:title="Hamiltonianmatrix::\lentries">
<polygon fill="none" stroke="black" points="606,-640.5 606,-670.5 717,-670.5 717,-640.5 606,-640.5"/>
<text text-anchor="start" x="614" y="-658.5" font-family="Helvetica,sans-Serif" font-size="10.00">Hamiltonianmatrix::</text>
<text text-anchor="middle" x="661.5" y="-647.5" font-family="Helvetica,sans-Serif" font-size="10.00">entries</text>
</a>
</g>
</g>
<!-- Node4&#45;&gt;Node6 -->
<g id="edge6" class="edge"><title>Node4&#45;&gt;Node6</title>
<path fill="none" stroke="midnightblue" d="M513.782,-626.077C537.443,-630.822 568.553,-637.061 596.034,-642.572"/>
<polygon fill="midnightblue" stroke="midnightblue" points="595.482,-646.031 605.975,-644.565 596.858,-639.167 595.482,-646.031"/>
</g>
<!-- Node7 -->
<g id="node8" class="node"><title>Node7</title>
<g id="a_node8"><a xlink:href="classHamiltonianmatrix.html#a9cd965385a65becbfb993fc79dc428f7" target="_top" xlink:title="Hamiltonianmatrix::\lnum_coordinates">
<polygon fill="none" stroke="black" points="606,-591.5 606,-621.5 717,-621.5 717,-591.5 606,-591.5"/>
<text text-anchor="start" x="614" y="-609.5" font-family="Helvetica,sans-Serif" font-size="10.00">Hamiltonianmatrix::</text>
<text text-anchor="middle" x="661.5" y="-598.5" font-family="Helvetica,sans-Serif" font-size="10.00">num_coordinates</text>
</a>
</g>
</g>
<!-- Node4&#45;&gt;Node7 -->
<g id="edge7" class="edge"><title>Node4&#45;&gt;Node7</title>
<path fill="none" stroke="midnightblue" d="M513.782,-616.043C537.339,-614.51 568.28,-612.498 595.673,-610.716"/>
<polygon fill="midnightblue" stroke="midnightblue" points="596.223,-614.188 605.975,-610.046 595.768,-607.203 596.223,-614.188"/>
</g>
<!-- Node9 -->
<g id="node10" class="node"><title>Node9</title>
<g id="a_node10"><a xlink:href="classBasisnames.html#a534f7e2dcc2987a1f969cb89c070da04" target="_top" xlink:title="Basisnames::configure">
<polygon fill="none" stroke="black" points="599,-357 599,-376 724,-376 724,-357 599,-357"/>
<text text-anchor="middle" x="661.5" y="-364" font-family="Helvetica,sans-Serif" font-size="10.00">Basisnames::configure</text>
</a>
</g>
</g>
<!-- Node8&#45;&gt;Node9 -->
<g id="edge9" class="edge"><title>Node8&#45;&gt;Node9</title>
<path fill="none" stroke="midnightblue" d="M522.557,-394.911C547.343,-389.806 578.015,-383.489 604.139,-378.108"/>
<polygon fill="midnightblue" stroke="midnightblue" points="605.189,-381.465 614.278,-376.02 603.777,-374.609 605.189,-381.465"/>
</g>
<!-- Node10&#45;&gt;Node9 -->
<g id="edge11" class="edge"><title>Node10&#45;&gt;Node9</title>
<path fill="none" stroke="midnightblue" d="M554.512,-366.5C565.851,-366.5 577.473,-366.5 588.672,-366.5"/>
<polygon fill="midnightblue" stroke="midnightblue" points="588.818,-370 598.818,-366.5 588.818,-363 588.818,-370"/>
</g>
<!-- Node14&#45;&gt;Node5 -->
<g id="edge18" class="edge"><title>Node14&#45;&gt;Node5</title>
<path fill="none" stroke="midnightblue" d="M504.152,-529.882C523.123,-530.991 547.434,-535.608 563,-550.5 606.319,-591.946 558.822,-636.003 599,-680.5 599.768,-681.351 600.57,-682.171 601.402,-682.964"/>
<polygon fill="midnightblue" stroke="midnightblue" points="599.556,-685.962 609.597,-689.342 603.855,-680.438 599.556,-685.962"/>
</g>
<!-- Node14&#45;&gt;Node6 -->
<g id="edge20" class="edge"><title>Node14&#45;&gt;Node6</title>
<path fill="none" stroke="midnightblue" d="M504.298,-530.694C522.851,-532.218 546.615,-536.997 563,-550.5 593.402,-575.554 570.508,-604.293 599,-631.5 600.114,-632.564 601.28,-633.582 602.491,-634.556"/>
<polygon fill="midnightblue" stroke="midnightblue" points="600.791,-637.633 611.025,-640.372 604.733,-631.849 600.791,-637.633"/>
</g>
<!-- Node14&#45;&gt;Node7 -->
<g id="edge22" class="edge"><title>Node14&#45;&gt;Node7</title>
<path fill="none" stroke="midnightblue" d="M504.266,-533.369C521.915,-536.02 544.682,-541.049 563,-550.5 582.025,-560.315 580.743,-571.322 599,-582.5 601.604,-584.094 604.332,-585.617 607.13,-587.065"/>
<polygon fill="midnightblue" stroke="midnightblue" points="605.709,-590.265 616.239,-591.435 608.737,-583.953 605.709,-590.265"/>
</g>
<!-- Node15 -->
<g id="node16" class="node"><title>Node15</title>
<g id="a_node16"><a xlink:href="classHamiltonianmatrix.html#a45f3d187ac775e9b6c6a7756810f91ab" target="_top" xlink:title="Hamiltonianmatrix::\laddBasis">
<polygon fill="none" stroke="black" points="606,-542.5 606,-572.5 717,-572.5 717,-542.5 606,-542.5"/>
<text text-anchor="start" x="614" y="-560.5" font-family="Helvetica,sans-Serif" font-size="10.00">Hamiltonianmatrix::</text>
<text text-anchor="middle" x="661.5" y="-549.5" font-family="Helvetica,sans-Serif" font-size="10.00">addBasis</text>
</a>
</g>
</g>
<!-- Node14&#45;&gt;Node15 -->
<g id="edge16" class="edge"><title>Node14&#45;&gt;Node15</title>
<path fill="none" stroke="midnightblue" d="M504.022,-534.601C528.309,-538.155 564.387,-543.435 595.782,-548.029"/>
<polygon fill="midnightblue" stroke="midnightblue" points="595.388,-551.509 605.79,-549.494 596.402,-544.582 595.388,-551.509"/>
</g>
<!-- Node16 -->
<g id="node17" class="node"><title>Node16</title>
<g id="a_node17"><a xlink:href="classHamiltonianmatrix.html#a7f424947bfe863cdd30d3290b4b708a5" target="_top" xlink:title="Hamiltonianmatrix::\laddEntries">
<polygon fill="none" stroke="black" points="606,-493.5 606,-523.5 717,-523.5 717,-493.5 606,-493.5"/>
<text text-anchor="start" x="614" y="-511.5" font-family="Helvetica,sans-Serif" font-size="10.00">Hamiltonianmatrix::</text>
<text text-anchor="middle" x="661.5" y="-500.5" font-family="Helvetica,sans-Serif" font-size="10.00">addEntries</text>
</a>
</g>
</g>
<!-- Node14&#45;&gt;Node16 -->
<g id="edge17" class="edge"><title>Node14&#45;&gt;Node16</title>
<path fill="none" stroke="midnightblue" d="M504.022,-527.159C528.309,-524.263 564.387,-519.961 595.782,-516.217"/>
<polygon fill="midnightblue" stroke="midnightblue" points="596.274,-519.683 605.79,-515.024 595.445,-512.732 596.274,-519.683"/>
</g>
<!-- Node17 -->
<g id="node18" class="node"><title>Node17</title>
<g id="a_node18"><a xlink:href="classHamiltonianmatrix.html#a4dded9728c945c20fcd7abbc8bd5cfe6" target="_top" xlink:title="Hamiltonianmatrix::\lcompress">
<polygon fill="none" stroke="black" points="606,-444.5 606,-474.5 717,-474.5 717,-444.5 606,-444.5"/>
<text text-anchor="start" x="614" y="-462.5" font-family="Helvetica,sans-Serif" font-size="10.00">Hamiltonianmatrix::</text>
<text text-anchor="middle" x="661.5" y="-451.5" font-family="Helvetica,sans-Serif" font-size="10.00">compress</text>
</a>
</g>
</g>
<!-- Node14&#45;&gt;Node17 -->
<g id="edge19" class="edge"><title>Node14&#45;&gt;Node17</title>
<path fill="none" stroke="midnightblue" d="M504.104,-524.85C521.485,-520.846 544.023,-514.722 563,-506.5 580.206,-499.045 582.259,-492.947 599,-484.5 602.986,-482.489 607.173,-480.514 611.41,-478.61"/>
<polygon fill="midnightblue" stroke="midnightblue" points="612.929,-481.766 620.706,-474.571 610.139,-475.346 612.929,-481.766"/>
</g>
<!-- Node14&#45;&gt;Node18 -->
<g id="edge21" class="edge"><title>Node14&#45;&gt;Node18</title>
<path fill="none" stroke="midnightblue" d="M504.172,-528.601C522.669,-526.048 546.42,-520.133 563,-506.5 590.635,-483.777 572.57,-458.614 599,-434.5 600.281,-433.332 601.625,-432.218 603.02,-431.155"/>
<polygon fill="midnightblue" stroke="midnightblue" points="605.031,-434.022 611.49,-425.624 601.204,-428.161 605.031,-434.022"/>
</g>
<!-- Node22 -->
<g id="node23" class="node"><title>Node22</title>
<g id="a_node23"><a xlink:href="classHamiltonianmatrix.html#a15bc9c823975f5395112432c5b8507db" target="_top" xlink:title="Hamiltonianmatrix::\ldoDeserialization">
<polygon fill="none" stroke="black" points="606,-91.5 606,-121.5 717,-121.5 717,-91.5 606,-91.5"/>
<text text-anchor="start" x="614" y="-109.5" font-family="Helvetica,sans-Serif" font-size="10.00">Hamiltonianmatrix::</text>
<text text-anchor="middle" x="661.5" y="-98.5" font-family="Helvetica,sans-Serif" font-size="10.00">doDeserialization</text>
</a>
</g>
</g>
<!-- Node21&#45;&gt;Node22 -->
<g id="edge26" class="edge"><title>Node21&#45;&gt;Node22</title>
<path fill="none" stroke="midnightblue" d="M540.529,-104.549C558.42,-104.84 577.844,-105.156 595.748,-105.447"/>
<polygon fill="midnightblue" stroke="midnightblue" points="595.748,-108.947 605.803,-105.611 595.861,-101.948 595.748,-108.947"/>
</g>
<!-- Node23 -->
<g id="node24" class="node"><title>Node23</title>
<g id="a_node24"><a xlink:href="classSerializer.html#a26e560124d2dd1daa304ac8e878db630" target="_top" xlink:title="Serializer::load">
<polygon fill="none" stroke="black" points="772,-140 772,-159 859,-159 859,-140 772,-140"/>
<text text-anchor="middle" x="815.5" y="-147" font-family="Helvetica,sans-Serif" font-size="10.00">Serializer::load</text>
</a>
</g>
</g>
<!-- Node22&#45;&gt;Node23 -->
<g id="edge27" class="edge"><title>Node22&#45;&gt;Node23</title>
<path fill="none" stroke="midnightblue" d="M715.662,-121.539C733.697,-126.641 753.622,-132.278 770.83,-137.146"/>
<polygon fill="midnightblue" stroke="midnightblue" points="770.038,-140.559 780.613,-139.914 771.943,-133.823 770.038,-140.559"/>
</g>
<!-- Node24 -->
<g id="node25" class="node"><title>Node24</title>
<g id="a_node25"><a xlink:href="classHamiltonianmatrix.html#a37cc79dcec0f0d81265870a34517a225" target="_top" xlink:title="Hamiltonianmatrix::\lmergeComplex">
<polygon fill="none" stroke="black" points="760,-90.5 760,-120.5 871,-120.5 871,-90.5 760,-90.5"/>
<text text-anchor="start" x="768" y="-108.5" font-family="Helvetica,sans-Serif" font-size="10.00">Hamiltonianmatrix::</text>
<text text-anchor="middle" x="815.5" y="-97.5" font-family="Helvetica,sans-Serif" font-size="10.00">mergeComplex</text>
</a>
</g>
</g>
<!-- Node22&#45;&gt;Node24 -->
<g id="edge28" class="edge"><title>Node22&#45;&gt;Node24</title>
<path fill="none" stroke="midnightblue" d="M717.375,-106.139C727.879,-106.07 738.968,-105.997 749.748,-105.926"/>
<polygon fill="midnightblue" stroke="midnightblue" points="749.983,-109.425 759.96,-105.859 749.937,-102.425 749.983,-109.425"/>
</g>
<!-- Node25&#45;&gt;Node18 -->
<g id="edge30" class="edge"><title>Node25&#45;&gt;Node18</title>
<path fill="none" stroke="midnightblue" d="M548.919,-433.481C564.453,-430.282 580.752,-426.925 595.946,-423.796"/>
<polygon fill="midnightblue" stroke="midnightblue" points="596.664,-427.221 605.753,-421.776 595.252,-420.365 596.664,-427.221"/>
</g>
<!-- Node26&#45;&gt;Node5 -->
<g id="edge32" class="edge"><title>Node26&#45;&gt;Node5</title>
<path fill="none" stroke="midnightblue" d="M530.857,-674.988C551.305,-679.643 574.705,-684.969 595.946,-689.805"/>
<polygon fill="midnightblue" stroke="midnightblue" points="595.327,-693.253 605.855,-692.06 596.881,-686.428 595.327,-693.253"/>
</g>
<!-- Node26&#45;&gt;Node6 -->
<g id="edge33" class="edge"><title>Node26&#45;&gt;Node6</title>
<path fill="none" stroke="midnightblue" d="M530.857,-660.419C551.213,-659.646 574.494,-658.763 595.657,-657.96"/>
<polygon fill="midnightblue" stroke="midnightblue" points="595.995,-661.45 605.855,-657.573 595.729,-654.455 595.995,-661.45"/>
</g>
<!-- Node27 -->
<g id="node28" class="node"><title>Node27</title>
<g id="a_node28"><a xlink:href="classHamiltonianmatrix.html#abee2f1bfc2b5239e366a59d1f96ba03e" target="_top" xlink:title="Hamiltonianmatrix::\lHamiltonianmatrix">
<polygon fill="none" stroke="black" points="606,-738.5 606,-768.5 717,-768.5 717,-738.5 606,-738.5"/>
<text text-anchor="start" x="614" y="-756.5" font-family="Helvetica,sans-Serif" font-size="10.00">Hamiltonianmatrix::</text>
<text text-anchor="middle" x="661.5" y="-745.5" font-family="Helvetica,sans-Serif" font-size="10.00">Hamiltonianmatrix</text>
</a>
</g>
</g>
<!-- Node26&#45;&gt;Node27 -->
<g id="edge34" class="edge"><title>Node26&#45;&gt;Node27</title>
<path fill="none" stroke="midnightblue" d="M501.427,-677.585C525.965,-691.846 564.385,-713.397 599,-729.5 602.637,-731.192 606.429,-732.87 610.266,-734.506"/>
<polygon fill="midnightblue" stroke="midnightblue" points="609.254,-737.875 619.833,-738.471 611.935,-731.409 609.254,-737.875"/>
</g>
<!-- Node28&#45;&gt;Node5 -->
<g id="edge38" class="edge"><title>Node28&#45;&gt;Node5</title>
<path fill="none" stroke="midnightblue" d="M530.734,-582.423C542.365,-586.128 553.872,-591.556 563,-599.5 592.716,-625.364 570.508,-653.293 599,-680.5 600.114,-681.564 601.28,-682.582 602.491,-683.556"/>
<polygon fill="midnightblue" stroke="midnightblue" points="600.791,-686.633 611.025,-689.372 604.733,-680.849 600.791,-686.633"/>
</g>
<!-- Node28&#45;&gt;Node6 -->
<g id="edge39" class="edge"><title>Node28&#45;&gt;Node6</title>
<path fill="none" stroke="midnightblue" d="M530.863,-586.223C541.869,-589.678 553.088,-594.043 563,-599.5 581.753,-609.824 580.743,-620.322 599,-631.5 601.604,-633.094 604.332,-634.617 607.13,-636.065"/>
<polygon fill="midnightblue" stroke="midnightblue" points="605.709,-639.265 616.239,-640.435 608.737,-632.953 605.709,-639.265"/>
</g>
<!-- Node28&#45;&gt;Node18 -->
<g id="edge40" class="edge"><title>Node28&#45;&gt;Node18</title>
<path fill="none" stroke="midnightblue" d="M530.521,-567.614C542.433,-563.876 554.118,-558.175 563,-549.5 601.314,-512.078 562.452,-473.649 599,-434.5 599.902,-433.534 600.847,-432.606 601.831,-431.715"/>
<polygon fill="midnightblue" stroke="midnightblue" points="604.11,-434.381 610.013,-425.582 599.912,-428.779 604.11,-434.381"/>
</g>
<!-- Node30 -->
<g id="node31" class="node"><title>Node30</title>
<g id="a_node31"><a xlink:href="classHamiltonianmatrix.html#aa8d50e3585a18628f4abbb5bcede4bbb" target="_top" xlink:title="Hamiltonianmatrix::\ldoSerialization">
<polygon fill="none" stroke="black" points="606,-42.5 606,-72.5 717,-72.5 717,-42.5 606,-42.5"/>
<text text-anchor="start" x="614" y="-60.5" font-family="Helvetica,sans-Serif" font-size="10.00">Hamiltonianmatrix::</text>
<text text-anchor="middle" x="661.5" y="-49.5" font-family="Helvetica,sans-Serif" font-size="10.00">doSerialization</text>
</a>
</g>
</g>
<!-- Node29&#45;&gt;Node30 -->
<g id="edge42" class="edge"><title>Node29&#45;&gt;Node30</title>
<path fill="none" stroke="midnightblue" d="M542.088,-60.709C559.548,-60.2358 578.37,-59.7257 595.758,-59.2545"/>
<polygon fill="midnightblue" stroke="midnightblue" points="595.908,-62.7519 605.809,-58.9821 595.718,-55.7544 595.908,-62.7519"/>
</g>
<!-- Node31 -->
<g id="node32" class="node"><title>Node31</title>
<g id="a_node32"><a xlink:href="classSerializer.html#a79a572d0a14988acd13217beb7d5547b" target="_top" xlink:title="Serializer::save">
<polygon fill="none" stroke="black" points="771,-50 771,-69 860,-69 860,-50 771,-50"/>
<text text-anchor="middle" x="815.5" y="-57" font-family="Helvetica,sans-Serif" font-size="10.00">Serializer::save</text>
</a>
</g>
</g>
<!-- Node30&#45;&gt;Node31 -->
<g id="edge43" class="edge"><title>Node30&#45;&gt;Node31</title>
<path fill="none" stroke="midnightblue" d="M717.375,-58.222C731.335,-58.4057 746.327,-58.603 760.254,-58.7862"/>
<polygon fill="midnightblue" stroke="midnightblue" points="760.618,-62.2912 770.663,-58.9232 760.71,-55.2918 760.618,-62.2912"/>
</g>
<!-- Node33 -->
<g id="node34" class="node"><title>Node33</title>
<g id="a_node34"><a xlink:href="classHamiltonianmatrix.html#a035cf5188e89f3f4230beb502a718ea9" target="_top" xlink:title="Hamiltonianmatrix::\lsplitComplex">
<polygon fill="none" stroke="black" points="760,-0.5 760,-30.5 871,-30.5 871,-0.5 760,-0.5"/>
<text text-anchor="start" x="768" y="-18.5" font-family="Helvetica,sans-Serif" font-size="10.00">Hamiltonianmatrix::</text>
<text text-anchor="middle" x="815.5" y="-7.5" font-family="Helvetica,sans-Serif" font-size="10.00">splitComplex</text>
</a>
</g>
</g>
<!-- Node30&#45;&gt;Node33 -->
<g id="edge45" class="edge"><title>Node30&#45;&gt;Node33</title>
<path fill="none" stroke="midnightblue" d="M716.946,-42.4557C727.817,-39.4518 739.33,-36.2707 750.489,-33.1874"/>
<polygon fill="midnightblue" stroke="midnightblue" points="751.472,-36.5469 760.179,-30.5098 749.608,-29.7997 751.472,-36.5469"/>
</g>
<!-- Node32 -->
<g id="node33" class="node"><title>Node32</title>
<g id="a_node33"><a xlink:href="classSerializable.html#ad0b89a7563e6a98df7eb6a8a46c51735" target="_top" xlink:title="Serializable::serialize">
<polygon fill="none" stroke="black" points="907,-50 907,-69 1023,-69 1023,-50 907,-50"/>
<text text-anchor="middle" x="965" y="-57" font-family="Helvetica,sans-Serif" font-size="10.00">Serializable::serialize</text>
</a>
</g>
</g>
<!-- Node31&#45;&gt;Node32 -->
<g id="edge44" class="edge"><title>Node31&#45;&gt;Node32</title>
<path fill="none" stroke="midnightblue" d="M860.356,-59.5C871.767,-59.5 884.327,-59.5 896.648,-59.5"/>
<polygon fill="midnightblue" stroke="midnightblue" points="896.91,-63.0001 906.91,-59.5 896.91,-56.0001 896.91,-63.0001"/>
</g>
</g>
</svg>
