<?xml version="1.0" encoding="UTF-8" standalone="no"?>
<!DOCTYPE svg PUBLIC "-//W3C//DTD SVG 1.1//EN"
 "http://www.w3.org/Graphics/SVG/1.1/DTD/svg11.dtd">
<!-- Generated by graphviz version 2.38.0 (20140413.2041)
 -->
<!-- Title: Serializer::save Pages: 1 -->
<svg width="804pt" height="176pt"
 viewBox="0.00 0.00 804.00 176.00" xmlns="http://www.w3.org/2000/svg" xmlns:xlink="http://www.w3.org/1999/xlink">
<g id="graph0" class="graph" transform="scale(1 1) rotate(0) translate(4 172)">
<title>Serializer::save</title>
<!-- Node15 -->
<g id="node1" class="node"><title>Node15</title>
<polygon fill="#bfbfbf" stroke="black" points="0,-72 0,-91 89,-91 89,-72 0,-72"/>
<text text-anchor="middle" x="44.5" y="-79" font-family="Helvetica,sans-Serif" font-size="10.00">Serializer::save</text>
</g>
<!-- Node16 -->
<g id="node2" class="node"><title>Node16</title>
<g id="a_node2"><a xlink:href="classHamiltonianmatrix.html#aa8d50e3585a18628f4abbb5bcede4bbb" target="_top" xlink:title="Hamiltonianmatrix::\ldoSerialization">
<polygon fill="none" stroke="black" points="125,-66.5 125,-96.5 236,-96.5 236,-66.5 125,-66.5"/>
<text text-anchor="start" x="133" y="-84.5" font-family="Helvetica,sans-Serif" font-size="10.00">Hamiltonianmatrix::</text>
<text text-anchor="middle" x="180.5" y="-73.5" font-family="Helvetica,sans-Serif" font-size="10.00">doSerialization</text>
</a>
</g>
</g>
<!-- Node15&#45;&gt;Node16 -->
<g id="edge1" class="edge"><title>Node15&#45;&gt;Node16</title>
<path fill="none" stroke="midnightblue" d="M99.1713,-81.5C107.658,-81.5 116.441,-81.5 124.947,-81.5"/>
<polygon fill="midnightblue" stroke="midnightblue" points="99.006,-78.0001 89.006,-81.5 99.0059,-85.0001 99.006,-78.0001"/>
</g>
<!-- Node17 -->
<g id="node3" class="node"><title>Node17</title>
<g id="a_node3"><a xlink:href="classHamiltonianmatrix.html#a1e43ece7300d46f751f02c3260a14bfb" target="_top" xlink:title="Hamiltonianmatrix::\lhashBasis">
<polygon fill="none" stroke="black" points="283.5,-137.5 283.5,-167.5 394.5,-167.5 394.5,-137.5 283.5,-137.5"/>
<text text-anchor="start" x="291.5" y="-155.5" font-family="Helvetica,sans-Serif" font-size="10.00">Hamiltonianmatrix::</text>
<text text-anchor="middle" x="339" y="-144.5" font-family="Helvetica,sans-Serif" font-size="10.00">hashBasis</text>
</a>
</g>
</g>
<!-- Node16&#45;&gt;Node17 -->
<g id="edge2" class="edge"><title>Node16&#45;&gt;Node17</title>
<path fill="none" stroke="midnightblue" d="M217.586,-101.615C233.956,-110.38 253.707,-120.465 272,-128.5 279.033,-131.589 286.601,-134.611 294.016,-137.412"/>
<polygon fill="midnightblue" stroke="midnightblue" points="218.837,-98.3121 208.376,-96.632 215.506,-104.469 218.837,-98.3121"/>
</g>
<!-- Node18 -->
<g id="node4" class="node"><title>Node18</title>
<g id="a_node4"><a xlink:href="classHamiltonianmatrix.html#aebafe9543f93f3956fff32192efd86ce" target="_top" xlink:title="Hamiltonianmatrix::\lhashEntries">
<polygon fill="none" stroke="black" points="283.5,-88.5 283.5,-118.5 394.5,-118.5 394.5,-88.5 283.5,-88.5"/>
<text text-anchor="start" x="291.5" y="-106.5" font-family="Helvetica,sans-Serif" font-size="10.00">Hamiltonianmatrix::</text>
<text text-anchor="middle" x="339" y="-95.5" font-family="Helvetica,sans-Serif" font-size="10.00">hashEntries</text>
</a>
</g>
</g>
<!-- Node16&#45;&gt;Node18 -->
<g id="edge3" class="edge"><title>Node16&#45;&gt;Node18</title>
<path fill="none" stroke="midnightblue" d="M246.404,-90.6239C258.668,-92.3479 271.383,-94.1353 283.295,-95.8098"/>
<polygon fill="midnightblue" stroke="midnightblue" points="246.626,-87.1208 236.236,-89.1945 245.651,-94.0526 246.626,-87.1208"/>
</g>
<!-- Node19 -->
<g id="node5" class="node"><title>Node19</title>
<g id="a_node5"><a xlink:href="classHamiltonianmatrix.html#a9e77fcca733a19f250dd619799edc9e6" target="_top" xlink:title="Hamiltonianmatrix::save">
<polygon fill="none" stroke="black" points="272,-50 272,-69 406,-69 406,-50 272,-50"/>
<text text-anchor="middle" x="339" y="-57" font-family="Helvetica,sans-Serif" font-size="10.00">Hamiltonianmatrix::save</text>
</a>
</g>
</g>
<!-- Node16&#45;&gt;Node19 -->
<g id="edge4" class="edge"><title>Node16&#45;&gt;Node19</title>
<path fill="none" stroke="midnightblue" d="M246.411,-72.3752C254.862,-71.1872 263.526,-69.9691 271.995,-68.7787"/>
<polygon fill="midnightblue" stroke="midnightblue" points="245.651,-68.9474 236.236,-73.8055 246.626,-75.8792 245.651,-68.9474"/>
</g>
<!-- Node24 -->
<g id="node10" class="node"><title>Node24</title>
<g id="a_node10"><a xlink:href="classHamiltonianmatrix.html#a8bd6ab90a4453e8e1d7d6a1cdb751686" target="_top" xlink:title="Hamiltonianmatrix::\lserialize">
<polygon fill="none" stroke="black" points="283.5,-0.5 283.5,-30.5 394.5,-30.5 394.5,-0.5 283.5,-0.5"/>
<text text-anchor="start" x="291.5" y="-18.5" font-family="Helvetica,sans-Serif" font-size="10.00">Hamiltonianmatrix::</text>
<text text-anchor="middle" x="339" y="-7.5" font-family="Helvetica,sans-Serif" font-size="10.00">serialize</text>
</a>
</g>
</g>
<!-- Node16&#45;&gt;Node24 -->
<g id="edge9" class="edge"><title>Node16&#45;&gt;Node24</title>
<path fill="none" stroke="midnightblue" d="M222.772,-62.1384C238.134,-55.1079 255.775,-47.2404 272,-40.5 280.034,-37.1625 288.688,-33.7533 297.001,-30.5689"/>
<polygon fill="midnightblue" stroke="midnightblue" points="221.155,-59.0295 213.535,-66.3902 224.082,-65.3882 221.155,-59.0295"/>
</g>
<!-- Node20 -->
<g id="node6" class="node"><title>Node20</title>
<g id="a_node6"><a xlink:href="classHamiltonianOne.html#a9cb71dcb34ab9f0779c0bd66b758185e" target="_top" xlink:title="HamiltonianOne::build">
<polygon fill="none" stroke="black" points="451.5,-69 451.5,-88 573.5,-88 573.5,-69 451.5,-69"/>
<text text-anchor="middle" x="512.5" y="-76" font-family="Helvetica,sans-Serif" font-size="10.00">HamiltonianOne::build</text>
</a>
</g>
</g>
<!-- Node19&#45;&gt;Node20 -->
<g id="edge5" class="edge"><title>Node19&#45;&gt;Node20</title>
<path fill="none" stroke="midnightblue" d="M416.468,-67.9717C428.125,-69.2631 440.013,-70.5801 451.257,-71.8258"/>
<polygon fill="midnightblue" stroke="midnightblue" points="416.631,-64.4684 406.306,-66.8459 415.86,-71.4258 416.631,-64.4684"/>
</g>
<!-- Node22 -->
<g id="node8" class="node"><title>Node22</title>
<g id="a_node8"><a xlink:href="classHamiltonianTwo.html#a6ca0a318f25170b69e571a07064a5afb" target="_top" xlink:title="HamiltonianTwo::calculate">
<polygon fill="none" stroke="black" points="442,-31 442,-50 583,-50 583,-31 442,-31"/>
<text text-anchor="middle" x="512.5" y="-38" font-family="Helvetica,sans-Serif" font-size="10.00">HamiltonianTwo::calculate</text>
</a>
</g>
</g>
<!-- Node19&#45;&gt;Node22 -->
<g id="edge7" class="edge"><title>Node19&#45;&gt;Node22</title>
<path fill="none" stroke="midnightblue" d="M416.268,-51.0505C424.822,-50.1029 433.502,-49.1411 441.965,-48.2036"/>
<polygon fill="midnightblue" stroke="midnightblue" points="415.86,-47.5742 406.306,-52.1541 416.631,-54.5316 415.86,-47.5742"/>
</g>
<!-- Node21 -->
<g id="node7" class="node"><title>Node21</title>
<g id="a_node7"><a xlink:href="classHamiltonianOne.html#ad3ba2d70879a60c9f065b5a2545dfe36" target="_top" xlink:title="HamiltonianOne::HamiltonianOne">
<polygon fill="none" stroke="black" points="619,-69 619,-88 796,-88 796,-69 619,-69"/>
<text text-anchor="middle" x="707.5" y="-76" font-family="Helvetica,sans-Serif" font-size="10.00">HamiltonianOne::HamiltonianOne</text>
</a>
</g>
</g>
<!-- Node20&#45;&gt;Node21 -->
<g id="edge6" class="edge"><title>Node20&#45;&gt;Node21</title>
<path fill="none" stroke="midnightblue" d="M583.812,-78.5C595.215,-78.5 607.146,-78.5 618.899,-78.5"/>
<polygon fill="midnightblue" stroke="midnightblue" points="583.508,-75.0001 573.508,-78.5 583.508,-82.0001 583.508,-75.0001"/>
</g>
<!-- Node23 -->
<g id="node9" class="node"><title>Node23</title>
<g id="a_node9"><a xlink:href="classHamiltonianTwo.html#abd374713c9b38f72265c7fe496c42b96" target="_top" xlink:title="HamiltonianTwo::HamiltonianTwo">
<polygon fill="none" stroke="black" points="620.5,-31 620.5,-50 794.5,-50 794.5,-31 620.5,-31"/>
<text text-anchor="middle" x="707.5" y="-38" font-family="Helvetica,sans-Serif" font-size="10.00">HamiltonianTwo::HamiltonianTwo</text>
</a>
</g>
</g>
<!-- Node22&#45;&gt;Node23 -->
<g id="edge8" class="edge"><title>Node22&#45;&gt;Node23</title>
<path fill="none" stroke="midnightblue" d="M593.217,-40.5C602.2,-40.5 611.383,-40.5 620.442,-40.5"/>
<polygon fill="midnightblue" stroke="midnightblue" points="593.177,-37.0001 583.177,-40.5 593.177,-44.0001 593.177,-37.0001"/>
</g>
</g>
</svg>
