<?xml version="1.0" encoding="UTF-8" standalone="no"?>
<!DOCTYPE svg PUBLIC "-//W3C//DTD SVG 1.1//EN"
 "http://www.w3.org/Graphics/SVG/1.1/DTD/svg11.dtd">
<!-- Generated by graphviz version 2.38.0 (20140413.2041)
 -->
<!-- Title: BasisnamesOne Pages: 1 -->
<svg width="348pt" height="185pt"
 viewBox="0.00 0.00 347.50 185.00" xmlns="http://www.w3.org/2000/svg" xmlns:xlink="http://www.w3.org/1999/xlink">
<g id="graph0" class="graph" transform="scale(1 1) rotate(0) translate(4 181)">
<title>BasisnamesOne</title>
<!-- Node2 -->
<g id="node1" class="node"><title>Node2</title>
<polygon fill="#bfbfbf" stroke="black" points="151,-0.5 151,-19.5 246,-19.5 246,-0.5 151,-0.5"/>
<text text-anchor="middle" x="198.5" y="-7.5" font-family="Helvetica,sans-Serif" font-size="10.00">BasisnamesOne</text>
</g>
<!-- Node3 -->
<g id="node2" class="node"><title>Node3</title>
<g id="a_node2"><a xlink:href="classBasisnames.html" target="_top" xlink:title="Basisnames\&lt; StateOneOld \&gt;">
<polygon fill="none" stroke="black" points="119,-57.5 119,-76.5 278,-76.5 278,-57.5 119,-57.5"/>
<text text-anchor="middle" x="198.5" y="-64.5" font-family="Helvetica,sans-Serif" font-size="10.00">Basisnames&lt; StateOneOld &gt;</text>
</a>
</g>
</g>
<!-- Node3&#45;&gt;Node2 -->
<g id="edge1" class="edge"><title>Node3&#45;&gt;Node2</title>
<path fill="none" stroke="midnightblue" d="M198.5,-47.1166C198.5,-37.8173 198.5,-27.0557 198.5,-19.7149"/>
<polygon fill="midnightblue" stroke="midnightblue" points="195,-47.4062 198.5,-57.4062 202,-47.4063 195,-47.4062"/>
</g>
<!-- Node4 -->
<g id="node3" class="node"><title>Node4</title>
<g id="a_node3"><a xlink:href="classstd_1_1vector_3_01StateOneOld_01_4.html" target="_top" xlink:title="vector\&lt; StateOneOld \&gt;">
<polygon fill="none" stroke="black" points="0,-157.5 0,-176.5 131,-176.5 131,-157.5 0,-157.5"/>
<text text-anchor="middle" x="65.5" y="-164.5" font-family="Helvetica,sans-Serif" font-size="10.00">vector&lt; StateOneOld &gt;</text>
</a>
</g>
</g>
<!-- Node4&#45;&gt;Node3 -->
<g id="edge2" class="edge"><title>Node4&#45;&gt;Node3</title>
<path fill="none" stroke="#9a32cd" stroke-dasharray="5,2" d="M76.1811,-148.457C86.6919,-132.52 104.101,-109.369 124.5,-95 136.128,-86.8098 150.521,-80.8181 163.513,-76.5903"/>
<polygon fill="#9a32cd" stroke="#9a32cd" points="72.9686,-146.987 70.5629,-157.305 78.878,-150.74 72.9686,-146.987"/>
<text text-anchor="middle" x="145.5" y="-114.5" font-family="Helvetica,sans-Serif" font-size="10.00"> names_</text>
</g>
<!-- Node5 -->
<g id="node4" class="node"><title>Node5</title>
<g id="a_node4"><a xlink:href="classsize__t.html" target="_top" xlink:title="size_t">
<polygon fill="none" stroke="black" points="149.5,-157.5 149.5,-176.5 193.5,-176.5 193.5,-157.5 149.5,-157.5"/>
<text text-anchor="middle" x="171.5" y="-164.5" font-family="Helvetica,sans-Serif" font-size="10.00">size_t</text>
</a>
</g>
</g>
<!-- Node5&#45;&gt;Node3 -->
<g id="edge3" class="edge"><title>Node5&#45;&gt;Node3</title>
<path fill="none" stroke="#9a32cd" stroke-dasharray="5,2" d="M170.224,-147.01C169.909,-132.318 170.961,-111.727 177.5,-95 180.181,-88.1418 185.192,-81.5928 189.646,-76.6625"/>
<polygon fill="#9a32cd" stroke="#9a32cd" points="166.742,-147.509 170.69,-157.341 173.735,-147.193 166.742,-147.509"/>
<text text-anchor="middle" x="191" y="-114.5" font-family="Helvetica,sans-Serif" font-size="10.00"> dim_</text>
</g>
<!-- Node6 -->
<g id="node5" class="node"><title>Node6</title>
<g id="a_node5"><a xlink:href="classint.html" target="_top" xlink:title="int">
<polygon fill="none" stroke="black" points="212,-157.5 212,-176.5 241,-176.5 241,-157.5 212,-157.5"/>
<text text-anchor="middle" x="226.5" y="-164.5" font-family="Helvetica,sans-Serif" font-size="10.00">int</text>
</a>
</g>
</g>
<!-- Node6&#45;&gt;Node3 -->
<g id="edge4" class="edge"><title>Node6&#45;&gt;Node3</title>
<path fill="none" stroke="#9a32cd" stroke-dasharray="5,2" d="M221.218,-147.514C215.146,-126.263 205.441,-92.2919 200.939,-76.5374"/>
<polygon fill="#9a32cd" stroke="#9a32cd" points="217.903,-148.649 224.015,-157.303 224.633,-146.726 217.903,-148.649"/>
<text text-anchor="middle" x="238.5" y="-131" font-family="Helvetica,sans-Serif" font-size="10.00"> delta_j</text>
<text text-anchor="middle" x="238.5" y="-120" font-family="Helvetica,sans-Serif" font-size="10.00">delta_l</text>
<text text-anchor="middle" x="238.5" y="-109" font-family="Helvetica,sans-Serif" font-size="10.00">delta_m</text>
<text text-anchor="middle" x="238.5" y="-98" font-family="Helvetica,sans-Serif" font-size="10.00">delta_n</text>
</g>
<!-- Node7 -->
<g id="node6" class="node"><title>Node7</title>
<g id="a_node6"><a xlink:href="classConfiguration.html" target="_top" xlink:title="Configuration storage ">
<polygon fill="none" stroke="black" points="259.5,-157.5 259.5,-176.5 339.5,-176.5 339.5,-157.5 259.5,-157.5"/>
<text text-anchor="middle" x="299.5" y="-164.5" font-family="Helvetica,sans-Serif" font-size="10.00">Configuration</text>
</a>
</g>
</g>
<!-- Node7&#45;&gt;Node3 -->
<g id="edge5" class="edge"><title>Node7&#45;&gt;Node3</title>
<path fill="none" stroke="#9a32cd" stroke-dasharray="5,2" d="M293.917,-147.691C288.265,-131.887 278.11,-109.392 262.5,-95 253.456,-86.6623 241.459,-80.6824 230.298,-76.505"/>
<polygon fill="#9a32cd" stroke="#9a32cd" points="290.659,-148.987 297.122,-157.382 297.305,-146.789 290.659,-148.987"/>
<text text-anchor="middle" x="302.5" y="-114.5" font-family="Helvetica,sans-Serif" font-size="10.00"> conf</text>
</g>
</g>
</svg>
