<?xml version="1.0" encoding="UTF-8" standalone="no"?>
<!DOCTYPE svg PUBLIC "-//W3C//DTD SVG 1.1//EN"
 "http://www.w3.org/Graphics/SVG/1.1/DTD/svg11.dtd">
<!-- Generated by graphviz version 2.38.0 (20140413.2041)
 -->
<!-- Title: BasisnamesOne::fromSecond Pages: 1 -->
<svg width="554pt" height="66pt"
 viewBox="0.00 0.00 554.00 66.00" xmlns="http://www.w3.org/2000/svg" xmlns:xlink="http://www.w3.org/1999/xlink">
<g id="graph0" class="graph" transform="scale(1 1) rotate(0) translate(4 62)">
<title>BasisnamesOne::fromSecond</title>
<!-- Node23 -->
<g id="node1" class="node"><title>Node23</title>
<polygon fill="#bfbfbf" stroke="black" points="0,-19.5 0,-38.5 159,-38.5 159,-19.5 0,-19.5"/>
<text text-anchor="middle" x="79.5" y="-26.5" font-family="Helvetica,sans-Serif" font-size="10.00">BasisnamesOne::fromSecond</text>
</g>
<!-- Node24 -->
<g id="node2" class="node"><title>Node24</title>
<g id="a_node2"><a xlink:href="classHamiltonianTwo.html#a6ca0a318f25170b69e571a07064a5afb" target="_top" xlink:title="HamiltonianTwo::calculate">
<polygon fill="none" stroke="black" points="195,-38.5 195,-57.5 336,-57.5 336,-38.5 195,-38.5"/>
<text text-anchor="middle" x="265.5" y="-45.5" font-family="Helvetica,sans-Serif" font-size="10.00">HamiltonianTwo::calculate</text>
</a>
</g>
</g>
<!-- Node23&#45;&gt;Node24 -->
<g id="edge1" class="edge"><title>Node23&#45;&gt;Node24</title>
<path fill="none" stroke="midnightblue" d="M169.176,-38.1567C177.818,-39.0491 186.5,-39.9456 194.915,-40.8146"/>
<polygon fill="midnightblue" stroke="midnightblue" points="169.373,-34.6586 159.066,-37.1128 168.654,-41.6215 169.373,-34.6586"/>
</g>
<!-- Node26 -->
<g id="node4" class="node"><title>Node26</title>
<g id="a_node4"><a xlink:href="Interface_8h.html#ad478f0b9610586a2ae8066c78b6d3f96" target="_top" xlink:title="compute">
<polygon fill="none" stroke="black" points="236,-0.5 236,-19.5 295,-19.5 295,-0.5 236,-0.5"/>
<text text-anchor="middle" x="265.5" y="-7.5" font-family="Helvetica,sans-Serif" font-size="10.00">compute</text>
</a>
</g>
</g>
<!-- Node23&#45;&gt;Node26 -->
<g id="edge3" class="edge"><title>Node23&#45;&gt;Node26</title>
<path fill="none" stroke="midnightblue" d="M169.305,-19.8299C193.281,-17.3542 217.546,-14.8485 235.578,-12.9865"/>
<polygon fill="midnightblue" stroke="midnightblue" points="168.654,-16.3785 159.066,-20.8872 169.373,-23.3414 168.654,-16.3785"/>
</g>
<!-- Node25 -->
<g id="node3" class="node"><title>Node25</title>
<g id="a_node3"><a xlink:href="classHamiltonianTwo.html#abd374713c9b38f72265c7fe496c42b96" target="_top" xlink:title="HamiltonianTwo::HamiltonianTwo">
<polygon fill="none" stroke="black" points="372,-38.5 372,-57.5 546,-57.5 546,-38.5 372,-38.5"/>
<text text-anchor="middle" x="459" y="-45.5" font-family="Helvetica,sans-Serif" font-size="10.00">HamiltonianTwo::HamiltonianTwo</text>
</a>
</g>
</g>
<!-- Node24&#45;&gt;Node25 -->
<g id="edge2" class="edge"><title>Node24&#45;&gt;Node25</title>
<path fill="none" stroke="midnightblue" d="M346.313,-48C354.705,-48 363.265,-48 371.726,-48"/>
<polygon fill="midnightblue" stroke="midnightblue" points="346.178,-44.5001 336.178,-48 346.178,-51.5001 346.178,-44.5001"/>
</g>
<!-- Node27 -->
<g id="node5" class="node"><title>Node27</title>
<g id="a_node5"><a xlink:href="main_8cpp.html#a3c04138a5bfe5d72780bb7e82a18e627" target="_top" xlink:title="main">
<polygon fill="none" stroke="black" points="438.5,-0.5 438.5,-19.5 479.5,-19.5 479.5,-0.5 438.5,-0.5"/>
<text text-anchor="middle" x="459" y="-7.5" font-family="Helvetica,sans-Serif" font-size="10.00">main</text>
</a>
</g>
</g>
<!-- Node26&#45;&gt;Node27 -->
<g id="edge4" class="edge"><title>Node26&#45;&gt;Node27</title>
<path fill="none" stroke="midnightblue" d="M305.197,-10C345.583,-10 407.282,-10 438.483,-10"/>
<polygon fill="midnightblue" stroke="midnightblue" points="305.17,-6.5001 295.169,-10 305.169,-13.5001 305.17,-6.5001"/>
</g>
</g>
</svg>
