<?xml version="1.0" encoding="UTF-8" standalone="no"?>
<!DOCTYPE svg PUBLIC "-//W3C//DTD SVG 1.1//EN"
 "http://www.w3.org/Graphics/SVG/1.1/DTD/svg11.dtd">
<!-- Generated by graphviz version 2.38.0 (20140413.2041)
 -->
<!-- Title: MatrixElementCache::precalculateDiamagnetism Pages: 1 -->
<svg width="485pt" height="393pt"
 viewBox="0.00 0.00 485.00 393.00" xmlns="http://www.w3.org/2000/svg" xmlns:xlink="http://www.w3.org/1999/xlink">
<g id="graph0" class="graph" transform="scale(1 1) rotate(0) translate(4 389)">
<title>MatrixElementCache::precalculateDiamagnetism</title>
<!-- Node61 -->
<g id="node1" class="node"><title>Node61</title>
<polygon fill="#bfbfbf" stroke="black" points="0,-177 0,-207 152,-207 152,-177 0,-177"/>
<text text-anchor="start" x="8" y="-195" font-family="Helvetica,sans-Serif" font-size="10.00">MatrixElementCache</text>
<text text-anchor="middle" x="76" y="-184" font-family="Helvetica,sans-Serif" font-size="10.00">::precalculateDiamagnetism</text>
</g>
<!-- Node62 -->
<g id="node2" class="node"><title>Node62</title>
<g id="a_node2"><a xlink:href="classsqlite_1_1statement.html#a1b5e34a58010723e10ee31c4d02f7f55" target="_top" xlink:title="Bind a value to a position in the query. ">
<polygon fill="none" stroke="black" points="206,-365.5 206,-384.5 331,-384.5 331,-365.5 206,-365.5"/>
<text text-anchor="middle" x="268.5" y="-372.5" font-family="Helvetica,sans-Serif" font-size="10.00">sqlite::statement::bind</text>
</a>
</g>
</g>
<!-- Node61&#45;&gt;Node62 -->
<g id="edge1" class="edge"><title>Node61&#45;&gt;Node62</title>
<path fill="none" stroke="midnightblue" d="M82.8903,-207.476C96.2317,-240.345 132.017,-317.271 188,-356 190.888,-357.998 193.961,-359.788 197.156,-361.39"/>
<polygon fill="midnightblue" stroke="midnightblue" points="195.865,-364.645 206.431,-365.428 198.66,-358.227 195.865,-364.645"/>
</g>
<!-- Node63 -->
<g id="node3" class="node"><title>Node63</title>
<g id="a_node3"><a xlink:href="classsqlite_1_1statement.html#add6b491603e9505c82779ad762f72888" target="_top" xlink:title="Execute SQLite statements. ">
<polygon fill="none" stroke="black" points="205,-327.5 205,-346.5 332,-346.5 332,-327.5 205,-327.5"/>
<text text-anchor="middle" x="268.5" y="-334.5" font-family="Helvetica,sans-Serif" font-size="10.00">sqlite::statement::exec</text>
</a>
</g>
</g>
<!-- Node61&#45;&gt;Node63 -->
<g id="edge2" class="edge"><title>Node61&#45;&gt;Node63</title>
<path fill="none" stroke="midnightblue" d="M85.8652,-207.113C102.383,-233.871 140.537,-289.446 188,-318 191.625,-320.181 195.484,-322.112 199.473,-323.821"/>
<polygon fill="midnightblue" stroke="midnightblue" points="198.378,-327.148 208.969,-327.42 200.859,-320.603 198.378,-327.148"/>
</g>
<!-- Node64 -->
<g id="node4" class="node"><title>Node64</title>
<g id="a_node4"><a xlink:href="classsqlite_1_1statement.html#a881b89458af4ea9bde7a80e416f53903" target="_top" xlink:title="Get value of a field. ">
<polygon fill="none" stroke="black" points="208.5,-289.5 208.5,-308.5 328.5,-308.5 328.5,-289.5 208.5,-289.5"/>
<text text-anchor="middle" x="268.5" y="-296.5" font-family="Helvetica,sans-Serif" font-size="10.00">sqlite::statement::get</text>
</a>
</g>
</g>
<!-- Node61&#45;&gt;Node64 -->
<g id="edge3" class="edge"><title>Node61&#45;&gt;Node64</title>
<path fill="none" stroke="midnightblue" d="M91.6806,-207.204C111.636,-226.971 149.294,-261.185 188,-280 192.946,-282.404 198.215,-284.516 203.598,-286.368"/>
<polygon fill="midnightblue" stroke="midnightblue" points="202.774,-289.778 213.363,-289.43 204.869,-283.098 202.774,-289.778"/>
</g>
<!-- Node65 -->
<g id="node5" class="node"><title>Node65</title>
<g id="a_node5"><a xlink:href="namespaceutils.html#a1ba9020d51335d2ddd62e877803e9e31" target="_top" xlink:title="utils::get_pid">
<polygon fill="none" stroke="black" points="230,-251.5 230,-270.5 307,-270.5 307,-251.5 230,-251.5"/>
<text text-anchor="middle" x="268.5" y="-258.5" font-family="Helvetica,sans-Serif" font-size="10.00">utils::get_pid</text>
</a>
</g>
</g>
<!-- Node61&#45;&gt;Node65 -->
<g id="edge4" class="edge"><title>Node61&#45;&gt;Node65</title>
<path fill="none" stroke="midnightblue" d="M106.533,-207.147C128.551,-217.982 159.596,-232.306 188,-242 198.177,-245.474 209.296,-248.556 219.906,-251.174"/>
<polygon fill="midnightblue" stroke="midnightblue" points="219.338,-254.636 229.876,-253.539 220.954,-247.825 219.338,-254.636"/>
</g>
<!-- Node66 -->
<g id="node6" class="node"><title>Node66</title>
<g id="a_node6"><a xlink:href="classsqlite_1_1statement.html#a1b40871fb975892f70ea097f7c6da9c1" target="_top" xlink:title="Prepare the statement. ">
<polygon fill="none" stroke="black" points="216.5,-202 216.5,-232 320.5,-232 320.5,-202 216.5,-202"/>
<text text-anchor="start" x="224.5" y="-220" font-family="Helvetica,sans-Serif" font-size="10.00">sqlite::statement::</text>
<text text-anchor="middle" x="268.5" y="-209" font-family="Helvetica,sans-Serif" font-size="10.00">prepare</text>
</a>
</g>
</g>
<!-- Node61&#45;&gt;Node66 -->
<g id="edge5" class="edge"><title>Node61&#45;&gt;Node66</title>
<path fill="none" stroke="midnightblue" d="M152.017,-201.845C170.034,-204.209 189.063,-206.706 206.363,-208.977"/>
<polygon fill="midnightblue" stroke="midnightblue" points="205.957,-212.453 216.328,-210.284 206.868,-205.513 205.957,-212.453"/>
</g>
<!-- Node67 -->
<g id="node7" class="node"><title>Node67</title>
<g id="a_node7"><a xlink:href="classsqlite_1_1statement.html#a4feb0002bd8daa77fffef99c0f838f1c" target="_top" xlink:title="Reset the statement. ">
<polygon fill="none" stroke="black" points="216.5,-153 216.5,-183 320.5,-183 320.5,-153 216.5,-153"/>
<text text-anchor="start" x="224.5" y="-171" font-family="Helvetica,sans-Serif" font-size="10.00">sqlite::statement::</text>
<text text-anchor="middle" x="268.5" y="-160" font-family="Helvetica,sans-Serif" font-size="10.00">reset</text>
</a>
</g>
</g>
<!-- Node61&#45;&gt;Node67 -->
<g id="edge6" class="edge"><title>Node61&#45;&gt;Node67</title>
<path fill="none" stroke="midnightblue" d="M152.017,-182.549C170.034,-180.279 189.063,-177.882 206.363,-175.702"/>
<polygon fill="midnightblue" stroke="midnightblue" points="206.844,-179.17 216.328,-174.447 205.969,-172.224 206.844,-179.17"/>
</g>
<!-- Node68 -->
<g id="node8" class="node"><title>Node68</title>
<g id="a_node8"><a xlink:href="MatrixElementCache_8cpp.html#a15aabd3025cfa0ca9485cd672c0a1a4a" target="_top" xlink:title="selectionRulesMomentumNew">
<polygon fill="none" stroke="black" points="188,-114.5 188,-133.5 349,-133.5 349,-114.5 188,-114.5"/>
<text text-anchor="middle" x="268.5" y="-121.5" font-family="Helvetica,sans-Serif" font-size="10.00">selectionRulesMomentumNew</text>
</a>
</g>
</g>
<!-- Node61&#45;&gt;Node68 -->
<g id="edge7" class="edge"><title>Node61&#45;&gt;Node68</title>
<path fill="none" stroke="midnightblue" d="M108.047,-176.965C130.016,-166.727 160.366,-153.382 188,-144 196.421,-141.141 205.467,-138.486 214.332,-136.106"/>
<polygon fill="midnightblue" stroke="midnightblue" points="215.42,-139.44 224.22,-133.54 213.662,-132.664 215.42,-139.44"/>
</g>
<!-- Node72 -->
<g id="node12" class="node"><title>Node72</title>
<g id="a_node12"><a xlink:href="MatrixElementCache_8cpp.html#a06a268e07e2a0edb3fca096b8c941c78" target="_top" xlink:title="selectionRulesMultipoleNew">
<polygon fill="none" stroke="black" points="194.5,-76.5 194.5,-95.5 342.5,-95.5 342.5,-76.5 194.5,-76.5"/>
<text text-anchor="middle" x="268.5" y="-83.5" font-family="Helvetica,sans-Serif" font-size="10.00">selectionRulesMultipoleNew</text>
</a>
</g>
</g>
<!-- Node61&#45;&gt;Node72 -->
<g id="edge11" class="edge"><title>Node61&#45;&gt;Node72</title>
<path fill="none" stroke="midnightblue" d="M91.7158,-176.976C111.71,-157.441 149.412,-123.625 188,-105 192.952,-102.61 198.227,-100.508 203.613,-98.6615"/>
<polygon fill="midnightblue" stroke="midnightblue" points="204.881,-101.932 213.382,-95.6076 202.793,-95.2508 204.881,-101.932"/>
</g>
<!-- Node73 -->
<g id="node13" class="node"><title>Node73</title>
<g id="a_node13"><a xlink:href="classsqlite_1_1statement.html#aa68ea5317f4837f045502038d0682533" target="_top" xlink:title="Set the query string. ">
<polygon fill="none" stroke="black" points="209,-38.5 209,-57.5 328,-57.5 328,-38.5 209,-38.5"/>
<text text-anchor="middle" x="268.5" y="-45.5" font-family="Helvetica,sans-Serif" font-size="10.00">sqlite::statement::set</text>
</a>
</g>
</g>
<!-- Node61&#45;&gt;Node73 -->
<g id="edge15" class="edge"><title>Node61&#45;&gt;Node73</title>
<path fill="none" stroke="midnightblue" d="M86.1596,-176.587C102.866,-149.885 140.942,-95.184 188,-67 191.629,-64.8263 195.492,-62.9011 199.483,-61.1962"/>
<polygon fill="midnightblue" stroke="midnightblue" points="200.868,-64.4147 208.983,-57.6042 198.392,-57.8671 200.868,-64.4147"/>
</g>
<!-- Node74 -->
<g id="node14" class="node"><title>Node74</title>
<g id="a_node14"><a xlink:href="classsqlite_1_1statement.html#a0ef0c0c1fd66918b9a9c6167fd2e668f" target="_top" xlink:title="Step the statement. ">
<polygon fill="none" stroke="black" points="206,-0.5 206,-19.5 331,-19.5 331,-0.5 206,-0.5"/>
<text text-anchor="middle" x="268.5" y="-7.5" font-family="Helvetica,sans-Serif" font-size="10.00">sqlite::statement::step</text>
</a>
</g>
</g>
<!-- Node61&#45;&gt;Node74 -->
<g id="edge16" class="edge"><title>Node61&#45;&gt;Node74</title>
<path fill="none" stroke="midnightblue" d="M82.9179,-176.617C96.3129,-143.947 132.196,-67.4875 188,-29 190.891,-27.0059 193.967,-25.2198 197.163,-23.6202"/>
<polygon fill="midnightblue" stroke="midnightblue" points="198.666,-26.7836 206.442,-19.5876 195.875,-20.3637 198.666,-26.7836"/>
</g>
<!-- Node69 -->
<g id="node9" class="node"><title>Node69</title>
<g id="a_node9"><a xlink:href="classStateOne.html#aedba5bfce70f73fa324b9d5ae1115578" target="_top" xlink:title="StateOne::getJ">
<polygon fill="none" stroke="black" points="388,-133.5 388,-152.5 474,-152.5 474,-133.5 388,-133.5"/>
<text text-anchor="middle" x="431" y="-140.5" font-family="Helvetica,sans-Serif" font-size="10.00">StateOne::getJ</text>
</a>
</g>
</g>
<!-- Node68&#45;&gt;Node69 -->
<g id="edge8" class="edge"><title>Node68&#45;&gt;Node69</title>
<path fill="none" stroke="midnightblue" d="M349.28,-133.444C358.997,-134.595 368.724,-135.746 377.89,-136.831"/>
<polygon fill="midnightblue" stroke="midnightblue" points="377.628,-140.325 387.97,-138.024 378.451,-133.373 377.628,-140.325"/>
</g>
<!-- Node70 -->
<g id="node10" class="node"><title>Node70</title>
<g id="a_node10"><a xlink:href="classStateOne.html#a3783cebe5bbd63f072caf8450fea4aca" target="_top" xlink:title="StateOne::getL">
<polygon fill="none" stroke="black" points="386.5,-95.5 386.5,-114.5 475.5,-114.5 475.5,-95.5 386.5,-95.5"/>
<text text-anchor="middle" x="431" y="-102.5" font-family="Helvetica,sans-Serif" font-size="10.00">StateOne::getL</text>
</a>
</g>
</g>
<!-- Node68&#45;&gt;Node70 -->
<g id="edge9" class="edge"><title>Node68&#45;&gt;Node70</title>
<path fill="none" stroke="midnightblue" d="M349.28,-114.556C358.44,-113.471 367.609,-112.386 376.309,-111.356"/>
<polygon fill="midnightblue" stroke="midnightblue" points="376.758,-114.827 386.277,-110.176 375.935,-107.876 376.758,-114.827"/>
</g>
<!-- Node71 -->
<g id="node11" class="node"><title>Node71</title>
<g id="a_node11"><a xlink:href="classStateOne.html#aab2b41262381d67893113ed6f5ad18bc" target="_top" xlink:title="StateOne::getM">
<polygon fill="none" stroke="black" points="385,-57.5 385,-76.5 477,-76.5 477,-57.5 385,-57.5"/>
<text text-anchor="middle" x="431" y="-64.5" font-family="Helvetica,sans-Serif" font-size="10.00">StateOne::getM</text>
</a>
</g>
</g>
<!-- Node68&#45;&gt;Node71 -->
<g id="edge10" class="edge"><title>Node68&#45;&gt;Node71</title>
<path fill="none" stroke="midnightblue" d="M318.01,-114.456C328.384,-111.849 339.172,-108.7 349,-105 365.931,-98.6249 368.651,-93.748 385,-86 388.793,-84.2023 392.802,-82.3894 396.801,-80.6344"/>
<polygon fill="midnightblue" stroke="midnightblue" points="398.203,-83.8418 406.009,-76.679 395.44,-77.4101 398.203,-83.8418"/>
</g>
<!-- Node72&#45;&gt;Node69 -->
<g id="edge12" class="edge"><title>Node72&#45;&gt;Node69</title>
<path fill="none" stroke="midnightblue" d="M318.01,-95.5442C328.384,-98.151 339.172,-101.3 349,-105 365.931,-111.375 368.651,-116.252 385,-124 388.793,-125.798 392.802,-127.611 396.801,-129.366"/>
<polygon fill="midnightblue" stroke="midnightblue" points="395.44,-132.59 406.009,-133.321 398.203,-126.158 395.44,-132.59"/>
</g>
<!-- Node72&#45;&gt;Node70 -->
<g id="edge13" class="edge"><title>Node72&#45;&gt;Node70</title>
<path fill="none" stroke="midnightblue" d="M342.705,-94.666C353.982,-96.001 365.447,-97.3582 376.198,-98.631"/>
<polygon fill="midnightblue" stroke="midnightblue" points="375.916,-102.122 386.259,-99.8219 376.739,-95.1705 375.916,-102.122"/>
</g>
<!-- Node72&#45;&gt;Node71 -->
<g id="edge14" class="edge"><title>Node72&#45;&gt;Node71</title>
<path fill="none" stroke="midnightblue" d="M342.705,-77.334C353.494,-76.0568 364.455,-74.7593 374.798,-73.5348"/>
<polygon fill="midnightblue" stroke="midnightblue" points="375.387,-76.9896 384.906,-72.3382 374.564,-70.0381 375.387,-76.9896"/>
</g>
</g>
</svg>
