<?xml version="1.0" encoding="UTF-8" standalone="no"?>
<!DOCTYPE svg PUBLIC "-//W3C//DTD SVG 1.1//EN"
 "http://www.w3.org/Graphics/SVG/1.1/DTD/svg11.dtd">
<!-- Generated by graphviz version 2.38.0 (20140413.2041)
 -->
<!-- Title: SystemTwo::setSurfaceDistance Pages: 1 -->
<svg width="556pt" height="53pt"
 viewBox="0.00 0.00 556.00 52.50" xmlns="http://www.w3.org/2000/svg" xmlns:xlink="http://www.w3.org/1999/xlink">
<g id="graph0" class="graph" transform="scale(1 1) rotate(0) translate(4 48.5)">
<title>SystemTwo::setSurfaceDistance</title>
<!-- Node112 -->
<g id="node1" class="node"><title>Node112</title>
<polygon fill="#bfbfbf" stroke="black" points="0,-6 0,-25 171,-25 171,-6 0,-6"/>
<text text-anchor="middle" x="85.5" y="-13" font-family="Helvetica,sans-Serif" font-size="10.00">SystemTwo::setSurfaceDistance</text>
</g>
<!-- Node113 -->
<g id="node2" class="node"><title>Node113</title>
<g id="a_node2"><a xlink:href="classSystemTwo.html#a5201c2042e25fa25d997ac91a150938d" target="_top" xlink:title="SystemTwo::enableGreenTensor">
<polygon fill="none" stroke="black" points="207,-25 207,-44 378,-44 378,-25 207,-25"/>
<text text-anchor="middle" x="292.5" y="-32" font-family="Helvetica,sans-Serif" font-size="10.00">SystemTwo::enableGreenTensor</text>
</a>
</g>
</g>
<!-- Node112&#45;&gt;Node113 -->
<g id="edge1" class="edge"><title>Node112&#45;&gt;Node113</title>
<path fill="none" stroke="midnightblue" d="M171.065,-23.3377C179.547,-24.1239 188.198,-24.9257 196.777,-25.7208"/>
<polygon fill="midnightblue" stroke="midnightblue" points="196.518,-29.2117 206.799,-26.6496 197.164,-22.2416 196.518,-29.2117"/>
</g>
<!-- Node114 -->
<g id="node3" class="node"><title>Node114</title>
<g id="a_node3"><a xlink:href="classSystemBase.html#a74e9ee0a201336d5c493ed98360ae378" target="_top" xlink:title="Helper method that shoul be called by the derived classes //////. ">
<polygon fill="none" stroke="black" points="414,-0.5 414,-30.5 548,-30.5 548,-0.5 414,-0.5"/>
<text text-anchor="start" x="422" y="-18.5" font-family="Helvetica,sans-Serif" font-size="10.00">SystemBase&lt; StateTwo</text>
<text text-anchor="middle" x="481" y="-7.5" font-family="Helvetica,sans-Serif" font-size="10.00"> &gt;::onParameterChange</text>
</a>
</g>
</g>
<!-- Node112&#45;&gt;Node114 -->
<g id="edge3" class="edge"><title>Node112&#45;&gt;Node114</title>
<path fill="none" stroke="midnightblue" d="M171.399,-15.5C240.49,-15.5 337.137,-15.5 403.776,-15.5"/>
<polygon fill="midnightblue" stroke="midnightblue" points="403.793,-19.0001 413.793,-15.5 403.793,-12.0001 403.793,-19.0001"/>
</g>
<!-- Node113&#45;&gt;Node114 -->
<g id="edge2" class="edge"><title>Node113&#45;&gt;Node114</title>
<path fill="none" stroke="midnightblue" d="M378.019,-25.8895C386.584,-25.0169 395.248,-24.1343 403.719,-23.2713"/>
<polygon fill="midnightblue" stroke="midnightblue" points="404.342,-26.726 413.935,-22.2304 403.632,-19.7621 404.342,-26.726"/>
</g>
</g>
</svg>
