<?xml version="1.0" encoding="UTF-8" standalone="no"?>
<!DOCTYPE svg PUBLIC "-//W3C//DTD SVG 1.1//EN"
 "http://www.w3.org/Graphics/SVG/1.1/DTD/svg11.dtd">
<!-- Generated by graphviz version 2.38.0 (20140413.2041)
 -->
<!-- Title: SystemTwo::initializeBasis Pages: 1 -->
<!--zoomable 682 -->
<svg id="main" version="1.1" xmlns="http://www.w3.org/2000/svg" xmlns:xlink="http://www.w3.org/1999/xlink" xml:space="preserve" onload="init(evt)">
<style type="text/css"><![CDATA[
.edge:hover path { stroke: red; }
.edge:hover polygon { stroke: red; fill: red; }
]]></style>
<script type="text/javascript"><![CDATA[
var edges = document.getElementsByTagName('g');
if (edges && edges.length) {
  for (var i=0;i<edges.length;i++) {
    if (edges[i].id.substr(0,4)=='edge') {
      edges[i].setAttribute('class','edge');
    }
  }
}
]]></script>
        <defs>
                <circle id="rim" cx="0" cy="0" r="7"/>
                <circle id="rim2" cx="0" cy="0" r="3.5"/>
                <g id="zoomPlus">
                        <use xlink:href="#rim" fill="#404040">
                                <set attributeName="fill" to="#808080" begin="zoomplus.mouseover" end="zoomplus.mouseout"/>
                        </use>
                        <path d="M-4,0h8M0,-4v8" fill="none" stroke="white" stroke-width="1.5" pointer-events="none"/>
                </g>
                <g id="zoomMin">
                        <use xlink:href="#rim" fill="#404040">
                                <set attributeName="fill" to="#808080" begin="zoomminus.mouseover" end="zoomminus.mouseout"/>
                        </use>
                        <path d="M-4,0h8" fill="none" stroke="white" stroke-width="1.5" pointer-events="none"/>
                </g>
                <g id="dirArrow">
                        <path fill="none" stroke="white" stroke-width="1.5" d="M0,-3.0v7 M-2.5,-0.5L0,-3.0L2.5,-0.5"/>
                </g>
               <g id="resetDef">
                       <use xlink:href="#rim2" fill="#404040">
                               <set attributeName="fill" to="#808080" begin="reset.mouseover" end="reset.mouseout"/>
                       </use>
               </g>
        </defs>

<script type="text/javascript">
var viewWidth = 526;
var viewHeight = 682;
var sectionId = 'dynsection-13';
</script>
<script xlink:href="svgpan.js"/>
<svg id="graph" class="graph">
<g id="viewport">
<title>SystemTwo::initializeBasis</title>
<!-- Node33 -->
<g id="node1" class="node"><title>Node33</title>
<polygon fill="#bfbfbf" stroke="black" points="0,-327.5 0,-346.5 141,-346.5 141,-327.5 0,-327.5"/>
<text text-anchor="middle" x="70.5" y="-334.5" font-family="Helvetica,sans-Serif" font-size="10.00">SystemTwo::initializeBasis</text>
</g>
<!-- Node34 -->
<g id="node2" class="node"><title>Node34</title>
<g id="a_node2"><a xlink:href="classSystemBase.html#a8549a3aefea8440efce5da07059a035d" target="_top" xlink:title="SystemBase\&lt; StateTwo\l \&gt;::applyRightsideTransformator">
<polygon fill="none" stroke="black" points="183,-643 183,-673 354,-673 354,-643 183,-643"/>
<text text-anchor="start" x="191" y="-661" font-family="Helvetica,sans-Serif" font-size="10.00">SystemBase&lt; StateTwo</text>
<text text-anchor="middle" x="268.5" y="-650" font-family="Helvetica,sans-Serif" font-size="10.00"> &gt;::applyRightsideTransformator</text>
</a>
</g>
</g>
<!-- Node33&#45;&gt;Node34 -->
<g id="edge1" class="edge"><title>Node33&#45;&gt;Node34</title>
<path fill="none" stroke="midnightblue" d="M71.8466,-346.689C73.8678,-388.057 87.4499,-551.515 177,-634 178.158,-635.067 179.358,-636.087 180.596,-637.063"/>
<polygon fill="midnightblue" stroke="midnightblue" points="178.998,-640.206 189.249,-642.882 182.904,-634.398 178.998,-640.206"/>
</g>
<!-- Node35 -->
<g id="node3" class="node"><title>Node35</title>
<g id="a_node3"><a xlink:href="classSystemBase.html#a5fa7511cb2459a67370d4e33242092c7" target="_top" xlink:title="SystemBase\&lt; StateTwo\l \&gt;::checkIsEnergyValid">
<polygon fill="none" stroke="black" points="202,-594 202,-624 335,-624 335,-594 202,-594"/>
<text text-anchor="start" x="210" y="-612" font-family="Helvetica,sans-Serif" font-size="10.00">SystemBase&lt; StateTwo</text>
<text text-anchor="middle" x="268.5" y="-601" font-family="Helvetica,sans-Serif" font-size="10.00"> &gt;::checkIsEnergyValid</text>
</a>
</g>
</g>
<!-- Node33&#45;&gt;Node35 -->
<g id="edge2" class="edge"><title>Node33&#45;&gt;Node35</title>
<path fill="none" stroke="midnightblue" d="M72.6227,-346.524C77.4646,-383.204 99.9379,-516.639 177,-584 181.56,-587.986 186.703,-591.342 192.163,-594.166"/>
<polygon fill="midnightblue" stroke="midnightblue" points="191.052,-597.504 201.606,-598.434 193.935,-591.126 191.052,-597.504"/>
</g>
<!-- Node36 -->
<g id="node4" class="node"><title>Node36</title>
<g id="a_node4"><a xlink:href="classSystemBase.html#a4b6960923a2272c2a4161110a0ad7147" target="_top" xlink:title="SystemBase::diagonalize">
<polygon fill="none" stroke="black" points="200,-555.5 200,-574.5 337,-574.5 337,-555.5 200,-555.5"/>
<text text-anchor="middle" x="268.5" y="-562.5" font-family="Helvetica,sans-Serif" font-size="10.00">SystemBase::diagonalize</text>
</a>
</g>
</g>
<!-- Node33&#45;&gt;Node36 -->
<g id="edge3" class="edge"><title>Node33&#45;&gt;Node36</title>
<path fill="none" stroke="midnightblue" d="M73.3232,-346.795C80.1375,-380.494 107.382,-492.51 177,-546 181.112,-549.159 185.626,-551.823 190.377,-554.068"/>
<polygon fill="midnightblue" stroke="midnightblue" points="189.177,-557.358 199.759,-557.885 191.815,-550.874 189.177,-557.358"/>
</g>
<!-- Node37 -->
<g id="node5" class="node"><title>Node37</title>
<g id="a_node5"><a xlink:href="classSystemBase.html#af97672563271779f03408405a2cc8895" target="_top" xlink:title="SystemBase::getBasisvectors">
<polygon fill="none" stroke="black" points="188.5,-517.5 188.5,-536.5 348.5,-536.5 348.5,-517.5 188.5,-517.5"/>
<text text-anchor="middle" x="268.5" y="-524.5" font-family="Helvetica,sans-Serif" font-size="10.00">SystemBase::getBasisvectors</text>
</a>
</g>
</g>
<!-- Node33&#45;&gt;Node37 -->
<g id="edge4" class="edge"><title>Node33&#45;&gt;Node37</title>
<path fill="none" stroke="midnightblue" d="M74.4159,-346.65C83.8488,-376.115 116.49,-465.486 177,-508 179.759,-509.938 182.674,-511.686 185.701,-513.262"/>
<polygon fill="midnightblue" stroke="midnightblue" points="184.52,-516.569 195.075,-517.493 187.4,-510.189 184.52,-516.569"/>
</g>
<!-- Node38 -->
<g id="node6" class="node"><title>Node38</title>
<g id="a_node6"><a xlink:href="classSystemBase.html#a8c2a5cdda52b32d4977d02f88c2bed73" target="_top" xlink:title="SystemBase::getHamiltonian">
<polygon fill="none" stroke="black" points="190,-479.5 190,-498.5 347,-498.5 347,-479.5 190,-479.5"/>
<text text-anchor="middle" x="268.5" y="-486.5" font-family="Helvetica,sans-Serif" font-size="10.00">SystemBase::getHamiltonian</text>
</a>
</g>
</g>
<!-- Node33&#45;&gt;Node38 -->
<g id="edge5" class="edge"><title>Node33&#45;&gt;Node38</title>
<path fill="none" stroke="midnightblue" d="M76.6697,-346.772C89.9181,-370.833 127.552,-433.281 177,-465 184.08,-469.542 191.996,-473.228 200.121,-476.219"/>
<polygon fill="midnightblue" stroke="midnightblue" points="199.123,-479.576 209.717,-479.421 201.338,-472.936 199.123,-479.576"/>
</g>
<!-- Node39 -->
<g id="node7" class="node"><title>Node39</title>
<g id="a_node7"><a xlink:href="classStateOne.html#aedba5bfce70f73fa324b9d5ae1115578" target="_top" xlink:title="StateOne::getJ">
<polygon fill="none" stroke="black" points="414,-441.5 414,-460.5 500,-460.5 500,-441.5 414,-441.5"/>
<text text-anchor="middle" x="457" y="-448.5" font-family="Helvetica,sans-Serif" font-size="10.00">StateOne::getJ</text>
</a>
</g>
</g>
<!-- Node33&#45;&gt;Node39 -->
<g id="edge6" class="edge"><title>Node33&#45;&gt;Node39</title>
<path fill="none" stroke="midnightblue" d="M80.2522,-346.657C97.0371,-364.461 135.762,-402.171 177,-419 251.368,-449.348 345.564,-453.889 403.27,-453.269"/>
<polygon fill="midnightblue" stroke="midnightblue" points="403.666,-456.763 413.607,-453.099 403.55,-449.764 403.666,-456.763"/>
</g>
<!-- Node40 -->
<g id="node8" class="node"><title>Node40</title>
<g id="a_node8"><a xlink:href="classStateOne.html#a3783cebe5bbd63f072caf8450fea4aca" target="_top" xlink:title="StateOne::getL">
<polygon fill="none" stroke="black" points="412.5,-403.5 412.5,-422.5 501.5,-422.5 501.5,-403.5 412.5,-403.5"/>
<text text-anchor="middle" x="457" y="-410.5" font-family="Helvetica,sans-Serif" font-size="10.00">StateOne::getL</text>
</a>
</g>
</g>
<!-- Node33&#45;&gt;Node40 -->
<g id="edge7" class="edge"><title>Node33&#45;&gt;Node40</title>
<path fill="none" stroke="midnightblue" d="M84.6765,-346.557C103.887,-359.901 141.204,-383.642 177,-394 252.954,-415.979 345.186,-417.682 402.244,-416.013"/>
<polygon fill="midnightblue" stroke="midnightblue" points="402.601,-419.503 412.477,-415.666 402.364,-412.507 402.601,-419.503"/>
</g>
<!-- Node41 -->
<g id="node9" class="node"><title>Node41</title>
<g id="a_node9"><a xlink:href="classStateOne.html#aab2b41262381d67893113ed6f5ad18bc" target="_top" xlink:title="StateOne::getM">
<polygon fill="none" stroke="black" points="411,-251.5 411,-270.5 503,-270.5 503,-251.5 411,-251.5"/>
<text text-anchor="middle" x="457" y="-258.5" font-family="Helvetica,sans-Serif" font-size="10.00">StateOne::getM</text>
</a>
</g>
</g>
<!-- Node33&#45;&gt;Node41 -->
<g id="edge8" class="edge"><title>Node33&#45;&gt;Node41</title>
<path fill="none" stroke="midnightblue" d="M141.163,-346.176C201.89,-351.054 290.827,-350.488 360,-318 381.058,-308.11 376.283,-292.349 396,-280 399.342,-277.907 402.935,-276.026 406.641,-274.339"/>
<polygon fill="midnightblue" stroke="midnightblue" points="408.058,-277.541 416.008,-270.537 405.425,-271.055 408.058,-277.541"/>
</g>
<!-- Node42 -->
<g id="node10" class="node"><title>Node42</title>
<g id="a_node10"><a xlink:href="classSystemBase.html#ad63fbd3bea2dd20d9587699f0e951be3" target="_top" xlink:title="SystemBase::getNumBasisvectors">
<polygon fill="none" stroke="black" points="177,-289.5 177,-308.5 360,-308.5 360,-289.5 177,-289.5"/>
<text text-anchor="middle" x="268.5" y="-296.5" font-family="Helvetica,sans-Serif" font-size="10.00">SystemBase::getNumBasisvectors</text>
</a>
</g>
</g>
<!-- Node33&#45;&gt;Node42 -->
<g id="edge9" class="edge"><title>Node33&#45;&gt;Node42</title>
<path fill="none" stroke="midnightblue" d="M120.706,-327.46C147.267,-322.31 180.249,-315.916 208.218,-310.494"/>
<polygon fill="midnightblue" stroke="midnightblue" points="209.123,-313.883 218.274,-308.544 207.79,-307.011 209.123,-313.883"/>
</g>
<!-- Node43 -->
<g id="node11" class="node"><title>Node43</title>
<g id="a_node11"><a xlink:href="classSystemBase.html#a22b09c3657ab1a41cae887a4bec5f9a9" target="_top" xlink:title="SystemBase::getNumStates">
<polygon fill="none" stroke="black" points="191.5,-251.5 191.5,-270.5 345.5,-270.5 345.5,-251.5 191.5,-251.5"/>
<text text-anchor="middle" x="268.5" y="-258.5" font-family="Helvetica,sans-Serif" font-size="10.00">SystemBase::getNumStates</text>
</a>
</g>
</g>
<!-- Node33&#45;&gt;Node43 -->
<g id="edge10" class="edge"><title>Node33&#45;&gt;Node43</title>
<path fill="none" stroke="midnightblue" d="M85.8896,-327.472C105.632,-314.818 142.596,-292.603 177,-280 184.314,-277.321 192.105,-274.975 199.932,-272.932"/>
<polygon fill="midnightblue" stroke="midnightblue" points="200.952,-276.285 209.83,-270.504 199.284,-269.487 200.952,-276.285"/>
</g>
<!-- Node44 -->
<g id="node12" class="node"><title>Node44</title>
<g id="a_node12"><a xlink:href="classStateOne.html#a0b5646c4160083ef4b24460e9159ad2c" target="_top" xlink:title="StateOne::getReflected">
<polygon fill="none" stroke="black" points="204.5,-365.5 204.5,-384.5 332.5,-384.5 332.5,-365.5 204.5,-365.5"/>
<text text-anchor="middle" x="268.5" y="-372.5" font-family="Helvetica,sans-Serif" font-size="10.00">StateOne::getReflected</text>
</a>
</g>
</g>
<!-- Node33&#45;&gt;Node44 -->
<g id="edge11" class="edge"><title>Node33&#45;&gt;Node44</title>
<path fill="none" stroke="midnightblue" d="M120.706,-346.54C147.267,-351.69 180.249,-358.084 208.218,-363.506"/>
<polygon fill="midnightblue" stroke="midnightblue" points="207.79,-366.989 218.274,-365.456 209.123,-360.117 207.79,-366.989"/>
</g>
<!-- Node48 -->
<g id="node16" class="node"><title>Node48</title>
<g id="a_node16"><a xlink:href="classSystemBase.html#a5f75b643bad46db54cb4d51faa7f4563" target="_top" xlink:title="SystemBase::getStatesMulti\lIndex">
<polygon fill="none" stroke="black" points="192,-202 192,-232 345,-232 345,-202 192,-202"/>
<text text-anchor="start" x="200" y="-220" font-family="Helvetica,sans-Serif" font-size="10.00">SystemBase::getStatesMulti</text>
<text text-anchor="middle" x="268.5" y="-209" font-family="Helvetica,sans-Serif" font-size="10.00">Index</text>
</a>
</g>
</g>
<!-- Node33&#45;&gt;Node48 -->
<g id="edge18" class="edge"><title>Node33&#45;&gt;Node48</title>
<path fill="none" stroke="midnightblue" d="M79.4362,-327.323C95.7007,-308.128 134.851,-265.097 177,-242 181.159,-239.721 185.541,-237.637 190.043,-235.733"/>
<polygon fill="midnightblue" stroke="midnightblue" points="191.374,-238.971 199.416,-232.074 188.828,-232.45 191.374,-238.971"/>
</g>
<!-- Node49 -->
<g id="node17" class="node"><title>Node49</title>
<g id="a_node17"><a xlink:href="classSystemBase.html#ae905f68f010b36501547305a2e8e9ee6" target="_top" xlink:title="SystemBase\&lt; StateTwo\l \&gt;::removeRestrictedStates">
<polygon fill="none" stroke="black" points="193.5,-153 193.5,-183 343.5,-183 343.5,-153 193.5,-153"/>
<text text-anchor="start" x="201.5" y="-171" font-family="Helvetica,sans-Serif" font-size="10.00">SystemBase&lt; StateTwo</text>
<text text-anchor="middle" x="268.5" y="-160" font-family="Helvetica,sans-Serif" font-size="10.00"> &gt;::removeRestrictedStates</text>
</a>
</g>
</g>
<!-- Node33&#45;&gt;Node49 -->
<g id="edge19" class="edge"><title>Node33&#45;&gt;Node49</title>
<path fill="none" stroke="midnightblue" d="M75.8124,-327.197C87.8085,-301.099 124.198,-229.435 177,-193 179.905,-190.995 182.967,-189.151 186.137,-187.454"/>
<polygon fill="midnightblue" stroke="midnightblue" points="187.817,-190.53 195.321,-183.051 184.791,-184.218 187.817,-190.53"/>
</g>
<!-- Node50 -->
<g id="node18" class="node"><title>Node50</title>
<g id="a_node18"><a xlink:href="classSystemBase.html#a88a66677df418886e4a258842a26e024" target="_top" xlink:title="SystemBase::restrictJ">
<polygon fill="none" stroke="black" points="209,-114.5 209,-133.5 328,-133.5 328,-114.5 209,-114.5"/>
<text text-anchor="middle" x="268.5" y="-121.5" font-family="Helvetica,sans-Serif" font-size="10.00">SystemBase::restrictJ</text>
</a>
</g>
</g>
<!-- Node33&#45;&gt;Node50 -->
<g id="edge20" class="edge"><title>Node33&#45;&gt;Node50</title>
<path fill="none" stroke="midnightblue" d="M73.8104,-327.082C81.8347,-294.966 111.651,-193.065 177,-144 183.587,-139.055 191.158,-135.287 199.056,-132.425"/>
<polygon fill="midnightblue" stroke="midnightblue" points="200.315,-135.698 208.808,-129.363 198.219,-129.019 200.315,-135.698"/>
</g>
<!-- Node51 -->
<g id="node19" class="node"><title>Node51</title>
<g id="a_node19"><a xlink:href="classSystemBase.html#a80bbd21a02f3a2362fc46fecaabfdb50" target="_top" xlink:title="SystemBase::restrictL">
<polygon fill="none" stroke="black" points="207.5,-76.5 207.5,-95.5 329.5,-95.5 329.5,-76.5 207.5,-76.5"/>
<text text-anchor="middle" x="268.5" y="-83.5" font-family="Helvetica,sans-Serif" font-size="10.00">SystemBase::restrictL</text>
</a>
</g>
</g>
<!-- Node33&#45;&gt;Node51 -->
<g id="edge21" class="edge"><title>Node33&#45;&gt;Node51</title>
<path fill="none" stroke="midnightblue" d="M72.8077,-327.169C78.1479,-291.142 101.723,-165.312 177,-105 183.167,-100.059 190.307,-96.3161 197.82,-93.4925"/>
<polygon fill="midnightblue" stroke="midnightblue" points="199.038,-96.7774 207.488,-90.387 196.897,-90.1128 199.038,-96.7774"/>
</g>
<!-- Node52 -->
<g id="node20" class="node"><title>Node52</title>
<g id="a_node20"><a xlink:href="classSystemBase.html#ab34754b44770a35835cb489b57ef480e" target="_top" xlink:title="SystemBase::restrictM">
<polygon fill="none" stroke="black" points="206,-38.5 206,-57.5 331,-57.5 331,-38.5 206,-38.5"/>
<text text-anchor="middle" x="268.5" y="-45.5" font-family="Helvetica,sans-Serif" font-size="10.00">SystemBase::restrictM</text>
</a>
</g>
</g>
<!-- Node33&#45;&gt;Node52 -->
<g id="edge22" class="edge"><title>Node33&#45;&gt;Node52</title>
<path fill="none" stroke="midnightblue" d="M72.1171,-327.27C75.1666,-287.872 92.1212,-138.873 177,-67 182.644,-62.2212 189.186,-58.547 196.122,-55.7346"/>
<polygon fill="midnightblue" stroke="midnightblue" points="197.459,-58.9758 205.775,-52.4108 195.18,-52.3571 197.459,-58.9758"/>
</g>
<!-- Node53 -->
<g id="node21" class="node"><title>Node53</title>
<g id="a_node21"><a xlink:href="classSystemBase.html#aaf846ebcf24f1f8e7045b4480cab5160" target="_top" xlink:title="SystemBase::restrictN">
<polygon fill="none" stroke="black" points="206,-0.5 206,-19.5 331,-19.5 331,-0.5 206,-0.5"/>
<text text-anchor="middle" x="268.5" y="-7.5" font-family="Helvetica,sans-Serif" font-size="10.00">SystemBase::restrictN</text>
</a>
</g>
</g>
<!-- Node33&#45;&gt;Node53 -->
<g id="edge23" class="edge"><title>Node33&#45;&gt;Node53</title>
<path fill="none" stroke="midnightblue" d="M71.5928,-327.413C72.5543,-285.004 82.3492,-112.664 177,-29 182.623,-24.0293 189.211,-20.2404 196.223,-17.3675"/>
<polygon fill="midnightblue" stroke="midnightblue" points="197.688,-20.5647 205.998,-13.9927 195.403,-13.948 197.688,-20.5647"/>
</g>
<!-- Node44&#45;&gt;Node39 -->
<g id="edge12" class="edge"><title>Node44&#45;&gt;Node39</title>
<path fill="none" stroke="midnightblue" d="M288.92,-384.607C313.497,-396.564 357.298,-417.21 396,-432 401.623,-434.149 407.605,-436.253 413.531,-438.232"/>
<polygon fill="midnightblue" stroke="midnightblue" points="412.785,-441.669 423.377,-441.43 414.947,-435.012 412.785,-441.669"/>
</g>
<!-- Node44&#45;&gt;Node40 -->
<g id="edge13" class="edge"><title>Node44&#45;&gt;Node40</title>
<path fill="none" stroke="midnightblue" d="M316.562,-384.589C342.684,-389.911 375.275,-396.552 402.378,-402.074"/>
<polygon fill="midnightblue" stroke="midnightblue" points="401.975,-405.564 412.473,-404.131 403.373,-398.705 401.975,-405.564"/>
</g>
<!-- Node44&#45;&gt;Node41 -->
<g id="edge14" class="edge"><title>Node44&#45;&gt;Node41</title>
<path fill="none" stroke="midnightblue" d="M332.682,-365.63C342.516,-362.167 352.04,-357.442 360,-351 387.502,-328.743 369.034,-302.903 396,-280 398.004,-278.298 400.161,-276.748 402.425,-275.337"/>
<polygon fill="midnightblue" stroke="midnightblue" points="404.346,-278.283 411.59,-270.551 401.105,-272.078 404.346,-278.283"/>
</g>
<!-- Node45 -->
<g id="node13" class="node"><title>Node45</title>
<g id="a_node13"><a xlink:href="classStateOne.html#a7deae740570ef5262e7fd2d254a8c530" target="_top" xlink:title="StateOne::getN">
<polygon fill="none" stroke="black" points="411,-365.5 411,-384.5 503,-384.5 503,-365.5 411,-365.5"/>
<text text-anchor="middle" x="457" y="-372.5" font-family="Helvetica,sans-Serif" font-size="10.00">StateOne::getN</text>
</a>
</g>
</g>
<!-- Node44&#45;&gt;Node45 -->
<g id="edge15" class="edge"><title>Node44&#45;&gt;Node45</title>
<path fill="none" stroke="midnightblue" d="M332.64,-375C354.708,-375 379.296,-375 400.677,-375"/>
<polygon fill="midnightblue" stroke="midnightblue" points="400.891,-378.5 410.891,-375 400.891,-371.5 400.891,-378.5"/>
</g>
<!-- Node46 -->
<g id="node14" class="node"><title>Node46</title>
<g id="a_node14"><a xlink:href="classStateOne.html#a45b245f5da0068df4ff72093c654da89" target="_top" xlink:title="StateOne::getSpecies">
<polygon fill="none" stroke="black" points="396,-327.5 396,-346.5 518,-346.5 518,-327.5 396,-327.5"/>
<text text-anchor="middle" x="457" y="-334.5" font-family="Helvetica,sans-Serif" font-size="10.00">StateOne::getSpecies</text>
</a>
</g>
</g>
<!-- Node44&#45;&gt;Node46 -->
<g id="edge16" class="edge"><title>Node44&#45;&gt;Node46</title>
<path fill="none" stroke="midnightblue" d="M316.562,-365.411C341.727,-360.284 372.896,-353.933 399.379,-348.537"/>
<polygon fill="midnightblue" stroke="midnightblue" points="400.177,-351.946 409.277,-346.52 398.779,-345.087 400.177,-351.946"/>
</g>
<!-- Node47 -->
<g id="node15" class="node"><title>Node47</title>
<g id="a_node15"><a xlink:href="classStateOne.html#a7eafbf38814e11dc5875e8a0bc99051c" target="_top" xlink:title="StateOne::StateOne">
<polygon fill="none" stroke="black" points="400,-289.5 400,-308.5 514,-308.5 514,-289.5 400,-289.5"/>
<text text-anchor="middle" x="457" y="-296.5" font-family="Helvetica,sans-Serif" font-size="10.00">StateOne::StateOne</text>
</a>
</g>
</g>
<!-- Node44&#45;&gt;Node47 -->
<g id="edge17" class="edge"><title>Node44&#45;&gt;Node47</title>
<path fill="none" stroke="midnightblue" d="M322.833,-365.416C335.476,-361.925 348.592,-357.241 360,-351 379.042,-340.583 377.211,-328.866 396,-318 399.671,-315.877 403.608,-313.961 407.646,-312.238"/>
<polygon fill="midnightblue" stroke="midnightblue" points="409.105,-315.427 417.174,-308.561 406.585,-308.896 409.105,-315.427"/>
</g>
</g>
</svg>
        <g id="navigator" transform="translate(0 0)" fill="#404254">
                <rect fill="#f2f5e9" fill-opacity="0.5" stroke="#606060" stroke-width=".5" x="0" y="0" width="60" height="60"/>
                <use id="zoomplus" xlink:href="#zoomPlus" x="17" y="9" onmousedown="handleZoom(evt,'in')"/>
                <use id="zoomminus" xlink:href="#zoomMin" x="42" y="9" onmousedown="handleZoom(evt,'out')"/>
                <use id="reset" xlink:href="#resetDef" x="30" y="36" onmousedown="handleReset()"/>
                <g id="arrowUp" xlink:href="#dirArrow" transform="translate(30 24)" onmousedown="handlePan(0,-1)">
                  <use xlink:href="#rim" fill="#404040">
                        <set attributeName="fill" to="#808080" begin="arrowUp.mouseover" end="arrowUp.mouseout"/>
                  </use>
                  <path fill="none" stroke="white" stroke-width="1.5" d="M0,-3.0v7 M-2.5,-0.5L0,-3.0L2.5,-0.5"/>
                </g>
                <g id="arrowRight" xlink:href="#dirArrow" transform="rotate(90) translate(36 -43)" onmousedown="handlePan(1,0)">
                  <use xlink:href="#rim" fill="#404040">
                        <set attributeName="fill" to="#808080" begin="arrowRight.mouseover" end="arrowRight.mouseout"/>
                  </use>
                  <path fill="none" stroke="white" stroke-width="1.5" d="M0,-3.0v7 M-2.5,-0.5L0,-3.0L2.5,-0.5"/>
                </g>
                <g id="arrowDown" xlink:href="#dirArrow" transform="rotate(180) translate(-30 -48)" onmousedown="handlePan(0,1)">
                  <use xlink:href="#rim" fill="#404040">
                        <set attributeName="fill" to="#808080" begin="arrowDown.mouseover" end="arrowDown.mouseout"/>
                  </use>
                  <path fill="none" stroke="white" stroke-width="1.5" d="M0,-3.0v7 M-2.5,-0.5L0,-3.0L2.5,-0.5"/>
                </g>
                <g id="arrowLeft" xlink:href="#dirArrow" transform="rotate(270) translate(-36 17)" onmousedown="handlePan(-1,0)">
                  <use xlink:href="#rim" fill="#404040">
                        <set attributeName="fill" to="#808080" begin="arrowLeft.mouseover" end="arrowLeft.mouseout"/>
                  </use>
                  <path fill="none" stroke="white" stroke-width="1.5" d="M0,-3.0v7 M-2.5,-0.5L0,-3.0L2.5,-0.5"/>
                </g>
        </g>
        <svg viewBox="0 0 15 15" width="100%" height="30px" preserveAspectRatio="xMaxYMin meet">
         <g id="arrow_out" transform="scale(0.3 0.3)">
          <a xlink:href="classSystemTwo_a7aa70b668bd55e25ba9ed8f9d037052c_cgraph_org.svg" target="_base">
           <rect id="button" ry="5" rx="5" y="6" x="6" height="38" width="38"
                fill="#f2f5e9" fill-opacity="0.5" stroke="#606060" stroke-width="1.0"/>
           <path id="arrow"
             d="M 11.500037,31.436501 C 11.940474,20.09759 22.043105,11.32322 32.158766,21.979434 L 37.068811,17.246167 C 37.068811,17.246167 37.088388,32 37.088388,32 L 22.160133,31.978069 C 22.160133,31.978069 26.997745,27.140456 26.997745,27.140456 C 18.528582,18.264221 13.291696,25.230495 11.500037,31.436501 z"
             style="fill:#404040;"/>
          </a>
         </g>
        </svg>
</svg>
