<?xml version="1.0" encoding="UTF-8" standalone="no"?>
<!DOCTYPE svg PUBLIC "-//W3C//DTD SVG 1.1//EN"
 "http://www.w3.org/Graphics/SVG/1.1/DTD/svg11.dtd">
<!-- Generated by graphviz version 2.38.0 (20140413.2041)
 -->
<!-- Title: SystemBase::getNumBasisvectors Pages: 1 -->
<svg width="382pt" height="66pt"
 viewBox="0.00 0.00 382.00 66.00" xmlns="http://www.w3.org/2000/svg" xmlns:xlink="http://www.w3.org/1999/xlink">
<g id="graph0" class="graph" transform="scale(1 1) rotate(0) translate(4 62)">
<title>SystemBase::getNumBasisvectors</title>
<!-- Node96 -->
<g id="node1" class="node"><title>Node96</title>
<polygon fill="#bfbfbf" stroke="black" points="0,-19.5 0,-38.5 183,-38.5 183,-19.5 0,-19.5"/>
<text text-anchor="middle" x="91.5" y="-26.5" font-family="Helvetica,sans-Serif" font-size="10.00">SystemBase::getNumBasisvectors</text>
</g>
<!-- Node97 -->
<g id="node2" class="node"><title>Node97</title>
<g id="a_node2"><a xlink:href="integration__test_8cpp.html#a0edc7e03850724a3784df426b75fb1d2" target="_top" xlink:title="BOOST_FIXTURE_TEST_CASE">
<polygon fill="none" stroke="black" points="219,-38.5 219,-57.5 374,-57.5 374,-38.5 219,-38.5"/>
<text text-anchor="middle" x="296.5" y="-45.5" font-family="Helvetica,sans-Serif" font-size="10.00">BOOST_FIXTURE_TEST_CASE</text>
</a>
</g>
</g>
<!-- Node96&#45;&gt;Node97 -->
<g id="edge1" class="edge"><title>Node96&#45;&gt;Node97</title>
<path fill="none" stroke="midnightblue" d="M193.131,-38.4187C201.763,-39.2266 210.403,-40.0353 218.802,-40.8214"/>
<polygon fill="midnightblue" stroke="midnightblue" points="193.299,-34.9192 183.017,-37.472 192.647,-41.8888 193.299,-34.9192"/>
</g>
<!-- Node98 -->
<g id="node3" class="node"><title>Node98</title>
<g id="a_node3"><a xlink:href="classSystemTwo.html#a7aa70b668bd55e25ba9ed8f9d037052c" target="_top" xlink:title="Method that allows base class to initialize Basis //////////////. ">
<polygon fill="none" stroke="black" points="226,-0.5 226,-19.5 367,-19.5 367,-0.5 226,-0.5"/>
<text text-anchor="middle" x="296.5" y="-7.5" font-family="Helvetica,sans-Serif" font-size="10.00">SystemTwo::initializeBasis</text>
</a>
</g>
</g>
<!-- Node96&#45;&gt;Node98 -->
<g id="edge2" class="edge"><title>Node96&#45;&gt;Node98</title>
<path fill="none" stroke="midnightblue" d="M193.161,-19.5785C204.227,-18.5427 215.307,-17.5057 225.874,-16.5167"/>
<polygon fill="midnightblue" stroke="midnightblue" points="192.647,-16.1112 183.017,-20.528 193.299,-23.0808 192.647,-16.1112"/>
</g>
</g>
</svg>
