<?xml version="1.0" encoding="UTF-8" standalone="no"?>
<!DOCTYPE svg PUBLIC "-//W3C//DTD SVG 1.1//EN"
 "http://www.w3.org/Graphics/SVG/1.1/DTD/svg11.dtd">
<!-- Generated by graphviz version 2.38.0 (20140413.2041)
 -->
<!-- Title: SystemTwo::addInteraction Pages: 1 -->
<svg width="439pt" height="28pt"
 viewBox="0.00 0.00 439.00 28.00" xmlns="http://www.w3.org/2000/svg" xmlns:xlink="http://www.w3.org/1999/xlink">
<g id="graph0" class="graph" transform="scale(1 1) rotate(0) translate(4 24)">
<title>SystemTwo::addInteraction</title>
<!-- Node6 -->
<g id="node1" class="node"><title>Node6</title>
<polygon fill="#bfbfbf" stroke="black" points="0,-0.5 0,-19.5 146,-19.5 146,-0.5 0,-0.5"/>
<text text-anchor="middle" x="73" y="-7.5" font-family="Helvetica,sans-Serif" font-size="10.00">SystemTwo::addInteraction</text>
</g>
<!-- Node7 -->
<g id="node2" class="node"><title>Node7</title>
<g id="a_node2"><a xlink:href="namespacemodel__potential.html#a8239dc44dc82bb860c84927579ddda34" target="_top" xlink:title="Helper function for Numerov&#39;s method.s. ">
<polygon fill="none" stroke="black" points="182,-0.5 182,-19.5 288,-19.5 288,-0.5 182,-0.5"/>
<text text-anchor="middle" x="235" y="-7.5" font-family="Helvetica,sans-Serif" font-size="10.00">model_potential::g</text>
</a>
</g>
</g>
<!-- Node6&#45;&gt;Node7 -->
<g id="edge1" class="edge"><title>Node6&#45;&gt;Node7</title>
<path fill="none" stroke="midnightblue" d="M146.043,-10C154.652,-10 163.386,-10 171.84,-10"/>
<polygon fill="midnightblue" stroke="midnightblue" points="171.985,-13.5001 181.985,-10 171.985,-6.5001 171.985,-13.5001"/>
</g>
<!-- Node8 -->
<g id="node3" class="node"><title>Node8</title>
<g id="a_node3"><a xlink:href="namespacemodel__potential.html#adce6f491eb622389e7db9e598516614d" target="_top" xlink:title="Calculate the model potentials. ">
<polygon fill="none" stroke="black" points="324,-0.5 324,-19.5 431,-19.5 431,-0.5 324,-0.5"/>
<text text-anchor="middle" x="377.5" y="-7.5" font-family="Helvetica,sans-Serif" font-size="10.00">model_potential::V</text>
</a>
</g>
</g>
<!-- Node7&#45;&gt;Node8 -->
<g id="edge2" class="edge"><title>Node7&#45;&gt;Node8</title>
<path fill="none" stroke="midnightblue" d="M288.317,-10C296.526,-10 305.085,-10 313.504,-10"/>
<polygon fill="midnightblue" stroke="midnightblue" points="313.671,-13.5001 323.671,-10 313.671,-6.5001 313.671,-13.5001"/>
</g>
</g>
</svg>
