<?xml version="1.0" encoding="UTF-8" standalone="no"?>
<!DOCTYPE svg PUBLIC "-//W3C//DTD SVG 1.1//EN"
 "http://www.w3.org/Graphics/SVG/1.1/DTD/svg11.dtd">
<!-- Generated by graphviz version 2.38.0 (20140413.2041)
 -->
<!-- Title: MatrixElements::getMultipole Pages: 1 -->
<svg width="769pt" height="78pt"
 viewBox="0.00 0.00 769.00 77.50" xmlns="http://www.w3.org/2000/svg" xmlns:xlink="http://www.w3.org/1999/xlink">
<g id="graph0" class="graph" transform="scale(1 1) rotate(0) translate(4 73.5)">
<title>MatrixElements::getMultipole</title>
<!-- Node18 -->
<g id="node1" class="node"><title>Node18</title>
<polygon fill="#bfbfbf" stroke="black" points="0,-28 0,-47 155,-47 155,-28 0,-28"/>
<text text-anchor="middle" x="77.5" y="-35" font-family="Helvetica,sans-Serif" font-size="10.00">MatrixElements::getMultipole</text>
</g>
<!-- Node19 -->
<g id="node2" class="node"><title>Node19</title>
<g id="a_node2"><a xlink:href="classHamiltonianTwo.html#a6ca0a318f25170b69e571a07064a5afb" target="_top" xlink:title="HamiltonianTwo::calculate">
<polygon fill="none" stroke="black" points="194,-50 194,-69 335,-69 335,-50 194,-50"/>
<text text-anchor="middle" x="264.5" y="-57" font-family="Helvetica,sans-Serif" font-size="10.00">HamiltonianTwo::calculate</text>
</a>
</g>
</g>
<!-- Node18&#45;&gt;Node19 -->
<g id="edge1" class="edge"><title>Node18&#45;&gt;Node19</title>
<path fill="none" stroke="midnightblue" d="M165.066,-47.7944C174.694,-48.9393 184.407,-50.0944 193.788,-51.2099"/>
<polygon fill="midnightblue" stroke="midnightblue" points="165.425,-44.3125 155.082,-46.607 164.599,-51.2635 165.425,-44.3125"/>
</g>
<!-- Node21 -->
<g id="node4" class="node"><title>Node21</title>
<g id="a_node4"><a xlink:href="classMatrixElements.html#a028e0fd7873f47d9a598c2e3e1200517" target="_top" xlink:title="MatrixElements::getElectric\lMomentum">
<polygon fill="none" stroke="black" points="191,-0.5 191,-30.5 338,-30.5 338,-0.5 191,-0.5"/>
<text text-anchor="start" x="199" y="-18.5" font-family="Helvetica,sans-Serif" font-size="10.00">MatrixElements::getElectric</text>
<text text-anchor="middle" x="264.5" y="-7.5" font-family="Helvetica,sans-Serif" font-size="10.00">Momentum</text>
</a>
</g>
</g>
<!-- Node18&#45;&gt;Node21 -->
<g id="edge3" class="edge"><title>Node18&#45;&gt;Node21</title>
<path fill="none" stroke="midnightblue" d="M165.13,-27.1981C173.731,-26.1752 182.4,-25.1443 190.838,-24.1409"/>
<polygon fill="midnightblue" stroke="midnightblue" points="164.599,-23.7365 155.082,-28.393 165.425,-30.6875 164.599,-23.7365"/>
</g>
<!-- Node20 -->
<g id="node3" class="node"><title>Node20</title>
<g id="a_node3"><a xlink:href="classHamiltonianTwo.html#abd374713c9b38f72265c7fe496c42b96" target="_top" xlink:title="HamiltonianTwo::HamiltonianTwo">
<polygon fill="none" stroke="black" points="374,-50 374,-69 548,-69 548,-50 374,-50"/>
<text text-anchor="middle" x="461" y="-57" font-family="Helvetica,sans-Serif" font-size="10.00">HamiltonianTwo::HamiltonianTwo</text>
</a>
</g>
</g>
<!-- Node19&#45;&gt;Node20 -->
<g id="edge2" class="edge"><title>Node19&#45;&gt;Node20</title>
<path fill="none" stroke="midnightblue" d="M345.282,-59.5C354.7,-59.5 364.343,-59.5 373.843,-59.5"/>
<polygon fill="midnightblue" stroke="midnightblue" points="345.17,-56.0001 335.17,-59.5 345.17,-63.0001 345.17,-56.0001"/>
</g>
<!-- Node22 -->
<g id="node5" class="node"><title>Node22</title>
<g id="a_node5"><a xlink:href="classHamiltonianOne.html#a9cb71dcb34ab9f0779c0bd66b758185e" target="_top" xlink:title="HamiltonianOne::build">
<polygon fill="none" stroke="black" points="400,-6 400,-25 522,-25 522,-6 400,-6"/>
<text text-anchor="middle" x="461" y="-13" font-family="Helvetica,sans-Serif" font-size="10.00">HamiltonianOne::build</text>
</a>
</g>
</g>
<!-- Node21&#45;&gt;Node22 -->
<g id="edge4" class="edge"><title>Node21&#45;&gt;Node22</title>
<path fill="none" stroke="midnightblue" d="M348.291,-15.5C365.58,-15.5 383.492,-15.5 399.776,-15.5"/>
<polygon fill="midnightblue" stroke="midnightblue" points="348.201,-12.0001 338.201,-15.5 348.201,-19.0001 348.201,-12.0001"/>
</g>
<!-- Node23 -->
<g id="node6" class="node"><title>Node23</title>
<g id="a_node6"><a xlink:href="classHamiltonianOne.html#ad3ba2d70879a60c9f065b5a2545dfe36" target="_top" xlink:title="HamiltonianOne::HamiltonianOne">
<polygon fill="none" stroke="black" points="584,-6 584,-25 761,-25 761,-6 584,-6"/>
<text text-anchor="middle" x="672.5" y="-13" font-family="Helvetica,sans-Serif" font-size="10.00">HamiltonianOne::HamiltonianOne</text>
</a>
</g>
</g>
<!-- Node22&#45;&gt;Node23 -->
<g id="edge5" class="edge"><title>Node22&#45;&gt;Node23</title>
<path fill="none" stroke="midnightblue" d="M532.149,-15.5C548.691,-15.5 566.53,-15.5 583.74,-15.5"/>
<polygon fill="midnightblue" stroke="midnightblue" points="532.034,-12.0001 522.034,-15.5 532.034,-19.0001 532.034,-12.0001"/>
</g>
</g>
</svg>
