<?xml version="1.0" encoding="UTF-8" standalone="no"?>
<!DOCTYPE svg PUBLIC "-//W3C//DTD SVG 1.1//EN"
 "http://www.w3.org/Graphics/SVG/1.1/DTD/svg11.dtd">
<!-- Generated by graphviz version 2.38.0 (20140413.2041)
 -->
<!-- Title: SystemTwo::setDistanceVector Pages: 1 -->
<!--zoomable 53 -->
<svg id="main" version="1.1" xmlns="http://www.w3.org/2000/svg" xmlns:xlink="http://www.w3.org/1999/xlink" xml:space="preserve" onload="init(evt)">
<style type="text/css"><![CDATA[
.edge:hover path { stroke: red; }
.edge:hover polygon { stroke: red; fill: red; }
]]></style>
<script type="text/javascript"><![CDATA[
var edges = document.getElementsByTagName('g');
if (edges && edges.length) {
  for (var i=0;i<edges.length;i++) {
    if (edges[i].id.substr(0,4)=='edge') {
      edges[i].setAttribute('class','edge');
    }
  }
}
]]></script>
        <defs>
                <circle id="rim" cx="0" cy="0" r="7"/>
                <circle id="rim2" cx="0" cy="0" r="3.5"/>
                <g id="zoomPlus">
                        <use xlink:href="#rim" fill="#404040">
                                <set attributeName="fill" to="#808080" begin="zoomplus.mouseover" end="zoomplus.mouseout"/>
                        </use>
                        <path d="M-4,0h8M0,-4v8" fill="none" stroke="white" stroke-width="1.5" pointer-events="none"/>
                </g>
                <g id="zoomMin">
                        <use xlink:href="#rim" fill="#404040">
                                <set attributeName="fill" to="#808080" begin="zoomminus.mouseover" end="zoomminus.mouseout"/>
                        </use>
                        <path d="M-4,0h8" fill="none" stroke="white" stroke-width="1.5" pointer-events="none"/>
                </g>
                <g id="dirArrow">
                        <path fill="none" stroke="white" stroke-width="1.5" d="M0,-3.0v7 M-2.5,-0.5L0,-3.0L2.5,-0.5"/>
                </g>
               <g id="resetDef">
                       <use xlink:href="#rim2" fill="#404040">
                               <set attributeName="fill" to="#808080" begin="reset.mouseover" end="reset.mouseout"/>
                       </use>
               </g>
        </defs>

<script type="text/javascript">
var viewWidth = 551;
var viewHeight = 53;
var sectionId = 'dynsection-25';
</script>
<script xlink:href="svgpan.js"/>
<svg id="graph" class="graph">
<g id="viewport">
<title>SystemTwo::setDistanceVector</title>
<!-- Node105 -->
<g id="node1" class="node"><title>Node105</title>
<polygon fill="#bfbfbf" stroke="black" points="0,-6 0,-25 166,-25 166,-6 0,-6"/>
<text text-anchor="middle" x="83" y="-13" font-family="Helvetica,sans-Serif" font-size="10.00">SystemTwo::setDistanceVector</text>
</g>
<!-- Node106 -->
<g id="node2" class="node"><title>Node106</title>
<g id="a_node2"><a xlink:href="classSystemTwo.html#a5201c2042e25fa25d997ac91a150938d" target="_top" xlink:title="SystemTwo::enableGreenTensor">
<polygon fill="none" stroke="black" points="202,-25 202,-44 373,-44 373,-25 202,-25"/>
<text text-anchor="middle" x="287.5" y="-32" font-family="Helvetica,sans-Serif" font-size="10.00">SystemTwo::enableGreenTensor</text>
</a>
</g>
</g>
<!-- Node105&#45;&gt;Node106 -->
<g id="edge1" class="edge"><title>Node105&#45;&gt;Node106</title>
<path fill="none" stroke="midnightblue" d="M166.073,-23.2006C174.504,-23.9917 183.12,-24.8001 191.674,-25.6028"/>
<polygon fill="midnightblue" stroke="midnightblue" points="191.39,-29.0914 201.673,-26.5409 192.044,-22.122 191.39,-29.0914"/>
</g>
<!-- Node107 -->
<g id="node3" class="node"><title>Node107</title>
<g id="a_node3"><a xlink:href="classSystemBase.html#a74e9ee0a201336d5c493ed98360ae378" target="_top" xlink:title="Helper method that shoul be called by the derived classes //////. ">
<polygon fill="none" stroke="black" points="409,-0.5 409,-30.5 543,-30.5 543,-0.5 409,-0.5"/>
<text text-anchor="start" x="417" y="-18.5" font-family="Helvetica,sans-Serif" font-size="10.00">SystemBase&lt; StateTwo</text>
<text text-anchor="middle" x="476" y="-7.5" font-family="Helvetica,sans-Serif" font-size="10.00"> &gt;::onParameterChange</text>
</a>
</g>
</g>
<!-- Node105&#45;&gt;Node107 -->
<g id="edge3" class="edge"><title>Node105&#45;&gt;Node107</title>
<path fill="none" stroke="midnightblue" d="M166.443,-15.5C235.066,-15.5 332.003,-15.5 398.823,-15.5"/>
<polygon fill="midnightblue" stroke="midnightblue" points="398.868,-19.0001 408.867,-15.5 398.867,-12.0001 398.868,-19.0001"/>
</g>
<!-- Node106&#45;&gt;Node107 -->
<g id="edge2" class="edge"><title>Node106&#45;&gt;Node107</title>
<path fill="none" stroke="midnightblue" d="M373.019,-25.8895C381.584,-25.0169 390.248,-24.1343 398.719,-23.2713"/>
<polygon fill="midnightblue" stroke="midnightblue" points="399.342,-26.726 408.935,-22.2304 398.632,-19.7621 399.342,-26.726"/>
</g>
</g>
</svg>
        <g id="navigator" transform="translate(0 0)" fill="#404254">
                <rect fill="#f2f5e9" fill-opacity="0.5" stroke="#606060" stroke-width=".5" x="0" y="0" width="60" height="60"/>
                <use id="zoomplus" xlink:href="#zoomPlus" x="17" y="9" onmousedown="handleZoom(evt,'in')"/>
                <use id="zoomminus" xlink:href="#zoomMin" x="42" y="9" onmousedown="handleZoom(evt,'out')"/>
                <use id="reset" xlink:href="#resetDef" x="30" y="36" onmousedown="handleReset()"/>
                <g id="arrowUp" xlink:href="#dirArrow" transform="translate(30 24)" onmousedown="handlePan(0,-1)">
                  <use xlink:href="#rim" fill="#404040">
                        <set attributeName="fill" to="#808080" begin="arrowUp.mouseover" end="arrowUp.mouseout"/>
                  </use>
                  <path fill="none" stroke="white" stroke-width="1.5" d="M0,-3.0v7 M-2.5,-0.5L0,-3.0L2.5,-0.5"/>
                </g>
                <g id="arrowRight" xlink:href="#dirArrow" transform="rotate(90) translate(36 -43)" onmousedown="handlePan(1,0)">
                  <use xlink:href="#rim" fill="#404040">
                        <set attributeName="fill" to="#808080" begin="arrowRight.mouseover" end="arrowRight.mouseout"/>
                  </use>
                  <path fill="none" stroke="white" stroke-width="1.5" d="M0,-3.0v7 M-2.5,-0.5L0,-3.0L2.5,-0.5"/>
                </g>
                <g id="arrowDown" xlink:href="#dirArrow" transform="rotate(180) translate(-30 -48)" onmousedown="handlePan(0,1)">
                  <use xlink:href="#rim" fill="#404040">
                        <set attributeName="fill" to="#808080" begin="arrowDown.mouseover" end="arrowDown.mouseout"/>
                  </use>
                  <path fill="none" stroke="white" stroke-width="1.5" d="M0,-3.0v7 M-2.5,-0.5L0,-3.0L2.5,-0.5"/>
                </g>
                <g id="arrowLeft" xlink:href="#dirArrow" transform="rotate(270) translate(-36 17)" onmousedown="handlePan(-1,0)">
                  <use xlink:href="#rim" fill="#404040">
                        <set attributeName="fill" to="#808080" begin="arrowLeft.mouseover" end="arrowLeft.mouseout"/>
                  </use>
                  <path fill="none" stroke="white" stroke-width="1.5" d="M0,-3.0v7 M-2.5,-0.5L0,-3.0L2.5,-0.5"/>
                </g>
        </g>
        <svg viewBox="0 0 15 15" width="100%" height="30px" preserveAspectRatio="xMaxYMin meet">
         <g id="arrow_out" transform="scale(0.3 0.3)">
          <a xlink:href="classSystemTwo_a54002580bc1b3d706f540ae57c66db0e_cgraph_org.svg" target="_base">
           <rect id="button" ry="5" rx="5" y="6" x="6" height="38" width="38"
                fill="#f2f5e9" fill-opacity="0.5" stroke="#606060" stroke-width="1.0"/>
           <path id="arrow"
             d="M 11.500037,31.436501 C 11.940474,20.09759 22.043105,11.32322 32.158766,21.979434 L 37.068811,17.246167 C 37.068811,17.246167 37.088388,32 37.088388,32 L 22.160133,31.978069 C 22.160133,31.978069 26.997745,27.140456 26.997745,27.140456 C 18.528582,18.264221 13.291696,25.230495 11.500037,31.436501 z"
             style="fill:#404040;"/>
          </a>
         </g>
        </svg>
</svg>
