<?xml version="1.0" encoding="UTF-8" standalone="no"?>
<!DOCTYPE svg PUBLIC "-//W3C//DTD SVG 1.1//EN"
 "http://www.w3.org/Graphics/SVG/1.1/DTD/svg11.dtd">
<!-- Generated by graphviz version 2.38.0 (20140413.2041)
 -->
<!-- Title: Hamiltonianmatrix::mergeComplex Pages: 1 -->
<svg width="823pt" height="97pt"
 viewBox="0.00 0.00 823.00 96.50" xmlns="http://www.w3.org/2000/svg" xmlns:xlink="http://www.w3.org/1999/xlink">
<g id="graph0" class="graph" transform="scale(1 1) rotate(0) translate(4 92.5)">
<title>Hamiltonianmatrix::mergeComplex</title>
<!-- Node139 -->
<g id="node1" class="node"><title>Node139</title>
<polygon fill="#bfbfbf" stroke="black" points="0,-36 0,-66 111,-66 111,-36 0,-36"/>
<text text-anchor="start" x="8" y="-54" font-family="Helvetica,sans-Serif" font-size="10.00">Hamiltonianmatrix::</text>
<text text-anchor="middle" x="55.5" y="-43" font-family="Helvetica,sans-Serif" font-size="10.00">mergeComplex</text>
</g>
<!-- Node140 -->
<g id="node2" class="node"><title>Node140</title>
<g id="a_node2"><a xlink:href="classHamiltonianmatrix.html#a15bc9c823975f5395112432c5b8507db" target="_top" xlink:title="Hamiltonianmatrix::\ldoDeserialization">
<polygon fill="none" stroke="black" points="147,-36 147,-66 258,-66 258,-36 147,-36"/>
<text text-anchor="start" x="155" y="-54" font-family="Helvetica,sans-Serif" font-size="10.00">Hamiltonianmatrix::</text>
<text text-anchor="middle" x="202.5" y="-43" font-family="Helvetica,sans-Serif" font-size="10.00">doDeserialization</text>
</a>
</g>
</g>
<!-- Node139&#45;&gt;Node140 -->
<g id="edge1" class="edge"><title>Node139&#45;&gt;Node140</title>
<path fill="none" stroke="midnightblue" d="M121.462,-51C129.859,-51 138.392,-51 146.604,-51"/>
<polygon fill="midnightblue" stroke="midnightblue" points="121.318,-47.5001 111.318,-51 121.318,-54.5001 121.318,-47.5001"/>
</g>
<!-- Node141 -->
<g id="node3" class="node"><title>Node141</title>
<g id="a_node3"><a xlink:href="classHamiltonianmatrix.html#a7701e7aa1798719ed21b0ef41b049814" target="_top" xlink:title="Hamiltonianmatrix::\ldeserialize">
<polygon fill="none" stroke="black" points="304,-58 304,-88 415,-88 415,-58 304,-58"/>
<text text-anchor="start" x="312" y="-76" font-family="Helvetica,sans-Serif" font-size="10.00">Hamiltonianmatrix::</text>
<text text-anchor="middle" x="359.5" y="-65" font-family="Helvetica,sans-Serif" font-size="10.00">deserialize</text>
</a>
</g>
</g>
<!-- Node140&#45;&gt;Node141 -->
<g id="edge2" class="edge"><title>Node140&#45;&gt;Node141</title>
<path fill="none" stroke="midnightblue" d="M268.378,-60.2085C280.17,-61.8822 292.363,-63.6127 303.824,-65.2395"/>
<polygon fill="midnightblue" stroke="midnightblue" points="268.54,-56.6965 258.147,-58.7564 267.556,-63.627 268.54,-56.6965"/>
</g>
<!-- Node142 -->
<g id="node4" class="node"><title>Node142</title>
<g id="a_node4"><a xlink:href="classHamiltonianmatrix.html#ab5561740a111d0e9dc53c865009176a5" target="_top" xlink:title="Hamiltonianmatrix::load">
<polygon fill="none" stroke="black" points="294,-19.5 294,-38.5 425,-38.5 425,-19.5 294,-19.5"/>
<text text-anchor="middle" x="359.5" y="-26.5" font-family="Helvetica,sans-Serif" font-size="10.00">Hamiltonianmatrix::load</text>
</a>
</g>
</g>
<!-- Node140&#45;&gt;Node142 -->
<g id="edge3" class="edge"><title>Node140&#45;&gt;Node142</title>
<path fill="none" stroke="midnightblue" d="M268.08,-41.8338C276.648,-40.6177 285.433,-39.3708 294,-38.1549"/>
<polygon fill="midnightblue" stroke="midnightblue" points="267.556,-38.373 258.147,-43.2436 268.54,-45.3035 267.556,-38.373"/>
</g>
<!-- Node143 -->
<g id="node5" class="node"><title>Node143</title>
<g id="a_node5"><a xlink:href="classHamiltonianOne.html#a9cb71dcb34ab9f0779c0bd66b758185e" target="_top" xlink:title="HamiltonianOne::build">
<polygon fill="none" stroke="black" points="470.5,-38.5 470.5,-57.5 592.5,-57.5 592.5,-38.5 470.5,-38.5"/>
<text text-anchor="middle" x="531.5" y="-45.5" font-family="Helvetica,sans-Serif" font-size="10.00">HamiltonianOne::build</text>
</a>
</g>
</g>
<!-- Node142&#45;&gt;Node143 -->
<g id="edge4" class="edge"><title>Node142&#45;&gt;Node143</title>
<path fill="none" stroke="midnightblue" d="M435.443,-37.376C447.138,-38.6831 459.09,-40.0189 470.398,-41.2827"/>
<polygon fill="midnightblue" stroke="midnightblue" points="435.582,-33.8698 425.255,-36.2373 434.804,-40.8264 435.582,-33.8698"/>
</g>
<!-- Node145 -->
<g id="node7" class="node"><title>Node145</title>
<g id="a_node7"><a xlink:href="classHamiltonianTwo.html#a6ca0a318f25170b69e571a07064a5afb" target="_top" xlink:title="HamiltonianTwo::calculate">
<polygon fill="none" stroke="black" points="461,-0.5 461,-19.5 602,-19.5 602,-0.5 461,-0.5"/>
<text text-anchor="middle" x="531.5" y="-7.5" font-family="Helvetica,sans-Serif" font-size="10.00">HamiltonianTwo::calculate</text>
</a>
</g>
</g>
<!-- Node142&#45;&gt;Node145 -->
<g id="edge6" class="edge"><title>Node142&#45;&gt;Node145</title>
<path fill="none" stroke="midnightblue" d="M435.456,-20.6225C443.893,-19.6796 452.464,-18.7217 460.829,-17.7867"/>
<polygon fill="midnightblue" stroke="midnightblue" points="434.804,-17.1736 425.255,-21.7627 435.582,-24.1302 434.804,-17.1736"/>
</g>
<!-- Node144 -->
<g id="node6" class="node"><title>Node144</title>
<g id="a_node6"><a xlink:href="classHamiltonianOne.html#ad3ba2d70879a60c9f065b5a2545dfe36" target="_top" xlink:title="HamiltonianOne::HamiltonianOne">
<polygon fill="none" stroke="black" points="638,-38.5 638,-57.5 815,-57.5 815,-38.5 638,-38.5"/>
<text text-anchor="middle" x="726.5" y="-45.5" font-family="Helvetica,sans-Serif" font-size="10.00">HamiltonianOne::HamiltonianOne</text>
</a>
</g>
</g>
<!-- Node143&#45;&gt;Node144 -->
<g id="edge5" class="edge"><title>Node143&#45;&gt;Node144</title>
<path fill="none" stroke="midnightblue" d="M602.812,-48C614.215,-48 626.146,-48 637.899,-48"/>
<polygon fill="midnightblue" stroke="midnightblue" points="602.508,-44.5001 592.508,-48 602.508,-51.5001 602.508,-44.5001"/>
</g>
<!-- Node146 -->
<g id="node8" class="node"><title>Node146</title>
<g id="a_node8"><a xlink:href="classHamiltonianTwo.html#abd374713c9b38f72265c7fe496c42b96" target="_top" xlink:title="HamiltonianTwo::HamiltonianTwo">
<polygon fill="none" stroke="black" points="639.5,-0.5 639.5,-19.5 813.5,-19.5 813.5,-0.5 639.5,-0.5"/>
<text text-anchor="middle" x="726.5" y="-7.5" font-family="Helvetica,sans-Serif" font-size="10.00">HamiltonianTwo::HamiltonianTwo</text>
</a>
</g>
</g>
<!-- Node145&#45;&gt;Node146 -->
<g id="edge7" class="edge"><title>Node145&#45;&gt;Node146</title>
<path fill="none" stroke="midnightblue" d="M612.217,-10C621.2,-10 630.383,-10 639.442,-10"/>
<polygon fill="midnightblue" stroke="midnightblue" points="612.177,-6.5001 602.177,-10 612.177,-13.5001 612.177,-6.5001"/>
</g>
</g>
</svg>
