<?xml version="1.0" encoding="UTF-8" standalone="no"?>
<!DOCTYPE svg PUBLIC "-//W3C//DTD SVG 1.1//EN"
 "http://www.w3.org/Graphics/SVG/1.1/DTD/svg11.dtd">
<!-- Generated by graphviz version 2.38.0 (20140413.2041)
 -->
<!-- Title: StateOne::getReflected Pages: 1 -->
<svg width="294pt" height="218pt"
 viewBox="0.00 0.00 294.00 218.00" xmlns="http://www.w3.org/2000/svg" xmlns:xlink="http://www.w3.org/1999/xlink">
<g id="graph0" class="graph" transform="scale(1 1) rotate(0) translate(4 214)">
<title>StateOne::getReflected</title>
<!-- Node96 -->
<g id="node1" class="node"><title>Node96</title>
<polygon fill="#bfbfbf" stroke="black" points="0,-95.5 0,-114.5 128,-114.5 128,-95.5 0,-95.5"/>
<text text-anchor="middle" x="64" y="-102.5" font-family="Helvetica,sans-Serif" font-size="10.00">StateOne::getReflected</text>
</g>
<!-- Node97 -->
<g id="node2" class="node"><title>Node97</title>
<g id="a_node2"><a xlink:href="classStateOne.html#aedba5bfce70f73fa324b9d5ae1115578" target="_top" xlink:title="StateOne::getJ">
<polygon fill="none" stroke="black" points="182,-190.5 182,-209.5 268,-209.5 268,-190.5 182,-190.5"/>
<text text-anchor="middle" x="225" y="-197.5" font-family="Helvetica,sans-Serif" font-size="10.00">StateOne::getJ</text>
</a>
</g>
</g>
<!-- Node96&#45;&gt;Node97 -->
<g id="edge1" class="edge"><title>Node96&#45;&gt;Node97</title>
<path fill="none" stroke="midnightblue" d="M74.8692,-114.504C91.8081,-130.348 128.073,-162.264 164,-181 168.199,-183.19 172.696,-185.183 177.27,-186.983"/>
<polygon fill="midnightblue" stroke="midnightblue" points="176.102,-190.282 186.696,-190.408 178.493,-183.703 176.102,-190.282"/>
</g>
<!-- Node98 -->
<g id="node3" class="node"><title>Node98</title>
<g id="a_node3"><a xlink:href="classStateOne.html#a3783cebe5bbd63f072caf8450fea4aca" target="_top" xlink:title="StateOne::getL">
<polygon fill="none" stroke="black" points="180.5,-152.5 180.5,-171.5 269.5,-171.5 269.5,-152.5 180.5,-152.5"/>
<text text-anchor="middle" x="225" y="-159.5" font-family="Helvetica,sans-Serif" font-size="10.00">StateOne::getL</text>
</a>
</g>
</g>
<!-- Node96&#45;&gt;Node98 -->
<g id="edge2" class="edge"><title>Node96&#45;&gt;Node98</title>
<path fill="none" stroke="midnightblue" d="M88.8579,-114.618C108.819,-122.554 138.108,-133.94 164,-143 170.091,-145.131 176.566,-147.291 182.922,-149.351"/>
<polygon fill="midnightblue" stroke="midnightblue" points="182.151,-152.779 192.742,-152.491 184.282,-146.112 182.151,-152.779"/>
</g>
<!-- Node99 -->
<g id="node4" class="node"><title>Node99</title>
<g id="a_node4"><a xlink:href="classStateOne.html#aab2b41262381d67893113ed6f5ad18bc" target="_top" xlink:title="StateOne::getM">
<polygon fill="none" stroke="black" points="179,-114.5 179,-133.5 271,-133.5 271,-114.5 179,-114.5"/>
<text text-anchor="middle" x="225" y="-121.5" font-family="Helvetica,sans-Serif" font-size="10.00">StateOne::getM</text>
</a>
</g>
</g>
<!-- Node96&#45;&gt;Node99 -->
<g id="edge3" class="edge"><title>Node96&#45;&gt;Node99</title>
<path fill="none" stroke="midnightblue" d="M128.298,-112.564C141.555,-114.148 155.439,-115.807 168.391,-117.355"/>
<polygon fill="midnightblue" stroke="midnightblue" points="168.204,-120.857 178.548,-118.569 169.034,-113.907 168.204,-120.857"/>
</g>
<!-- Node100 -->
<g id="node5" class="node"><title>Node100</title>
<g id="a_node5"><a xlink:href="classStateOne.html#a7deae740570ef5262e7fd2d254a8c530" target="_top" xlink:title="StateOne::getN">
<polygon fill="none" stroke="black" points="179,-76.5 179,-95.5 271,-95.5 271,-76.5 179,-76.5"/>
<text text-anchor="middle" x="225" y="-83.5" font-family="Helvetica,sans-Serif" font-size="10.00">StateOne::getN</text>
</a>
</g>
</g>
<!-- Node96&#45;&gt;Node100 -->
<g id="edge4" class="edge"><title>Node96&#45;&gt;Node100</title>
<path fill="none" stroke="midnightblue" d="M128.298,-97.4361C141.555,-95.852 155.439,-94.1928 168.391,-92.6451"/>
<polygon fill="midnightblue" stroke="midnightblue" points="169.034,-96.0932 178.548,-91.4313 168.204,-89.1427 169.034,-96.0932"/>
</g>
<!-- Node101 -->
<g id="node6" class="node"><title>Node101</title>
<g id="a_node6"><a xlink:href="classStateOne.html#a45b245f5da0068df4ff72093c654da89" target="_top" xlink:title="StateOne::getSpecies">
<polygon fill="none" stroke="black" points="164,-38.5 164,-57.5 286,-57.5 286,-38.5 164,-38.5"/>
<text text-anchor="middle" x="225" y="-45.5" font-family="Helvetica,sans-Serif" font-size="10.00">StateOne::getSpecies</text>
</a>
</g>
</g>
<!-- Node96&#45;&gt;Node101 -->
<g id="edge5" class="edge"><title>Node96&#45;&gt;Node101</title>
<path fill="none" stroke="midnightblue" d="M88.8579,-95.3819C108.819,-87.4462 138.108,-76.0596 164,-67 170.091,-64.8686 176.566,-62.7094 182.922,-60.6486"/>
<polygon fill="midnightblue" stroke="midnightblue" points="184.282,-63.8883 192.742,-57.5094 182.151,-57.2208 184.282,-63.8883"/>
</g>
<!-- Node102 -->
<g id="node7" class="node"><title>Node102</title>
<g id="a_node7"><a xlink:href="classStateOne.html#a7eafbf38814e11dc5875e8a0bc99051c" target="_top" xlink:title="StateOne::StateOne">
<polygon fill="none" stroke="black" points="168,-0.5 168,-19.5 282,-19.5 282,-0.5 168,-0.5"/>
<text text-anchor="middle" x="225" y="-7.5" font-family="Helvetica,sans-Serif" font-size="10.00">StateOne::StateOne</text>
</a>
</g>
</g>
<!-- Node96&#45;&gt;Node102 -->
<g id="edge6" class="edge"><title>Node96&#45;&gt;Node102</title>
<path fill="none" stroke="midnightblue" d="M74.8692,-95.4961C91.8081,-79.6523 128.073,-47.736 164,-29 168.199,-26.8101 172.696,-24.8171 177.27,-23.0171"/>
<polygon fill="midnightblue" stroke="midnightblue" points="178.493,-26.297 186.696,-19.5921 176.102,-19.7178 178.493,-26.297"/>
</g>
</g>
</svg>
