<?xml version="1.0" encoding="UTF-8" standalone="no"?>
<!DOCTYPE svg PUBLIC "-//W3C//DTD SVG 1.1//EN"
 "http://www.w3.org/Graphics/SVG/1.1/DTD/svg11.dtd">
<!-- Generated by graphviz version 2.38.0 (20140413.2041)
 -->
<!-- Title: StateOne::getS Pages: 1 -->
<svg width="455pt" height="88pt"
 viewBox="0.00 0.00 455.00 88.00" xmlns="http://www.w3.org/2000/svg" xmlns:xlink="http://www.w3.org/1999/xlink">
<g id="graph0" class="graph" transform="scale(1 1) rotate(0) translate(4 84)">
<title>StateOne::getS</title>
<!-- Node107 -->
<g id="node1" class="node"><title>Node107</title>
<polygon fill="#bfbfbf" stroke="black" points="0,-30 0,-49 91,-49 91,-30 0,-30"/>
<text text-anchor="middle" x="45.5" y="-37" font-family="Helvetica,sans-Serif" font-size="10.00">StateOne::getS</text>
</g>
<!-- Node108 -->
<g id="node2" class="node"><title>Node108</title>
<g id="a_node2"><a xlink:href="classMatrixElementCache.html#afc9f56a599c9ea24bbfbd4aeb41efbd4" target="_top" xlink:title="MatrixElementCache\l::getElectricMultipole">
<polygon fill="none" stroke="black" points="127,-49.5 127,-79.5 243,-79.5 243,-49.5 127,-49.5"/>
<text text-anchor="start" x="135" y="-67.5" font-family="Helvetica,sans-Serif" font-size="10.00">MatrixElementCache</text>
<text text-anchor="middle" x="185" y="-56.5" font-family="Helvetica,sans-Serif" font-size="10.00">::getElectricMultipole</text>
</a>
</g>
</g>
<!-- Node107&#45;&gt;Node108 -->
<g id="edge1" class="edge"><title>Node107&#45;&gt;Node108</title>
<path fill="none" stroke="midnightblue" d="M101.149,-49.4361C109.498,-50.9543 118.138,-52.5252 126.547,-54.0539"/>
<polygon fill="midnightblue" stroke="midnightblue" points="101.607,-45.9622 91.1423,-47.6168 100.355,-52.8493 101.607,-45.9622"/>
</g>
<!-- Node109 -->
<g id="node3" class="node"><title>Node109</title>
<g id="a_node3"><a xlink:href="classMatrixElementCache.html#aeef0496ad6db911dac50c0625660d9c0" target="_top" xlink:title="MatrixElementCache\l::getMagneticDipole">
<polygon fill="none" stroke="black" points="127,-0.5 127,-30.5 243,-30.5 243,-0.5 127,-0.5"/>
<text text-anchor="start" x="135" y="-18.5" font-family="Helvetica,sans-Serif" font-size="10.00">MatrixElementCache</text>
<text text-anchor="middle" x="185" y="-7.5" font-family="Helvetica,sans-Serif" font-size="10.00">::getMagneticDipole</text>
</a>
</g>
</g>
<!-- Node107&#45;&gt;Node109 -->
<g id="edge2" class="edge"><title>Node107&#45;&gt;Node109</title>
<path fill="none" stroke="midnightblue" d="M101.149,-29.9614C109.498,-28.5039 118.138,-26.9959 126.547,-25.5282"/>
<polygon fill="midnightblue" stroke="midnightblue" points="100.392,-26.5405 91.1423,-31.7079 101.595,-33.4362 100.392,-26.5405"/>
</g>
<!-- Node110 -->
<g id="node4" class="node"><title>Node110</title>
<g id="a_node4"><a xlink:href="classSystemOne.html#abf6d26d44765fa787251956c128644a7" target="_top" xlink:title="Method that allows base class to calculate the interaction /////. ">
<polygon fill="none" stroke="black" points="279,-6 279,-25 447,-25 447,-6 279,-6"/>
<text text-anchor="middle" x="363" y="-13" font-family="Helvetica,sans-Serif" font-size="10.00">SystemOne::initializeInteraction</text>
</a>
</g>
</g>
<!-- Node109&#45;&gt;Node110 -->
<g id="edge3" class="edge"><title>Node109&#45;&gt;Node110</title>
<path fill="none" stroke="midnightblue" d="M253.242,-15.5C261.65,-15.5 270.326,-15.5 278.938,-15.5"/>
<polygon fill="midnightblue" stroke="midnightblue" points="253.142,-12.0001 243.142,-15.5 253.142,-19.0001 253.142,-12.0001"/>
</g>
</g>
</svg>
