<?xml version="1.0" encoding="UTF-8" standalone="no"?>
<!DOCTYPE svg PUBLIC "-//W3C//DTD SVG 1.1//EN"
 "http://www.w3.org/Graphics/SVG/1.1/DTD/svg11.dtd">
<!-- Generated by graphviz version 2.38.0 (20140413.2041)
 -->
<!-- Title: StateOne::getLabel Pages: 1 -->
<svg width="268pt" height="66pt"
 viewBox="0.00 0.00 268.00 66.00" xmlns="http://www.w3.org/2000/svg" xmlns:xlink="http://www.w3.org/1999/xlink">
<g id="graph0" class="graph" transform="scale(1 1) rotate(0) translate(4 62)">
<title>StateOne::getLabel</title>
<!-- Node61 -->
<g id="node1" class="node"><title>Node61</title>
<polygon fill="#bfbfbf" stroke="black" points="0,-19.5 0,-38.5 110,-38.5 110,-19.5 0,-19.5"/>
<text text-anchor="middle" x="55" y="-26.5" font-family="Helvetica,sans-Serif" font-size="10.00">StateOne::getLabel</text>
</g>
<!-- Node62 -->
<g id="node2" class="node"><title>Node62</title>
<g id="a_node2"><a xlink:href="State_8cpp.html#ae62083584a93c249d0c3b4a6f046fee1" target="_top" xlink:title="operator\&lt;\&lt;">
<polygon fill="none" stroke="black" points="166,-38.5 166,-57.5 240,-57.5 240,-38.5 166,-38.5"/>
<text text-anchor="middle" x="203" y="-45.5" font-family="Helvetica,sans-Serif" font-size="10.00">operator&lt;&lt;</text>
</a>
</g>
</g>
<!-- Node61&#45;&gt;Node62 -->
<g id="edge1" class="edge"><title>Node61&#45;&gt;Node62</title>
<path fill="none" stroke="midnightblue" d="M120.465,-37.3893C135.995,-39.4102 152.047,-41.4992 165.758,-43.2835"/>
<polygon fill="midnightblue" stroke="midnightblue" points="120.733,-33.8947 110.365,-36.0749 119.83,-40.8362 120.733,-33.8947"/>
</g>
<!-- Node63 -->
<g id="node3" class="node"><title>Node63</title>
<g id="a_node3"><a xlink:href="classStateOne.html#a6fe40860d1683fb33cb4994c12ec4504" target="_top" xlink:title="StateOne::StateOne">
<polygon fill="none" stroke="black" points="146,-0.5 146,-19.5 260,-19.5 260,-0.5 146,-0.5"/>
<text text-anchor="middle" x="203" y="-7.5" font-family="Helvetica,sans-Serif" font-size="10.00">StateOne::StateOne</text>
</a>
</g>
</g>
<!-- Node61&#45;&gt;Node63 -->
<g id="edge2" class="edge"><title>Node61&#45;&gt;Node63</title>
<path fill="none" stroke="midnightblue" d="M120.484,-20.6082C128.867,-19.5173 137.401,-18.4067 145.637,-17.3349"/>
<polygon fill="midnightblue" stroke="midnightblue" points="119.83,-17.1638 110.365,-21.9251 120.733,-24.1053 119.83,-17.1638"/>
</g>
</g>
</svg>
