<?xml version="1.0" encoding="UTF-8" standalone="no"?>
<!DOCTYPE svg PUBLIC "-//W3C//DTD SVG 1.1//EN"
 "http://www.w3.org/Graphics/SVG/1.1/DTD/svg11.dtd">
<!-- Generated by graphviz version 2.38.0 (20140413.2041)
 -->
<!-- Title: StateTwoOld::second Pages: 1 -->
<!--zoomable 256 -->
<svg id="main" version="1.1" xmlns="http://www.w3.org/2000/svg" xmlns:xlink="http://www.w3.org/1999/xlink" xml:space="preserve" onload="init(evt)">
<style type="text/css"><![CDATA[
.edge:hover path { stroke: red; }
.edge:hover polygon { stroke: red; fill: red; }
]]></style>
<script type="text/javascript"><![CDATA[
var edges = document.getElementsByTagName('g');
if (edges && edges.length) {
  for (var i=0;i<edges.length;i++) {
    if (edges[i].id.substr(0,4)=='edge') {
      edges[i].setAttribute('class','edge');
    }
  }
}
]]></script>
        <defs>
                <circle id="rim" cx="0" cy="0" r="7"/>
                <circle id="rim2" cx="0" cy="0" r="3.5"/>
                <g id="zoomPlus">
                        <use xlink:href="#rim" fill="#404040">
                                <set attributeName="fill" to="#808080" begin="zoomplus.mouseover" end="zoomplus.mouseout"/>
                        </use>
                        <path d="M-4,0h8M0,-4v8" fill="none" stroke="white" stroke-width="1.5" pointer-events="none"/>
                </g>
                <g id="zoomMin">
                        <use xlink:href="#rim" fill="#404040">
                                <set attributeName="fill" to="#808080" begin="zoomminus.mouseover" end="zoomminus.mouseout"/>
                        </use>
                        <path d="M-4,0h8" fill="none" stroke="white" stroke-width="1.5" pointer-events="none"/>
                </g>
                <g id="dirArrow">
                        <path fill="none" stroke="white" stroke-width="1.5" d="M0,-3.0v7 M-2.5,-0.5L0,-3.0L2.5,-0.5"/>
                </g>
               <g id="resetDef">
                       <use xlink:href="#rim2" fill="#404040">
                               <set attributeName="fill" to="#808080" begin="reset.mouseover" end="reset.mouseout"/>
                       </use>
               </g>
        </defs>

<script type="text/javascript">
var viewWidth = 684;
var viewHeight = 256;
var sectionId = 'dynsection-11';
</script>
<script xlink:href="svgpan.js"/>
<svg id="graph" class="graph">
<g id="viewport">
<title>StateTwoOld::second</title>
<!-- Node74 -->
<g id="node1" class="node"><title>Node74</title>
<polygon fill="#bfbfbf" stroke="black" points="0,-114.5 0,-133.5 117,-133.5 117,-114.5 0,-114.5"/>
<text text-anchor="middle" x="58.5" y="-121.5" font-family="Helvetica,sans-Serif" font-size="10.00">StateTwoOld::second</text>
</g>
<!-- Node75 -->
<g id="node2" class="node"><title>Node75</title>
<g id="a_node2"><a xlink:href="classHamiltonianTwo.html#a6ca0a318f25170b69e571a07064a5afb" target="_top" xlink:title="HamiltonianTwo::calculate">
<polygon fill="none" stroke="black" points="153,-228.5 153,-247.5 294,-247.5 294,-228.5 153,-228.5"/>
<text text-anchor="middle" x="223.5" y="-235.5" font-family="Helvetica,sans-Serif" font-size="10.00">HamiltonianTwo::calculate</text>
</a>
</g>
</g>
<!-- Node74&#45;&gt;Node75 -->
<g id="edge1" class="edge"><title>Node74&#45;&gt;Node75</title>
<path fill="none" stroke="midnightblue" d="M73.3423,-141.274C90.2253,-161.312 120.551,-194.131 153,-214 162.798,-219.999 174.297,-224.747 185.089,-228.381"/>
<polygon fill="midnightblue" stroke="midnightblue" points="76.0274,-139.028 66.9628,-133.543 70.6286,-143.484 76.0274,-139.028"/>
</g>
<!-- Node77 -->
<g id="node4" class="node"><title>Node77</title>
<g id="a_node4"><a xlink:href="classBasisnamesOne.html#ab3030f74ccafcc178f38e7a8ada13b9b" target="_top" xlink:title="BasisnamesOne::fromBoth">
<polygon fill="none" stroke="black" points="344,-95.5 344,-114.5 490,-114.5 490,-95.5 344,-95.5"/>
<text text-anchor="middle" x="417" y="-102.5" font-family="Helvetica,sans-Serif" font-size="10.00">BasisnamesOne::fromBoth</text>
</a>
</g>
</g>
<!-- Node74&#45;&gt;Node77 -->
<g id="edge3" class="edge"><title>Node74&#45;&gt;Node77</title>
<path fill="none" stroke="midnightblue" d="M78.5379,-139.981C96.4518,-153.896 124.687,-173.05 153,-181 213.333,-197.941 233.749,-198.232 294,-181 339.825,-167.894 385.183,-132.039 405.261,-114.676"/>
<polygon fill="midnightblue" stroke="midnightblue" points="80.6124,-137.158 70.6179,-133.642 76.2385,-142.623 80.6124,-137.158"/>
</g>
<!-- Node80 -->
<g id="node7" class="node"><title>Node80</title>
<g id="a_node7"><a xlink:href="classStateTwoOld.html#a3ecab4e3ec45aa3cc8cfe60b2b46d5f6" target="_top" xlink:title="StateTwoOld::getEnergy">
<polygon fill="none" stroke="black" points="158,-152.5 158,-171.5 289,-171.5 289,-152.5 158,-152.5"/>
<text text-anchor="middle" x="223.5" y="-159.5" font-family="Helvetica,sans-Serif" font-size="10.00">StateTwoOld::getEnergy</text>
</a>
</g>
</g>
<!-- Node74&#45;&gt;Node80 -->
<g id="edge6" class="edge"><title>Node74&#45;&gt;Node80</title>
<path fill="none" stroke="midnightblue" d="M110.528,-135.896C133.439,-141.237 160.104,-147.454 181.664,-152.48"/>
<polygon fill="midnightblue" stroke="midnightblue" points="111.165,-132.451 100.632,-133.589 109.576,-139.268 111.165,-132.451"/>
</g>
<!-- Node81 -->
<g id="node8" class="node"><title>Node81</title>
<g id="a_node8"><a xlink:href="classStateTwoOld.html#ac0a094bb8d10a954236f3af605c0cbca" target="_top" xlink:title="StateTwoOld::getNStar">
<polygon fill="none" stroke="black" points="160.5,-114.5 160.5,-133.5 286.5,-133.5 286.5,-114.5 160.5,-114.5"/>
<text text-anchor="middle" x="223.5" y="-121.5" font-family="Helvetica,sans-Serif" font-size="10.00">StateTwoOld::getNStar</text>
</a>
</g>
</g>
<!-- Node74&#45;&gt;Node81 -->
<g id="edge7" class="edge"><title>Node74&#45;&gt;Node81</title>
<path fill="none" stroke="midnightblue" d="M127.683,-124C138.51,-124 149.66,-124 160.339,-124"/>
<polygon fill="midnightblue" stroke="midnightblue" points="127.427,-120.5 117.427,-124 127.427,-127.5 127.427,-120.5"/>
</g>
<!-- Node82 -->
<g id="node9" class="node"><title>Node82</title>
<g id="a_node9"><a xlink:href="classMatrixElements.html#a0bd2d4229fab692eb6b774fbff09cf83" target="_top" xlink:title="MatrixElements::getRadial">
<polygon fill="none" stroke="black" points="153,-76.5 153,-95.5 294,-95.5 294,-76.5 153,-76.5"/>
<text text-anchor="middle" x="223.5" y="-83.5" font-family="Helvetica,sans-Serif" font-size="10.00">MatrixElements::getRadial</text>
</a>
</g>
</g>
<!-- Node74&#45;&gt;Node82 -->
<g id="edge8" class="edge"><title>Node74&#45;&gt;Node82</title>
<path fill="none" stroke="midnightblue" d="M110.528,-112.104C133.439,-106.763 160.104,-100.546 181.664,-95.5201"/>
<polygon fill="midnightblue" stroke="midnightblue" points="109.576,-108.732 100.632,-114.411 111.165,-115.549 109.576,-108.732"/>
</g>
<!-- Node83 -->
<g id="node10" class="node"><title>Node83</title>
<g id="a_node10"><a xlink:href="classStateTwoOld.html#a905a5cdadb7ee2d0431aeba6004d40e5" target="_top" xlink:title="StateTwoOld::operator\&lt;">
<polygon fill="none" stroke="black" points="157.5,-38.5 157.5,-57.5 289.5,-57.5 289.5,-38.5 157.5,-38.5"/>
<text text-anchor="middle" x="223.5" y="-45.5" font-family="Helvetica,sans-Serif" font-size="10.00">StateTwoOld::operator&lt;</text>
</a>
</g>
</g>
<!-- Node74&#45;&gt;Node83 -->
<g id="edge9" class="edge"><title>Node74&#45;&gt;Node83</title>
<path fill="none" stroke="midnightblue" d="M80.7043,-108.683C99.0707,-96.0131 126.746,-78.3223 153,-67 161.5,-63.3344 170.893,-60.2004 179.952,-57.5969"/>
<polygon fill="midnightblue" stroke="midnightblue" points="78.6602,-105.841 72.4829,-114.449 82.6798,-111.572 78.6602,-105.841"/>
</g>
<!-- Node84 -->
<g id="node11" class="node"><title>Node84</title>
<g id="a_node11"><a xlink:href="classStateTwoOld.html#a1d7ff079f51711e8a6f40946e5677be8" target="_top" xlink:title="StateTwoOld::order">
<polygon fill="none" stroke="black" points="169.5,-0.5 169.5,-19.5 277.5,-19.5 277.5,-0.5 169.5,-0.5"/>
<text text-anchor="middle" x="223.5" y="-7.5" font-family="Helvetica,sans-Serif" font-size="10.00">StateTwoOld::order</text>
</a>
</g>
</g>
<!-- Node74&#45;&gt;Node84 -->
<g id="edge10" class="edge"><title>Node74&#45;&gt;Node84</title>
<path fill="none" stroke="midnightblue" d="M72.3947,-106.011C88.7432,-84.5178 118.934,-48.9646 153,-29 159.583,-25.1419 166.975,-22.0436 174.416,-19.5622"/>
<polygon fill="midnightblue" stroke="midnightblue" points="69.4112,-104.158 66.2648,-114.275 75.0334,-108.329 69.4112,-104.158"/>
</g>
<!-- Node76 -->
<g id="node3" class="node"><title>Node76</title>
<g id="a_node3"><a xlink:href="classHamiltonianTwo.html#abd374713c9b38f72265c7fe496c42b96" target="_top" xlink:title="HamiltonianTwo::HamiltonianTwo">
<polygon fill="none" stroke="black" points="330,-228.5 330,-247.5 504,-247.5 504,-228.5 330,-228.5"/>
<text text-anchor="middle" x="417" y="-235.5" font-family="Helvetica,sans-Serif" font-size="10.00">HamiltonianTwo::HamiltonianTwo</text>
</a>
</g>
</g>
<!-- Node75&#45;&gt;Node76 -->
<g id="edge2" class="edge"><title>Node75&#45;&gt;Node76</title>
<path fill="none" stroke="midnightblue" d="M304.313,-238C312.705,-238 321.265,-238 329.726,-238"/>
<polygon fill="midnightblue" stroke="midnightblue" points="304.178,-234.5 294.178,-238 304.178,-241.5 304.178,-234.5"/>
</g>
<!-- Node78 -->
<g id="node5" class="node"><title>Node78</title>
<g id="a_node5"><a xlink:href="Interface_8h.html#ad478f0b9610586a2ae8066c78b6d3f96" target="_top" xlink:title="compute">
<polygon fill="none" stroke="black" points="540,-95.5 540,-114.5 599,-114.5 599,-95.5 540,-95.5"/>
<text text-anchor="middle" x="569.5" y="-102.5" font-family="Helvetica,sans-Serif" font-size="10.00">compute</text>
</a>
</g>
</g>
<!-- Node77&#45;&gt;Node78 -->
<g id="edge4" class="edge"><title>Node77&#45;&gt;Node78</title>
<path fill="none" stroke="midnightblue" d="M500.505,-105C514.661,-105 528.472,-105 539.909,-105"/>
<polygon fill="midnightblue" stroke="midnightblue" points="500.164,-101.5 490.164,-105 500.164,-108.5 500.164,-101.5"/>
</g>
<!-- Node79 -->
<g id="node6" class="node"><title>Node79</title>
<g id="a_node6"><a xlink:href="main_8cpp.html#a3c04138a5bfe5d72780bb7e82a18e627" target="_top" xlink:title="main">
<polygon fill="none" stroke="black" points="635,-95.5 635,-114.5 676,-114.5 676,-95.5 635,-95.5"/>
<text text-anchor="middle" x="655.5" y="-102.5" font-family="Helvetica,sans-Serif" font-size="10.00">main</text>
</a>
</g>
</g>
<!-- Node78&#45;&gt;Node79 -->
<g id="edge5" class="edge"><title>Node78&#45;&gt;Node79</title>
<path fill="none" stroke="midnightblue" d="M609.522,-105C618.284,-105 627.22,-105 634.794,-105"/>
<polygon fill="midnightblue" stroke="midnightblue" points="609.408,-101.5 599.408,-105 609.408,-108.5 609.408,-101.5"/>
</g>
<!-- Node84&#45;&gt;Node77 -->
<g id="edge11" class="edge"><title>Node84&#45;&gt;Node77</title>
<path fill="none" stroke="midnightblue" d="M276.91,-22.5571C282.762,-24.4788 288.566,-26.6254 294,-29 336.76,-47.686 382.147,-79.6254 403.508,-95.4852"/>
<polygon fill="midnightblue" stroke="midnightblue" points="277.661,-19.1265 267.075,-19.5347 275.605,-25.8177 277.661,-19.1265"/>
</g>
</g>
</svg>
        <g id="navigator" transform="translate(0 0)" fill="#404254">
                <rect fill="#f2f5e9" fill-opacity="0.5" stroke="#606060" stroke-width=".5" x="0" y="0" width="60" height="60"/>
                <use id="zoomplus" xlink:href="#zoomPlus" x="17" y="9" onmousedown="handleZoom(evt,'in')"/>
                <use id="zoomminus" xlink:href="#zoomMin" x="42" y="9" onmousedown="handleZoom(evt,'out')"/>
                <use id="reset" xlink:href="#resetDef" x="30" y="36" onmousedown="handleReset()"/>
                <g id="arrowUp" xlink:href="#dirArrow" transform="translate(30 24)" onmousedown="handlePan(0,-1)">
                  <use xlink:href="#rim" fill="#404040">
                        <set attributeName="fill" to="#808080" begin="arrowUp.mouseover" end="arrowUp.mouseout"/>
                  </use>
                  <path fill="none" stroke="white" stroke-width="1.5" d="M0,-3.0v7 M-2.5,-0.5L0,-3.0L2.5,-0.5"/>
                </g>
                <g id="arrowRight" xlink:href="#dirArrow" transform="rotate(90) translate(36 -43)" onmousedown="handlePan(1,0)">
                  <use xlink:href="#rim" fill="#404040">
                        <set attributeName="fill" to="#808080" begin="arrowRight.mouseover" end="arrowRight.mouseout"/>
                  </use>
                  <path fill="none" stroke="white" stroke-width="1.5" d="M0,-3.0v7 M-2.5,-0.5L0,-3.0L2.5,-0.5"/>
                </g>
                <g id="arrowDown" xlink:href="#dirArrow" transform="rotate(180) translate(-30 -48)" onmousedown="handlePan(0,1)">
                  <use xlink:href="#rim" fill="#404040">
                        <set attributeName="fill" to="#808080" begin="arrowDown.mouseover" end="arrowDown.mouseout"/>
                  </use>
                  <path fill="none" stroke="white" stroke-width="1.5" d="M0,-3.0v7 M-2.5,-0.5L0,-3.0L2.5,-0.5"/>
                </g>
                <g id="arrowLeft" xlink:href="#dirArrow" transform="rotate(270) translate(-36 17)" onmousedown="handlePan(-1,0)">
                  <use xlink:href="#rim" fill="#404040">
                        <set attributeName="fill" to="#808080" begin="arrowLeft.mouseover" end="arrowLeft.mouseout"/>
                  </use>
                  <path fill="none" stroke="white" stroke-width="1.5" d="M0,-3.0v7 M-2.5,-0.5L0,-3.0L2.5,-0.5"/>
                </g>
        </g>
        <svg viewBox="0 0 15 15" width="100%" height="30px" preserveAspectRatio="xMaxYMin meet">
         <g id="arrow_out" transform="scale(0.3 0.3)">
          <a xlink:href="classStateTwoOld_a6efa9c8f92e433004b778f6f5ce212d9_icgraph_org.svg" target="_base">
           <rect id="button" ry="5" rx="5" y="6" x="6" height="38" width="38"
                fill="#f2f5e9" fill-opacity="0.5" stroke="#606060" stroke-width="1.0"/>
           <path id="arrow"
             d="M 11.500037,31.436501 C 11.940474,20.09759 22.043105,11.32322 32.158766,21.979434 L 37.068811,17.246167 C 37.068811,17.246167 37.088388,32 37.088388,32 L 22.160133,31.978069 C 22.160133,31.978069 26.997745,27.140456 26.997745,27.140456 C 18.528582,18.264221 13.291696,25.230495 11.500037,31.436501 z"
             style="fill:#404040;"/>
          </a>
         </g>
        </svg>
</svg>
