<?xml version="1.0" encoding="UTF-8" standalone="no"?>
<!DOCTYPE svg PUBLIC "-//W3C//DTD SVG 1.1//EN"
 "http://www.w3.org/Graphics/SVG/1.1/DTD/svg11.dtd">
<!-- Generated by graphviz version 2.38.0 (20140413.2041)
 -->
<!-- Title: StateOneOld Pages: 1 -->
<svg width="234pt" height="184pt"
 viewBox="0.00 0.00 233.50 184.00" xmlns="http://www.w3.org/2000/svg" xmlns:xlink="http://www.w3.org/1999/xlink">
<g id="graph0" class="graph" transform="scale(1 1) rotate(0) translate(4 180)">
<title>StateOneOld</title>
<!-- Node2 -->
<g id="node1" class="node"><title>Node2</title>
<polygon fill="#bfbfbf" stroke="black" points="83.5,-0.5 83.5,-19.5 161.5,-19.5 161.5,-0.5 83.5,-0.5"/>
<text text-anchor="middle" x="122.5" y="-7.5" font-family="Helvetica,sans-Serif" font-size="10.00">StateOneOld</text>
</g>
<!-- Node3 -->
<g id="node2" class="node"><title>Node3</title>
<g id="a_node2"><a xlink:href="classStateOld.html" target="_top" xlink:title="Base class for states ">
<polygon fill="none" stroke="black" points="0,-89.5 0,-108.5 59,-108.5 59,-89.5 0,-89.5"/>
<text text-anchor="middle" x="29.5" y="-96.5" font-family="Helvetica,sans-Serif" font-size="10.00">StateOld</text>
</a>
</g>
</g>
<!-- Node3&#45;&gt;Node2 -->
<g id="edge1" class="edge"><title>Node3&#45;&gt;Node2</title>
<path fill="none" stroke="midnightblue" d="M46.0853,-82.4847C65.6951,-64.1401 97.6386,-34.2574 113.28,-19.6249"/>
<polygon fill="midnightblue" stroke="midnightblue" points="43.6689,-79.9525 38.7572,-89.34 48.451,-85.0644 43.6689,-79.9525"/>
</g>
<!-- Node4 -->
<g id="node3" class="node"><title>Node4</title>
<polygon fill="none" stroke="#bfbfbf" points="1.5,-156.5 1.5,-175.5 57.5,-175.5 57.5,-156.5 1.5,-156.5"/>
<text text-anchor="middle" x="29.5" y="-163.5" font-family="Helvetica,sans-Serif" font-size="10.00">uint32_t</text>
</g>
<!-- Node4&#45;&gt;Node3 -->
<g id="edge2" class="edge"><title>Node4&#45;&gt;Node3</title>
<path fill="none" stroke="#9a32cd" stroke-dasharray="5,2" d="M29.5,-146.037C29.5,-133.67 29.5,-118.12 29.5,-108.627"/>
<polygon fill="#9a32cd" stroke="#9a32cd" points="26.0001,-146.234 29.5,-156.234 33.0001,-146.234 26.0001,-146.234"/>
<text text-anchor="middle" x="38" y="-130" font-family="Helvetica,sans-Serif" font-size="10.00"> idx</text>
</g>
<!-- Node5 -->
<g id="node4" class="node"><title>Node5</title>
<polygon fill="none" stroke="#bfbfbf" points="77.5,-89.5 77.5,-108.5 115.5,-108.5 115.5,-89.5 77.5,-89.5"/>
<text text-anchor="middle" x="96.5" y="-96.5" font-family="Helvetica,sans-Serif" font-size="10.00">float</text>
</g>
<!-- Node5&#45;&gt;Node2 -->
<g id="edge3" class="edge"><title>Node5&#45;&gt;Node2</title>
<path fill="none" stroke="#9a32cd" stroke-dasharray="5,2" d="M101.965,-79.7146C107.481,-61.2547 115.763,-33.542 119.922,-19.6249"/>
<polygon fill="#9a32cd" stroke="#9a32cd" points="98.598,-78.7565 99.088,-89.34 105.305,-80.761 98.598,-78.7565"/>
<text text-anchor="middle" x="119.5" y="-63" font-family="Helvetica,sans-Serif" font-size="10.00"> j</text>
<text text-anchor="middle" x="119.5" y="-52" font-family="Helvetica,sans-Serif" font-size="10.00">m</text>
<text text-anchor="middle" x="119.5" y="-41" font-family="Helvetica,sans-Serif" font-size="10.00">s</text>
</g>
<!-- Node6 -->
<g id="node5" class="node"><title>Node6</title>
<g id="a_node5"><a xlink:href="classint.html" target="_top" xlink:title="int">
<polygon fill="none" stroke="black" points="134,-89.5 134,-108.5 163,-108.5 163,-89.5 134,-89.5"/>
<text text-anchor="middle" x="148.5" y="-96.5" font-family="Helvetica,sans-Serif" font-size="10.00">int</text>
</a>
</g>
</g>
<!-- Node6&#45;&gt;Node2 -->
<g id="edge4" class="edge"><title>Node6&#45;&gt;Node2</title>
<path fill="none" stroke="#9a32cd" stroke-dasharray="5,2" d="M143.035,-79.7146C137.519,-61.2547 129.237,-33.542 125.078,-19.6249"/>
<polygon fill="#9a32cd" stroke="#9a32cd" points="139.695,-80.761 145.912,-89.34 146.402,-78.7565 139.695,-80.761"/>
<text text-anchor="middle" x="144" y="-57.5" font-family="Helvetica,sans-Serif" font-size="10.00"> l</text>
<text text-anchor="middle" x="144" y="-46.5" font-family="Helvetica,sans-Serif" font-size="10.00">n</text>
</g>
<!-- Node7 -->
<g id="node6" class="node"><title>Node7</title>
<polygon fill="none" stroke="#bfbfbf" points="181.5,-89.5 181.5,-108.5 225.5,-108.5 225.5,-89.5 181.5,-89.5"/>
<text text-anchor="middle" x="203.5" y="-96.5" font-family="Helvetica,sans-Serif" font-size="10.00">string</text>
</g>
<!-- Node7&#45;&gt;Node2 -->
<g id="edge5" class="edge"><title>Node7&#45;&gt;Node2</title>
<path fill="none" stroke="#9a32cd" stroke-dasharray="5,2" d="M189.754,-81.1842C179.528,-68.9158 165.056,-52.0477 151.5,-38 145.29,-31.565 137.909,-24.7029 132.147,-19.507"/>
<polygon fill="#9a32cd" stroke="#9a32cd" points="187.307,-83.7185 196.375,-89.1985 192.704,-79.26 187.307,-83.7185"/>
<text text-anchor="middle" x="200.5" y="-57.5" font-family="Helvetica,sans-Serif" font-size="10.00"> species</text>
<text text-anchor="middle" x="200.5" y="-46.5" font-family="Helvetica,sans-Serif" font-size="10.00">element</text>
</g>
</g>
</svg>
