<?xml version="1.0" encoding="UTF-8" standalone="no"?>
<!DOCTYPE svg PUBLIC "-//W3C//DTD SVG 1.1//EN"
 "http://www.w3.org/Graphics/SVG/1.1/DTD/svg11.dtd">
<!-- Generated by graphviz version 2.38.0 (20140413.2041)
 -->
<!-- Title: Hamiltonianmatrix::basis Pages: 1 -->
<!--zoomable 186 -->
<svg id="main" version="1.1" xmlns="http://www.w3.org/2000/svg" xmlns:xlink="http://www.w3.org/1999/xlink" xml:space="preserve" onload="init(evt)">
<style type="text/css"><![CDATA[
.edge:hover path { stroke: red; }
.edge:hover polygon { stroke: red; fill: red; }
]]></style>
<script type="text/javascript"><![CDATA[
var edges = document.getElementsByTagName('g');
if (edges && edges.length) {
  for (var i=0;i<edges.length;i++) {
    if (edges[i].id.substr(0,4)=='edge') {
      edges[i].setAttribute('class','edge');
    }
  }
}
]]></script>
        <defs>
                <circle id="rim" cx="0" cy="0" r="7"/>
                <circle id="rim2" cx="0" cy="0" r="3.5"/>
                <g id="zoomPlus">
                        <use xlink:href="#rim" fill="#404040">
                                <set attributeName="fill" to="#808080" begin="zoomplus.mouseover" end="zoomplus.mouseout"/>
                        </use>
                        <path d="M-4,0h8M0,-4v8" fill="none" stroke="white" stroke-width="1.5" pointer-events="none"/>
                </g>
                <g id="zoomMin">
                        <use xlink:href="#rim" fill="#404040">
                                <set attributeName="fill" to="#808080" begin="zoomminus.mouseover" end="zoomminus.mouseout"/>
                        </use>
                        <path d="M-4,0h8" fill="none" stroke="white" stroke-width="1.5" pointer-events="none"/>
                </g>
                <g id="dirArrow">
                        <path fill="none" stroke="white" stroke-width="1.5" d="M0,-3.0v7 M-2.5,-0.5L0,-3.0L2.5,-0.5"/>
                </g>
               <g id="resetDef">
                       <use xlink:href="#rim2" fill="#404040">
                               <set attributeName="fill" to="#808080" begin="reset.mouseover" end="reset.mouseout"/>
                       </use>
               </g>
        </defs>

<script type="text/javascript">
var viewWidth = 656;
var viewHeight = 186;
var sectionId = 'dynsection-7';
</script>
<script xlink:href="svgpan.js"/>
<svg id="graph" class="graph">
<g id="viewport">
<title>Hamiltonianmatrix::basis</title>
<!-- Node32 -->
<g id="node1" class="node"><title>Node32</title>
<polygon fill="#bfbfbf" stroke="black" points="0,-82.5 0,-112.5 111,-112.5 111,-82.5 0,-82.5"/>
<text text-anchor="start" x="8" y="-100.5" font-family="Helvetica,sans-Serif" font-size="10.00">Hamiltonianmatrix::</text>
<text text-anchor="middle" x="55.5" y="-89.5" font-family="Helvetica,sans-Serif" font-size="10.00">basis</text>
</g>
<!-- Node33 -->
<g id="node2" class="node"><title>Node33</title>
<g id="a_node2"><a xlink:href="classHamiltonianTwo.html#a6ca0a318f25170b69e571a07064a5afb" target="_top" xlink:title="HamiltonianTwo::calculate">
<polygon fill="none" stroke="black" points="294,-88 294,-107 435,-107 435,-88 294,-88"/>
<text text-anchor="middle" x="364.5" y="-95" font-family="Helvetica,sans-Serif" font-size="10.00">HamiltonianTwo::calculate</text>
</a>
</g>
</g>
<!-- Node32&#45;&gt;Node33 -->
<g id="edge1" class="edge"><title>Node32&#45;&gt;Node33</title>
<path fill="none" stroke="midnightblue" d="M77.2393,-119.764C94.1876,-136.216 119.729,-157.29 147,-166.5 193.74,-182.286 210.721,-180.588 258,-166.5 297.431,-154.75 335.845,-123.046 353.47,-107.032"/>
<polygon fill="midnightblue" stroke="midnightblue" points="79.6222,-117.197 70.0816,-112.59 74.6667,-122.141 79.6222,-117.197"/>
</g>
<!-- Node35 -->
<g id="node4" class="node"><title>Node35</title>
<g id="a_node4"><a xlink:href="classHamiltonianmatrix.html#a310f8a7bc796d0b431928b82f2d11285" target="_top" xlink:title="Hamiltonianmatrix::\lchangeBasis">
<polygon fill="none" stroke="black" points="147,-126.5 147,-156.5 258,-156.5 258,-126.5 147,-126.5"/>
<text text-anchor="start" x="155" y="-144.5" font-family="Helvetica,sans-Serif" font-size="10.00">Hamiltonianmatrix::</text>
<text text-anchor="middle" x="202.5" y="-133.5" font-family="Helvetica,sans-Serif" font-size="10.00">changeBasis</text>
</a>
</g>
</g>
<!-- Node32&#45;&gt;Node35 -->
<g id="edge3" class="edge"><title>Node32&#45;&gt;Node35</title>
<path fill="none" stroke="midnightblue" d="M115.861,-115.513C127.778,-119.129 140.185,-122.894 151.736,-126.399"/>
<polygon fill="midnightblue" stroke="midnightblue" points="116.581,-112.074 105.995,-112.519 114.548,-118.772 116.581,-112.074"/>
</g>
<!-- Node36 -->
<g id="node5" class="node"><title>Node36</title>
<g id="a_node5"><a xlink:href="Hamiltonianmatrix_8cpp.html#ae139c21d132020dde7c86db8efc751e1" target="_top" xlink:title="combine">
<polygon fill="none" stroke="black" points="173.5,-88 173.5,-107 231.5,-107 231.5,-88 173.5,-88"/>
<text text-anchor="middle" x="202.5" y="-95" font-family="Helvetica,sans-Serif" font-size="10.00">combine</text>
</a>
</g>
</g>
<!-- Node32&#45;&gt;Node36 -->
<g id="edge5" class="edge"><title>Node32&#45;&gt;Node36</title>
<path fill="none" stroke="midnightblue" d="M121.37,-97.5C139.637,-97.5 158.558,-97.5 173.424,-97.5"/>
<polygon fill="midnightblue" stroke="midnightblue" points="121.318,-94.0001 111.318,-97.5 121.318,-101 121.318,-94.0001"/>
</g>
<!-- Node37 -->
<g id="node6" class="node"><title>Node37</title>
<g id="a_node6"><a xlink:href="classHamiltonianmatrix.html#a1db6d20a1d88ef89f1acdad819af34ee" target="_top" xlink:title="Hamiltonianmatrix::\ldiagonalize">
<polygon fill="none" stroke="black" points="147,-0.5 147,-30.5 258,-30.5 258,-0.5 147,-0.5"/>
<text text-anchor="start" x="155" y="-18.5" font-family="Helvetica,sans-Serif" font-size="10.00">Hamiltonianmatrix::</text>
<text text-anchor="middle" x="202.5" y="-7.5" font-family="Helvetica,sans-Serif" font-size="10.00">diagonalize</text>
</a>
</g>
</g>
<!-- Node32&#45;&gt;Node37 -->
<g id="edge7" class="edge"><title>Node32&#45;&gt;Node37</title>
<path fill="none" stroke="midnightblue" d="M87.2307,-76.7256C104.469,-65.4363 126.558,-51.5636 147,-40.5 153.317,-37.0812 160.188,-33.6891 166.855,-30.5578"/>
<polygon fill="midnightblue" stroke="midnightblue" points="85.1079,-73.933 78.693,-82.3651 88.9661,-79.7738 85.1079,-73.933"/>
</g>
<!-- Node40 -->
<g id="node9" class="node"><title>Node40</title>
<g id="a_node9"><a xlink:href="Hamiltonianmatrix_8cpp.html#a678b50f9b12e7a3fa69970554dd5d206" target="_top" xlink:title="energycutoff">
<polygon fill="none" stroke="black" points="164,-50 164,-69 241,-69 241,-50 164,-50"/>
<text text-anchor="middle" x="202.5" y="-57" font-family="Helvetica,sans-Serif" font-size="10.00">energycutoff</text>
</a>
</g>
</g>
<!-- Node32&#45;&gt;Node40 -->
<g id="edge11" class="edge"><title>Node32&#45;&gt;Node40</title>
<path fill="none" stroke="midnightblue" d="M121.124,-80.5641C136.188,-76.6162 151.712,-72.548 165.051,-69.0522"/>
<polygon fill="midnightblue" stroke="midnightblue" points="120.104,-77.213 111.318,-83.1338 121.879,-83.9843 120.104,-77.213"/>
</g>
<!-- Node34 -->
<g id="node3" class="node"><title>Node34</title>
<g id="a_node3"><a xlink:href="classHamiltonianTwo.html#abd374713c9b38f72265c7fe496c42b96" target="_top" xlink:title="HamiltonianTwo::HamiltonianTwo">
<polygon fill="none" stroke="black" points="472.5,-88 472.5,-107 646.5,-107 646.5,-88 472.5,-88"/>
<text text-anchor="middle" x="559.5" y="-95" font-family="Helvetica,sans-Serif" font-size="10.00">HamiltonianTwo::HamiltonianTwo</text>
</a>
</g>
</g>
<!-- Node33&#45;&gt;Node34 -->
<g id="edge2" class="edge"><title>Node33&#45;&gt;Node34</title>
<path fill="none" stroke="midnightblue" d="M445.217,-97.5C454.2,-97.5 463.383,-97.5 472.442,-97.5"/>
<polygon fill="midnightblue" stroke="midnightblue" points="445.177,-94.0001 435.177,-97.5 445.177,-101 445.177,-94.0001"/>
</g>
<!-- Node35&#45;&gt;Node33 -->
<g id="edge4" class="edge"><title>Node35&#45;&gt;Node33</title>
<path fill="none" stroke="midnightblue" d="M267.852,-123.803C288.628,-118.09 310.868,-111.974 328.67,-107.078"/>
<polygon fill="midnightblue" stroke="midnightblue" points="266.829,-120.454 258.115,-126.481 268.686,-127.204 266.829,-120.454"/>
</g>
<!-- Node36&#45;&gt;Node33 -->
<g id="edge6" class="edge"><title>Node36&#45;&gt;Node33</title>
<path fill="none" stroke="midnightblue" d="M242.029,-97.5C257.632,-97.5 276.145,-97.5 293.953,-97.5"/>
<polygon fill="midnightblue" stroke="midnightblue" points="241.737,-94.0001 231.736,-97.5 241.736,-101 241.737,-94.0001"/>
</g>
<!-- Node37&#45;&gt;Node33 -->
<g id="edge10" class="edge"><title>Node37&#45;&gt;Node33</title>
<path fill="none" stroke="midnightblue" d="M246.485,-34.8987C250.394,-36.759 254.28,-38.6442 258,-40.5 289.67,-56.2979 325.801,-76.25 346.503,-87.8725"/>
<polygon fill="midnightblue" stroke="midnightblue" points="247.927,-31.7094 237.387,-30.6289 244.953,-38.0461 247.927,-31.7094"/>
</g>
<!-- Node38 -->
<g id="node7" class="node"><title>Node38</title>
<g id="a_node7"><a xlink:href="classHamiltonianOne.html#a9cb71dcb34ab9f0779c0bd66b758185e" target="_top" xlink:title="HamiltonianOne::build">
<polygon fill="none" stroke="black" points="303.5,-6 303.5,-25 425.5,-25 425.5,-6 303.5,-6"/>
<text text-anchor="middle" x="364.5" y="-13" font-family="Helvetica,sans-Serif" font-size="10.00">HamiltonianOne::build</text>
</a>
</g>
</g>
<!-- Node37&#45;&gt;Node38 -->
<g id="edge8" class="edge"><title>Node37&#45;&gt;Node38</title>
<path fill="none" stroke="midnightblue" d="M268.189,-15.5C279.813,-15.5 291.885,-15.5 303.373,-15.5"/>
<polygon fill="midnightblue" stroke="midnightblue" points="268.115,-12.0001 258.115,-15.5 268.115,-19.0001 268.115,-12.0001"/>
</g>
<!-- Node39 -->
<g id="node8" class="node"><title>Node39</title>
<g id="a_node8"><a xlink:href="classHamiltonianOne.html#ad3ba2d70879a60c9f065b5a2545dfe36" target="_top" xlink:title="HamiltonianOne::HamiltonianOne">
<polygon fill="none" stroke="black" points="471,-6 471,-25 648,-25 648,-6 471,-6"/>
<text text-anchor="middle" x="559.5" y="-13" font-family="Helvetica,sans-Serif" font-size="10.00">HamiltonianOne::HamiltonianOne</text>
</a>
</g>
</g>
<!-- Node38&#45;&gt;Node39 -->
<g id="edge9" class="edge"><title>Node38&#45;&gt;Node39</title>
<path fill="none" stroke="midnightblue" d="M435.812,-15.5C447.215,-15.5 459.146,-15.5 470.899,-15.5"/>
<polygon fill="midnightblue" stroke="midnightblue" points="435.508,-12.0001 425.508,-15.5 435.508,-19.0001 435.508,-12.0001"/>
</g>
<!-- Node40&#45;&gt;Node33 -->
<g id="edge12" class="edge"><title>Node40&#45;&gt;Node33</title>
<path fill="none" stroke="midnightblue" d="M250.935,-70.7659C274.001,-76.244 301.422,-82.7566 323.425,-87.9822"/>
<polygon fill="midnightblue" stroke="midnightblue" points="251.551,-67.3148 241.013,-68.4093 249.933,-74.1254 251.551,-67.3148"/>
</g>
</g>
</svg>
        <g id="navigator" transform="translate(0 0)" fill="#404254">
                <rect fill="#f2f5e9" fill-opacity="0.5" stroke="#606060" stroke-width=".5" x="0" y="0" width="60" height="60"/>
                <use id="zoomplus" xlink:href="#zoomPlus" x="17" y="9" onmousedown="handleZoom(evt,'in')"/>
                <use id="zoomminus" xlink:href="#zoomMin" x="42" y="9" onmousedown="handleZoom(evt,'out')"/>
                <use id="reset" xlink:href="#resetDef" x="30" y="36" onmousedown="handleReset()"/>
                <g id="arrowUp" xlink:href="#dirArrow" transform="translate(30 24)" onmousedown="handlePan(0,-1)">
                  <use xlink:href="#rim" fill="#404040">
                        <set attributeName="fill" to="#808080" begin="arrowUp.mouseover" end="arrowUp.mouseout"/>
                  </use>
                  <path fill="none" stroke="white" stroke-width="1.5" d="M0,-3.0v7 M-2.5,-0.5L0,-3.0L2.5,-0.5"/>
                </g>
                <g id="arrowRight" xlink:href="#dirArrow" transform="rotate(90) translate(36 -43)" onmousedown="handlePan(1,0)">
                  <use xlink:href="#rim" fill="#404040">
                        <set attributeName="fill" to="#808080" begin="arrowRight.mouseover" end="arrowRight.mouseout"/>
                  </use>
                  <path fill="none" stroke="white" stroke-width="1.5" d="M0,-3.0v7 M-2.5,-0.5L0,-3.0L2.5,-0.5"/>
                </g>
                <g id="arrowDown" xlink:href="#dirArrow" transform="rotate(180) translate(-30 -48)" onmousedown="handlePan(0,1)">
                  <use xlink:href="#rim" fill="#404040">
                        <set attributeName="fill" to="#808080" begin="arrowDown.mouseover" end="arrowDown.mouseout"/>
                  </use>
                  <path fill="none" stroke="white" stroke-width="1.5" d="M0,-3.0v7 M-2.5,-0.5L0,-3.0L2.5,-0.5"/>
                </g>
                <g id="arrowLeft" xlink:href="#dirArrow" transform="rotate(270) translate(-36 17)" onmousedown="handlePan(-1,0)">
                  <use xlink:href="#rim" fill="#404040">
                        <set attributeName="fill" to="#808080" begin="arrowLeft.mouseover" end="arrowLeft.mouseout"/>
                  </use>
                  <path fill="none" stroke="white" stroke-width="1.5" d="M0,-3.0v7 M-2.5,-0.5L0,-3.0L2.5,-0.5"/>
                </g>
        </g>
        <svg viewBox="0 0 15 15" width="100%" height="30px" preserveAspectRatio="xMaxYMin meet">
         <g id="arrow_out" transform="scale(0.3 0.3)">
          <a xlink:href="classHamiltonianmatrix_ab0f42b034579983088548dd6dd4e1e78_icgraph_org.svg" target="_base">
           <rect id="button" ry="5" rx="5" y="6" x="6" height="38" width="38"
                fill="#f2f5e9" fill-opacity="0.5" stroke="#606060" stroke-width="1.0"/>
           <path id="arrow"
             d="M 11.500037,31.436501 C 11.940474,20.09759 22.043105,11.32322 32.158766,21.979434 L 37.068811,17.246167 C 37.068811,17.246167 37.088388,32 37.088388,32 L 22.160133,31.978069 C 22.160133,31.978069 26.997745,27.140456 26.997745,27.140456 C 18.528582,18.264221 13.291696,25.230495 11.500037,31.436501 z"
             style="fill:#404040;"/>
          </a>
         </g>
        </svg>
</svg>
