<?xml version="1.0" encoding="UTF-8" standalone="no"?>
<!DOCTYPE svg PUBLIC "-//W3C//DTD SVG 1.1//EN"
 "http://www.w3.org/Graphics/SVG/1.1/DTD/svg11.dtd">
<!-- Generated by graphviz version 2.38.0 (20140413.2041)
 -->
<!-- Title: PerturbativeInteraction::getC6 Pages: 1 -->
<svg width="467pt" height="154pt"
 viewBox="0.00 0.00 467.00 153.50" xmlns="http://www.w3.org/2000/svg" xmlns:xlink="http://www.w3.org/1999/xlink">
<g id="graph0" class="graph" transform="scale(1 1) rotate(0) translate(4 149.5)">
<title>PerturbativeInteraction::getC6</title>
<!-- Node21 -->
<g id="node1" class="node"><title>Node21</title>
<polygon fill="#bfbfbf" stroke="black" points="0,-52 0,-82 126,-82 126,-52 0,-52"/>
<text text-anchor="start" x="8" y="-70" font-family="Helvetica,sans-Serif" font-size="10.00">PerturbativeInteraction</text>
<text text-anchor="middle" x="63" y="-59" font-family="Helvetica,sans-Serif" font-size="10.00">::getC6</text>
</g>
<!-- Node22 -->
<g id="node2" class="node"><title>Node22</title>
<g id="a_node2"><a xlink:href="classMatrixElementCache.html#ac6191cd01c85dd9cf28a373b524f0b1b" target="_top" xlink:title="Get matrix elements ////////////////////////////////////////////. ">
<polygon fill="none" stroke="black" points="176.5,-115 176.5,-145 292.5,-145 292.5,-115 176.5,-115"/>
<text text-anchor="start" x="184.5" y="-133" font-family="Helvetica,sans-Serif" font-size="10.00">MatrixElementCache</text>
<text text-anchor="middle" x="234.5" y="-122" font-family="Helvetica,sans-Serif" font-size="10.00">::getElectricDipole</text>
</a>
</g>
</g>
<!-- Node21&#45;&gt;Node22 -->
<g id="edge1" class="edge"><title>Node21&#45;&gt;Node22</title>
<path fill="none" stroke="midnightblue" d="M102.05,-82.0958C120.155,-89.1907 142.138,-97.6793 162,-105 167.83,-107.149 173.944,-109.356 180.038,-111.527"/>
<polygon fill="midnightblue" stroke="midnightblue" points="178.959,-114.858 189.554,-114.895 181.295,-108.259 178.959,-114.858"/>
</g>
<!-- Node24 -->
<g id="node4" class="node"><title>Node24</title>
<g id="a_node4"><a xlink:href="classStateTwo.html#a3f9e530a17bed5048f16653dcd9c7991" target="_top" xlink:title="StateTwo::getEnergy">
<polygon fill="none" stroke="black" points="176.5,-76.5 176.5,-95.5 292.5,-95.5 292.5,-76.5 176.5,-76.5"/>
<text text-anchor="middle" x="234.5" y="-83.5" font-family="Helvetica,sans-Serif" font-size="10.00">StateTwo::getEnergy</text>
</a>
</g>
</g>
<!-- Node21&#45;&gt;Node24 -->
<g id="edge3" class="edge"><title>Node21&#45;&gt;Node24</title>
<path fill="none" stroke="midnightblue" d="M126.153,-73.967C139.254,-75.4355 153.131,-76.9911 166.405,-78.479"/>
<polygon fill="midnightblue" stroke="midnightblue" points="166.086,-81.9651 176.414,-79.601 166.866,-75.0087 166.086,-81.9651"/>
</g>
<!-- Node25 -->
<g id="node5" class="node"><title>Node25</title>
<g id="a_node5"><a xlink:href="classStateTwo.html#a48d2a882bdaf347c38d36ea1a2de4d25" target="_top" xlink:title="StateTwo::getFirstState">
<polygon fill="none" stroke="black" points="170,-38.5 170,-57.5 299,-57.5 299,-38.5 170,-38.5"/>
<text text-anchor="middle" x="234.5" y="-45.5" font-family="Helvetica,sans-Serif" font-size="10.00">StateTwo::getFirstState</text>
</a>
</g>
</g>
<!-- Node21&#45;&gt;Node25 -->
<g id="edge4" class="edge"><title>Node21&#45;&gt;Node25</title>
<path fill="none" stroke="midnightblue" d="M126.153,-60.033C137.076,-58.8086 148.54,-57.5236 159.742,-56.2678"/>
<polygon fill="midnightblue" stroke="midnightblue" points="160.386,-59.7176 169.934,-55.1254 159.607,-52.7612 160.386,-59.7176"/>
</g>
<!-- Node26 -->
<g id="node6" class="node"><title>Node26</title>
<g id="a_node6"><a xlink:href="classStateTwo.html#a5f39ceea2e8f442364fec097566365d0" target="_top" xlink:title="StateTwo::getSecondState">
<polygon fill="none" stroke="black" points="162,-0.5 162,-19.5 307,-19.5 307,-0.5 162,-0.5"/>
<text text-anchor="middle" x="234.5" y="-7.5" font-family="Helvetica,sans-Serif" font-size="10.00">StateTwo::getSecondState</text>
</a>
</g>
</g>
<!-- Node21&#45;&gt;Node26 -->
<g id="edge5" class="edge"><title>Node21&#45;&gt;Node26</title>
<path fill="none" stroke="midnightblue" d="M99.9586,-51.962C118.344,-44.5539 141.178,-35.7805 162,-29 169.218,-26.6495 176.914,-24.3716 184.483,-22.2581"/>
<polygon fill="midnightblue" stroke="midnightblue" points="185.579,-25.5869 194.308,-19.5821 183.74,-18.833 185.579,-25.5869"/>
</g>
<!-- Node23 -->
<g id="node3" class="node"><title>Node23</title>
<g id="a_node3"><a xlink:href="classMatrixElementCache.html#a2407b99847793920a9d4ed0d8b156d8a" target="_top" xlink:title="MatrixElementCache\l::getElectricMultipole">
<polygon fill="none" stroke="black" points="343,-115 343,-145 459,-145 459,-115 343,-115"/>
<text text-anchor="start" x="351" y="-133" font-family="Helvetica,sans-Serif" font-size="10.00">MatrixElementCache</text>
<text text-anchor="middle" x="401" y="-122" font-family="Helvetica,sans-Serif" font-size="10.00">::getElectricMultipole</text>
</a>
</g>
</g>
<!-- Node22&#45;&gt;Node23 -->
<g id="edge2" class="edge"><title>Node22&#45;&gt;Node23</title>
<path fill="none" stroke="midnightblue" d="M292.572,-130C305.513,-130 319.374,-130 332.694,-130"/>
<polygon fill="midnightblue" stroke="midnightblue" points="332.75,-133.5 342.75,-130 332.75,-126.5 332.75,-133.5"/>
</g>
</g>
</svg>
