<?xml version="1.0" encoding="UTF-8" standalone="no"?>
<!DOCTYPE svg PUBLIC "-//W3C//DTD SVG 1.1//EN"
 "http://www.w3.org/Graphics/SVG/1.1/DTD/svg11.dtd">
<!-- Generated by graphviz version 2.38.0 (20140413.2041)
 -->
<!-- Title: StateTwoOld::first Pages: 1 -->
<svg width="668pt" height="218pt"
 viewBox="0.00 0.00 668.00 218.00" xmlns="http://www.w3.org/2000/svg" xmlns:xlink="http://www.w3.org/1999/xlink">
<g id="graph0" class="graph" transform="scale(1 1) rotate(0) translate(4 214)">
<title>StateTwoOld::first</title>
<!-- Node17 -->
<g id="node1" class="node"><title>Node17</title>
<polygon fill="#bfbfbf" stroke="black" points="0,-95.5 0,-114.5 101,-114.5 101,-95.5 0,-95.5"/>
<text text-anchor="middle" x="50.5" y="-102.5" font-family="Helvetica,sans-Serif" font-size="10.00">StateTwoOld::first</text>
</g>
<!-- Node18 -->
<g id="node2" class="node"><title>Node18</title>
<g id="a_node2"><a xlink:href="classHamiltonianTwo.html#a6ca0a318f25170b69e571a07064a5afb" target="_top" xlink:title="HamiltonianTwo::calculate">
<polygon fill="none" stroke="black" points="137,-190.5 137,-209.5 278,-209.5 278,-190.5 137,-190.5"/>
<text text-anchor="middle" x="207.5" y="-197.5" font-family="Helvetica,sans-Serif" font-size="10.00">HamiltonianTwo::calculate</text>
</a>
</g>
</g>
<!-- Node17&#45;&gt;Node18 -->
<g id="edge1" class="edge"><title>Node17&#45;&gt;Node18</title>
<path fill="none" stroke="midnightblue" d="M67.7785,-121.636C84.051,-137.467 110.414,-161.033 137,-176 147.456,-181.887 159.604,-186.686 170.791,-190.403"/>
<polygon fill="midnightblue" stroke="midnightblue" points="70.2078,-119.115 60.644,-114.556 65.2774,-124.084 70.2078,-119.115"/>
</g>
<!-- Node20 -->
<g id="node4" class="node"><title>Node20</title>
<g id="a_node4"><a xlink:href="classBasisnamesOne.html#ab3030f74ccafcc178f38e7a8ada13b9b" target="_top" xlink:title="BasisnamesOne::fromBoth">
<polygon fill="none" stroke="black" points="328,-76.5 328,-95.5 474,-95.5 474,-76.5 328,-76.5"/>
<text text-anchor="middle" x="401" y="-83.5" font-family="Helvetica,sans-Serif" font-size="10.00">BasisnamesOne::fromBoth</text>
</a>
</g>
</g>
<!-- Node17&#45;&gt;Node20 -->
<g id="edge3" class="edge"><title>Node17&#45;&gt;Node20</title>
<path fill="none" stroke="midnightblue" d="M76.5224,-119.472C93.0836,-128.192 115.614,-138.462 137,-143 198.302,-156.009 216.824,-156.586 278,-143 319.08,-133.877 362.706,-109.403 384.989,-95.676"/>
<polygon fill="midnightblue" stroke="midnightblue" points="77.9719,-116.277 67.515,-114.572 74.6267,-122.426 77.9719,-116.277"/>
</g>
<!-- Node23 -->
<g id="node7" class="node"><title>Node23</title>
<g id="a_node7"><a xlink:href="classStateTwoOld.html#a3ecab4e3ec45aa3cc8cfe60b2b46d5f6" target="_top" xlink:title="StateTwoOld::getEnergy">
<polygon fill="none" stroke="black" points="142,-114.5 142,-133.5 273,-133.5 273,-114.5 142,-114.5"/>
<text text-anchor="middle" x="207.5" y="-121.5" font-family="Helvetica,sans-Serif" font-size="10.00">StateTwoOld::getEnergy</text>
</a>
</g>
</g>
<!-- Node17&#45;&gt;Node23 -->
<g id="edge6" class="edge"><title>Node17&#45;&gt;Node23</title>
<path fill="none" stroke="midnightblue" d="M111.595,-112.366C121.55,-113.587 131.91,-114.857 141.969,-116.09"/>
<polygon fill="midnightblue" stroke="midnightblue" points="111.748,-108.859 101.396,-111.116 110.896,-115.807 111.748,-108.859"/>
</g>
<!-- Node24 -->
<g id="node8" class="node"><title>Node24</title>
<g id="a_node8"><a xlink:href="classStateTwoOld.html#ac0a094bb8d10a954236f3af605c0cbca" target="_top" xlink:title="StateTwoOld::getNStar">
<polygon fill="none" stroke="black" points="144.5,-76.5 144.5,-95.5 270.5,-95.5 270.5,-76.5 144.5,-76.5"/>
<text text-anchor="middle" x="207.5" y="-83.5" font-family="Helvetica,sans-Serif" font-size="10.00">StateTwoOld::getNStar</text>
</a>
</g>
</g>
<!-- Node17&#45;&gt;Node24 -->
<g id="edge7" class="edge"><title>Node17&#45;&gt;Node24</title>
<path fill="none" stroke="midnightblue" d="M111.567,-97.637C122.358,-96.3142 133.624,-94.9332 144.469,-93.6038"/>
<polygon fill="midnightblue" stroke="midnightblue" points="110.896,-94.1929 101.396,-98.8837 111.748,-101.141 110.896,-94.1929"/>
</g>
<!-- Node25 -->
<g id="node9" class="node"><title>Node25</title>
<g id="a_node9"><a xlink:href="classStateTwoOld.html#a905a5cdadb7ee2d0431aeba6004d40e5" target="_top" xlink:title="StateTwoOld::operator\&lt;">
<polygon fill="none" stroke="black" points="141.5,-38.5 141.5,-57.5 273.5,-57.5 273.5,-38.5 141.5,-38.5"/>
<text text-anchor="middle" x="207.5" y="-45.5" font-family="Helvetica,sans-Serif" font-size="10.00">StateTwoOld::operator&lt;</text>
</a>
</g>
</g>
<!-- Node17&#45;&gt;Node25 -->
<g id="edge8" class="edge"><title>Node17&#45;&gt;Node25</title>
<path fill="none" stroke="midnightblue" d="M79.9248,-91.0671C96.3539,-83.3447 117.559,-73.9325 137,-67 146.779,-63.5128 157.523,-60.2896 167.578,-57.5257"/>
<polygon fill="midnightblue" stroke="midnightblue" points="78.3767,-87.9277 70.853,-95.3872 81.3863,-94.2477 78.3767,-87.9277"/>
</g>
<!-- Node26 -->
<g id="node10" class="node"><title>Node26</title>
<g id="a_node10"><a xlink:href="classStateTwoOld.html#a1d7ff079f51711e8a6f40946e5677be8" target="_top" xlink:title="StateTwoOld::order">
<polygon fill="none" stroke="black" points="153.5,-0.5 153.5,-19.5 261.5,-19.5 261.5,-0.5 153.5,-0.5"/>
<text text-anchor="middle" x="207.5" y="-7.5" font-family="Helvetica,sans-Serif" font-size="10.00">StateTwoOld::order</text>
</a>
</g>
</g>
<!-- Node17&#45;&gt;Node26 -->
<g id="edge9" class="edge"><title>Node17&#45;&gt;Node26</title>
<path fill="none" stroke="midnightblue" d="M66.5585,-87.5694C82.4176,-70.2732 108.941,-44.2103 137,-29 144.038,-25.1848 151.901,-22.0896 159.736,-19.593"/>
<polygon fill="midnightblue" stroke="midnightblue" points="63.7285,-85.4835 59.6699,-95.2701 68.9457,-90.1505 63.7285,-85.4835"/>
</g>
<!-- Node19 -->
<g id="node3" class="node"><title>Node19</title>
<g id="a_node3"><a xlink:href="classHamiltonianTwo.html#abd374713c9b38f72265c7fe496c42b96" target="_top" xlink:title="HamiltonianTwo::HamiltonianTwo">
<polygon fill="none" stroke="black" points="314,-190.5 314,-209.5 488,-209.5 488,-190.5 314,-190.5"/>
<text text-anchor="middle" x="401" y="-197.5" font-family="Helvetica,sans-Serif" font-size="10.00">HamiltonianTwo::HamiltonianTwo</text>
</a>
</g>
</g>
<!-- Node18&#45;&gt;Node19 -->
<g id="edge2" class="edge"><title>Node18&#45;&gt;Node19</title>
<path fill="none" stroke="midnightblue" d="M288.313,-200C296.705,-200 305.265,-200 313.726,-200"/>
<polygon fill="midnightblue" stroke="midnightblue" points="288.178,-196.5 278.178,-200 288.178,-203.5 288.178,-196.5"/>
</g>
<!-- Node21 -->
<g id="node5" class="node"><title>Node21</title>
<g id="a_node5"><a xlink:href="Interface_8h.html#ad478f0b9610586a2ae8066c78b6d3f96" target="_top" xlink:title="compute">
<polygon fill="none" stroke="black" points="524,-76.5 524,-95.5 583,-95.5 583,-76.5 524,-76.5"/>
<text text-anchor="middle" x="553.5" y="-83.5" font-family="Helvetica,sans-Serif" font-size="10.00">compute</text>
</a>
</g>
</g>
<!-- Node20&#45;&gt;Node21 -->
<g id="edge4" class="edge"><title>Node20&#45;&gt;Node21</title>
<path fill="none" stroke="midnightblue" d="M484.505,-86C498.661,-86 512.472,-86 523.909,-86"/>
<polygon fill="midnightblue" stroke="midnightblue" points="484.164,-82.5001 474.164,-86 484.164,-89.5001 484.164,-82.5001"/>
</g>
<!-- Node22 -->
<g id="node6" class="node"><title>Node22</title>
<g id="a_node6"><a xlink:href="main_8cpp.html#a3c04138a5bfe5d72780bb7e82a18e627" target="_top" xlink:title="main">
<polygon fill="none" stroke="black" points="619,-76.5 619,-95.5 660,-95.5 660,-76.5 619,-76.5"/>
<text text-anchor="middle" x="639.5" y="-83.5" font-family="Helvetica,sans-Serif" font-size="10.00">main</text>
</a>
</g>
</g>
<!-- Node21&#45;&gt;Node22 -->
<g id="edge5" class="edge"><title>Node21&#45;&gt;Node22</title>
<path fill="none" stroke="midnightblue" d="M593.522,-86C602.284,-86 611.22,-86 618.794,-86"/>
<polygon fill="midnightblue" stroke="midnightblue" points="593.408,-82.5001 583.408,-86 593.408,-89.5001 593.408,-82.5001"/>
</g>
<!-- Node26&#45;&gt;Node20 -->
<g id="edge10" class="edge"><title>Node26&#45;&gt;Node20</title>
<path fill="none" stroke="midnightblue" d="M258.027,-22.4238C264.796,-24.4454 271.61,-26.6531 278,-29 315.965,-42.943 358.333,-64.072 381.815,-76.3071"/>
<polygon fill="midnightblue" stroke="midnightblue" points="258.774,-18.9969 248.196,-19.6004 256.841,-25.7249 258.774,-18.9969"/>
</g>
</g>
</svg>
