<?xml version="1.0" encoding="UTF-8" standalone="no"?>
<!DOCTYPE svg PUBLIC "-//W3C//DTD SVG 1.1//EN"
 "http://www.w3.org/Graphics/SVG/1.1/DTD/svg11.dtd">
<!-- Generated by graphviz version 2.38.0 (20140413.2041)
 -->
<!-- Title: Hamiltonianmatrix::num_basisvectors Pages: 1 -->
<!--zoomable 302 -->
<svg id="main" version="1.1" xmlns="http://www.w3.org/2000/svg" xmlns:xlink="http://www.w3.org/1999/xlink" xml:space="preserve" onload="init(evt)">
<style type="text/css"><![CDATA[
.edge:hover path { stroke: red; }
.edge:hover polygon { stroke: red; fill: red; }
]]></style>
<script type="text/javascript"><![CDATA[
var edges = document.getElementsByTagName('g');
if (edges && edges.length) {
  for (var i=0;i<edges.length;i++) {
    if (edges[i].id.substr(0,4)=='edge') {
      edges[i].setAttribute('class','edge');
    }
  }
}
]]></script>
        <defs>
                <circle id="rim" cx="0" cy="0" r="7"/>
                <circle id="rim2" cx="0" cy="0" r="3.5"/>
                <g id="zoomPlus">
                        <use xlink:href="#rim" fill="#404040">
                                <set attributeName="fill" to="#808080" begin="zoomplus.mouseover" end="zoomplus.mouseout"/>
                        </use>
                        <path d="M-4,0h8M0,-4v8" fill="none" stroke="white" stroke-width="1.5" pointer-events="none"/>
                </g>
                <g id="zoomMin">
                        <use xlink:href="#rim" fill="#404040">
                                <set attributeName="fill" to="#808080" begin="zoomminus.mouseover" end="zoomminus.mouseout"/>
                        </use>
                        <path d="M-4,0h8" fill="none" stroke="white" stroke-width="1.5" pointer-events="none"/>
                </g>
                <g id="dirArrow">
                        <path fill="none" stroke="white" stroke-width="1.5" d="M0,-3.0v7 M-2.5,-0.5L0,-3.0L2.5,-0.5"/>
                </g>
               <g id="resetDef">
                       <use xlink:href="#rim2" fill="#404040">
                               <set attributeName="fill" to="#808080" begin="reset.mouseover" end="reset.mouseout"/>
                       </use>
               </g>
        </defs>

<script type="text/javascript">
var viewWidth = 721;
var viewHeight = 302;
var sectionId = 'dynsection-26';
</script>
<script xlink:href="svgpan.js"/>
<svg id="graph" class="graph">
<g id="viewport">
<title>Hamiltonianmatrix::num_basisvectors</title>
<!-- Node150 -->
<g id="node1" class="node"><title>Node150</title>
<polygon fill="#bfbfbf" stroke="black" points="0,-131.5 0,-161.5 111,-161.5 111,-131.5 0,-131.5"/>
<text text-anchor="start" x="8" y="-149.5" font-family="Helvetica,sans-Serif" font-size="10.00">Hamiltonianmatrix::</text>
<text text-anchor="middle" x="55.5" y="-138.5" font-family="Helvetica,sans-Serif" font-size="10.00">num_basisvectors</text>
</g>
<!-- Node151 -->
<g id="node2" class="node"><title>Node151</title>
<g id="a_node2"><a xlink:href="classHamiltonianmatrix.html#ae853573db74eee2e78215465d08f1486" target="_top" xlink:title="Hamiltonianmatrix::\lapplyCutoff">
<polygon fill="none" stroke="black" points="179.5,-263.5 179.5,-293.5 290.5,-293.5 290.5,-263.5 179.5,-263.5"/>
<text text-anchor="start" x="187.5" y="-281.5" font-family="Helvetica,sans-Serif" font-size="10.00">Hamiltonianmatrix::</text>
<text text-anchor="middle" x="235" y="-270.5" font-family="Helvetica,sans-Serif" font-size="10.00">applyCutoff</text>
</a>
</g>
</g>
<!-- Node150&#45;&gt;Node151 -->
<g id="edge1" class="edge"><title>Node150&#45;&gt;Node151</title>
<path fill="none" stroke="midnightblue" d="M71.9078,-169.993C88.0924,-192.976 115.537,-227.499 147,-248.5 156.701,-254.975 167.943,-260.197 179.06,-264.353"/>
<polygon fill="midnightblue" stroke="midnightblue" points="74.6244,-167.766 66.0748,-161.509 68.8562,-171.732 74.6244,-167.766"/>
</g>
<!-- Node152 -->
<g id="node3" class="node"><title>Node152</title>
<g id="a_node3"><a xlink:href="classHamiltonianOne.html#a9cb71dcb34ab9f0779c0bd66b758185e" target="_top" xlink:title="HamiltonianOne::build">
<polygon fill="none" stroke="black" points="368.5,-203 368.5,-222 490.5,-222 490.5,-203 368.5,-203"/>
<text text-anchor="middle" x="429.5" y="-210" font-family="Helvetica,sans-Serif" font-size="10.00">HamiltonianOne::build</text>
</a>
</g>
</g>
<!-- Node150&#45;&gt;Node152 -->
<g id="edge2" class="edge"><title>Node150&#45;&gt;Node152</title>
<path fill="none" stroke="midnightblue" d="M77.2393,-168.764C94.1876,-185.216 119.729,-206.29 147,-215.5 226.413,-242.32 325.761,-231.859 382.694,-222.031"/>
<polygon fill="midnightblue" stroke="midnightblue" points="79.6222,-166.197 70.0816,-161.59 74.6667,-171.141 79.6222,-166.197"/>
</g>
<!-- Node154 -->
<g id="node5" class="node"><title>Node154</title>
<g id="a_node5"><a xlink:href="classHamiltonianTwo.html#a6ca0a318f25170b69e571a07064a5afb" target="_top" xlink:title="HamiltonianTwo::calculate">
<polygon fill="none" stroke="black" points="359,-118 359,-137 500,-137 500,-118 359,-118"/>
<text text-anchor="middle" x="429.5" y="-125" font-family="Helvetica,sans-Serif" font-size="10.00">HamiltonianTwo::calculate</text>
</a>
</g>
</g>
<!-- Node150&#45;&gt;Node154 -->
<g id="edge4" class="edge"><title>Node150&#45;&gt;Node154</title>
<path fill="none" stroke="midnightblue" d="M121.729,-143.168C188.154,-139.776 290.781,-134.534 358.782,-131.061"/>
<polygon fill="midnightblue" stroke="midnightblue" points="121.198,-139.691 111.39,-143.696 121.555,-146.682 121.198,-139.691"/>
</g>
<!-- Node156 -->
<g id="node7" class="node"><title>Node156</title>
<g id="a_node7"><a xlink:href="Hamiltonianmatrix_8cpp.html#ae139c21d132020dde7c86db8efc751e1" target="_top" xlink:title="combine">
<polygon fill="none" stroke="black" points="206,-99 206,-118 264,-118 264,-99 206,-99"/>
<text text-anchor="middle" x="235" y="-106" font-family="Helvetica,sans-Serif" font-size="10.00">combine</text>
</a>
</g>
</g>
<!-- Node150&#45;&gt;Node156 -->
<g id="edge6" class="edge"><title>Node150&#45;&gt;Node156</title>
<path fill="none" stroke="midnightblue" d="M121.332,-132.621C150.466,-126.383 183.316,-119.351 205.994,-114.496"/>
<polygon fill="midnightblue" stroke="midnightblue" points="120.25,-129.273 111.204,-134.789 121.715,-136.118 120.25,-129.273"/>
</g>
<!-- Node157 -->
<g id="node8" class="node"><title>Node157</title>
<g id="a_node8"><a xlink:href="classHamiltonianmatrix.html#a1db6d20a1d88ef89f1acdad819af34ee" target="_top" xlink:title="Hamiltonianmatrix::\ldiagonalize">
<polygon fill="none" stroke="black" points="179.5,-175.5 179.5,-205.5 290.5,-205.5 290.5,-175.5 179.5,-175.5"/>
<text text-anchor="start" x="187.5" y="-193.5" font-family="Helvetica,sans-Serif" font-size="10.00">Hamiltonianmatrix::</text>
<text text-anchor="middle" x="235" y="-182.5" font-family="Helvetica,sans-Serif" font-size="10.00">diagonalize</text>
</a>
</g>
</g>
<!-- Node150&#45;&gt;Node157 -->
<g id="edge8" class="edge"><title>Node150&#45;&gt;Node157</title>
<path fill="none" stroke="midnightblue" d="M121.057,-162.503C140.221,-167.253 161.015,-172.408 179.476,-176.984"/>
<polygon fill="midnightblue" stroke="midnightblue" points="121.753,-159.069 111.204,-160.06 120.068,-165.864 121.753,-159.069"/>
</g>
<!-- Node158 -->
<g id="node9" class="node"><title>Node158</title>
<g id="a_node9"><a xlink:href="classHamiltonianmatrix.html#a5958f8545a449aaac4355b60b5587a91" target="_top" xlink:title="Hamiltonianmatrix::\lgetBlock">
<polygon fill="none" stroke="black" points="179.5,-49.5 179.5,-79.5 290.5,-79.5 290.5,-49.5 179.5,-49.5"/>
<text text-anchor="start" x="187.5" y="-67.5" font-family="Helvetica,sans-Serif" font-size="10.00">Hamiltonianmatrix::</text>
<text text-anchor="middle" x="235" y="-56.5" font-family="Helvetica,sans-Serif" font-size="10.00">getBlock</text>
</a>
</g>
</g>
<!-- Node150&#45;&gt;Node158 -->
<g id="edge11" class="edge"><title>Node150&#45;&gt;Node158</title>
<path fill="none" stroke="midnightblue" d="M85.2445,-125.446C102.475,-113.593 125.208,-99.2564 147,-89.5 157.184,-84.9406 168.411,-80.9873 179.319,-77.6545"/>
<polygon fill="midnightblue" stroke="midnightblue" points="82.9531,-122.778 76.7697,-131.381 86.9686,-128.512 82.9531,-122.778"/>
</g>
<!-- Node159 -->
<g id="node10" class="node"><title>Node159</title>
<g id="a_node10"><a xlink:href="classHamiltonianmatrix.html#a2ff416efff07de6e3df93948c2688989" target="_top" xlink:title="Hamiltonianmatrix::\lremoveUnnecessaryBasisvectors">
<polygon fill="none" stroke="black" points="147,-0.5 147,-30.5 323,-30.5 323,-0.5 147,-0.5"/>
<text text-anchor="start" x="155" y="-18.5" font-family="Helvetica,sans-Serif" font-size="10.00">Hamiltonianmatrix::</text>
<text text-anchor="middle" x="235" y="-7.5" font-family="Helvetica,sans-Serif" font-size="10.00">removeUnnecessaryBasisvectors</text>
</a>
</g>
</g>
<!-- Node150&#45;&gt;Node159 -->
<g id="edge12" class="edge"><title>Node150&#45;&gt;Node159</title>
<path fill="none" stroke="midnightblue" d="M70.7342,-122.824C86.462,-98.6527 113.984,-61.7538 147,-40.5 152.946,-36.6721 159.49,-33.4174 166.238,-30.6528"/>
<polygon fill="midnightblue" stroke="midnightblue" points="67.6927,-121.084 65.297,-131.405 73.6058,-124.831 67.6927,-121.084"/>
</g>
<!-- Node153 -->
<g id="node4" class="node"><title>Node153</title>
<g id="a_node4"><a xlink:href="classHamiltonianOne.html#ad3ba2d70879a60c9f065b5a2545dfe36" target="_top" xlink:title="HamiltonianOne::HamiltonianOne">
<polygon fill="none" stroke="black" points="536,-203 536,-222 713,-222 713,-203 536,-203"/>
<text text-anchor="middle" x="624.5" y="-210" font-family="Helvetica,sans-Serif" font-size="10.00">HamiltonianOne::HamiltonianOne</text>
</a>
</g>
</g>
<!-- Node152&#45;&gt;Node153 -->
<g id="edge3" class="edge"><title>Node152&#45;&gt;Node153</title>
<path fill="none" stroke="midnightblue" d="M500.812,-212.5C512.215,-212.5 524.146,-212.5 535.899,-212.5"/>
<polygon fill="midnightblue" stroke="midnightblue" points="500.508,-209 490.508,-212.5 500.508,-216 500.508,-209"/>
</g>
<!-- Node155 -->
<g id="node6" class="node"><title>Node155</title>
<g id="a_node6"><a xlink:href="classHamiltonianTwo.html#abd374713c9b38f72265c7fe496c42b96" target="_top" xlink:title="HamiltonianTwo::HamiltonianTwo">
<polygon fill="none" stroke="black" points="537.5,-118 537.5,-137 711.5,-137 711.5,-118 537.5,-118"/>
<text text-anchor="middle" x="624.5" y="-125" font-family="Helvetica,sans-Serif" font-size="10.00">HamiltonianTwo::HamiltonianTwo</text>
</a>
</g>
</g>
<!-- Node154&#45;&gt;Node155 -->
<g id="edge5" class="edge"><title>Node154&#45;&gt;Node155</title>
<path fill="none" stroke="midnightblue" d="M510.217,-127.5C519.2,-127.5 528.383,-127.5 537.442,-127.5"/>
<polygon fill="midnightblue" stroke="midnightblue" points="510.177,-124 500.177,-127.5 510.177,-131 510.177,-124"/>
</g>
<!-- Node156&#45;&gt;Node154 -->
<g id="edge7" class="edge"><title>Node156&#45;&gt;Node154</title>
<path fill="none" stroke="midnightblue" d="M274.563,-112.306C298.656,-114.684 330.392,-117.817 358.786,-120.619"/>
<polygon fill="midnightblue" stroke="midnightblue" points="274.699,-108.803 264.404,-111.304 274.012,-115.769 274.699,-108.803"/>
</g>
<!-- Node157&#45;&gt;Node152 -->
<g id="edge9" class="edge"><title>Node157&#45;&gt;Node152</title>
<path fill="none" stroke="midnightblue" d="M300.81,-197.907C322.627,-200.4 346.864,-203.17 368.309,-205.621"/>
<polygon fill="midnightblue" stroke="midnightblue" points="300.981,-194.404 290.648,-196.745 300.186,-201.358 300.981,-194.404"/>
</g>
<!-- Node157&#45;&gt;Node154 -->
<g id="edge10" class="edge"><title>Node157&#45;&gt;Node154</title>
<path fill="none" stroke="midnightblue" d="M291.759,-172.252C326.873,-160.76 370.78,-146.39 399.22,-137.083"/>
<polygon fill="midnightblue" stroke="midnightblue" points="290.524,-168.973 282.109,-175.41 292.701,-175.626 290.524,-168.973"/>
</g>
<!-- Node159&#45;&gt;Node154 -->
<g id="edge13" class="edge"><title>Node159&#45;&gt;Node154</title>
<path fill="none" stroke="midnightblue" d="M309.549,-34.2517C314.184,-36.16 318.707,-38.2392 323,-40.5 363.331,-61.7386 402.509,-100.057 419.578,-117.888"/>
<polygon fill="midnightblue" stroke="midnightblue" points="310.505,-30.8705 299.915,-30.5708 308.007,-37.4095 310.505,-30.8705"/>
</g>
</g>
</svg>
        <g id="navigator" transform="translate(0 0)" fill="#404254">
                <rect fill="#f2f5e9" fill-opacity="0.5" stroke="#606060" stroke-width=".5" x="0" y="0" width="60" height="60"/>
                <use id="zoomplus" xlink:href="#zoomPlus" x="17" y="9" onmousedown="handleZoom(evt,'in')"/>
                <use id="zoomminus" xlink:href="#zoomMin" x="42" y="9" onmousedown="handleZoom(evt,'out')"/>
                <use id="reset" xlink:href="#resetDef" x="30" y="36" onmousedown="handleReset()"/>
                <g id="arrowUp" xlink:href="#dirArrow" transform="translate(30 24)" onmousedown="handlePan(0,-1)">
                  <use xlink:href="#rim" fill="#404040">
                        <set attributeName="fill" to="#808080" begin="arrowUp.mouseover" end="arrowUp.mouseout"/>
                  </use>
                  <path fill="none" stroke="white" stroke-width="1.5" d="M0,-3.0v7 M-2.5,-0.5L0,-3.0L2.5,-0.5"/>
                </g>
                <g id="arrowRight" xlink:href="#dirArrow" transform="rotate(90) translate(36 -43)" onmousedown="handlePan(1,0)">
                  <use xlink:href="#rim" fill="#404040">
                        <set attributeName="fill" to="#808080" begin="arrowRight.mouseover" end="arrowRight.mouseout"/>
                  </use>
                  <path fill="none" stroke="white" stroke-width="1.5" d="M0,-3.0v7 M-2.5,-0.5L0,-3.0L2.5,-0.5"/>
                </g>
                <g id="arrowDown" xlink:href="#dirArrow" transform="rotate(180) translate(-30 -48)" onmousedown="handlePan(0,1)">
                  <use xlink:href="#rim" fill="#404040">
                        <set attributeName="fill" to="#808080" begin="arrowDown.mouseover" end="arrowDown.mouseout"/>
                  </use>
                  <path fill="none" stroke="white" stroke-width="1.5" d="M0,-3.0v7 M-2.5,-0.5L0,-3.0L2.5,-0.5"/>
                </g>
                <g id="arrowLeft" xlink:href="#dirArrow" transform="rotate(270) translate(-36 17)" onmousedown="handlePan(-1,0)">
                  <use xlink:href="#rim" fill="#404040">
                        <set attributeName="fill" to="#808080" begin="arrowLeft.mouseover" end="arrowLeft.mouseout"/>
                  </use>
                  <path fill="none" stroke="white" stroke-width="1.5" d="M0,-3.0v7 M-2.5,-0.5L0,-3.0L2.5,-0.5"/>
                </g>
        </g>
        <svg viewBox="0 0 15 15" width="100%" height="30px" preserveAspectRatio="xMaxYMin meet">
         <g id="arrow_out" transform="scale(0.3 0.3)">
          <a xlink:href="classHamiltonianmatrix_a4069febf25da1723d9cc8e27cd2cd669_icgraph_org.svg" target="_base">
           <rect id="button" ry="5" rx="5" y="6" x="6" height="38" width="38"
                fill="#f2f5e9" fill-opacity="0.5" stroke="#606060" stroke-width="1.0"/>
           <path id="arrow"
             d="M 11.500037,31.436501 C 11.940474,20.09759 22.043105,11.32322 32.158766,21.979434 L 37.068811,17.246167 C 37.068811,17.246167 37.088388,32 37.088388,32 L 22.160133,31.978069 C 22.160133,31.978069 26.997745,27.140456 26.997745,27.140456 C 18.528582,18.264221 13.291696,25.230495 11.500037,31.436501 z"
             style="fill:#404040;"/>
          </a>
         </g>
        </svg>
</svg>
