<?xml version="1.0" encoding="UTF-8" standalone="no"?>
<!DOCTYPE svg PUBLIC "-//W3C//DTD SVG 1.1//EN"
 "http://www.w3.org/Graphics/SVG/1.1/DTD/svg11.dtd">
<!-- Generated by graphviz version 2.38.0 (20140413.2041)
 -->
<!-- Title: StateTwo::getHash Pages: 1 -->
<svg width="267pt" height="78pt"
 viewBox="0.00 0.00 267.00 77.50" xmlns="http://www.w3.org/2000/svg" xmlns:xlink="http://www.w3.org/1999/xlink">
<g id="graph0" class="graph" transform="scale(1 1) rotate(0) translate(4 73.5)">
<title>StateTwo::getHash</title>
<!-- Node28 -->
<g id="node1" class="node"><title>Node28</title>
<polygon fill="#bfbfbf" stroke="black" points="0,-22.5 0,-41.5 107,-41.5 107,-22.5 0,-22.5"/>
<text text-anchor="middle" x="53.5" y="-29.5" font-family="Helvetica,sans-Serif" font-size="10.00">StateTwo::getHash</text>
</g>
<!-- Node29 -->
<g id="node2" class="node"><title>Node29</title>
<g id="a_node2"><a xlink:href="structstd_1_1hash_3_01StateTwo_01_4.html#ae58d46b939220c521b3c90f2e71591d7" target="_top" xlink:title="std::hash\&lt; StateTwo\l \&gt;::operator()">
<polygon fill="none" stroke="black" points="143,-39 143,-69 259,-69 259,-39 143,-39"/>
<text text-anchor="start" x="151" y="-57" font-family="Helvetica,sans-Serif" font-size="10.00">std::hash&lt; StateTwo</text>
<text text-anchor="middle" x="201" y="-46" font-family="Helvetica,sans-Serif" font-size="10.00"> &gt;::operator()</text>
</a>
</g>
</g>
<!-- Node28&#45;&gt;Node29 -->
<g id="edge1" class="edge"><title>Node28&#45;&gt;Node29</title>
<path fill="none" stroke="midnightblue" d="M116.928,-41.4393C125.461,-42.7295 134.188,-44.049 142.625,-45.3248"/>
<polygon fill="midnightblue" stroke="midnightblue" points="117.44,-37.977 107.029,-39.9425 116.393,-44.8983 117.44,-37.977"/>
</g>
<!-- Node30 -->
<g id="node3" class="node"><title>Node30</title>
<g id="a_node3"><a xlink:href="classStateTwo.html#aad4266aa004ca0a38a702cc8da81f5b0" target="_top" xlink:title="Implementation of two&#45;atom state ///////////////////////////////. ">
<polygon fill="none" stroke="black" points="145.5,-0.5 145.5,-19.5 256.5,-19.5 256.5,-0.5 145.5,-0.5"/>
<text text-anchor="middle" x="201" y="-7.5" font-family="Helvetica,sans-Serif" font-size="10.00">StateTwo::StateTwo</text>
</a>
</g>
</g>
<!-- Node28&#45;&gt;Node30 -->
<g id="edge2" class="edge"><title>Node28&#45;&gt;Node30</title>
<path fill="none" stroke="midnightblue" d="M117.038,-22.5441C126.372,-21.1327 135.936,-19.6867 145.096,-18.3016"/>
<polygon fill="midnightblue" stroke="midnightblue" points="116.393,-19.1017 107.029,-24.0575 117.44,-26.023 116.393,-19.1017"/>
</g>
</g>
</svg>
