<?xml version="1.0" encoding="UTF-8" standalone="no"?>
<!DOCTYPE svg PUBLIC "-//W3C//DTD SVG 1.1//EN"
 "http://www.w3.org/Graphics/SVG/1.1/DTD/svg11.dtd">
<!-- Generated by graphviz version 2.38.0 (20140413.2041)
 -->
<!-- Title: StateTwo::getL Pages: 1 -->
<svg width="259pt" height="78pt"
 viewBox="0.00 0.00 259.00 77.50" xmlns="http://www.w3.org/2000/svg" xmlns:xlink="http://www.w3.org/1999/xlink">
<g id="graph0" class="graph" transform="scale(1 1) rotate(0) translate(4 73.5)">
<title>StateTwo::getL</title>
<!-- Node38 -->
<g id="node1" class="node"><title>Node38</title>
<polygon fill="#bfbfbf" stroke="black" points="0,-22.5 0,-41.5 88,-41.5 88,-22.5 0,-22.5"/>
<text text-anchor="middle" x="44" y="-29.5" font-family="Helvetica,sans-Serif" font-size="10.00">StateTwo::getL</text>
</g>
<!-- Node39 -->
<g id="node2" class="node"><title>Node39</title>
<g id="a_node2"><a xlink:href="classPerturbativeInteraction.html#aef0f5d43fdcf0377dc53e31730c99cb9" target="_top" xlink:title="PerturbativeInteraction\l::getC6">
<polygon fill="none" stroke="black" points="124.5,-39 124.5,-69 250.5,-69 250.5,-39 124.5,-39"/>
<text text-anchor="start" x="132.5" y="-57" font-family="Helvetica,sans-Serif" font-size="10.00">PerturbativeInteraction</text>
<text text-anchor="middle" x="187.5" y="-46" font-family="Helvetica,sans-Serif" font-size="10.00">::getC6</text>
</a>
</g>
</g>
<!-- Node38&#45;&gt;Node39 -->
<g id="edge1" class="edge"><title>Node38&#45;&gt;Node39</title>
<path fill="none" stroke="midnightblue" d="M98.3374,-40.2927C106.802,-41.6088 115.622,-42.98 124.269,-44.3245"/>
<polygon fill="midnightblue" stroke="midnightblue" points="98.6426,-36.7982 88.2235,-38.7203 97.5671,-43.7151 98.6426,-36.7982"/>
</g>
<!-- Node40 -->
<g id="node3" class="node"><title>Node40</title>
<g id="a_node3"><a xlink:href="classStateTwo.html#a8144dc47a35a397f9b040a5de5d8673e" target="_top" xlink:title="StateTwo::getReflected">
<polygon fill="none" stroke="black" points="124,-0.5 124,-19.5 251,-19.5 251,-0.5 124,-0.5"/>
<text text-anchor="middle" x="187.5" y="-7.5" font-family="Helvetica,sans-Serif" font-size="10.00">StateTwo::getReflected</text>
</a>
</g>
</g>
<!-- Node38&#45;&gt;Node40 -->
<g id="edge2" class="edge"><title>Node38&#45;&gt;Node40</title>
<path fill="none" stroke="midnightblue" d="M98.3454,-23.706C107.148,-22.3374 116.334,-20.9092 125.31,-19.5136"/>
<polygon fill="midnightblue" stroke="midnightblue" points="97.5671,-20.2849 88.2235,-25.2797 98.6426,-27.2018 97.5671,-20.2849"/>
</g>
</g>
</svg>
