<?xml version="1.0" encoding="UTF-8" standalone="no"?>
<!DOCTYPE svg PUBLIC "-//W3C//DTD SVG 1.1//EN"
 "http://www.w3.org/Graphics/SVG/1.1/DTD/svg11.dtd">
<!-- Generated by graphviz version 2.38.0 (20140413.2041)
 -->
<!-- Title: SystemOne::incorporate Pages: 1 -->
<svg width="496pt" height="306pt"
 viewBox="0.00 0.00 496.00 305.50" xmlns="http://www.w3.org/2000/svg" xmlns:xlink="http://www.w3.org/1999/xlink">
<g id="graph0" class="graph" transform="scale(1 1) rotate(0) translate(4 301.5)">
<title>SystemOne::incorporate</title>
<!-- Node17 -->
<g id="node1" class="node"><title>Node17</title>
<polygon fill="#bfbfbf" stroke="black" points="0,-171.5 0,-190.5 134,-190.5 134,-171.5 0,-171.5"/>
<text text-anchor="middle" x="67" y="-178.5" font-family="Helvetica,sans-Serif" font-size="10.00">SystemOne::incorporate</text>
</g>
<!-- Node18 -->
<g id="node2" class="node"><title>Node18</title>
<g id="a_node2"><a xlink:href="classSystemBase.html#ac6c7aec328da15fc8fbc769f8adcc00c" target="_top" xlink:title="SystemBase\&lt; StateOne\l \&gt;::buildRotator">
<polygon fill="none" stroke="black" points="183,-267 183,-297 317,-297 317,-267 183,-267"/>
<text text-anchor="start" x="191" y="-285" font-family="Helvetica,sans-Serif" font-size="10.00">SystemBase&lt; StateOne</text>
<text text-anchor="middle" x="250" y="-274" font-family="Helvetica,sans-Serif" font-size="10.00"> &gt;::buildRotator</text>
</a>
</g>
</g>
<!-- Node17&#45;&gt;Node18 -->
<g id="edge1" class="edge"><title>Node17&#45;&gt;Node18</title>
<path fill="none" stroke="midnightblue" d="M78.5084,-190.739C96.1625,-206.638 133.442,-238.272 170,-257 174.333,-259.22 178.901,-261.29 183.567,-263.21"/>
<polygon fill="midnightblue" stroke="midnightblue" points="182.646,-266.606 193.235,-266.944 185.167,-260.076 182.646,-266.606"/>
</g>
<!-- Node19 -->
<g id="node3" class="node"><title>Node19</title>
<g id="a_node3"><a xlink:href="classSystemOne.html#afc8ac50c2aa657faad408898f7c24661" target="_top" xlink:title="Method that allows base class to delete the interaction ////////. ">
<polygon fill="none" stroke="black" points="170,-228.5 170,-247.5 330,-247.5 330,-228.5 170,-228.5"/>
<text text-anchor="middle" x="250" y="-235.5" font-family="Helvetica,sans-Serif" font-size="10.00">SystemOne::deleteInteraction</text>
</a>
</g>
</g>
<!-- Node17&#45;&gt;Node19 -->
<g id="edge2" class="edge"><title>Node17&#45;&gt;Node19</title>
<path fill="none" stroke="midnightblue" d="M96.9735,-190.527C117.365,-197.194 145.315,-206.258 170,-214 182.074,-217.787 195.216,-221.816 207.253,-225.47"/>
<polygon fill="midnightblue" stroke="midnightblue" points="206.471,-228.89 217.056,-228.438 208.499,-222.191 206.471,-228.89"/>
</g>
<!-- Node20 -->
<g id="node4" class="node"><title>Node20</title>
<g id="a_node4"><a xlink:href="classStateOne.html#aedba5bfce70f73fa324b9d5ae1115578" target="_top" xlink:title="StateOne::getJ">
<polygon fill="none" stroke="black" points="384,-190.5 384,-209.5 470,-209.5 470,-190.5 384,-190.5"/>
<text text-anchor="middle" x="427" y="-197.5" font-family="Helvetica,sans-Serif" font-size="10.00">StateOne::getJ</text>
</a>
</g>
</g>
<!-- Node17&#45;&gt;Node20 -->
<g id="edge3" class="edge"><title>Node17&#45;&gt;Node20</title>
<path fill="none" stroke="midnightblue" d="M134.08,-184.507C203.168,-188.174 310.19,-193.854 373.655,-197.222"/>
<polygon fill="midnightblue" stroke="midnightblue" points="373.664,-200.727 383.835,-197.762 374.035,-193.737 373.664,-200.727"/>
</g>
<!-- Node21 -->
<g id="node5" class="node"><title>Node21</title>
<g id="a_node5"><a xlink:href="classStateOne.html#a3783cebe5bbd63f072caf8450fea4aca" target="_top" xlink:title="StateOne::getL">
<polygon fill="none" stroke="black" points="382.5,-152.5 382.5,-171.5 471.5,-171.5 471.5,-152.5 382.5,-152.5"/>
<text text-anchor="middle" x="427" y="-159.5" font-family="Helvetica,sans-Serif" font-size="10.00">StateOne::getL</text>
</a>
</g>
</g>
<!-- Node17&#45;&gt;Node21 -->
<g id="edge4" class="edge"><title>Node17&#45;&gt;Node21</title>
<path fill="none" stroke="midnightblue" d="M134.08,-177.493C202.594,-173.857 308.414,-168.241 372.064,-164.863"/>
<polygon fill="midnightblue" stroke="midnightblue" points="372.488,-168.345 382.288,-164.32 372.117,-161.355 372.488,-168.345"/>
</g>
<!-- Node22 -->
<g id="node6" class="node"><title>Node22</title>
<g id="a_node6"><a xlink:href="classStateOne.html#aab2b41262381d67893113ed6f5ad18bc" target="_top" xlink:title="StateOne::getM">
<polygon fill="none" stroke="black" points="381,-0.5 381,-19.5 473,-19.5 473,-0.5 381,-0.5"/>
<text text-anchor="middle" x="427" y="-7.5" font-family="Helvetica,sans-Serif" font-size="10.00">StateOne::getM</text>
</a>
</g>
</g>
<!-- Node17&#45;&gt;Node22 -->
<g id="edge5" class="edge"><title>Node17&#45;&gt;Node22</title>
<path fill="none" stroke="midnightblue" d="M78.9353,-171.267C96.9011,-155.656 134.248,-124.77 170,-105 239.568,-66.53 327.842,-37.696 380.464,-22.381"/>
<polygon fill="midnightblue" stroke="midnightblue" points="381.535,-25.7149 390.18,-19.5894 379.602,-18.9871 381.535,-25.7149"/>
</g>
<!-- Node23 -->
<g id="node7" class="node"><title>Node23</title>
<g id="a_node7"><a xlink:href="classStateOne.html#a0b5646c4160083ef4b24460e9159ad2c" target="_top" xlink:title="StateOne::getReflected">
<polygon fill="none" stroke="black" points="186,-114.5 186,-133.5 314,-133.5 314,-114.5 186,-114.5"/>
<text text-anchor="middle" x="250" y="-121.5" font-family="Helvetica,sans-Serif" font-size="10.00">StateOne::getReflected</text>
</a>
</g>
</g>
<!-- Node17&#45;&gt;Node23 -->
<g id="edge6" class="edge"><title>Node17&#45;&gt;Node23</title>
<path fill="none" stroke="midnightblue" d="M96.9735,-171.473C117.365,-164.806 145.315,-155.742 170,-148 182.074,-144.213 195.216,-140.184 207.253,-136.53"/>
<polygon fill="midnightblue" stroke="midnightblue" points="208.499,-139.809 217.056,-133.562 206.471,-133.11 208.499,-139.809"/>
</g>
<!-- Node23&#45;&gt;Node20 -->
<g id="edge7" class="edge"><title>Node23&#45;&gt;Node20</title>
<path fill="none" stroke="midnightblue" d="M268.153,-133.542C290.3,-145.618 330.249,-166.579 366,-181 371.453,-183.2 377.264,-185.314 383.043,-187.282"/>
<polygon fill="midnightblue" stroke="midnightblue" points="382.075,-190.648 392.668,-190.444 384.26,-183.998 382.075,-190.648"/>
</g>
<!-- Node23&#45;&gt;Node21 -->
<g id="edge8" class="edge"><title>Node23&#45;&gt;Node21</title>
<path fill="none" stroke="midnightblue" d="M295.16,-133.589C318.654,-138.691 347.725,-145.003 372.494,-150.382"/>
<polygon fill="midnightblue" stroke="midnightblue" points="371.945,-153.844 382.46,-152.546 373.431,-147.003 371.945,-153.844"/>
</g>
<!-- Node23&#45;&gt;Node22 -->
<g id="edge9" class="edge"><title>Node23&#45;&gt;Node22</title>
<path fill="none" stroke="midnightblue" d="M263.826,-114.413C279.656,-102.473 307.268,-81.2901 330,-62 346.549,-47.9562 347.211,-39.8659 366,-29 369.671,-26.877 373.608,-24.9609 377.646,-23.238"/>
<polygon fill="midnightblue" stroke="midnightblue" points="379.105,-26.4269 387.174,-19.5615 376.585,-19.8962 379.105,-26.4269"/>
</g>
<!-- Node24 -->
<g id="node8" class="node"><title>Node24</title>
<g id="a_node8"><a xlink:href="classStateOne.html#a7deae740570ef5262e7fd2d254a8c530" target="_top" xlink:title="StateOne::getN">
<polygon fill="none" stroke="black" points="381,-114.5 381,-133.5 473,-133.5 473,-114.5 381,-114.5"/>
<text text-anchor="middle" x="427" y="-121.5" font-family="Helvetica,sans-Serif" font-size="10.00">StateOne::getN</text>
</a>
</g>
</g>
<!-- Node23&#45;&gt;Node24 -->
<g id="edge10" class="edge"><title>Node23&#45;&gt;Node24</title>
<path fill="none" stroke="midnightblue" d="M314.179,-124C332.679,-124 352.755,-124 370.724,-124"/>
<polygon fill="midnightblue" stroke="midnightblue" points="370.748,-127.5 380.748,-124 370.748,-120.5 370.748,-127.5"/>
</g>
<!-- Node25 -->
<g id="node9" class="node"><title>Node25</title>
<g id="a_node9"><a xlink:href="classStateOne.html#a45b245f5da0068df4ff72093c654da89" target="_top" xlink:title="StateOne::getSpecies">
<polygon fill="none" stroke="black" points="366,-76.5 366,-95.5 488,-95.5 488,-76.5 366,-76.5"/>
<text text-anchor="middle" x="427" y="-83.5" font-family="Helvetica,sans-Serif" font-size="10.00">StateOne::getSpecies</text>
</a>
</g>
</g>
<!-- Node23&#45;&gt;Node25 -->
<g id="edge11" class="edge"><title>Node23&#45;&gt;Node25</title>
<path fill="none" stroke="midnightblue" d="M295.16,-114.411C318.565,-109.329 347.505,-103.045 372.212,-97.6797"/>
<polygon fill="midnightblue" stroke="midnightblue" points="373.128,-101.062 382.158,-95.5201 371.643,-94.2218 373.128,-101.062"/>
</g>
<!-- Node26 -->
<g id="node10" class="node"><title>Node26</title>
<g id="a_node10"><a xlink:href="classStateOne.html#a7eafbf38814e11dc5875e8a0bc99051c" target="_top" xlink:title="StateOne::StateOne">
<polygon fill="none" stroke="black" points="370,-38.5 370,-57.5 484,-57.5 484,-38.5 370,-38.5"/>
<text text-anchor="middle" x="427" y="-45.5" font-family="Helvetica,sans-Serif" font-size="10.00">StateOne::StateOne</text>
</a>
</g>
</g>
<!-- Node23&#45;&gt;Node26 -->
<g id="edge12" class="edge"><title>Node23&#45;&gt;Node26</title>
<path fill="none" stroke="midnightblue" d="M268.153,-114.458C290.3,-102.382 330.249,-81.4213 366,-67 371.453,-64.8004 377.264,-62.686 383.043,-60.7182"/>
<polygon fill="midnightblue" stroke="midnightblue" points="384.26,-64.0025 392.668,-57.5557 382.075,-57.3523 384.26,-64.0025"/>
</g>
</g>
</svg>
