<?xml version="1.0" encoding="UTF-8" standalone="no"?>
<!DOCTYPE svg PUBLIC "-//W3C//DTD SVG 1.1//EN"
 "http://www.w3.org/Graphics/SVG/1.1/DTD/svg11.dtd">
<!-- Generated by graphviz version 2.38.0 (20140413.2041)
 -->
<!-- Title: StateTwoOld::getNStar Pages: 1 -->
<svg width="375pt" height="104pt"
 viewBox="0.00 0.00 375.00 104.00" xmlns="http://www.w3.org/2000/svg" xmlns:xlink="http://www.w3.org/1999/xlink">
<g id="graph0" class="graph" transform="scale(1 1) rotate(0) translate(4 100)">
<title>StateTwoOld::getNStar</title>
<!-- Node43 -->
<g id="node1" class="node"><title>Node43</title>
<polygon fill="#bfbfbf" stroke="black" points="0,-38.5 0,-57.5 126,-57.5 126,-38.5 0,-38.5"/>
<text text-anchor="middle" x="63" y="-45.5" font-family="Helvetica,sans-Serif" font-size="10.00">StateTwoOld::getNStar</text>
</g>
<!-- Node44 -->
<g id="node2" class="node"><title>Node44</title>
<g id="a_node2"><a xlink:href="classStateTwoOld.html#aad5fb4307dec316a5b602c2e8bfae0a8" target="_top" xlink:title="StateTwoOld::first">
<polygon fill="none" stroke="black" points="175.5,-76.5 175.5,-95.5 276.5,-95.5 276.5,-76.5 175.5,-76.5"/>
<text text-anchor="middle" x="226" y="-83.5" font-family="Helvetica,sans-Serif" font-size="10.00">StateTwoOld::first</text>
</a>
</g>
</g>
<!-- Node43&#45;&gt;Node44 -->
<g id="edge1" class="edge"><title>Node43&#45;&gt;Node44</title>
<path fill="none" stroke="midnightblue" d="M104.627,-57.589C125.968,-62.6261 152.312,-68.8438 174.908,-74.1771"/>
<polygon fill="midnightblue" stroke="midnightblue" points="174.128,-77.5891 184.665,-76.4799 175.736,-70.7763 174.128,-77.5891"/>
</g>
<!-- Node45 -->
<g id="node3" class="node"><title>Node45</title>
<g id="a_node3"><a xlink:href="classStateOneOld.html#acf546d02d53655236c9beb4790d69462" target="_top" xlink:title="StateOneOld::getNStar">
<polygon fill="none" stroke="black" points="162,-38.5 162,-57.5 290,-57.5 290,-38.5 162,-38.5"/>
<text text-anchor="middle" x="226" y="-45.5" font-family="Helvetica,sans-Serif" font-size="10.00">StateOneOld::getNStar</text>
</a>
</g>
</g>
<!-- Node43&#45;&gt;Node45 -->
<g id="edge2" class="edge"><title>Node43&#45;&gt;Node45</title>
<path fill="none" stroke="midnightblue" d="M126.247,-48C134.551,-48 143.128,-48 151.6,-48"/>
<polygon fill="midnightblue" stroke="midnightblue" points="151.856,-51.5001 161.856,-48 151.856,-44.5001 151.856,-51.5001"/>
</g>
<!-- Node47 -->
<g id="node5" class="node"><title>Node47</title>
<g id="a_node5"><a xlink:href="classStateTwoOld.html#a6efa9c8f92e433004b778f6f5ce212d9" target="_top" xlink:title="StateTwoOld::second">
<polygon fill="none" stroke="black" points="167.5,-0.5 167.5,-19.5 284.5,-19.5 284.5,-0.5 167.5,-0.5"/>
<text text-anchor="middle" x="226" y="-7.5" font-family="Helvetica,sans-Serif" font-size="10.00">StateTwoOld::second</text>
</a>
</g>
</g>
<!-- Node43&#45;&gt;Node47 -->
<g id="edge4" class="edge"><title>Node43&#45;&gt;Node47</title>
<path fill="none" stroke="midnightblue" d="M104.627,-38.411C125.968,-33.3739 152.312,-27.1562 174.908,-21.8229"/>
<polygon fill="midnightblue" stroke="midnightblue" points="175.736,-25.2237 184.665,-19.5201 174.128,-18.4109 175.736,-25.2237"/>
</g>
<!-- Node46 -->
<g id="node4" class="node"><title>Node46</title>
<g id="a_node4"><a xlink:href="QuantumDefect_8cpp.html#a6f428d5cafe7f9621da13889eb7cd091" target="_top" xlink:title="nstar">
<polygon fill="none" stroke="black" points="326,-38.5 326,-57.5 367,-57.5 367,-38.5 326,-38.5"/>
<text text-anchor="middle" x="346.5" y="-45.5" font-family="Helvetica,sans-Serif" font-size="10.00">nstar</text>
</a>
</g>
</g>
<!-- Node45&#45;&gt;Node46 -->
<g id="edge3" class="edge"><title>Node45&#45;&gt;Node46</title>
<path fill="none" stroke="midnightblue" d="M290.066,-48C299.035,-48 307.885,-48 315.793,-48"/>
<polygon fill="midnightblue" stroke="midnightblue" points="315.913,-51.5001 325.913,-48 315.913,-44.5001 315.913,-51.5001"/>
</g>
</g>
</svg>
