<?xml version="1.0" encoding="UTF-8" standalone="no"?>
<!DOCTYPE svg PUBLIC "-//W3C//DTD SVG 1.1//EN"
 "http://www.w3.org/Graphics/SVG/1.1/DTD/svg11.dtd">
<!-- Generated by graphviz version 2.38.0 (20140413.2041)
 -->
<!-- Title: Hamiltonianmatrix::entries Pages: 1 -->
<!--zoomable 165 -->
<svg id="main" version="1.1" xmlns="http://www.w3.org/2000/svg" xmlns:xlink="http://www.w3.org/1999/xlink" xml:space="preserve" onload="init(evt)">
<style type="text/css"><![CDATA[
.edge:hover path { stroke: red; }
.edge:hover polygon { stroke: red; fill: red; }
]]></style>
<script type="text/javascript"><![CDATA[
var edges = document.getElementsByTagName('g');
if (edges && edges.length) {
  for (var i=0;i<edges.length;i++) {
    if (edges[i].id.substr(0,4)=='edge') {
      edges[i].setAttribute('class','edge');
    }
  }
}
]]></script>
        <defs>
                <circle id="rim" cx="0" cy="0" r="7"/>
                <circle id="rim2" cx="0" cy="0" r="3.5"/>
                <g id="zoomPlus">
                        <use xlink:href="#rim" fill="#404040">
                                <set attributeName="fill" to="#808080" begin="zoomplus.mouseover" end="zoomplus.mouseout"/>
                        </use>
                        <path d="M-4,0h8M0,-4v8" fill="none" stroke="white" stroke-width="1.5" pointer-events="none"/>
                </g>
                <g id="zoomMin">
                        <use xlink:href="#rim" fill="#404040">
                                <set attributeName="fill" to="#808080" begin="zoomminus.mouseover" end="zoomminus.mouseout"/>
                        </use>
                        <path d="M-4,0h8" fill="none" stroke="white" stroke-width="1.5" pointer-events="none"/>
                </g>
                <g id="dirArrow">
                        <path fill="none" stroke="white" stroke-width="1.5" d="M0,-3.0v7 M-2.5,-0.5L0,-3.0L2.5,-0.5"/>
                </g>
               <g id="resetDef">
                       <use xlink:href="#rim2" fill="#404040">
                               <set attributeName="fill" to="#808080" begin="reset.mouseover" end="reset.mouseout"/>
                       </use>
               </g>
        </defs>

<script type="text/javascript">
var viewWidth = 656;
var viewHeight = 165;
var sectionId = 'dynsection-18';
</script>
<script xlink:href="svgpan.js"/>
<svg id="graph" class="graph">
<g id="viewport">
<title>Hamiltonianmatrix::entries</title>
<!-- Node95 -->
<g id="node1" class="node"><title>Node95</title>
<polygon fill="#bfbfbf" stroke="black" points="0,-63.5 0,-93.5 111,-93.5 111,-63.5 0,-63.5"/>
<text text-anchor="start" x="8" y="-81.5" font-family="Helvetica,sans-Serif" font-size="10.00">Hamiltonianmatrix::</text>
<text text-anchor="middle" x="55.5" y="-70.5" font-family="Helvetica,sans-Serif" font-size="10.00">entries</text>
</g>
<!-- Node96 -->
<g id="node2" class="node"><title>Node96</title>
<g id="a_node2"><a xlink:href="classHamiltonianmatrix.html#a310f8a7bc796d0b431928b82f2d11285" target="_top" xlink:title="Hamiltonianmatrix::\lchangeBasis">
<polygon fill="none" stroke="black" points="147,-126.5 147,-156.5 258,-156.5 258,-126.5 147,-126.5"/>
<text text-anchor="start" x="155" y="-144.5" font-family="Helvetica,sans-Serif" font-size="10.00">Hamiltonianmatrix::</text>
<text text-anchor="middle" x="202.5" y="-133.5" font-family="Helvetica,sans-Serif" font-size="10.00">changeBasis</text>
</a>
</g>
</g>
<!-- Node95&#45;&gt;Node96 -->
<g id="edge1" class="edge"><title>Node95&#45;&gt;Node96</title>
<path fill="none" stroke="midnightblue" d="M100.68,-97.6955C121.905,-106.917 146.972,-117.809 166.801,-126.424"/>
<polygon fill="midnightblue" stroke="midnightblue" points="101.798,-94.365 91.2311,-93.5901 99.0081,-100.785 101.798,-94.365"/>
</g>
<!-- Node99 -->
<g id="node5" class="node"><title>Node99</title>
<g id="a_node5"><a xlink:href="Hamiltonianmatrix_8cpp.html#ae139c21d132020dde7c86db8efc751e1" target="_top" xlink:title="combine">
<polygon fill="none" stroke="black" points="173.5,-88 173.5,-107 231.5,-107 231.5,-88 173.5,-88"/>
<text text-anchor="middle" x="202.5" y="-95" font-family="Helvetica,sans-Serif" font-size="10.00">combine</text>
</a>
</g>
</g>
<!-- Node95&#45;&gt;Node99 -->
<g id="edge4" class="edge"><title>Node95&#45;&gt;Node99</title>
<path fill="none" stroke="midnightblue" d="M121.37,-87.0002C139.637,-89.3939 158.558,-91.8732 173.424,-93.8211"/>
<polygon fill="midnightblue" stroke="midnightblue" points="121.688,-83.5121 111.318,-85.6831 120.779,-90.4527 121.688,-83.5121"/>
</g>
<!-- Node100 -->
<g id="node6" class="node"><title>Node100</title>
<g id="a_node6"><a xlink:href="classHamiltonianmatrix.html#a1db6d20a1d88ef89f1acdad819af34ee" target="_top" xlink:title="Hamiltonianmatrix::\ldiagonalize">
<polygon fill="none" stroke="black" points="147,-0.5 147,-30.5 258,-30.5 258,-0.5 147,-0.5"/>
<text text-anchor="start" x="155" y="-18.5" font-family="Helvetica,sans-Serif" font-size="10.00">Hamiltonianmatrix::</text>
<text text-anchor="middle" x="202.5" y="-7.5" font-family="Helvetica,sans-Serif" font-size="10.00">diagonalize</text>
</a>
</g>
</g>
<!-- Node95&#45;&gt;Node100 -->
<g id="edge6" class="edge"><title>Node95&#45;&gt;Node100</title>
<path fill="none" stroke="midnightblue" d="M100.68,-59.3045C121.905,-50.0827 146.972,-39.1915 166.801,-30.576"/>
<polygon fill="midnightblue" stroke="midnightblue" points="99.0081,-56.2148 91.2311,-63.4099 101.798,-62.635 99.0081,-56.2148"/>
</g>
<!-- Node103 -->
<g id="node9" class="node"><title>Node103</title>
<g id="a_node9"><a xlink:href="Hamiltonianmatrix_8cpp.html#a678b50f9b12e7a3fa69970554dd5d206" target="_top" xlink:title="energycutoff">
<polygon fill="none" stroke="black" points="164,-50 164,-69 241,-69 241,-50 164,-50"/>
<text text-anchor="middle" x="202.5" y="-57" font-family="Helvetica,sans-Serif" font-size="10.00">energycutoff</text>
</a>
</g>
</g>
<!-- Node95&#45;&gt;Node103 -->
<g id="edge10" class="edge"><title>Node95&#45;&gt;Node103</title>
<path fill="none" stroke="midnightblue" d="M121.278,-70.0119C135.802,-68.1087 150.744,-66.1508 163.737,-64.4482"/>
<polygon fill="midnightblue" stroke="midnightblue" points="120.779,-66.5473 111.318,-71.3169 121.688,-73.4879 120.779,-66.5473"/>
</g>
<!-- Node97 -->
<g id="node3" class="node"><title>Node97</title>
<g id="a_node3"><a xlink:href="classHamiltonianTwo.html#a6ca0a318f25170b69e571a07064a5afb" target="_top" xlink:title="HamiltonianTwo::calculate">
<polygon fill="none" stroke="black" points="294,-69 294,-88 435,-88 435,-69 294,-69"/>
<text text-anchor="middle" x="364.5" y="-76" font-family="Helvetica,sans-Serif" font-size="10.00">HamiltonianTwo::calculate</text>
</a>
</g>
</g>
<!-- Node96&#45;&gt;Node97 -->
<g id="edge2" class="edge"><title>Node96&#45;&gt;Node97</title>
<path fill="none" stroke="midnightblue" d="M251.318,-122.672C280.152,-111.318 315.678,-97.3297 338.926,-88.1761"/>
<polygon fill="midnightblue" stroke="midnightblue" points="249.846,-119.49 241.824,-126.41 252.411,-126.003 249.846,-119.49"/>
</g>
<!-- Node98 -->
<g id="node4" class="node"><title>Node98</title>
<g id="a_node4"><a xlink:href="classHamiltonianTwo.html#abd374713c9b38f72265c7fe496c42b96" target="_top" xlink:title="HamiltonianTwo::HamiltonianTwo">
<polygon fill="none" stroke="black" points="472.5,-69 472.5,-88 646.5,-88 646.5,-69 472.5,-69"/>
<text text-anchor="middle" x="559.5" y="-76" font-family="Helvetica,sans-Serif" font-size="10.00">HamiltonianTwo::HamiltonianTwo</text>
</a>
</g>
</g>
<!-- Node97&#45;&gt;Node98 -->
<g id="edge3" class="edge"><title>Node97&#45;&gt;Node98</title>
<path fill="none" stroke="midnightblue" d="M445.217,-78.5C454.2,-78.5 463.383,-78.5 472.442,-78.5"/>
<polygon fill="midnightblue" stroke="midnightblue" points="445.177,-75.0001 435.177,-78.5 445.177,-82.0001 445.177,-75.0001"/>
</g>
<!-- Node99&#45;&gt;Node97 -->
<g id="edge5" class="edge"><title>Node99&#45;&gt;Node97</title>
<path fill="none" stroke="midnightblue" d="M242.029,-92.9246C257.632,-91.0718 276.145,-88.8735 293.953,-86.7587"/>
<polygon fill="midnightblue" stroke="midnightblue" points="241.254,-89.492 231.736,-94.1469 242.079,-96.4432 241.254,-89.492"/>
</g>
<!-- Node100&#45;&gt;Node97 -->
<g id="edge9" class="edge"><title>Node100&#45;&gt;Node97</title>
<path fill="none" stroke="midnightblue" d="M251.318,-34.3285C280.152,-45.6817 315.678,-59.6703 338.926,-68.8239"/>
<polygon fill="midnightblue" stroke="midnightblue" points="252.411,-30.9972 241.824,-30.5901 249.846,-37.5105 252.411,-30.9972"/>
</g>
<!-- Node101 -->
<g id="node7" class="node"><title>Node101</title>
<g id="a_node7"><a xlink:href="classHamiltonianOne.html#a9cb71dcb34ab9f0779c0bd66b758185e" target="_top" xlink:title="HamiltonianOne::build">
<polygon fill="none" stroke="black" points="303.5,-6 303.5,-25 425.5,-25 425.5,-6 303.5,-6"/>
<text text-anchor="middle" x="364.5" y="-13" font-family="Helvetica,sans-Serif" font-size="10.00">HamiltonianOne::build</text>
</a>
</g>
</g>
<!-- Node100&#45;&gt;Node101 -->
<g id="edge7" class="edge"><title>Node100&#45;&gt;Node101</title>
<path fill="none" stroke="midnightblue" d="M268.189,-15.5C279.813,-15.5 291.885,-15.5 303.373,-15.5"/>
<polygon fill="midnightblue" stroke="midnightblue" points="268.115,-12.0001 258.115,-15.5 268.115,-19.0001 268.115,-12.0001"/>
</g>
<!-- Node102 -->
<g id="node8" class="node"><title>Node102</title>
<g id="a_node8"><a xlink:href="classHamiltonianOne.html#ad3ba2d70879a60c9f065b5a2545dfe36" target="_top" xlink:title="HamiltonianOne::HamiltonianOne">
<polygon fill="none" stroke="black" points="471,-6 471,-25 648,-25 648,-6 471,-6"/>
<text text-anchor="middle" x="559.5" y="-13" font-family="Helvetica,sans-Serif" font-size="10.00">HamiltonianOne::HamiltonianOne</text>
</a>
</g>
</g>
<!-- Node101&#45;&gt;Node102 -->
<g id="edge8" class="edge"><title>Node101&#45;&gt;Node102</title>
<path fill="none" stroke="midnightblue" d="M435.812,-15.5C447.215,-15.5 459.146,-15.5 470.899,-15.5"/>
<polygon fill="midnightblue" stroke="midnightblue" points="435.508,-12.0001 425.508,-15.5 435.508,-19.0001 435.508,-12.0001"/>
</g>
<!-- Node103&#45;&gt;Node97 -->
<g id="edge11" class="edge"><title>Node103&#45;&gt;Node97</title>
<path fill="none" stroke="midnightblue" d="M250.991,-65.1395C264.458,-66.7388 279.407,-68.514 293.893,-70.2342"/>
<polygon fill="midnightblue" stroke="midnightblue" points="251.356,-61.6584 241.013,-63.9547 250.53,-68.6095 251.356,-61.6584"/>
</g>
</g>
</svg>
        <g id="navigator" transform="translate(0 0)" fill="#404254">
                <rect fill="#f2f5e9" fill-opacity="0.5" stroke="#606060" stroke-width=".5" x="0" y="0" width="60" height="60"/>
                <use id="zoomplus" xlink:href="#zoomPlus" x="17" y="9" onmousedown="handleZoom(evt,'in')"/>
                <use id="zoomminus" xlink:href="#zoomMin" x="42" y="9" onmousedown="handleZoom(evt,'out')"/>
                <use id="reset" xlink:href="#resetDef" x="30" y="36" onmousedown="handleReset()"/>
                <g id="arrowUp" xlink:href="#dirArrow" transform="translate(30 24)" onmousedown="handlePan(0,-1)">
                  <use xlink:href="#rim" fill="#404040">
                        <set attributeName="fill" to="#808080" begin="arrowUp.mouseover" end="arrowUp.mouseout"/>
                  </use>
                  <path fill="none" stroke="white" stroke-width="1.5" d="M0,-3.0v7 M-2.5,-0.5L0,-3.0L2.5,-0.5"/>
                </g>
                <g id="arrowRight" xlink:href="#dirArrow" transform="rotate(90) translate(36 -43)" onmousedown="handlePan(1,0)">
                  <use xlink:href="#rim" fill="#404040">
                        <set attributeName="fill" to="#808080" begin="arrowRight.mouseover" end="arrowRight.mouseout"/>
                  </use>
                  <path fill="none" stroke="white" stroke-width="1.5" d="M0,-3.0v7 M-2.5,-0.5L0,-3.0L2.5,-0.5"/>
                </g>
                <g id="arrowDown" xlink:href="#dirArrow" transform="rotate(180) translate(-30 -48)" onmousedown="handlePan(0,1)">
                  <use xlink:href="#rim" fill="#404040">
                        <set attributeName="fill" to="#808080" begin="arrowDown.mouseover" end="arrowDown.mouseout"/>
                  </use>
                  <path fill="none" stroke="white" stroke-width="1.5" d="M0,-3.0v7 M-2.5,-0.5L0,-3.0L2.5,-0.5"/>
                </g>
                <g id="arrowLeft" xlink:href="#dirArrow" transform="rotate(270) translate(-36 17)" onmousedown="handlePan(-1,0)">
                  <use xlink:href="#rim" fill="#404040">
                        <set attributeName="fill" to="#808080" begin="arrowLeft.mouseover" end="arrowLeft.mouseout"/>
                  </use>
                  <path fill="none" stroke="white" stroke-width="1.5" d="M0,-3.0v7 M-2.5,-0.5L0,-3.0L2.5,-0.5"/>
                </g>
        </g>
        <svg viewBox="0 0 15 15" width="100%" height="30px" preserveAspectRatio="xMaxYMin meet">
         <g id="arrow_out" transform="scale(0.3 0.3)">
          <a xlink:href="classHamiltonianmatrix_a9a6919d68a5f490c249adaaffd46fe75_icgraph_org.svg" target="_base">
           <rect id="button" ry="5" rx="5" y="6" x="6" height="38" width="38"
                fill="#f2f5e9" fill-opacity="0.5" stroke="#606060" stroke-width="1.0"/>
           <path id="arrow"
             d="M 11.500037,31.436501 C 11.940474,20.09759 22.043105,11.32322 32.158766,21.979434 L 37.068811,17.246167 C 37.068811,17.246167 37.088388,32 37.088388,32 L 22.160133,31.978069 C 22.160133,31.978069 26.997745,27.140456 26.997745,27.140456 C 18.528582,18.264221 13.291696,25.230495 11.500037,31.436501 z"
             style="fill:#404040;"/>
          </a>
         </g>
        </svg>
</svg>
