<?xml version="1.0" encoding="UTF-8" standalone="no"?>
<!DOCTYPE svg PUBLIC "-//W3C//DTD SVG 1.1//EN"
 "http://www.w3.org/Graphics/SVG/1.1/DTD/svg11.dtd">
<!-- Generated by graphviz version 2.38.0 (20140413.2041)
 -->
<!-- Title: SystemOne Pages: 1 -->
<svg width="565pt" height="429pt"
 viewBox="0.00 0.00 565.00 429.47" xmlns="http://www.w3.org/2000/svg" xmlns:xlink="http://www.w3.org/1999/xlink">
<g id="graph0" class="graph" transform="scale(1 1) rotate(0) translate(4 425.465)">
<title>SystemOne</title>
<!-- Node2 -->
<g id="node1" class="node"><title>Node2</title>
<polygon fill="#bfbfbf" stroke="black" points="484,-208.965 484,-227.965 557,-227.965 557,-208.965 484,-208.965"/>
<text text-anchor="middle" x="520.5" y="-215.965" font-family="Helvetica,sans-Serif" font-size="10.00">SystemOne</text>
</g>
<!-- Node3 -->
<g id="node2" class="node"><title>Node3</title>
<g id="a_node2"><a xlink:href="classSystemBase.html" target="_top" xlink:title="SystemBase\&lt; StateOne \&gt;">
<polygon fill="none" stroke="black" points="301,-208.965 301,-227.965 447,-227.965 447,-208.965 301,-208.965"/>
<text text-anchor="middle" x="374" y="-215.965" font-family="Helvetica,sans-Serif" font-size="10.00">SystemBase&lt; StateOne &gt;</text>
</a>
</g>
</g>
<!-- Node3&#45;&gt;Node2 -->
<g id="edge1" class="edge"><title>Node3&#45;&gt;Node2</title>
<path fill="none" stroke="midnightblue" d="M457.341,-218.465C466.586,-218.465 475.607,-218.465 483.781,-218.465"/>
<polygon fill="midnightblue" stroke="midnightblue" points="457.25,-214.965 447.25,-218.465 457.25,-221.965 457.25,-214.965"/>
</g>
<!-- Node4 -->
<g id="node3" class="node"><title>Node4</title>
<polygon fill="none" stroke="#bfbfbf" points="32.5,-382.965 32.5,-401.965 107.5,-401.965 107.5,-382.965 32.5,-382.965"/>
<text text-anchor="middle" x="70" y="-389.965" font-family="Helvetica,sans-Serif" font-size="10.00">set&lt; float &gt;</text>
</g>
<!-- Node4&#45;&gt;Node3 -->
<g id="edge2" class="edge"><title>Node4&#45;&gt;Node3</title>
<path fill="none" stroke="#9a32cd" stroke-dasharray="5,2" d="M117.818,-398.75C163.587,-402.437 233.431,-401.286 283,-369.465 336.933,-334.844 362.944,-255.413 370.551,-227.986"/>
<polygon fill="#9a32cd" stroke="#9a32cd" points="117.859,-395.239 107.581,-397.813 117.22,-402.21 117.859,-395.239"/>
<text text-anchor="middle" x="220.5" y="-413.465" font-family="Helvetica,sans-Serif" font-size="10.00"> range_j</text>
<text text-anchor="middle" x="220.5" y="-402.465" font-family="Helvetica,sans-Serif" font-size="10.00">range_m</text>
</g>
<!-- Node5 -->
<g id="node4" class="node"><title>Node5</title>
<g id="a_node4"><a xlink:href="classdouble.html" target="_top" xlink:title="double">
<polygon fill="none" stroke="black" points="45.5,-326.965 45.5,-345.965 94.5,-345.965 94.5,-326.965 45.5,-326.965"/>
<text text-anchor="middle" x="70" y="-333.965" font-family="Helvetica,sans-Serif" font-size="10.00">double</text>
</a>
</g>
</g>
<!-- Node5&#45;&gt;Node3 -->
<g id="edge3" class="edge"><title>Node5&#45;&gt;Node3</title>
<path fill="none" stroke="#9a32cd" stroke-dasharray="5,2" d="M104.773,-335.616C156.488,-333.847 252.512,-328.58 283,-313.465 323.1,-293.586 354.779,-248.045 367.252,-228.11"/>
<polygon fill="#9a32cd" stroke="#9a32cd" points="104.636,-332.118 94.7518,-335.934 104.858,-339.115 104.636,-332.118"/>
<text text-anchor="middle" x="220.5" y="-357.465" font-family="Helvetica,sans-Serif" font-size="10.00"> energy_max</text>
<text text-anchor="middle" x="220.5" y="-346.465" font-family="Helvetica,sans-Serif" font-size="10.00">threshold_for_sqnorm</text>
<text text-anchor="middle" x="220.5" y="-335.465" font-family="Helvetica,sans-Serif" font-size="10.00">energy_min</text>
</g>
<!-- Node6 -->
<g id="node5" class="node"><title>Node6</title>
<polygon fill="none" stroke="#bfbfbf" points="37,-283.965 37,-302.965 103,-302.965 103,-283.965 37,-283.965"/>
<text text-anchor="middle" x="70" y="-290.965" font-family="Helvetica,sans-Serif" font-size="10.00">set&lt; int &gt;</text>
</g>
<!-- Node6&#45;&gt;Node3 -->
<g id="edge4" class="edge"><title>Node6&#45;&gt;Node3</title>
<path fill="none" stroke="#9a32cd" stroke-dasharray="5,2" d="M113.517,-291.48C156.961,-288.524 225.953,-281.244 283,-263.465 310.686,-254.837 340.309,-238.477 357.716,-228.041"/>
<polygon fill="#9a32cd" stroke="#9a32cd" points="113.071,-288.001 103.313,-292.127 113.514,-294.987 113.071,-288.001"/>
<text text-anchor="middle" x="220.5" y="-301.465" font-family="Helvetica,sans-Serif" font-size="10.00"> range_l</text>
<text text-anchor="middle" x="220.5" y="-290.465" font-family="Helvetica,sans-Serif" font-size="10.00">range_n</text>
</g>
<!-- Node7 -->
<g id="node6" class="node"><title>Node7</title>
<g id="a_node6"><a xlink:href="structstates__set.html" target="_top" xlink:title="states_set\&lt; StateOne \&gt;">
<polygon fill="none" stroke="black" points="2.5,-245.965 2.5,-264.965 137.5,-264.965 137.5,-245.965 2.5,-245.965"/>
<text text-anchor="middle" x="70" y="-252.965" font-family="Helvetica,sans-Serif" font-size="10.00">states_set&lt; StateOne &gt;</text>
</a>
</g>
</g>
<!-- Node7&#45;&gt;Node3 -->
<g id="edge5" class="edge"><title>Node7&#45;&gt;Node3</title>
<path fill="none" stroke="#9a32cd" stroke-dasharray="5,2" d="M147.593,-249.962C187.978,-246.626 238.287,-241.783 283,-235.465 297.328,-233.441 312.842,-230.707 326.888,-228.025"/>
<polygon fill="#9a32cd" stroke="#9a32cd" points="147.233,-246.479 137.549,-250.778 147.799,-253.457 147.233,-246.479"/>
<text text-anchor="middle" x="220.5" y="-251.465" font-family="Helvetica,sans-Serif" font-size="10.00"> states</text>
</g>
<!-- Node8 -->
<g id="node7" class="node"><title>Node8</title>
<g id="a_node7"><a xlink:href="classbool.html" target="_top" xlink:title="bool">
<polygon fill="none" stroke="black" points="51.5,-171.965 51.5,-190.965 88.5,-190.965 88.5,-171.965 51.5,-171.965"/>
<text text-anchor="middle" x="70" y="-178.965" font-family="Helvetica,sans-Serif" font-size="10.00">bool</text>
</a>
</g>
</g>
<!-- Node8&#45;&gt;Node3 -->
<g id="edge6" class="edge"><title>Node8&#45;&gt;Node3</title>
<path fill="none" stroke="#9a32cd" stroke-dasharray="5,2" d="M98.5947,-176.649C139.445,-170.451 218.168,-162.082 283,-176.465 310.943,-182.665 340.49,-198.484 357.811,-208.841"/>
<polygon fill="#9a32cd" stroke="#9a32cd" points="97.9134,-173.214 88.5876,-178.241 99.0133,-180.127 97.9134,-173.214"/>
<text text-anchor="middle" x="220.5" y="-223.465" font-family="Helvetica,sans-Serif" font-size="10.00"> memory_saving</text>
<text text-anchor="start" x="168" y="-212.465" font-family="Helvetica,sans-Serif" font-size="10.00">is_interaction_already</text>
<text text-anchor="middle" x="220.5" y="-201.465" font-family="Helvetica,sans-Serif" font-size="10.00">_contained</text>
<text text-anchor="start" x="168" y="-190.465" font-family="Helvetica,sans-Serif" font-size="10.00">is_new_hamiltonian</text>
<text text-anchor="middle" x="220.5" y="-179.465" font-family="Helvetica,sans-Serif" font-size="10.00">_required</text>
</g>
<!-- Node9 -->
<g id="node8" class="node"><title>Node9</title>
<g id="a_node8"><a xlink:href="classstd_1_1set_3_01StateOne_01_4.html" target="_top" xlink:title="set\&lt; StateOne \&gt;">
<polygon fill="none" stroke="black" points="20,-133.965 20,-152.965 120,-152.965 120,-133.965 20,-133.965"/>
<text text-anchor="middle" x="70" y="-140.965" font-family="Helvetica,sans-Serif" font-size="10.00">set&lt; StateOne &gt;</text>
</a>
</g>
</g>
<!-- Node9&#45;&gt;Node3 -->
<g id="edge7" class="edge"><title>Node9&#45;&gt;Node3</title>
<path fill="none" stroke="#9a32cd" stroke-dasharray="5,2" d="M130.197,-137.382C173.693,-135.009 233.572,-136.186 283,-153.465 316.477,-165.169 348.325,-193.628 363.591,-208.71"/>
<polygon fill="#9a32cd" stroke="#9a32cd" points="129.828,-133.898 120.066,-138.014 130.264,-140.884 129.828,-133.898"/>
<text text-anchor="middle" x="220.5" y="-156.465" font-family="Helvetica,sans-Serif" font-size="10.00"> states_to_add</text>
</g>
<!-- Node10 -->
<g id="node9" class="node"><title>Node10</title>
<polygon fill="none" stroke="#bfbfbf" points="0,-46.9653 0,-65.9653 140,-65.9653 140,-46.9653 0,-46.9653"/>
<text text-anchor="middle" x="70" y="-53.9653" font-family="Helvetica,sans-Serif" font-size="10.00">SparseMatrix&lt; scalar_t &gt;</text>
</g>
<!-- Node10&#45;&gt;Node3 -->
<g id="edge8" class="edge"><title>Node10&#45;&gt;Node3</title>
<path fill="none" stroke="#9a32cd" stroke-dasharray="5,2" d="M124.183,-45.3832C169.656,-38.859 235.14,-36.7278 283,-65.4653 338.483,-98.78 363.501,-180.393 370.701,-208.648"/>
<polygon fill="#9a32cd" stroke="#9a32cd" points="123.571,-41.9362 114.225,-46.9274 124.643,-48.8535 123.571,-41.9362"/>
<text text-anchor="start" x="158" y="-123.465" font-family="Helvetica,sans-Serif" font-size="10.00"> hamiltonian_unperturbed</text>
<text text-anchor="middle" x="220.5" y="-112.465" font-family="Helvetica,sans-Serif" font-size="10.00">_cache</text>
<text text-anchor="middle" x="220.5" y="-101.465" font-family="Helvetica,sans-Serif" font-size="10.00">hamiltonian</text>
<text text-anchor="start" x="158" y="-90.4653" font-family="Helvetica,sans-Serif" font-size="10.00">basisvectors_unperturbed</text>
<text text-anchor="middle" x="220.5" y="-79.4653" font-family="Helvetica,sans-Serif" font-size="10.00">_cache</text>
<text text-anchor="middle" x="220.5" y="-68.4653" font-family="Helvetica,sans-Serif" font-size="10.00">basisvectors</text>
</g>
<!-- Node11 -->
<g id="node10" class="node"><title>Node11</title>
<g id="a_node10"><a xlink:href="classMatrixElementCache.html" target="_top" xlink:title="MatrixElementCache">
<polygon fill="none" stroke="black" points="12,-8.96534 12,-27.9653 128,-27.9653 128,-8.96534 12,-8.96534"/>
<text text-anchor="middle" x="70" y="-15.9653" font-family="Helvetica,sans-Serif" font-size="10.00">MatrixElementCache</text>
</a>
</g>
</g>
<!-- Node11&#45;&gt;Node3 -->
<g id="edge9" class="edge"><title>Node11&#45;&gt;Node3</title>
<path fill="none" stroke="#9a32cd" stroke-dasharray="5,2" d="M117.418,-6.96522C163.397,1.63061 233.864,6.98934 283,-25.4653 349.326,-69.2742 367.725,-175.628 371.918,-208.571"/>
<polygon fill="#9a32cd" stroke="#9a32cd" points="116.549,-3.56946 107.426,-8.95612 117.917,-10.4345 116.549,-3.56946"/>
<text text-anchor="middle" x="220.5" y="-28.4653" font-family="Helvetica,sans-Serif" font-size="10.00"> cache</text>
</g>
</g>
</svg>
