<?xml version="1.0" encoding="UTF-8" standalone="no"?>
<!DOCTYPE svg PUBLIC "-//W3C//DTD SVG 1.1//EN"
 "http://www.w3.org/Graphics/SVG/1.1/DTD/svg11.dtd">
<!-- Generated by graphviz version 2.38.0 (20140413.2041)
 -->
<!-- Title: StateOne::getJ Pages: 1 -->
<svg width="698pt" height="401pt"
 viewBox="0.00 0.00 698.00 401.00" xmlns="http://www.w3.org/2000/svg" xmlns:xlink="http://www.w3.org/1999/xlink">
<g id="graph0" class="graph" transform="scale(1 1) rotate(0) translate(4 397)">
<title>StateOne::getJ</title>
<!-- Node26 -->
<g id="node1" class="node"><title>Node26</title>
<polygon fill="#bfbfbf" stroke="black" points="0,-180 0,-199 86,-199 86,-180 0,-180"/>
<text text-anchor="middle" x="43" y="-187" font-family="Helvetica,sans-Serif" font-size="10.00">StateOne::getJ</text>
</g>
<!-- Node27 -->
<g id="node2" class="node"><title>Node27</title>
<g id="a_node2"><a xlink:href="classMatrixElementCache.html#afc9f56a599c9ea24bbfbd4aeb41efbd4" target="_top" xlink:title="MatrixElementCache\l::getElectricMultipole">
<polygon fill="none" stroke="black" points="144.5,-362.5 144.5,-392.5 260.5,-392.5 260.5,-362.5 144.5,-362.5"/>
<text text-anchor="start" x="152.5" y="-380.5" font-family="Helvetica,sans-Serif" font-size="10.00">MatrixElementCache</text>
<text text-anchor="middle" x="202.5" y="-369.5" font-family="Helvetica,sans-Serif" font-size="10.00">::getElectricMultipole</text>
</a>
</g>
</g>
<!-- Node26&#45;&gt;Node27 -->
<g id="edge1" class="edge"><title>Node26&#45;&gt;Node27</title>
<path fill="none" stroke="midnightblue" d="M47.9869,-209.518C55.9046,-244.025 76.8893,-314.725 122,-353.5 128.451,-359.045 136.151,-363.309 144.182,-366.587"/>
<polygon fill="midnightblue" stroke="midnightblue" points="51.3137,-208.341 45.7867,-199.302 44.4706,-209.815 51.3137,-208.341"/>
</g>
<!-- Node28 -->
<g id="node3" class="node"><title>Node28</title>
<g id="a_node3"><a xlink:href="classMatrixElementCache.html#aeef0496ad6db911dac50c0625660d9c0" target="_top" xlink:title="MatrixElementCache\l::getMagneticDipole">
<polygon fill="none" stroke="black" points="344.5,-0.5 344.5,-30.5 460.5,-30.5 460.5,-0.5 344.5,-0.5"/>
<text text-anchor="start" x="352.5" y="-18.5" font-family="Helvetica,sans-Serif" font-size="10.00">MatrixElementCache</text>
<text text-anchor="middle" x="402.5" y="-7.5" font-family="Helvetica,sans-Serif" font-size="10.00">::getMagneticDipole</text>
</a>
</g>
</g>
<!-- Node26&#45;&gt;Node28 -->
<g id="edge2" class="edge"><title>Node26&#45;&gt;Node28</title>
<path fill="none" stroke="midnightblue" d="M51.6959,-170.241C63.0518,-144.422 86.8234,-99.1089 122,-75.5 131.259,-69.2857 265.313,-42.2174 344.347,-26.644"/>
<polygon fill="midnightblue" stroke="midnightblue" points="48.3699,-169.12 47.7118,-179.695 54.8206,-171.839 48.3699,-169.12"/>
</g>
<!-- Node30 -->
<g id="node5" class="node"><title>Node30</title>
<g id="a_node5"><a xlink:href="classMatrixElementCache.html#ad624534d20e42d8c4f495b51d6084057" target="_top" xlink:title="MatrixElementCache\l::getRadial">
<polygon fill="none" stroke="black" points="144.5,-313.5 144.5,-343.5 260.5,-343.5 260.5,-313.5 144.5,-313.5"/>
<text text-anchor="start" x="152.5" y="-331.5" font-family="Helvetica,sans-Serif" font-size="10.00">MatrixElementCache</text>
<text text-anchor="middle" x="202.5" y="-320.5" font-family="Helvetica,sans-Serif" font-size="10.00">::getRadial</text>
</a>
</g>
</g>
<!-- Node26&#45;&gt;Node30 -->
<g id="edge4" class="edge"><title>Node26&#45;&gt;Node30</title>
<path fill="none" stroke="midnightblue" d="M52.9734,-208.24C65.3644,-232.279 89.8733,-273.81 122,-298.5 129.837,-304.523 139.017,-309.448 148.301,-313.438"/>
<polygon fill="midnightblue" stroke="midnightblue" points="56.014,-206.494 48.4181,-199.108 49.7501,-209.619 56.014,-206.494"/>
</g>
<!-- Node33 -->
<g id="node8" class="node"><title>Node33</title>
<g id="a_node8"><a xlink:href="classStateOne.html#a0b5646c4160083ef4b24460e9159ad2c" target="_top" xlink:title="StateOne::getReflected">
<polygon fill="none" stroke="black" points="138.5,-237 138.5,-256 266.5,-256 266.5,-237 138.5,-237"/>
<text text-anchor="middle" x="202.5" y="-244" font-family="Helvetica,sans-Serif" font-size="10.00">StateOne::getReflected</text>
</a>
</g>
</g>
<!-- Node26&#45;&gt;Node33 -->
<g id="edge7" class="edge"><title>Node26&#45;&gt;Node33</title>
<path fill="none" stroke="midnightblue" d="M74.3081,-203.215C88.6283,-209.464 106.045,-216.735 122,-222.5 136.509,-227.742 152.777,-232.795 166.8,-236.901"/>
<polygon fill="midnightblue" stroke="midnightblue" points="75.5068,-199.918 64.9449,-199.083 72.6806,-206.322 75.5068,-199.918"/>
</g>
<!-- Node34 -->
<g id="node9" class="node"><title>Node34</title>
<g id="a_node9"><a xlink:href="classSystemOne.html#a4278feede19c90186f22f37c1d5d53b2" target="_top" xlink:title="Method that allows base class to combine systems ///////////////. ">
<polygon fill="none" stroke="black" points="335.5,-262 335.5,-281 469.5,-281 469.5,-262 335.5,-262"/>
<text text-anchor="middle" x="402.5" y="-269" font-family="Helvetica,sans-Serif" font-size="10.00">SystemOne::incorporate</text>
</a>
</g>
</g>
<!-- Node26&#45;&gt;Node34 -->
<g id="edge10" class="edge"><title>Node26&#45;&gt;Node34</title>
<path fill="none" stroke="midnightblue" d="M55.8662,-207.2C69.394,-225.646 93.379,-253.502 122,-265.5 197.2,-297.023 294.07,-289.756 351.783,-281.035"/>
<polygon fill="midnightblue" stroke="midnightblue" points="58.7146,-205.165 50.0908,-199.011 52.9941,-209.2 58.7146,-205.165"/>
</g>
<!-- Node35 -->
<g id="node10" class="node"><title>Node35</title>
<g id="a_node10"><a xlink:href="classSystemTwo.html#a7aa70b668bd55e25ba9ed8f9d037052c" target="_top" xlink:title="Method that allows base class to initialize Basis //////////////. ">
<polygon fill="none" stroke="black" points="332,-220 332,-239 473,-239 473,-220 332,-220"/>
<text text-anchor="middle" x="402.5" y="-227" font-family="Helvetica,sans-Serif" font-size="10.00">SystemTwo::initializeBasis</text>
</a>
</g>
</g>
<!-- Node26&#45;&gt;Node35 -->
<g id="edge11" class="edge"><title>Node26&#45;&gt;Node35</title>
<path fill="none" stroke="midnightblue" d="M96.0424,-195.323C158.232,-202.281 262.538,-213.952 331.686,-221.689"/>
<polygon fill="midnightblue" stroke="midnightblue" points="96.3883,-191.84 86.0611,-194.206 95.6098,-198.796 96.3883,-191.84"/>
</g>
<!-- Node36 -->
<g id="node11" class="node"><title>Node36</title>
<g id="a_node11"><a xlink:href="State_8cpp.html#ae62083584a93c249d0c3b4a6f046fee1" target="_top" xlink:title="operator\&lt;\&lt;">
<polygon fill="none" stroke="black" points="165.5,-123 165.5,-142 239.5,-142 239.5,-123 165.5,-123"/>
<text text-anchor="middle" x="202.5" y="-130" font-family="Helvetica,sans-Serif" font-size="10.00">operator&lt;&lt;</text>
</a>
</g>
</g>
<!-- Node26&#45;&gt;Node36 -->
<g id="edge12" class="edge"><title>Node26&#45;&gt;Node36</title>
<path fill="none" stroke="midnightblue" d="M69.975,-175.067C84.8577,-167.254 104.086,-157.917 122,-151.5 135.894,-146.523 151.62,-142.454 165.396,-139.377"/>
<polygon fill="midnightblue" stroke="midnightblue" points="68.0448,-172.13 60.8799,-179.935 71.3481,-178.302 68.0448,-172.13"/>
</g>
<!-- Node37 -->
<g id="node12" class="node"><title>Node37</title>
<g id="a_node12"><a xlink:href="MatrixElementCache_8h.html#a15aabd3025cfa0ca9485cd672c0a1a4a" target="_top" xlink:title="selectionRulesMomentumNew">
<polygon fill="none" stroke="black" points="122,-161 122,-180 283,-180 283,-161 122,-161"/>
<text text-anchor="middle" x="202.5" y="-168" font-family="Helvetica,sans-Serif" font-size="10.00">selectionRulesMomentumNew</text>
</a>
</g>
</g>
<!-- Node26&#45;&gt;Node37 -->
<g id="edge13" class="edge"><title>Node26&#45;&gt;Node37</title>
<path fill="none" stroke="midnightblue" d="M96.2975,-183.191C104.784,-182.167 113.734,-181.088 122.685,-180.008"/>
<polygon fill="midnightblue" stroke="midnightblue" points="95.7159,-179.736 86.2071,-184.408 96.5543,-186.685 95.7159,-179.736"/>
</g>
<!-- Node39 -->
<g id="node14" class="node"><title>Node39</title>
<g id="a_node14"><a xlink:href="MatrixElementCache_8h.html#a06a268e07e2a0edb3fca096b8c941c78" target="_top" xlink:title="selectionRulesMultipoleNew">
<polygon fill="none" stroke="black" points="128.5,-85 128.5,-104 276.5,-104 276.5,-85 128.5,-85"/>
<text text-anchor="middle" x="202.5" y="-92" font-family="Helvetica,sans-Serif" font-size="10.00">selectionRulesMultipoleNew</text>
</a>
</g>
</g>
<!-- Node26&#45;&gt;Node39 -->
<g id="edge17" class="edge"><title>Node26&#45;&gt;Node39</title>
<path fill="none" stroke="midnightblue" d="M57.4765,-171.642C71.6307,-154.165 95.4877,-128.105 122,-113.5 129.085,-109.597 136.956,-106.49 144.912,-104.019"/>
<polygon fill="midnightblue" stroke="midnightblue" points="54.4207,-169.866 50.9965,-179.892 59.9258,-174.189 54.4207,-169.866"/>
</g>
<!-- Node41 -->
<g id="node16" class="node"><title>Node41</title>
<g id="a_node16"><a xlink:href="classStateOne.html#a5b05a258a43a682cfe7af5eb57d0221c" target="_top" xlink:title="Implementation of one&#45;atom state ///////////////////////////////. ">
<polygon fill="none" stroke="black" points="145.5,-9 145.5,-28 259.5,-28 259.5,-9 145.5,-9"/>
<text text-anchor="middle" x="202.5" y="-16" font-family="Helvetica,sans-Serif" font-size="10.00">StateOne::StateOne</text>
</a>
</g>
</g>
<!-- Node26&#45;&gt;Node41 -->
<g id="edge21" class="edge"><title>Node26&#45;&gt;Node41</title>
<path fill="none" stroke="midnightblue" d="M48.9862,-170.224C58.1083,-138.805 80.4756,-76.6373 122,-42.5 129.684,-36.1826 139.002,-31.5271 148.514,-28.0966"/>
<polygon fill="midnightblue" stroke="midnightblue" points="45.5861,-169.388 46.3024,-179.959 52.3344,-171.249 45.5861,-169.388"/>
</g>
<!-- Node29 -->
<g id="node4" class="node"><title>Node29</title>
<g id="a_node4"><a xlink:href="classSystemOne.html#abf6d26d44765fa787251956c128644a7" target="_top" xlink:title="Method that allows base class to calculate the interaction /////. ">
<polygon fill="none" stroke="black" points="522,-110 522,-129 690,-129 690,-110 522,-110"/>
<text text-anchor="middle" x="606" y="-117" font-family="Helvetica,sans-Serif" font-size="10.00">SystemOne::initializeInteraction</text>
</a>
</g>
</g>
<!-- Node28&#45;&gt;Node29 -->
<g id="edge3" class="edge"><title>Node28&#45;&gt;Node29</title>
<path fill="none" stroke="midnightblue" d="M470.384,-33.925C475.741,-35.9559 481.007,-38.1486 486,-40.5 528.177,-60.3635 572.584,-93.6577 593.199,-109.944"/>
<polygon fill="midnightblue" stroke="midnightblue" points="471.277,-30.5269 460.682,-30.4447 468.913,-37.1157 471.277,-30.5269"/>
</g>
<!-- Node31 -->
<g id="node6" class="node"><title>Node31</title>
<g id="a_node6"><a xlink:href="classMatrixElementCache.html#aebf63bfd2c9cc016e6c21410b92a4983" target="_top" xlink:title="MatrixElementCache\l::getLeRoyRadius">
<polygon fill="none" stroke="black" points="344.5,-313.5 344.5,-343.5 460.5,-343.5 460.5,-313.5 344.5,-313.5"/>
<text text-anchor="start" x="352.5" y="-331.5" font-family="Helvetica,sans-Serif" font-size="10.00">MatrixElementCache</text>
<text text-anchor="middle" x="402.5" y="-320.5" font-family="Helvetica,sans-Serif" font-size="10.00">::getLeRoyRadius</text>
</a>
</g>
</g>
<!-- Node30&#45;&gt;Node31 -->
<g id="edge5" class="edge"><title>Node30&#45;&gt;Node31</title>
<path fill="none" stroke="midnightblue" d="M270.566,-328.5C294.486,-328.5 321.191,-328.5 344.213,-328.5"/>
<polygon fill="midnightblue" stroke="midnightblue" points="270.504,-325 260.504,-328.5 270.504,-332 270.504,-325"/>
</g>
<!-- Node32 -->
<g id="node7" class="node"><title>Node32</title>
<g id="a_node7"><a xlink:href="classSystemTwo.html#aabf2ba0d13067b81c2f7d1c78368a63e" target="_top" xlink:title="Methods that allows base class to communicate with subclass ////. ">
<polygon fill="none" stroke="black" points="527,-319 527,-338 685,-338 685,-319 527,-319"/>
<text text-anchor="middle" x="606" y="-326" font-family="Helvetica,sans-Serif" font-size="10.00">SystemTwo::onStatesChange</text>
</a>
</g>
</g>
<!-- Node31&#45;&gt;Node32 -->
<g id="edge6" class="edge"><title>Node31&#45;&gt;Node32</title>
<path fill="none" stroke="midnightblue" d="M470.81,-328.5C488.817,-328.5 508.432,-328.5 526.964,-328.5"/>
<polygon fill="midnightblue" stroke="midnightblue" points="470.703,-325 460.703,-328.5 470.703,-332 470.703,-325"/>
</g>
<!-- Node33&#45;&gt;Node34 -->
<g id="edge8" class="edge"><title>Node33&#45;&gt;Node34</title>
<path fill="none" stroke="midnightblue" d="M276.633,-255.734C295.918,-258.169 316.613,-260.782 335.498,-263.166"/>
<polygon fill="midnightblue" stroke="midnightblue" points="277.053,-252.259 266.693,-254.479 276.176,-259.204 277.053,-252.259"/>
</g>
<!-- Node33&#45;&gt;Node35 -->
<g id="edge9" class="edge"><title>Node33&#45;&gt;Node35</title>
<path fill="none" stroke="midnightblue" d="M276.812,-240.206C294.762,-238.664 313.922,-237.019 331.702,-235.493"/>
<polygon fill="midnightblue" stroke="midnightblue" points="276.357,-236.732 266.693,-241.074 276.956,-243.706 276.357,-236.732"/>
</g>
<!-- Node37&#45;&gt;Node29 -->
<g id="edge14" class="edge"><title>Node37&#45;&gt;Node29</title>
<path fill="none" stroke="midnightblue" d="M293.383,-177.429C349.324,-179.727 422.467,-179.059 486,-166.5 523.263,-159.134 563.84,-140.638 586.679,-129.168"/>
<polygon fill="midnightblue" stroke="midnightblue" points="293.292,-173.922 283.144,-176.968 292.976,-180.915 293.292,-173.922"/>
</g>
<!-- Node38 -->
<g id="node13" class="node"><title>Node38</title>
<g id="a_node13"><a xlink:href="classMatrixElementCache.html#a41efbe3c4a7e3e5f2ed2c807a0b3178e" target="_top" xlink:title="MatrixElementCache\l::precalculateDiamagnetism">
<polygon fill="none" stroke="black" points="326.5,-126.5 326.5,-156.5 478.5,-156.5 478.5,-126.5 326.5,-126.5"/>
<text text-anchor="start" x="334.5" y="-144.5" font-family="Helvetica,sans-Serif" font-size="10.00">MatrixElementCache</text>
<text text-anchor="middle" x="402.5" y="-133.5" font-family="Helvetica,sans-Serif" font-size="10.00">::precalculateDiamagnetism</text>
</a>
</g>
</g>
<!-- Node37&#45;&gt;Node38 -->
<g id="edge15" class="edge"><title>Node37&#45;&gt;Node38</title>
<path fill="none" stroke="midnightblue" d="M278.727,-159.482C294.339,-157.195 310.788,-154.786 326.395,-152.5"/>
<polygon fill="midnightblue" stroke="midnightblue" points="277.994,-156.052 268.607,-160.964 279.009,-162.978 277.994,-156.052"/>
</g>
<!-- Node38&#45;&gt;Node29 -->
<g id="edge16" class="edge"><title>Node38&#45;&gt;Node29</title>
<path fill="none" stroke="midnightblue" d="M488.547,-132.214C499.549,-131.013 510.807,-129.784 521.779,-128.586"/>
<polygon fill="midnightblue" stroke="midnightblue" points="488.092,-128.743 478.531,-133.308 488.852,-135.702 488.092,-128.743"/>
</g>
<!-- Node39&#45;&gt;Node29 -->
<g id="edge19" class="edge"><title>Node39&#45;&gt;Node29</title>
<path fill="none" stroke="midnightblue" d="M287.052,-99.7025C355.944,-103.992 453.174,-110.046 521.933,-114.328"/>
<polygon fill="midnightblue" stroke="midnightblue" points="286.873,-96.1846 276.674,-99.0563 286.438,-103.171 286.873,-96.1846"/>
</g>
<!-- Node39&#45;&gt;Node38 -->
<g id="edge20" class="edge"><title>Node39&#45;&gt;Node38</title>
<path fill="none" stroke="midnightblue" d="M253.461,-106.359C279.145,-112.456 310.72,-119.951 338.103,-126.451"/>
<polygon fill="midnightblue" stroke="midnightblue" points="254.106,-102.915 243.568,-104.011 252.49,-109.726 254.106,-102.915"/>
</g>
<!-- Node40 -->
<g id="node15" class="node"><title>Node40</title>
<g id="a_node15"><a xlink:href="classSystemTwo.html#a5cc89c42ab8066027b0c375b818c8333" target="_top" xlink:title="Method that allows base class to calculate the interaction /////. ">
<polygon fill="none" stroke="black" points="319,-50 319,-69 486,-69 486,-50 319,-50"/>
<text text-anchor="middle" x="402.5" y="-57" font-family="Helvetica,sans-Serif" font-size="10.00">SystemTwo::initializeInteraction</text>
</a>
</g>
</g>
<!-- Node39&#45;&gt;Node40 -->
<g id="edge18" class="edge"><title>Node39&#45;&gt;Node40</title>
<path fill="none" stroke="midnightblue" d="M267.44,-83.1974C293.333,-78.6204 322.901,-73.3938 347.668,-69.0158"/>
<polygon fill="midnightblue" stroke="midnightblue" points="266.581,-79.795 257.343,-84.9823 267.799,-86.6881 266.581,-79.795"/>
</g>
</g>
</svg>
