<?xml version="1.0" encoding="UTF-8" standalone="no"?>
<!DOCTYPE svg PUBLIC "-//W3C//DTD SVG 1.1//EN"
 "http://www.w3.org/Graphics/SVG/1.1/DTD/svg11.dtd">
<!-- Generated by graphviz version 2.38.0 (20140413.2041)
 -->
<!-- Title: StateTwoOld::order Pages: 1 -->
<svg width="295pt" height="104pt"
 viewBox="0.00 0.00 295.00 104.00" xmlns="http://www.w3.org/2000/svg" xmlns:xlink="http://www.w3.org/1999/xlink">
<g id="graph0" class="graph" transform="scale(1 1) rotate(0) translate(4 100)">
<title>StateTwoOld::order</title>
<!-- Node65 -->
<g id="node1" class="node"><title>Node65</title>
<polygon fill="#bfbfbf" stroke="black" points="0,-38.5 0,-57.5 108,-57.5 108,-38.5 0,-38.5"/>
<text text-anchor="middle" x="54" y="-45.5" font-family="Helvetica,sans-Serif" font-size="10.00">StateTwoOld::order</text>
</g>
<!-- Node66 -->
<g id="node2" class="node"><title>Node66</title>
<g id="a_node2"><a xlink:href="classStateTwoOld.html#aad5fb4307dec316a5b602c2e8bfae0a8" target="_top" xlink:title="StateTwoOld::first">
<polygon fill="none" stroke="black" points="165,-76.5 165,-95.5 266,-95.5 266,-76.5 165,-76.5"/>
<text text-anchor="middle" x="215.5" y="-83.5" font-family="Helvetica,sans-Serif" font-size="10.00">StateTwoOld::first</text>
</a>
</g>
</g>
<!-- Node65&#45;&gt;Node66 -->
<g id="edge1" class="edge"><title>Node65&#45;&gt;Node66</title>
<path fill="none" stroke="midnightblue" d="M95.2486,-57.589C116.296,-62.6035 142.255,-68.7881 164.573,-74.1053"/>
<polygon fill="midnightblue" stroke="midnightblue" points="164.002,-77.567 174.541,-76.4799 165.624,-70.7576 164.002,-77.567"/>
</g>
<!-- Node67 -->
<g id="node3" class="node"><title>Node67</title>
<g id="a_node3"><a xlink:href="classStateTwoOld.html#a6efa9c8f92e433004b778f6f5ce212d9" target="_top" xlink:title="StateTwoOld::second">
<polygon fill="none" stroke="black" points="157,-38.5 157,-57.5 274,-57.5 274,-38.5 157,-38.5"/>
<text text-anchor="middle" x="215.5" y="-45.5" font-family="Helvetica,sans-Serif" font-size="10.00">StateTwoOld::second</text>
</a>
</g>
</g>
<!-- Node65&#45;&gt;Node67 -->
<g id="edge2" class="edge"><title>Node65&#45;&gt;Node67</title>
<path fill="none" stroke="midnightblue" d="M108.111,-48C120.482,-48 133.819,-48 146.727,-48"/>
<polygon fill="midnightblue" stroke="midnightblue" points="146.961,-51.5001 156.961,-48 146.961,-44.5001 146.961,-51.5001"/>
</g>
<!-- Node68 -->
<g id="node4" class="node"><title>Node68</title>
<g id="a_node4"><a xlink:href="classStateTwoOld.html#a33b595b744249754cb86bde5cd125c06" target="_top" xlink:title="StateTwoOld::StateTwoOld">
<polygon fill="none" stroke="black" points="144,-0.5 144,-19.5 287,-19.5 287,-0.5 144,-0.5"/>
<text text-anchor="middle" x="215.5" y="-7.5" font-family="Helvetica,sans-Serif" font-size="10.00">StateTwoOld::StateTwoOld</text>
</a>
</g>
</g>
<!-- Node65&#45;&gt;Node68 -->
<g id="edge3" class="edge"><title>Node65&#45;&gt;Node68</title>
<path fill="none" stroke="midnightblue" d="M95.2486,-38.411C116.296,-33.3965 142.255,-27.2119 164.573,-21.8947"/>
<polygon fill="midnightblue" stroke="midnightblue" points="165.624,-25.2424 174.541,-19.5201 164.002,-18.433 165.624,-25.2424"/>
</g>
</g>
</svg>
