<?xml version="1.0" encoding="UTF-8" standalone="no"?>
<!DOCTYPE svg PUBLIC "-//W3C//DTD SVG 1.1//EN"
 "http://www.w3.org/Graphics/SVG/1.1/DTD/svg11.dtd">
<!-- Generated by graphviz version 2.38.0 (20140413.2041)
 -->
<!-- Title: StateOne::StateOne Pages: 1 -->
<svg width="463pt" height="66pt"
 viewBox="0.00 0.00 463.00 66.00" xmlns="http://www.w3.org/2000/svg" xmlns:xlink="http://www.w3.org/1999/xlink">
<g id="graph0" class="graph" transform="scale(1 1) rotate(0) translate(4 62)">
<title>StateOne::StateOne</title>
<!-- Node1 -->
<g id="node1" class="node"><title>Node1</title>
<polygon fill="#bfbfbf" stroke="black" points="0,-19.5 0,-38.5 114,-38.5 114,-19.5 0,-19.5"/>
<text text-anchor="middle" x="57" y="-26.5" font-family="Helvetica,sans-Serif" font-size="10.00">StateOne::StateOne</text>
</g>
<!-- Node2 -->
<g id="node2" class="node"><title>Node2</title>
<g id="a_node2"><a xlink:href="classStateOne.html#a0b5646c4160083ef4b24460e9159ad2c" target="_top" xlink:title="StateOne::getReflected">
<polygon fill="none" stroke="black" points="150,-19.5 150,-38.5 278,-38.5 278,-19.5 150,-19.5"/>
<text text-anchor="middle" x="214" y="-26.5" font-family="Helvetica,sans-Serif" font-size="10.00">StateOne::getReflected</text>
</a>
</g>
</g>
<!-- Node1&#45;&gt;Node2 -->
<g id="edge1" class="edge"><title>Node1&#45;&gt;Node2</title>
<path fill="none" stroke="midnightblue" d="M124.522,-29C132.916,-29 141.485,-29 149.825,-29"/>
<polygon fill="midnightblue" stroke="midnightblue" points="124.397,-25.5001 114.397,-29 124.397,-32.5001 124.397,-25.5001"/>
</g>
<!-- Node3 -->
<g id="node3" class="node"><title>Node3</title>
<g id="a_node3"><a xlink:href="classSystemOne.html#a4278feede19c90186f22f37c1d5d53b2" target="_top" xlink:title="Method that allows base class to combine systems ///////////////. ">
<polygon fill="none" stroke="black" points="317.5,-38.5 317.5,-57.5 451.5,-57.5 451.5,-38.5 317.5,-38.5"/>
<text text-anchor="middle" x="384.5" y="-45.5" font-family="Helvetica,sans-Serif" font-size="10.00">SystemOne::incorporate</text>
</a>
</g>
</g>
<!-- Node2&#45;&gt;Node3 -->
<g id="edge2" class="edge"><title>Node2&#45;&gt;Node3</title>
<path fill="none" stroke="midnightblue" d="M288.233,-37.2578C297.93,-38.3511 307.824,-39.4668 317.391,-40.5455"/>
<polygon fill="midnightblue" stroke="midnightblue" points="288.552,-33.7716 278.223,-36.129 287.767,-40.7275 288.552,-33.7716"/>
</g>
<!-- Node4 -->
<g id="node4" class="node"><title>Node4</title>
<g id="a_node4"><a xlink:href="classSystemTwo.html#a7aa70b668bd55e25ba9ed8f9d037052c" target="_top" xlink:title="Method that allows base class to initialize Basis //////////////. ">
<polygon fill="none" stroke="black" points="314,-0.5 314,-19.5 455,-19.5 455,-0.5 314,-0.5"/>
<text text-anchor="middle" x="384.5" y="-7.5" font-family="Helvetica,sans-Serif" font-size="10.00">SystemTwo::initializeBasis</text>
</a>
</g>
</g>
<!-- Node2&#45;&gt;Node4 -->
<g id="edge3" class="edge"><title>Node2&#45;&gt;Node4</title>
<path fill="none" stroke="midnightblue" d="M288.186,-20.7475C296.753,-19.7815 305.476,-18.798 313.991,-17.8378"/>
<polygon fill="midnightblue" stroke="midnightblue" points="287.767,-17.2725 278.223,-21.871 288.552,-24.2284 287.767,-17.2725"/>
</g>
</g>
</svg>
