<?xml version="1.0" encoding="UTF-8" standalone="no"?>
<!DOCTYPE svg PUBLIC "-//W3C//DTD SVG 1.1//EN"
 "http://www.w3.org/Graphics/SVG/1.1/DTD/svg11.dtd">
<!-- Generated by graphviz version 2.38.0 (20140413.2041)
 -->
<!-- Title: HamiltonianTwo::calculate Pages: 1 -->
<svg width="821pt" height="770pt"
 viewBox="0.00 0.00 821.00 769.50" xmlns="http://www.w3.org/2000/svg" xmlns:xlink="http://www.w3.org/1999/xlink">
<g id="graph0" class="graph" transform="scale(1 1) rotate(0) translate(4 765.5)">
<title>HamiltonianTwo::calculate</title>
<!-- Node70 -->
<g id="node1" class="node"><title>Node70</title>
<polygon fill="#bfbfbf" stroke="black" points="0,-357.5 0,-376.5 141,-376.5 141,-357.5 0,-357.5"/>
<text text-anchor="middle" x="70.5" y="-364.5" font-family="Helvetica,sans-Serif" font-size="10.00">HamiltonianTwo::calculate</text>
</g>
<!-- Node71 -->
<g id="node2" class="node"><title>Node71</title>
<g id="a_node2"><a xlink:href="classHamiltonianmatrix.html#ab0f42b034579983088548dd6dd4e1e78" target="_top" xlink:title="Hamiltonianmatrix::\lbasis">
<polygon fill="none" stroke="black" points="396,-682 396,-712 507,-712 507,-682 396,-682"/>
<text text-anchor="start" x="404" y="-700" font-family="Helvetica,sans-Serif" font-size="10.00">Hamiltonianmatrix::</text>
<text text-anchor="middle" x="451.5" y="-689" font-family="Helvetica,sans-Serif" font-size="10.00">basis</text>
</a>
</g>
</g>
<!-- Node70&#45;&gt;Node71 -->
<g id="edge1" class="edge"><title>Node70&#45;&gt;Node71</title>
<path fill="none" stroke="midnightblue" d="M72.9744,-376.813C80.9076,-428.166 120.276,-665.209 177,-707 242.633,-755.355 343.142,-734.402 402.297,-715.323"/>
<polygon fill="midnightblue" stroke="midnightblue" points="403.753,-718.527 412.133,-712.044 401.54,-711.886 403.753,-718.527"/>
</g>
<!-- Node72 -->
<g id="node3" class="node"><title>Node72</title>
<g id="a_node3"><a xlink:href="classHamiltonianmatrix.html#a310f8a7bc796d0b431928b82f2d11285" target="_top" xlink:title="Hamiltonianmatrix::\lchangeBasis">
<polygon fill="none" stroke="black" points="209.5,-667 209.5,-697 320.5,-697 320.5,-667 209.5,-667"/>
<text text-anchor="start" x="217.5" y="-685" font-family="Helvetica,sans-Serif" font-size="10.00">Hamiltonianmatrix::</text>
<text text-anchor="middle" x="265" y="-674" font-family="Helvetica,sans-Serif" font-size="10.00">changeBasis</text>
</a>
</g>
</g>
<!-- Node70&#45;&gt;Node72 -->
<g id="edge2" class="edge"><title>Node70&#45;&gt;Node72</title>
<path fill="none" stroke="midnightblue" d="M71.987,-376.693C74.5648,-417.361 90.044,-575.854 177,-657 183.511,-663.076 191.403,-667.688 199.746,-671.185"/>
<polygon fill="midnightblue" stroke="midnightblue" points="198.712,-674.533 209.306,-674.678 201.115,-667.958 198.712,-674.533"/>
</g>
<!-- Node75 -->
<g id="node6" class="node"><title>Node75</title>
<g id="a_node6"><a xlink:href="Hamiltonianmatrix_8cpp.html#ae139c21d132020dde7c86db8efc751e1" target="_top" xlink:title="combine">
<polygon fill="none" stroke="black" points="236,-540.5 236,-559.5 294,-559.5 294,-540.5 236,-540.5"/>
<text text-anchor="middle" x="265" y="-547.5" font-family="Helvetica,sans-Serif" font-size="10.00">combine</text>
</a>
</g>
</g>
<!-- Node70&#45;&gt;Node75 -->
<g id="edge6" class="edge"><title>Node70&#45;&gt;Node75</title>
<path fill="none" stroke="midnightblue" d="M75.0383,-376.602C85.7629,-404.337 120.667,-485.179 177,-526 191.154,-536.257 209.495,-542.132 225.684,-545.496"/>
<polygon fill="midnightblue" stroke="midnightblue" points="225.482,-549.017 235.947,-547.366 226.736,-542.13 225.482,-549.017"/>
</g>
<!-- Node79 -->
<g id="node10" class="node"><title>Node79</title>
<g id="a_node10"><a xlink:href="classHamiltonianmatrix.html#a4069febf25da1723d9cc8e27cd2cd669" target="_top" xlink:title="Hamiltonianmatrix::\lnum_basisvectors">
<polygon fill="none" stroke="black" points="396,-388 396,-418 507,-418 507,-388 396,-388"/>
<text text-anchor="start" x="404" y="-406" font-family="Helvetica,sans-Serif" font-size="10.00">Hamiltonianmatrix::</text>
<text text-anchor="middle" x="451.5" y="-395" font-family="Helvetica,sans-Serif" font-size="10.00">num_basisvectors</text>
</a>
</g>
</g>
<!-- Node70&#45;&gt;Node79 -->
<g id="edge33" class="edge"><title>Node70&#45;&gt;Node79</title>
<path fill="none" stroke="midnightblue" d="M75.9071,-376.696C87.8844,-401.699 123.747,-468.133 177,-493 247.876,-526.096 285.608,-532.713 353,-493 381.451,-476.234 364.294,-449.913 389,-428 390.751,-426.447 392.612,-424.982 394.554,-423.603"/>
<polygon fill="midnightblue" stroke="midnightblue" points="396.825,-426.314 403.497,-418.083 393.149,-420.357 396.825,-426.314"/>
</g>
<!-- Node81 -->
<g id="node12" class="node"><title>Node81</title>
<g id="a_node12"><a xlink:href="classHamiltonianmatrix.html#a1db6d20a1d88ef89f1acdad819af34ee" target="_top" xlink:title="Hamiltonianmatrix::\ldiagonalize">
<polygon fill="none" stroke="black" points="209.5,-579 209.5,-609 320.5,-609 320.5,-579 209.5,-579"/>
<text text-anchor="start" x="217.5" y="-597" font-family="Helvetica,sans-Serif" font-size="10.00">Hamiltonianmatrix::</text>
<text text-anchor="middle" x="265" y="-586" font-family="Helvetica,sans-Serif" font-size="10.00">diagonalize</text>
</a>
</g>
</g>
<!-- Node70&#45;&gt;Node81 -->
<g id="edge14" class="edge"><title>Node70&#45;&gt;Node81</title>
<path fill="none" stroke="midnightblue" d="M73.6809,-376.745C81.4804,-409.291 111.107,-515.206 177,-569 183.65,-574.429 191.423,-578.679 199.537,-582.007"/>
<polygon fill="midnightblue" stroke="midnightblue" points="198.579,-585.382 209.173,-585.504 200.967,-578.802 198.579,-585.382"/>
</g>
<!-- Node82 -->
<g id="node13" class="node"><title>Node82</title>
<g id="a_node13"><a xlink:href="Hamiltonianmatrix_8cpp.html#a678b50f9b12e7a3fa69970554dd5d206" target="_top" xlink:title="energycutoff">
<polygon fill="none" stroke="black" points="226.5,-628.5 226.5,-647.5 303.5,-647.5 303.5,-628.5 226.5,-628.5"/>
<text text-anchor="middle" x="265" y="-635.5" font-family="Helvetica,sans-Serif" font-size="10.00">energycutoff</text>
</a>
</g>
</g>
<!-- Node70&#45;&gt;Node82 -->
<g id="edge18" class="edge"><title>Node70&#45;&gt;Node82</title>
<path fill="none" stroke="midnightblue" d="M72.4163,-376.586C76.5393,-414.106 96.8355,-552.206 177,-619 187.991,-628.158 202.405,-633.178 216.329,-635.855"/>
<polygon fill="midnightblue" stroke="midnightblue" points="215.907,-639.331 226.327,-637.415 216.986,-632.415 215.907,-639.331"/>
</g>
<!-- Node83 -->
<g id="node14" class="node"><title>Node83</title>
<g id="a_node14"><a xlink:href="classStateTwoOld.html#aad5fb4307dec316a5b602c2e8bfae0a8" target="_top" xlink:title="StateTwoOld::first">
<polygon fill="none" stroke="black" points="214.5,-414.5 214.5,-433.5 315.5,-433.5 315.5,-414.5 214.5,-414.5"/>
<text text-anchor="middle" x="265" y="-421.5" font-family="Helvetica,sans-Serif" font-size="10.00">StateTwoOld::first</text>
</a>
</g>
</g>
<!-- Node70&#45;&gt;Node83 -->
<g id="edge22" class="edge"><title>Node70&#45;&gt;Node83</title>
<path fill="none" stroke="midnightblue" d="M95.092,-376.502C116.284,-384.794 148.377,-396.758 177,-405 186.042,-407.604 195.701,-410.043 205.174,-412.249"/>
<polygon fill="midnightblue" stroke="midnightblue" points="204.418,-415.667 214.944,-414.461 205.964,-408.839 204.418,-415.667"/>
</g>
<!-- Node84 -->
<g id="node15" class="node"><title>Node84</title>
<g id="a_node15"><a xlink:href="classBasisnamesOne.html#a37fe3571090885a8a594eed4019befa9" target="_top" xlink:title="BasisnamesOne::fromFirst">
<polygon fill="none" stroke="black" points="193.5,-376.5 193.5,-395.5 336.5,-395.5 336.5,-376.5 193.5,-376.5"/>
<text text-anchor="middle" x="265" y="-383.5" font-family="Helvetica,sans-Serif" font-size="10.00">BasisnamesOne::fromFirst</text>
</a>
</g>
</g>
<!-- Node70&#45;&gt;Node84 -->
<g id="edge23" class="edge"><title>Node70&#45;&gt;Node84</title>
<path fill="none" stroke="midnightblue" d="M141.269,-373.886C154.949,-375.237 169.403,-376.663 183.403,-378.045"/>
<polygon fill="midnightblue" stroke="midnightblue" points="183.204,-381.542 193.5,-379.042 183.892,-374.576 183.204,-381.542"/>
</g>
<!-- Node86 -->
<g id="node17" class="node"><title>Node86</title>
<g id="a_node17"><a xlink:href="classBasisnamesOne.html#a683ae34cba3c56f9a0185e932de62078" target="_top" xlink:title="BasisnamesOne::fromSecond">
<polygon fill="none" stroke="black" points="185.5,-338.5 185.5,-357.5 344.5,-357.5 344.5,-338.5 185.5,-338.5"/>
<text text-anchor="middle" x="265" y="-345.5" font-family="Helvetica,sans-Serif" font-size="10.00">BasisnamesOne::fromSecond</text>
</a>
</g>
</g>
<!-- Node70&#45;&gt;Node86 -->
<g id="edge25" class="edge"><title>Node70&#45;&gt;Node86</title>
<path fill="none" stroke="midnightblue" d="M141.269,-360.114C152.337,-359.021 163.912,-357.879 175.343,-356.751"/>
<polygon fill="midnightblue" stroke="midnightblue" points="175.728,-360.23 185.336,-355.764 175.04,-353.264 175.728,-360.23"/>
</g>
<!-- Node87 -->
<g id="node18" class="node"><title>Node87</title>
<g id="a_node18"><a xlink:href="classMatrixElements.html#a6b21945229b04895c8a2e896454df444" target="_top" xlink:title="MatrixElements::getMultipole">
<polygon fill="none" stroke="black" points="187.5,-300.5 187.5,-319.5 342.5,-319.5 342.5,-300.5 187.5,-300.5"/>
<text text-anchor="middle" x="265" y="-307.5" font-family="Helvetica,sans-Serif" font-size="10.00">MatrixElements::getMultipole</text>
</a>
</g>
</g>
<!-- Node70&#45;&gt;Node87 -->
<g id="edge27" class="edge"><title>Node70&#45;&gt;Node87</title>
<path fill="none" stroke="midnightblue" d="M95.092,-357.498C116.284,-349.206 148.377,-337.242 177,-329 186.042,-326.396 195.701,-323.957 205.174,-321.751"/>
<polygon fill="midnightblue" stroke="midnightblue" points="205.964,-325.161 214.944,-319.539 204.418,-318.333 205.964,-325.161"/>
</g>
<!-- Node88 -->
<g id="node19" class="node"><title>Node88</title>
<g id="a_node19"><a xlink:href="classHamiltonianmatrix.html#ab5561740a111d0e9dc53c865009176a5" target="_top" xlink:title="Hamiltonianmatrix::load">
<polygon fill="none" stroke="black" points="199.5,-262.5 199.5,-281.5 330.5,-281.5 330.5,-262.5 199.5,-262.5"/>
<text text-anchor="middle" x="265" y="-269.5" font-family="Helvetica,sans-Serif" font-size="10.00">Hamiltonianmatrix::load</text>
</a>
</g>
</g>
<!-- Node70&#45;&gt;Node88 -->
<g id="edge28" class="edge"><title>Node70&#45;&gt;Node88</title>
<path fill="none" stroke="midnightblue" d="M81.6732,-357.422C99.5139,-341.173 138.244,-308.291 177,-291 182.652,-288.478 188.664,-286.281 194.784,-284.368"/>
<polygon fill="midnightblue" stroke="midnightblue" points="195.811,-287.714 204.456,-281.59 193.879,-280.986 195.811,-287.714"/>
</g>
<!-- Node92 -->
<g id="node23" class="node"><title>Node92</title>
<g id="a_node23"><a xlink:href="classConfiguration.html#a545d28b3d64edc05331ee71898acfd1c" target="_top" xlink:title="Load configuration from JSON file. ">
<polygon fill="none" stroke="black" points="211.5,-213 211.5,-243 318.5,-243 318.5,-213 211.5,-213"/>
<text text-anchor="start" x="219.5" y="-231" font-family="Helvetica,sans-Serif" font-size="10.00">Configuration::load</text>
<text text-anchor="middle" x="265" y="-220" font-family="Helvetica,sans-Serif" font-size="10.00">_from_json</text>
</a>
</g>
</g>
<!-- Node70&#45;&gt;Node92 -->
<g id="edge32" class="edge"><title>Node70&#45;&gt;Node92</title>
<path fill="none" stroke="midnightblue" d="M77.6255,-357.411C92.1309,-335.49 130.847,-281.421 177,-253 184.584,-248.33 193.073,-244.502 201.696,-241.373"/>
<polygon fill="midnightblue" stroke="midnightblue" points="203.063,-244.607 211.447,-238.129 200.853,-237.965 203.063,-244.607"/>
</g>
<!-- Node93 -->
<g id="node24" class="node"><title>Node93</title>
<g id="a_node24"><a xlink:href="classMatrixElements.html#a9c1a327dedbd617cae43dbcff1685a43" target="_top" xlink:title="MatrixElements::precalculate\lMultipole">
<polygon fill="none" stroke="black" points="187.5,-164 187.5,-194 342.5,-194 342.5,-164 187.5,-164"/>
<text text-anchor="start" x="195.5" y="-182" font-family="Helvetica,sans-Serif" font-size="10.00">MatrixElements::precalculate</text>
<text text-anchor="middle" x="265" y="-171" font-family="Helvetica,sans-Serif" font-size="10.00">Multipole</text>
</a>
</g>
</g>
<!-- Node70&#45;&gt;Node93 -->
<g id="edge34" class="edge"><title>Node70&#45;&gt;Node93</title>
<path fill="none" stroke="midnightblue" d="M74.9873,-357.187C85.5737,-328.838 120.14,-246.166 177,-204 179.507,-202.141 182.148,-200.42 184.889,-198.827"/>
<polygon fill="midnightblue" stroke="midnightblue" points="186.65,-201.856 193.931,-194.16 183.44,-195.636 186.65,-201.856"/>
</g>
<!-- Node94 -->
<g id="node25" class="node"><title>Node94</title>
<g id="a_node25"><a xlink:href="classsqlite_1_1statement.html#a1b40871fb975892f70ea097f7c6da9c1" target="_top" xlink:title="Prepare the statement. ">
<polygon fill="none" stroke="black" points="213,-115 213,-145 317,-145 317,-115 213,-115"/>
<text text-anchor="start" x="221" y="-133" font-family="Helvetica,sans-Serif" font-size="10.00">sqlite::statement::</text>
<text text-anchor="middle" x="265" y="-122" font-family="Helvetica,sans-Serif" font-size="10.00">prepare</text>
</a>
</g>
</g>
<!-- Node70&#45;&gt;Node94 -->
<g id="edge35" class="edge"><title>Node70&#45;&gt;Node94</title>
<path fill="none" stroke="midnightblue" d="M73.4244,-357.252C80.5694,-323.684 108.764,-211.827 177,-155 184.608,-148.664 193.74,-143.933 203.186,-140.4"/>
<polygon fill="midnightblue" stroke="midnightblue" points="204.299,-143.718 212.691,-137.251 202.098,-137.073 204.299,-143.718"/>
</g>
<!-- Node95 -->
<g id="node26" class="node"><title>Node95</title>
<g id="a_node26"><a xlink:href="classHamiltonianmatrix.html#a2ff416efff07de6e3df93948c2688989" target="_top" xlink:title="Hamiltonianmatrix::\lremoveUnnecessaryBasisvectors">
<polygon fill="none" stroke="black" points="177,-453 177,-483 353,-483 353,-453 177,-453"/>
<text text-anchor="start" x="185" y="-471" font-family="Helvetica,sans-Serif" font-size="10.00">Hamiltonianmatrix::</text>
<text text-anchor="middle" x="265" y="-460" font-family="Helvetica,sans-Serif" font-size="10.00">removeUnnecessaryBasisvectors</text>
</a>
</g>
</g>
<!-- Node70&#45;&gt;Node95 -->
<g id="edge36" class="edge"><title>Node70&#45;&gt;Node95</title>
<path fill="none" stroke="midnightblue" d="M82.0855,-376.569C100.237,-392.508 139.027,-424.561 177,-443 181.86,-445.36 186.983,-447.536 192.211,-449.537"/>
<polygon fill="midnightblue" stroke="midnightblue" points="191.107,-452.859 201.701,-452.948 193.475,-446.272 191.107,-452.859"/>
</g>
<!-- Node96 -->
<g id="node27" class="node"><title>Node96</title>
<g id="a_node27"><a xlink:href="classHamiltonianmatrix.html#a9e77fcca733a19f250dd619799edc9e6" target="_top" xlink:title="Hamiltonianmatrix::save">
<polygon fill="none" stroke="black" points="198,-76.5 198,-95.5 332,-95.5 332,-76.5 198,-76.5"/>
<text text-anchor="middle" x="265" y="-83.5" font-family="Helvetica,sans-Serif" font-size="10.00">Hamiltonianmatrix::save</text>
</a>
</g>
</g>
<!-- Node70&#45;&gt;Node96 -->
<g id="edge38" class="edge"><title>Node70&#45;&gt;Node96</title>
<path fill="none" stroke="midnightblue" d="M72.2939,-357.37C75.9928,-319.031 95.0144,-175.945 177,-106 180.544,-102.976 184.456,-100.387 188.6,-98.1711"/>
<polygon fill="midnightblue" stroke="midnightblue" points="190.34,-101.225 197.99,-93.8953 187.439,-94.8542 190.34,-101.225"/>
</g>
<!-- Node101 -->
<g id="node32" class="node"><title>Node101</title>
<g id="a_node32"><a xlink:href="classStateTwoOld.html#a6efa9c8f92e433004b778f6f5ce212d9" target="_top" xlink:title="StateTwoOld::second">
<polygon fill="none" stroke="black" points="206.5,-38.5 206.5,-57.5 323.5,-57.5 323.5,-38.5 206.5,-38.5"/>
<text text-anchor="middle" x="265" y="-45.5" font-family="Helvetica,sans-Serif" font-size="10.00">StateTwoOld::second</text>
</a>
</g>
</g>
<!-- Node70&#45;&gt;Node101 -->
<g id="edge43" class="edge"><title>Node70&#45;&gt;Node101</title>
<path fill="none" stroke="midnightblue" d="M71.7086,-357.395C73.163,-315.662 84.7502,-148.536 177,-67 182.654,-62.0023 189.316,-58.2197 196.394,-55.3705"/>
<polygon fill="midnightblue" stroke="midnightblue" points="197.898,-58.5566 206.249,-52.0373 195.655,-51.9256 197.898,-58.5566"/>
</g>
<!-- Node102 -->
<g id="node33" class="node"><title>Node102</title>
<g id="a_node33"><a xlink:href="MatrixElements_8cpp.html#a8091d5442eeac91702ef15b470e70798" target="_top" xlink:title="selectionRulesMultipole">
<polygon fill="none" stroke="black" points="201,-0.5 201,-19.5 329,-19.5 329,-0.5 201,-0.5"/>
<text text-anchor="middle" x="265" y="-7.5" font-family="Helvetica,sans-Serif" font-size="10.00">selectionRulesMultipole</text>
</a>
</g>
</g>
<!-- Node70&#45;&gt;Node102 -->
<g id="edge44" class="edge"><title>Node70&#45;&gt;Node102</title>
<path fill="none" stroke="midnightblue" d="M71.2798,-357.441C70.8036,-312.724 75.0122,-122.43 177,-29 181.204,-25.1491 186.001,-22.0133 191.135,-19.4666"/>
<polygon fill="midnightblue" stroke="midnightblue" points="192.796,-22.5665 200.682,-15.4915 190.105,-16.1043 192.796,-22.5665"/>
</g>
<!-- Node72&#45;&gt;Node71 -->
<g id="edge3" class="edge"><title>Node72&#45;&gt;Node71</title>
<path fill="none" stroke="midnightblue" d="M320.857,-686.46C341.213,-688.115 364.494,-690.008 385.657,-691.728"/>
<polygon fill="midnightblue" stroke="midnightblue" points="385.604,-695.235 395.855,-692.557 386.171,-688.258 385.604,-695.235"/>
</g>
<!-- Node73 -->
<g id="node4" class="node"><title>Node73</title>
<g id="a_node4"><a xlink:href="classHamiltonianmatrix.html#a9a6919d68a5f490c249adaaffd46fe75" target="_top" xlink:title="Hamiltonianmatrix::\lentries">
<polygon fill="none" stroke="black" points="396,-633 396,-663 507,-663 507,-633 396,-633"/>
<text text-anchor="start" x="404" y="-651" font-family="Helvetica,sans-Serif" font-size="10.00">Hamiltonianmatrix::</text>
<text text-anchor="middle" x="451.5" y="-640" font-family="Helvetica,sans-Serif" font-size="10.00">entries</text>
</a>
</g>
</g>
<!-- Node72&#45;&gt;Node73 -->
<g id="edge4" class="edge"><title>Node72&#45;&gt;Node73</title>
<path fill="none" stroke="midnightblue" d="M320.857,-671.891C341.305,-668.123 364.705,-663.81 385.946,-659.896"/>
<polygon fill="midnightblue" stroke="midnightblue" points="386.655,-663.325 395.855,-658.07 385.386,-656.44 386.655,-663.325"/>
</g>
<!-- Node74 -->
<g id="node5" class="node"><title>Node74</title>
<g id="a_node5"><a xlink:href="classHamiltonianmatrix.html#abee2f1bfc2b5239e366a59d1f96ba03e" target="_top" xlink:title="Hamiltonianmatrix::\lHamiltonianmatrix">
<polygon fill="none" stroke="black" points="396,-731 396,-761 507,-761 507,-731 396,-731"/>
<text text-anchor="start" x="404" y="-749" font-family="Helvetica,sans-Serif" font-size="10.00">Hamiltonianmatrix::</text>
<text text-anchor="middle" x="451.5" y="-738" font-family="Helvetica,sans-Serif" font-size="10.00">Hamiltonianmatrix</text>
</a>
</g>
</g>
<!-- Node72&#45;&gt;Node74 -->
<g id="edge5" class="edge"><title>Node72&#45;&gt;Node74</title>
<path fill="none" stroke="midnightblue" d="M309.257,-697.005C335.648,-706.16 369.576,-717.929 397.565,-727.638"/>
<polygon fill="midnightblue" stroke="midnightblue" points="396.6,-731.007 407.195,-730.978 398.894,-724.394 396.6,-731.007"/>
</g>
<!-- Node75&#45;&gt;Node71 -->
<g id="edge9" class="edge"><title>Node75&#45;&gt;Node71</title>
<path fill="none" stroke="midnightblue" d="M294.257,-549.737C313.03,-551.036 337.066,-555.733 353,-570 389.128,-602.348 355.33,-638.101 389,-673 390.044,-674.083 391.144,-675.117 392.289,-676.106"/>
<polygon fill="midnightblue" stroke="midnightblue" points="390.274,-678.969 400.43,-681.988 394.374,-673.295 390.274,-678.969"/>
</g>
<!-- Node75&#45;&gt;Node73 -->
<g id="edge11" class="edge"><title>Node75&#45;&gt;Node73</title>
<path fill="none" stroke="midnightblue" d="M294.397,-551.212C312.531,-553.199 335.784,-558.111 353,-570 376.735,-586.391 366.525,-605.921 389,-624 390.574,-625.266 392.223,-626.472 393.929,-627.619"/>
<polygon fill="midnightblue" stroke="midnightblue" points="392.459,-630.816 402.851,-632.881 396.015,-624.786 392.459,-630.816"/>
</g>
<!-- Node76 -->
<g id="node7" class="node"><title>Node76</title>
<g id="a_node7"><a xlink:href="classHamiltonianmatrix.html#a45f3d187ac775e9b6c6a7756810f91ab" target="_top" xlink:title="Hamiltonianmatrix::\laddBasis">
<polygon fill="none" stroke="black" points="396,-535 396,-565 507,-565 507,-535 396,-535"/>
<text text-anchor="start" x="404" y="-553" font-family="Helvetica,sans-Serif" font-size="10.00">Hamiltonianmatrix::</text>
<text text-anchor="middle" x="451.5" y="-542" font-family="Helvetica,sans-Serif" font-size="10.00">addBasis</text>
</a>
</g>
</g>
<!-- Node75&#45;&gt;Node76 -->
<g id="edge7" class="edge"><title>Node75&#45;&gt;Node76</title>
<path fill="none" stroke="midnightblue" d="M294.022,-550C318.309,-550 354.387,-550 385.782,-550"/>
<polygon fill="midnightblue" stroke="midnightblue" points="385.79,-553.5 395.79,-550 385.79,-546.5 385.79,-553.5"/>
</g>
<!-- Node77 -->
<g id="node8" class="node"><title>Node77</title>
<g id="a_node8"><a xlink:href="classHamiltonianmatrix.html#a7f424947bfe863cdd30d3290b4b708a5" target="_top" xlink:title="Hamiltonianmatrix::\laddEntries">
<polygon fill="none" stroke="black" points="396,-486 396,-516 507,-516 507,-486 396,-486"/>
<text text-anchor="start" x="404" y="-504" font-family="Helvetica,sans-Serif" font-size="10.00">Hamiltonianmatrix::</text>
<text text-anchor="middle" x="451.5" y="-493" font-family="Helvetica,sans-Serif" font-size="10.00">addEntries</text>
</a>
</g>
</g>
<!-- Node75&#45;&gt;Node77 -->
<g id="edge8" class="edge"><title>Node75&#45;&gt;Node77</title>
<path fill="none" stroke="midnightblue" d="M294.022,-542.558C318.309,-536.108 354.387,-526.526 385.782,-518.188"/>
<polygon fill="midnightblue" stroke="midnightblue" points="387.023,-521.48 395.79,-515.53 385.226,-514.714 387.023,-521.48"/>
</g>
<!-- Node78 -->
<g id="node9" class="node"><title>Node78</title>
<g id="a_node9"><a xlink:href="classHamiltonianmatrix.html#a4dded9728c945c20fcd7abbc8bd5cfe6" target="_top" xlink:title="Hamiltonianmatrix::\lcompress">
<polygon fill="none" stroke="black" points="396,-437 396,-467 507,-467 507,-437 396,-437"/>
<text text-anchor="start" x="404" y="-455" font-family="Helvetica,sans-Serif" font-size="10.00">Hamiltonianmatrix::</text>
<text text-anchor="middle" x="451.5" y="-444" font-family="Helvetica,sans-Serif" font-size="10.00">compress</text>
</a>
</g>
</g>
<!-- Node75&#45;&gt;Node78 -->
<g id="edge10" class="edge"><title>Node75&#45;&gt;Node78</title>
<path fill="none" stroke="midnightblue" d="M294.26,-547.025C312.339,-544.017 335.58,-537.999 353,-526 375.255,-510.671 367.679,-493.603 389,-477 391.259,-475.241 393.659,-473.587 396.151,-472.036"/>
<polygon fill="midnightblue" stroke="midnightblue" points="397.882,-475.079 404.908,-467.149 394.47,-468.966 397.882,-475.079"/>
</g>
<!-- Node75&#45;&gt;Node79 -->
<g id="edge12" class="edge"><title>Node75&#45;&gt;Node79</title>
<path fill="none" stroke="midnightblue" d="M294.272,-548.737C313.052,-546.473 337.09,-540.643 353,-526 387.142,-494.577 356.753,-461.365 389,-428 390.382,-426.57 391.856,-425.22 393.405,-423.945"/>
<polygon fill="midnightblue" stroke="midnightblue" points="395.481,-426.764 401.682,-418.173 391.477,-421.022 395.481,-426.764"/>
</g>
<!-- Node80 -->
<g id="node11" class="node"><title>Node80</title>
<g id="a_node11"><a xlink:href="classHamiltonianmatrix.html#a9cd965385a65becbfb993fc79dc428f7" target="_top" xlink:title="Hamiltonianmatrix::\lnum_coordinates">
<polygon fill="none" stroke="black" points="396,-584 396,-614 507,-614 507,-584 396,-584"/>
<text text-anchor="start" x="404" y="-602" font-family="Helvetica,sans-Serif" font-size="10.00">Hamiltonianmatrix::</text>
<text text-anchor="middle" x="451.5" y="-591" font-family="Helvetica,sans-Serif" font-size="10.00">num_coordinates</text>
</a>
</g>
</g>
<!-- Node75&#45;&gt;Node80 -->
<g id="edge13" class="edge"><title>Node75&#45;&gt;Node80</title>
<path fill="none" stroke="midnightblue" d="M294.321,-556.036C311.386,-559.791 333.517,-564.869 353,-570 365.792,-573.369 379.446,-577.25 392.362,-581.054"/>
<polygon fill="midnightblue" stroke="midnightblue" points="391.486,-584.444 402.068,-583.938 393.479,-577.734 391.486,-584.444"/>
</g>
<!-- Node81&#45;&gt;Node71 -->
<g id="edge15" class="edge"><title>Node81&#45;&gt;Node71</title>
<path fill="none" stroke="midnightblue" d="M320.704,-603.388C332.078,-607.017 343.485,-612.044 353,-619 376.285,-636.024 366.525,-654.921 389,-673 390.574,-674.266 392.223,-675.472 393.929,-676.619"/>
<polygon fill="midnightblue" stroke="midnightblue" points="392.459,-679.816 402.851,-681.881 396.015,-673.786 392.459,-679.816"/>
</g>
<!-- Node81&#45;&gt;Node73 -->
<g id="edge16" class="edge"><title>Node81&#45;&gt;Node73</title>
<path fill="none" stroke="midnightblue" d="M318.931,-609.125C330.183,-612.364 341.989,-615.78 353,-619 365.104,-622.539 378.042,-626.36 390.407,-630.031"/>
<polygon fill="midnightblue" stroke="midnightblue" points="389.591,-633.439 400.173,-632.934 391.585,-626.73 389.591,-633.439"/>
</g>
<!-- Node81&#45;&gt;Node79 -->
<g id="edge17" class="edge"><title>Node81&#45;&gt;Node79</title>
<path fill="none" stroke="midnightblue" d="M320.858,-587.449C332.758,-583.7 344.353,-577.909 353,-569 398.046,-522.589 346.483,-476.738 389,-428 390.146,-426.686 391.371,-425.441 392.662,-424.26"/>
<polygon fill="midnightblue" stroke="midnightblue" points="394.831,-427.007 400.685,-418.176 390.602,-421.43 394.831,-427.007"/>
</g>
<!-- Node82&#45;&gt;Node71 -->
<g id="edge19" class="edge"><title>Node82&#45;&gt;Node71</title>
<path fill="none" stroke="midnightblue" d="M303.631,-645.199C319.087,-648.53 337.062,-652.888 353,-658 369.505,-663.294 372.925,-666.516 389,-673 393.179,-674.686 397.524,-676.419 401.887,-678.147"/>
<polygon fill="midnightblue" stroke="midnightblue" points="400.819,-681.488 411.406,-681.898 403.385,-674.976 400.819,-681.488"/>
</g>
<!-- Node82&#45;&gt;Node73 -->
<g id="edge20" class="edge"><title>Node82&#45;&gt;Node73</title>
<path fill="none" stroke="midnightblue" d="M303.782,-640.048C327.339,-641.325 358.28,-643.002 385.673,-644.486"/>
<polygon fill="midnightblue" stroke="midnightblue" points="385.8,-647.998 395.975,-645.045 386.179,-641.009 385.8,-647.998"/>
</g>
<!-- Node82&#45;&gt;Node80 -->
<g id="edge21" class="edge"><title>Node82&#45;&gt;Node80</title>
<path fill="none" stroke="midnightblue" d="M303.782,-630.014C327.443,-625.012 358.553,-618.436 386.034,-612.627"/>
<polygon fill="midnightblue" stroke="midnightblue" points="386.915,-616.018 395.975,-610.526 385.467,-609.17 386.915,-616.018"/>
</g>
<!-- Node85 -->
<g id="node16" class="node"><title>Node85</title>
<g id="a_node16"><a xlink:href="classBasisnames.html#a534f7e2dcc2987a1f969cb89c070da04" target="_top" xlink:title="Basisnames::configure">
<polygon fill="none" stroke="black" points="389,-343.5 389,-362.5 514,-362.5 514,-343.5 389,-343.5"/>
<text text-anchor="middle" x="451.5" y="-350.5" font-family="Helvetica,sans-Serif" font-size="10.00">Basisnames::configure</text>
</a>
</g>
</g>
<!-- Node84&#45;&gt;Node85 -->
<g id="edge24" class="edge"><title>Node84&#45;&gt;Node85</title>
<path fill="none" stroke="midnightblue" d="M319.365,-376.455C340.592,-372.658 365.181,-368.26 387.291,-364.306"/>
<polygon fill="midnightblue" stroke="midnightblue" points="388.027,-367.73 397.255,-362.524 386.795,-360.839 388.027,-367.73"/>
</g>
<!-- Node86&#45;&gt;Node85 -->
<g id="edge26" class="edge"><title>Node86&#45;&gt;Node85</title>
<path fill="none" stroke="midnightblue" d="M344.512,-350.128C355.851,-350.435 367.473,-350.75 378.672,-351.053"/>
<polygon fill="midnightblue" stroke="midnightblue" points="378.727,-354.556 388.818,-351.328 378.917,-347.559 378.727,-354.556"/>
</g>
<!-- Node89 -->
<g id="node20" class="node"><title>Node89</title>
<g id="a_node20"><a xlink:href="classHamiltonianmatrix.html#a15bc9c823975f5395112432c5b8507db" target="_top" xlink:title="Hamiltonianmatrix::\ldoDeserialization">
<polygon fill="none" stroke="black" points="396,-257 396,-287 507,-287 507,-257 396,-257"/>
<text text-anchor="start" x="404" y="-275" font-family="Helvetica,sans-Serif" font-size="10.00">Hamiltonianmatrix::</text>
<text text-anchor="middle" x="451.5" y="-264" font-family="Helvetica,sans-Serif" font-size="10.00">doDeserialization</text>
</a>
</g>
</g>
<!-- Node88&#45;&gt;Node89 -->
<g id="edge29" class="edge"><title>Node88&#45;&gt;Node89</title>
<path fill="none" stroke="midnightblue" d="M330.529,-272C348.42,-272 367.844,-272 385.748,-272"/>
<polygon fill="midnightblue" stroke="midnightblue" points="385.803,-275.5 395.803,-272 385.803,-268.5 385.803,-275.5"/>
</g>
<!-- Node90 -->
<g id="node21" class="node"><title>Node90</title>
<g id="a_node21"><a xlink:href="classSerializer.html#a26e560124d2dd1daa304ac8e878db630" target="_top" xlink:title="Serializer::load">
<polygon fill="none" stroke="black" points="562,-284.5 562,-303.5 649,-303.5 649,-284.5 562,-284.5"/>
<text text-anchor="middle" x="605.5" y="-291.5" font-family="Helvetica,sans-Serif" font-size="10.00">Serializer::load</text>
</a>
</g>
</g>
<!-- Node89&#45;&gt;Node90 -->
<g id="edge30" class="edge"><title>Node89&#45;&gt;Node90</title>
<path fill="none" stroke="midnightblue" d="M507.375,-279.943C521.745,-282.022 537.21,-284.261 551.481,-286.326"/>
<polygon fill="midnightblue" stroke="midnightblue" points="551.23,-289.826 561.628,-287.795 552.233,-282.898 551.23,-289.826"/>
</g>
<!-- Node91 -->
<g id="node22" class="node"><title>Node91</title>
<g id="a_node22"><a xlink:href="classHamiltonianmatrix.html#a37cc79dcec0f0d81265870a34517a225" target="_top" xlink:title="Hamiltonianmatrix::\lmergeComplex">
<polygon fill="none" stroke="black" points="550,-235 550,-265 661,-265 661,-235 550,-235"/>
<text text-anchor="start" x="558" y="-253" font-family="Helvetica,sans-Serif" font-size="10.00">Hamiltonianmatrix::</text>
<text text-anchor="middle" x="605.5" y="-242" font-family="Helvetica,sans-Serif" font-size="10.00">mergeComplex</text>
</a>
</g>
</g>
<!-- Node89&#45;&gt;Node91 -->
<g id="edge31" class="edge"><title>Node89&#45;&gt;Node91</title>
<path fill="none" stroke="midnightblue" d="M507.375,-264.057C517.879,-262.537 528.968,-260.932 539.748,-259.372"/>
<polygon fill="midnightblue" stroke="midnightblue" points="540.564,-262.79 549.96,-257.894 539.562,-255.863 540.564,-262.79"/>
</g>
<!-- Node95&#45;&gt;Node79 -->
<g id="edge37" class="edge"><title>Node95&#45;&gt;Node79</title>
<path fill="none" stroke="midnightblue" d="M321.995,-452.939C332.37,-449.858 343.064,-446.485 353,-443 369.357,-437.264 372.971,-434.597 389,-428 393.806,-426.022 398.827,-423.965 403.839,-421.918"/>
<polygon fill="midnightblue" stroke="midnightblue" points="405.466,-425.035 413.404,-418.019 402.823,-418.553 405.466,-425.035"/>
</g>
<!-- Node97 -->
<g id="node28" class="node"><title>Node97</title>
<g id="a_node28"><a xlink:href="classHamiltonianmatrix.html#aa8d50e3585a18628f4abbb5bcede4bbb" target="_top" xlink:title="Hamiltonianmatrix::\ldoSerialization">
<polygon fill="none" stroke="black" points="396,-71 396,-101 507,-101 507,-71 396,-71"/>
<text text-anchor="start" x="404" y="-89" font-family="Helvetica,sans-Serif" font-size="10.00">Hamiltonianmatrix::</text>
<text text-anchor="middle" x="451.5" y="-78" font-family="Helvetica,sans-Serif" font-size="10.00">doSerialization</text>
</a>
</g>
</g>
<!-- Node96&#45;&gt;Node97 -->
<g id="edge39" class="edge"><title>Node96&#45;&gt;Node97</title>
<path fill="none" stroke="midnightblue" d="M332.088,-86C349.548,-86 368.37,-86 385.758,-86"/>
<polygon fill="midnightblue" stroke="midnightblue" points="385.809,-89.5001 395.809,-86 385.809,-82.5001 385.809,-89.5001"/>
</g>
<!-- Node98 -->
<g id="node29" class="node"><title>Node98</title>
<g id="a_node29"><a xlink:href="classSerializer.html#a79a572d0a14988acd13217beb7d5547b" target="_top" xlink:title="Serializer::save">
<polygon fill="none" stroke="black" points="561,-98.5 561,-117.5 650,-117.5 650,-98.5 561,-98.5"/>
<text text-anchor="middle" x="605.5" y="-105.5" font-family="Helvetica,sans-Serif" font-size="10.00">Serializer::save</text>
</a>
</g>
</g>
<!-- Node97&#45;&gt;Node98 -->
<g id="edge40" class="edge"><title>Node97&#45;&gt;Node98</title>
<path fill="none" stroke="midnightblue" d="M507.375,-93.9425C521.472,-95.9827 536.621,-98.1754 550.664,-100.208"/>
<polygon fill="midnightblue" stroke="midnightblue" points="550.265,-103.687 560.663,-101.655 551.267,-96.7587 550.265,-103.687"/>
</g>
<!-- Node100 -->
<g id="node31" class="node"><title>Node100</title>
<g id="a_node31"><a xlink:href="classHamiltonianmatrix.html#a035cf5188e89f3f4230beb502a718ea9" target="_top" xlink:title="Hamiltonianmatrix::\lsplitComplex">
<polygon fill="none" stroke="black" points="550,-49 550,-79 661,-79 661,-49 550,-49"/>
<text text-anchor="start" x="558" y="-67" font-family="Helvetica,sans-Serif" font-size="10.00">Hamiltonianmatrix::</text>
<text text-anchor="middle" x="605.5" y="-56" font-family="Helvetica,sans-Serif" font-size="10.00">splitComplex</text>
</a>
</g>
</g>
<!-- Node97&#45;&gt;Node100 -->
<g id="edge42" class="edge"><title>Node97&#45;&gt;Node100</title>
<path fill="none" stroke="midnightblue" d="M507.375,-78.0575C517.879,-76.5372 528.968,-74.9322 539.748,-73.372"/>
<polygon fill="midnightblue" stroke="midnightblue" points="540.564,-76.7904 549.96,-71.894 539.562,-69.8626 540.564,-76.7904"/>
</g>
<!-- Node99 -->
<g id="node30" class="node"><title>Node99</title>
<g id="a_node30"><a xlink:href="classSerializable.html#ad0b89a7563e6a98df7eb6a8a46c51735" target="_top" xlink:title="Serializable::serialize">
<polygon fill="none" stroke="black" points="697,-98.5 697,-117.5 813,-117.5 813,-98.5 697,-98.5"/>
<text text-anchor="middle" x="755" y="-105.5" font-family="Helvetica,sans-Serif" font-size="10.00">Serializable::serialize</text>
</a>
</g>
</g>
<!-- Node98&#45;&gt;Node99 -->
<g id="edge41" class="edge"><title>Node98&#45;&gt;Node99</title>
<path fill="none" stroke="midnightblue" d="M650.356,-108C661.767,-108 674.327,-108 686.648,-108"/>
<polygon fill="midnightblue" stroke="midnightblue" points="686.91,-111.5 696.91,-108 686.91,-104.5 686.91,-111.5"/>
</g>
</g>
</svg>
