<?xml version="1.0" encoding="UTF-8" standalone="no"?>
<!DOCTYPE svg PUBLIC "-//W3C//DTD SVG 1.1//EN"
 "http://www.w3.org/Graphics/SVG/1.1/DTD/svg11.dtd">
<!-- Generated by graphviz version 2.38.0 (20140413.2041)
 -->
<!-- Title: StateOld Pages: 1 -->
<svg width="182pt" height="84pt"
 viewBox="0.00 0.00 181.50 84.00" xmlns="http://www.w3.org/2000/svg" xmlns:xlink="http://www.w3.org/1999/xlink">
<g id="graph0" class="graph" transform="scale(1 1) rotate(0) translate(4 80)">
<title>StateOld</title>
<!-- Node0 -->
<g id="node1" class="node"><title>Node0</title>
<polygon fill="#bfbfbf" stroke="black" points="57.5,-56.5 57.5,-75.5 116.5,-75.5 116.5,-56.5 57.5,-56.5"/>
<text text-anchor="middle" x="87" y="-63.5" font-family="Helvetica,sans-Serif" font-size="10.00">StateOld</text>
</g>
<!-- Node1 -->
<g id="node2" class="node"><title>Node1</title>
<g id="a_node2"><a xlink:href="classStateOneOld.html" target="_top" xlink:title="One&#45;atom Rydberg state ">
<polygon fill="none" stroke="black" points="0,-0.5 0,-19.5 78,-19.5 78,-0.5 0,-0.5"/>
<text text-anchor="middle" x="39" y="-7.5" font-family="Helvetica,sans-Serif" font-size="10.00">StateOneOld</text>
</a>
</g>
</g>
<!-- Node0&#45;&gt;Node1 -->
<g id="edge1" class="edge"><title>Node0&#45;&gt;Node1</title>
<path fill="none" stroke="midnightblue" d="M72.2723,-48.4314C63.8599,-38.9673 53.6513,-27.4827 46.7787,-19.7511"/>
<polygon fill="midnightblue" stroke="midnightblue" points="69.8142,-50.9342 79.0738,-56.083 75.046,-46.2836 69.8142,-50.9342"/>
</g>
<!-- Node2 -->
<g id="node3" class="node"><title>Node2</title>
<g id="a_node3"><a xlink:href="classStateTwoOld.html" target="_top" xlink:title="Two&#45;atom Rydberg state ">
<polygon fill="none" stroke="black" points="96.5,-0.5 96.5,-19.5 173.5,-19.5 173.5,-0.5 96.5,-0.5"/>
<text text-anchor="middle" x="135" y="-7.5" font-family="Helvetica,sans-Serif" font-size="10.00">StateTwoOld</text>
</a>
</g>
</g>
<!-- Node0&#45;&gt;Node2 -->
<g id="edge2" class="edge"><title>Node0&#45;&gt;Node2</title>
<path fill="none" stroke="midnightblue" d="M101.728,-48.4314C110.14,-38.9673 120.349,-27.4827 127.221,-19.7511"/>
<polygon fill="midnightblue" stroke="midnightblue" points="98.954,-46.2836 94.9262,-56.083 104.186,-50.9342 98.954,-46.2836"/>
</g>
</g>
</svg>
