<?xml version="1.0" encoding="UTF-8" standalone="no"?>
<!DOCTYPE svg PUBLIC "-//W3C//DTD SVG 1.1//EN"
 "http://www.w3.org/Graphics/SVG/1.1/DTD/svg11.dtd">
<!-- Generated by graphviz version 2.38.0 (20140413.2041)
 -->
<!-- Title: StateTwoOld Pages: 1 -->
<svg width="430pt" height="184pt"
 viewBox="0.00 0.00 430.00 184.00" xmlns="http://www.w3.org/2000/svg" xmlns:xlink="http://www.w3.org/1999/xlink">
<g id="graph0" class="graph" transform="scale(1 1) rotate(0) translate(4 180)">
<title>StateTwoOld</title>
<!-- Node2 -->
<g id="node1" class="node"><title>Node2</title>
<polygon fill="#bfbfbf" stroke="black" points="163,-0.5 163,-19.5 240,-19.5 240,-0.5 163,-0.5"/>
<text text-anchor="middle" x="201.5" y="-7.5" font-family="Helvetica,sans-Serif" font-size="10.00">StateTwoOld</text>
</g>
<!-- Node3 -->
<g id="node2" class="node"><title>Node3</title>
<g id="a_node2"><a xlink:href="classStateOld.html" target="_top" xlink:title="Base class for states ">
<polygon fill="none" stroke="black" points="0,-89.5 0,-108.5 59,-108.5 59,-89.5 0,-89.5"/>
<text text-anchor="middle" x="29.5" y="-96.5" font-family="Helvetica,sans-Serif" font-size="10.00">StateOld</text>
</a>
</g>
</g>
<!-- Node3&#45;&gt;Node2 -->
<g id="edge1" class="edge"><title>Node3&#45;&gt;Node2</title>
<path fill="none" stroke="midnightblue" d="M55.6103,-84.7931C91.3567,-66.712 154.52,-34.7632 184.627,-19.5348"/>
<polygon fill="midnightblue" stroke="midnightblue" points="53.6489,-81.8628 46.3053,-89.4997 56.8085,-88.1092 53.6489,-81.8628"/>
</g>
<!-- Node4 -->
<g id="node3" class="node"><title>Node4</title>
<polygon fill="none" stroke="#bfbfbf" points="1.5,-156.5 1.5,-175.5 57.5,-175.5 57.5,-156.5 1.5,-156.5"/>
<text text-anchor="middle" x="29.5" y="-163.5" font-family="Helvetica,sans-Serif" font-size="10.00">uint32_t</text>
</g>
<!-- Node4&#45;&gt;Node3 -->
<g id="edge2" class="edge"><title>Node4&#45;&gt;Node3</title>
<path fill="none" stroke="#9a32cd" stroke-dasharray="5,2" d="M29.5,-146.037C29.5,-133.67 29.5,-118.12 29.5,-108.627"/>
<polygon fill="#9a32cd" stroke="#9a32cd" points="26.0001,-146.234 29.5,-156.234 33.0001,-146.234 26.0001,-146.234"/>
<text text-anchor="middle" x="38" y="-130" font-family="Helvetica,sans-Serif" font-size="10.00"> idx</text>
</g>
<!-- Node5 -->
<g id="node4" class="node"><title>Node5</title>
<polygon fill="none" stroke="#bfbfbf" points="77.5,-89.5 77.5,-108.5 201.5,-108.5 201.5,-89.5 77.5,-89.5"/>
<text text-anchor="middle" x="139.5" y="-96.5" font-family="Helvetica,sans-Serif" font-size="10.00">array&lt; std::string, 2 &gt;</text>
</g>
<!-- Node5&#45;&gt;Node2 -->
<g id="edge3" class="edge"><title>Node5&#45;&gt;Node2</title>
<path fill="none" stroke="#9a32cd" stroke-dasharray="5,2" d="M151.62,-80.993C164.758,-62.5572 185.204,-33.8672 195.353,-19.6249"/>
<polygon fill="#9a32cd" stroke="#9a32cd" points="148.625,-79.1651 145.671,-89.34 154.325,-83.2276 148.625,-79.1651"/>
<text text-anchor="middle" x="201.5" y="-57.5" font-family="Helvetica,sans-Serif" font-size="10.00"> species</text>
<text text-anchor="middle" x="201.5" y="-46.5" font-family="Helvetica,sans-Serif" font-size="10.00">element</text>
</g>
<!-- Node6 -->
<g id="node5" class="node"><title>Node6</title>
<polygon fill="none" stroke="#bfbfbf" points="219.5,-89.5 219.5,-108.5 307.5,-108.5 307.5,-89.5 219.5,-89.5"/>
<text text-anchor="middle" x="263.5" y="-96.5" font-family="Helvetica,sans-Serif" font-size="10.00">array&lt; int, 2 &gt;</text>
</g>
<!-- Node6&#45;&gt;Node2 -->
<g id="edge4" class="edge"><title>Node6&#45;&gt;Node2</title>
<path fill="none" stroke="#9a32cd" stroke-dasharray="5,2" d="M253.385,-80.4028C246.11,-68.1721 235.803,-51.677 225.5,-38 220.67,-31.588 214.67,-24.838 209.877,-19.691"/>
<polygon fill="#9a32cd" stroke="#9a32cd" points="250.44,-82.2994 258.512,-89.1621 256.481,-78.7636 250.44,-82.2994"/>
<text text-anchor="middle" x="251" y="-57.5" font-family="Helvetica,sans-Serif" font-size="10.00"> l</text>
<text text-anchor="middle" x="251" y="-46.5" font-family="Helvetica,sans-Serif" font-size="10.00">n</text>
</g>
<!-- Node7 -->
<g id="node6" class="node"><title>Node7</title>
<polygon fill="none" stroke="#bfbfbf" points="325,-89.5 325,-108.5 422,-108.5 422,-89.5 325,-89.5"/>
<text text-anchor="middle" x="373.5" y="-96.5" font-family="Helvetica,sans-Serif" font-size="10.00">array&lt; float, 2 &gt;</text>
</g>
<!-- Node7&#45;&gt;Node2 -->
<g id="edge5" class="edge"><title>Node7&#45;&gt;Node2</title>
<path fill="none" stroke="#9a32cd" stroke-dasharray="5,2" d="M348.771,-84.7464C325.577,-72.3999 289.866,-53.6038 258.5,-38 245.755,-31.6597 231.255,-24.7962 220.07,-19.5758"/>
<polygon fill="#9a32cd" stroke="#9a32cd" points="347.13,-87.8379 357.6,-89.4571 350.425,-81.6619 347.13,-87.8379"/>
<text text-anchor="middle" x="326.5" y="-63" font-family="Helvetica,sans-Serif" font-size="10.00"> j</text>
<text text-anchor="middle" x="326.5" y="-52" font-family="Helvetica,sans-Serif" font-size="10.00">m</text>
<text text-anchor="middle" x="326.5" y="-41" font-family="Helvetica,sans-Serif" font-size="10.00">s</text>
</g>
</g>
</svg>
