<?xml version="1.0" encoding="UTF-8" standalone="no"?>
<!DOCTYPE svg PUBLIC "-//W3C//DTD SVG 1.1//EN"
 "http://www.w3.org/Graphics/SVG/1.1/DTD/svg11.dtd">
<!-- Generated by graphviz version 2.38.0 (20140413.2041)
 -->
<!-- Title: StateOne::getN Pages: 1 -->
<!--zoomable 290 -->
<svg id="main" version="1.1" xmlns="http://www.w3.org/2000/svg" xmlns:xlink="http://www.w3.org/1999/xlink" xml:space="preserve" onload="init(evt)">
<style type="text/css"><![CDATA[
.edge:hover path { stroke: red; }
.edge:hover polygon { stroke: red; fill: red; }
]]></style>
<script type="text/javascript"><![CDATA[
var edges = document.getElementsByTagName('g');
if (edges && edges.length) {
  for (var i=0;i<edges.length;i++) {
    if (edges[i].id.substr(0,4)=='edge') {
      edges[i].setAttribute('class','edge');
    }
  }
}
]]></script>
        <defs>
                <circle id="rim" cx="0" cy="0" r="7"/>
                <circle id="rim2" cx="0" cy="0" r="3.5"/>
                <g id="zoomPlus">
                        <use xlink:href="#rim" fill="#404040">
                                <set attributeName="fill" to="#808080" begin="zoomplus.mouseover" end="zoomplus.mouseout"/>
                        </use>
                        <path d="M-4,0h8M0,-4v8" fill="none" stroke="white" stroke-width="1.5" pointer-events="none"/>
                </g>
                <g id="zoomMin">
                        <use xlink:href="#rim" fill="#404040">
                                <set attributeName="fill" to="#808080" begin="zoomminus.mouseover" end="zoomminus.mouseout"/>
                        </use>
                        <path d="M-4,0h8" fill="none" stroke="white" stroke-width="1.5" pointer-events="none"/>
                </g>
                <g id="dirArrow">
                        <path fill="none" stroke="white" stroke-width="1.5" d="M0,-3.0v7 M-2.5,-0.5L0,-3.0L2.5,-0.5"/>
                </g>
               <g id="resetDef">
                       <use xlink:href="#rim2" fill="#404040">
                               <set attributeName="fill" to="#808080" begin="reset.mouseover" end="reset.mouseout"/>
                       </use>
               </g>
        </defs>

<script type="text/javascript">
var viewWidth = 689;
var viewHeight = 290;
var sectionId = 'dynsection-10';
</script>
<script xlink:href="svgpan.js"/>
<svg id="graph" class="graph">
<g id="viewport">
<title>StateOne::getN</title>
<!-- Node80 -->
<g id="node1" class="node"><title>Node80</title>
<polygon fill="#bfbfbf" stroke="black" points="0,-120.5 0,-139.5 92,-139.5 92,-120.5 0,-120.5"/>
<text text-anchor="middle" x="46" y="-127.5" font-family="Helvetica,sans-Serif" font-size="10.00">StateOne::getN</text>
</g>
<!-- Node81 -->
<g id="node2" class="node"><title>Node81</title>
<g id="a_node2"><a xlink:href="integration__test_8cpp.html#a0edc7e03850724a3784df426b75fb1d2" target="_top" xlink:title="BOOST_FIXTURE_TEST_CASE">
<polygon fill="none" stroke="black" points="128,-262.5 128,-281.5 283,-281.5 283,-262.5 128,-262.5"/>
<text text-anchor="middle" x="205.5" y="-269.5" font-family="Helvetica,sans-Serif" font-size="10.00">BOOST_FIXTURE_TEST_CASE</text>
</a>
</g>
</g>
<!-- Node80&#45;&gt;Node81 -->
<g id="edge1" class="edge"><title>Node80&#45;&gt;Node81</title>
<path fill="none" stroke="midnightblue" d="M54.3962,-149.416C65.8677,-176.841 90.5989,-226.528 128,-253 133.473,-256.874 139.654,-259.961 146.071,-262.42"/>
<polygon fill="midnightblue" stroke="midnightblue" points="57.5014,-147.756 50.5303,-139.777 51.0045,-150.361 57.5014,-147.756"/>
</g>
<!-- Node82 -->
<g id="node3" class="node"><title>Node82</title>
<g id="a_node3"><a xlink:href="classMatrixElementCache.html#afc9f56a599c9ea24bbfbd4aeb41efbd4" target="_top" xlink:title="MatrixElementCache\l::getElectricMultipole">
<polygon fill="none" stroke="black" points="147.5,-213 147.5,-243 263.5,-243 263.5,-213 147.5,-213"/>
<text text-anchor="start" x="155.5" y="-231" font-family="Helvetica,sans-Serif" font-size="10.00">MatrixElementCache</text>
<text text-anchor="middle" x="205.5" y="-220" font-family="Helvetica,sans-Serif" font-size="10.00">::getElectricMultipole</text>
</a>
</g>
</g>
<!-- Node80&#45;&gt;Node82 -->
<g id="edge2" class="edge"><title>Node80&#45;&gt;Node82</title>
<path fill="none" stroke="midnightblue" d="M61.9426,-147.508C77.0518,-164.198 101.851,-188.954 128,-204 134.032,-207.471 140.627,-210.502 147.333,-213.132"/>
<polygon fill="midnightblue" stroke="midnightblue" points="64.2111,-144.789 54.9688,-139.609 58.9637,-149.422 64.2111,-144.789"/>
</g>
<!-- Node83 -->
<g id="node4" class="node"><title>Node83</title>
<g id="a_node4"><a xlink:href="classMatrixElementCache.html#aeef0496ad6db911dac50c0625660d9c0" target="_top" xlink:title="MatrixElementCache\l::getMagneticDipole">
<polygon fill="none" stroke="black" points="147.5,-164 147.5,-194 263.5,-194 263.5,-164 147.5,-164"/>
<text text-anchor="start" x="155.5" y="-182" font-family="Helvetica,sans-Serif" font-size="10.00">MatrixElementCache</text>
<text text-anchor="middle" x="205.5" y="-171" font-family="Helvetica,sans-Serif" font-size="10.00">::getMagneticDipole</text>
</a>
</g>
</g>
<!-- Node80&#45;&gt;Node83 -->
<g id="edge3" class="edge"><title>Node80&#45;&gt;Node83</title>
<path fill="none" stroke="midnightblue" d="M87.3155,-142.543C108.303,-149.072 134.115,-157.102 156.167,-163.963"/>
<polygon fill="midnightblue" stroke="midnightblue" points="88.3298,-139.193 77.7415,-139.564 86.2503,-145.877 88.3298,-139.193"/>
</g>
<!-- Node85 -->
<g id="node6" class="node"><title>Node85</title>
<g id="a_node6"><a xlink:href="classMatrixElementCache.html#ad624534d20e42d8c4f495b51d6084057" target="_top" xlink:title="MatrixElementCache\l::getRadial">
<polygon fill="none" stroke="black" points="147.5,-115 147.5,-145 263.5,-145 263.5,-115 147.5,-115"/>
<text text-anchor="start" x="155.5" y="-133" font-family="Helvetica,sans-Serif" font-size="10.00">MatrixElementCache</text>
<text text-anchor="middle" x="205.5" y="-122" font-family="Helvetica,sans-Serif" font-size="10.00">::getRadial</text>
</a>
</g>
</g>
<!-- Node80&#45;&gt;Node85 -->
<g id="edge5" class="edge"><title>Node80&#45;&gt;Node85</title>
<path fill="none" stroke="midnightblue" d="M102.469,-130C116.988,-130 132.667,-130 147.276,-130"/>
<polygon fill="midnightblue" stroke="midnightblue" points="102.133,-126.5 92.1332,-130 102.133,-133.5 102.133,-126.5"/>
</g>
<!-- Node88 -->
<g id="node9" class="node"><title>Node88</title>
<g id="a_node9"><a xlink:href="classStateOne.html#a0b5646c4160083ef4b24460e9159ad2c" target="_top" xlink:title="StateOne::getReflected">
<polygon fill="none" stroke="black" points="141.5,-76.5 141.5,-95.5 269.5,-95.5 269.5,-76.5 141.5,-76.5"/>
<text text-anchor="middle" x="205.5" y="-83.5" font-family="Helvetica,sans-Serif" font-size="10.00">StateOne::getReflected</text>
</a>
</g>
</g>
<!-- Node80&#45;&gt;Node88 -->
<g id="edge8" class="edge"><title>Node80&#45;&gt;Node88</title>
<path fill="none" stroke="midnightblue" d="M88.3276,-117.474C101.029,-113.7 115.068,-109.605 128,-106 140.694,-102.461 154.626,-98.7637 167.081,-95.5245"/>
<polygon fill="midnightblue" stroke="midnightblue" points="87.055,-114.202 78.4746,-120.417 89.058,-120.909 87.055,-114.202"/>
</g>
<!-- Node91 -->
<g id="node12" class="node"><title>Node91</title>
<g id="a_node12"><a xlink:href="State_8cpp.html#ae62083584a93c249d0c3b4a6f046fee1" target="_top" xlink:title="operator\&lt;\&lt;">
<polygon fill="none" stroke="black" points="168.5,-38.5 168.5,-57.5 242.5,-57.5 242.5,-38.5 168.5,-38.5"/>
<text text-anchor="middle" x="205.5" y="-45.5" font-family="Helvetica,sans-Serif" font-size="10.00">operator&lt;&lt;</text>
</a>
</g>
</g>
<!-- Node80&#45;&gt;Node91 -->
<g id="edge11" class="edge"><title>Node80&#45;&gt;Node91</title>
<path fill="none" stroke="midnightblue" d="M64.2215,-113.079C79.6938,-98.7915 103.663,-78.8234 128,-67 140.555,-60.9004 155.25,-56.6451 168.386,-53.7328"/>
<polygon fill="midnightblue" stroke="midnightblue" points="61.4046,-110.926 56.5516,-120.344 66.2186,-116.008 61.4046,-110.926"/>
</g>
<!-- Node92 -->
<g id="node13" class="node"><title>Node92</title>
<g id="a_node13"><a xlink:href="classStateOne.html#a5b05a258a43a682cfe7af5eb57d0221c" target="_top" xlink:title="Implementation of one&#45;atom state ///////////////////////////////. ">
<polygon fill="none" stroke="black" points="148.5,-0.5 148.5,-19.5 262.5,-19.5 262.5,-0.5 148.5,-0.5"/>
<text text-anchor="middle" x="205.5" y="-7.5" font-family="Helvetica,sans-Serif" font-size="10.00">StateOne::StateOne</text>
</a>
</g>
</g>
<!-- Node80&#45;&gt;Node92 -->
<g id="edge12" class="edge"><title>Node80&#45;&gt;Node92</title>
<path fill="none" stroke="midnightblue" d="M56.8119,-111.434C69.9232,-88.4789 95.3435,-49.8924 128,-29 134.225,-25.0176 141.227,-21.8698 148.403,-19.3818"/>
<polygon fill="midnightblue" stroke="midnightblue" points="53.582,-110.043 51.8163,-120.489 59.7113,-113.424 53.582,-110.043"/>
</g>
<!-- Node84 -->
<g id="node5" class="node"><title>Node84</title>
<g id="a_node5"><a xlink:href="classSystemOne.html#abf6d26d44765fa787251956c128644a7" target="_top" xlink:title="Method that allows base class to calculate the interaction /////. ">
<polygon fill="none" stroke="black" points="319,-169.5 319,-188.5 487,-188.5 487,-169.5 319,-169.5"/>
<text text-anchor="middle" x="403" y="-176.5" font-family="Helvetica,sans-Serif" font-size="10.00">SystemOne::initializeInteraction</text>
</a>
</g>
</g>
<!-- Node83&#45;&gt;Node84 -->
<g id="edge4" class="edge"><title>Node83&#45;&gt;Node84</title>
<path fill="none" stroke="midnightblue" d="M273.891,-179C288.328,-179 303.745,-179 318.702,-179"/>
<polygon fill="midnightblue" stroke="midnightblue" points="273.572,-175.5 263.572,-179 273.572,-182.5 273.572,-175.5"/>
</g>
<!-- Node86 -->
<g id="node7" class="node"><title>Node86</title>
<g id="a_node7"><a xlink:href="classMatrixElementCache.html#aebf63bfd2c9cc016e6c21410b92a4983" target="_top" xlink:title="MatrixElementCache\l::getLeRoyRadius">
<polygon fill="none" stroke="black" points="345,-115 345,-145 461,-145 461,-115 345,-115"/>
<text text-anchor="start" x="353" y="-133" font-family="Helvetica,sans-Serif" font-size="10.00">MatrixElementCache</text>
<text text-anchor="middle" x="403" y="-122" font-family="Helvetica,sans-Serif" font-size="10.00">::getLeRoyRadius</text>
</a>
</g>
</g>
<!-- Node85&#45;&gt;Node86 -->
<g id="edge6" class="edge"><title>Node85&#45;&gt;Node86</title>
<path fill="none" stroke="midnightblue" d="M273.672,-130C296.843,-130 322.564,-130 344.857,-130"/>
<polygon fill="midnightblue" stroke="midnightblue" points="273.572,-126.5 263.572,-130 273.572,-133.5 273.572,-126.5"/>
</g>
<!-- Node87 -->
<g id="node8" class="node"><title>Node87</title>
<g id="a_node8"><a xlink:href="classSystemTwo.html#aabf2ba0d13067b81c2f7d1c78368a63e" target="_top" xlink:title="Methods that allows base class to communicate with subclass ////. ">
<polygon fill="none" stroke="black" points="523,-120.5 523,-139.5 681,-139.5 681,-120.5 523,-120.5"/>
<text text-anchor="middle" x="602" y="-127.5" font-family="Helvetica,sans-Serif" font-size="10.00">SystemTwo::onStatesChange</text>
</a>
</g>
</g>
<!-- Node86&#45;&gt;Node87 -->
<g id="edge7" class="edge"><title>Node86&#45;&gt;Node87</title>
<path fill="none" stroke="midnightblue" d="M471.352,-130C487.885,-130 505.723,-130 522.722,-130"/>
<polygon fill="midnightblue" stroke="midnightblue" points="471.245,-126.5 461.245,-130 471.245,-133.5 471.245,-126.5"/>
</g>
<!-- Node89 -->
<g id="node10" class="node"><title>Node89</title>
<g id="a_node10"><a xlink:href="classSystemOne.html#a4278feede19c90186f22f37c1d5d53b2" target="_top" xlink:title="Method that allows base class to combine systems ///////////////. ">
<polygon fill="none" stroke="black" points="336,-76.5 336,-95.5 470,-95.5 470,-76.5 336,-76.5"/>
<text text-anchor="middle" x="403" y="-83.5" font-family="Helvetica,sans-Serif" font-size="10.00">SystemOne::incorporate</text>
</a>
</g>
</g>
<!-- Node88&#45;&gt;Node89 -->
<g id="edge9" class="edge"><title>Node88&#45;&gt;Node89</title>
<path fill="none" stroke="midnightblue" d="M279.803,-86C298.245,-86 317.927,-86 335.988,-86"/>
<polygon fill="midnightblue" stroke="midnightblue" points="279.703,-82.5001 269.703,-86 279.703,-89.5001 279.703,-82.5001"/>
</g>
<!-- Node90 -->
<g id="node11" class="node"><title>Node90</title>
<g id="a_node11"><a xlink:href="classSystemTwo.html#a7aa70b668bd55e25ba9ed8f9d037052c" target="_top" xlink:title="Method that allows base class to initialize Basis //////////////. ">
<polygon fill="none" stroke="black" points="332.5,-38.5 332.5,-57.5 473.5,-57.5 473.5,-38.5 332.5,-38.5"/>
<text text-anchor="middle" x="403" y="-45.5" font-family="Helvetica,sans-Serif" font-size="10.00">SystemTwo::initializeBasis</text>
</a>
</g>
</g>
<!-- Node88&#45;&gt;Node90 -->
<g id="edge10" class="edge"><title>Node88&#45;&gt;Node90</title>
<path fill="none" stroke="midnightblue" d="M265.61,-74.5106C293.504,-69.0886 326.402,-62.6942 352.899,-57.5439"/>
<polygon fill="midnightblue" stroke="midnightblue" points="264.729,-71.1162 255.581,-76.46 266.065,-77.9876 264.729,-71.1162"/>
</g>
</g>
</svg>
        <g id="navigator" transform="translate(0 0)" fill="#404254">
                <rect fill="#f2f5e9" fill-opacity="0.5" stroke="#606060" stroke-width=".5" x="0" y="0" width="60" height="60"/>
                <use id="zoomplus" xlink:href="#zoomPlus" x="17" y="9" onmousedown="handleZoom(evt,'in')"/>
                <use id="zoomminus" xlink:href="#zoomMin" x="42" y="9" onmousedown="handleZoom(evt,'out')"/>
                <use id="reset" xlink:href="#resetDef" x="30" y="36" onmousedown="handleReset()"/>
                <g id="arrowUp" xlink:href="#dirArrow" transform="translate(30 24)" onmousedown="handlePan(0,-1)">
                  <use xlink:href="#rim" fill="#404040">
                        <set attributeName="fill" to="#808080" begin="arrowUp.mouseover" end="arrowUp.mouseout"/>
                  </use>
                  <path fill="none" stroke="white" stroke-width="1.5" d="M0,-3.0v7 M-2.5,-0.5L0,-3.0L2.5,-0.5"/>
                </g>
                <g id="arrowRight" xlink:href="#dirArrow" transform="rotate(90) translate(36 -43)" onmousedown="handlePan(1,0)">
                  <use xlink:href="#rim" fill="#404040">
                        <set attributeName="fill" to="#808080" begin="arrowRight.mouseover" end="arrowRight.mouseout"/>
                  </use>
                  <path fill="none" stroke="white" stroke-width="1.5" d="M0,-3.0v7 M-2.5,-0.5L0,-3.0L2.5,-0.5"/>
                </g>
                <g id="arrowDown" xlink:href="#dirArrow" transform="rotate(180) translate(-30 -48)" onmousedown="handlePan(0,1)">
                  <use xlink:href="#rim" fill="#404040">
                        <set attributeName="fill" to="#808080" begin="arrowDown.mouseover" end="arrowDown.mouseout"/>
                  </use>
                  <path fill="none" stroke="white" stroke-width="1.5" d="M0,-3.0v7 M-2.5,-0.5L0,-3.0L2.5,-0.5"/>
                </g>
                <g id="arrowLeft" xlink:href="#dirArrow" transform="rotate(270) translate(-36 17)" onmousedown="handlePan(-1,0)">
                  <use xlink:href="#rim" fill="#404040">
                        <set attributeName="fill" to="#808080" begin="arrowLeft.mouseover" end="arrowLeft.mouseout"/>
                  </use>
                  <path fill="none" stroke="white" stroke-width="1.5" d="M0,-3.0v7 M-2.5,-0.5L0,-3.0L2.5,-0.5"/>
                </g>
        </g>
        <svg viewBox="0 0 15 15" width="100%" height="30px" preserveAspectRatio="xMaxYMin meet">
         <g id="arrow_out" transform="scale(0.3 0.3)">
          <a xlink:href="classStateOne_a7deae740570ef5262e7fd2d254a8c530_icgraph_org.svg" target="_base">
           <rect id="button" ry="5" rx="5" y="6" x="6" height="38" width="38"
                fill="#f2f5e9" fill-opacity="0.5" stroke="#606060" stroke-width="1.0"/>
           <path id="arrow"
             d="M 11.500037,31.436501 C 11.940474,20.09759 22.043105,11.32322 32.158766,21.979434 L 37.068811,17.246167 C 37.068811,17.246167 37.088388,32 37.088388,32 L 22.160133,31.978069 C 22.160133,31.978069 26.997745,27.140456 26.997745,27.140456 C 18.528582,18.264221 13.291696,25.230495 11.500037,31.436501 z"
             style="fill:#404040;"/>
          </a>
         </g>
        </svg>
</svg>
