<?xml version="1.0" encoding="UTF-8" standalone="no"?>
<!DOCTYPE svg PUBLIC "-//W3C//DTD SVG 1.1//EN"
 "http://www.w3.org/Graphics/SVG/1.1/DTD/svg11.dtd">
<!-- Generated by graphviz version 2.38.0 (20140413.2041)
 -->
<!-- Title: /travis/pairinteraction/ConfParser.h Pages: 1 -->
<!--zoomable 463 -->
<svg id="main" version="1.1" xmlns="http://www.w3.org/2000/svg" xmlns:xlink="http://www.w3.org/1999/xlink" xml:space="preserve" onload="init(evt)">
<style type="text/css"><![CDATA[
.edge:hover path { stroke: red; }
.edge:hover polygon { stroke: red; fill: red; }
]]></style>
<script type="text/javascript"><![CDATA[
var edges = document.getElementsByTagName('g');
if (edges && edges.length) {
  for (var i=0;i<edges.length;i++) {
    if (edges[i].id.substr(0,4)=='edge') {
      edges[i].setAttribute('class','edge');
    }
  }
}
]]></script>
        <defs>
                <circle id="rim" cx="0" cy="0" r="7"/>
                <circle id="rim2" cx="0" cy="0" r="3.5"/>
                <g id="zoomPlus">
                        <use xlink:href="#rim" fill="#404040">
                                <set attributeName="fill" to="#808080" begin="zoomplus.mouseover" end="zoomplus.mouseout"/>
                        </use>
                        <path d="M-4,0h8M0,-4v8" fill="none" stroke="white" stroke-width="1.5" pointer-events="none"/>
                </g>
                <g id="zoomMin">
                        <use xlink:href="#rim" fill="#404040">
                                <set attributeName="fill" to="#808080" begin="zoomminus.mouseover" end="zoomminus.mouseout"/>
                        </use>
                        <path d="M-4,0h8" fill="none" stroke="white" stroke-width="1.5" pointer-events="none"/>
                </g>
                <g id="dirArrow">
                        <path fill="none" stroke="white" stroke-width="1.5" d="M0,-3.0v7 M-2.5,-0.5L0,-3.0L2.5,-0.5"/>
                </g>
               <g id="resetDef">
                       <use xlink:href="#rim2" fill="#404040">
                               <set attributeName="fill" to="#808080" begin="reset.mouseover" end="reset.mouseout"/>
                       </use>
               </g>
        </defs>

<script type="text/javascript">
var viewWidth = 1620;
var viewHeight = 463;
var sectionId = 'dynsection-1';
</script>
<script xlink:href="svgpan.js"/>
<svg id="graph" class="graph">
<g id="viewport">
<title>/travis/pairinteraction/ConfParser.h</title>
<!-- Node5 -->
<g id="node1" class="node"><title>Node5</title>
<polygon fill="#bfbfbf" stroke="black" points="1248,-424.5 1248,-454.5 1366,-454.5 1366,-424.5 1248,-424.5"/>
<text text-anchor="start" x="1256" y="-442.5" font-family="Helvetica,sans-Serif" font-size="10.00">/travis/pairinteraction</text>
<text text-anchor="middle" x="1307" y="-431.5" font-family="Helvetica,sans-Serif" font-size="10.00">/ConfParser.h</text>
</g>
<!-- Node6 -->
<g id="node2" class="node"><title>Node6</title>
<g id="a_node2"><a xlink:href="Basisnames_8h.html" target="_top" xlink:title="/travis/pairinteraction\l/Basisnames.h">
<polygon fill="none" stroke="black" points="874,-352 874,-382 992,-382 992,-352 874,-352"/>
<text text-anchor="start" x="882" y="-370" font-family="Helvetica,sans-Serif" font-size="10.00">/travis/pairinteraction</text>
<text text-anchor="middle" x="933" y="-359" font-family="Helvetica,sans-Serif" font-size="10.00">/Basisnames.h</text>
</a>
</g>
</g>
<!-- Node5&#45;&gt;Node6 -->
<g id="edge1" class="edge"><title>Node5&#45;&gt;Node6</title>
<path fill="none" stroke="midnightblue" d="M1237.61,-425.42C1167.08,-412.124 1058.96,-391.743 992.293,-379.177"/>
<polygon fill="midnightblue" stroke="midnightblue" points="1237.26,-428.916 1247.74,-427.329 1238.56,-422.037 1237.26,-428.916"/>
</g>
<!-- Node10 -->
<g id="node6" class="node"><title>Node10</title>
<g id="a_node6"><a xlink:href="HamiltonianOne_8h.html" target="_top" xlink:title="/travis/pairinteraction\l/HamiltonianOne.h">
<polygon fill="none" stroke="black" points="1104,-145.5 1104,-175.5 1222,-175.5 1222,-145.5 1104,-145.5"/>
<text text-anchor="start" x="1112" y="-163.5" font-family="Helvetica,sans-Serif" font-size="10.00">/travis/pairinteraction</text>
<text text-anchor="middle" x="1163" y="-152.5" font-family="Helvetica,sans-Serif" font-size="10.00">/HamiltonianOne.h</text>
</a>
</g>
</g>
<!-- Node5&#45;&gt;Node10 -->
<g id="edge34" class="edge"><title>Node5&#45;&gt;Node10</title>
<path fill="none" stroke="midnightblue" d="M1306.4,-414.326C1304.13,-369.919 1293.73,-274.218 1247,-212 1234.94,-195.946 1216.15,-183.962 1199.4,-175.707"/>
<polygon fill="midnightblue" stroke="midnightblue" points="1302.9,-414.612 1306.81,-424.459 1309.9,-414.323 1302.9,-414.612"/>
</g>
<!-- Node12 -->
<g id="node8" class="node"><title>Node12</title>
<g id="a_node8"><a xlink:href="HamiltonianTwo_8h.html" target="_top" xlink:title="/travis/pairinteraction\l/HamiltonianTwo.h">
<polygon fill="none" stroke="black" points="899,-78.5 899,-108.5 1017,-108.5 1017,-78.5 899,-78.5"/>
<text text-anchor="start" x="907" y="-96.5" font-family="Helvetica,sans-Serif" font-size="10.00">/travis/pairinteraction</text>
<text text-anchor="middle" x="958" y="-85.5" font-family="Helvetica,sans-Serif" font-size="10.00">/HamiltonianTwo.h</text>
</a>
</g>
</g>
<!-- Node5&#45;&gt;Node12 -->
<g id="edge35" class="edge"><title>Node5&#45;&gt;Node12</title>
<path fill="none" stroke="midnightblue" d="M1237.49,-436.109C1082.27,-428.88 721,-400.748 721,-295.5 721,-295.5 721,-295.5 721,-226.5 721,-189.306 713.682,-171.281 740,-145 762.061,-122.97 842.149,-108.714 898.832,-101.143"/>
<polygon fill="midnightblue" stroke="midnightblue" points="1237.71,-439.622 1247.86,-436.575 1238.03,-432.629 1237.71,-439.622"/>
</g>
<!-- Node14 -->
<g id="node10" class="node"><title>Node14</title>
<g id="a_node10"><a xlink:href="Interface_8cpp.html" target="_top" xlink:title="/travis/pairinteraction\l/Interface.cpp">
<polygon fill="none" stroke="black" points="1146,-6 1146,-36 1264,-36 1264,-6 1146,-6"/>
<text text-anchor="start" x="1154" y="-24" font-family="Helvetica,sans-Serif" font-size="10.00">/travis/pairinteraction</text>
<text text-anchor="middle" x="1205" y="-13" font-family="Helvetica,sans-Serif" font-size="10.00">/Interface.cpp</text>
</a>
</g>
</g>
<!-- Node5&#45;&gt;Node14 -->
<g id="edge36" class="edge"><title>Node5&#45;&gt;Node14</title>
<path fill="none" stroke="midnightblue" d="M1312.22,-414.205C1317.84,-385.858 1326,-337.508 1326,-295.5 1326,-295.5 1326,-295.5 1326,-159.5 1326,-102.263 1266.18,-57.5375 1230.66,-36.0264"/>
<polygon fill="midnightblue" stroke="midnightblue" points="1308.71,-413.876 1310.14,-424.375 1315.57,-415.28 1308.71,-413.876"/>
</g>
<!-- Node29 -->
<g id="node25" class="node"><title>Node29</title>
<g id="a_node25"><a xlink:href="ConfParser_8cpp.html" target="_top" xlink:title="/travis/pairinteraction\l/ConfParser.cpp">
<polygon fill="none" stroke="black" points="1354,-352 1354,-382 1472,-382 1472,-352 1354,-352"/>
<text text-anchor="start" x="1362" y="-370" font-family="Helvetica,sans-Serif" font-size="10.00">/travis/pairinteraction</text>
<text text-anchor="middle" x="1413" y="-359" font-family="Helvetica,sans-Serif" font-size="10.00">/ConfParser.cpp</text>
</a>
</g>
</g>
<!-- Node5&#45;&gt;Node29 -->
<g id="edge33" class="edge"><title>Node5&#45;&gt;Node29</title>
<path fill="none" stroke="midnightblue" d="M1336.92,-418.603C1354.42,-406.959 1376.11,-392.538 1391.84,-382.073"/>
<polygon fill="midnightblue" stroke="midnightblue" points="1334.58,-415.95 1328.2,-424.403 1338.46,-421.779 1334.58,-415.95"/>
</g>
<!-- Node30 -->
<g id="node26" class="node"><title>Node30</title>
<g id="a_node26"><a xlink:href="conf__parser__test_8cpp.html" target="_top" xlink:title="/travis/pairinteraction\l/unit_test/conf_parser\l_test.cpp">
<polygon fill="none" stroke="black" points="1490.5,-346.5 1490.5,-387.5 1611.5,-387.5 1611.5,-346.5 1490.5,-346.5"/>
<text text-anchor="start" x="1498.5" y="-375.5" font-family="Helvetica,sans-Serif" font-size="10.00">/travis/pairinteraction</text>
<text text-anchor="start" x="1498.5" y="-364.5" font-family="Helvetica,sans-Serif" font-size="10.00">/unit_test/conf_parser</text>
<text text-anchor="middle" x="1551" y="-353.5" font-family="Helvetica,sans-Serif" font-size="10.00">_test.cpp</text>
</a>
</g>
</g>
<!-- Node5&#45;&gt;Node30 -->
<g id="edge37" class="edge"><title>Node5&#45;&gt;Node30</title>
<path fill="none" stroke="midnightblue" d="M1365.34,-421.643C1403.14,-410.722 1452.26,-396.53 1490.48,-385.487"/>
<polygon fill="midnightblue" stroke="midnightblue" points="1364.13,-418.349 1355.5,-424.487 1366.08,-425.074 1364.13,-418.349"/>
</g>
<!-- Node7 -->
<g id="node3" class="node"><title>Node7</title>
<g id="a_node3"><a xlink:href="Basisnames_8cpp.html" target="_top" xlink:title="/travis/pairinteraction\l/Basisnames.cpp">
<polygon fill="none" stroke="black" points="787,-279.5 787,-309.5 905,-309.5 905,-279.5 787,-279.5"/>
<text text-anchor="start" x="795" y="-297.5" font-family="Helvetica,sans-Serif" font-size="10.00">/travis/pairinteraction</text>
<text text-anchor="middle" x="846" y="-286.5" font-family="Helvetica,sans-Serif" font-size="10.00">/Basisnames.cpp</text>
</a>
</g>
</g>
<!-- Node6&#45;&gt;Node7 -->
<g id="edge2" class="edge"><title>Node6&#45;&gt;Node7</title>
<path fill="none" stroke="midnightblue" d="M907.44,-345.288C893.222,-333.766 875.904,-319.733 863.283,-309.505"/>
<polygon fill="midnightblue" stroke="midnightblue" points="905.421,-348.157 915.394,-351.733 909.828,-342.718 905.421,-348.157"/>
</g>
<!-- Node8 -->
<g id="node4" class="node"><title>Node8</title>
<g id="a_node4"><a xlink:href="Hamiltonianmatrix_8h.html" target="_top" xlink:title="/travis/pairinteraction\l/Hamiltonianmatrix.h">
<polygon fill="none" stroke="black" points="963,-279.5 963,-309.5 1081,-309.5 1081,-279.5 963,-279.5"/>
<text text-anchor="start" x="971" y="-297.5" font-family="Helvetica,sans-Serif" font-size="10.00">/travis/pairinteraction</text>
<text text-anchor="middle" x="1022" y="-286.5" font-family="Helvetica,sans-Serif" font-size="10.00">/Hamiltonianmatrix.h</text>
</a>
</g>
</g>
<!-- Node6&#45;&gt;Node8 -->
<g id="edge3" class="edge"><title>Node6&#45;&gt;Node8</title>
<path fill="none" stroke="midnightblue" d="M959.147,-345.288C973.692,-333.766 991.408,-319.733 1004.32,-309.505"/>
<polygon fill="midnightblue" stroke="midnightblue" points="956.676,-342.78 951.01,-351.733 961.022,-348.267 956.676,-342.78"/>
</g>
<!-- Node6&#45;&gt;Node10 -->
<g id="edge13" class="edge"><title>Node6&#45;&gt;Node10</title>
<path fill="none" stroke="midnightblue" d="M1002.51,-359.72C1074.17,-349.061 1182.12,-320.339 1231,-243 1238.36,-231.353 1237.19,-224.309 1231,-212 1223.01,-196.104 1207.38,-183.953 1193.12,-175.558"/>
<polygon fill="midnightblue" stroke="midnightblue" points="1001.62,-356.31 992.208,-361.165 1002.6,-363.242 1001.62,-356.31"/>
</g>
<!-- Node6&#45;&gt;Node12 -->
<g id="edge18" class="edge"><title>Node6&#45;&gt;Node12</title>
<path fill="none" stroke="midnightblue" d="M935.257,-341.489C940.365,-286.014 952.68,-152.274 956.704,-108.574"/>
<polygon fill="midnightblue" stroke="midnightblue" points="931.741,-341.506 934.309,-351.785 938.711,-342.148 931.741,-341.506"/>
</g>
<!-- Node16 -->
<g id="node12" class="node"><title>Node16</title>
<g id="a_node12"><a xlink:href="MatrixElements_8h.html" target="_top" xlink:title="/travis/pairinteraction\l/MatrixElements.h">
<polygon fill="none" stroke="black" points="765,-212.5 765,-242.5 883,-242.5 883,-212.5 765,-212.5"/>
<text text-anchor="start" x="773" y="-230.5" font-family="Helvetica,sans-Serif" font-size="10.00">/travis/pairinteraction</text>
<text text-anchor="middle" x="824" y="-219.5" font-family="Helvetica,sans-Serif" font-size="10.00">/MatrixElements.h</text>
</a>
</g>
</g>
<!-- Node6&#45;&gt;Node16 -->
<g id="edge14" class="edge"><title>Node6&#45;&gt;Node16</title>
<path fill="none" stroke="midnightblue" d="M863.513,-358.853C831.966,-351.74 797.432,-337.682 778,-310 762.224,-287.526 787.324,-259.207 806.207,-242.554"/>
<polygon fill="midnightblue" stroke="midnightblue" points="863.128,-362.347 873.627,-360.927 864.534,-355.489 863.128,-362.347"/>
</g>
<!-- Node18 -->
<g id="node14" class="node"><title>Node18</title>
<g id="a_node14"><a xlink:href="MatrixElementCache_8h.html" target="_top" xlink:title="/travis/pairinteraction\l/MatrixElementCache.h">
<polygon fill="none" stroke="black" points="402,-279.5 402,-309.5 530,-309.5 530,-279.5 402,-279.5"/>
<text text-anchor="start" x="410" y="-297.5" font-family="Helvetica,sans-Serif" font-size="10.00">/travis/pairinteraction</text>
<text text-anchor="middle" x="466" y="-286.5" font-family="Helvetica,sans-Serif" font-size="10.00">/MatrixElementCache.h</text>
</a>
</g>
</g>
<!-- Node6&#45;&gt;Node18 -->
<g id="edge19" class="edge"><title>Node6&#45;&gt;Node18</title>
<path fill="none" stroke="midnightblue" d="M863.749,-355.546C773.741,-341.958 617.763,-318.411 530.27,-305.202"/>
<polygon fill="midnightblue" stroke="midnightblue" points="863.444,-359.039 873.854,-357.071 864.489,-352.118 863.444,-359.039"/>
</g>
<!-- Node9 -->
<g id="node5" class="node"><title>Node9</title>
<g id="a_node5"><a xlink:href="Hamiltonian_8h.html" target="_top" xlink:title="/travis/pairinteraction\l/Hamiltonian.h">
<polygon fill="none" stroke="black" points="1104,-212.5 1104,-242.5 1222,-242.5 1222,-212.5 1104,-212.5"/>
<text text-anchor="start" x="1112" y="-230.5" font-family="Helvetica,sans-Serif" font-size="10.00">/travis/pairinteraction</text>
<text text-anchor="middle" x="1163" y="-219.5" font-family="Helvetica,sans-Serif" font-size="10.00">/Hamiltonian.h</text>
</a>
</g>
</g>
<!-- Node8&#45;&gt;Node9 -->
<g id="edge4" class="edge"><title>Node8&#45;&gt;Node9</title>
<path fill="none" stroke="midnightblue" d="M1061.85,-275.131C1084.25,-264.802 1111.78,-252.11 1132.46,-242.577"/>
<polygon fill="midnightblue" stroke="midnightblue" points="1060.21,-272.031 1052.59,-279.396 1063.14,-278.388 1060.21,-272.031"/>
</g>
<!-- Node15 -->
<g id="node11" class="node"><title>Node15</title>
<g id="a_node11"><a xlink:href="Hamiltonianmatrix_8cpp.html" target="_top" xlink:title="/travis/pairinteraction\l/Hamiltonianmatrix.cpp">
<polygon fill="none" stroke="black" points="958,-212.5 958,-242.5 1086,-242.5 1086,-212.5 958,-212.5"/>
<text text-anchor="start" x="966" y="-230.5" font-family="Helvetica,sans-Serif" font-size="10.00">/travis/pairinteraction</text>
<text text-anchor="middle" x="1022" y="-219.5" font-family="Helvetica,sans-Serif" font-size="10.00">/Hamiltonianmatrix.cpp</text>
</a>
</g>
</g>
<!-- Node8&#45;&gt;Node15 -->
<g id="edge12" class="edge"><title>Node8&#45;&gt;Node15</title>
<path fill="none" stroke="midnightblue" d="M1022,-269.108C1022,-260.154 1022,-250.323 1022,-242.577"/>
<polygon fill="midnightblue" stroke="midnightblue" points="1018.5,-269.396 1022,-279.396 1025.5,-269.396 1018.5,-269.396"/>
</g>
<!-- Node9&#45;&gt;Node10 -->
<g id="edge5" class="edge"><title>Node9&#45;&gt;Node10</title>
<path fill="none" stroke="midnightblue" d="M1163,-202.108C1163,-193.154 1163,-183.323 1163,-175.577"/>
<polygon fill="midnightblue" stroke="midnightblue" points="1159.5,-202.396 1163,-212.396 1166.5,-202.396 1159.5,-202.396"/>
</g>
<!-- Node9&#45;&gt;Node12 -->
<g id="edge11" class="edge"><title>Node9&#45;&gt;Node12</title>
<path fill="none" stroke="midnightblue" d="M1132.39,-206.793C1090.53,-179.836 1016.43,-132.125 979.781,-108.525"/>
<polygon fill="midnightblue" stroke="midnightblue" points="1130.76,-209.903 1141.06,-212.374 1134.55,-204.017 1130.76,-209.903"/>
</g>
<!-- Node11 -->
<g id="node7" class="node"><title>Node11</title>
<g id="a_node7"><a xlink:href="HamiltonianOne_8cpp.html" target="_top" xlink:title="/travis/pairinteraction\l/HamiltonianOne.cpp">
<polygon fill="none" stroke="black" points="1059,-78.5 1059,-108.5 1177,-108.5 1177,-78.5 1059,-78.5"/>
<text text-anchor="start" x="1067" y="-96.5" font-family="Helvetica,sans-Serif" font-size="10.00">/travis/pairinteraction</text>
<text text-anchor="middle" x="1118" y="-85.5" font-family="Helvetica,sans-Serif" font-size="10.00">/HamiltonianOne.cpp</text>
</a>
</g>
</g>
<!-- Node10&#45;&gt;Node11 -->
<g id="edge6" class="edge"><title>Node10&#45;&gt;Node11</title>
<path fill="none" stroke="midnightblue" d="M1147.53,-137.157C1140.97,-127.679 1133.52,-116.919 1127.75,-108.577"/>
<polygon fill="midnightblue" stroke="midnightblue" points="1144.67,-139.166 1153.24,-145.396 1150.42,-135.182 1144.67,-139.166"/>
</g>
<!-- Node10&#45;&gt;Node12 -->
<g id="edge7" class="edge"><title>Node10&#45;&gt;Node12</title>
<path fill="none" stroke="midnightblue" d="M1109.21,-142.444C1075.98,-131.908 1033.85,-118.549 1002.5,-108.611"/>
<polygon fill="midnightblue" stroke="midnightblue" points="1108.18,-145.79 1118.77,-145.476 1110.3,-139.117 1108.18,-145.79"/>
</g>
<!-- Node10&#45;&gt;Node14 -->
<g id="edge10" class="edge"><title>Node10&#45;&gt;Node14</title>
<path fill="none" stroke="midnightblue" d="M1174.92,-136.075C1178.85,-127.689 1182.98,-118.067 1186,-109 1194.35,-83.9151 1200.02,-53.5242 1202.87,-36.1082"/>
<polygon fill="midnightblue" stroke="midnightblue" points="1171.69,-134.718 1170.48,-145.244 1177.99,-137.77 1171.69,-134.718"/>
</g>
<!-- Node13 -->
<g id="node9" class="node"><title>Node13</title>
<g id="a_node9"><a xlink:href="HamiltonianTwo_8cpp.html" target="_top" xlink:title="/travis/pairinteraction\l/HamiltonianTwo.cpp">
<polygon fill="none" stroke="black" points="899,-6 899,-36 1017,-36 1017,-6 899,-6"/>
<text text-anchor="start" x="907" y="-24" font-family="Helvetica,sans-Serif" font-size="10.00">/travis/pairinteraction</text>
<text text-anchor="middle" x="958" y="-13" font-family="Helvetica,sans-Serif" font-size="10.00">/HamiltonianTwo.cpp</text>
</a>
</g>
</g>
<!-- Node12&#45;&gt;Node13 -->
<g id="edge8" class="edge"><title>Node12&#45;&gt;Node13</title>
<path fill="none" stroke="midnightblue" d="M958,-68.2317C958,-57.5679 958,-45.4145 958,-36.2455"/>
<polygon fill="midnightblue" stroke="midnightblue" points="954.5,-68.2332 958,-78.2333 961.5,-68.2333 954.5,-68.2332"/>
</g>
<!-- Node12&#45;&gt;Node14 -->
<g id="edge9" class="edge"><title>Node12&#45;&gt;Node14</title>
<path fill="none" stroke="midnightblue" d="M1016.71,-75.7414C1059.05,-63.6586 1115.55,-47.5325 1155.58,-36.1069"/>
<polygon fill="midnightblue" stroke="midnightblue" points="1015.75,-72.3769 1007.09,-78.4872 1017.67,-79.1081 1015.75,-72.3769"/>
</g>
<!-- Node16&#45;&gt;Node10 -->
<g id="edge15" class="edge"><title>Node16&#45;&gt;Node10</title>
<path fill="none" stroke="midnightblue" d="M893.128,-213.245C955.097,-201.363 1045.04,-184.117 1103.78,-172.856"/>
<polygon fill="midnightblue" stroke="midnightblue" points="892.211,-209.857 883.049,-215.178 893.53,-216.732 892.211,-209.857"/>
</g>
<!-- Node16&#45;&gt;Node12 -->
<g id="edge16" class="edge"><title>Node16&#45;&gt;Node12</title>
<path fill="none" stroke="midnightblue" d="M845.972,-205.271C855.261,-196.268 866.182,-185.646 876,-176 899.911,-152.509 927.521,-124.984 943.828,-108.684"/>
<polygon fill="midnightblue" stroke="midnightblue" points="843.363,-202.925 838.613,-212.396 848.232,-207.954 843.363,-202.925"/>
</g>
<!-- Node17 -->
<g id="node13" class="node"><title>Node17</title>
<g id="a_node13"><a xlink:href="MatrixElements_8cpp.html" target="_top" xlink:title="/travis/pairinteraction\l/MatrixElements.cpp">
<polygon fill="none" stroke="black" points="749,-145.5 749,-175.5 867,-175.5 867,-145.5 749,-145.5"/>
<text text-anchor="start" x="757" y="-163.5" font-family="Helvetica,sans-Serif" font-size="10.00">/travis/pairinteraction</text>
<text text-anchor="middle" x="808" y="-152.5" font-family="Helvetica,sans-Serif" font-size="10.00">/MatrixElements.cpp</text>
</a>
</g>
</g>
<!-- Node16&#45;&gt;Node17 -->
<g id="edge17" class="edge"><title>Node16&#45;&gt;Node17</title>
<path fill="none" stroke="midnightblue" d="M818.068,-202.403C815.845,-193.37 813.393,-183.408 811.465,-175.577"/>
<polygon fill="midnightblue" stroke="midnightblue" points="814.739,-203.522 820.528,-212.396 821.537,-201.849 814.739,-203.522"/>
</g>
<!-- Node19 -->
<g id="node15" class="node"><title>Node19</title>
<g id="a_node15"><a xlink:href="MatrixElementCache_8cpp.html" target="_top" xlink:title="/travis/pairinteraction\l/MatrixElementCache.cpp">
<polygon fill="none" stroke="black" points="553.5,-212.5 553.5,-242.5 692.5,-242.5 692.5,-212.5 553.5,-212.5"/>
<text text-anchor="start" x="561.5" y="-230.5" font-family="Helvetica,sans-Serif" font-size="10.00">/travis/pairinteraction</text>
<text text-anchor="middle" x="623" y="-219.5" font-family="Helvetica,sans-Serif" font-size="10.00">/MatrixElementCache.cpp</text>
</a>
</g>
</g>
<!-- Node18&#45;&gt;Node19 -->
<g id="edge20" class="edge"><title>Node18&#45;&gt;Node19</title>
<path fill="none" stroke="midnightblue" d="M509.37,-275.544C534.493,-265.143 565.664,-252.238 589,-242.577"/>
<polygon fill="midnightblue" stroke="midnightblue" points="507.967,-272.337 500.067,-279.396 510.645,-278.804 507.967,-272.337"/>
</g>
<!-- Node20 -->
<g id="node16" class="node"><title>Node20</title>
<g id="a_node16"><a xlink:href="PerturbativeInteraction_8h.html" target="_top" xlink:title="/travis/pairinteraction\l/PerturbativeInteraction.h">
<polygon fill="none" stroke="black" points="397,-212.5 397,-242.5 535,-242.5 535,-212.5 397,-212.5"/>
<text text-anchor="start" x="405" y="-230.5" font-family="Helvetica,sans-Serif" font-size="10.00">/travis/pairinteraction</text>
<text text-anchor="middle" x="466" y="-219.5" font-family="Helvetica,sans-Serif" font-size="10.00">/PerturbativeInteraction.h</text>
</a>
</g>
</g>
<!-- Node18&#45;&gt;Node20 -->
<g id="edge21" class="edge"><title>Node18&#45;&gt;Node20</title>
<path fill="none" stroke="midnightblue" d="M466,-269.108C466,-260.154 466,-250.323 466,-242.577"/>
<polygon fill="midnightblue" stroke="midnightblue" points="462.5,-269.396 466,-279.396 469.5,-269.396 462.5,-269.396"/>
</g>
<!-- Node22 -->
<g id="node18" class="node"><title>Node22</title>
<g id="a_node18"><a xlink:href="SystemBase_8h.html" target="_top" xlink:title="/travis/pairinteraction\l/SystemBase.h">
<polygon fill="none" stroke="black" points="155,-212.5 155,-242.5 273,-242.5 273,-212.5 155,-212.5"/>
<text text-anchor="start" x="163" y="-230.5" font-family="Helvetica,sans-Serif" font-size="10.00">/travis/pairinteraction</text>
<text text-anchor="middle" x="214" y="-219.5" font-family="Helvetica,sans-Serif" font-size="10.00">/SystemBase.h</text>
</a>
</g>
</g>
<!-- Node18&#45;&gt;Node22 -->
<g id="edge23" class="edge"><title>Node18&#45;&gt;Node22</title>
<path fill="none" stroke="midnightblue" d="M401.709,-276.917C360.586,-266.31 307.817,-252.699 268.707,-242.611"/>
<polygon fill="midnightblue" stroke="midnightblue" points="401.073,-280.367 411.63,-279.476 402.821,-273.589 401.073,-280.367"/>
</g>
<!-- Node28 -->
<g id="node24" class="node"><title>Node28</title>
<g id="a_node24"><a xlink:href="integration__test_8cpp.html" target="_top" xlink:title="/travis/pairinteraction\l/unit_test/integration\l_test.cpp">
<polygon fill="none" stroke="black" points="223,-0.5 223,-41.5 341,-41.5 341,-0.5 223,-0.5"/>
<text text-anchor="start" x="231" y="-29.5" font-family="Helvetica,sans-Serif" font-size="10.00">/travis/pairinteraction</text>
<text text-anchor="start" x="231" y="-18.5" font-family="Helvetica,sans-Serif" font-size="10.00">/unit_test/integration</text>
<text text-anchor="middle" x="282" y="-7.5" font-family="Helvetica,sans-Serif" font-size="10.00">_test.cpp</text>
</a>
</g>
</g>
<!-- Node18&#45;&gt;Node28 -->
<g id="edge32" class="edge"><title>Node18&#45;&gt;Node28</title>
<path fill="none" stroke="midnightblue" d="M426.443,-274.451C412.798,-266.314 398.357,-255.728 388,-243 358.515,-206.766 369.791,-187.316 350,-145 332.427,-107.426 308.207,-65.5145 293.917,-41.5956"/>
<polygon fill="midnightblue" stroke="midnightblue" points="424.818,-277.553 435.243,-279.442 428.271,-271.464 424.818,-277.553"/>
</g>
<!-- Node21 -->
<g id="node17" class="node"><title>Node21</title>
<g id="a_node17"><a xlink:href="PerturbativeInteraction_8cpp.html" target="_top" xlink:title="/travis/pairinteraction\l/PerturbativeInteraction.cpp">
<polygon fill="none" stroke="black" points="396.5,-145.5 396.5,-175.5 545.5,-175.5 545.5,-145.5 396.5,-145.5"/>
<text text-anchor="start" x="404.5" y="-163.5" font-family="Helvetica,sans-Serif" font-size="10.00">/travis/pairinteraction</text>
<text text-anchor="middle" x="471" y="-152.5" font-family="Helvetica,sans-Serif" font-size="10.00">/PerturbativeInteraction.cpp</text>
</a>
</g>
</g>
<!-- Node20&#45;&gt;Node21 -->
<g id="edge22" class="edge"><title>Node20&#45;&gt;Node21</title>
<path fill="none" stroke="midnightblue" d="M467.854,-202.403C468.548,-193.37 469.315,-183.408 469.917,-175.577"/>
<polygon fill="midnightblue" stroke="midnightblue" points="464.362,-202.157 467.085,-212.396 471.342,-202.694 464.362,-202.157"/>
</g>
<!-- Node23 -->
<g id="node19" class="node"><title>Node23</title>
<g id="a_node19"><a xlink:href="SystemBase_8cpp.html" target="_top" xlink:title="/travis/pairinteraction\l/SystemBase.cpp">
<polygon fill="none" stroke="black" points="223,-145.5 223,-175.5 341,-175.5 341,-145.5 223,-145.5"/>
<text text-anchor="start" x="231" y="-163.5" font-family="Helvetica,sans-Serif" font-size="10.00">/travis/pairinteraction</text>
<text text-anchor="middle" x="282" y="-152.5" font-family="Helvetica,sans-Serif" font-size="10.00">/SystemBase.cpp</text>
</a>
</g>
</g>
<!-- Node22&#45;&gt;Node23 -->
<g id="edge24" class="edge"><title>Node22&#45;&gt;Node23</title>
<path fill="none" stroke="midnightblue" d="M236.166,-205.311C246.367,-195.561 258.191,-184.259 267.274,-175.577"/>
<polygon fill="midnightblue" stroke="midnightblue" points="233.565,-202.956 228.755,-212.396 238.402,-208.016 233.565,-202.956"/>
</g>
<!-- Node24 -->
<g id="node20" class="node"><title>Node24</title>
<g id="a_node20"><a xlink:href="SystemOne_8h.html" target="_top" xlink:title="/travis/pairinteraction\l/SystemOne.h">
<polygon fill="none" stroke="black" points="87,-145.5 87,-175.5 205,-175.5 205,-145.5 87,-145.5"/>
<text text-anchor="start" x="95" y="-163.5" font-family="Helvetica,sans-Serif" font-size="10.00">/travis/pairinteraction</text>
<text text-anchor="middle" x="146" y="-152.5" font-family="Helvetica,sans-Serif" font-size="10.00">/SystemOne.h</text>
</a>
</g>
</g>
<!-- Node22&#45;&gt;Node24 -->
<g id="edge25" class="edge"><title>Node22&#45;&gt;Node24</title>
<path fill="none" stroke="midnightblue" d="M191.834,-205.311C181.633,-195.561 169.809,-184.259 160.726,-175.577"/>
<polygon fill="midnightblue" stroke="midnightblue" points="189.598,-208.016 199.245,-212.396 194.435,-202.956 189.598,-208.016"/>
</g>
<!-- Node26 -->
<g id="node22" class="node"><title>Node26</title>
<g id="a_node22"><a xlink:href="SystemTwo_8h.html" target="_top" xlink:title="/travis/pairinteraction\l/SystemTwo.h">
<polygon fill="none" stroke="black" points="0,-78.5 0,-108.5 118,-108.5 118,-78.5 0,-78.5"/>
<text text-anchor="start" x="8" y="-96.5" font-family="Helvetica,sans-Serif" font-size="10.00">/travis/pairinteraction</text>
<text text-anchor="middle" x="59" y="-85.5" font-family="Helvetica,sans-Serif" font-size="10.00">/SystemTwo.h</text>
</a>
</g>
</g>
<!-- Node22&#45;&gt;Node26 -->
<g id="edge31" class="edge"><title>Node22&#45;&gt;Node26</title>
<path fill="none" stroke="midnightblue" d="M144.898,-214.865C120.646,-207.507 95.1927,-195.518 78,-176 61.3861,-157.139 58.55,-126.551 58.4574,-108.698"/>
<polygon fill="midnightblue" stroke="midnightblue" points="144.255,-218.319 154.828,-217.65 146.145,-211.579 144.255,-218.319"/>
</g>
<!-- Node25 -->
<g id="node21" class="node"><title>Node25</title>
<g id="a_node21"><a xlink:href="SystemOne_8cpp.html" target="_top" xlink:title="/travis/pairinteraction\l/SystemOne.cpp">
<polygon fill="none" stroke="black" points="136,-78.5 136,-108.5 254,-108.5 254,-78.5 136,-78.5"/>
<text text-anchor="start" x="144" y="-96.5" font-family="Helvetica,sans-Serif" font-size="10.00">/travis/pairinteraction</text>
<text text-anchor="middle" x="195" y="-85.5" font-family="Helvetica,sans-Serif" font-size="10.00">/SystemOne.cpp</text>
</a>
</g>
</g>
<!-- Node24&#45;&gt;Node25 -->
<g id="edge26" class="edge"><title>Node24&#45;&gt;Node25</title>
<path fill="none" stroke="midnightblue" d="M162.843,-137.157C169.988,-127.679 178.1,-116.919 184.388,-108.577"/>
<polygon fill="midnightblue" stroke="midnightblue" points="159.857,-135.304 156.632,-145.396 165.447,-139.518 159.857,-135.304"/>
</g>
<!-- Node24&#45;&gt;Node26 -->
<g id="edge27" class="edge"><title>Node24&#45;&gt;Node26</title>
<path fill="none" stroke="midnightblue" d="M118.786,-139.168C105.482,-129.228 89.8039,-117.514 77.8409,-108.577"/>
<polygon fill="midnightblue" stroke="midnightblue" points="117.016,-142.215 127.122,-145.396 121.206,-136.607 117.016,-142.215"/>
</g>
<!-- Node24&#45;&gt;Node28 -->
<g id="edge30" class="edge"><title>Node24&#45;&gt;Node28</title>
<path fill="none" stroke="midnightblue" d="M214.691,-142.356C232.699,-134.825 250.541,-124.122 263,-109 278.631,-90.0285 282.175,-61.0623 282.616,-41.835"/>
<polygon fill="midnightblue" stroke="midnightblue" points="213.338,-139.127 205.286,-146.012 215.875,-145.651 213.338,-139.127"/>
</g>
<!-- Node27 -->
<g id="node23" class="node"><title>Node27</title>
<g id="a_node23"><a xlink:href="SystemTwo_8cpp.html" target="_top" xlink:title="/travis/pairinteraction\l/SystemTwo.cpp">
<polygon fill="none" stroke="black" points="0,-6 0,-36 118,-36 118,-6 0,-6"/>
<text text-anchor="start" x="8" y="-24" font-family="Helvetica,sans-Serif" font-size="10.00">/travis/pairinteraction</text>
<text text-anchor="middle" x="59" y="-13" font-family="Helvetica,sans-Serif" font-size="10.00">/SystemTwo.cpp</text>
</a>
</g>
</g>
<!-- Node26&#45;&gt;Node27 -->
<g id="edge28" class="edge"><title>Node26&#45;&gt;Node27</title>
<path fill="none" stroke="midnightblue" d="M59,-68.2317C59,-57.5679 59,-45.4145 59,-36.2455"/>
<polygon fill="midnightblue" stroke="midnightblue" points="55.5001,-68.2332 59,-78.2333 62.5001,-68.2333 55.5001,-68.2332"/>
</g>
<!-- Node26&#45;&gt;Node28 -->
<g id="edge29" class="edge"><title>Node26&#45;&gt;Node28</title>
<path fill="none" stroke="midnightblue" d="M112.878,-75.4668C146.128,-64.9552 188.804,-51.4632 222.968,-40.6625"/>
<polygon fill="midnightblue" stroke="midnightblue" points="111.804,-72.1355 103.324,-78.4872 113.914,-78.8099 111.804,-72.1355"/>
</g>
</g>
</svg>
        <g id="navigator" transform="translate(0 0)" fill="#404254">
                <rect fill="#f2f5e9" fill-opacity="0.5" stroke="#606060" stroke-width=".5" x="0" y="0" width="60" height="60"/>
                <use id="zoomplus" xlink:href="#zoomPlus" x="17" y="9" onmousedown="handleZoom(evt,'in')"/>
                <use id="zoomminus" xlink:href="#zoomMin" x="42" y="9" onmousedown="handleZoom(evt,'out')"/>
                <use id="reset" xlink:href="#resetDef" x="30" y="36" onmousedown="handleReset()"/>
                <g id="arrowUp" xlink:href="#dirArrow" transform="translate(30 24)" onmousedown="handlePan(0,-1)">
                  <use xlink:href="#rim" fill="#404040">
                        <set attributeName="fill" to="#808080" begin="arrowUp.mouseover" end="arrowUp.mouseout"/>
                  </use>
                  <path fill="none" stroke="white" stroke-width="1.5" d="M0,-3.0v7 M-2.5,-0.5L0,-3.0L2.5,-0.5"/>
                </g>
                <g id="arrowRight" xlink:href="#dirArrow" transform="rotate(90) translate(36 -43)" onmousedown="handlePan(1,0)">
                  <use xlink:href="#rim" fill="#404040">
                        <set attributeName="fill" to="#808080" begin="arrowRight.mouseover" end="arrowRight.mouseout"/>
                  </use>
                  <path fill="none" stroke="white" stroke-width="1.5" d="M0,-3.0v7 M-2.5,-0.5L0,-3.0L2.5,-0.5"/>
                </g>
                <g id="arrowDown" xlink:href="#dirArrow" transform="rotate(180) translate(-30 -48)" onmousedown="handlePan(0,1)">
                  <use xlink:href="#rim" fill="#404040">
                        <set attributeName="fill" to="#808080" begin="arrowDown.mouseover" end="arrowDown.mouseout"/>
                  </use>
                  <path fill="none" stroke="white" stroke-width="1.5" d="M0,-3.0v7 M-2.5,-0.5L0,-3.0L2.5,-0.5"/>
                </g>
                <g id="arrowLeft" xlink:href="#dirArrow" transform="rotate(270) translate(-36 17)" onmousedown="handlePan(-1,0)">
                  <use xlink:href="#rim" fill="#404040">
                        <set attributeName="fill" to="#808080" begin="arrowLeft.mouseover" end="arrowLeft.mouseout"/>
                  </use>
                  <path fill="none" stroke="white" stroke-width="1.5" d="M0,-3.0v7 M-2.5,-0.5L0,-3.0L2.5,-0.5"/>
                </g>
        </g>
        <svg viewBox="0 0 15 15" width="100%" height="30px" preserveAspectRatio="xMaxYMin meet">
         <g id="arrow_out" transform="scale(0.3 0.3)">
          <a xlink:href="ConfParser_8h__dep__incl_org.svg" target="_base">
           <rect id="button" ry="5" rx="5" y="6" x="6" height="38" width="38"
                fill="#f2f5e9" fill-opacity="0.5" stroke="#606060" stroke-width="1.0"/>
           <path id="arrow"
             d="M 11.500037,31.436501 C 11.940474,20.09759 22.043105,11.32322 32.158766,21.979434 L 37.068811,17.246167 C 37.068811,17.246167 37.088388,32 37.088388,32 L 22.160133,31.978069 C 22.160133,31.978069 26.997745,27.140456 26.997745,27.140456 C 18.528582,18.264221 13.291696,25.230495 11.500037,31.436501 z"
             style="fill:#404040;"/>
          </a>
         </g>
        </svg>
</svg>
