<?xml version="1.0" encoding="UTF-8" standalone="no"?>
<!DOCTYPE svg PUBLIC "-//W3C//DTD SVG 1.1//EN"
 "http://www.w3.org/Graphics/SVG/1.1/DTD/svg11.dtd">
<!-- Generated by graphviz version 2.38.0 (20140413.2041)
 -->
<!-- Title: /travis/pairinteraction/dtypes.h Pages: 1 -->
<svg width="534pt" height="106pt"
 viewBox="0.00 0.00 534.00 106.00" xmlns="http://www.w3.org/2000/svg" xmlns:xlink="http://www.w3.org/1999/xlink">
<g id="graph0" class="graph" transform="scale(1 1) rotate(0) translate(4 102)">
<title>/travis/pairinteraction/dtypes.h</title>
<!-- Node0 -->
<g id="node1" class="node"><title>Node0</title>
<polygon fill="#bfbfbf" stroke="black" points="186.5,-67.5 186.5,-97.5 304.5,-97.5 304.5,-67.5 186.5,-67.5"/>
<text text-anchor="start" x="194.5" y="-85.5" font-family="Helvetica,sans-Serif" font-size="10.00">/travis/pairinteraction</text>
<text text-anchor="middle" x="245.5" y="-74.5" font-family="Helvetica,sans-Serif" font-size="10.00">/dtypes.h</text>
</g>
<!-- Node1 -->
<g id="node2" class="node"><title>Node1</title>
<polygon fill="none" stroke="#bfbfbf" points="0,-6 0,-25 77,-25 77,-6 0,-6"/>
<text text-anchor="middle" x="38.5" y="-13" font-family="Helvetica,sans-Serif" font-size="10.00">Eigen/Dense</text>
</g>
<!-- Node0&#45;&gt;Node1 -->
<g id="edge1" class="edge"><title>Node0&#45;&gt;Node1</title>
<path fill="none" stroke="midnightblue" d="M200.839,-67.476C163.411,-55.7232 110.61,-39.1433 75.5068,-28.1205"/>
<polygon fill="midnightblue" stroke="midnightblue" points="76.2498,-24.6854 65.6605,-25.0287 74.1526,-31.3638 76.2498,-24.6854"/>
</g>
<!-- Node2 -->
<g id="node3" class="node"><title>Node2</title>
<polygon fill="none" stroke="#bfbfbf" points="95.5,-6 95.5,-25 175.5,-25 175.5,-6 95.5,-6"/>
<text text-anchor="middle" x="135.5" y="-13" font-family="Helvetica,sans-Serif" font-size="10.00">Eigen/Sparse</text>
</g>
<!-- Node0&#45;&gt;Node2 -->
<g id="edge2" class="edge"><title>Node0&#45;&gt;Node2</title>
<path fill="none" stroke="midnightblue" d="M221.632,-67.396C202.929,-56.3442 177.064,-41.0607 158.569,-30.1319"/>
<polygon fill="midnightblue" stroke="midnightblue" points="160.286,-27.0811 149.896,-25.007 156.725,-33.1076 160.286,-27.0811"/>
</g>
<!-- Node3 -->
<g id="node4" class="node"><title>Node3</title>
<polygon fill="none" stroke="#bfbfbf" points="194,-6 194,-25 235,-25 235,-6 194,-6"/>
<text text-anchor="middle" x="214.5" y="-13" font-family="Helvetica,sans-Serif" font-size="10.00">array</text>
</g>
<!-- Node0&#45;&gt;Node3 -->
<g id="edge3" class="edge"><title>Node0&#45;&gt;Node3</title>
<path fill="none" stroke="midnightblue" d="M238.773,-67.396C234.179,-57.7628 228.052,-44.9145 223.102,-34.5373"/>
<polygon fill="midnightblue" stroke="midnightblue" points="226.111,-32.7139 218.647,-25.1945 219.792,-35.7273 226.111,-32.7139"/>
</g>
<!-- Node4 -->
<g id="node5" class="node"><title>Node4</title>
<polygon fill="none" stroke="#bfbfbf" points="253,-6 253,-25 300,-25 300,-6 253,-6"/>
<text text-anchor="middle" x="276.5" y="-13" font-family="Helvetica,sans-Serif" font-size="10.00">cmath</text>
</g>
<!-- Node0&#45;&gt;Node4 -->
<g id="edge4" class="edge"><title>Node0&#45;&gt;Node4</title>
<path fill="none" stroke="midnightblue" d="M252.227,-67.396C256.821,-57.7628 262.948,-44.9145 267.898,-34.5373"/>
<polygon fill="midnightblue" stroke="midnightblue" points="271.208,-35.7273 272.353,-25.1945 264.889,-32.7139 271.208,-35.7273"/>
</g>
<!-- Node5 -->
<g id="node6" class="node"><title>Node5</title>
<polygon fill="none" stroke="#bfbfbf" points="318,-0.5 318,-30.5 461,-30.5 461,-0.5 318,-0.5"/>
<text text-anchor="start" x="326" y="-18.5" font-family="Helvetica,sans-Serif" font-size="10.00">unsupported/Eigen/CXX11</text>
<text text-anchor="middle" x="389.5" y="-7.5" font-family="Helvetica,sans-Serif" font-size="10.00">/Tensor</text>
</g>
<!-- Node0&#45;&gt;Node5 -->
<g id="edge5" class="edge"><title>Node0&#45;&gt;Node5</title>
<path fill="none" stroke="midnightblue" d="M276.746,-67.396C297.975,-57.8135 326.251,-45.0498 349.177,-34.7016"/>
<polygon fill="midnightblue" stroke="midnightblue" points="350.641,-37.8808 358.315,-30.5765 347.761,-31.5007 350.641,-37.8808"/>
</g>
<!-- Node6 -->
<g id="node7" class="node"><title>Node6</title>
<polygon fill="none" stroke="#bfbfbf" points="479,-6 479,-25 526,-25 526,-6 479,-6"/>
<text text-anchor="middle" x="502.5" y="-13" font-family="Helvetica,sans-Serif" font-size="10.00">vector</text>
</g>
<!-- Node0&#45;&gt;Node6 -->
<g id="edge6" class="edge"><title>Node0&#45;&gt;Node6</title>
<path fill="none" stroke="midnightblue" d="M304.673,-71.6467C350.581,-63.1854 415.454,-49.4322 470.5,-31 472.17,-30.4408 473.87,-29.8232 475.573,-29.1677"/>
<polygon fill="midnightblue" stroke="midnightblue" points="477.293,-32.2412 485.154,-25.1379 474.579,-25.7887 477.293,-32.2412"/>
</g>
</g>
</svg>
