<?xml version="1.0" encoding="UTF-8" standalone="no"?>
<!DOCTYPE svg PUBLIC "-//W3C//DTD SVG 1.1//EN"
 "http://www.w3.org/Graphics/SVG/1.1/DTD/svg11.dtd">
<!-- Generated by graphviz version 2.38.0 (20140413.2041)
 -->
<!-- Title: /travis/pairinteraction/GreenTensor.h Pages: 1 -->
<svg width="535pt" height="162pt"
 viewBox="0.00 0.00 535.00 162.00" xmlns="http://www.w3.org/2000/svg" xmlns:xlink="http://www.w3.org/1999/xlink">
<g id="graph0" class="graph" transform="scale(1 1) rotate(0) translate(4 158)">
<title>/travis/pairinteraction/GreenTensor.h</title>
<!-- Node0 -->
<g id="node1" class="node"><title>Node0</title>
<polygon fill="#bfbfbf" stroke="black" points="382.5,-123.5 382.5,-153.5 500.5,-153.5 500.5,-123.5 382.5,-123.5"/>
<text text-anchor="start" x="390.5" y="-141.5" font-family="Helvetica,sans-Serif" font-size="10.00">/travis/pairinteraction</text>
<text text-anchor="middle" x="441.5" y="-130.5" font-family="Helvetica,sans-Serif" font-size="10.00">/GreenTensor.h</text>
</g>
<!-- Node1 -->
<g id="node2" class="node"><title>Node1</title>
<g id="a_node2"><a xlink:href="dtypes_8h.html" target="_top" xlink:title="dtypes.h">
<polygon fill="none" stroke="black" points="295.5,-67.5 295.5,-86.5 353.5,-86.5 353.5,-67.5 295.5,-67.5"/>
<text text-anchor="middle" x="324.5" y="-74.5" font-family="Helvetica,sans-Serif" font-size="10.00">dtypes.h</text>
</a>
</g>
</g>
<!-- Node0&#45;&gt;Node1 -->
<g id="edge1" class="edge"><title>Node0&#45;&gt;Node1</title>
<path fill="none" stroke="midnightblue" d="M413.773,-123.399C394.668,-113.684 369.442,-100.855 350.68,-91.3137"/>
<polygon fill="midnightblue" stroke="midnightblue" points="352.025,-88.071 341.525,-86.6578 348.852,-94.3106 352.025,-88.071"/>
</g>
<!-- Node5 -->
<g id="node6" class="node"><title>Node5</title>
<polygon fill="none" stroke="#bfbfbf" points="479,-6 479,-25 526,-25 526,-6 479,-6"/>
<text text-anchor="middle" x="502.5" y="-13" font-family="Helvetica,sans-Serif" font-size="10.00">cmath</text>
</g>
<!-- Node0&#45;&gt;Node5 -->
<g id="edge8" class="edge"><title>Node0&#45;&gt;Node5</title>
<path fill="none" stroke="midnightblue" d="M443.766,-123.362C446.512,-108.663 451.997,-85.2892 461.5,-67 468.104,-54.2888 478.23,-41.776 486.765,-32.3857"/>
<polygon fill="midnightblue" stroke="midnightblue" points="489.408,-34.6848 493.729,-25.0109 484.319,-29.879 489.408,-34.6848"/>
</g>
<!-- Node8 -->
<g id="node9" class="node"><title>Node8</title>
<polygon fill="none" stroke="#bfbfbf" points="470,-67.5 470,-86.5 527,-86.5 527,-67.5 470,-67.5"/>
<text text-anchor="middle" x="498.5" y="-74.5" font-family="Helvetica,sans-Serif" font-size="10.00">complex</text>
</g>
<!-- Node0&#45;&gt;Node8 -->
<g id="edge9" class="edge"><title>Node0&#45;&gt;Node8</title>
<path fill="none" stroke="midnightblue" d="M455.008,-123.399C463.462,-114.575 474.375,-103.183 483.155,-94.0178"/>
<polygon fill="midnightblue" stroke="midnightblue" points="485.816,-96.3002 490.206,-86.6578 480.761,-91.4577 485.816,-96.3002"/>
</g>
<!-- Node2 -->
<g id="node3" class="node"><title>Node2</title>
<polygon fill="none" stroke="#bfbfbf" points="0,-6 0,-25 77,-25 77,-6 0,-6"/>
<text text-anchor="middle" x="38.5" y="-13" font-family="Helvetica,sans-Serif" font-size="10.00">Eigen/Dense</text>
</g>
<!-- Node1&#45;&gt;Node2 -->
<g id="edge2" class="edge"><title>Node1&#45;&gt;Node2</title>
<path fill="none" stroke="midnightblue" d="M295.343,-71.5151C250.258,-64.3497 161.042,-49.2511 86.5,-31 82.662,-30.0603 78.676,-28.998 74.7151,-27.8861"/>
<polygon fill="midnightblue" stroke="midnightblue" points="75.5996,-24.4983 65.0198,-25.0616 73.6417,-31.2189 75.5996,-24.4983"/>
</g>
<!-- Node3 -->
<g id="node4" class="node"><title>Node3</title>
<polygon fill="none" stroke="#bfbfbf" points="95.5,-6 95.5,-25 175.5,-25 175.5,-6 95.5,-6"/>
<text text-anchor="middle" x="135.5" y="-13" font-family="Helvetica,sans-Serif" font-size="10.00">Eigen/Sparse</text>
</g>
<!-- Node1&#45;&gt;Node3 -->
<g id="edge3" class="edge"><title>Node1&#45;&gt;Node3</title>
<path fill="none" stroke="midnightblue" d="M297.421,-67.4751C264.58,-57.1362 209.07,-39.6611 172.352,-28.1017"/>
<polygon fill="midnightblue" stroke="midnightblue" points="173.118,-24.6735 162.529,-25.0091 171.016,-31.3505 173.118,-24.6735"/>
</g>
<!-- Node4 -->
<g id="node5" class="node"><title>Node4</title>
<polygon fill="none" stroke="#bfbfbf" points="194,-6 194,-25 235,-25 235,-6 194,-6"/>
<text text-anchor="middle" x="214.5" y="-13" font-family="Helvetica,sans-Serif" font-size="10.00">array</text>
</g>
<!-- Node1&#45;&gt;Node4 -->
<g id="edge4" class="edge"><title>Node1&#45;&gt;Node4</title>
<path fill="none" stroke="midnightblue" d="M308.74,-67.4751C290.524,-57.6222 260.327,-41.2883 239.032,-29.7697"/>
<polygon fill="midnightblue" stroke="midnightblue" points="240.692,-26.6883 230.231,-25.0091 237.362,-32.8453 240.692,-26.6883"/>
</g>
<!-- Node1&#45;&gt;Node5 -->
<g id="edge5" class="edge"><title>Node1&#45;&gt;Node5</title>
<path fill="none" stroke="midnightblue" d="M353.675,-68.183C383.411,-59.9429 430.691,-46.0848 470.5,-31 472.108,-30.3908 473.749,-29.74 475.398,-29.064"/>
<polygon fill="midnightblue" stroke="midnightblue" points="476.936,-32.2123 484.728,-25.0338 474.16,-25.7862 476.936,-32.2123"/>
</g>
<!-- Node6 -->
<g id="node7" class="node"><title>Node6</title>
<polygon fill="none" stroke="#bfbfbf" points="253,-0.5 253,-30.5 396,-30.5 396,-0.5 253,-0.5"/>
<text text-anchor="start" x="261" y="-18.5" font-family="Helvetica,sans-Serif" font-size="10.00">unsupported/Eigen/CXX11</text>
<text text-anchor="middle" x="324.5" y="-7.5" font-family="Helvetica,sans-Serif" font-size="10.00">/Tensor</text>
</g>
<!-- Node1&#45;&gt;Node6 -->
<g id="edge6" class="edge"><title>Node1&#45;&gt;Node6</title>
<path fill="none" stroke="midnightblue" d="M324.5,-67.4751C324.5,-60.471 324.5,-50.1919 324.5,-40.6956"/>
<polygon fill="midnightblue" stroke="midnightblue" points="328,-40.5229 324.5,-30.523 321,-40.523 328,-40.5229"/>
</g>
<!-- Node7 -->
<g id="node8" class="node"><title>Node7</title>
<polygon fill="none" stroke="#bfbfbf" points="414,-6 414,-25 461,-25 461,-6 414,-6"/>
<text text-anchor="middle" x="437.5" y="-13" font-family="Helvetica,sans-Serif" font-size="10.00">vector</text>
</g>
<!-- Node1&#45;&gt;Node7 -->
<g id="edge7" class="edge"><title>Node1&#45;&gt;Node7</title>
<path fill="none" stroke="midnightblue" d="M340.69,-67.4751C359.402,-57.6222 390.423,-41.2883 412.299,-29.7697"/>
<polygon fill="midnightblue" stroke="midnightblue" points="414.122,-32.7651 421.34,-25.0091 410.861,-26.5713 414.122,-32.7651"/>
</g>
</g>
</svg>
