<?xml version="1.0" encoding="UTF-8" standalone="no"?>
<!DOCTYPE svg PUBLIC "-//W3C//DTD SVG 1.1//EN"
 "http://www.w3.org/Graphics/SVG/1.1/DTD/svg11.dtd">
<!-- Generated by graphviz version 2.38.0 (20140413.2041)
 -->
<!-- Title: /travis/pairinteraction/GreenTensor.cpp Pages: 1 -->
<svg width="554pt" height="218pt"
 viewBox="0.00 0.00 553.50 218.00" xmlns="http://www.w3.org/2000/svg" xmlns:xlink="http://www.w3.org/1999/xlink">
<g id="graph0" class="graph" transform="scale(1 1) rotate(0) translate(4 214)">
<title>/travis/pairinteraction/GreenTensor.cpp</title>
<!-- Node0 -->
<g id="node1" class="node"><title>Node0</title>
<polygon fill="#bfbfbf" stroke="black" points="423.5,-179.5 423.5,-209.5 541.5,-209.5 541.5,-179.5 423.5,-179.5"/>
<text text-anchor="start" x="431.5" y="-197.5" font-family="Helvetica,sans-Serif" font-size="10.00">/travis/pairinteraction</text>
<text text-anchor="middle" x="482.5" y="-186.5" font-family="Helvetica,sans-Serif" font-size="10.00">/GreenTensor.cpp</text>
</g>
<!-- Node1 -->
<g id="node2" class="node"><title>Node1</title>
<g id="a_node2"><a xlink:href="GreenTensor_8h.html" target="_top" xlink:title="GreenTensor.h">
<polygon fill="none" stroke="black" points="398,-123.5 398,-142.5 485,-142.5 485,-123.5 398,-123.5"/>
<text text-anchor="middle" x="441.5" y="-130.5" font-family="Helvetica,sans-Serif" font-size="10.00">GreenTensor.h</text>
</a>
</g>
</g>
<!-- Node0&#45;&gt;Node1 -->
<g id="edge1" class="edge"><title>Node0&#45;&gt;Node1</title>
<path fill="none" stroke="midnightblue" d="M472.784,-179.399C466.949,-170.932 459.484,-160.099 453.31,-151.139"/>
<polygon fill="midnightblue" stroke="midnightblue" points="456.022,-148.906 447.466,-142.658 450.258,-152.878 456.022,-148.906"/>
</g>
<!-- Node10 -->
<g id="node11" class="node"><title>Node10</title>
<polygon fill="none" stroke="#bfbfbf" points="503.5,-123.5 503.5,-142.5 545.5,-142.5 545.5,-123.5 503.5,-123.5"/>
<text text-anchor="middle" x="524.5" y="-130.5" font-family="Helvetica,sans-Serif" font-size="10.00">limits</text>
</g>
<!-- Node0&#45;&gt;Node10 -->
<g id="edge11" class="edge"><title>Node0&#45;&gt;Node10</title>
<path fill="none" stroke="midnightblue" d="M492.453,-179.399C498.494,-170.842 506.238,-159.871 512.601,-150.857"/>
<polygon fill="midnightblue" stroke="midnightblue" points="515.481,-152.846 518.389,-142.658 509.762,-148.809 515.481,-152.846"/>
</g>
<!-- Node2 -->
<g id="node3" class="node"><title>Node2</title>
<g id="a_node3"><a xlink:href="dtypes_8h.html" target="_top" xlink:title="dtypes.h">
<polygon fill="none" stroke="black" points="295.5,-67.5 295.5,-86.5 353.5,-86.5 353.5,-67.5 295.5,-67.5"/>
<text text-anchor="middle" x="324.5" y="-74.5" font-family="Helvetica,sans-Serif" font-size="10.00">dtypes.h</text>
</a>
</g>
</g>
<!-- Node1&#45;&gt;Node2 -->
<g id="edge2" class="edge"><title>Node1&#45;&gt;Node2</title>
<path fill="none" stroke="midnightblue" d="M422.961,-123.444C403.877,-114.636 373.925,-100.812 352.064,-90.722"/>
<polygon fill="midnightblue" stroke="midnightblue" points="353.499,-87.5292 342.952,-86.5164 350.565,-93.8849 353.499,-87.5292"/>
</g>
<!-- Node6 -->
<g id="node7" class="node"><title>Node6</title>
<polygon fill="none" stroke="#bfbfbf" points="479,-6 479,-25 526,-25 526,-6 479,-6"/>
<text text-anchor="middle" x="502.5" y="-13" font-family="Helvetica,sans-Serif" font-size="10.00">cmath</text>
</g>
<!-- Node1&#45;&gt;Node6 -->
<g id="edge9" class="edge"><title>Node1&#45;&gt;Node6</title>
<path fill="none" stroke="midnightblue" d="M443.096,-123.173C445.671,-110.267 451.494,-85.7494 461.5,-67 468.244,-54.3625 478.371,-41.8504 486.872,-32.442"/>
<polygon fill="midnightblue" stroke="midnightblue" points="489.517,-34.7387 493.799,-25.0478 484.408,-29.953 489.517,-34.7387"/>
</g>
<!-- Node9 -->
<g id="node10" class="node"><title>Node9</title>
<polygon fill="none" stroke="#bfbfbf" points="470,-67.5 470,-86.5 527,-86.5 527,-67.5 470,-67.5"/>
<text text-anchor="middle" x="498.5" y="-74.5" font-family="Helvetica,sans-Serif" font-size="10.00">complex</text>
</g>
<!-- Node1&#45;&gt;Node9 -->
<g id="edge10" class="edge"><title>Node1&#45;&gt;Node9</title>
<path fill="none" stroke="midnightblue" d="M450.658,-123.324C459.001,-115.42 471.532,-103.548 481.677,-93.9377"/>
<polygon fill="midnightblue" stroke="midnightblue" points="484.323,-96.2522 489.175,-86.8339 479.509,-91.1705 484.323,-96.2522"/>
</g>
<!-- Node3 -->
<g id="node4" class="node"><title>Node3</title>
<polygon fill="none" stroke="#bfbfbf" points="0,-6 0,-25 77,-25 77,-6 0,-6"/>
<text text-anchor="middle" x="38.5" y="-13" font-family="Helvetica,sans-Serif" font-size="10.00">Eigen/Dense</text>
</g>
<!-- Node2&#45;&gt;Node3 -->
<g id="edge3" class="edge"><title>Node2&#45;&gt;Node3</title>
<path fill="none" stroke="midnightblue" d="M295.343,-71.5151C250.258,-64.3497 161.042,-49.2511 86.5,-31 82.662,-30.0603 78.676,-28.998 74.7151,-27.8861"/>
<polygon fill="midnightblue" stroke="midnightblue" points="75.5996,-24.4983 65.0198,-25.0616 73.6417,-31.2189 75.5996,-24.4983"/>
</g>
<!-- Node4 -->
<g id="node5" class="node"><title>Node4</title>
<polygon fill="none" stroke="#bfbfbf" points="95.5,-6 95.5,-25 175.5,-25 175.5,-6 95.5,-6"/>
<text text-anchor="middle" x="135.5" y="-13" font-family="Helvetica,sans-Serif" font-size="10.00">Eigen/Sparse</text>
</g>
<!-- Node2&#45;&gt;Node4 -->
<g id="edge4" class="edge"><title>Node2&#45;&gt;Node4</title>
<path fill="none" stroke="midnightblue" d="M297.421,-67.4751C264.58,-57.1362 209.07,-39.6611 172.352,-28.1017"/>
<polygon fill="midnightblue" stroke="midnightblue" points="173.118,-24.6735 162.529,-25.0091 171.016,-31.3505 173.118,-24.6735"/>
</g>
<!-- Node5 -->
<g id="node6" class="node"><title>Node5</title>
<polygon fill="none" stroke="#bfbfbf" points="194,-6 194,-25 235,-25 235,-6 194,-6"/>
<text text-anchor="middle" x="214.5" y="-13" font-family="Helvetica,sans-Serif" font-size="10.00">array</text>
</g>
<!-- Node2&#45;&gt;Node5 -->
<g id="edge5" class="edge"><title>Node2&#45;&gt;Node5</title>
<path fill="none" stroke="midnightblue" d="M308.74,-67.4751C290.524,-57.6222 260.327,-41.2883 239.032,-29.7697"/>
<polygon fill="midnightblue" stroke="midnightblue" points="240.692,-26.6883 230.231,-25.0091 237.362,-32.8453 240.692,-26.6883"/>
</g>
<!-- Node2&#45;&gt;Node6 -->
<g id="edge6" class="edge"><title>Node2&#45;&gt;Node6</title>
<path fill="none" stroke="midnightblue" d="M353.675,-68.183C383.411,-59.9429 430.691,-46.0848 470.5,-31 472.108,-30.3908 473.749,-29.74 475.398,-29.064"/>
<polygon fill="midnightblue" stroke="midnightblue" points="476.936,-32.2123 484.728,-25.0338 474.16,-25.7862 476.936,-32.2123"/>
</g>
<!-- Node7 -->
<g id="node8" class="node"><title>Node7</title>
<polygon fill="none" stroke="#bfbfbf" points="253,-0.5 253,-30.5 396,-30.5 396,-0.5 253,-0.5"/>
<text text-anchor="start" x="261" y="-18.5" font-family="Helvetica,sans-Serif" font-size="10.00">unsupported/Eigen/CXX11</text>
<text text-anchor="middle" x="324.5" y="-7.5" font-family="Helvetica,sans-Serif" font-size="10.00">/Tensor</text>
</g>
<!-- Node2&#45;&gt;Node7 -->
<g id="edge7" class="edge"><title>Node2&#45;&gt;Node7</title>
<path fill="none" stroke="midnightblue" d="M324.5,-67.4751C324.5,-60.471 324.5,-50.1919 324.5,-40.6956"/>
<polygon fill="midnightblue" stroke="midnightblue" points="328,-40.5229 324.5,-30.523 321,-40.523 328,-40.5229"/>
</g>
<!-- Node8 -->
<g id="node9" class="node"><title>Node8</title>
<polygon fill="none" stroke="#bfbfbf" points="414,-6 414,-25 461,-25 461,-6 414,-6"/>
<text text-anchor="middle" x="437.5" y="-13" font-family="Helvetica,sans-Serif" font-size="10.00">vector</text>
</g>
<!-- Node2&#45;&gt;Node8 -->
<g id="edge8" class="edge"><title>Node2&#45;&gt;Node8</title>
<path fill="none" stroke="midnightblue" d="M340.69,-67.4751C359.402,-57.6222 390.423,-41.2883 412.299,-29.7697"/>
<polygon fill="midnightblue" stroke="midnightblue" points="414.122,-32.7651 421.34,-25.0091 410.861,-26.5713 414.122,-32.7651"/>
</g>
</g>
</svg>
