<?xml version="1.0" encoding="UTF-8" standalone="no"?>
<!DOCTYPE svg PUBLIC "-//W3C//DTD SVG 1.1//EN"
 "http://www.w3.org/Graphics/SVG/1.1/DTD/svg11.dtd">
<!-- Generated by graphviz version 2.38.0 (20140413.2041)
 -->
<!-- Title: /travis/pairinteraction/HamiltonianOne.h Pages: 1 -->
<svg width="349pt" height="173pt"
 viewBox="0.00 0.00 349.00 173.00" xmlns="http://www.w3.org/2000/svg" xmlns:xlink="http://www.w3.org/1999/xlink">
<g id="graph0" class="graph" transform="scale(1 1) rotate(0) translate(4 169)">
<title>/travis/pairinteraction/HamiltonianOne.h</title>
<!-- Node60 -->
<g id="node1" class="node"><title>Node60</title>
<polygon fill="#bfbfbf" stroke="black" points="136,-134.5 136,-164.5 254,-164.5 254,-134.5 136,-134.5"/>
<text text-anchor="start" x="144" y="-152.5" font-family="Helvetica,sans-Serif" font-size="10.00">/travis/pairinteraction</text>
<text text-anchor="middle" x="195" y="-141.5" font-family="Helvetica,sans-Serif" font-size="10.00">/HamiltonianOne.h</text>
</g>
<!-- Node61 -->
<g id="node2" class="node"><title>Node61</title>
<g id="a_node2"><a xlink:href="HamiltonianOne_8cpp.html" target="_top" xlink:title="/travis/pairinteraction\l/HamiltonianOne.cpp">
<polygon fill="none" stroke="black" points="0,-67.5 0,-97.5 118,-97.5 118,-67.5 0,-67.5"/>
<text text-anchor="start" x="8" y="-85.5" font-family="Helvetica,sans-Serif" font-size="10.00">/travis/pairinteraction</text>
<text text-anchor="middle" x="59" y="-74.5" font-family="Helvetica,sans-Serif" font-size="10.00">/HamiltonianOne.cpp</text>
</a>
</g>
</g>
<!-- Node60&#45;&gt;Node61 -->
<g id="edge1" class="edge"><title>Node60&#45;&gt;Node61</title>
<path fill="none" stroke="midnightblue" d="M156.276,-129.992C134.719,-119.689 108.311,-107.068 88.4524,-97.5765"/>
<polygon fill="midnightblue" stroke="midnightblue" points="154.958,-133.242 165.49,-134.396 157.977,-126.926 154.958,-133.242"/>
</g>
<!-- Node62 -->
<g id="node3" class="node"><title>Node62</title>
<g id="a_node3"><a xlink:href="HamiltonianTwo_8h.html" target="_top" xlink:title="/travis/pairinteraction\l/HamiltonianTwo.h">
<polygon fill="none" stroke="black" points="136,-67.5 136,-97.5 254,-97.5 254,-67.5 136,-67.5"/>
<text text-anchor="start" x="144" y="-85.5" font-family="Helvetica,sans-Serif" font-size="10.00">/travis/pairinteraction</text>
<text text-anchor="middle" x="195" y="-74.5" font-family="Helvetica,sans-Serif" font-size="10.00">/HamiltonianTwo.h</text>
</a>
</g>
</g>
<!-- Node60&#45;&gt;Node62 -->
<g id="edge2" class="edge"><title>Node60&#45;&gt;Node62</title>
<path fill="none" stroke="midnightblue" d="M195,-124.108C195,-115.154 195,-105.323 195,-97.5765"/>
<polygon fill="midnightblue" stroke="midnightblue" points="191.5,-124.396 195,-134.396 198.5,-124.396 191.5,-124.396"/>
</g>
<!-- Node64 -->
<g id="node5" class="node"><title>Node64</title>
<g id="a_node5"><a xlink:href="Interface_8cpp.html" target="_top" xlink:title="/travis/pairinteraction\l/Interface.cpp">
<polygon fill="none" stroke="black" points="223,-0.5 223,-30.5 341,-30.5 341,-0.5 223,-0.5"/>
<text text-anchor="start" x="231" y="-18.5" font-family="Helvetica,sans-Serif" font-size="10.00">/travis/pairinteraction</text>
<text text-anchor="middle" x="282" y="-7.5" font-family="Helvetica,sans-Serif" font-size="10.00">/Interface.cpp</text>
</a>
</g>
</g>
<!-- Node60&#45;&gt;Node64 -->
<g id="edge5" class="edge"><title>Node60&#45;&gt;Node64</title>
<path fill="none" stroke="midnightblue" d="M230.786,-128.937C242.652,-120.813 254.888,-110.368 263,-98 276.626,-77.226 280.526,-47.8409 281.614,-30.6176"/>
<polygon fill="midnightblue" stroke="midnightblue" points="228.775,-126.07 222.275,-134.437 232.574,-131.949 228.775,-126.07"/>
</g>
<!-- Node63 -->
<g id="node4" class="node"><title>Node63</title>
<g id="a_node4"><a xlink:href="HamiltonianTwo_8cpp.html" target="_top" xlink:title="/travis/pairinteraction\l/HamiltonianTwo.cpp">
<polygon fill="none" stroke="black" points="87,-0.5 87,-30.5 205,-30.5 205,-0.5 87,-0.5"/>
<text text-anchor="start" x="95" y="-18.5" font-family="Helvetica,sans-Serif" font-size="10.00">/travis/pairinteraction</text>
<text text-anchor="middle" x="146" y="-7.5" font-family="Helvetica,sans-Serif" font-size="10.00">/HamiltonianTwo.cpp</text>
</a>
</g>
</g>
<!-- Node62&#45;&gt;Node63 -->
<g id="edge3" class="edge"><title>Node62&#45;&gt;Node63</title>
<path fill="none" stroke="midnightblue" d="M178.157,-59.1575C171.012,-49.6788 162.9,-38.9186 156.612,-30.5765"/>
<polygon fill="midnightblue" stroke="midnightblue" points="175.553,-61.5176 184.368,-67.396 181.143,-57.3038 175.553,-61.5176"/>
</g>
<!-- Node62&#45;&gt;Node64 -->
<g id="edge4" class="edge"><title>Node62&#45;&gt;Node64</title>
<path fill="none" stroke="midnightblue" d="M222.214,-61.1677C235.518,-51.2283 251.196,-39.5144 263.159,-30.5765"/>
<polygon fill="midnightblue" stroke="midnightblue" points="219.794,-58.6068 213.878,-67.396 223.984,-64.2145 219.794,-58.6068"/>
</g>
</g>
</svg>
