<?xml version="1.0" encoding="UTF-8" standalone="no"?>
<!DOCTYPE svg PUBLIC "-//W3C//DTD SVG 1.1//EN"
 "http://www.w3.org/Graphics/SVG/1.1/DTD/svg11.dtd">
<!-- Generated by graphviz version 2.38.0 (20140413.2041)
 -->
<!-- Title: /travis/pairinteraction/Hamiltonianmatrix.h Pages: 1 -->
<svg width="2033pt" height="285pt"
 viewBox="0.00 0.00 2032.50 285.00" xmlns="http://www.w3.org/2000/svg" xmlns:xlink="http://www.w3.org/1999/xlink">
<g id="graph0" class="graph" transform="scale(1 1) rotate(0) translate(4 281)">
<title>/travis/pairinteraction/Hamiltonianmatrix.h</title>
<!-- Node0 -->
<g id="node1" class="node"><title>Node0</title>
<polygon fill="#bfbfbf" stroke="black" points="1364.5,-246.5 1364.5,-276.5 1482.5,-276.5 1482.5,-246.5 1364.5,-246.5"/>
<text text-anchor="start" x="1372.5" y="-264.5" font-family="Helvetica,sans-Serif" font-size="10.00">/travis/pairinteraction</text>
<text text-anchor="middle" x="1423.5" y="-253.5" font-family="Helvetica,sans-Serif" font-size="10.00">/Hamiltonianmatrix.h</text>
</g>
<!-- Node1 -->
<g id="node2" class="node"><title>Node1</title>
<g id="a_node2"><a xlink:href="Basisnames_8h.html" target="_top" xlink:title="Basisnames.h">
<polygon fill="none" stroke="black" points="767.5,-190.5 767.5,-209.5 851.5,-209.5 851.5,-190.5 767.5,-190.5"/>
<text text-anchor="middle" x="809.5" y="-197.5" font-family="Helvetica,sans-Serif" font-size="10.00">Basisnames.h</text>
</a>
</g>
</g>
<!-- Node0&#45;&gt;Node1 -->
<g id="edge1" class="edge"><title>Node0&#45;&gt;Node1</title>
<path fill="none" stroke="midnightblue" d="M1364.35,-254.768C1244.7,-243.174 975.706,-217.106 861.918,-206.08"/>
<polygon fill="midnightblue" stroke="midnightblue" points="862.016,-202.573 851.725,-205.092 861.34,-209.54 862.016,-202.573"/>
</g>
<!-- Node8 -->
<g id="node9" class="node"><title>Node8</title>
<g id="a_node9"><a xlink:href="StateOld_8h.html" target="_top" xlink:title="StateOld.h">
<polygon fill="none" stroke="black" points="427.5,-134.5 427.5,-153.5 495.5,-153.5 495.5,-134.5 427.5,-134.5"/>
<text text-anchor="middle" x="461.5" y="-141.5" font-family="Helvetica,sans-Serif" font-size="10.00">StateOld.h</text>
</a>
</g>
</g>
<!-- Node0&#45;&gt;Node8 -->
<g id="edge39" class="edge"><title>Node0&#45;&gt;Node8</title>
<path fill="none" stroke="midnightblue" d="M1364.48,-258.784C1248.05,-254.789 980.743,-242.595 758.5,-210 666.619,-196.524 560.751,-170.87 503.518,-156.142"/>
<polygon fill="midnightblue" stroke="midnightblue" points="504.307,-152.731 493.749,-153.612 502.552,-159.508 504.307,-152.731"/>
</g>
<!-- Node9 -->
<g id="node10" class="node"><title>Node9</title>
<g id="a_node10"><a xlink:href="dtypes_8h.html" target="_top" xlink:title="dtypes.h">
<polygon fill="none" stroke="black" points="1021.5,-73 1021.5,-92 1079.5,-92 1079.5,-73 1021.5,-73"/>
<text text-anchor="middle" x="1050.5" y="-80" font-family="Helvetica,sans-Serif" font-size="10.00">dtypes.h</text>
</a>
</g>
</g>
<!-- Node0&#45;&gt;Node9 -->
<g id="edge40" class="edge"><title>Node0&#45;&gt;Node9</title>
<path fill="none" stroke="midnightblue" d="M1364.35,-253.571C1265.51,-240.559 1074.07,-208.734 1038.5,-154 1028.28,-138.267 1034.3,-116.541 1040.96,-101.38"/>
<polygon fill="midnightblue" stroke="midnightblue" points="1044.25,-102.612 1045.48,-92.0875 1037.96,-99.5519 1044.25,-102.612"/>
</g>
<!-- Node13 -->
<g id="node14" class="node"><title>Node13</title>
<polygon fill="none" stroke="#bfbfbf" points="0,-6 0,-25 47,-25 47,-6 0,-6"/>
<text text-anchor="middle" x="23.5" y="-13" font-family="Helvetica,sans-Serif" font-size="10.00">cmath</text>
</g>
<!-- Node0&#45;&gt;Node13 -->
<g id="edge48" class="edge"><title>Node0&#45;&gt;Node13</title>
<path fill="none" stroke="midnightblue" d="M1364.47,-258.908C1234.61,-254.913 914.521,-242.361 648.5,-210 367.928,-175.869 203.906,-314.743 22.5,-98 7.99137,-80.6652 11.9796,-53.2285 17.0295,-35.0478"/>
<polygon fill="midnightblue" stroke="midnightblue" points="20.4249,-35.917 20.0742,-25.3279 13.7449,-33.8245 20.4249,-35.917"/>
</g>
<!-- Node15 -->
<g id="node16" class="node"><title>Node15</title>
<polygon fill="none" stroke="#bfbfbf" points="1148,-6 1148,-25 1195,-25 1195,-6 1148,-6"/>
<text text-anchor="middle" x="1171.5" y="-13" font-family="Helvetica,sans-Serif" font-size="10.00">vector</text>
</g>
<!-- Node0&#45;&gt;Node15 -->
<g id="edge54" class="edge"><title>Node0&#45;&gt;Node15</title>
<path fill="none" stroke="midnightblue" d="M1449.73,-246.472C1489.17,-223.537 1556.04,-176.321 1525.5,-134 1450.19,-29.6523 1278.48,-16.5038 1205.42,-15.8434"/>
<polygon fill="midnightblue" stroke="midnightblue" points="1205.38,-12.3434 1195.38,-15.8272 1205.37,-19.3434 1205.38,-12.3434"/>
</g>
<!-- Node22 -->
<g id="node23" class="node"><title>Node22</title>
<polygon fill="none" stroke="#bfbfbf" points="1048,-134.5 1048,-153.5 1105,-153.5 1105,-134.5 1048,-134.5"/>
<text text-anchor="middle" x="1076.5" y="-141.5" font-family="Helvetica,sans-Serif" font-size="10.00">memory</text>
</g>
<!-- Node0&#45;&gt;Node22 -->
<g id="edge52" class="edge"><title>Node0&#45;&gt;Node22</title>
<path fill="none" stroke="midnightblue" d="M1364.47,-249.577C1322.09,-240.933 1263.97,-227.423 1214.5,-210 1173.57,-195.583 1128.49,-172.988 1101.35,-158.593"/>
<polygon fill="midnightblue" stroke="midnightblue" points="1102.67,-155.33 1092.2,-153.691 1099.36,-161.5 1102.67,-155.33"/>
</g>
<!-- Node25 -->
<g id="node26" class="node"><title>Node25</title>
<g id="a_node26"><a xlink:href="Serializable_8h.html" target="_top" xlink:title="Serializable.h">
<polygon fill="none" stroke="black" points="1223.5,-190.5 1223.5,-209.5 1303.5,-209.5 1303.5,-190.5 1223.5,-190.5"/>
<text text-anchor="middle" x="1263.5" y="-197.5" font-family="Helvetica,sans-Serif" font-size="10.00">Serializable.h</text>
</a>
</g>
</g>
<!-- Node0&#45;&gt;Node25 -->
<g id="edge31" class="edge"><title>Node0&#45;&gt;Node25</title>
<path fill="none" stroke="midnightblue" d="M1385.58,-246.399C1358.38,-236.283 1322.1,-222.791 1296.17,-213.149"/>
<polygon fill="midnightblue" stroke="midnightblue" points="1297.37,-209.863 1286.78,-209.658 1294.93,-216.424 1297.37,-209.863"/>
</g>
<!-- Node30 -->
<g id="node31" class="node"><title>Node30</title>
<g id="a_node31"><a xlink:href="utils_8h.html" target="_top" xlink:title="utils.h">
<polygon fill="none" stroke="black" points="1585,-190.5 1585,-209.5 1630,-209.5 1630,-190.5 1585,-190.5"/>
<text text-anchor="middle" x="1607.5" y="-197.5" font-family="Helvetica,sans-Serif" font-size="10.00">utils.h</text>
</a>
</g>
</g>
<!-- Node0&#45;&gt;Node30 -->
<g id="edge41" class="edge"><title>Node0&#45;&gt;Node30</title>
<path fill="none" stroke="midnightblue" d="M1467.11,-246.399C1500.33,-235.655 1545.33,-221.103 1575.34,-211.401"/>
<polygon fill="midnightblue" stroke="midnightblue" points="1576.46,-214.716 1584.9,-208.309 1574.31,-208.056 1576.46,-214.716"/>
</g>
<!-- Node37 -->
<g id="node38" class="node"><title>Node37</title>
<polygon fill="none" stroke="#bfbfbf" points="1648,-190.5 1648,-209.5 1697,-209.5 1697,-190.5 1648,-190.5"/>
<text text-anchor="middle" x="1672.5" y="-197.5" font-family="Helvetica,sans-Serif" font-size="10.00">cstdint</text>
</g>
<!-- Node0&#45;&gt;Node37 -->
<g id="edge49" class="edge"><title>Node0&#45;&gt;Node37</title>
<path fill="none" stroke="midnightblue" d="M1482.93,-247.014C1523.87,-237.612 1579.78,-224.564 1637.91,-210.096"/>
<polygon fill="midnightblue" stroke="midnightblue" points="1638.78,-213.486 1647.64,-207.667 1637.09,-206.694 1638.78,-213.486"/>
</g>
<!-- Node38 -->
<g id="node39" class="node"><title>Node38</title>
<polygon fill="none" stroke="#bfbfbf" points="1715,-190.5 1715,-209.5 1760,-209.5 1760,-190.5 1715,-190.5"/>
<text text-anchor="middle" x="1737.5" y="-197.5" font-family="Helvetica,sans-Serif" font-size="10.00">cstdio</text>
</g>
<!-- Node0&#45;&gt;Node38 -->
<g id="edge50" class="edge"><title>Node0&#45;&gt;Node38</title>
<path fill="none" stroke="midnightblue" d="M1482.71,-251.61C1537.82,-242.947 1622.41,-228.669 1705.04,-209.914"/>
<polygon fill="midnightblue" stroke="midnightblue" points="1705.88,-213.312 1714.84,-207.665 1704.31,-206.489 1705.88,-213.312"/>
</g>
<!-- Node39 -->
<g id="node40" class="node"><title>Node39</title>
<polygon fill="none" stroke="#bfbfbf" points="1778,-190.5 1778,-209.5 1841,-209.5 1841,-190.5 1778,-190.5"/>
<text text-anchor="middle" x="1809.5" y="-197.5" font-family="Helvetica,sans-Serif" font-size="10.00">exception</text>
</g>
<!-- Node0&#45;&gt;Node39 -->
<g id="edge51" class="edge"><title>Node0&#45;&gt;Node39</title>
<path fill="none" stroke="midnightblue" d="M1482.62,-253.141C1549.41,-244.536 1661.56,-229.214 1767.83,-210.009"/>
<polygon fill="midnightblue" stroke="midnightblue" points="1768.55,-213.435 1777.76,-208.199 1767.3,-206.549 1768.55,-213.435"/>
</g>
<!-- Node40 -->
<g id="node41" class="node"><title>Node40</title>
<polygon fill="none" stroke="#bfbfbf" points="1859.5,-190.5 1859.5,-209.5 1923.5,-209.5 1923.5,-190.5 1859.5,-190.5"/>
<text text-anchor="middle" x="1891.5" y="-197.5" font-family="Helvetica,sans-Serif" font-size="10.00">stdexcept</text>
</g>
<!-- Node0&#45;&gt;Node40 -->
<g id="edge53" class="edge"><title>Node0&#45;&gt;Node40</title>
<path fill="none" stroke="midnightblue" d="M1482.66,-255.242C1565.16,-247.513 1719.27,-231.623 1849.5,-210 1849.6,-209.983 1849.7,-209.966 1849.8,-209.949"/>
<polygon fill="midnightblue" stroke="midnightblue" points="1850.25,-213.427 1859.46,-208.188 1848.99,-206.54 1850.25,-213.427"/>
</g>
<!-- Node2 -->
<g id="node3" class="node"><title>Node2</title>
<g id="a_node3"><a xlink:href="ConfParser_8h.html" target="_top" xlink:title="ConfParser.h">
<polygon fill="none" stroke="black" points="837.5,-134.5 837.5,-153.5 915.5,-153.5 915.5,-134.5 837.5,-134.5"/>
<text text-anchor="middle" x="876.5" y="-141.5" font-family="Helvetica,sans-Serif" font-size="10.00">ConfParser.h</text>
</a>
</g>
</g>
<!-- Node1&#45;&gt;Node2 -->
<g id="edge2" class="edge"><title>Node1&#45;&gt;Node2</title>
<path fill="none" stroke="midnightblue" d="M820.265,-190.324C830.266,-182.263 845.387,-170.077 857.43,-160.369"/>
<polygon fill="midnightblue" stroke="midnightblue" points="859.95,-162.834 865.539,-153.834 855.557,-157.384 859.95,-162.834"/>
</g>
<!-- Node5 -->
<g id="node6" class="node"><title>Node5</title>
<polygon fill="none" stroke="#bfbfbf" points="689.5,-73 689.5,-92 733.5,-92 733.5,-73 689.5,-73"/>
<text text-anchor="middle" x="711.5" y="-80" font-family="Helvetica,sans-Serif" font-size="10.00">string</text>
</g>
<!-- Node1&#45;&gt;Node5 -->
<g id="edge28" class="edge"><title>Node1&#45;&gt;Node5</title>
<path fill="none" stroke="midnightblue" d="M808.872,-190.138C807.523,-176.752 803.333,-151.122 790.5,-134 783.092,-124.116 756.705,-108.204 736.444,-96.8845"/>
<polygon fill="midnightblue" stroke="midnightblue" points="738.104,-93.8031 727.656,-92.0448 734.727,-99.9347 738.104,-93.8031"/>
</g>
<!-- Node7 -->
<g id="node8" class="node"><title>Node7</title>
<g id="a_node8"><a xlink:href="Iter_8h.html" target="_top" xlink:title="Iter.h">
<polygon fill="none" stroke="black" points="514,-134.5 514,-153.5 555,-153.5 555,-134.5 514,-134.5"/>
<text text-anchor="middle" x="534.5" y="-141.5" font-family="Helvetica,sans-Serif" font-size="10.00">Iter.h</text>
</a>
</g>
</g>
<!-- Node1&#45;&gt;Node7 -->
<g id="edge7" class="edge"><title>Node1&#45;&gt;Node7</title>
<path fill="none" stroke="midnightblue" d="M767.152,-192.671C720.087,-185.317 641.684,-172.116 564.914,-153.866"/>
<polygon fill="midnightblue" stroke="midnightblue" points="565.617,-150.435 555.076,-151.497 563.978,-157.241 565.617,-150.435"/>
</g>
<!-- Node1&#45;&gt;Node8 -->
<g id="edge8" class="edge"><title>Node1&#45;&gt;Node8</title>
<path fill="none" stroke="midnightblue" d="M767.436,-193.604C710.389,-186.108 605.098,-171.644 505.645,-154.118"/>
<polygon fill="midnightblue" stroke="midnightblue" points="506.19,-150.66 495.732,-152.357 504.965,-157.552 506.19,-150.66"/>
</g>
<!-- Node1&#45;&gt;Node9 -->
<g id="edge24" class="edge"><title>Node1&#45;&gt;Node9</title>
<path fill="none" stroke="midnightblue" d="M834.14,-190.469C857.71,-182.051 894.069,-168.384 924.5,-154 961.676,-136.428 1002.95,-112.427 1027.8,-97.4526"/>
<polygon fill="midnightblue" stroke="midnightblue" points="1029.74,-100.367 1036.47,-92.1875 1026.11,-94.3823 1029.74,-100.367"/>
</g>
<!-- Node1&#45;&gt;Node15 -->
<g id="edge30" class="edge"><title>Node1&#45;&gt;Node15</title>
<path fill="none" stroke="midnightblue" d="M851.672,-190.497C909.002,-177.499 1013.03,-148.7 1088.5,-98 1116.16,-79.4191 1142.64,-50.9334 1157.98,-33.0296"/>
<polygon fill="midnightblue" stroke="midnightblue" points="1160.82,-35.0901 1164.57,-25.1804 1155.46,-30.59 1160.82,-35.0901"/>
</g>
<!-- Node21 -->
<g id="node22" class="node"><title>Node21</title>
<polygon fill="none" stroke="#bfbfbf" points="573.5,-134.5 573.5,-153.5 627.5,-153.5 627.5,-134.5 573.5,-134.5"/>
<text text-anchor="middle" x="600.5" y="-141.5" font-family="Helvetica,sans-Serif" font-size="10.00">fstream</text>
</g>
<!-- Node1&#45;&gt;Node21 -->
<g id="edge25" class="edge"><title>Node1&#45;&gt;Node21</title>
<path fill="none" stroke="midnightblue" d="M776.383,-190.444C738.582,-180.677 676.911,-164.742 637.544,-154.571"/>
<polygon fill="midnightblue" stroke="midnightblue" points="638.358,-151.167 627.8,-152.054 636.607,-157.944 638.358,-151.167"/>
</g>
<!-- Node1&#45;&gt;Node22 -->
<g id="edge26" class="edge"><title>Node1&#45;&gt;Node22</title>
<path fill="none" stroke="midnightblue" d="M851.512,-190.503C902.653,-180.16 988.304,-162.837 1037.87,-152.814"/>
<polygon fill="midnightblue" stroke="midnightblue" points="1038.76,-156.204 1047.87,-150.791 1037.37,-149.343 1038.76,-156.204"/>
</g>
<!-- Node23 -->
<g id="node24" class="node"><title>Node23</title>
<polygon fill="none" stroke="#bfbfbf" points="645.5,-134.5 645.5,-153.5 677.5,-153.5 677.5,-134.5 645.5,-134.5"/>
<text text-anchor="middle" x="661.5" y="-141.5" font-family="Helvetica,sans-Serif" font-size="10.00">set</text>
</g>
<!-- Node1&#45;&gt;Node23 -->
<g id="edge27" class="edge"><title>Node1&#45;&gt;Node23</title>
<path fill="none" stroke="midnightblue" d="M786.049,-190.444C759.044,-180.591 714.836,-164.461 686.997,-154.303"/>
<polygon fill="midnightblue" stroke="midnightblue" points="688.137,-150.993 677.543,-150.854 685.738,-157.569 688.137,-150.993"/>
</g>
<!-- Node24 -->
<g id="node25" class="node"><title>Node24</title>
<polygon fill="none" stroke="#bfbfbf" points="695.5,-134.5 695.5,-153.5 781.5,-153.5 781.5,-134.5 695.5,-134.5"/>
<text text-anchor="middle" x="738.5" y="-141.5" font-family="Helvetica,sans-Serif" font-size="10.00">unordered_set</text>
</g>
<!-- Node1&#45;&gt;Node24 -->
<g id="edge29" class="edge"><title>Node1&#45;&gt;Node24</title>
<path fill="none" stroke="midnightblue" d="M798.093,-190.324C787.391,-182.185 771.159,-169.839 758.337,-160.087"/>
<polygon fill="midnightblue" stroke="midnightblue" points="760.193,-157.102 750.115,-153.834 755.956,-162.673 760.193,-157.102"/>
</g>
<!-- Node3 -->
<g id="node4" class="node"><title>Node3</title>
<polygon fill="none" stroke="#bfbfbf" points="751.5,-73 751.5,-92 789.5,-92 789.5,-73 751.5,-73"/>
<text text-anchor="middle" x="770.5" y="-80" font-family="Helvetica,sans-Serif" font-size="10.00">map</text>
</g>
<!-- Node2&#45;&gt;Node3 -->
<g id="edge3" class="edge"><title>Node2&#45;&gt;Node3</title>
<path fill="none" stroke="midnightblue" d="M861.313,-134.475C843.838,-124.666 814.921,-108.435 794.417,-96.925"/>
<polygon fill="midnightblue" stroke="midnightblue" points="796.092,-93.8519 785.659,-92.0091 792.666,-99.956 796.092,-93.8519"/>
</g>
<!-- Node4 -->
<g id="node5" class="node"><title>Node4</title>
<polygon fill="none" stroke="#bfbfbf" points="807.5,-73 807.5,-92 863.5,-92 863.5,-73 807.5,-73"/>
<text text-anchor="middle" x="835.5" y="-80" font-family="Helvetica,sans-Serif" font-size="10.00">sstream</text>
</g>
<!-- Node2&#45;&gt;Node4 -->
<g id="edge4" class="edge"><title>Node2&#45;&gt;Node4</title>
<path fill="none" stroke="midnightblue" d="M870.626,-134.475C864.537,-125.638 854.855,-111.589 847.197,-100.475"/>
<polygon fill="midnightblue" stroke="midnightblue" points="849.92,-98.2575 841.363,-92.0091 844.156,-102.229 849.92,-98.2575"/>
</g>
<!-- Node2&#45;&gt;Node5 -->
<g id="edge5" class="edge"><title>Node2&#45;&gt;Node5</title>
<path fill="none" stroke="midnightblue" d="M847.928,-134.439C820.565,-125.999 778.27,-112.318 742.5,-98 741.121,-97.448 739.716,-96.8655 738.302,-96.2638"/>
<polygon fill="midnightblue" stroke="midnightblue" points="739.611,-93.015 729.053,-92.1323 736.756,-99.4064 739.611,-93.015"/>
</g>
<!-- Node6 -->
<g id="node7" class="node"><title>Node6</title>
<polygon fill="none" stroke="#bfbfbf" points="881.5,-73 881.5,-92 1003.5,-92 1003.5,-73 881.5,-73"/>
<text text-anchor="middle" x="942.5" y="-80" font-family="Helvetica,sans-Serif" font-size="10.00">boost/lexical_cast.hpp</text>
</g>
<!-- Node2&#45;&gt;Node6 -->
<g id="edge6" class="edge"><title>Node2&#45;&gt;Node6</title>
<path fill="none" stroke="midnightblue" d="M885.956,-134.475C896.248,-125.197 912.916,-110.171 925.494,-98.831"/>
<polygon fill="midnightblue" stroke="midnightblue" points="927.978,-101.305 933.061,-92.0091 923.29,-96.1054 927.978,-101.305"/>
</g>
<!-- Node8&#45;&gt;Node5 -->
<g id="edge20" class="edge"><title>Node8&#45;&gt;Node5</title>
<path fill="none" stroke="midnightblue" d="M495.765,-135.817C498.719,-135.201 501.662,-134.589 504.5,-134 582.25,-117.866 603.98,-122.539 679.5,-98 681.371,-97.3921 683.278,-96.7073 685.183,-95.9746"/>
<polygon fill="midnightblue" stroke="midnightblue" points="686.651,-99.1541 694.507,-92.0459 683.933,-92.7033 686.651,-99.1541"/>
</g>
<!-- Node8&#45;&gt;Node9 -->
<g id="edge9" class="edge"><title>Node8&#45;&gt;Node9</title>
<path fill="none" stroke="midnightblue" d="M495.694,-135.407C498.664,-134.88 501.629,-134.4 504.5,-134 728.675,-102.743 791.495,-146.873 1012.5,-98 1015.57,-97.3206 1018.73,-96.4383 1021.84,-95.4444"/>
<polygon fill="midnightblue" stroke="midnightblue" points="1023.26,-98.6544 1031.51,-92.0009 1020.91,-92.0605 1023.26,-98.6544"/>
</g>
<!-- Node12 -->
<g id="node13" class="node"><title>Node12</title>
<polygon fill="none" stroke="#bfbfbf" points="627,-6 627,-25 668,-25 668,-6 627,-6"/>
<text text-anchor="middle" x="647.5" y="-13" font-family="Helvetica,sans-Serif" font-size="10.00">array</text>
</g>
<!-- Node8&#45;&gt;Node12 -->
<g id="edge16" class="edge"><title>Node8&#45;&gt;Node12</title>
<path fill="none" stroke="midnightblue" d="M473.783,-134.208C486.196,-125.26 505.865,-110.909 522.5,-98 539.719,-84.6376 542.574,-79.3987 560.5,-67 580.375,-53.2529 604.183,-39.6126 621.865,-29.9801"/>
<polygon fill="midnightblue" stroke="midnightblue" points="623.848,-32.8877 630.994,-25.0659 620.53,-26.7239 623.848,-32.8877"/>
</g>
<!-- Node8&#45;&gt;Node13 -->
<g id="edge18" class="edge"><title>Node8&#45;&gt;Node13</title>
<path fill="none" stroke="midnightblue" d="M427.211,-141.568C332.284,-137.295 71.1286,-123.332 42.5,-98 24.9369,-82.4595 21.9681,-54.1152 22.1718,-35.2915"/>
<polygon fill="midnightblue" stroke="midnightblue" points="25.6712,-35.3756 22.5891,-25.239 18.6773,-35.0852 25.6712,-35.3756"/>
</g>
<!-- Node16 -->
<g id="node17" class="node"><title>Node16</title>
<polygon fill="none" stroke="#bfbfbf" points="51.5,-73 51.5,-92 191.5,-92 191.5,-73 51.5,-73"/>
<text text-anchor="middle" x="121.5" y="-80" font-family="Helvetica,sans-Serif" font-size="10.00">boost/functional/hash.hpp</text>
</g>
<!-- Node8&#45;&gt;Node16 -->
<g id="edge17" class="edge"><title>Node8&#45;&gt;Node16</title>
<path fill="none" stroke="midnightblue" d="M427.278,-137.221C377.384,-128.767 281.759,-112.462 200.5,-98 193.054,-96.6749 185.218,-95.2604 177.49,-93.854"/>
<polygon fill="midnightblue" stroke="midnightblue" points="177.902,-90.3714 167.436,-92.0178 176.645,-97.2575 177.902,-90.3714"/>
</g>
<!-- Node17 -->
<g id="node18" class="node"><title>Node17</title>
<polygon fill="none" stroke="#bfbfbf" points="210,-73 210,-92 269,-92 269,-73 210,-73"/>
<text text-anchor="middle" x="239.5" y="-80" font-family="Helvetica,sans-Serif" font-size="10.00">iostream</text>
</g>
<!-- Node8&#45;&gt;Node17 -->
<g id="edge19" class="edge"><title>Node8&#45;&gt;Node17</title>
<path fill="none" stroke="midnightblue" d="M427.453,-135.856C390.463,-127.811 329.783,-113.782 278.5,-98 275.935,-97.2106 273.292,-96.3448 270.65,-95.4416"/>
<polygon fill="midnightblue" stroke="midnightblue" points="271.808,-92.1386 261.213,-92.0754 269.456,-98.7317 271.808,-92.1386"/>
</g>
<!-- Node18 -->
<g id="node19" class="node"><title>Node18</title>
<polygon fill="none" stroke="#bfbfbf" points="287.5,-67.5 287.5,-97.5 391.5,-97.5 391.5,-67.5 287.5,-67.5"/>
<text text-anchor="start" x="295.5" y="-85.5" font-family="Helvetica,sans-Serif" font-size="10.00">boost/serialization</text>
<text text-anchor="middle" x="339.5" y="-74.5" font-family="Helvetica,sans-Serif" font-size="10.00">/array.hpp</text>
</g>
<!-- Node8&#45;&gt;Node18 -->
<g id="edge21" class="edge"><title>Node8&#45;&gt;Node18</title>
<path fill="none" stroke="midnightblue" d="M444.02,-134.475C426.725,-126.04 399.69,-112.855 377.449,-102.008"/>
<polygon fill="midnightblue" stroke="midnightblue" points="378.775,-98.7607 368.253,-97.523 375.707,-105.052 378.775,-98.7607"/>
</g>
<!-- Node19 -->
<g id="node20" class="node"><title>Node19</title>
<polygon fill="none" stroke="#bfbfbf" points="409.5,-67.5 409.5,-97.5 513.5,-97.5 513.5,-67.5 409.5,-67.5"/>
<text text-anchor="start" x="417.5" y="-85.5" font-family="Helvetica,sans-Serif" font-size="10.00">boost/serialization</text>
<text text-anchor="middle" x="461.5" y="-74.5" font-family="Helvetica,sans-Serif" font-size="10.00">/string.hpp</text>
</g>
<!-- Node8&#45;&gt;Node19 -->
<g id="edge22" class="edge"><title>Node8&#45;&gt;Node19</title>
<path fill="none" stroke="midnightblue" d="M461.5,-134.475C461.5,-127.471 461.5,-117.192 461.5,-107.696"/>
<polygon fill="midnightblue" stroke="midnightblue" points="465,-107.523 461.5,-97.523 458,-107.523 465,-107.523"/>
</g>
<!-- Node20 -->
<g id="node21" class="node"><title>Node20</title>
<polygon fill="none" stroke="#bfbfbf" points="570,-73 570,-92 671,-92 671,-73 570,-73"/>
<text text-anchor="middle" x="620.5" y="-80" font-family="Helvetica,sans-Serif" font-size="10.00">boost/variant.hpp</text>
</g>
<!-- Node8&#45;&gt;Node20 -->
<g id="edge23" class="edge"><title>Node8&#45;&gt;Node20</title>
<path fill="none" stroke="midnightblue" d="M484.281,-134.475C511.555,-124.269 557.413,-107.108 588.301,-95.5492"/>
<polygon fill="midnightblue" stroke="midnightblue" points="589.622,-98.7919 597.761,-92.0091 587.169,-92.2359 589.622,-98.7919"/>
</g>
<!-- Node10 -->
<g id="node11" class="node"><title>Node10</title>
<polygon fill="none" stroke="#bfbfbf" points="793,-6 793,-25 870,-25 870,-6 793,-6"/>
<text text-anchor="middle" x="831.5" y="-13" font-family="Helvetica,sans-Serif" font-size="10.00">Eigen/Dense</text>
</g>
<!-- Node9&#45;&gt;Node10 -->
<g id="edge10" class="edge"><title>Node9&#45;&gt;Node10</title>
<path fill="none" stroke="midnightblue" d="M1029.33,-72.9919C1023.88,-70.922 1018.01,-68.7908 1012.5,-67 954.264,-48.0603 938.373,-47.8561 879.5,-31 876.134,-30.0363 872.641,-29.0175 869.144,-27.9847"/>
<polygon fill="midnightblue" stroke="midnightblue" points="869.963,-24.5766 859.379,-25.0712 867.961,-31.2844 869.963,-24.5766"/>
</g>
<!-- Node11 -->
<g id="node12" class="node"><title>Node11</title>
<polygon fill="none" stroke="#bfbfbf" points="888.5,-6 888.5,-25 968.5,-25 968.5,-6 888.5,-6"/>
<text text-anchor="middle" x="928.5" y="-13" font-family="Helvetica,sans-Serif" font-size="10.00">Eigen/Sparse</text>
</g>
<!-- Node9&#45;&gt;Node11 -->
<g id="edge11" class="edge"><title>Node9&#45;&gt;Node11</title>
<path fill="none" stroke="midnightblue" d="M1034.3,-72.8685C1013.7,-61.8932 977.909,-42.8243 953.723,-29.9385"/>
<polygon fill="midnightblue" stroke="midnightblue" points="955.239,-26.7804 944.768,-25.1672 951.947,-32.9583 955.239,-26.7804"/>
</g>
<!-- Node9&#45;&gt;Node12 -->
<g id="edge12" class="edge"><title>Node9&#45;&gt;Node12</title>
<path fill="none" stroke="midnightblue" d="M1030.66,-72.9562C1024.89,-70.7391 1018.52,-68.5434 1012.5,-67 949.303,-50.7956 755.103,-28.3548 678.773,-19.9022"/>
<polygon fill="midnightblue" stroke="midnightblue" points="678.719,-16.3752 668.396,-18.759 677.952,-23.3331 678.719,-16.3752"/>
</g>
<!-- Node9&#45;&gt;Node13 -->
<g id="edge13" class="edge"><title>Node9&#45;&gt;Node13</title>
<path fill="none" stroke="midnightblue" d="M1031.52,-72.9219C1025.55,-70.5896 1018.86,-68.3401 1012.5,-67 824.189,-27.3013 208.87,-18.4156 57.4135,-16.8107"/>
<polygon fill="midnightblue" stroke="midnightblue" points="57.3578,-13.31 47.3225,-16.7074 57.2861,-20.3096 57.3578,-13.31"/>
</g>
<!-- Node14 -->
<g id="node15" class="node"><title>Node14</title>
<polygon fill="none" stroke="#bfbfbf" points="987,-0.5 987,-30.5 1130,-30.5 1130,-0.5 987,-0.5"/>
<text text-anchor="start" x="995" y="-18.5" font-family="Helvetica,sans-Serif" font-size="10.00">unsupported/Eigen/CXX11</text>
<text text-anchor="middle" x="1058.5" y="-7.5" font-family="Helvetica,sans-Serif" font-size="10.00">/Tensor</text>
</g>
<!-- Node9&#45;&gt;Node14 -->
<g id="edge14" class="edge"><title>Node9&#45;&gt;Node14</title>
<path fill="none" stroke="midnightblue" d="M1051.58,-72.7338C1052.59,-64.5406 1054.14,-51.9225 1055.52,-40.7136"/>
<polygon fill="midnightblue" stroke="midnightblue" points="1059.02,-40.9417 1056.77,-30.589 1052.07,-40.0866 1059.02,-40.9417"/>
</g>
<!-- Node9&#45;&gt;Node15 -->
<g id="edge15" class="edge"><title>Node9&#45;&gt;Node15</title>
<path fill="none" stroke="midnightblue" d="M1066.82,-72.7338C1087.32,-61.7207 1122.7,-42.7129 1146.59,-29.8787"/>
<polygon fill="midnightblue" stroke="midnightblue" points="1148.29,-32.943 1155.44,-25.1273 1144.97,-26.7764 1148.29,-32.943"/>
</g>
<!-- Node25&#45;&gt;Node9 -->
<g id="edge32" class="edge"><title>Node25&#45;&gt;Node9</title>
<path fill="none" stroke="midnightblue" d="M1239.77,-190.35C1217.91,-182.048 1184.81,-168.639 1157.5,-154 1125.59,-136.896 1091.01,-113.046 1070.05,-97.9396"/>
<polygon fill="midnightblue" stroke="midnightblue" points="1072.09,-95.0986 1061.95,-92.0462 1067.97,-100.759 1072.09,-95.0986"/>
</g>
<!-- Node25&#45;&gt;Node15 -->
<g id="edge38" class="edge"><title>Node25&#45;&gt;Node15</title>
<path fill="none" stroke="midnightblue" d="M1239.13,-190.409C1222.65,-183.281 1201.89,-171.459 1190.5,-154 1166.55,-117.275 1167.05,-63.3033 1169.34,-35.1468"/>
<polygon fill="midnightblue" stroke="midnightblue" points="1172.83,-35.3864 1170.33,-25.0916 1165.86,-34.7005 1172.83,-35.3864"/>
</g>
<!-- Node25&#45;&gt;Node22 -->
<g id="edge34" class="edge"><title>Node25&#45;&gt;Node22</title>
<path fill="none" stroke="midnightblue" d="M1233.87,-190.444C1201.72,-181.159 1150.27,-166.302 1115.01,-156.12"/>
<polygon fill="midnightblue" stroke="midnightblue" points="1115.65,-152.663 1105.07,-153.251 1113.71,-159.388 1115.65,-152.663"/>
</g>
<!-- Node26 -->
<g id="node27" class="node"><title>Node26</title>
<polygon fill="none" stroke="#bfbfbf" points="1199.5,-134.5 1199.5,-153.5 1251.5,-153.5 1251.5,-134.5 1199.5,-134.5"/>
<text text-anchor="middle" x="1225.5" y="-141.5" font-family="Helvetica,sans-Serif" font-size="10.00">iterator</text>
</g>
<!-- Node25&#45;&gt;Node26 -->
<g id="edge33" class="edge"><title>Node25&#45;&gt;Node26</title>
<path fill="none" stroke="midnightblue" d="M1257.23,-190.083C1251.86,-182.455 1243.98,-171.264 1237.42,-161.941"/>
<polygon fill="midnightblue" stroke="midnightblue" points="1240.28,-159.915 1231.66,-153.751 1234.55,-163.943 1240.28,-159.915"/>
</g>
<!-- Node27 -->
<g id="node28" class="node"><title>Node27</title>
<polygon fill="none" stroke="#bfbfbf" points="1270,-134.5 1270,-153.5 1333,-153.5 1333,-134.5 1270,-134.5"/>
<text text-anchor="middle" x="1301.5" y="-141.5" font-family="Helvetica,sans-Serif" font-size="10.00">typeindex</text>
</g>
<!-- Node25&#45;&gt;Node27 -->
<g id="edge35" class="edge"><title>Node25&#45;&gt;Node27</title>
<path fill="none" stroke="midnightblue" d="M1269.77,-190.083C1275.14,-182.455 1283.02,-171.264 1289.58,-161.941"/>
<polygon fill="midnightblue" stroke="midnightblue" points="1292.45,-163.943 1295.34,-153.751 1286.72,-159.915 1292.45,-163.943"/>
</g>
<!-- Node28 -->
<g id="node29" class="node"><title>Node28</title>
<polygon fill="none" stroke="#bfbfbf" points="1351,-134.5 1351,-153.5 1406,-153.5 1406,-134.5 1351,-134.5"/>
<text text-anchor="middle" x="1378.5" y="-141.5" font-family="Helvetica,sans-Serif" font-size="10.00">typeinfo</text>
</g>
<!-- Node25&#45;&gt;Node28 -->
<g id="edge36" class="edge"><title>Node25&#45;&gt;Node28</title>
<path fill="none" stroke="midnightblue" d="M1281.72,-190.444C1300.4,-181.675 1329.66,-167.935 1351.12,-157.858"/>
<polygon fill="midnightblue" stroke="midnightblue" points="1352.8,-160.935 1360.36,-153.516 1349.82,-154.599 1352.8,-160.935"/>
</g>
<!-- Node29 -->
<g id="node30" class="node"><title>Node29</title>
<polygon fill="none" stroke="#bfbfbf" points="1424,-134.5 1424,-153.5 1517,-153.5 1517,-134.5 1424,-134.5"/>
<text text-anchor="middle" x="1470.5" y="-141.5" font-family="Helvetica,sans-Serif" font-size="10.00">unordered_map</text>
</g>
<!-- Node25&#45;&gt;Node29 -->
<g id="edge37" class="edge"><title>Node25&#45;&gt;Node29</title>
<path fill="none" stroke="midnightblue" d="M1296.3,-190.444C1331.88,-181.162 1388.81,-166.309 1427.85,-156.127"/>
<polygon fill="midnightblue" stroke="midnightblue" points="1429.06,-159.427 1437.85,-153.516 1427.29,-152.654 1429.06,-159.427"/>
</g>
<!-- Node31 -->
<g id="node32" class="node"><title>Node31</title>
<polygon fill="none" stroke="#bfbfbf" points="1733.5,-134.5 1733.5,-153.5 1795.5,-153.5 1795.5,-134.5 1733.5,-134.5"/>
<text text-anchor="middle" x="1764.5" y="-141.5" font-family="Helvetica,sans-Serif" font-size="10.00">algorithm</text>
</g>
<!-- Node30&#45;&gt;Node31 -->
<g id="edge42" class="edge"><title>Node30&#45;&gt;Node31</title>
<path fill="none" stroke="midnightblue" d="M1630.33,-191.148C1656.46,-182.16 1699.55,-167.339 1729.83,-156.924"/>
<polygon fill="midnightblue" stroke="midnightblue" points="1731.25,-160.138 1739.57,-153.576 1728.97,-153.518 1731.25,-160.138"/>
</g>
<!-- Node32 -->
<g id="node33" class="node"><title>Node32</title>
<polygon fill="none" stroke="#bfbfbf" points="1814,-134.5 1814,-153.5 1871,-153.5 1871,-134.5 1814,-134.5"/>
<text text-anchor="middle" x="1842.5" y="-141.5" font-family="Helvetica,sans-Serif" font-size="10.00">complex</text>
</g>
<!-- Node30&#45;&gt;Node32 -->
<g id="edge43" class="edge"><title>Node30&#45;&gt;Node32</title>
<path fill="none" stroke="midnightblue" d="M1630.14,-192.232C1632.95,-191.451 1635.78,-190.688 1638.5,-190 1708.68,-172.225 1729.21,-170.793 1803.98,-154.072"/>
<polygon fill="midnightblue" stroke="midnightblue" points="1804.89,-157.454 1813.88,-151.84 1803.35,-150.625 1804.89,-157.454"/>
</g>
<!-- Node33 -->
<g id="node34" class="node"><title>Node33</title>
<polygon fill="none" stroke="#bfbfbf" points="1889,-134.5 1889,-153.5 1952,-153.5 1952,-134.5 1889,-134.5"/>
<text text-anchor="middle" x="1920.5" y="-141.5" font-family="Helvetica,sans-Serif" font-size="10.00">functional</text>
</g>
<!-- Node30&#45;&gt;Node33 -->
<g id="edge44" class="edge"><title>Node30&#45;&gt;Node33</title>
<path fill="none" stroke="midnightblue" d="M1630.1,-192.059C1632.91,-191.307 1635.76,-190.599 1638.5,-190 1741.2,-167.529 1771.25,-173.25 1878.8,-154.003"/>
<polygon fill="midnightblue" stroke="midnightblue" points="1879.55,-157.425 1888.76,-152.19 1878.29,-150.538 1879.55,-157.425"/>
</g>
<!-- Node34 -->
<g id="node35" class="node"><title>Node34</title>
<polygon fill="none" stroke="#bfbfbf" points="1970.5,-134.5 1970.5,-153.5 2024.5,-153.5 2024.5,-134.5 1970.5,-134.5"/>
<text text-anchor="middle" x="1997.5" y="-141.5" font-family="Helvetica,sans-Serif" font-size="10.00">random</text>
</g>
<!-- Node30&#45;&gt;Node34 -->
<g id="edge45" class="edge"><title>Node30&#45;&gt;Node34</title>
<path fill="none" stroke="midnightblue" d="M1630.08,-191.961C1632.9,-191.226 1635.75,-190.548 1638.5,-190 1776.55,-162.455 1816.89,-178.317 1960.07,-153.828"/>
<polygon fill="midnightblue" stroke="midnightblue" points="1960.85,-157.244 1970.1,-152.075 1959.65,-150.349 1960.85,-157.244"/>
</g>
<!-- Node35 -->
<g id="node36" class="node"><title>Node35</title>
<polygon fill="none" stroke="#bfbfbf" points="1573.5,-134.5 1573.5,-153.5 1641.5,-153.5 1641.5,-134.5 1573.5,-134.5"/>
<text text-anchor="middle" x="1607.5" y="-141.5" font-family="Helvetica,sans-Serif" font-size="10.00">type_traits</text>
</g>
<!-- Node30&#45;&gt;Node35 -->
<g id="edge46" class="edge"><title>Node30&#45;&gt;Node35</title>
<path fill="none" stroke="midnightblue" d="M1607.5,-190.083C1607.5,-183.006 1607.5,-172.861 1607.5,-163.986"/>
<polygon fill="midnightblue" stroke="midnightblue" points="1611,-163.751 1607.5,-153.751 1604,-163.751 1611,-163.751"/>
</g>
<!-- Node36 -->
<g id="node37" class="node"><title>Node36</title>
<polygon fill="none" stroke="#bfbfbf" points="1660,-134.5 1660,-153.5 1715,-153.5 1715,-134.5 1660,-134.5"/>
<text text-anchor="middle" x="1687.5" y="-141.5" font-family="Helvetica,sans-Serif" font-size="10.00">unistd.h</text>
</g>
<!-- Node30&#45;&gt;Node36 -->
<g id="edge47" class="edge"><title>Node30&#45;&gt;Node36</title>
<path fill="none" stroke="midnightblue" d="M1620.35,-190.324C1632.72,-181.979 1651.63,-169.212 1666.24,-159.352"/>
<polygon fill="midnightblue" stroke="midnightblue" points="1668.35,-162.15 1674.68,-153.655 1664.43,-156.348 1668.35,-162.15"/>
</g>
</g>
</svg>
