<?xml version="1.0" encoding="UTF-8" standalone="no"?>
<!DOCTYPE svg PUBLIC "-//W3C//DTD SVG 1.1//EN"
 "http://www.w3.org/Graphics/SVG/1.1/DTD/svg11.dtd">
<!-- Generated by graphviz version 2.38.0 (20140413.2041)
 -->
<!-- Title: /travis/pairinteraction/Hamiltonian.h Pages: 1 -->
<!--zoomable 341 -->
<svg id="main" version="1.1" xmlns="http://www.w3.org/2000/svg" xmlns:xlink="http://www.w3.org/1999/xlink" xml:space="preserve" onload="init(evt)">
<style type="text/css"><![CDATA[
.edge:hover path { stroke: red; }
.edge:hover polygon { stroke: red; fill: red; }
]]></style>
<script type="text/javascript"><![CDATA[
var edges = document.getElementsByTagName('g');
if (edges && edges.length) {
  for (var i=0;i<edges.length;i++) {
    if (edges[i].id.substr(0,4)=='edge') {
      edges[i].setAttribute('class','edge');
    }
  }
}
]]></script>
        <defs>
                <circle id="rim" cx="0" cy="0" r="7"/>
                <circle id="rim2" cx="0" cy="0" r="3.5"/>
                <g id="zoomPlus">
                        <use xlink:href="#rim" fill="#404040">
                                <set attributeName="fill" to="#808080" begin="zoomplus.mouseover" end="zoomplus.mouseout"/>
                        </use>
                        <path d="M-4,0h8M0,-4v8" fill="none" stroke="white" stroke-width="1.5" pointer-events="none"/>
                </g>
                <g id="zoomMin">
                        <use xlink:href="#rim" fill="#404040">
                                <set attributeName="fill" to="#808080" begin="zoomminus.mouseover" end="zoomminus.mouseout"/>
                        </use>
                        <path d="M-4,0h8" fill="none" stroke="white" stroke-width="1.5" pointer-events="none"/>
                </g>
                <g id="dirArrow">
                        <path fill="none" stroke="white" stroke-width="1.5" d="M0,-3.0v7 M-2.5,-0.5L0,-3.0L2.5,-0.5"/>
                </g>
               <g id="resetDef">
                       <use xlink:href="#rim2" fill="#404040">
                               <set attributeName="fill" to="#808080" begin="reset.mouseover" end="reset.mouseout"/>
                       </use>
               </g>
        </defs>

<script type="text/javascript">
var viewWidth = 1915;
var viewHeight = 341;
var sectionId = 'dynsection-0';
</script>
<script xlink:href="svgpan.js"/>
<svg id="graph" class="graph">
<g id="viewport">
<title>/travis/pairinteraction/Hamiltonian.h</title>
<!-- Node0 -->
<g id="node1" class="node"><title>Node0</title>
<polygon fill="#bfbfbf" stroke="black" points="1456.51,-302.5 1456.51,-332.5 1574.51,-332.5 1574.51,-302.5 1456.51,-302.5"/>
<text text-anchor="start" x="1464.51" y="-320.5" font-family="Helvetica,sans-Serif" font-size="10.00">/travis/pairinteraction</text>
<text text-anchor="middle" x="1515.51" y="-309.5" font-family="Helvetica,sans-Serif" font-size="10.00">/Hamiltonian.h</text>
</g>
<!-- Node1 -->
<g id="node2" class="node"><title>Node1</title>
<g id="a_node2"><a xlink:href="Hamiltonianmatrix_8h.html" target="_top" xlink:title="Hamiltonianmatrix.h">
<polygon fill="none" stroke="black" points="1067.51,-246.5 1067.51,-265.5 1181.51,-265.5 1181.51,-246.5 1067.51,-246.5"/>
<text text-anchor="middle" x="1124.51" y="-253.5" font-family="Helvetica,sans-Serif" font-size="10.00">Hamiltonianmatrix.h</text>
</a>
</g>
</g>
<!-- Node0&#45;&gt;Node1 -->
<g id="edge1" class="edge"><title>Node0&#45;&gt;Node1</title>
<path fill="none" stroke="midnightblue" d="M1456.13,-307.463C1384.72,-296.596 1265.2,-278.408 1190.83,-267.092"/>
<polygon fill="midnightblue" stroke="midnightblue" points="1191.06,-263.586 1180.64,-265.542 1190,-270.506 1191.06,-263.586"/>
</g>
<!-- Node16 -->
<g id="node17" class="node"><title>Node16</title>
<polygon fill="none" stroke="#bfbfbf" points="1338.01,-6 1338.01,-25 1385.01,-25 1385.01,-6 1338.01,-6"/>
<text text-anchor="middle" x="1361.51" y="-13" font-family="Helvetica,sans-Serif" font-size="10.00">vector</text>
</g>
<!-- Node0&#45;&gt;Node16 -->
<g id="edge56" class="edge"><title>Node0&#45;&gt;Node16</title>
<path fill="none" stroke="midnightblue" d="M1574.9,-311.368C1684.28,-300.266 1906.51,-269.304 1906.51,-201 1906.51,-201 1906.51,-201 1906.51,-143 1906.51,-37.5156 1514.22,-19.9646 1395.28,-17.0675"/>
<polygon fill="midnightblue" stroke="midnightblue" points="1395.36,-13.5683 1385.28,-16.8432 1395.2,-20.5666 1395.36,-13.5683"/>
</g>
<!-- Node2 -->
<g id="node3" class="node"><title>Node2</title>
<g id="a_node3"><a xlink:href="Basisnames_8h.html" target="_top" xlink:title="Basisnames.h">
<polygon fill="none" stroke="black" points="620.513,-190.5 620.513,-209.5 704.513,-209.5 704.513,-190.5 620.513,-190.5"/>
<text text-anchor="middle" x="662.513" y="-197.5" font-family="Helvetica,sans-Serif" font-size="10.00">Basisnames.h</text>
</a>
</g>
</g>
<!-- Node1&#45;&gt;Node2 -->
<g id="edge2" class="edge"><title>Node1&#45;&gt;Node2</title>
<path fill="none" stroke="midnightblue" d="M1067.4,-248.324C976.947,-237.752 802.064,-217.311 714.754,-207.106"/>
<polygon fill="midnightblue" stroke="midnightblue" points="715.145,-203.628 704.806,-205.943 714.332,-210.581 715.145,-203.628"/>
</g>
<!-- Node9 -->
<g id="node10" class="node"><title>Node9</title>
<g id="a_node10"><a xlink:href="StateOld_8h.html" target="_top" xlink:title="StateOld.h">
<polygon fill="none" stroke="black" points="701.513,-134.5 701.513,-153.5 769.513,-153.5 769.513,-134.5 701.513,-134.5"/>
<text text-anchor="middle" x="735.513" y="-141.5" font-family="Helvetica,sans-Serif" font-size="10.00">StateOld.h</text>
</a>
</g>
</g>
<!-- Node1&#45;&gt;Node9 -->
<g id="edge40" class="edge"><title>Node1&#45;&gt;Node9</title>
<path fill="none" stroke="midnightblue" d="M1067.42,-250.527C1012.87,-245.046 928.931,-233.43 859.513,-210 821.697,-197.237 781.377,-174.104 757.323,-159.156"/>
<polygon fill="midnightblue" stroke="midnightblue" points="758.973,-156.058 748.648,-153.679 755.236,-161.977 758.973,-156.058"/>
</g>
<!-- Node10 -->
<g id="node11" class="node"><title>Node10</title>
<g id="a_node11"><a xlink:href="dtypes_8h.html" target="_top" xlink:title="dtypes.h">
<polygon fill="none" stroke="black" points="1023.51,-73 1023.51,-92 1081.51,-92 1081.51,-73 1023.51,-73"/>
<text text-anchor="middle" x="1052.51" y="-80" font-family="Helvetica,sans-Serif" font-size="10.00">dtypes.h</text>
</a>
</g>
</g>
<!-- Node1&#45;&gt;Node10 -->
<g id="edge41" class="edge"><title>Node1&#45;&gt;Node10</title>
<path fill="none" stroke="midnightblue" d="M1067.26,-250.041C1009.47,-241.457 924.348,-218.015 892.513,-154 856.598,-81.7816 957.285,-117.329 1014.51,-98 1016.77,-97.2374 1019.09,-96.4238 1021.43,-95.586"/>
<polygon fill="midnightblue" stroke="midnightblue" points="1022.75,-98.8272 1030.92,-92.0737 1020.32,-92.2624 1022.75,-98.8272"/>
</g>
<!-- Node14 -->
<g id="node15" class="node"><title>Node14</title>
<polygon fill="none" stroke="#bfbfbf" points="334.013,-6 334.013,-25 381.013,-25 381.013,-6 334.013,-6"/>
<text text-anchor="middle" x="357.513" y="-13" font-family="Helvetica,sans-Serif" font-size="10.00">cmath</text>
</g>
<!-- Node1&#45;&gt;Node14 -->
<g id="edge49" class="edge"><title>Node1&#45;&gt;Node14</title>
<path fill="none" stroke="midnightblue" d="M1067.47,-251.649C848.482,-238.173 70.6825,-184.469 6.51298,-98 -1.6977,-86.936 -2.50906,-77.413 6.51298,-67 47.3746,-19.8387 243.613,-15.702 323.534,-16.0232"/>
<polygon fill="midnightblue" stroke="midnightblue" points="323.988,-19.5262 334.011,-16.0941 324.035,-12.5264 323.988,-19.5262"/>
</g>
<!-- Node1&#45;&gt;Node16 -->
<g id="edge55" class="edge"><title>Node1&#45;&gt;Node16</title>
<path fill="none" stroke="midnightblue" d="M1181.64,-251.479C1345.33,-240.789 1807,-206.217 1848.51,-154 1907.95,-79.235 1515.09,-32.2802 1395.38,-19.8306"/>
<polygon fill="midnightblue" stroke="midnightblue" points="1395.61,-16.3362 1385.31,-18.7978 1394.9,-23.2997 1395.61,-16.3362"/>
</g>
<!-- Node23 -->
<g id="node24" class="node"><title>Node23</title>
<polygon fill="none" stroke="#bfbfbf" points="902.013,-134.5 902.013,-153.5 959.013,-153.5 959.013,-134.5 902.013,-134.5"/>
<text text-anchor="middle" x="930.513" y="-141.5" font-family="Helvetica,sans-Serif" font-size="10.00">memory</text>
</g>
<!-- Node1&#45;&gt;Node23 -->
<g id="edge53" class="edge"><title>Node1&#45;&gt;Node23</title>
<path fill="none" stroke="midnightblue" d="M1083.58,-246.45C1056.3,-239.497 1020.46,-227.866 992.513,-210 972.491,-197.201 954.339,-176.61 942.923,-162.037"/>
<polygon fill="midnightblue" stroke="midnightblue" points="945.559,-159.721 936.73,-153.865 939.98,-163.949 945.559,-159.721"/>
</g>
<!-- Node26 -->
<g id="node27" class="node"><title>Node26</title>
<g id="a_node27"><a xlink:href="Serializable_8h.html" target="_top" xlink:title="Serializable.h">
<polygon fill="none" stroke="black" points="1001.51,-190.5 1001.51,-209.5 1081.51,-209.5 1081.51,-190.5 1001.51,-190.5"/>
<text text-anchor="middle" x="1041.51" y="-197.5" font-family="Helvetica,sans-Serif" font-size="10.00">Serializable.h</text>
</a>
</g>
</g>
<!-- Node1&#45;&gt;Node26 -->
<g id="edge32" class="edge"><title>Node1&#45;&gt;Node26</title>
<path fill="none" stroke="midnightblue" d="M1111.18,-246.324C1098.35,-237.979 1078.73,-225.212 1063.57,-215.352"/>
<polygon fill="midnightblue" stroke="midnightblue" points="1065.11,-212.174 1054.82,-209.655 1061.29,-218.042 1065.11,-212.174"/>
</g>
<!-- Node31 -->
<g id="node32" class="node"><title>Node31</title>
<g id="a_node32"><a xlink:href="utils_8h.html" target="_top" xlink:title="utils.h">
<polygon fill="none" stroke="black" points="1553.01,-190.5 1553.01,-209.5 1598.01,-209.5 1598.01,-190.5 1553.01,-190.5"/>
<text text-anchor="middle" x="1575.51" y="-197.5" font-family="Helvetica,sans-Serif" font-size="10.00">utils.h</text>
</a>
</g>
</g>
<!-- Node1&#45;&gt;Node31 -->
<g id="edge42" class="edge"><title>Node1&#45;&gt;Node31</title>
<path fill="none" stroke="midnightblue" d="M1181.63,-248.161C1277.16,-236.722 1466.37,-214.068 1542.57,-204.944"/>
<polygon fill="midnightblue" stroke="midnightblue" points="1543.04,-208.413 1552.55,-203.749 1542.21,-201.463 1543.04,-208.413"/>
</g>
<!-- Node38 -->
<g id="node39" class="node"><title>Node38</title>
<polygon fill="none" stroke="#bfbfbf" points="1100.01,-190.5 1100.01,-209.5 1149.01,-209.5 1149.01,-190.5 1100.01,-190.5"/>
<text text-anchor="middle" x="1124.51" y="-197.5" font-family="Helvetica,sans-Serif" font-size="10.00">cstdint</text>
</g>
<!-- Node1&#45;&gt;Node38 -->
<g id="edge50" class="edge"><title>Node1&#45;&gt;Node38</title>
<path fill="none" stroke="midnightblue" d="M1124.51,-246.083C1124.51,-239.006 1124.51,-228.861 1124.51,-219.986"/>
<polygon fill="midnightblue" stroke="midnightblue" points="1128.01,-219.751 1124.51,-209.751 1121.01,-219.751 1128.01,-219.751"/>
</g>
<!-- Node39 -->
<g id="node40" class="node"><title>Node39</title>
<polygon fill="none" stroke="#bfbfbf" points="1167.01,-190.5 1167.01,-209.5 1212.01,-209.5 1212.01,-190.5 1167.01,-190.5"/>
<text text-anchor="middle" x="1189.51" y="-197.5" font-family="Helvetica,sans-Serif" font-size="10.00">cstdio</text>
</g>
<!-- Node1&#45;&gt;Node39 -->
<g id="edge51" class="edge"><title>Node1&#45;&gt;Node39</title>
<path fill="none" stroke="midnightblue" d="M1134.96,-246.324C1144.66,-238.263 1159.33,-226.077 1171.01,-216.369"/>
<polygon fill="midnightblue" stroke="midnightblue" points="1173.42,-218.916 1178.88,-209.834 1168.95,-213.532 1173.42,-218.916"/>
</g>
<!-- Node40 -->
<g id="node41" class="node"><title>Node40</title>
<polygon fill="none" stroke="#bfbfbf" points="1230.01,-190.5 1230.01,-209.5 1293.01,-209.5 1293.01,-190.5 1230.01,-190.5"/>
<text text-anchor="middle" x="1261.51" y="-197.5" font-family="Helvetica,sans-Serif" font-size="10.00">exception</text>
</g>
<!-- Node1&#45;&gt;Node40 -->
<g id="edge52" class="edge"><title>Node1&#45;&gt;Node40</title>
<path fill="none" stroke="midnightblue" d="M1146.22,-246.444C1168.87,-237.517 1204.59,-223.439 1230.26,-213.317"/>
<polygon fill="midnightblue" stroke="midnightblue" points="1231.89,-216.44 1239.91,-209.516 1229.32,-209.927 1231.89,-216.44"/>
</g>
<!-- Node41 -->
<g id="node42" class="node"><title>Node41</title>
<polygon fill="none" stroke="#bfbfbf" points="1311.51,-190.5 1311.51,-209.5 1375.51,-209.5 1375.51,-190.5 1311.51,-190.5"/>
<text text-anchor="middle" x="1343.51" y="-197.5" font-family="Helvetica,sans-Serif" font-size="10.00">stdexcept</text>
</g>
<!-- Node1&#45;&gt;Node41 -->
<g id="edge54" class="edge"><title>Node1&#45;&gt;Node41</title>
<path fill="none" stroke="midnightblue" d="M1159.21,-246.444C1197.88,-236.91 1260.37,-221.5 1301.7,-211.31"/>
<polygon fill="midnightblue" stroke="midnightblue" points="1302.6,-214.694 1311.47,-208.902 1300.92,-207.897 1302.6,-214.694"/>
</g>
<!-- Node3 -->
<g id="node4" class="node"><title>Node3</title>
<g id="a_node4"><a xlink:href="ConfParser_8h.html" target="_top" xlink:title="ConfParser.h">
<polygon fill="none" stroke="black" points="200.513,-134.5 200.513,-153.5 278.513,-153.5 278.513,-134.5 200.513,-134.5"/>
<text text-anchor="middle" x="239.513" y="-141.5" font-family="Helvetica,sans-Serif" font-size="10.00">ConfParser.h</text>
</a>
</g>
</g>
<!-- Node2&#45;&gt;Node3 -->
<g id="edge3" class="edge"><title>Node2&#45;&gt;Node3</title>
<path fill="none" stroke="midnightblue" d="M620.408,-193.625C541.671,-183.573 372.543,-161.983 288.703,-151.28"/>
<polygon fill="midnightblue" stroke="midnightblue" points="289.033,-147.793 278.671,-149.999 288.147,-154.737 289.033,-147.793"/>
</g>
<!-- Node6 -->
<g id="node7" class="node"><title>Node6</title>
<polygon fill="none" stroke="#bfbfbf" points="285.513,-73 285.513,-92 329.513,-92 329.513,-73 285.513,-73"/>
<text text-anchor="middle" x="307.513" y="-80" font-family="Helvetica,sans-Serif" font-size="10.00">string</text>
</g>
<!-- Node2&#45;&gt;Node6 -->
<g id="edge29" class="edge"><title>Node2&#45;&gt;Node6</title>
<path fill="none" stroke="midnightblue" d="M620.129,-197.265C568.004,-193.863 477.694,-183.794 406.513,-154 374.443,-140.577 342.645,-115.228 324.053,-98.8656"/>
<polygon fill="midnightblue" stroke="midnightblue" points="326.261,-96.1438 316.487,-92.0551 321.578,-101.347 326.261,-96.1438"/>
</g>
<!-- Node8 -->
<g id="node9" class="node"><title>Node8</title>
<g id="a_node9"><a xlink:href="Iter_8h.html" target="_top" xlink:title="Iter.h">
<polygon fill="none" stroke="black" points="642.013,-134.5 642.013,-153.5 683.013,-153.5 683.013,-134.5 642.013,-134.5"/>
<text text-anchor="middle" x="662.513" y="-141.5" font-family="Helvetica,sans-Serif" font-size="10.00">Iter.h</text>
</a>
</g>
</g>
<!-- Node2&#45;&gt;Node8 -->
<g id="edge8" class="edge"><title>Node2&#45;&gt;Node8</title>
<path fill="none" stroke="midnightblue" d="M662.513,-190.083C662.513,-183.006 662.513,-172.861 662.513,-163.986"/>
<polygon fill="midnightblue" stroke="midnightblue" points="666.013,-163.751 662.513,-153.751 659.013,-163.751 666.013,-163.751"/>
</g>
<!-- Node2&#45;&gt;Node9 -->
<g id="edge9" class="edge"><title>Node2&#45;&gt;Node9</title>
<path fill="none" stroke="midnightblue" d="M674.242,-190.324C685.35,-182.107 702.255,-169.602 715.496,-159.807"/>
<polygon fill="midnightblue" stroke="midnightblue" points="717.613,-162.595 723.571,-153.834 713.45,-156.967 717.613,-162.595"/>
</g>
<!-- Node2&#45;&gt;Node10 -->
<g id="edge25" class="edge"><title>Node2&#45;&gt;Node10</title>
<path fill="none" stroke="midnightblue" d="M685.802,-190.476C709.353,-181.737 746.716,-167.545 778.513,-154 797.904,-145.74 801.44,-140.427 821.513,-134 904.614,-107.391 930.522,-121.65 1014.51,-98 1017.16,-97.2542 1019.88,-96.3995 1022.6,-95.4863"/>
<polygon fill="midnightblue" stroke="midnightblue" points="1024.01,-98.6975 1032.23,-92.0129 1021.64,-92.1125 1024.01,-98.6975"/>
</g>
<!-- Node2&#45;&gt;Node16 -->
<g id="edge31" class="edge"><title>Node2&#45;&gt;Node16</title>
<path fill="none" stroke="midnightblue" d="M691.586,-190.408C744.307,-174.891 853.807,-142.966 892.513,-134 979.648,-113.815 1003.55,-118.913 1090.51,-98 1177.21,-77.1514 1277.19,-44.8999 1328.04,-27.8934"/>
<polygon fill="midnightblue" stroke="midnightblue" points="1329.47,-31.1068 1337.83,-24.6042 1327.24,-24.4713 1329.47,-31.1068"/>
</g>
<!-- Node22 -->
<g id="node23" class="node"><title>Node22</title>
<polygon fill="none" stroke="#bfbfbf" points="415.513,-134.5 415.513,-153.5 469.513,-153.5 469.513,-134.5 415.513,-134.5"/>
<text text-anchor="middle" x="442.513" y="-141.5" font-family="Helvetica,sans-Serif" font-size="10.00">fstream</text>
</g>
<!-- Node2&#45;&gt;Node22 -->
<g id="edge26" class="edge"><title>Node2&#45;&gt;Node22</title>
<path fill="none" stroke="midnightblue" d="M627.226,-190.427C592.202,-181.905 536.718,-168.371 479.568,-154.252"/>
<polygon fill="midnightblue" stroke="midnightblue" points="480.184,-150.799 469.636,-151.797 478.504,-157.594 480.184,-150.799"/>
</g>
<!-- Node2&#45;&gt;Node23 -->
<g id="edge27" class="edge"><title>Node2&#45;&gt;Node23</title>
<path fill="none" stroke="midnightblue" d="M704.683,-190.503C756.014,-180.16 841.987,-162.837 891.734,-152.814"/>
<polygon fill="midnightblue" stroke="midnightblue" points="892.663,-156.197 901.774,-150.791 891.28,-149.335 892.663,-156.197"/>
</g>
<!-- Node24 -->
<g id="node25" class="node"><title>Node24</title>
<polygon fill="none" stroke="#bfbfbf" points="487.513,-134.5 487.513,-153.5 519.513,-153.5 519.513,-134.5 487.513,-134.5"/>
<text text-anchor="middle" x="503.513" y="-141.5" font-family="Helvetica,sans-Serif" font-size="10.00">set</text>
</g>
<!-- Node2&#45;&gt;Node24 -->
<g id="edge28" class="edge"><title>Node2&#45;&gt;Node24</title>
<path fill="none" stroke="midnightblue" d="M636.518,-190.454C611.327,-182.133 571.821,-168.978 529.087,-154.151"/>
<polygon fill="midnightblue" stroke="midnightblue" points="530.228,-150.842 519.633,-150.861 527.927,-157.453 530.228,-150.842"/>
</g>
<!-- Node25 -->
<g id="node26" class="node"><title>Node25</title>
<polygon fill="none" stroke="#bfbfbf" points="537.513,-134.5 537.513,-153.5 623.513,-153.5 623.513,-134.5 537.513,-134.5"/>
<text text-anchor="middle" x="580.513" y="-141.5" font-family="Helvetica,sans-Serif" font-size="10.00">unordered_set</text>
</g>
<!-- Node2&#45;&gt;Node25 -->
<g id="edge30" class="edge"><title>Node2&#45;&gt;Node25</title>
<path fill="none" stroke="midnightblue" d="M649.338,-190.324C636.666,-181.979 617.28,-169.212 602.307,-159.352"/>
<polygon fill="midnightblue" stroke="midnightblue" points="603.932,-156.231 593.655,-153.655 600.082,-162.078 603.932,-156.231"/>
</g>
<!-- Node4 -->
<g id="node5" class="node"><title>Node4</title>
<polygon fill="none" stroke="#bfbfbf" points="155.513,-73 155.513,-92 193.513,-92 193.513,-73 155.513,-73"/>
<text text-anchor="middle" x="174.513" y="-80" font-family="Helvetica,sans-Serif" font-size="10.00">map</text>
</g>
<!-- Node3&#45;&gt;Node4 -->
<g id="edge4" class="edge"><title>Node3&#45;&gt;Node4</title>
<path fill="none" stroke="midnightblue" d="M230.2,-134.475C220.064,-125.197 203.649,-110.171 191.261,-98.831"/>
<polygon fill="midnightblue" stroke="midnightblue" points="193.548,-96.1795 183.809,-92.0091 188.822,-101.343 193.548,-96.1795"/>
</g>
<!-- Node5 -->
<g id="node6" class="node"><title>Node5</title>
<polygon fill="none" stroke="#bfbfbf" points="211.513,-73 211.513,-92 267.513,-92 267.513,-73 211.513,-73"/>
<text text-anchor="middle" x="239.513" y="-80" font-family="Helvetica,sans-Serif" font-size="10.00">sstream</text>
</g>
<!-- Node3&#45;&gt;Node5 -->
<g id="edge5" class="edge"><title>Node3&#45;&gt;Node5</title>
<path fill="none" stroke="midnightblue" d="M239.513,-134.475C239.513,-126.08 239.513,-112.981 239.513,-102.163"/>
<polygon fill="midnightblue" stroke="midnightblue" points="243.013,-102.009 239.513,-92.0091 236.013,-102.009 243.013,-102.009"/>
</g>
<!-- Node3&#45;&gt;Node6 -->
<g id="edge6" class="edge"><title>Node3&#45;&gt;Node6</title>
<path fill="none" stroke="midnightblue" d="M249.256,-134.475C259.86,-125.197 277.032,-110.171 289.992,-98.831"/>
<polygon fill="midnightblue" stroke="midnightblue" points="292.567,-101.228 297.788,-92.0091 287.958,-95.9601 292.567,-101.228"/>
</g>
<!-- Node7 -->
<g id="node8" class="node"><title>Node7</title>
<polygon fill="none" stroke="#bfbfbf" points="15.513,-73 15.513,-92 137.513,-92 137.513,-73 15.513,-73"/>
<text text-anchor="middle" x="76.513" y="-80" font-family="Helvetica,sans-Serif" font-size="10.00">boost/lexical_cast.hpp</text>
</g>
<!-- Node3&#45;&gt;Node7 -->
<g id="edge7" class="edge"><title>Node3&#45;&gt;Node7</title>
<path fill="none" stroke="midnightblue" d="M216.159,-134.475C188.199,-124.269 141.187,-107.108 109.522,-95.5492"/>
<polygon fill="midnightblue" stroke="midnightblue" points="110.417,-92.1503 99.8236,-92.0091 108.017,-98.7259 110.417,-92.1503"/>
</g>
<!-- Node9&#45;&gt;Node6 -->
<g id="edge21" class="edge"><title>Node9&#45;&gt;Node6</title>
<path fill="none" stroke="midnightblue" d="M701.463,-135.69C698.109,-135.074 694.75,-134.497 691.513,-134 537.824,-110.391 494.437,-135.412 343.513,-98 340.846,-97.3389 338.115,-96.5204 335.408,-95.6115"/>
<polygon fill="midnightblue" stroke="midnightblue" points="336.461,-92.2685 325.868,-92.0432 334.008,-98.8248 336.461,-92.2685"/>
</g>
<!-- Node9&#45;&gt;Node10 -->
<g id="edge10" class="edge"><title>Node9&#45;&gt;Node10</title>
<path fill="none" stroke="midnightblue" d="M769.578,-136.479C774.256,-135.623 779.001,-134.774 783.513,-134 885.922,-116.424 914.088,-124.668 1014.51,-98 1017.17,-97.2938 1019.9,-96.4666 1022.62,-95.5716"/>
<polygon fill="midnightblue" stroke="midnightblue" points="1024.02,-98.7879 1032.26,-92.1284 1021.67,-92.1957 1024.02,-98.7879"/>
</g>
<!-- Node13 -->
<g id="node14" class="node"><title>Node13</title>
<polygon fill="none" stroke="#bfbfbf" points="597.013,-6 597.013,-25 638.013,-25 638.013,-6 597.013,-6"/>
<text text-anchor="middle" x="617.513" y="-13" font-family="Helvetica,sans-Serif" font-size="10.00">array</text>
</g>
<!-- Node9&#45;&gt;Node13 -->
<g id="edge17" class="edge"><title>Node9&#45;&gt;Node13</title>
<path fill="none" stroke="midnightblue" d="M701.449,-135.778C698.097,-135.144 694.743,-134.54 691.513,-134 630.288,-123.774 455.479,-144.635 414.513,-98 364.076,-40.5837 518.369,-23.0745 586.692,-18.2107"/>
<polygon fill="midnightblue" stroke="midnightblue" points="587.129,-21.6895 596.875,-17.5345 586.665,-14.7049 587.129,-21.6895"/>
</g>
<!-- Node9&#45;&gt;Node14 -->
<g id="edge19" class="edge"><title>Node9&#45;&gt;Node14</title>
<path fill="none" stroke="midnightblue" d="M701.452,-135.759C698.1,-135.129 694.745,-134.53 691.513,-134 627.431,-123.485 455.123,-134.648 401.513,-98 379.773,-83.1389 367.842,-53.9382 362.066,-34.8265"/>
<polygon fill="midnightblue" stroke="midnightblue" points="365.435,-33.8766 359.408,-25.1629 358.685,-35.7331 365.435,-33.8766"/>
</g>
<!-- Node17 -->
<g id="node18" class="node"><title>Node17</title>
<polygon fill="none" stroke="#bfbfbf" points="665.513,-73 665.513,-92 805.513,-92 805.513,-73 665.513,-73"/>
<text text-anchor="middle" x="735.513" y="-80" font-family="Helvetica,sans-Serif" font-size="10.00">boost/functional/hash.hpp</text>
</g>
<!-- Node9&#45;&gt;Node17 -->
<g id="edge18" class="edge"><title>Node9&#45;&gt;Node17</title>
<path fill="none" stroke="midnightblue" d="M735.513,-134.475C735.513,-126.08 735.513,-112.981 735.513,-102.163"/>
<polygon fill="midnightblue" stroke="midnightblue" points="739.013,-102.009 735.513,-92.0091 732.013,-102.009 739.013,-102.009"/>
</g>
<!-- Node18 -->
<g id="node19" class="node"><title>Node18</title>
<polygon fill="none" stroke="#bfbfbf" points="824.013,-73 824.013,-92 883.013,-92 883.013,-73 824.013,-73"/>
<text text-anchor="middle" x="853.513" y="-80" font-family="Helvetica,sans-Serif" font-size="10.00">iostream</text>
</g>
<!-- Node9&#45;&gt;Node18 -->
<g id="edge20" class="edge"><title>Node9&#45;&gt;Node18</title>
<path fill="none" stroke="midnightblue" d="M752.419,-134.475C772.047,-124.578 804.644,-108.142 827.503,-96.6151"/>
<polygon fill="midnightblue" stroke="midnightblue" points="829.285,-99.6367 836.638,-92.0091 826.133,-93.3863 829.285,-99.6367"/>
</g>
<!-- Node19 -->
<g id="node20" class="node"><title>Node19</title>
<polygon fill="none" stroke="#bfbfbf" points="901.513,-67.5 901.513,-97.5 1005.51,-97.5 1005.51,-67.5 901.513,-67.5"/>
<text text-anchor="start" x="909.513" y="-85.5" font-family="Helvetica,sans-Serif" font-size="10.00">boost/serialization</text>
<text text-anchor="middle" x="953.513" y="-74.5" font-family="Helvetica,sans-Serif" font-size="10.00">/array.hpp</text>
</g>
<!-- Node9&#45;&gt;Node19 -->
<g id="edge22" class="edge"><title>Node9&#45;&gt;Node19</title>
<path fill="none" stroke="midnightblue" d="M766.747,-134.475C799.376,-125.569 851.405,-111.369 892.271,-100.215"/>
<polygon fill="midnightblue" stroke="midnightblue" points="893.409,-103.533 902.135,-97.523 891.566,-96.7796 893.409,-103.533"/>
</g>
<!-- Node20 -->
<g id="node21" class="node"><title>Node20</title>
<polygon fill="none" stroke="#bfbfbf" points="423.513,-67.5 423.513,-97.5 527.513,-97.5 527.513,-67.5 423.513,-67.5"/>
<text text-anchor="start" x="431.513" y="-85.5" font-family="Helvetica,sans-Serif" font-size="10.00">boost/serialization</text>
<text text-anchor="middle" x="475.513" y="-74.5" font-family="Helvetica,sans-Serif" font-size="10.00">/string.hpp</text>
</g>
<!-- Node9&#45;&gt;Node20 -->
<g id="edge23" class="edge"><title>Node9&#45;&gt;Node20</title>
<path fill="none" stroke="midnightblue" d="M701.33,-135.39C663.603,-126.965 600.821,-112.866 537.5,-98.216"/>
<polygon fill="midnightblue" stroke="midnightblue" points="538.28,-94.804 527.748,-95.9562 536.699,-101.623 538.28,-94.804"/>
</g>
<!-- Node21 -->
<g id="node22" class="node"><title>Node21</title>
<polygon fill="none" stroke="#bfbfbf" points="546.013,-73 546.013,-92 647.013,-92 647.013,-73 546.013,-73"/>
<text text-anchor="middle" x="596.513" y="-80" font-family="Helvetica,sans-Serif" font-size="10.00">boost/variant.hpp</text>
</g>
<!-- Node9&#45;&gt;Node21 -->
<g id="edge24" class="edge"><title>Node9&#45;&gt;Node21</title>
<path fill="none" stroke="midnightblue" d="M715.598,-134.475C692.064,-124.401 652.703,-107.553 625.72,-96.0023"/>
<polygon fill="midnightblue" stroke="midnightblue" points="626.962,-92.7267 616.391,-92.0091 624.207,-99.162 626.962,-92.7267"/>
</g>
<!-- Node11 -->
<g id="node12" class="node"><title>Node11</title>
<polygon fill="none" stroke="#bfbfbf" points="1014.01,-6 1014.01,-25 1091.01,-25 1091.01,-6 1014.01,-6"/>
<text text-anchor="middle" x="1052.51" y="-13" font-family="Helvetica,sans-Serif" font-size="10.00">Eigen/Dense</text>
</g>
<!-- Node10&#45;&gt;Node11 -->
<g id="edge11" class="edge"><title>Node10&#45;&gt;Node11</title>
<path fill="none" stroke="midnightblue" d="M1052.51,-72.7338C1052.51,-63.1826 1052.51,-47.6183 1052.51,-35.2829"/>
<polygon fill="midnightblue" stroke="midnightblue" points="1056.01,-35.1273 1052.51,-25.1273 1049.01,-35.1273 1056.01,-35.1273"/>
</g>
<!-- Node12 -->
<g id="node13" class="node"><title>Node12</title>
<polygon fill="none" stroke="#bfbfbf" points="1109.51,-6 1109.51,-25 1189.51,-25 1189.51,-6 1109.51,-6"/>
<text text-anchor="middle" x="1149.51" y="-13" font-family="Helvetica,sans-Serif" font-size="10.00">Eigen/Sparse</text>
</g>
<!-- Node10&#45;&gt;Node12 -->
<g id="edge12" class="edge"><title>Node10&#45;&gt;Node12</title>
<path fill="none" stroke="midnightblue" d="M1065.59,-72.7338C1081.67,-61.9644 1109.15,-43.55 1128.26,-30.7395"/>
<polygon fill="midnightblue" stroke="midnightblue" points="1130.28,-33.6017 1136.64,-25.1273 1126.38,-27.7865 1130.28,-33.6017"/>
</g>
<!-- Node10&#45;&gt;Node13 -->
<g id="edge13" class="edge"><title>Node10&#45;&gt;Node13</title>
<path fill="none" stroke="midnightblue" d="M1032.68,-72.9136C1026.91,-70.6957 1020.54,-68.5104 1014.51,-67 880.766,-33.4855 715.808,-21.5846 648.402,-17.9277"/>
<polygon fill="midnightblue" stroke="midnightblue" points="648.242,-14.4147 638.074,-17.3913 647.879,-21.4053 648.242,-14.4147"/>
</g>
<!-- Node10&#45;&gt;Node14 -->
<g id="edge14" class="edge"><title>Node10&#45;&gt;Node14</title>
<path fill="none" stroke="midnightblue" d="M1033.12,-72.8706C1027.25,-70.5957 1020.71,-68.3907 1014.51,-67 983.841,-60.1212 521.424,-27.821 391.333,-18.8287"/>
<polygon fill="midnightblue" stroke="midnightblue" points="391.384,-15.3239 381.167,-18.1266 390.902,-22.3073 391.384,-15.3239"/>
</g>
<!-- Node15 -->
<g id="node16" class="node"><title>Node15</title>
<polygon fill="none" stroke="#bfbfbf" points="853.013,-0.5 853.013,-30.5 996.013,-30.5 996.013,-0.5 853.013,-0.5"/>
<text text-anchor="start" x="861.013" y="-18.5" font-family="Helvetica,sans-Serif" font-size="10.00">unsupported/Eigen/CXX11</text>
<text text-anchor="middle" x="924.513" y="-7.5" font-family="Helvetica,sans-Serif" font-size="10.00">/Tensor</text>
</g>
<!-- Node10&#45;&gt;Node15 -->
<g id="edge15" class="edge"><title>Node10&#45;&gt;Node15</title>
<path fill="none" stroke="midnightblue" d="M1035.52,-72.8685C1016.7,-63.3145 985.81,-47.6274 961.386,-35.2246"/>
<polygon fill="midnightblue" stroke="midnightblue" points="962.882,-32.0588 952.381,-30.6516 959.712,-38.3001 962.882,-32.0588"/>
</g>
<!-- Node10&#45;&gt;Node16 -->
<g id="edge16" class="edge"><title>Node10&#45;&gt;Node16</title>
<path fill="none" stroke="midnightblue" d="M1075.99,-72.932C1082.28,-70.8165 1089.11,-68.6784 1095.51,-67 1177.86,-45.4077 1276.83,-29.0907 1327.69,-21.3924"/>
<polygon fill="midnightblue" stroke="midnightblue" points="1328.41,-24.8229 1337.79,-19.8817 1327.38,-17.8999 1328.41,-24.8229"/>
</g>
<!-- Node26&#45;&gt;Node10 -->
<g id="edge33" class="edge"><title>Node26&#45;&gt;Node10</title>
<path fill="none" stroke="midnightblue" d="M1031.45,-190.499C1018.41,-178.389 998.276,-155.275 1006.51,-134 1011.92,-120.038 1023.18,-107.564 1033.21,-98.5076"/>
<polygon fill="midnightblue" stroke="midnightblue" points="1035.5,-101.156 1040.85,-92.0134 1030.96,-95.8225 1035.5,-101.156"/>
</g>
<!-- Node26&#45;&gt;Node16 -->
<g id="edge39" class="edge"><title>Node26&#45;&gt;Node16</title>
<path fill="none" stroke="midnightblue" d="M1081.6,-191.505C1084.62,-190.982 1087.61,-190.474 1090.51,-190 1146.12,-180.909 1301.63,-193.805 1341.51,-154 1373.02,-122.559 1369.5,-65.0139 1365.08,-35.3251"/>
<polygon fill="midnightblue" stroke="midnightblue" points="1368.47,-34.3773 1363.35,-25.1009 1361.56,-35.5445 1368.47,-34.3773"/>
</g>
<!-- Node26&#45;&gt;Node23 -->
<g id="edge35" class="edge"><title>Node26&#45;&gt;Node23</title>
<path fill="none" stroke="midnightblue" d="M1023.68,-190.324C1005.8,-181.625 978.038,-168.12 957.467,-158.113"/>
<polygon fill="midnightblue" stroke="midnightblue" points="958.826,-154.882 948.303,-153.655 955.764,-161.177 958.826,-154.882"/>
</g>
<!-- Node27 -->
<g id="node28" class="node"><title>Node27</title>
<polygon fill="none" stroke="#bfbfbf" points="1015.51,-134.5 1015.51,-153.5 1067.51,-153.5 1067.51,-134.5 1015.51,-134.5"/>
<text text-anchor="middle" x="1041.51" y="-141.5" font-family="Helvetica,sans-Serif" font-size="10.00">iterator</text>
</g>
<!-- Node26&#45;&gt;Node27 -->
<g id="edge34" class="edge"><title>Node26&#45;&gt;Node27</title>
<path fill="none" stroke="midnightblue" d="M1041.51,-190.083C1041.51,-183.006 1041.51,-172.861 1041.51,-163.986"/>
<polygon fill="midnightblue" stroke="midnightblue" points="1045.01,-163.751 1041.51,-153.751 1038.01,-163.751 1045.01,-163.751"/>
</g>
<!-- Node28 -->
<g id="node29" class="node"><title>Node28</title>
<polygon fill="none" stroke="#bfbfbf" points="1086.01,-134.5 1086.01,-153.5 1149.01,-153.5 1149.01,-134.5 1086.01,-134.5"/>
<text text-anchor="middle" x="1117.51" y="-141.5" font-family="Helvetica,sans-Serif" font-size="10.00">typeindex</text>
</g>
<!-- Node26&#45;&gt;Node28 -->
<g id="edge36" class="edge"><title>Node26&#45;&gt;Node28</title>
<path fill="none" stroke="midnightblue" d="M1053.72,-190.324C1065.29,-182.107 1082.89,-169.602 1096.67,-159.807"/>
<polygon fill="midnightblue" stroke="midnightblue" points="1098.96,-162.479 1105.08,-153.834 1094.9,-156.773 1098.96,-162.479"/>
</g>
<!-- Node29 -->
<g id="node30" class="node"><title>Node29</title>
<polygon fill="none" stroke="#bfbfbf" points="1167.01,-134.5 1167.01,-153.5 1222.01,-153.5 1222.01,-134.5 1167.01,-134.5"/>
<text text-anchor="middle" x="1194.51" y="-141.5" font-family="Helvetica,sans-Serif" font-size="10.00">typeinfo</text>
</g>
<!-- Node26&#45;&gt;Node29 -->
<g id="edge37" class="edge"><title>Node26&#45;&gt;Node29</title>
<path fill="none" stroke="midnightblue" d="M1065.76,-190.444C1091.38,-181.399 1132,-167.064 1160.75,-156.916"/>
<polygon fill="midnightblue" stroke="midnightblue" points="1162.12,-160.145 1170.38,-153.516 1159.79,-153.544 1162.12,-160.145"/>
</g>
<!-- Node30 -->
<g id="node31" class="node"><title>Node30</title>
<polygon fill="none" stroke="#bfbfbf" points="1240.01,-134.5 1240.01,-153.5 1333.01,-153.5 1333.01,-134.5 1240.01,-134.5"/>
<text text-anchor="middle" x="1286.51" y="-141.5" font-family="Helvetica,sans-Serif" font-size="10.00">unordered_map</text>
</g>
<!-- Node26&#45;&gt;Node30 -->
<g id="edge38" class="edge"><title>Node26&#45;&gt;Node30</title>
<path fill="none" stroke="midnightblue" d="M1080.33,-190.444C1123.07,-181.023 1191.84,-165.866 1238.08,-155.675"/>
<polygon fill="midnightblue" stroke="midnightblue" points="1238.86,-159.087 1247.87,-153.516 1237.35,-152.251 1238.86,-159.087"/>
</g>
<!-- Node32 -->
<g id="node33" class="node"><title>Node32</title>
<polygon fill="none" stroke="#bfbfbf" points="1621.51,-134.5 1621.51,-153.5 1683.51,-153.5 1683.51,-134.5 1621.51,-134.5"/>
<text text-anchor="middle" x="1652.51" y="-141.5" font-family="Helvetica,sans-Serif" font-size="10.00">algorithm</text>
</g>
<!-- Node31&#45;&gt;Node32 -->
<g id="edge43" class="edge"><title>Node31&#45;&gt;Node32</title>
<path fill="none" stroke="midnightblue" d="M1587.88,-190.324C1599.67,-182.058 1617.65,-169.453 1631.65,-159.632"/>
<polygon fill="midnightblue" stroke="midnightblue" points="1633.99,-162.262 1640.17,-153.655 1629.98,-156.531 1633.99,-162.262"/>
</g>
<!-- Node33 -->
<g id="node34" class="node"><title>Node33</title>
<polygon fill="none" stroke="#bfbfbf" points="1702.01,-134.5 1702.01,-153.5 1759.01,-153.5 1759.01,-134.5 1702.01,-134.5"/>
<text text-anchor="middle" x="1730.51" y="-141.5" font-family="Helvetica,sans-Serif" font-size="10.00">complex</text>
</g>
<!-- Node31&#45;&gt;Node33 -->
<g id="edge44" class="edge"><title>Node31&#45;&gt;Node33</title>
<path fill="none" stroke="midnightblue" d="M1598.05,-191.148C1623.85,-182.16 1666.39,-167.339 1696.29,-156.924"/>
<polygon fill="midnightblue" stroke="midnightblue" points="1697.61,-160.171 1705.9,-153.576 1695.3,-153.56 1697.61,-160.171"/>
</g>
<!-- Node34 -->
<g id="node35" class="node"><title>Node34</title>
<polygon fill="none" stroke="#bfbfbf" points="1777.01,-134.5 1777.01,-153.5 1840.01,-153.5 1840.01,-134.5 1777.01,-134.5"/>
<text text-anchor="middle" x="1808.51" y="-141.5" font-family="Helvetica,sans-Serif" font-size="10.00">functional</text>
</g>
<!-- Node31&#45;&gt;Node34 -->
<g id="edge45" class="edge"><title>Node31&#45;&gt;Node34</title>
<path fill="none" stroke="midnightblue" d="M1598.28,-193.724C1637.3,-184.681 1717.5,-166.092 1766.79,-154.67"/>
<polygon fill="midnightblue" stroke="midnightblue" points="1767.86,-158.015 1776.81,-152.347 1766.28,-151.196 1767.86,-158.015"/>
</g>
<!-- Node35 -->
<g id="node36" class="node"><title>Node35</title>
<polygon fill="none" stroke="#bfbfbf" points="1389.51,-134.5 1389.51,-153.5 1443.51,-153.5 1443.51,-134.5 1389.51,-134.5"/>
<text text-anchor="middle" x="1416.51" y="-141.5" font-family="Helvetica,sans-Serif" font-size="10.00">random</text>
</g>
<!-- Node31&#45;&gt;Node35 -->
<g id="edge46" class="edge"><title>Node31&#45;&gt;Node35</title>
<path fill="none" stroke="midnightblue" d="M1552.73,-191.263C1526.16,-182.237 1481.93,-167.218 1451.11,-156.75"/>
<polygon fill="midnightblue" stroke="midnightblue" points="1452.21,-153.426 1441.61,-153.524 1449.96,-160.054 1452.21,-153.426"/>
</g>
<!-- Node36 -->
<g id="node37" class="node"><title>Node36</title>
<polygon fill="none" stroke="#bfbfbf" points="1461.51,-134.5 1461.51,-153.5 1529.51,-153.5 1529.51,-134.5 1461.51,-134.5"/>
<text text-anchor="middle" x="1495.51" y="-141.5" font-family="Helvetica,sans-Serif" font-size="10.00">type_traits</text>
</g>
<!-- Node31&#45;&gt;Node36 -->
<g id="edge47" class="edge"><title>Node31&#45;&gt;Node36</title>
<path fill="none" stroke="midnightblue" d="M1562.66,-190.324C1550.3,-181.979 1531.38,-169.212 1516.78,-159.352"/>
<polygon fill="midnightblue" stroke="midnightblue" points="1518.58,-156.348 1508.33,-153.655 1514.66,-162.15 1518.58,-156.348"/>
</g>
<!-- Node37 -->
<g id="node38" class="node"><title>Node37</title>
<polygon fill="none" stroke="#bfbfbf" points="1548.01,-134.5 1548.01,-153.5 1603.01,-153.5 1603.01,-134.5 1548.01,-134.5"/>
<text text-anchor="middle" x="1575.51" y="-141.5" font-family="Helvetica,sans-Serif" font-size="10.00">unistd.h</text>
</g>
<!-- Node31&#45;&gt;Node37 -->
<g id="edge48" class="edge"><title>Node31&#45;&gt;Node37</title>
<path fill="none" stroke="midnightblue" d="M1575.51,-190.083C1575.51,-183.006 1575.51,-172.861 1575.51,-163.986"/>
<polygon fill="midnightblue" stroke="midnightblue" points="1579.01,-163.751 1575.51,-153.751 1572.01,-163.751 1579.01,-163.751"/>
</g>
</g>
</svg>
        <g id="navigator" transform="translate(0 0)" fill="#404254">
                <rect fill="#f2f5e9" fill-opacity="0.5" stroke="#606060" stroke-width=".5" x="0" y="0" width="60" height="60"/>
                <use id="zoomplus" xlink:href="#zoomPlus" x="17" y="9" onmousedown="handleZoom(evt,'in')"/>
                <use id="zoomminus" xlink:href="#zoomMin" x="42" y="9" onmousedown="handleZoom(evt,'out')"/>
                <use id="reset" xlink:href="#resetDef" x="30" y="36" onmousedown="handleReset()"/>
                <g id="arrowUp" xlink:href="#dirArrow" transform="translate(30 24)" onmousedown="handlePan(0,-1)">
                  <use xlink:href="#rim" fill="#404040">
                        <set attributeName="fill" to="#808080" begin="arrowUp.mouseover" end="arrowUp.mouseout"/>
                  </use>
                  <path fill="none" stroke="white" stroke-width="1.5" d="M0,-3.0v7 M-2.5,-0.5L0,-3.0L2.5,-0.5"/>
                </g>
                <g id="arrowRight" xlink:href="#dirArrow" transform="rotate(90) translate(36 -43)" onmousedown="handlePan(1,0)">
                  <use xlink:href="#rim" fill="#404040">
                        <set attributeName="fill" to="#808080" begin="arrowRight.mouseover" end="arrowRight.mouseout"/>
                  </use>
                  <path fill="none" stroke="white" stroke-width="1.5" d="M0,-3.0v7 M-2.5,-0.5L0,-3.0L2.5,-0.5"/>
                </g>
                <g id="arrowDown" xlink:href="#dirArrow" transform="rotate(180) translate(-30 -48)" onmousedown="handlePan(0,1)">
                  <use xlink:href="#rim" fill="#404040">
                        <set attributeName="fill" to="#808080" begin="arrowDown.mouseover" end="arrowDown.mouseout"/>
                  </use>
                  <path fill="none" stroke="white" stroke-width="1.5" d="M0,-3.0v7 M-2.5,-0.5L0,-3.0L2.5,-0.5"/>
                </g>
                <g id="arrowLeft" xlink:href="#dirArrow" transform="rotate(270) translate(-36 17)" onmousedown="handlePan(-1,0)">
                  <use xlink:href="#rim" fill="#404040">
                        <set attributeName="fill" to="#808080" begin="arrowLeft.mouseover" end="arrowLeft.mouseout"/>
                  </use>
                  <path fill="none" stroke="white" stroke-width="1.5" d="M0,-3.0v7 M-2.5,-0.5L0,-3.0L2.5,-0.5"/>
                </g>
        </g>
        <svg viewBox="0 0 15 15" width="100%" height="30px" preserveAspectRatio="xMaxYMin meet">
         <g id="arrow_out" transform="scale(0.3 0.3)">
          <a xlink:href="Hamiltonian_8h__incl_org.svg" target="_base">
           <rect id="button" ry="5" rx="5" y="6" x="6" height="38" width="38"
                fill="#f2f5e9" fill-opacity="0.5" stroke="#606060" stroke-width="1.0"/>
           <path id="arrow"
             d="M 11.500037,31.436501 C 11.940474,20.09759 22.043105,11.32322 32.158766,21.979434 L 37.068811,17.246167 C 37.068811,17.246167 37.088388,32 37.088388,32 L 22.160133,31.978069 C 22.160133,31.978069 26.997745,27.140456 26.997745,27.140456 C 18.528582,18.264221 13.291696,25.230495 11.500037,31.436501 z"
             style="fill:#404040;"/>
          </a>
         </g>
        </svg>
</svg>
