<?xml version="1.0" encoding="UTF-8" standalone="no"?>
<!DOCTYPE svg PUBLIC "-//W3C//DTD SVG 1.1//EN"
 "http://www.w3.org/Graphics/SVG/1.1/DTD/svg11.dtd">
<!-- Generated by graphviz version 2.38.0 (20140413.2041)
 -->
<!-- Title: /travis/pairinteraction/Hamiltonianmatrix.cpp Pages: 1 -->
<svg width="2258pt" height="341pt"
 viewBox="0.00 0.00 2258.00 341.00" xmlns="http://www.w3.org/2000/svg" xmlns:xlink="http://www.w3.org/1999/xlink">
<g id="graph0" class="graph" transform="scale(1 1) rotate(0) translate(4 337)">
<title>/travis/pairinteraction/Hamiltonianmatrix.cpp</title>
<!-- Node0 -->
<g id="node1" class="node"><title>Node0</title>
<polygon fill="#bfbfbf" stroke="black" points="1824,-302.5 1824,-332.5 1952,-332.5 1952,-302.5 1824,-302.5"/>
<text text-anchor="start" x="1832" y="-320.5" font-family="Helvetica,sans-Serif" font-size="10.00">/travis/pairinteraction</text>
<text text-anchor="middle" x="1888" y="-309.5" font-family="Helvetica,sans-Serif" font-size="10.00">/Hamiltonianmatrix.cpp</text>
</g>
<!-- Node1 -->
<g id="node2" class="node"><title>Node1</title>
<g id="a_node2"><a xlink:href="Hamiltonianmatrix_8h.html" target="_top" xlink:title="Hamiltonianmatrix.h">
<polygon fill="none" stroke="black" points="1384,-246.5 1384,-265.5 1498,-265.5 1498,-246.5 1384,-246.5"/>
<text text-anchor="middle" x="1441" y="-253.5" font-family="Helvetica,sans-Serif" font-size="10.00">Hamiltonianmatrix.h</text>
</a>
</g>
</g>
<!-- Node0&#45;&gt;Node1 -->
<g id="edge1" class="edge"><title>Node0&#45;&gt;Node1</title>
<path fill="none" stroke="midnightblue" d="M1823.96,-307.975C1740.1,-296.813 1593.75,-277.332 1508.3,-265.959"/>
<polygon fill="midnightblue" stroke="midnightblue" points="1508.57,-262.463 1498.19,-264.613 1507.64,-269.402 1508.57,-262.463"/>
</g>
<!-- Node41 -->
<g id="node42" class="node"><title>Node41</title>
<polygon fill="none" stroke="#bfbfbf" points="2186,-190.5 2186,-209.5 2250,-209.5 2250,-190.5 2186,-190.5"/>
<text text-anchor="middle" x="2218" y="-197.5" font-family="Helvetica,sans-Serif" font-size="10.00">stdexcept</text>
</g>
<!-- Node0&#45;&gt;Node41 -->
<g id="edge56" class="edge"><title>Node0&#45;&gt;Node41</title>
<path fill="none" stroke="midnightblue" d="M1887.52,-302.221C1887.82,-286.03 1891.01,-260.063 1907,-246 1951.63,-206.756 2113.37,-219.71 2172,-210 2173.26,-209.791 2174.55,-209.573 2175.84,-209.349"/>
<polygon fill="midnightblue" stroke="midnightblue" points="2176.66,-212.758 2185.87,-207.533 2175.41,-205.87 2176.66,-212.758"/>
</g>
<!-- Node42 -->
<g id="node43" class="node"><title>Node42</title>
<polygon fill="none" stroke="#bfbfbf" points="1916,-246.5 1916,-265.5 2016,-265.5 2016,-246.5 1916,-246.5"/>
<text text-anchor="middle" x="1966" y="-253.5" font-family="Helvetica,sans-Serif" font-size="10.00">boost/format.hpp</text>
</g>
<!-- Node0&#45;&gt;Node42 -->
<g id="edge57" class="edge"><title>Node0&#45;&gt;Node42</title>
<path fill="none" stroke="midnightblue" d="M1906.48,-302.399C1918.52,-293.218 1934.2,-281.258 1946.44,-271.918"/>
<polygon fill="midnightblue" stroke="midnightblue" points="1948.82,-274.506 1954.65,-265.658 1944.58,-268.94 1948.82,-274.506"/>
</g>
<!-- Node2 -->
<g id="node3" class="node"><title>Node2</title>
<g id="a_node3"><a xlink:href="Basisnames_8h.html" target="_top" xlink:title="Basisnames.h">
<polygon fill="none" stroke="black" points="943,-190.5 943,-209.5 1027,-209.5 1027,-190.5 943,-190.5"/>
<text text-anchor="middle" x="985" y="-197.5" font-family="Helvetica,sans-Serif" font-size="10.00">Basisnames.h</text>
</a>
</g>
</g>
<!-- Node1&#45;&gt;Node2 -->
<g id="edge2" class="edge"><title>Node1&#45;&gt;Node2</title>
<path fill="none" stroke="midnightblue" d="M1383.71,-248.216C1294.41,-237.64 1123.36,-217.384 1037.25,-207.188"/>
<polygon fill="midnightblue" stroke="midnightblue" points="1037.52,-203.696 1027.18,-205.995 1036.7,-210.647 1037.52,-203.696"/>
</g>
<!-- Node9 -->
<g id="node10" class="node"><title>Node9</title>
<g id="a_node10"><a xlink:href="StateOld_8h.html" target="_top" xlink:title="StateOld.h">
<polygon fill="none" stroke="black" points="533,-134.5 533,-153.5 601,-153.5 601,-134.5 533,-134.5"/>
<text text-anchor="middle" x="567" y="-141.5" font-family="Helvetica,sans-Serif" font-size="10.00">StateOld.h</text>
</a>
</g>
</g>
<!-- Node1&#45;&gt;Node9 -->
<g id="edge40" class="edge"><title>Node1&#45;&gt;Node9</title>
<path fill="none" stroke="midnightblue" d="M1383.99,-254.685C1208.2,-253.33 682.232,-246.257 615,-210 595.958,-199.731 582.439,-178.246 574.699,-162.784"/>
<polygon fill="midnightblue" stroke="midnightblue" points="577.848,-161.255 570.448,-153.672 571.504,-164.214 577.848,-161.255"/>
</g>
<!-- Node10 -->
<g id="node11" class="node"><title>Node10</title>
<g id="a_node11"><a xlink:href="dtypes_8h.html" target="_top" xlink:title="dtypes.h">
<polygon fill="none" stroke="black" points="736,-73 736,-92 794,-92 794,-73 736,-73"/>
<text text-anchor="middle" x="765" y="-80" font-family="Helvetica,sans-Serif" font-size="10.00">dtypes.h</text>
</a>
</g>
</g>
<!-- Node1&#45;&gt;Node10 -->
<g id="edge41" class="edge"><title>Node1&#45;&gt;Node10</title>
<path fill="none" stroke="midnightblue" d="M1383.85,-251.821C1215.36,-241.848 729.609,-208.554 686,-154 667.644,-131.037 703.051,-109.252 732.214,-96.1337"/>
<polygon fill="midnightblue" stroke="midnightblue" points="733.969,-99.1891 741.777,-92.0281 731.208,-92.7568 733.969,-99.1891"/>
</g>
<!-- Node14 -->
<g id="node15" class="node"><title>Node14</title>
<polygon fill="none" stroke="#bfbfbf" points="641.5,-6 641.5,-25 688.5,-25 688.5,-6 641.5,-6"/>
<text text-anchor="middle" x="665" y="-13" font-family="Helvetica,sans-Serif" font-size="10.00">cmath</text>
</g>
<!-- Node1&#45;&gt;Node14 -->
<g id="edge49" class="edge"><title>Node1&#45;&gt;Node14</title>
<path fill="none" stroke="midnightblue" d="M1383.91,-253.802C1247.11,-250.487 903.765,-239.412 793,-210 737.669,-195.308 709.516,-201.118 677,-154 652.239,-118.119 656.611,-63.7915 661.214,-35.3587"/>
<polygon fill="midnightblue" stroke="midnightblue" points="664.716,-35.6607 663.054,-25.1971 657.828,-34.4134 664.716,-35.6607"/>
</g>
<!-- Node16 -->
<g id="node17" class="node"><title>Node16</title>
<polygon fill="none" stroke="#bfbfbf" points="1234.5,-6 1234.5,-25 1281.5,-25 1281.5,-6 1234.5,-6"/>
<text text-anchor="middle" x="1258" y="-13" font-family="Helvetica,sans-Serif" font-size="10.00">vector</text>
</g>
<!-- Node1&#45;&gt;Node16 -->
<g id="edge55" class="edge"><title>Node1&#45;&gt;Node16</title>
<path fill="none" stroke="midnightblue" d="M1498.12,-254.283C1679.34,-250.999 2224.56,-232.882 2138,-134 2080.99,-68.8761 1446.6,-27.578 1291.88,-18.4293"/>
<polygon fill="midnightblue" stroke="midnightblue" points="1291.77,-14.917 1281.58,-17.8262 1291.36,-21.905 1291.77,-14.917"/>
</g>
<!-- Node23 -->
<g id="node24" class="node"><title>Node23</title>
<polygon fill="none" stroke="#bfbfbf" points="1229.5,-134.5 1229.5,-153.5 1286.5,-153.5 1286.5,-134.5 1229.5,-134.5"/>
<text text-anchor="middle" x="1258" y="-141.5" font-family="Helvetica,sans-Serif" font-size="10.00">memory</text>
</g>
<!-- Node1&#45;&gt;Node23 -->
<g id="edge53" class="edge"><title>Node1&#45;&gt;Node23</title>
<path fill="none" stroke="midnightblue" d="M1396.13,-246.494C1369.09,-239.792 1334.97,-228.422 1309,-210 1291.34,-197.473 1276.78,-177.122 1267.8,-162.528"/>
<polygon fill="midnightblue" stroke="midnightblue" points="1270.81,-160.752 1262.73,-153.909 1264.78,-164.302 1270.81,-160.752"/>
</g>
<!-- Node26 -->
<g id="node27" class="node"><title>Node26</title>
<g id="a_node27"><a xlink:href="Serializable_8h.html" target="_top" xlink:title="Serializable.h">
<polygon fill="none" stroke="black" points="1318,-190.5 1318,-209.5 1398,-209.5 1398,-190.5 1318,-190.5"/>
<text text-anchor="middle" x="1358" y="-197.5" font-family="Helvetica,sans-Serif" font-size="10.00">Serializable.h</text>
</a>
</g>
</g>
<!-- Node1&#45;&gt;Node26 -->
<g id="edge32" class="edge"><title>Node1&#45;&gt;Node26</title>
<path fill="none" stroke="midnightblue" d="M1427.66,-246.324C1414.84,-237.979 1395.22,-225.212 1380.06,-215.352"/>
<polygon fill="midnightblue" stroke="midnightblue" points="1381.59,-212.174 1371.3,-209.655 1377.78,-218.042 1381.59,-212.174"/>
</g>
<!-- Node31 -->
<g id="node32" class="node"><title>Node31</title>
<g id="a_node32"><a xlink:href="utils_8h.html" target="_top" xlink:title="utils.h">
<polygon fill="none" stroke="black" points="1843.5,-190.5 1843.5,-209.5 1888.5,-209.5 1888.5,-190.5 1843.5,-190.5"/>
<text text-anchor="middle" x="1866" y="-197.5" font-family="Helvetica,sans-Serif" font-size="10.00">utils.h</text>
</a>
</g>
</g>
<!-- Node1&#45;&gt;Node31 -->
<g id="edge42" class="edge"><title>Node1&#45;&gt;Node31</title>
<path fill="none" stroke="midnightblue" d="M1498.32,-247.717C1588.62,-236.244 1761.12,-214.326 1833.14,-205.175"/>
<polygon fill="midnightblue" stroke="midnightblue" points="1833.93,-208.603 1843.41,-203.87 1833.05,-201.659 1833.93,-208.603"/>
</g>
<!-- Node38 -->
<g id="node39" class="node"><title>Node38</title>
<polygon fill="none" stroke="#bfbfbf" points="1416.5,-190.5 1416.5,-209.5 1465.5,-209.5 1465.5,-190.5 1416.5,-190.5"/>
<text text-anchor="middle" x="1441" y="-197.5" font-family="Helvetica,sans-Serif" font-size="10.00">cstdint</text>
</g>
<!-- Node1&#45;&gt;Node38 -->
<g id="edge50" class="edge"><title>Node1&#45;&gt;Node38</title>
<path fill="none" stroke="midnightblue" d="M1441,-246.083C1441,-239.006 1441,-228.861 1441,-219.986"/>
<polygon fill="midnightblue" stroke="midnightblue" points="1444.5,-219.751 1441,-209.751 1437.5,-219.751 1444.5,-219.751"/>
</g>
<!-- Node39 -->
<g id="node40" class="node"><title>Node39</title>
<polygon fill="none" stroke="#bfbfbf" points="1483.5,-190.5 1483.5,-209.5 1528.5,-209.5 1528.5,-190.5 1483.5,-190.5"/>
<text text-anchor="middle" x="1506" y="-197.5" font-family="Helvetica,sans-Serif" font-size="10.00">cstdio</text>
</g>
<!-- Node1&#45;&gt;Node39 -->
<g id="edge51" class="edge"><title>Node1&#45;&gt;Node39</title>
<path fill="none" stroke="midnightblue" d="M1451.44,-246.324C1461.15,-238.263 1475.82,-226.077 1487.5,-216.369"/>
<polygon fill="midnightblue" stroke="midnightblue" points="1489.91,-218.916 1495.37,-209.834 1485.44,-213.532 1489.91,-218.916"/>
</g>
<!-- Node40 -->
<g id="node41" class="node"><title>Node40</title>
<polygon fill="none" stroke="#bfbfbf" points="1546.5,-190.5 1546.5,-209.5 1609.5,-209.5 1609.5,-190.5 1546.5,-190.5"/>
<text text-anchor="middle" x="1578" y="-197.5" font-family="Helvetica,sans-Serif" font-size="10.00">exception</text>
</g>
<!-- Node1&#45;&gt;Node40 -->
<g id="edge52" class="edge"><title>Node1&#45;&gt;Node40</title>
<path fill="none" stroke="midnightblue" d="M1462.71,-246.444C1485.35,-237.517 1521.07,-223.439 1546.75,-213.317"/>
<polygon fill="midnightblue" stroke="midnightblue" points="1548.37,-216.44 1556.39,-209.516 1545.81,-209.927 1548.37,-216.44"/>
</g>
<!-- Node1&#45;&gt;Node41 -->
<g id="edge54" class="edge"><title>Node1&#45;&gt;Node41</title>
<path fill="none" stroke="midnightblue" d="M1498.11,-254.041C1621.56,-251.407 1922.28,-241.974 2172,-210 2173.27,-209.837 2174.56,-209.66 2175.86,-209.472"/>
<polygon fill="midnightblue" stroke="midnightblue" points="2176.61,-212.896 2185.92,-207.837 2175.48,-205.987 2176.61,-212.896"/>
</g>
<!-- Node3 -->
<g id="node4" class="node"><title>Node3</title>
<g id="a_node4"><a xlink:href="ConfParser_8h.html" target="_top" xlink:title="ConfParser.h">
<polygon fill="none" stroke="black" points="1095,-134.5 1095,-153.5 1173,-153.5 1173,-134.5 1095,-134.5"/>
<text text-anchor="middle" x="1134" y="-141.5" font-family="Helvetica,sans-Serif" font-size="10.00">ConfParser.h</text>
</a>
</g>
</g>
<!-- Node2&#45;&gt;Node3 -->
<g id="edge3" class="edge"><title>Node2&#45;&gt;Node3</title>
<path fill="none" stroke="midnightblue" d="M1008.61,-190.444C1033.46,-181.438 1072.77,-167.189 1100.75,-157.049"/>
<polygon fill="midnightblue" stroke="midnightblue" points="1102.29,-160.214 1110.5,-153.516 1099.91,-153.633 1102.29,-160.214"/>
</g>
<!-- Node6 -->
<g id="node7" class="node"><title>Node6</title>
<polygon fill="none" stroke="#bfbfbf" points="859,-73 859,-92 903,-92 903,-73 859,-73"/>
<text text-anchor="middle" x="881" y="-80" font-family="Helvetica,sans-Serif" font-size="10.00">string</text>
</g>
<!-- Node2&#45;&gt;Node6 -->
<g id="edge29" class="edge"><title>Node2&#45;&gt;Node6</title>
<path fill="none" stroke="midnightblue" d="M993.216,-190.369C1004.65,-177.285 1022.59,-152.044 1010,-134 983.442,-95.9506 954.832,-115.846 912,-98 910.629,-97.4287 909.23,-96.8307 907.822,-96.2167"/>
<polygon fill="midnightblue" stroke="midnightblue" points="909.143,-92.9729 898.588,-92.0447 906.26,-99.352 909.143,-92.9729"/>
</g>
<!-- Node8 -->
<g id="node9" class="node"><title>Node8</title>
<g id="a_node9"><a xlink:href="Iter_8h.html" target="_top" xlink:title="Iter.h">
<polygon fill="none" stroke="black" points="837.5,-134.5 837.5,-153.5 878.5,-153.5 878.5,-134.5 837.5,-134.5"/>
<text text-anchor="middle" x="858" y="-141.5" font-family="Helvetica,sans-Serif" font-size="10.00">Iter.h</text>
</a>
</g>
</g>
<!-- Node2&#45;&gt;Node8 -->
<g id="edge8" class="edge"><title>Node2&#45;&gt;Node8</title>
<path fill="none" stroke="midnightblue" d="M964.876,-190.444C943.976,-181.557 911.065,-167.563 887.284,-157.451"/>
<polygon fill="midnightblue" stroke="midnightblue" points="888.602,-154.208 878.029,-153.516 885.862,-160.65 888.602,-154.208"/>
</g>
<!-- Node2&#45;&gt;Node9 -->
<g id="edge9" class="edge"><title>Node2&#45;&gt;Node9</title>
<path fill="none" stroke="midnightblue" d="M942.62,-193.525C863.165,-183.261 692.543,-161.218 611.498,-150.749"/>
<polygon fill="midnightblue" stroke="midnightblue" points="611.506,-147.221 601.14,-149.41 610.609,-154.163 611.506,-147.221"/>
</g>
<!-- Node2&#45;&gt;Node10 -->
<g id="edge25" class="edge"><title>Node2&#45;&gt;Node10</title>
<path fill="none" stroke="midnightblue" d="M942.713,-193.461C909.517,-187.623 863.187,-176.077 828,-154 806.148,-140.29 787.383,-116.844 776.15,-100.783"/>
<polygon fill="midnightblue" stroke="midnightblue" points="778.931,-98.646 770.441,-92.3086 773.126,-102.558 778.931,-98.646"/>
</g>
<!-- Node2&#45;&gt;Node16 -->
<g id="edge31" class="edge"><title>Node2&#45;&gt;Node16</title>
<path fill="none" stroke="midnightblue" d="M1027.21,-199.06C1070.18,-197.064 1136.73,-188.073 1182,-154 1222.39,-123.602 1244.13,-65.1568 1253.06,-35.2029"/>
<polygon fill="midnightblue" stroke="midnightblue" points="1256.52,-35.81 1255.86,-25.2357 1249.78,-33.913 1256.52,-35.81"/>
</g>
<!-- Node22 -->
<g id="node23" class="node"><title>Node22</title>
<polygon fill="none" stroke="#bfbfbf" points="897,-134.5 897,-153.5 951,-153.5 951,-134.5 897,-134.5"/>
<text text-anchor="middle" x="924" y="-141.5" font-family="Helvetica,sans-Serif" font-size="10.00">fstream</text>
</g>
<!-- Node2&#45;&gt;Node22 -->
<g id="edge26" class="edge"><title>Node2&#45;&gt;Node22</title>
<path fill="none" stroke="midnightblue" d="M975.199,-190.324C966.182,-182.341 952.594,-170.313 941.682,-160.653"/>
<polygon fill="midnightblue" stroke="midnightblue" points="943.787,-157.842 933.979,-153.834 939.147,-163.083 943.787,-157.842"/>
</g>
<!-- Node2&#45;&gt;Node23 -->
<g id="edge27" class="edge"><title>Node2&#45;&gt;Node23</title>
<path fill="none" stroke="midnightblue" d="M1027,-190.953C1073.14,-182.075 1149.4,-167.282 1215,-154 1216.45,-153.707 1217.92,-153.406 1219.41,-153.102"/>
<polygon fill="midnightblue" stroke="midnightblue" points="1220.24,-156.504 1229.33,-151.055 1218.83,-149.649 1220.24,-156.504"/>
</g>
<!-- Node24 -->
<g id="node25" class="node"><title>Node24</title>
<polygon fill="none" stroke="#bfbfbf" points="969,-134.5 969,-153.5 1001,-153.5 1001,-134.5 969,-134.5"/>
<text text-anchor="middle" x="985" y="-141.5" font-family="Helvetica,sans-Serif" font-size="10.00">set</text>
</g>
<!-- Node2&#45;&gt;Node24 -->
<g id="edge28" class="edge"><title>Node2&#45;&gt;Node24</title>
<path fill="none" stroke="midnightblue" d="M985,-190.083C985,-183.006 985,-172.861 985,-163.986"/>
<polygon fill="midnightblue" stroke="midnightblue" points="988.5,-163.751 985,-153.751 981.5,-163.751 988.5,-163.751"/>
</g>
<!-- Node25 -->
<g id="node26" class="node"><title>Node25</title>
<polygon fill="none" stroke="#bfbfbf" points="695,-134.5 695,-153.5 781,-153.5 781,-134.5 695,-134.5"/>
<text text-anchor="middle" x="738" y="-141.5" font-family="Helvetica,sans-Serif" font-size="10.00">unordered_set</text>
</g>
<!-- Node2&#45;&gt;Node25 -->
<g id="edge30" class="edge"><title>Node2&#45;&gt;Node25</title>
<path fill="none" stroke="midnightblue" d="M945.862,-190.444C902.774,-181.023 833.441,-165.866 786.829,-155.675"/>
<polygon fill="midnightblue" stroke="midnightblue" points="787.472,-152.233 776.955,-153.516 785.976,-159.072 787.472,-152.233"/>
</g>
<!-- Node4 -->
<g id="node5" class="node"><title>Node4</title>
<polygon fill="none" stroke="#bfbfbf" points="1061,-73 1061,-92 1099,-92 1099,-73 1061,-73"/>
<text text-anchor="middle" x="1080" y="-80" font-family="Helvetica,sans-Serif" font-size="10.00">map</text>
</g>
<!-- Node3&#45;&gt;Node4 -->
<g id="edge4" class="edge"><title>Node3&#45;&gt;Node4</title>
<path fill="none" stroke="midnightblue" d="M1126.26,-134.475C1118,-125.373 1104.72,-110.741 1094.51,-99.483"/>
<polygon fill="midnightblue" stroke="midnightblue" points="1097.03,-97.0619 1087.72,-92.0091 1091.85,-101.766 1097.03,-97.0619"/>
</g>
<!-- Node5 -->
<g id="node6" class="node"><title>Node5</title>
<polygon fill="none" stroke="#bfbfbf" points="1117,-73 1117,-92 1173,-92 1173,-73 1117,-73"/>
<text text-anchor="middle" x="1145" y="-80" font-family="Helvetica,sans-Serif" font-size="10.00">sstream</text>
</g>
<!-- Node3&#45;&gt;Node5 -->
<g id="edge5" class="edge"><title>Node3&#45;&gt;Node5</title>
<path fill="none" stroke="midnightblue" d="M1135.58,-134.475C1137.13,-126.08 1139.55,-112.981 1141.55,-102.163"/>
<polygon fill="midnightblue" stroke="midnightblue" points="1145.05,-102.479 1143.43,-92.0091 1138.17,-101.206 1145.05,-102.479"/>
</g>
<!-- Node3&#45;&gt;Node6 -->
<g id="edge6" class="edge"><title>Node3&#45;&gt;Node6</title>
<path fill="none" stroke="midnightblue" d="M1094.9,-136.229C1040.64,-126.636 945.423,-109.03 912,-98 910.332,-97.4496 908.636,-96.8329 906.94,-96.1726"/>
<polygon fill="midnightblue" stroke="midnightblue" points="908.004,-92.8198 897.436,-92.0719 905.231,-99.2471 908.004,-92.8198"/>
</g>
<!-- Node7 -->
<g id="node8" class="node"><title>Node7</title>
<polygon fill="none" stroke="#bfbfbf" points="921,-73 921,-92 1043,-92 1043,-73 921,-73"/>
<text text-anchor="middle" x="982" y="-80" font-family="Helvetica,sans-Serif" font-size="10.00">boost/lexical_cast.hpp</text>
</g>
<!-- Node3&#45;&gt;Node7 -->
<g id="edge7" class="edge"><title>Node3&#45;&gt;Node7</title>
<path fill="none" stroke="midnightblue" d="M1112.22,-134.475C1086.26,-124.313 1042.69,-107.256 1013.17,-95.6996"/>
<polygon fill="midnightblue" stroke="midnightblue" points="1014.33,-92.3951 1003.74,-92.0091 1011.77,-98.9135 1014.33,-92.3951"/>
</g>
<!-- Node9&#45;&gt;Node6 -->
<g id="edge21" class="edge"><title>Node9&#45;&gt;Node6</title>
<path fill="none" stroke="midnightblue" d="M601.201,-136.519C662.229,-124.955 789.071,-100.92 848.701,-89.6203"/>
<polygon fill="midnightblue" stroke="midnightblue" points="849.513,-93.0289 858.686,-87.7282 848.209,-86.1513 849.513,-93.0289"/>
</g>
<!-- Node9&#45;&gt;Node10 -->
<g id="edge10" class="edge"><title>Node9&#45;&gt;Node10</title>
<path fill="none" stroke="midnightblue" d="M595.369,-134.475C629.921,-124.092 688.424,-106.512 726.885,-94.9538"/>
<polygon fill="midnightblue" stroke="midnightblue" points="728.114,-98.239 736.684,-92.0091 726.1,-91.5351 728.114,-98.239"/>
</g>
<!-- Node13 -->
<g id="node14" class="node"><title>Node13</title>
<polygon fill="none" stroke="#bfbfbf" points="476.5,-6 476.5,-25 517.5,-25 517.5,-6 476.5,-6"/>
<text text-anchor="middle" x="497" y="-13" font-family="Helvetica,sans-Serif" font-size="10.00">array</text>
</g>
<!-- Node9&#45;&gt;Node13 -->
<g id="edge17" class="edge"><title>Node9&#45;&gt;Node13</title>
<path fill="none" stroke="midnightblue" d="M532.733,-139.078C487.047,-133.062 409.953,-119.896 393,-98 384.565,-87.106 385.689,-78.6779 393,-67 408.937,-41.5452 441.772,-28.5944 466.307,-22.2268"/>
<polygon fill="midnightblue" stroke="midnightblue" points="467.312,-25.586 476.241,-19.8835 465.705,-18.7729 467.312,-25.586"/>
</g>
<!-- Node9&#45;&gt;Node14 -->
<g id="edge19" class="edge"><title>Node9&#45;&gt;Node14</title>
<path fill="none" stroke="midnightblue" d="M582.79,-134.451C596.267,-126.495 615.411,-113.545 628,-98 643.468,-78.899 653.947,-52.2888 659.696,-34.7405"/>
<polygon fill="midnightblue" stroke="midnightblue" points="663.057,-35.7211 662.668,-25.1334 656.369,-33.6528 663.057,-35.7211"/>
</g>
<!-- Node17 -->
<g id="node18" class="node"><title>Node17</title>
<polygon fill="none" stroke="#bfbfbf" points="402,-73 402,-92 542,-92 542,-73 402,-73"/>
<text text-anchor="middle" x="472" y="-80" font-family="Helvetica,sans-Serif" font-size="10.00">boost/functional/hash.hpp</text>
</g>
<!-- Node9&#45;&gt;Node17 -->
<g id="edge18" class="edge"><title>Node9&#45;&gt;Node17</title>
<path fill="none" stroke="midnightblue" d="M553.389,-134.475C537.939,-124.799 512.51,-108.872 494.184,-97.3941"/>
<polygon fill="midnightblue" stroke="midnightblue" points="495.919,-94.3509 485.586,-92.0091 492.203,-100.283 495.919,-94.3509"/>
</g>
<!-- Node18 -->
<g id="node19" class="node"><title>Node18</title>
<polygon fill="none" stroke="#bfbfbf" points="560.5,-73 560.5,-92 619.5,-92 619.5,-73 560.5,-73"/>
<text text-anchor="middle" x="590" y="-80" font-family="Helvetica,sans-Serif" font-size="10.00">iostream</text>
</g>
<!-- Node9&#45;&gt;Node18 -->
<g id="edge20" class="edge"><title>Node9&#45;&gt;Node18</title>
<path fill="none" stroke="midnightblue" d="M570.295,-134.475C573.609,-125.904 578.818,-112.427 583.049,-101.483"/>
<polygon fill="midnightblue" stroke="midnightblue" points="586.37,-102.598 586.711,-92.0091 579.841,-100.075 586.37,-102.598"/>
</g>
<!-- Node19 -->
<g id="node20" class="node"><title>Node19</title>
<polygon fill="none" stroke="#bfbfbf" points="0,-67.5 0,-97.5 104,-97.5 104,-67.5 0,-67.5"/>
<text text-anchor="start" x="8" y="-85.5" font-family="Helvetica,sans-Serif" font-size="10.00">boost/serialization</text>
<text text-anchor="middle" x="52" y="-74.5" font-family="Helvetica,sans-Serif" font-size="10.00">/array.hpp</text>
</g>
<!-- Node9&#45;&gt;Node19 -->
<g id="edge22" class="edge"><title>Node9&#45;&gt;Node19</title>
<path fill="none" stroke="midnightblue" d="M532.906,-141.193C458.588,-136.917 276.325,-124.61 114.299,-98.0695"/>
<polygon fill="midnightblue" stroke="midnightblue" points="114.588,-94.5697 104.149,-96.3837 113.441,-101.475 114.588,-94.5697"/>
</g>
<!-- Node20 -->
<g id="node21" class="node"><title>Node20</title>
<polygon fill="none" stroke="#bfbfbf" points="122,-67.5 122,-97.5 226,-97.5 226,-67.5 122,-67.5"/>
<text text-anchor="start" x="130" y="-85.5" font-family="Helvetica,sans-Serif" font-size="10.00">boost/serialization</text>
<text text-anchor="middle" x="174" y="-74.5" font-family="Helvetica,sans-Serif" font-size="10.00">/string.hpp</text>
</g>
<!-- Node9&#45;&gt;Node20 -->
<g id="edge23" class="edge"><title>Node9&#45;&gt;Node20</title>
<path fill="none" stroke="midnightblue" d="M532.889,-139.501C474.241,-133.241 350.354,-118.958 236.132,-98.0995"/>
<polygon fill="midnightblue" stroke="midnightblue" points="236.641,-94.6343 226.171,-96.2589 235.369,-101.518 236.641,-94.6343"/>
</g>
<!-- Node21 -->
<g id="node22" class="node"><title>Node21</title>
<polygon fill="none" stroke="#bfbfbf" points="244.5,-73 244.5,-92 345.5,-92 345.5,-73 244.5,-73"/>
<text text-anchor="middle" x="295" y="-80" font-family="Helvetica,sans-Serif" font-size="10.00">boost/variant.hpp</text>
</g>
<!-- Node9&#45;&gt;Node21 -->
<g id="edge24" class="edge"><title>Node9&#45;&gt;Node21</title>
<path fill="none" stroke="midnightblue" d="M532.923,-135.651C491.887,-126.788 420.878,-111.407 360,-98 354.566,-96.8032 348.878,-95.544 343.223,-94.2881"/>
<polygon fill="midnightblue" stroke="midnightblue" points="343.665,-90.8009 333.144,-92.0452 342.145,-97.6338 343.665,-90.8009"/>
</g>
<!-- Node11 -->
<g id="node12" class="node"><title>Node11</title>
<polygon fill="none" stroke="#bfbfbf" points="966.5,-6 966.5,-25 1043.5,-25 1043.5,-6 966.5,-6"/>
<text text-anchor="middle" x="1005" y="-13" font-family="Helvetica,sans-Serif" font-size="10.00">Eigen/Dense</text>
</g>
<!-- Node10&#45;&gt;Node11 -->
<g id="edge11" class="edge"><title>Node10&#45;&gt;Node11</title>
<path fill="none" stroke="midnightblue" d="M794.038,-74.2107C831.718,-64.6726 899.451,-47.2548 957,-31 960.413,-30.0361 963.954,-29.0119 967.498,-27.9709"/>
<polygon fill="midnightblue" stroke="midnightblue" points="968.797,-31.236 977.383,-25.0289 966.8,-24.5268 968.797,-31.236"/>
</g>
<!-- Node12 -->
<g id="node13" class="node"><title>Node12</title>
<polygon fill="none" stroke="#bfbfbf" points="707,-6 707,-25 787,-25 787,-6 707,-6"/>
<text text-anchor="middle" x="747" y="-13" font-family="Helvetica,sans-Serif" font-size="10.00">Eigen/Sparse</text>
</g>
<!-- Node10&#45;&gt;Node12 -->
<g id="edge12" class="edge"><title>Node10&#45;&gt;Node12</title>
<path fill="none" stroke="midnightblue" d="M762.572,-72.7338C759.901,-63.0852 755.529,-47.3001 752.097,-34.9063"/>
<polygon fill="midnightblue" stroke="midnightblue" points="755.431,-33.8305 749.389,-25.1273 748.685,-35.6987 755.431,-33.8305"/>
</g>
<!-- Node10&#45;&gt;Node13 -->
<g id="edge13" class="edge"><title>Node10&#45;&gt;Node13</title>
<path fill="none" stroke="midnightblue" d="M735.809,-74.4201C684.787,-62.0455 579.869,-36.5988 527.763,-23.9611"/>
<polygon fill="midnightblue" stroke="midnightblue" points="528.324,-20.4958 517.78,-21.54 526.674,-27.2985 528.324,-20.4958"/>
</g>
<!-- Node10&#45;&gt;Node14 -->
<g id="edge14" class="edge"><title>Node10&#45;&gt;Node14</title>
<path fill="none" stroke="midnightblue" d="M751.514,-72.7338C734.945,-61.9644 706.615,-43.55 686.907,-30.7395"/>
<polygon fill="midnightblue" stroke="midnightblue" points="688.565,-27.6427 678.273,-25.1273 684.75,-33.5118 688.565,-27.6427"/>
</g>
<!-- Node15 -->
<g id="node16" class="node"><title>Node15</title>
<polygon fill="none" stroke="#bfbfbf" points="805.5,-0.5 805.5,-30.5 948.5,-30.5 948.5,-0.5 805.5,-0.5"/>
<text text-anchor="start" x="813.5" y="-18.5" font-family="Helvetica,sans-Serif" font-size="10.00">unsupported/Eigen/CXX11</text>
<text text-anchor="middle" x="877" y="-7.5" font-family="Helvetica,sans-Serif" font-size="10.00">/Tensor</text>
</g>
<!-- Node10&#45;&gt;Node15 -->
<g id="edge15" class="edge"><title>Node10&#45;&gt;Node15</title>
<path fill="none" stroke="midnightblue" d="M780.105,-72.7338C796.405,-63.2736 822.871,-47.9142 844.027,-35.6362"/>
<polygon fill="midnightblue" stroke="midnightblue" points="845.831,-38.6357 852.724,-30.589 842.318,-32.5814 845.831,-38.6357"/>
</g>
<!-- Node10&#45;&gt;Node16 -->
<g id="edge16" class="edge"><title>Node10&#45;&gt;Node16</title>
<path fill="none" stroke="midnightblue" d="M794.059,-76.2038C810.456,-73.3007 831.338,-69.7452 850,-67 988.698,-46.5972 1154.74,-27.7744 1224.52,-20.1178"/>
<polygon fill="midnightblue" stroke="midnightblue" points="1224.93,-23.5941 1234.49,-19.0282 1224.17,-16.6355 1224.93,-23.5941"/>
</g>
<!-- Node26&#45;&gt;Node10 -->
<g id="edge33" class="edge"><title>Node26&#45;&gt;Node10</title>
<path fill="none" stroke="midnightblue" d="M1317.68,-193.531C1264.39,-186.028 1167.68,-171.463 1086,-154 1051.84,-146.697 1044.01,-141.973 1010,-134 937.716,-117.052 852.716,-100.219 804.218,-90.9056"/>
<polygon fill="midnightblue" stroke="midnightblue" points="804.631,-87.4212 794.151,-88.9798 803.316,-94.2965 804.631,-87.4212"/>
</g>
<!-- Node26&#45;&gt;Node16 -->
<g id="edge39" class="edge"><title>Node26&#45;&gt;Node16</title>
<path fill="none" stroke="midnightblue" d="M1353.18,-190.198C1337.63,-161.831 1288.65,-72.4405 1267.68,-34.1693"/>
<polygon fill="midnightblue" stroke="midnightblue" points="1270.65,-32.3019 1262.77,-25.214 1264.51,-35.6657 1270.65,-32.3019"/>
</g>
<!-- Node26&#45;&gt;Node23 -->
<g id="edge35" class="edge"><title>Node26&#45;&gt;Node23</title>
<path fill="none" stroke="midnightblue" d="M1341.93,-190.324C1326.04,-181.743 1301.49,-168.486 1283.04,-158.522"/>
<polygon fill="midnightblue" stroke="midnightblue" points="1284.49,-155.326 1274.03,-153.655 1281.16,-161.486 1284.49,-155.326"/>
</g>
<!-- Node27 -->
<g id="node28" class="node"><title>Node27</title>
<polygon fill="none" stroke="#bfbfbf" points="1343,-134.5 1343,-153.5 1395,-153.5 1395,-134.5 1343,-134.5"/>
<text text-anchor="middle" x="1369" y="-141.5" font-family="Helvetica,sans-Serif" font-size="10.00">iterator</text>
</g>
<!-- Node26&#45;&gt;Node27 -->
<g id="edge34" class="edge"><title>Node26&#45;&gt;Node27</title>
<path fill="none" stroke="midnightblue" d="M1359.82,-190.083C1361.27,-182.927 1363.37,-172.635 1365.19,-163.691"/>
<polygon fill="midnightblue" stroke="midnightblue" points="1368.65,-164.248 1367.22,-153.751 1361.79,-162.851 1368.65,-164.248"/>
</g>
<!-- Node28 -->
<g id="node29" class="node"><title>Node28</title>
<polygon fill="none" stroke="#bfbfbf" points="1413.5,-134.5 1413.5,-153.5 1476.5,-153.5 1476.5,-134.5 1413.5,-134.5"/>
<text text-anchor="middle" x="1445" y="-141.5" font-family="Helvetica,sans-Serif" font-size="10.00">typeindex</text>
</g>
<!-- Node26&#45;&gt;Node28 -->
<g id="edge36" class="edge"><title>Node26&#45;&gt;Node28</title>
<path fill="none" stroke="midnightblue" d="M1371.98,-190.324C1385.55,-181.9 1406.38,-168.971 1422.32,-159.074"/>
<polygon fill="midnightblue" stroke="midnightblue" points="1424.41,-161.902 1431.06,-153.655 1420.71,-155.954 1424.41,-161.902"/>
</g>
<!-- Node29 -->
<g id="node30" class="node"><title>Node29</title>
<polygon fill="none" stroke="#bfbfbf" points="1494.5,-134.5 1494.5,-153.5 1549.5,-153.5 1549.5,-134.5 1494.5,-134.5"/>
<text text-anchor="middle" x="1522" y="-141.5" font-family="Helvetica,sans-Serif" font-size="10.00">typeinfo</text>
</g>
<!-- Node26&#45;&gt;Node29 -->
<g id="edge37" class="edge"><title>Node26&#45;&gt;Node29</title>
<path fill="none" stroke="midnightblue" d="M1383.99,-190.444C1411.7,-181.32 1455.75,-166.813 1486.62,-156.651"/>
<polygon fill="midnightblue" stroke="midnightblue" points="1487.73,-159.968 1496.14,-153.516 1485.54,-153.32 1487.73,-159.968"/>
</g>
<!-- Node30 -->
<g id="node31" class="node"><title>Node30</title>
<polygon fill="none" stroke="#bfbfbf" points="1567.5,-134.5 1567.5,-153.5 1660.5,-153.5 1660.5,-134.5 1567.5,-134.5"/>
<text text-anchor="middle" x="1614" y="-141.5" font-family="Helvetica,sans-Serif" font-size="10.00">unordered_map</text>
</g>
<!-- Node26&#45;&gt;Node30 -->
<g id="edge38" class="edge"><title>Node26&#45;&gt;Node30</title>
<path fill="none" stroke="midnightblue" d="M1398.28,-190.503C1442.98,-181.075 1515.17,-165.848 1563.58,-155.636"/>
<polygon fill="midnightblue" stroke="midnightblue" points="1564.47,-159.025 1573.53,-153.536 1563.02,-152.176 1564.47,-159.025"/>
</g>
<!-- Node32 -->
<g id="node33" class="node"><title>Node32</title>
<polygon fill="none" stroke="#bfbfbf" points="1679,-134.5 1679,-153.5 1741,-153.5 1741,-134.5 1679,-134.5"/>
<text text-anchor="middle" x="1710" y="-141.5" font-family="Helvetica,sans-Serif" font-size="10.00">algorithm</text>
</g>
<!-- Node31&#45;&gt;Node32 -->
<g id="edge43" class="edge"><title>Node31&#45;&gt;Node32</title>
<path fill="none" stroke="midnightblue" d="M1843.32,-191.148C1817.35,-182.16 1774.54,-167.339 1744.45,-156.924"/>
<polygon fill="midnightblue" stroke="midnightblue" points="1745.37,-153.539 1734.77,-153.576 1743.08,-160.154 1745.37,-153.539"/>
</g>
<!-- Node33 -->
<g id="node34" class="node"><title>Node33</title>
<polygon fill="none" stroke="#bfbfbf" points="1759.5,-134.5 1759.5,-153.5 1816.5,-153.5 1816.5,-134.5 1759.5,-134.5"/>
<text text-anchor="middle" x="1788" y="-141.5" font-family="Helvetica,sans-Serif" font-size="10.00">complex</text>
</g>
<!-- Node31&#45;&gt;Node33 -->
<g id="edge44" class="edge"><title>Node31&#45;&gt;Node33</title>
<path fill="none" stroke="midnightblue" d="M1853.47,-190.324C1841.41,-181.979 1822.97,-169.212 1808.73,-159.352"/>
<polygon fill="midnightblue" stroke="midnightblue" points="1810.72,-156.469 1800.5,-153.655 1806.73,-162.224 1810.72,-156.469"/>
</g>
<!-- Node34 -->
<g id="node35" class="node"><title>Node34</title>
<polygon fill="none" stroke="#bfbfbf" points="1834.5,-134.5 1834.5,-153.5 1897.5,-153.5 1897.5,-134.5 1834.5,-134.5"/>
<text text-anchor="middle" x="1866" y="-141.5" font-family="Helvetica,sans-Serif" font-size="10.00">functional</text>
</g>
<!-- Node31&#45;&gt;Node34 -->
<g id="edge45" class="edge"><title>Node31&#45;&gt;Node34</title>
<path fill="none" stroke="midnightblue" d="M1866,-190.083C1866,-183.006 1866,-172.861 1866,-163.986"/>
<polygon fill="midnightblue" stroke="midnightblue" points="1869.5,-163.751 1866,-153.751 1862.5,-163.751 1869.5,-163.751"/>
</g>
<!-- Node35 -->
<g id="node36" class="node"><title>Node35</title>
<polygon fill="none" stroke="#bfbfbf" points="1916,-134.5 1916,-153.5 1970,-153.5 1970,-134.5 1916,-134.5"/>
<text text-anchor="middle" x="1943" y="-141.5" font-family="Helvetica,sans-Serif" font-size="10.00">random</text>
</g>
<!-- Node31&#45;&gt;Node35 -->
<g id="edge46" class="edge"><title>Node31&#45;&gt;Node35</title>
<path fill="none" stroke="midnightblue" d="M1878.37,-190.324C1890.16,-182.058 1908.13,-169.453 1922.14,-159.632"/>
<polygon fill="midnightblue" stroke="midnightblue" points="1924.48,-162.262 1930.66,-153.655 1920.46,-156.531 1924.48,-162.262"/>
</g>
<!-- Node36 -->
<g id="node37" class="node"><title>Node36</title>
<polygon fill="none" stroke="#bfbfbf" points="1988,-134.5 1988,-153.5 2056,-153.5 2056,-134.5 1988,-134.5"/>
<text text-anchor="middle" x="2022" y="-141.5" font-family="Helvetica,sans-Serif" font-size="10.00">type_traits</text>
</g>
<!-- Node31&#45;&gt;Node36 -->
<g id="edge47" class="edge"><title>Node31&#45;&gt;Node36</title>
<path fill="none" stroke="midnightblue" d="M1888.68,-191.148C1914.65,-182.16 1957.46,-167.339 1987.55,-156.924"/>
<polygon fill="midnightblue" stroke="midnightblue" points="1988.92,-160.154 1997.23,-153.576 1986.63,-153.539 1988.92,-160.154"/>
</g>
<!-- Node37 -->
<g id="node38" class="node"><title>Node37</title>
<polygon fill="none" stroke="#bfbfbf" points="2074.5,-134.5 2074.5,-153.5 2129.5,-153.5 2129.5,-134.5 2074.5,-134.5"/>
<text text-anchor="middle" x="2102" y="-141.5" font-family="Helvetica,sans-Serif" font-size="10.00">unistd.h</text>
</g>
<!-- Node31&#45;&gt;Node37 -->
<g id="edge48" class="edge"><title>Node31&#45;&gt;Node37</title>
<path fill="none" stroke="midnightblue" d="M1888.71,-193.991C1924.03,-186.172 1994.5,-170.466 2064.29,-154.137"/>
<polygon fill="midnightblue" stroke="midnightblue" points="2065.19,-157.521 2074.13,-151.83 2063.6,-150.706 2065.19,-157.521"/>
</g>
</g>
</svg>
