<?xml version="1.0" encoding="UTF-8" standalone="no"?>
<!DOCTYPE svg PUBLIC "-//W3C//DTD SVG 1.1//EN"
 "http://www.w3.org/Graphics/SVG/1.1/DTD/svg11.dtd">
<!-- Generated by graphviz version 2.38.0 (20140413.2041)
 -->
<!-- Title: /travis/pairinteraction/Hamiltonian.h Pages: 1 -->
<svg width="349pt" height="240pt"
 viewBox="0.00 0.00 349.00 240.00" xmlns="http://www.w3.org/2000/svg" xmlns:xlink="http://www.w3.org/1999/xlink">
<g id="graph0" class="graph" transform="scale(1 1) rotate(0) translate(4 236)">
<title>/travis/pairinteraction/Hamiltonian.h</title>
<!-- Node42 -->
<g id="node1" class="node"><title>Node42</title>
<polygon fill="#bfbfbf" stroke="black" points="130,-201.5 130,-231.5 248,-231.5 248,-201.5 130,-201.5"/>
<text text-anchor="start" x="138" y="-219.5" font-family="Helvetica,sans-Serif" font-size="10.00">/travis/pairinteraction</text>
<text text-anchor="middle" x="189" y="-208.5" font-family="Helvetica,sans-Serif" font-size="10.00">/Hamiltonian.h</text>
</g>
<!-- Node43 -->
<g id="node2" class="node"><title>Node43</title>
<g id="a_node2"><a xlink:href="HamiltonianOne_8h.html" target="_top" xlink:title="/travis/pairinteraction\l/HamiltonianOne.h">
<polygon fill="none" stroke="black" points="87,-134.5 87,-164.5 205,-164.5 205,-134.5 87,-134.5"/>
<text text-anchor="start" x="95" y="-152.5" font-family="Helvetica,sans-Serif" font-size="10.00">/travis/pairinteraction</text>
<text text-anchor="middle" x="146" y="-141.5" font-family="Helvetica,sans-Serif" font-size="10.00">/HamiltonianOne.h</text>
</a>
</g>
</g>
<!-- Node42&#45;&gt;Node43 -->
<g id="edge1" class="edge"><title>Node42&#45;&gt;Node43</title>
<path fill="none" stroke="midnightblue" d="M174.027,-192.867C167.804,-183.459 160.774,-172.833 155.312,-164.577"/>
<polygon fill="midnightblue" stroke="midnightblue" points="171.233,-194.987 179.67,-201.396 177.071,-191.125 171.233,-194.987"/>
</g>
<!-- Node45 -->
<g id="node4" class="node"><title>Node45</title>
<g id="a_node4"><a xlink:href="HamiltonianTwo_8h.html" target="_top" xlink:title="/travis/pairinteraction\l/HamiltonianTwo.h">
<polygon fill="none" stroke="black" points="174,-67.5 174,-97.5 292,-97.5 292,-67.5 174,-67.5"/>
<text text-anchor="start" x="182" y="-85.5" font-family="Helvetica,sans-Serif" font-size="10.00">/travis/pairinteraction</text>
<text text-anchor="middle" x="233" y="-74.5" font-family="Helvetica,sans-Serif" font-size="10.00">/HamiltonianTwo.h</text>
</a>
</g>
</g>
<!-- Node42&#45;&gt;Node45 -->
<g id="edge7" class="edge"><title>Node42&#45;&gt;Node45</title>
<path fill="none" stroke="midnightblue" d="M201.823,-192.423C206.136,-183.98 210.689,-174.233 214,-165 222.24,-142.025 227.848,-114.105 230.729,-97.6257"/>
<polygon fill="midnightblue" stroke="midnightblue" points="198.708,-190.826 197.133,-201.303 204.898,-194.094 198.708,-190.826"/>
</g>
<!-- Node44 -->
<g id="node3" class="node"><title>Node44</title>
<g id="a_node3"><a xlink:href="HamiltonianOne_8cpp.html" target="_top" xlink:title="/travis/pairinteraction\l/HamiltonianOne.cpp">
<polygon fill="none" stroke="black" points="0,-67.5 0,-97.5 118,-97.5 118,-67.5 0,-67.5"/>
<text text-anchor="start" x="8" y="-85.5" font-family="Helvetica,sans-Serif" font-size="10.00">/travis/pairinteraction</text>
<text text-anchor="middle" x="59" y="-74.5" font-family="Helvetica,sans-Serif" font-size="10.00">/HamiltonianOne.cpp</text>
</a>
</g>
</g>
<!-- Node43&#45;&gt;Node44 -->
<g id="edge2" class="edge"><title>Node43&#45;&gt;Node44</title>
<path fill="none" stroke="midnightblue" d="M118.786,-128.168C105.482,-118.228 89.8039,-106.514 77.8409,-97.5765"/>
<polygon fill="midnightblue" stroke="midnightblue" points="117.016,-131.215 127.122,-134.396 121.206,-125.607 117.016,-131.215"/>
</g>
<!-- Node43&#45;&gt;Node45 -->
<g id="edge3" class="edge"><title>Node43&#45;&gt;Node45</title>
<path fill="none" stroke="midnightblue" d="M173.214,-128.168C186.518,-118.228 202.196,-106.514 214.159,-97.5765"/>
<polygon fill="midnightblue" stroke="midnightblue" points="170.794,-125.607 164.878,-134.396 174.984,-131.215 170.794,-125.607"/>
</g>
<!-- Node47 -->
<g id="node6" class="node"><title>Node47</title>
<g id="a_node6"><a xlink:href="Interface_8cpp.html" target="_top" xlink:title="/travis/pairinteraction\l/Interface.cpp">
<polygon fill="none" stroke="black" points="87,-0.5 87,-30.5 205,-30.5 205,-0.5 87,-0.5"/>
<text text-anchor="start" x="95" y="-18.5" font-family="Helvetica,sans-Serif" font-size="10.00">/travis/pairinteraction</text>
<text text-anchor="middle" x="146" y="-7.5" font-family="Helvetica,sans-Serif" font-size="10.00">/Interface.cpp</text>
</a>
</g>
</g>
<!-- Node43&#45;&gt;Node47 -->
<g id="edge6" class="edge"><title>Node43&#45;&gt;Node47</title>
<path fill="none" stroke="midnightblue" d="M146,-124.024C146,-96.5121 146,-52.7894 146,-30.5247"/>
<polygon fill="midnightblue" stroke="midnightblue" points="142.5,-124.374 146,-134.374 149.5,-124.374 142.5,-124.374"/>
</g>
<!-- Node46 -->
<g id="node5" class="node"><title>Node46</title>
<g id="a_node5"><a xlink:href="HamiltonianTwo_8cpp.html" target="_top" xlink:title="/travis/pairinteraction\l/HamiltonianTwo.cpp">
<polygon fill="none" stroke="black" points="223,-0.5 223,-30.5 341,-30.5 341,-0.5 223,-0.5"/>
<text text-anchor="start" x="231" y="-18.5" font-family="Helvetica,sans-Serif" font-size="10.00">/travis/pairinteraction</text>
<text text-anchor="middle" x="282" y="-7.5" font-family="Helvetica,sans-Serif" font-size="10.00">/HamiltonianTwo.cpp</text>
</a>
</g>
</g>
<!-- Node45&#45;&gt;Node46 -->
<g id="edge4" class="edge"><title>Node45&#45;&gt;Node46</title>
<path fill="none" stroke="midnightblue" d="M249.843,-59.1575C256.988,-49.6788 265.1,-38.9186 271.388,-30.5765"/>
<polygon fill="midnightblue" stroke="midnightblue" points="246.857,-57.3038 243.632,-67.396 252.447,-61.5176 246.857,-57.3038"/>
</g>
<!-- Node45&#45;&gt;Node47 -->
<g id="edge5" class="edge"><title>Node45&#45;&gt;Node47</title>
<path fill="none" stroke="midnightblue" d="M205.786,-61.1677C192.482,-51.2283 176.804,-39.5144 164.841,-30.5765"/>
<polygon fill="midnightblue" stroke="midnightblue" points="204.016,-64.2145 214.122,-67.396 208.206,-58.6068 204.016,-64.2145"/>
</g>
</g>
</svg>
