<?xml version="1.0" encoding="UTF-8" standalone="no"?>
<!DOCTYPE svg PUBLIC "-//W3C//DTD SVG 1.1//EN"
 "http://www.w3.org/Graphics/SVG/1.1/DTD/svg11.dtd">
<!-- Generated by graphviz version 2.38.0 (20140413.2041)
 -->
<!-- Title: Graphical Class Hierarchy Pages: 1 -->
<svg width="181pt" height="66pt"
 viewBox="0.00 0.00 181.00 66.00" xmlns="http://www.w3.org/2000/svg" xmlns:xlink="http://www.w3.org/1999/xlink">
<g id="graph0" class="graph" transform="scale(1 1) rotate(0) translate(4 62)">
<title>Graphical Class Hierarchy</title>
<!-- Node0 -->
<g id="node1" class="node"><title>Node0</title>
<g id="a_node1"><a xlink:href="classStateOld.html" target="_top" xlink:title="Base class for states ">
<polygon fill="none" stroke="black" points="0,-19.5 0,-38.5 59,-38.5 59,-19.5 0,-19.5"/>
<text text-anchor="middle" x="29.5" y="-26.5" font-family="Helvetica,sans-Serif" font-size="10.00">StateOld</text>
</a>
</g>
</g>
<!-- Node1 -->
<g id="node2" class="node"><title>Node1</title>
<g id="a_node2"><a xlink:href="classStateOneOld.html" target="_top" xlink:title="One&#45;atom Rydberg state ">
<polygon fill="none" stroke="black" points="95,-38.5 95,-57.5 173,-57.5 173,-38.5 95,-38.5"/>
<text text-anchor="middle" x="134" y="-45.5" font-family="Helvetica,sans-Serif" font-size="10.00">StateOneOld</text>
</a>
</g>
</g>
<!-- Node0&#45;&gt;Node1 -->
<g id="edge1" class="edge"><title>Node0&#45;&gt;Node1</title>
<path fill="none" stroke="midnightblue" d="M68.9803,-36.1329C77.3722,-37.6885 86.252,-39.3345 94.6392,-40.8892"/>
<polygon fill="midnightblue" stroke="midnightblue" points="69.5224,-32.6739 59.052,-34.2926 68.2465,-39.5566 69.5224,-32.6739"/>
</g>
<!-- Node2 -->
<g id="node3" class="node"><title>Node2</title>
<g id="a_node3"><a xlink:href="classStateTwoOld.html" target="_top" xlink:title="Two&#45;atom Rydberg state ">
<polygon fill="none" stroke="black" points="95.5,-0.5 95.5,-19.5 172.5,-19.5 172.5,-0.5 95.5,-0.5"/>
<text text-anchor="middle" x="134" y="-7.5" font-family="Helvetica,sans-Serif" font-size="10.00">StateTwoOld</text>
</a>
</g>
</g>
<!-- Node0&#45;&gt;Node2 -->
<g id="edge2" class="edge"><title>Node0&#45;&gt;Node2</title>
<path fill="none" stroke="midnightblue" d="M68.9179,-21.8786C77.5819,-20.2726 86.7689,-18.5697 95.3989,-16.97"/>
<polygon fill="midnightblue" stroke="midnightblue" points="68.2465,-18.4434 59.052,-23.7074 69.5224,-25.3261 68.2465,-18.4434"/>
</g>
</g>
</svg>
