<?xml version="1.0" encoding="UTF-8" standalone="no"?>
<!DOCTYPE svg PUBLIC "-//W3C//DTD SVG 1.1//EN"
 "http://www.w3.org/Graphics/SVG/1.1/DTD/svg11.dtd">
<!-- Generated by graphviz version 2.38.0 (20140413.2041)
 -->
<!-- Title: compute Pages: 1 -->
<svg width="602pt" height="199pt"
 viewBox="0.00 0.00 602.00 199.00" xmlns="http://www.w3.org/2000/svg" xmlns:xlink="http://www.w3.org/1999/xlink">
<g id="graph0" class="graph" transform="scale(1 1) rotate(0) translate(4 195)">
<title>compute</title>
<!-- Node0 -->
<g id="node1" class="node"><title>Node0</title>
<polygon fill="#bfbfbf" stroke="black" points="0,-95.5 0,-114.5 59,-114.5 59,-95.5 0,-95.5"/>
<text text-anchor="middle" x="29.5" y="-102.5" font-family="Helvetica,sans-Serif" font-size="10.00">compute</text>
</g>
<!-- Node1 -->
<g id="node2" class="node"><title>Node1</title>
<g id="a_node2"><a xlink:href="classConfiguration.html#abe48f0d77849495ff50e92a51b6da4ed" target="_top" xlink:title="Number of elements matching specific key. ">
<polygon fill="none" stroke="black" points="118,-171.5 118,-190.5 231,-190.5 231,-171.5 118,-171.5"/>
<text text-anchor="middle" x="174.5" y="-178.5" font-family="Helvetica,sans-Serif" font-size="10.00">Configuration::count</text>
</a>
</g>
</g>
<!-- Node0&#45;&gt;Node1 -->
<g id="edge1" class="edge"><title>Node0&#45;&gt;Node1</title>
<path fill="none" stroke="midnightblue" d="M38.6272,-114.658C49.9376,-127.459 71.6783,-149.84 95,-162 99.546,-164.37 104.395,-166.451 109.367,-168.277"/>
<polygon fill="midnightblue" stroke="midnightblue" points="108.441,-171.657 119.034,-171.482 110.644,-165.012 108.441,-171.657"/>
</g>
<!-- Node2 -->
<g id="node3" class="node"><title>Node2</title>
<g id="a_node3"><a xlink:href="classBasisnamesOne.html#ab3030f74ccafcc178f38e7a8ada13b9b" target="_top" xlink:title="BasisnamesOne::fromBoth">
<polygon fill="none" stroke="black" points="101.5,-57.5 101.5,-76.5 247.5,-76.5 247.5,-57.5 101.5,-57.5"/>
<text text-anchor="middle" x="174.5" y="-64.5" font-family="Helvetica,sans-Serif" font-size="10.00">BasisnamesOne::fromBoth</text>
</a>
</g>
</g>
<!-- Node0&#45;&gt;Node2 -->
<g id="edge2" class="edge"><title>Node0&#45;&gt;Node2</title>
<path fill="none" stroke="midnightblue" d="M59.312,-96.1848C70.4299,-92.8695 83.2736,-89.1442 95,-86 103.852,-83.6265 113.301,-81.2265 122.465,-78.9682"/>
<polygon fill="midnightblue" stroke="midnightblue" points="123.369,-82.3504 132.255,-76.5813 121.711,-75.5496 123.369,-82.3504"/>
</g>
<!-- Node8 -->
<g id="node9" class="node"><title>Node8</title>
<g id="a_node9"><a xlink:href="classBasisnamesOne.html#a37fe3571090885a8a594eed4019befa9" target="_top" xlink:title="BasisnamesOne::fromFirst">
<polygon fill="none" stroke="black" points="103,-133.5 103,-152.5 246,-152.5 246,-133.5 103,-133.5"/>
<text text-anchor="middle" x="174.5" y="-140.5" font-family="Helvetica,sans-Serif" font-size="10.00">BasisnamesOne::fromFirst</text>
</a>
</g>
</g>
<!-- Node0&#45;&gt;Node8 -->
<g id="edge10" class="edge"><title>Node0&#45;&gt;Node8</title>
<path fill="none" stroke="midnightblue" d="M59.312,-113.815C70.4299,-117.13 83.2736,-120.856 95,-124 103.852,-126.374 113.301,-128.774 122.465,-131.032"/>
<polygon fill="midnightblue" stroke="midnightblue" points="121.711,-134.45 132.255,-133.419 123.369,-127.65 121.711,-134.45"/>
</g>
<!-- Node9 -->
<g id="node10" class="node"><title>Node9</title>
<g id="a_node10"><a xlink:href="classBasisnamesOne.html#a683ae34cba3c56f9a0185e932de62078" target="_top" xlink:title="BasisnamesOne::fromSecond">
<polygon fill="none" stroke="black" points="95,-95.5 95,-114.5 254,-114.5 254,-95.5 95,-95.5"/>
<text text-anchor="middle" x="174.5" y="-102.5" font-family="Helvetica,sans-Serif" font-size="10.00">BasisnamesOne::fromSecond</text>
</a>
</g>
</g>
<!-- Node0&#45;&gt;Node9 -->
<g id="edge12" class="edge"><title>Node0&#45;&gt;Node9</title>
<path fill="none" stroke="midnightblue" d="M59.0945,-105C66.8159,-105 75.5967,-105 84.7804,-105"/>
<polygon fill="midnightblue" stroke="midnightblue" points="84.873,-108.5 94.8729,-105 84.8729,-101.5 84.873,-108.5"/>
</g>
<!-- Node10 -->
<g id="node11" class="node"><title>Node10</title>
<g id="a_node11"><a xlink:href="classConfiguration.html#a545d28b3d64edc05331ee71898acfd1c" target="_top" xlink:title="Load configuration from JSON file. ">
<polygon fill="none" stroke="black" points="121,-8 121,-38 228,-38 228,-8 121,-8"/>
<text text-anchor="start" x="129" y="-26" font-family="Helvetica,sans-Serif" font-size="10.00">Configuration::load</text>
<text text-anchor="middle" x="174.5" y="-15" font-family="Helvetica,sans-Serif" font-size="10.00">_from_json</text>
</a>
</g>
</g>
<!-- Node0&#45;&gt;Node10 -->
<g id="edge14" class="edge"><title>Node0&#45;&gt;Node10</title>
<path fill="none" stroke="midnightblue" d="M39.1523,-95.1511C50.7139,-82.5521 72.3835,-60.8304 95,-48 100.101,-45.1064 105.581,-42.4984 111.189,-40.1588"/>
<polygon fill="midnightblue" stroke="midnightblue" points="112.642,-43.3492 120.701,-36.4716 110.112,-36.8223 112.642,-43.3492"/>
</g>
<!-- Node3 -->
<g id="node4" class="node"><title>Node3</title>
<g id="a_node4"><a xlink:href="classBasisnames.html#a534f7e2dcc2987a1f969cb89c070da04" target="_top" xlink:title="Basisnames::configure">
<polygon fill="none" stroke="black" points="290,-114.5 290,-133.5 415,-133.5 415,-114.5 290,-114.5"/>
<text text-anchor="middle" x="352.5" y="-121.5" font-family="Helvetica,sans-Serif" font-size="10.00">Basisnames::configure</text>
</a>
</g>
</g>
<!-- Node2&#45;&gt;Node3 -->
<g id="edge3" class="edge"><title>Node2&#45;&gt;Node3</title>
<path fill="none" stroke="midnightblue" d="M219.384,-76.522C230.742,-79.2859 242.897,-82.5101 254,-86 254.417,-86.131 289.551,-99.8307 317.521,-110.742"/>
<polygon fill="midnightblue" stroke="midnightblue" points="316.459,-114.084 327.047,-114.458 319.003,-107.563 316.459,-114.084"/>
</g>
<!-- Node4 -->
<g id="node5" class="node"><title>Node4</title>
<g id="a_node5"><a xlink:href="classStateTwoOld.html#a1d7ff079f51711e8a6f40946e5677be8" target="_top" xlink:title="StateTwoOld::order">
<polygon fill="none" stroke="black" points="298.5,-38.5 298.5,-57.5 406.5,-57.5 406.5,-38.5 298.5,-38.5"/>
<text text-anchor="middle" x="352.5" y="-45.5" font-family="Helvetica,sans-Serif" font-size="10.00">StateTwoOld::order</text>
</a>
</g>
</g>
<!-- Node2&#45;&gt;Node4 -->
<g id="edge4" class="edge"><title>Node2&#45;&gt;Node4</title>
<path fill="none" stroke="midnightblue" d="M247.594,-59.2172C261.135,-57.7553 275.196,-56.2374 288.436,-54.8081"/>
<polygon fill="midnightblue" stroke="midnightblue" points="288.812,-58.2879 298.378,-53.7348 288.06,-51.3284 288.812,-58.2879"/>
</g>
<!-- Node6 -->
<g id="node7" class="node"><title>Node6</title>
<g id="a_node7"><a xlink:href="classStateTwoOld.html#a6efa9c8f92e433004b778f6f5ce212d9" target="_top" xlink:title="StateTwoOld::second">
<polygon fill="none" stroke="black" points="464,-0.5 464,-19.5 581,-19.5 581,-0.5 464,-0.5"/>
<text text-anchor="middle" x="522.5" y="-7.5" font-family="Helvetica,sans-Serif" font-size="10.00">StateTwoOld::second</text>
</a>
</g>
</g>
<!-- Node2&#45;&gt;Node6 -->
<g id="edge9" class="edge"><title>Node2&#45;&gt;Node6</title>
<path fill="none" stroke="midnightblue" d="M220.02,-57.4203C231.255,-54.524 243.193,-51.0254 254,-47 270.763,-40.756 272.773,-33.8192 290,-29 343.728,-13.9701 406.996,-9.63611 453.8,-8.82701"/>
<polygon fill="midnightblue" stroke="midnightblue" points="453.871,-12.3265 463.827,-8.70301 453.785,-5.32704 453.871,-12.3265"/>
</g>
<!-- Node7 -->
<g id="node8" class="node"><title>Node7</title>
<g id="a_node8"><a xlink:href="classStateTwoOld.html#aad5fb4307dec316a5b602c2e8bfae0a8" target="_top" xlink:title="StateTwoOld::first">
<polygon fill="none" stroke="black" points="472,-76.5 472,-95.5 573,-95.5 573,-76.5 472,-76.5"/>
<text text-anchor="middle" x="522.5" y="-83.5" font-family="Helvetica,sans-Serif" font-size="10.00">StateTwoOld::first</text>
</a>
</g>
</g>
<!-- Node2&#45;&gt;Node7 -->
<g id="edge8" class="edge"><title>Node2&#45;&gt;Node7</title>
<path fill="none" stroke="midnightblue" d="M247.612,-70.9599C310.949,-74.4379 402.017,-79.4388 461.465,-82.7033"/>
<polygon fill="midnightblue" stroke="midnightblue" points="461.641,-86.2181 471.818,-83.2718 462.025,-79.2287 461.641,-86.2181"/>
</g>
<!-- Node5 -->
<g id="node6" class="node"><title>Node5</title>
<g id="a_node6"><a xlink:href="classStateTwoOld.html#a33b595b744249754cb86bde5cd125c06" target="_top" xlink:title="StateTwoOld::StateTwoOld">
<polygon fill="none" stroke="black" points="451,-38.5 451,-57.5 594,-57.5 594,-38.5 451,-38.5"/>
<text text-anchor="middle" x="522.5" y="-45.5" font-family="Helvetica,sans-Serif" font-size="10.00">StateTwoOld::StateTwoOld</text>
</a>
</g>
</g>
<!-- Node4&#45;&gt;Node5 -->
<g id="edge5" class="edge"><title>Node4&#45;&gt;Node5</title>
<path fill="none" stroke="midnightblue" d="M406.656,-48C417.511,-48 429.165,-48 440.736,-48"/>
<polygon fill="midnightblue" stroke="midnightblue" points="440.861,-51.5001 450.861,-48 440.861,-44.5001 440.861,-51.5001"/>
</g>
<!-- Node4&#45;&gt;Node6 -->
<g id="edge6" class="edge"><title>Node4&#45;&gt;Node6</title>
<path fill="none" stroke="midnightblue" d="M395.893,-38.411C418.263,-33.3513 445.898,-27.1004 469.547,-21.7512"/>
<polygon fill="midnightblue" stroke="midnightblue" points="470.43,-25.1401 479.411,-19.5201 468.886,-18.3125 470.43,-25.1401"/>
</g>
<!-- Node4&#45;&gt;Node7 -->
<g id="edge7" class="edge"><title>Node4&#45;&gt;Node7</title>
<path fill="none" stroke="midnightblue" d="M395.893,-57.589C418.263,-62.6487 445.898,-68.8996 469.547,-74.2488"/>
<polygon fill="midnightblue" stroke="midnightblue" points="468.886,-77.6875 479.411,-76.4799 470.43,-70.8599 468.886,-77.6875"/>
</g>
<!-- Node8&#45;&gt;Node3 -->
<g id="edge11" class="edge"><title>Node8&#45;&gt;Node3</title>
<path fill="none" stroke="midnightblue" d="M246.072,-135.381C257.201,-134.18 268.718,-132.937 279.871,-131.733"/>
<polygon fill="midnightblue" stroke="midnightblue" points="280.424,-135.193 289.99,-130.64 279.672,-128.234 280.424,-135.193"/>
</g>
<!-- Node9&#45;&gt;Node3 -->
<g id="edge13" class="edge"><title>Node9&#45;&gt;Node3</title>
<path fill="none" stroke="midnightblue" d="M254.234,-113.5C262.758,-114.42 271.399,-115.353 279.833,-116.263"/>
<polygon fill="midnightblue" stroke="midnightblue" points="279.678,-119.767 289.996,-117.36 280.429,-112.807 279.678,-119.767"/>
</g>
</g>
</svg>
