<?xml version="1.0" encoding="UTF-8" standalone="no"?>
<!DOCTYPE svg PUBLIC "-//W3C//DTD SVG 1.1//EN"
 "http://www.w3.org/Graphics/SVG/1.1/DTD/svg11.dtd">
<!-- Generated by graphviz version 2.38.0 (20140413.2041)
 -->
<!-- Title: /travis/pairinteraction/Iter.h Pages: 1 -->
<svg width="1146pt" height="452pt"
 viewBox="0.00 0.00 1145.50 452.00" xmlns="http://www.w3.org/2000/svg" xmlns:xlink="http://www.w3.org/1999/xlink">
<g id="graph0" class="graph" transform="scale(1 1) rotate(0) translate(4 448)">
<title>/travis/pairinteraction/Iter.h</title>
<!-- Node1 -->
<g id="node1" class="node"><title>Node1</title>
<polygon fill="#bfbfbf" stroke="black" points="258,-413.5 258,-443.5 376,-443.5 376,-413.5 258,-413.5"/>
<text text-anchor="start" x="266" y="-431.5" font-family="Helvetica,sans-Serif" font-size="10.00">/travis/pairinteraction</text>
<text text-anchor="middle" x="317" y="-420.5" font-family="Helvetica,sans-Serif" font-size="10.00">/Iter.h</text>
</g>
<!-- Node2 -->
<g id="node2" class="node"><title>Node2</title>
<g id="a_node2"><a xlink:href="Basisnames_8h.html" target="_top" xlink:title="/travis/pairinteraction\l/Basisnames.h">
<polygon fill="none" stroke="black" points="258,-346.5 258,-376.5 376,-376.5 376,-346.5 258,-346.5"/>
<text text-anchor="start" x="266" y="-364.5" font-family="Helvetica,sans-Serif" font-size="10.00">/travis/pairinteraction</text>
<text text-anchor="middle" x="317" y="-353.5" font-family="Helvetica,sans-Serif" font-size="10.00">/Basisnames.h</text>
</a>
</g>
</g>
<!-- Node1&#45;&gt;Node2 -->
<g id="edge1" class="edge"><title>Node1&#45;&gt;Node2</title>
<path fill="none" stroke="midnightblue" d="M317,-403.108C317,-394.154 317,-384.323 317,-376.577"/>
<polygon fill="midnightblue" stroke="midnightblue" points="313.5,-403.396 317,-413.396 320.5,-403.396 313.5,-403.396"/>
</g>
<!-- Node3 -->
<g id="node3" class="node"><title>Node3</title>
<g id="a_node3"><a xlink:href="Basisnames_8cpp.html" target="_top" xlink:title="/travis/pairinteraction\l/Basisnames.cpp">
<polygon fill="none" stroke="black" points="0,-279.5 0,-309.5 118,-309.5 118,-279.5 0,-279.5"/>
<text text-anchor="start" x="8" y="-297.5" font-family="Helvetica,sans-Serif" font-size="10.00">/travis/pairinteraction</text>
<text text-anchor="middle" x="59" y="-286.5" font-family="Helvetica,sans-Serif" font-size="10.00">/Basisnames.cpp</text>
</a>
</g>
</g>
<!-- Node2&#45;&gt;Node3 -->
<g id="edge2" class="edge"><title>Node2&#45;&gt;Node3</title>
<path fill="none" stroke="midnightblue" d="M251.446,-343.984C209.305,-333.367 155.135,-319.72 115.009,-309.611"/>
<polygon fill="midnightblue" stroke="midnightblue" points="250.783,-347.427 261.335,-346.476 252.494,-340.639 250.783,-347.427"/>
</g>
<!-- Node4 -->
<g id="node4" class="node"><title>Node4</title>
<g id="a_node4"><a xlink:href="Hamiltonianmatrix_8h.html" target="_top" xlink:title="/travis/pairinteraction\l/Hamiltonianmatrix.h">
<polygon fill="none" stroke="black" points="315,-279.5 315,-309.5 433,-309.5 433,-279.5 315,-279.5"/>
<text text-anchor="start" x="323" y="-297.5" font-family="Helvetica,sans-Serif" font-size="10.00">/travis/pairinteraction</text>
<text text-anchor="middle" x="374" y="-286.5" font-family="Helvetica,sans-Serif" font-size="10.00">/Hamiltonianmatrix.h</text>
</a>
</g>
</g>
<!-- Node2&#45;&gt;Node4 -->
<g id="edge3" class="edge"><title>Node2&#45;&gt;Node4</title>
<path fill="none" stroke="midnightblue" d="M336.085,-338.736C344.519,-329.119 354.191,-318.089 361.656,-309.577"/>
<polygon fill="midnightblue" stroke="midnightblue" points="333.33,-336.57 329.368,-346.396 338.593,-341.185 333.33,-336.57"/>
</g>
<!-- Node6 -->
<g id="node6" class="node"><title>Node6</title>
<g id="a_node6"><a xlink:href="HamiltonianOne_8h.html" target="_top" xlink:title="/travis/pairinteraction\l/HamiltonianOne.h">
<polygon fill="none" stroke="black" points="315,-145.5 315,-175.5 433,-175.5 433,-145.5 315,-145.5"/>
<text text-anchor="start" x="323" y="-163.5" font-family="Helvetica,sans-Serif" font-size="10.00">/travis/pairinteraction</text>
<text text-anchor="middle" x="374" y="-152.5" font-family="Helvetica,sans-Serif" font-size="10.00">/HamiltonianOne.h</text>
</a>
</g>
</g>
<!-- Node2&#45;&gt;Node6 -->
<g id="edge13" class="edge"><title>Node2&#45;&gt;Node6</title>
<path fill="none" stroke="midnightblue" d="M272.502,-342.165C214.298,-315.562 124.255,-263.762 165,-212 169.748,-205.969 254.691,-186.837 314.806,-173.931"/>
<polygon fill="midnightblue" stroke="midnightblue" points="271.342,-345.48 281.899,-346.369 274.2,-339.09 271.342,-345.48"/>
</g>
<!-- Node8 -->
<g id="node8" class="node"><title>Node8</title>
<g id="a_node8"><a xlink:href="HamiltonianTwo_8h.html" target="_top" xlink:title="/travis/pairinteraction\l/HamiltonianTwo.h">
<polygon fill="none" stroke="black" points="453,-78.5 453,-108.5 571,-108.5 571,-78.5 453,-78.5"/>
<text text-anchor="start" x="461" y="-96.5" font-family="Helvetica,sans-Serif" font-size="10.00">/travis/pairinteraction</text>
<text text-anchor="middle" x="512" y="-85.5" font-family="Helvetica,sans-Serif" font-size="10.00">/HamiltonianTwo.h</text>
</a>
</g>
</g>
<!-- Node2&#45;&gt;Node8 -->
<g id="edge18" class="edge"><title>Node2&#45;&gt;Node8</title>
<path fill="none" stroke="midnightblue" d="M386.172,-351.514C449.819,-339.139 540.566,-310.145 583,-243 612.464,-196.378 557.147,-135.649 528.137,-108.583"/>
<polygon fill="midnightblue" stroke="midnightblue" points="385.396,-348.098 376.201,-353.361 386.671,-354.981 385.396,-348.098"/>
</g>
<!-- Node12 -->
<g id="node12" class="node"><title>Node12</title>
<g id="a_node12"><a xlink:href="MatrixElements_8h.html" target="_top" xlink:title="/travis/pairinteraction\l/MatrixElements.h">
<polygon fill="none" stroke="black" points="174,-212.5 174,-242.5 292,-242.5 292,-212.5 174,-212.5"/>
<text text-anchor="start" x="182" y="-230.5" font-family="Helvetica,sans-Serif" font-size="10.00">/travis/pairinteraction</text>
<text text-anchor="middle" x="233" y="-219.5" font-family="Helvetica,sans-Serif" font-size="10.00">/MatrixElements.h</text>
</a>
</g>
</g>
<!-- Node2&#45;&gt;Node12 -->
<g id="edge14" class="edge"><title>Node2&#45;&gt;Node12</title>
<path fill="none" stroke="midnightblue" d="M302.576,-337.834C285.16,-310.466 256.408,-265.284 241.925,-242.525"/>
<polygon fill="midnightblue" stroke="midnightblue" points="299.689,-339.816 308.011,-346.374 305.595,-336.058 299.689,-339.816"/>
</g>
<!-- Node14 -->
<g id="node14" class="node"><title>Node14</title>
<g id="a_node14"><a xlink:href="MatrixElementCache_8h.html" target="_top" xlink:title="/travis/pairinteraction\l/MatrixElementCache.h">
<polygon fill="none" stroke="black" points="799,-279.5 799,-309.5 927,-309.5 927,-279.5 799,-279.5"/>
<text text-anchor="start" x="807" y="-297.5" font-family="Helvetica,sans-Serif" font-size="10.00">/travis/pairinteraction</text>
<text text-anchor="middle" x="863" y="-286.5" font-family="Helvetica,sans-Serif" font-size="10.00">/MatrixElementCache.h</text>
</a>
</g>
</g>
<!-- Node2&#45;&gt;Node14 -->
<g id="edge19" class="edge"><title>Node2&#45;&gt;Node14</title>
<path fill="none" stroke="midnightblue" d="M386.216,-352.26C492.782,-339.574 695.515,-315.439 798.902,-303.131"/>
<polygon fill="midnightblue" stroke="midnightblue" points="385.727,-348.793 376.21,-353.451 386.554,-355.744 385.727,-348.793"/>
</g>
<!-- Node5 -->
<g id="node5" class="node"><title>Node5</title>
<g id="a_node5"><a xlink:href="Hamiltonian_8h.html" target="_top" xlink:title="/travis/pairinteraction\l/Hamiltonian.h">
<polygon fill="none" stroke="black" points="456,-212.5 456,-242.5 574,-242.5 574,-212.5 456,-212.5"/>
<text text-anchor="start" x="464" y="-230.5" font-family="Helvetica,sans-Serif" font-size="10.00">/travis/pairinteraction</text>
<text text-anchor="middle" x="515" y="-219.5" font-family="Helvetica,sans-Serif" font-size="10.00">/Hamiltonian.h</text>
</a>
</g>
</g>
<!-- Node4&#45;&gt;Node5 -->
<g id="edge4" class="edge"><title>Node4&#45;&gt;Node5</title>
<path fill="none" stroke="midnightblue" d="M413.848,-275.131C436.252,-264.802 463.784,-252.11 484.465,-242.577"/>
<polygon fill="midnightblue" stroke="midnightblue" points="412.211,-272.031 404.595,-279.396 415.142,-278.388 412.211,-272.031"/>
</g>
<!-- Node11 -->
<g id="node11" class="node"><title>Node11</title>
<g id="a_node11"><a xlink:href="Hamiltonianmatrix_8cpp.html" target="_top" xlink:title="/travis/pairinteraction\l/Hamiltonianmatrix.cpp">
<polygon fill="none" stroke="black" points="310,-212.5 310,-242.5 438,-242.5 438,-212.5 310,-212.5"/>
<text text-anchor="start" x="318" y="-230.5" font-family="Helvetica,sans-Serif" font-size="10.00">/travis/pairinteraction</text>
<text text-anchor="middle" x="374" y="-219.5" font-family="Helvetica,sans-Serif" font-size="10.00">/Hamiltonianmatrix.cpp</text>
</a>
</g>
</g>
<!-- Node4&#45;&gt;Node11 -->
<g id="edge12" class="edge"><title>Node4&#45;&gt;Node11</title>
<path fill="none" stroke="midnightblue" d="M374,-269.108C374,-260.154 374,-250.323 374,-242.577"/>
<polygon fill="midnightblue" stroke="midnightblue" points="370.5,-269.396 374,-279.396 377.5,-269.396 370.5,-269.396"/>
</g>
<!-- Node5&#45;&gt;Node6 -->
<g id="edge5" class="edge"><title>Node5&#45;&gt;Node6</title>
<path fill="none" stroke="midnightblue" d="M475.152,-208.131C452.748,-197.802 425.216,-185.11 404.535,-175.577"/>
<polygon fill="midnightblue" stroke="midnightblue" points="473.858,-211.388 484.405,-212.396 476.789,-205.031 473.858,-211.388"/>
</g>
<!-- Node5&#45;&gt;Node8 -->
<g id="edge11" class="edge"><title>Node5&#45;&gt;Node8</title>
<path fill="none" stroke="midnightblue" d="M514.444,-202.024C513.818,-174.512 512.825,-130.789 512.319,-108.525"/>
<polygon fill="midnightblue" stroke="midnightblue" points="510.953,-202.456 514.679,-212.374 517.951,-202.297 510.953,-202.456"/>
</g>
<!-- Node7 -->
<g id="node7" class="node"><title>Node7</title>
<g id="a_node7"><a xlink:href="HamiltonianOne_8cpp.html" target="_top" xlink:title="/travis/pairinteraction\l/HamiltonianOne.cpp">
<polygon fill="none" stroke="black" points="317,-78.5 317,-108.5 435,-108.5 435,-78.5 317,-78.5"/>
<text text-anchor="start" x="325" y="-96.5" font-family="Helvetica,sans-Serif" font-size="10.00">/travis/pairinteraction</text>
<text text-anchor="middle" x="376" y="-85.5" font-family="Helvetica,sans-Serif" font-size="10.00">/HamiltonianOne.cpp</text>
</a>
</g>
</g>
<!-- Node6&#45;&gt;Node7 -->
<g id="edge6" class="edge"><title>Node6&#45;&gt;Node7</title>
<path fill="none" stroke="midnightblue" d="M374.751,-135.108C375.026,-126.154 375.329,-116.323 375.567,-108.577"/>
<polygon fill="midnightblue" stroke="midnightblue" points="371.243,-135.293 374.434,-145.396 378.24,-135.508 371.243,-135.293"/>
</g>
<!-- Node6&#45;&gt;Node8 -->
<g id="edge7" class="edge"><title>Node6&#45;&gt;Node8</title>
<path fill="none" stroke="midnightblue" d="M413,-141.131C434.927,-130.802 461.874,-118.11 482.114,-108.577"/>
<polygon fill="midnightblue" stroke="midnightblue" points="411.499,-137.968 403.944,-145.396 414.482,-144.301 411.499,-137.968"/>
</g>
<!-- Node10 -->
<g id="node10" class="node"><title>Node10</title>
<g id="a_node10"><a xlink:href="Interface_8cpp.html" target="_top" xlink:title="/travis/pairinteraction\l/Interface.cpp">
<polygon fill="none" stroke="black" points="274,-6 274,-36 392,-36 392,-6 274,-6"/>
<text text-anchor="start" x="282" y="-24" font-family="Helvetica,sans-Serif" font-size="10.00">/travis/pairinteraction</text>
<text text-anchor="middle" x="333" y="-13" font-family="Helvetica,sans-Serif" font-size="10.00">/Interface.cpp</text>
</a>
</g>
</g>
<!-- Node6&#45;&gt;Node10 -->
<g id="edge10" class="edge"><title>Node6&#45;&gt;Node10</title>
<path fill="none" stroke="midnightblue" d="M336.495,-139.831C325.225,-131.883 314.212,-121.576 308,-109 296.028,-84.7653 311.429,-53.8228 322.825,-36.126"/>
<polygon fill="midnightblue" stroke="midnightblue" points="334.804,-142.907 345.089,-145.448 338.633,-137.047 334.804,-142.907"/>
</g>
<!-- Node9 -->
<g id="node9" class="node"><title>Node9</title>
<g id="a_node9"><a xlink:href="HamiltonianTwo_8cpp.html" target="_top" xlink:title="/travis/pairinteraction\l/HamiltonianTwo.cpp">
<polygon fill="none" stroke="black" points="453,-6 453,-36 571,-36 571,-6 453,-6"/>
<text text-anchor="start" x="461" y="-24" font-family="Helvetica,sans-Serif" font-size="10.00">/travis/pairinteraction</text>
<text text-anchor="middle" x="512" y="-13" font-family="Helvetica,sans-Serif" font-size="10.00">/HamiltonianTwo.cpp</text>
</a>
</g>
</g>
<!-- Node8&#45;&gt;Node9 -->
<g id="edge8" class="edge"><title>Node8&#45;&gt;Node9</title>
<path fill="none" stroke="midnightblue" d="M512,-68.2317C512,-57.5679 512,-45.4145 512,-36.2455"/>
<polygon fill="midnightblue" stroke="midnightblue" points="508.5,-68.2332 512,-78.2333 515.5,-68.2333 508.5,-68.2332"/>
</g>
<!-- Node8&#45;&gt;Node10 -->
<g id="edge9" class="edge"><title>Node8&#45;&gt;Node10</title>
<path fill="none" stroke="midnightblue" d="M466.69,-74.6546C436.32,-62.6929 396.885,-47.1615 368.731,-36.0729"/>
<polygon fill="midnightblue" stroke="midnightblue" points="465.62,-77.9946 476.207,-78.4027 468.185,-71.4816 465.62,-77.9946"/>
</g>
<!-- Node12&#45;&gt;Node6 -->
<g id="edge15" class="edge"><title>Node12&#45;&gt;Node6</title>
<path fill="none" stroke="midnightblue" d="M272.848,-208.131C295.252,-197.802 322.784,-185.11 343.465,-175.577"/>
<polygon fill="midnightblue" stroke="midnightblue" points="271.211,-205.031 263.595,-212.396 274.142,-211.388 271.211,-205.031"/>
</g>
<!-- Node12&#45;&gt;Node8 -->
<g id="edge16" class="edge"><title>Node12&#45;&gt;Node8</title>
<path fill="none" stroke="midnightblue" d="M302.01,-210.892C360.484,-197.499 435.83,-179.776 442,-176 469.842,-158.964 492.33,-127.134 503.773,-108.698"/>
<polygon fill="midnightblue" stroke="midnightblue" points="301.016,-207.528 292.047,-213.169 302.576,-214.352 301.016,-207.528"/>
</g>
<!-- Node13 -->
<g id="node13" class="node"><title>Node13</title>
<g id="a_node13"><a xlink:href="MatrixElements_8cpp.html" target="_top" xlink:title="/travis/pairinteraction\l/MatrixElements.cpp">
<polygon fill="none" stroke="black" points="174,-145.5 174,-175.5 292,-175.5 292,-145.5 174,-145.5"/>
<text text-anchor="start" x="182" y="-163.5" font-family="Helvetica,sans-Serif" font-size="10.00">/travis/pairinteraction</text>
<text text-anchor="middle" x="233" y="-152.5" font-family="Helvetica,sans-Serif" font-size="10.00">/MatrixElements.cpp</text>
</a>
</g>
</g>
<!-- Node12&#45;&gt;Node13 -->
<g id="edge17" class="edge"><title>Node12&#45;&gt;Node13</title>
<path fill="none" stroke="midnightblue" d="M233,-202.108C233,-193.154 233,-183.323 233,-175.577"/>
<polygon fill="midnightblue" stroke="midnightblue" points="229.5,-202.396 233,-212.396 236.5,-202.396 229.5,-202.396"/>
</g>
<!-- Node15 -->
<g id="node15" class="node"><title>Node15</title>
<g id="a_node15"><a xlink:href="MatrixElementCache_8cpp.html" target="_top" xlink:title="/travis/pairinteraction\l/MatrixElementCache.cpp">
<polygon fill="none" stroke="black" points="793.5,-212.5 793.5,-242.5 932.5,-242.5 932.5,-212.5 793.5,-212.5"/>
<text text-anchor="start" x="801.5" y="-230.5" font-family="Helvetica,sans-Serif" font-size="10.00">/travis/pairinteraction</text>
<text text-anchor="middle" x="863" y="-219.5" font-family="Helvetica,sans-Serif" font-size="10.00">/MatrixElementCache.cpp</text>
</a>
</g>
</g>
<!-- Node14&#45;&gt;Node15 -->
<g id="edge20" class="edge"><title>Node14&#45;&gt;Node15</title>
<path fill="none" stroke="midnightblue" d="M863,-269.108C863,-260.154 863,-250.323 863,-242.577"/>
<polygon fill="midnightblue" stroke="midnightblue" points="859.5,-269.396 863,-279.396 866.5,-269.396 859.5,-269.396"/>
</g>
<!-- Node16 -->
<g id="node16" class="node"><title>Node16</title>
<g id="a_node16"><a xlink:href="PerturbativeInteraction_8h.html" target="_top" xlink:title="/travis/pairinteraction\l/PerturbativeInteraction.h">
<polygon fill="none" stroke="black" points="991,-212.5 991,-242.5 1129,-242.5 1129,-212.5 991,-212.5"/>
<text text-anchor="start" x="999" y="-230.5" font-family="Helvetica,sans-Serif" font-size="10.00">/travis/pairinteraction</text>
<text text-anchor="middle" x="1060" y="-219.5" font-family="Helvetica,sans-Serif" font-size="10.00">/PerturbativeInteraction.h</text>
</a>
</g>
</g>
<!-- Node14&#45;&gt;Node16 -->
<g id="edge21" class="edge"><title>Node14&#45;&gt;Node16</title>
<path fill="none" stroke="midnightblue" d="M915.348,-276.228C947.216,-265.713 987.411,-252.451 1017.34,-242.577"/>
<polygon fill="midnightblue" stroke="midnightblue" points="914.146,-272.939 905.746,-279.396 916.339,-279.586 914.146,-272.939"/>
</g>
<!-- Node18 -->
<g id="node18" class="node"><title>Node18</title>
<g id="a_node18"><a xlink:href="SystemBase_8h.html" target="_top" xlink:title="/travis/pairinteraction\l/SystemBase.h">
<polygon fill="none" stroke="black" points="657,-212.5 657,-242.5 775,-242.5 775,-212.5 657,-212.5"/>
<text text-anchor="start" x="665" y="-230.5" font-family="Helvetica,sans-Serif" font-size="10.00">/travis/pairinteraction</text>
<text text-anchor="middle" x="716" y="-219.5" font-family="Helvetica,sans-Serif" font-size="10.00">/SystemBase.h</text>
</a>
</g>
</g>
<!-- Node14&#45;&gt;Node18 -->
<g id="edge23" class="edge"><title>Node14&#45;&gt;Node18</title>
<path fill="none" stroke="midnightblue" d="M821.769,-275.269C798.356,-264.916 769.492,-252.153 747.835,-242.577"/>
<polygon fill="midnightblue" stroke="midnightblue" points="820.542,-278.553 831.103,-279.396 823.373,-272.151 820.542,-278.553"/>
</g>
<!-- Node24 -->
<g id="node24" class="node"><title>Node24</title>
<g id="a_node24"><a xlink:href="integration__test_8cpp.html" target="_top" xlink:title="/travis/pairinteraction\l/unit_test/integration\l_test.cpp">
<polygon fill="none" stroke="black" points="864,-0.5 864,-41.5 982,-41.5 982,-0.5 864,-0.5"/>
<text text-anchor="start" x="872" y="-29.5" font-family="Helvetica,sans-Serif" font-size="10.00">/travis/pairinteraction</text>
<text text-anchor="start" x="872" y="-18.5" font-family="Helvetica,sans-Serif" font-size="10.00">/unit_test/integration</text>
<text text-anchor="middle" x="923" y="-7.5" font-family="Helvetica,sans-Serif" font-size="10.00">_test.cpp</text>
</a>
</g>
</g>
<!-- Node14&#45;&gt;Node24 -->
<g id="edge32" class="edge"><title>Node14&#45;&gt;Node24</title>
<path fill="none" stroke="midnightblue" d="M908.367,-274.492C921.248,-266.724 933.736,-256.357 941,-243 977.048,-176.718 947.346,-82.3841 931.443,-41.8061"/>
<polygon fill="midnightblue" stroke="midnightblue" points="906.481,-271.536 899.447,-279.459 909.886,-277.652 906.481,-271.536"/>
</g>
<!-- Node17 -->
<g id="node17" class="node"><title>Node17</title>
<g id="a_node17"><a xlink:href="PerturbativeInteraction_8cpp.html" target="_top" xlink:title="/travis/pairinteraction\l/PerturbativeInteraction.cpp">
<polygon fill="none" stroke="black" points="988.5,-145.5 988.5,-175.5 1137.5,-175.5 1137.5,-145.5 988.5,-145.5"/>
<text text-anchor="start" x="996.5" y="-163.5" font-family="Helvetica,sans-Serif" font-size="10.00">/travis/pairinteraction</text>
<text text-anchor="middle" x="1063" y="-152.5" font-family="Helvetica,sans-Serif" font-size="10.00">/PerturbativeInteraction.cpp</text>
</a>
</g>
</g>
<!-- Node16&#45;&gt;Node17 -->
<g id="edge22" class="edge"><title>Node16&#45;&gt;Node17</title>
<path fill="none" stroke="midnightblue" d="M1061.11,-202.403C1061.53,-193.37 1061.99,-183.408 1062.35,-175.577"/>
<polygon fill="midnightblue" stroke="midnightblue" points="1057.62,-202.245 1060.65,-212.396 1064.61,-202.568 1057.62,-202.245"/>
</g>
<!-- Node19 -->
<g id="node19" class="node"><title>Node19</title>
<g id="a_node19"><a xlink:href="SystemBase_8cpp.html" target="_top" xlink:title="/travis/pairinteraction\l/SystemBase.cpp">
<polygon fill="none" stroke="black" points="668,-145.5 668,-175.5 786,-175.5 786,-145.5 668,-145.5"/>
<text text-anchor="start" x="676" y="-163.5" font-family="Helvetica,sans-Serif" font-size="10.00">/travis/pairinteraction</text>
<text text-anchor="middle" x="727" y="-152.5" font-family="Helvetica,sans-Serif" font-size="10.00">/SystemBase.cpp</text>
</a>
</g>
</g>
<!-- Node18&#45;&gt;Node19 -->
<g id="edge24" class="edge"><title>Node18&#45;&gt;Node19</title>
<path fill="none" stroke="midnightblue" d="M720.078,-202.403C721.607,-193.37 723.293,-183.408 724.618,-175.577"/>
<polygon fill="midnightblue" stroke="midnightblue" points="716.605,-201.952 718.387,-212.396 723.506,-203.12 716.605,-201.952"/>
</g>
<!-- Node20 -->
<g id="node20" class="node"><title>Node20</title>
<g id="a_node20"><a xlink:href="SystemOne_8h.html" target="_top" xlink:title="/travis/pairinteraction\l/SystemOne.h">
<polygon fill="none" stroke="black" points="804,-145.5 804,-175.5 922,-175.5 922,-145.5 804,-145.5"/>
<text text-anchor="start" x="812" y="-163.5" font-family="Helvetica,sans-Serif" font-size="10.00">/travis/pairinteraction</text>
<text text-anchor="middle" x="863" y="-152.5" font-family="Helvetica,sans-Serif" font-size="10.00">/SystemOne.h</text>
</a>
</g>
</g>
<!-- Node18&#45;&gt;Node20 -->
<g id="edge25" class="edge"><title>Node18&#45;&gt;Node20</title>
<path fill="none" stroke="midnightblue" d="M757.231,-208.269C780.644,-197.916 809.508,-185.153 831.165,-175.577"/>
<polygon fill="midnightblue" stroke="midnightblue" points="755.627,-205.151 747.897,-212.396 758.458,-211.553 755.627,-205.151"/>
</g>
<!-- Node22 -->
<g id="node22" class="node"><title>Node22</title>
<g id="a_node22"><a xlink:href="SystemTwo_8h.html" target="_top" xlink:title="/travis/pairinteraction\l/SystemTwo.h">
<polygon fill="none" stroke="black" points="641,-78.5 641,-108.5 759,-108.5 759,-78.5 641,-78.5"/>
<text text-anchor="start" x="649" y="-96.5" font-family="Helvetica,sans-Serif" font-size="10.00">/travis/pairinteraction</text>
<text text-anchor="middle" x="700" y="-85.5" font-family="Helvetica,sans-Serif" font-size="10.00">/SystemTwo.h</text>
</a>
</g>
</g>
<!-- Node18&#45;&gt;Node22 -->
<g id="edge31" class="edge"><title>Node18&#45;&gt;Node22</title>
<path fill="none" stroke="midnightblue" d="M683.872,-206.145C674.003,-198.076 664.341,-187.868 659,-176 653.346,-163.436 654.393,-157.985 659,-145 663.985,-130.951 674.73,-117.964 683.969,-108.679"/>
<polygon fill="midnightblue" stroke="midnightblue" points="682.041,-209.149 692.121,-212.41 686.274,-203.575 682.041,-209.149"/>
</g>
<!-- Node21 -->
<g id="node21" class="node"><title>Node21</title>
<g id="a_node21"><a xlink:href="SystemOne_8cpp.html" target="_top" xlink:title="/travis/pairinteraction\l/SystemOne.cpp">
<polygon fill="none" stroke="black" points="777,-78.5 777,-108.5 895,-108.5 895,-78.5 777,-78.5"/>
<text text-anchor="start" x="785" y="-96.5" font-family="Helvetica,sans-Serif" font-size="10.00">/travis/pairinteraction</text>
<text text-anchor="middle" x="836" y="-85.5" font-family="Helvetica,sans-Serif" font-size="10.00">/SystemOne.cpp</text>
</a>
</g>
</g>
<!-- Node20&#45;&gt;Node21 -->
<g id="edge26" class="edge"><title>Node20&#45;&gt;Node21</title>
<path fill="none" stroke="midnightblue" d="M853.235,-135.991C849.419,-126.804 845.171,-116.578 841.847,-108.577"/>
<polygon fill="midnightblue" stroke="midnightblue" points="850.073,-137.504 857.141,-145.396 856.538,-134.818 850.073,-137.504"/>
</g>
<!-- Node20&#45;&gt;Node22 -->
<g id="edge27" class="edge"><title>Node20&#45;&gt;Node22</title>
<path fill="none" stroke="midnightblue" d="M818.317,-141.682C792.175,-131.257 759.634,-118.281 735.3,-108.577"/>
<polygon fill="midnightblue" stroke="midnightblue" points="817.046,-144.943 827.631,-145.396 819.639,-138.441 817.046,-144.943"/>
</g>
<!-- Node20&#45;&gt;Node24 -->
<g id="edge30" class="edge"><title>Node20&#45;&gt;Node24</title>
<path fill="none" stroke="midnightblue" d="M884.334,-137.819C891.549,-129.415 899.028,-119.334 904,-109 914.457,-87.2672 919.225,-59.7149 921.354,-41.5058"/>
<polygon fill="midnightblue" stroke="midnightblue" points="881.676,-135.54 877.589,-145.315 886.88,-140.223 881.676,-135.54"/>
</g>
<!-- Node23 -->
<g id="node23" class="node"><title>Node23</title>
<g id="a_node23"><a xlink:href="SystemTwo_8cpp.html" target="_top" xlink:title="/travis/pairinteraction\l/SystemTwo.cpp">
<polygon fill="none" stroke="black" points="641,-6 641,-36 759,-36 759,-6 641,-6"/>
<text text-anchor="start" x="649" y="-24" font-family="Helvetica,sans-Serif" font-size="10.00">/travis/pairinteraction</text>
<text text-anchor="middle" x="700" y="-13" font-family="Helvetica,sans-Serif" font-size="10.00">/SystemTwo.cpp</text>
</a>
</g>
</g>
<!-- Node22&#45;&gt;Node23 -->
<g id="edge28" class="edge"><title>Node22&#45;&gt;Node23</title>
<path fill="none" stroke="midnightblue" d="M700,-68.2317C700,-57.5679 700,-45.4145 700,-36.2455"/>
<polygon fill="midnightblue" stroke="midnightblue" points="696.5,-68.2332 700,-78.2333 703.5,-68.2333 696.5,-68.2332"/>
</g>
<!-- Node22&#45;&gt;Node24 -->
<g id="edge29" class="edge"><title>Node22&#45;&gt;Node24</title>
<path fill="none" stroke="midnightblue" d="M753.878,-75.4668C787.128,-64.9552 829.804,-51.4632 863.968,-40.6625"/>
<polygon fill="midnightblue" stroke="midnightblue" points="752.804,-72.1355 744.324,-78.4872 754.914,-78.8099 752.804,-72.1355"/>
</g>
</g>
</svg>
