<?xml version="1.0" encoding="UTF-8" standalone="no"?>
<!DOCTYPE svg PUBLIC "-//W3C//DTD SVG 1.1//EN"
 "http://www.w3.org/Graphics/SVG/1.1/DTD/svg11.dtd">
<!-- Generated by graphviz version 2.38.0 (20140413.2041)
 -->
<!-- Title: /travis/pairinteraction/MatrixElements.h Pages: 1 -->
<svg width="2180pt" height="352pt"
 viewBox="0.00 0.00 2180.00 352.00" xmlns="http://www.w3.org/2000/svg" xmlns:xlink="http://www.w3.org/1999/xlink">
<g id="graph0" class="graph" transform="scale(1 1) rotate(0) translate(4 348)">
<title>/travis/pairinteraction/MatrixElements.h</title>
<!-- Node0 -->
<g id="node1" class="node"><title>Node0</title>
<polygon fill="#bfbfbf" stroke="black" points="1314.5,-313.5 1314.5,-343.5 1432.5,-343.5 1432.5,-313.5 1314.5,-313.5"/>
<text text-anchor="start" x="1322.5" y="-331.5" font-family="Helvetica,sans-Serif" font-size="10.00">/travis/pairinteraction</text>
<text text-anchor="middle" x="1373.5" y="-320.5" font-family="Helvetica,sans-Serif" font-size="10.00">/MatrixElements.h</text>
</g>
<!-- Node1 -->
<g id="node2" class="node"><title>Node1</title>
<g id="a_node2"><a xlink:href="Basisnames_8h.html" target="_top" xlink:title="Basisnames.h">
<polygon fill="none" stroke="black" points="1575.5,-252 1575.5,-271 1659.5,-271 1659.5,-252 1575.5,-252"/>
<text text-anchor="middle" x="1617.5" y="-259" font-family="Helvetica,sans-Serif" font-size="10.00">Basisnames.h</text>
</a>
</g>
</g>
<!-- Node0&#45;&gt;Node1 -->
<g id="edge1" class="edge"><title>Node0&#45;&gt;Node1</title>
<path fill="none" stroke="midnightblue" d="M1426.14,-313.476C1470.92,-301.547 1534.37,-284.644 1575.73,-273.628"/>
<polygon fill="midnightblue" stroke="midnightblue" points="1576.72,-276.985 1585.48,-271.029 1574.92,-270.221 1576.72,-276.985"/>
</g>
<!-- Node4 -->
<g id="node5" class="node"><title>Node4</title>
<polygon fill="none" stroke="#bfbfbf" points="858.5,-62 858.5,-81 914.5,-81 914.5,-62 858.5,-62"/>
<text text-anchor="middle" x="886.5" y="-69" font-family="Helvetica,sans-Serif" font-size="10.00">sstream</text>
</g>
<!-- Node0&#45;&gt;Node4 -->
<g id="edge68" class="edge"><title>Node0&#45;&gt;Node4</title>
<path fill="none" stroke="midnightblue" d="M1314.36,-322.44C1158.37,-307.724 742.323,-259.147 663.5,-154 583.858,-47.7598 624.491,-151.017 848.5,-87 851.084,-86.2615 853.74,-85.422 856.389,-84.528"/>
<polygon fill="midnightblue" stroke="midnightblue" points="857.59,-87.8155 865.812,-81.1339 855.218,-81.2297 857.59,-87.8155"/>
</g>
<!-- Node5 -->
<g id="node6" class="node"><title>Node5</title>
<polygon fill="none" stroke="#bfbfbf" points="932.5,-62 932.5,-81 976.5,-81 976.5,-62 932.5,-62"/>
<text text-anchor="middle" x="954.5" y="-69" font-family="Helvetica,sans-Serif" font-size="10.00">string</text>
</g>
<!-- Node0&#45;&gt;Node5 -->
<g id="edge69" class="edge"><title>Node0&#45;&gt;Node5</title>
<path fill="none" stroke="midnightblue" d="M1314.4,-315.512C1240.08,-298.879 1110.04,-264.538 1009.5,-210 974.783,-191.169 957.484,-189.657 940.5,-154 930.786,-133.606 938.302,-107.494 945.537,-90.3963"/>
<polygon fill="midnightblue" stroke="midnightblue" points="948.839,-91.594 949.849,-81.0475 942.483,-88.6621 948.839,-91.594"/>
</g>
<!-- Node8 -->
<g id="node9" class="node"><title>Node8</title>
<g id="a_node9"><a xlink:href="StateOld_8h.html" target="_top" xlink:title="StateOld.h">
<polygon fill="none" stroke="black" points="1243.5,-190.5 1243.5,-209.5 1311.5,-209.5 1311.5,-190.5 1243.5,-190.5"/>
<text text-anchor="middle" x="1277.5" y="-197.5" font-family="Helvetica,sans-Serif" font-size="10.00">StateOld.h</text>
</a>
</g>
</g>
<!-- Node0&#45;&gt;Node8 -->
<g id="edge31" class="edge"><title>Node0&#45;&gt;Node8</title>
<path fill="none" stroke="midnightblue" d="M1373.28,-313.434C1372.33,-295.996 1368.43,-266.123 1353.5,-246 1342.93,-231.757 1326.4,-221.199 1311.45,-213.903"/>
<polygon fill="midnightblue" stroke="midnightblue" points="1312.48,-210.528 1301.93,-209.573 1309.58,-216.9 1312.48,-210.528"/>
</g>
<!-- Node9 -->
<g id="node10" class="node"><title>Node9</title>
<g id="a_node10"><a xlink:href="dtypes_8h.html" target="_top" xlink:title="dtypes.h">
<polygon fill="none" stroke="black" points="1518.5,-129 1518.5,-148 1576.5,-148 1576.5,-129 1518.5,-129"/>
<text text-anchor="middle" x="1547.5" y="-136" font-family="Helvetica,sans-Serif" font-size="10.00">dtypes.h</text>
</a>
</g>
</g>
<!-- Node0&#45;&gt;Node9 -->
<g id="edge65" class="edge"><title>Node0&#45;&gt;Node9</title>
<path fill="none" stroke="midnightblue" d="M1386.58,-313.369C1418.19,-279.217 1498.6,-192.331 1532.29,-155.933"/>
<polygon fill="midnightblue" stroke="midnightblue" points="1535.22,-157.923 1539.44,-148.206 1530.08,-153.168 1535.22,-157.923"/>
</g>
<!-- Node22 -->
<g id="node23" class="node"><title>Node22</title>
<polygon fill="none" stroke="#bfbfbf" points="1880,-62 1880,-81 1937,-81 1937,-62 1880,-62"/>
<text text-anchor="middle" x="1908.5" y="-69" font-family="Helvetica,sans-Serif" font-size="10.00">memory</text>
</g>
<!-- Node0&#45;&gt;Node22 -->
<g id="edge67" class="edge"><title>Node0&#45;&gt;Node22</title>
<path fill="none" stroke="midnightblue" d="M1432.7,-320.987C1553.26,-306.641 1821.67,-268.84 1890.5,-210 1921.27,-183.692 1921.07,-163.329 1917.5,-123 1916.55,-112.288 1914.5,-100.446 1912.59,-90.9234"/>
<polygon fill="midnightblue" stroke="midnightblue" points="1915.99,-90.0749 1910.49,-81.0163 1909.14,-91.5243 1915.99,-90.0749"/>
</g>
<!-- Node25 -->
<g id="node26" class="node"><title>Node25</title>
<g id="a_node26"><a xlink:href="Wavefunction_8h.html" target="_top" xlink:title="Wavefunction.h">
<polygon fill="none" stroke="black" points="1256,-252 1256,-271 1345,-271 1345,-252 1256,-252"/>
<text text-anchor="middle" x="1300.5" y="-259" font-family="Helvetica,sans-Serif" font-size="10.00">Wavefunction.h</text>
</a>
</g>
</g>
<!-- Node0&#45;&gt;Node25 -->
<g id="edge32" class="edge"><title>Node0&#45;&gt;Node25</title>
<path fill="none" stroke="midnightblue" d="M1357.66,-313.396C1345.94,-302.96 1329.98,-288.751 1317.91,-277.998"/>
<polygon fill="midnightblue" stroke="midnightblue" points="1320.06,-275.231 1310.26,-271.195 1315.41,-280.459 1320.06,-275.231"/>
</g>
<!-- Node29 -->
<g id="node30" class="node"><title>Node29</title>
<polygon fill="none" stroke="#bfbfbf" points="0,-62 0,-81 93,-81 93,-62 0,-62"/>
<text text-anchor="middle" x="46.5" y="-69" font-family="Helvetica,sans-Serif" font-size="10.00">unordered_map</text>
</g>
<!-- Node0&#45;&gt;Node29 -->
<g id="edge70" class="edge"><title>Node0&#45;&gt;Node29</title>
<path fill="none" stroke="midnightblue" d="M1314.28,-324.277C1096.77,-311.673 343.606,-261.042 131.5,-154 100.775,-138.494 73.7034,-108.14 58.7662,-89.1696"/>
<polygon fill="midnightblue" stroke="midnightblue" points="61.4675,-86.9401 52.6161,-81.1175 55.9045,-91.1891 61.4675,-86.9401"/>
</g>
<!-- Node44 -->
<g id="node45" class="node"><title>Node44</title>
<polygon fill="none" stroke="#bfbfbf" points="1975,-246.5 1975,-276.5 2172,-276.5 2172,-246.5 1975,-246.5"/>
<text text-anchor="start" x="1983" y="-264.5" font-family="Helvetica,sans-Serif" font-size="10.00">wignerSymbols/include</text>
<text text-anchor="middle" x="2073.5" y="-253.5" font-family="Helvetica,sans-Serif" font-size="10.00">/wignerSymbols/wignerSymbols&#45;cpp.h</text>
</g>
<!-- Node0&#45;&gt;Node44 -->
<g id="edge66" class="edge"><title>Node0&#45;&gt;Node44</title>
<path fill="none" stroke="midnightblue" d="M1432.74,-323.227C1538.73,-315.398 1767.77,-297.647 1960.5,-277 1961.97,-276.842 1963.46,-276.681 1964.95,-276.517"/>
<polygon fill="midnightblue" stroke="midnightblue" points="1965.38,-279.991 1974.92,-275.396 1964.59,-273.035 1965.38,-279.991"/>
</g>
<!-- Node2 -->
<g id="node3" class="node"><title>Node2</title>
<g id="a_node3"><a xlink:href="ConfParser_8h.html" target="_top" xlink:title="ConfParser.h">
<polygon fill="none" stroke="black" points="1384.5,-129 1384.5,-148 1462.5,-148 1462.5,-129 1384.5,-129"/>
<text text-anchor="middle" x="1423.5" y="-136" font-family="Helvetica,sans-Serif" font-size="10.00">ConfParser.h</text>
</a>
</g>
</g>
<!-- Node1&#45;&gt;Node2 -->
<g id="edge2" class="edge"><title>Node1&#45;&gt;Node2</title>
<path fill="none" stroke="midnightblue" d="M1603.86,-251.992C1570.89,-231.43 1486.63,-178.875 1446.03,-153.554"/>
<polygon fill="midnightblue" stroke="midnightblue" points="1447.72,-150.483 1437.39,-148.161 1444.02,-156.423 1447.72,-150.483"/>
</g>
<!-- Node1&#45;&gt;Node5 -->
<g id="edge28" class="edge"><title>Node1&#45;&gt;Node5</title>
<path fill="none" stroke="midnightblue" d="M1592.43,-251.901C1547.3,-235.905 1450.17,-199.071 1375.5,-154 1356.54,-142.557 1356.88,-131.654 1336.5,-123 1304.51,-109.416 1072.69,-84.6042 986.585,-75.748"/>
<polygon fill="midnightblue" stroke="midnightblue" points="986.901,-72.2622 976.597,-74.7251 986.188,-79.2258 986.901,-72.2622"/>
</g>
<!-- Node7 -->
<g id="node8" class="node"><title>Node7</title>
<g id="a_node8"><a xlink:href="Iter_8h.html" target="_top" xlink:title="Iter.h">
<polygon fill="none" stroke="black" points="1679,-190.5 1679,-209.5 1720,-209.5 1720,-190.5 1679,-190.5"/>
<text text-anchor="middle" x="1699.5" y="-197.5" font-family="Helvetica,sans-Serif" font-size="10.00">Iter.h</text>
</a>
</g>
</g>
<!-- Node1&#45;&gt;Node7 -->
<g id="edge7" class="edge"><title>Node1&#45;&gt;Node7</title>
<path fill="none" stroke="midnightblue" d="M1629.25,-251.975C1642.28,-242.52 1663.54,-227.096 1679.26,-215.687"/>
<polygon fill="midnightblue" stroke="midnightblue" points="1681.73,-218.215 1687.77,-209.509 1677.62,-212.549 1681.73,-218.215"/>
</g>
<!-- Node1&#45;&gt;Node8 -->
<g id="edge8" class="edge"><title>Node1&#45;&gt;Node8</title>
<path fill="none" stroke="midnightblue" d="M1575.47,-253.144C1510.88,-241.841 1387.78,-220.299 1321.83,-208.758"/>
<polygon fill="midnightblue" stroke="midnightblue" points="1322.21,-205.271 1311.75,-206.995 1321,-212.166 1322.21,-205.271"/>
</g>
<!-- Node1&#45;&gt;Node9 -->
<g id="edge24" class="edge"><title>Node1&#45;&gt;Node9</title>
<path fill="none" stroke="midnightblue" d="M1605.3,-251.872C1593.38,-242.794 1575.59,-227.423 1565.5,-210 1556.22,-193.973 1551.66,-173.177 1549.47,-158.334"/>
<polygon fill="midnightblue" stroke="midnightblue" points="1552.93,-157.805 1548.21,-148.32 1545.98,-158.679 1552.93,-157.805"/>
</g>
<!-- Node15 -->
<g id="node16" class="node"><title>Node15</title>
<polygon fill="none" stroke="#bfbfbf" points="1792,-62 1792,-81 1839,-81 1839,-62 1792,-62"/>
<text text-anchor="middle" x="1815.5" y="-69" font-family="Helvetica,sans-Serif" font-size="10.00">vector</text>
</g>
<!-- Node1&#45;&gt;Node15 -->
<g id="edge30" class="edge"><title>Node1&#45;&gt;Node15</title>
<path fill="none" stroke="midnightblue" d="M1659.65,-257.594C1720.39,-252.429 1827.84,-239.307 1851.5,-210 1880.33,-174.29 1848.27,-117.898 1828.58,-89.7195"/>
<polygon fill="midnightblue" stroke="midnightblue" points="1831.18,-87.3533 1822.48,-81.3156 1825.52,-91.4647 1831.18,-87.3533"/>
</g>
<!-- Node21 -->
<g id="node22" class="node"><title>Node21</title>
<polygon fill="none" stroke="#bfbfbf" points="1738.5,-190.5 1738.5,-209.5 1792.5,-209.5 1792.5,-190.5 1738.5,-190.5"/>
<text text-anchor="middle" x="1765.5" y="-197.5" font-family="Helvetica,sans-Serif" font-size="10.00">fstream</text>
</g>
<!-- Node1&#45;&gt;Node21 -->
<g id="edge25" class="edge"><title>Node1&#45;&gt;Node21</title>
<path fill="none" stroke="midnightblue" d="M1638.7,-251.975C1663.87,-241.857 1706.04,-224.905 1734.78,-213.351"/>
<polygon fill="midnightblue" stroke="midnightblue" points="1736.36,-216.487 1744.33,-209.509 1733.75,-209.992 1736.36,-216.487"/>
</g>
<!-- Node1&#45;&gt;Node22 -->
<g id="edge26" class="edge"><title>Node1&#45;&gt;Node22</title>
<path fill="none" stroke="midnightblue" d="M1659.71,-257.306C1723.31,-251.648 1839.48,-237.75 1869.5,-210 1903.12,-178.924 1908.54,-121.218 1908.94,-91.4105"/>
<polygon fill="midnightblue" stroke="midnightblue" points="1912.44,-91.1254 1908.89,-81.1427 1905.44,-91.1597 1912.44,-91.1254"/>
</g>
<!-- Node23 -->
<g id="node24" class="node"><title>Node23</title>
<polygon fill="none" stroke="#bfbfbf" points="1810.5,-190.5 1810.5,-209.5 1842.5,-209.5 1842.5,-190.5 1810.5,-190.5"/>
<text text-anchor="middle" x="1826.5" y="-197.5" font-family="Helvetica,sans-Serif" font-size="10.00">set</text>
</g>
<!-- Node1&#45;&gt;Node23 -->
<g id="edge27" class="edge"><title>Node1&#45;&gt;Node23</title>
<path fill="none" stroke="midnightblue" d="M1651.64,-251.977C1686.8,-243.013 1743.35,-228.083 1800.82,-210.037"/>
<polygon fill="midnightblue" stroke="midnightblue" points="1801.95,-213.351 1810.42,-206.995 1799.83,-206.678 1801.95,-213.351"/>
</g>
<!-- Node24 -->
<g id="node25" class="node"><title>Node24</title>
<polygon fill="none" stroke="#bfbfbf" points="1574.5,-190.5 1574.5,-209.5 1660.5,-209.5 1660.5,-190.5 1574.5,-190.5"/>
<text text-anchor="middle" x="1617.5" y="-197.5" font-family="Helvetica,sans-Serif" font-size="10.00">unordered_set</text>
</g>
<!-- Node1&#45;&gt;Node24 -->
<g id="edge29" class="edge"><title>Node1&#45;&gt;Node24</title>
<path fill="none" stroke="midnightblue" d="M1617.5,-251.975C1617.5,-243.58 1617.5,-230.481 1617.5,-219.663"/>
<polygon fill="midnightblue" stroke="midnightblue" points="1621,-219.509 1617.5,-209.509 1614,-219.509 1621,-219.509"/>
</g>
<!-- Node3 -->
<g id="node4" class="node"><title>Node3</title>
<polygon fill="none" stroke="#bfbfbf" points="1116.5,-62 1116.5,-81 1154.5,-81 1154.5,-62 1116.5,-62"/>
<text text-anchor="middle" x="1135.5" y="-69" font-family="Helvetica,sans-Serif" font-size="10.00">map</text>
</g>
<!-- Node2&#45;&gt;Node3 -->
<g id="edge3" class="edge"><title>Node2&#45;&gt;Node3</title>
<path fill="none" stroke="midnightblue" d="M1394.19,-128.948C1386.52,-126.856 1378.23,-124.725 1370.5,-123 1279.36,-102.656 1251.99,-116.818 1163.5,-87 1162.07,-86.5193 1160.63,-85.9745 1159.19,-85.385"/>
<polygon fill="midnightblue" stroke="midnightblue" points="1160.49,-82.129 1149.95,-81.0504 1157.52,-88.4663 1160.49,-82.129"/>
</g>
<!-- Node2&#45;&gt;Node4 -->
<g id="edge4" class="edge"><title>Node2&#45;&gt;Node4</title>
<path fill="none" stroke="midnightblue" d="M1384.18,-130.278C1369.29,-127.717 1352.15,-124.983 1336.5,-123 1153.71,-99.8369 1102.89,-129.045 923.5,-87 920.666,-86.3358 917.762,-85.4968 914.886,-84.5585"/>
<polygon fill="midnightblue" stroke="midnightblue" points="915.964,-81.2263 905.37,-81.0963 913.571,-87.8045 915.964,-81.2263"/>
</g>
<!-- Node2&#45;&gt;Node5 -->
<g id="edge5" class="edge"><title>Node2&#45;&gt;Node5</title>
<path fill="none" stroke="midnightblue" d="M1395.35,-128.977C1387.37,-126.786 1378.64,-124.599 1370.5,-123 1296.73,-108.513 1070.97,-84.5056 986.68,-75.79"/>
<polygon fill="midnightblue" stroke="midnightblue" points="986.971,-72.3015 976.665,-74.7576 986.254,-79.2646 986.971,-72.3015"/>
</g>
<!-- Node6 -->
<g id="node7" class="node"><title>Node6</title>
<polygon fill="none" stroke="#bfbfbf" points="1172.5,-62 1172.5,-81 1294.5,-81 1294.5,-62 1172.5,-62"/>
<text text-anchor="middle" x="1233.5" y="-69" font-family="Helvetica,sans-Serif" font-size="10.00">boost/lexical_cast.hpp</text>
</g>
<!-- Node2&#45;&gt;Node6 -->
<g id="edge6" class="edge"><title>Node2&#45;&gt;Node6</title>
<path fill="none" stroke="midnightblue" d="M1398.27,-128.869C1364.82,-117.424 1305.64,-97.1807 1268.06,-84.3223"/>
<polygon fill="midnightblue" stroke="midnightblue" points="1269.13,-80.989 1258.53,-81.0637 1266.86,-87.6122 1269.13,-80.989"/>
</g>
<!-- Node8&#45;&gt;Node5 -->
<g id="edge20" class="edge"><title>Node8&#45;&gt;Node5</title>
<path fill="none" stroke="midnightblue" d="M1243.47,-198.622C1172.55,-197.116 1012.3,-189.74 973.5,-154 956.332,-138.186 953.229,-110.123 953.299,-91.4132"/>
<polygon fill="midnightblue" stroke="midnightblue" points="956.806,-91.281 953.656,-81.1654 949.81,-91.0377 956.806,-91.281"/>
</g>
<!-- Node8&#45;&gt;Node9 -->
<g id="edge9" class="edge"><title>Node8&#45;&gt;Node9</title>
<path fill="none" stroke="midnightblue" d="M1311.66,-193.648C1356.36,-186.322 1436.95,-172.003 1504.5,-154 1507.7,-153.148 1511,-152.185 1514.3,-151.171"/>
<polygon fill="midnightblue" stroke="midnightblue" points="1515.57,-154.437 1524.01,-148.033 1513.42,-147.776 1515.57,-154.437"/>
</g>
<!-- Node12 -->
<g id="node13" class="node"><title>Node12</title>
<polygon fill="none" stroke="#bfbfbf" points="1313,-62 1313,-81 1354,-81 1354,-62 1313,-62"/>
<text text-anchor="middle" x="1333.5" y="-69" font-family="Helvetica,sans-Serif" font-size="10.00">array</text>
</g>
<!-- Node8&#45;&gt;Node12 -->
<g id="edge16" class="edge"><title>Node8&#45;&gt;Node12</title>
<path fill="none" stroke="midnightblue" d="M1311.85,-196.068C1362.13,-190.986 1451.93,-178.633 1471.5,-154 1480.07,-143.213 1479.57,-134.166 1471.5,-123 1441.61,-81.653 1409.66,-106.459 1362.5,-87 1361.3,-86.5049 1360.08,-85.9812 1358.86,-85.4383"/>
<polygon fill="midnightblue" stroke="midnightblue" points="1360.1,-82.1569 1349.57,-81.05 1357.11,-88.4862 1360.1,-82.1569"/>
</g>
<!-- Node13 -->
<g id="node14" class="node"><title>Node13</title>
<polygon fill="none" stroke="#bfbfbf" points="1727,-62 1727,-81 1774,-81 1774,-62 1727,-62"/>
<text text-anchor="middle" x="1750.5" y="-69" font-family="Helvetica,sans-Serif" font-size="10.00">cmath</text>
</g>
<!-- Node8&#45;&gt;Node13 -->
<g id="edge18" class="edge"><title>Node8&#45;&gt;Node13</title>
<path fill="none" stroke="midnightblue" d="M1311.68,-199.229C1370.02,-198.497 1491.59,-192.04 1585.5,-154 1607.34,-145.155 1607.88,-134.388 1628.5,-123 1665.85,-102.375 1678.19,-103.584 1717.5,-87 1718.91,-86.4071 1720.34,-85.7957 1721.79,-85.1747"/>
<polygon fill="midnightblue" stroke="midnightblue" points="1723.57,-88.2207 1731.35,-81.0304 1720.78,-81.7988 1723.57,-88.2207"/>
</g>
<!-- Node16 -->
<g id="node17" class="node"><title>Node16</title>
<polygon fill="none" stroke="#bfbfbf" points="672.5,-129 672.5,-148 812.5,-148 812.5,-129 672.5,-129"/>
<text text-anchor="middle" x="742.5" y="-136" font-family="Helvetica,sans-Serif" font-size="10.00">boost/functional/hash.hpp</text>
</g>
<!-- Node8&#45;&gt;Node16 -->
<g id="edge17" class="edge"><title>Node8&#45;&gt;Node16</title>
<path fill="none" stroke="midnightblue" d="M1243.49,-195.408C1172.86,-187.923 1005.14,-170.019 864.5,-154 851.028,-152.465 836.724,-150.799 822.831,-149.161"/>
<polygon fill="midnightblue" stroke="midnightblue" points="823.148,-145.674 812.806,-147.975 822.326,-152.625 823.148,-145.674"/>
</g>
<!-- Node17 -->
<g id="node18" class="node"><title>Node17</title>
<polygon fill="none" stroke="#bfbfbf" points="781,-62 781,-81 840,-81 840,-62 781,-62"/>
<text text-anchor="middle" x="810.5" y="-69" font-family="Helvetica,sans-Serif" font-size="10.00">iostream</text>
</g>
<!-- Node8&#45;&gt;Node17 -->
<g id="edge19" class="edge"><title>Node8&#45;&gt;Node17</title>
<path fill="none" stroke="midnightblue" d="M1243.42,-198.472C1183.29,-196.627 1055.11,-188.578 953.5,-154 906.312,-137.942 857.038,-105.928 830.429,-87.1583"/>
<polygon fill="midnightblue" stroke="midnightblue" points="832.17,-84.0998 822.003,-81.1192 828.092,-89.7895 832.17,-84.0998"/>
</g>
<!-- Node18 -->
<g id="node19" class="node"><title>Node18</title>
<polygon fill="none" stroke="#bfbfbf" points="982.5,-123.5 982.5,-153.5 1086.5,-153.5 1086.5,-123.5 982.5,-123.5"/>
<text text-anchor="start" x="990.5" y="-141.5" font-family="Helvetica,sans-Serif" font-size="10.00">boost/serialization</text>
<text text-anchor="middle" x="1034.5" y="-130.5" font-family="Helvetica,sans-Serif" font-size="10.00">/array.hpp</text>
</g>
<!-- Node8&#45;&gt;Node18 -->
<g id="edge21" class="edge"><title>Node8&#45;&gt;Node18</title>
<path fill="none" stroke="midnightblue" d="M1243.46,-190.664C1205.41,-181.348 1143.02,-166.072 1096.3,-154.633"/>
<polygon fill="midnightblue" stroke="midnightblue" points="1097.13,-151.233 1086.59,-152.254 1095.47,-158.032 1097.13,-151.233"/>
</g>
<!-- Node19 -->
<g id="node20" class="node"><title>Node19</title>
<polygon fill="none" stroke="#bfbfbf" points="1104.5,-123.5 1104.5,-153.5 1208.5,-153.5 1208.5,-123.5 1104.5,-123.5"/>
<text text-anchor="start" x="1112.5" y="-141.5" font-family="Helvetica,sans-Serif" font-size="10.00">boost/serialization</text>
<text text-anchor="middle" x="1156.5" y="-130.5" font-family="Helvetica,sans-Serif" font-size="10.00">/string.hpp</text>
</g>
<!-- Node8&#45;&gt;Node19 -->
<g id="edge22" class="edge"><title>Node8&#45;&gt;Node19</title>
<path fill="none" stroke="midnightblue" d="M1260.16,-190.475C1243.01,-182.04 1216.2,-168.855 1194.14,-158.008"/>
<polygon fill="midnightblue" stroke="midnightblue" points="1195.54,-154.795 1185.02,-153.523 1192.45,-161.077 1195.54,-154.795"/>
</g>
<!-- Node20 -->
<g id="node21" class="node"><title>Node20</title>
<polygon fill="none" stroke="#bfbfbf" points="1227,-129 1227,-148 1328,-148 1328,-129 1227,-129"/>
<text text-anchor="middle" x="1277.5" y="-136" font-family="Helvetica,sans-Serif" font-size="10.00">boost/variant.hpp</text>
</g>
<!-- Node8&#45;&gt;Node20 -->
<g id="edge23" class="edge"><title>Node8&#45;&gt;Node20</title>
<path fill="none" stroke="midnightblue" d="M1277.5,-190.475C1277.5,-182.08 1277.5,-168.981 1277.5,-158.163"/>
<polygon fill="midnightblue" stroke="midnightblue" points="1281,-158.009 1277.5,-148.009 1274,-158.009 1281,-158.009"/>
</g>
<!-- Node10 -->
<g id="node11" class="node"><title>Node10</title>
<polygon fill="none" stroke="#bfbfbf" points="1533,-62 1533,-81 1610,-81 1610,-62 1533,-62"/>
<text text-anchor="middle" x="1571.5" y="-69" font-family="Helvetica,sans-Serif" font-size="10.00">Eigen/Dense</text>
</g>
<!-- Node9&#45;&gt;Node10 -->
<g id="edge10" class="edge"><title>Node9&#45;&gt;Node10</title>
<path fill="none" stroke="midnightblue" d="M1550.74,-128.734C1554.34,-118.988 1560.25,-102.981 1564.84,-90.5318"/>
<polygon fill="midnightblue" stroke="midnightblue" points="1568.13,-91.7206 1568.31,-81.1273 1561.57,-89.2959 1568.13,-91.7206"/>
</g>
<!-- Node11 -->
<g id="node12" class="node"><title>Node11</title>
<polygon fill="none" stroke="#bfbfbf" points="1628.5,-62 1628.5,-81 1708.5,-81 1708.5,-62 1628.5,-62"/>
<text text-anchor="middle" x="1668.5" y="-69" font-family="Helvetica,sans-Serif" font-size="10.00">Eigen/Sparse</text>
</g>
<!-- Node9&#45;&gt;Node11 -->
<g id="edge11" class="edge"><title>Node9&#45;&gt;Node11</title>
<path fill="none" stroke="midnightblue" d="M1563.82,-128.734C1584.32,-117.721 1619.7,-98.7129 1643.59,-85.8787"/>
<polygon fill="midnightblue" stroke="midnightblue" points="1645.29,-88.943 1652.44,-81.1273 1641.97,-82.7764 1645.29,-88.943"/>
</g>
<!-- Node9&#45;&gt;Node12 -->
<g id="edge12" class="edge"><title>Node9&#45;&gt;Node12</title>
<path fill="none" stroke="midnightblue" d="M1523.05,-128.891C1517.01,-126.867 1510.55,-124.783 1504.5,-123 1442.05,-104.584 1423.53,-109.69 1362.5,-87 1361.12,-86.4851 1359.71,-85.9233 1358.3,-85.3296"/>
<polygon fill="midnightblue" stroke="midnightblue" points="1359.73,-82.1322 1349.18,-81.1095 1356.79,-88.4851 1359.73,-82.1322"/>
</g>
<!-- Node9&#45;&gt;Node13 -->
<g id="edge13" class="edge"><title>Node9&#45;&gt;Node13</title>
<path fill="none" stroke="midnightblue" d="M1572.44,-128.858C1578.35,-126.877 1584.63,-124.82 1590.5,-123 1646.54,-105.622 1662.29,-106.847 1717.5,-87 1719.16,-86.4033 1720.85,-85.7621 1722.56,-85.0937"/>
<polygon fill="midnightblue" stroke="midnightblue" points="1724.3,-88.1604 1732.18,-81.0841 1721.6,-81.6987 1724.3,-88.1604"/>
</g>
<!-- Node14 -->
<g id="node15" class="node"><title>Node14</title>
<polygon fill="none" stroke="#bfbfbf" points="1372,-56.5 1372,-86.5 1515,-86.5 1515,-56.5 1372,-56.5"/>
<text text-anchor="start" x="1380" y="-74.5" font-family="Helvetica,sans-Serif" font-size="10.00">unsupported/Eigen/CXX11</text>
<text text-anchor="middle" x="1443.5" y="-63.5" font-family="Helvetica,sans-Serif" font-size="10.00">/Tensor</text>
</g>
<!-- Node9&#45;&gt;Node14 -->
<g id="edge14" class="edge"><title>Node9&#45;&gt;Node14</title>
<path fill="none" stroke="midnightblue" d="M1533.47,-128.734C1518.47,-119.358 1494.2,-104.188 1474.65,-91.9658"/>
<polygon fill="midnightblue" stroke="midnightblue" points="1476.38,-88.9211 1466.04,-86.589 1472.67,-94.8571 1476.38,-88.9211"/>
</g>
<!-- Node9&#45;&gt;Node15 -->
<g id="edge15" class="edge"><title>Node9&#45;&gt;Node15</title>
<path fill="none" stroke="midnightblue" d="M1576.79,-132.048C1631.05,-121.812 1745.2,-99.6143 1783.5,-87 1785.37,-86.3847 1787.27,-85.6944 1789.18,-84.9576"/>
<polygon fill="midnightblue" stroke="midnightblue" points="1790.65,-88.1354 1798.5,-81.0198 1787.92,-81.6872 1790.65,-88.1354"/>
</g>
<!-- Node25&#45;&gt;Node5 -->
<g id="edge63" class="edge"><title>Node25&#45;&gt;Node5</title>
<path fill="none" stroke="midnightblue" d="M1255.69,-253.435C1170.37,-238.971 989.833,-203.156 953.5,-154 940.127,-135.907 943.751,-108.849 948.418,-90.9428"/>
<polygon fill="midnightblue" stroke="midnightblue" points="951.838,-91.7197 951.316,-81.1378 945.125,-89.7358 951.838,-91.7197"/>
</g>
<!-- Node25&#45;&gt;Node9 -->
<g id="edge62" class="edge"><title>Node25&#45;&gt;Node9</title>
<path fill="none" stroke="midnightblue" d="M1317.87,-251.992C1360.37,-231.171 1469.84,-177.542 1520.74,-152.608"/>
<polygon fill="midnightblue" stroke="midnightblue" points="1522.38,-155.703 1529.82,-148.161 1519.3,-149.417 1522.38,-155.703"/>
</g>
<!-- Node25&#45;&gt;Node15 -->
<g id="edge64" class="edge"><title>Node25&#45;&gt;Node15</title>
<path fill="none" stroke="midnightblue" d="M1328.64,-251.91C1384.78,-234.614 1514.47,-193.83 1621.5,-154 1694.52,-126.826 1712.01,-117.972 1783.5,-87 1784.86,-86.409 1786.26,-85.7991 1787.67,-85.1793"/>
<polygon fill="midnightblue" stroke="midnightblue" points="1789.23,-88.3135 1796.93,-81.0391 1786.38,-81.9222 1789.23,-88.3135"/>
</g>
<!-- Node26 -->
<g id="node27" class="node"><title>Node26</title>
<g id="a_node27"><a xlink:href="QuantumDefect_8h.html" target="_top" xlink:title="QuantumDefect.h">
<polygon fill="none" stroke="black" points="506.5,-190.5 506.5,-209.5 608.5,-209.5 608.5,-190.5 506.5,-190.5"/>
<text text-anchor="middle" x="557.5" y="-197.5" font-family="Helvetica,sans-Serif" font-size="10.00">QuantumDefect.h</text>
</a>
</g>
</g>
<!-- Node25&#45;&gt;Node26 -->
<g id="edge33" class="edge"><title>Node25&#45;&gt;Node26</title>
<path fill="none" stroke="midnightblue" d="M1255.97,-256.934C1128.94,-246.761 764.57,-217.582 618.829,-205.911"/>
<polygon fill="midnightblue" stroke="midnightblue" points="618.968,-202.411 608.72,-205.102 618.409,-209.389 618.968,-202.411"/>
</g>
<!-- Node26&#45;&gt;Node5 -->
<g id="edge58" class="edge"><title>Node26&#45;&gt;Node5</title>
<path fill="none" stroke="midnightblue" d="M566.225,-190.401C583.275,-174.171 622.911,-139.203 663.5,-123 771.844,-79.7498 811.632,-120.084 923.5,-87 925.38,-86.4439 927.291,-85.7903 929.193,-85.0735"/>
<polygon fill="midnightblue" stroke="midnightblue" points="930.626,-88.2672 938.449,-81.122 927.878,-81.8293 930.626,-88.2672"/>
</g>
<!-- Node26&#45;&gt;Node9 -->
<g id="edge56" class="edge"><title>Node26&#45;&gt;Node9</title>
<path fill="none" stroke="midnightblue" d="M608.743,-198.974C747.942,-198.363 1144.56,-193.044 1471.5,-154 1483.57,-152.559 1496.6,-150.324 1508.41,-148.038"/>
<polygon fill="midnightblue" stroke="midnightblue" points="1509.3,-151.43 1518.42,-146.034 1507.92,-144.566 1509.3,-151.43"/>
</g>
<!-- Node26&#45;&gt;Node16 -->
<g id="edge61" class="edge"><title>Node26&#45;&gt;Node16</title>
<path fill="none" stroke="midnightblue" d="M584.006,-190.475C616.152,-180.136 670.487,-162.661 706.427,-151.102"/>
<polygon fill="midnightblue" stroke="midnightblue" points="707.595,-154.403 716.043,-148.009 705.452,-147.739 707.595,-154.403"/>
</g>
<!-- Node27 -->
<g id="node28" class="node"><title>Node27</title>
<g id="a_node28"><a xlink:href="Cache_8h.html" target="_top" xlink:title="Cache.h">
<polygon fill="none" stroke="black" points="216.5,-129 216.5,-148 272.5,-148 272.5,-129 216.5,-129"/>
<text text-anchor="middle" x="244.5" y="-136" font-family="Helvetica,sans-Serif" font-size="10.00">Cache.h</text>
</a>
</g>
</g>
<!-- Node26&#45;&gt;Node27 -->
<g id="edge34" class="edge"><title>Node26&#45;&gt;Node27</title>
<path fill="none" stroke="midnightblue" d="M512.655,-190.475C450.783,-178.714 340.329,-157.717 282.375,-146.7"/>
<polygon fill="midnightblue" stroke="midnightblue" points="283.004,-143.257 272.526,-144.828 281.697,-150.134 283.004,-143.257"/>
</g>
<!-- Node28 -->
<g id="node29" class="node"><title>Node28</title>
<polygon fill="none" stroke="#bfbfbf" points="236,-62 236,-81 283,-81 283,-62 236,-62"/>
<text text-anchor="middle" x="259.5" y="-69" font-family="Helvetica,sans-Serif" font-size="10.00">mutex</text>
</g>
<!-- Node26&#45;&gt;Node28 -->
<g id="edge57" class="edge"><title>Node26&#45;&gt;Node28</title>
<path fill="none" stroke="midnightblue" d="M536.725,-190.476C491.817,-172.001 382.411,-126.728 291.5,-87 290.138,-86.4047 288.745,-85.7913 287.339,-85.1686"/>
<polygon fill="midnightblue" stroke="midnightblue" points="288.632,-81.9129 278.075,-81.019 285.771,-88.3012 288.632,-81.9129"/>
</g>
<!-- Node26&#45;&gt;Node29 -->
<g id="edge60" class="edge"><title>Node26&#45;&gt;Node29</title>
<path fill="none" stroke="midnightblue" d="M506.223,-197.833C436.985,-195.045 310.419,-185.638 207.5,-154 154.809,-137.802 98.4896,-105.368 68.4226,-86.6697"/>
<polygon fill="midnightblue" stroke="midnightblue" points="69.9465,-83.4929 59.6209,-81.1194 66.2126,-89.4139 69.9465,-83.4929"/>
</g>
<!-- Node31 -->
<g id="node32" class="node"><title>Node31</title>
<g id="a_node32"><a xlink:href="SQLite_8h.html" target="_top" xlink:title="SQLite.h">
<polygon fill="none" stroke="black" points="462,-129 462,-148 519,-148 519,-129 462,-129"/>
<text text-anchor="middle" x="490.5" y="-136" font-family="Helvetica,sans-Serif" font-size="10.00">SQLite.h</text>
</a>
</g>
</g>
<!-- Node26&#45;&gt;Node31 -->
<g id="edge38" class="edge"><title>Node26&#45;&gt;Node31</title>
<path fill="none" stroke="midnightblue" d="M547.901,-190.475C537.452,-181.197 520.532,-166.171 507.764,-154.831"/>
<polygon fill="midnightblue" stroke="midnightblue" points="509.883,-152.032 500.082,-148.009 505.235,-157.266 509.883,-152.032"/>
</g>
<!-- Node43 -->
<g id="node44" class="node"><title>Node43</title>
<polygon fill="none" stroke="#bfbfbf" points="537,-129 537,-148 578,-148 578,-129 537,-129"/>
<text text-anchor="middle" x="557.5" y="-136" font-family="Helvetica,sans-Serif" font-size="10.00">tuple</text>
</g>
<!-- Node26&#45;&gt;Node43 -->
<g id="edge59" class="edge"><title>Node26&#45;&gt;Node43</title>
<path fill="none" stroke="midnightblue" d="M557.5,-190.475C557.5,-182.08 557.5,-168.981 557.5,-158.163"/>
<polygon fill="midnightblue" stroke="midnightblue" points="561,-158.009 557.5,-148.009 554,-158.009 561,-158.009"/>
</g>
<!-- Node27&#45;&gt;Node28 -->
<g id="edge35" class="edge"><title>Node27&#45;&gt;Node28</title>
<path fill="none" stroke="midnightblue" d="M246.523,-128.734C248.75,-119.085 252.392,-103.3 255.252,-90.9063"/>
<polygon fill="midnightblue" stroke="midnightblue" points="258.671,-91.6583 257.509,-81.1273 251.85,-90.0842 258.671,-91.6583"/>
</g>
<!-- Node27&#45;&gt;Node29 -->
<g id="edge36" class="edge"><title>Node27&#45;&gt;Node29</title>
<path fill="none" stroke="midnightblue" d="M218.207,-128.869C183.273,-117.4 121.419,-97.0945 82.2629,-84.2403"/>
<polygon fill="midnightblue" stroke="midnightblue" points="83.1791,-80.8574 72.5863,-81.0637 80.9957,-87.5082 83.1791,-80.8574"/>
</g>
<!-- Node30 -->
<g id="node31" class="node"><title>Node30</title>
<polygon fill="none" stroke="#bfbfbf" points="111.5,-62 111.5,-81 217.5,-81 217.5,-62 111.5,-62"/>
<text text-anchor="middle" x="164.5" y="-69" font-family="Helvetica,sans-Serif" font-size="10.00">boost/optional.hpp</text>
</g>
<!-- Node27&#45;&gt;Node30 -->
<g id="edge37" class="edge"><title>Node27&#45;&gt;Node30</title>
<path fill="none" stroke="midnightblue" d="M233.711,-128.734C220.756,-118.208 198.813,-100.379 183.106,-87.6174"/>
<polygon fill="midnightblue" stroke="midnightblue" points="185.086,-84.7169 175.118,-81.1273 180.672,-90.1497 185.086,-84.7169"/>
</g>
<!-- Node31&#45;&gt;Node4 -->
<g id="edge42" class="edge"><title>Node31&#45;&gt;Node4</title>
<path fill="none" stroke="midnightblue" d="M509.393,-128.998C515.11,-126.727 521.472,-124.492 527.5,-123 666.857,-88.5141 708.989,-120.86 848.5,-87 851.331,-86.313 854.236,-85.4709 857.118,-84.5416"/>
<polygon fill="midnightblue" stroke="midnightblue" points="858.433,-87.7886 866.685,-81.1443 856.091,-81.1921 858.433,-87.7886"/>
</g>
<!-- Node31&#45;&gt;Node5 -->
<g id="edge43" class="edge"><title>Node31&#45;&gt;Node5</title>
<path fill="none" stroke="midnightblue" d="M509.374,-128.918C515.09,-126.644 521.457,-124.428 527.5,-123 699.488,-82.3529 752.901,-133.13 923.5,-87 925.436,-86.4766 927.4,-85.8391 929.351,-85.1268"/>
<polygon fill="midnightblue" stroke="midnightblue" points="930.967,-88.2438 938.812,-81.123 928.239,-81.7973 930.967,-88.2438"/>
</g>
<!-- Node31&#45;&gt;Node17 -->
<g id="edge39" class="edge"><title>Node31&#45;&gt;Node17</title>
<path fill="none" stroke="midnightblue" d="M509.812,-128.99C515.43,-126.774 521.635,-124.57 527.5,-123 631.269,-95.2286 662.005,-111.899 766.5,-87 769.969,-86.1733 773.557,-85.1979 777.118,-84.1502"/>
<polygon fill="midnightblue" stroke="midnightblue" points="778.464,-87.3964 786.962,-81.0692 776.373,-80.716 778.464,-87.3964"/>
</g>
<!-- Node31&#45;&gt;Node22 -->
<g id="edge40" class="edge"><title>Node31&#45;&gt;Node22</title>
<path fill="none" stroke="midnightblue" d="M508.562,-128.98C514.468,-126.589 521.144,-124.291 527.5,-123 815.289,-64.551 1557.4,-125.704 1848.5,-87 1855.42,-86.0795 1862.71,-84.6879 1869.73,-83.1248"/>
<polygon fill="midnightblue" stroke="midnightblue" points="1870.82,-86.4628 1879.74,-80.7468 1869.2,-79.6523 1870.82,-86.4628"/>
</g>
<!-- Node32 -->
<g id="node33" class="node"><title>Node32</title>
<polygon fill="none" stroke="#bfbfbf" points="631.5,-0.5 631.5,-19.5 685.5,-19.5 685.5,-0.5 631.5,-0.5"/>
<text text-anchor="middle" x="658.5" y="-7.5" font-family="Helvetica,sans-Serif" font-size="10.00">random</text>
</g>
<!-- Node31&#45;&gt;Node32 -->
<g id="edge41" class="edge"><title>Node31&#45;&gt;Node32</title>
<path fill="none" stroke="midnightblue" d="M510.22,-128.928C515.737,-126.763 521.787,-124.601 527.5,-123 572.247,-110.459 703.602,-122.577 733.5,-87 742.364,-76.4524 740.288,-67.9894 733.5,-56 725.153,-41.2584 709.838,-30.8192 695.213,-23.7321"/>
<polygon fill="midnightblue" stroke="midnightblue" points="696.342,-20.4041 685.782,-19.5474 693.503,-26.8025 696.342,-20.4041"/>
</g>
<!-- Node33 -->
<g id="node34" class="node"><title>Node33</title>
<polygon fill="none" stroke="#bfbfbf" points="402.5,-62 402.5,-81 450.5,-81 450.5,-62 402.5,-62"/>
<text text-anchor="middle" x="426.5" y="-69" font-family="Helvetica,sans-Serif" font-size="10.00">thread</text>
</g>
<!-- Node31&#45;&gt;Node33 -->
<g id="edge44" class="edge"><title>Node31&#45;&gt;Node33</title>
<path fill="none" stroke="midnightblue" d="M481.869,-128.734C471.697,-118.403 454.598,-101.037 442.088,-88.3315"/>
<polygon fill="midnightblue" stroke="midnightblue" points="444.505,-85.7974 434.995,-81.1273 439.517,-90.7086 444.505,-85.7974"/>
</g>
<!-- Node34 -->
<g id="node35" class="node"><title>Node34</title>
<polygon fill="none" stroke="#bfbfbf" points="412.5,-0.5 412.5,-19.5 480.5,-19.5 480.5,-0.5 412.5,-0.5"/>
<text text-anchor="middle" x="446.5" y="-7.5" font-family="Helvetica,sans-Serif" font-size="10.00">type_traits</text>
</g>
<!-- Node31&#45;&gt;Node34 -->
<g id="edge45" class="edge"><title>Node31&#45;&gt;Node34</title>
<path fill="none" stroke="midnightblue" d="M461.979,-131.218C439.037,-124.5 408.274,-111.347 393.5,-87 386.353,-75.2211 387.714,-68.5038 393.5,-56 399.42,-43.2072 410.968,-32.7216 421.778,-25.1003"/>
<polygon fill="midnightblue" stroke="midnightblue" points="423.714,-28.0161 430.166,-19.613 419.882,-22.1581 423.714,-28.0161"/>
</g>
<!-- Node35 -->
<g id="node36" class="node"><title>Node35</title>
<polygon fill="none" stroke="#bfbfbf" points="468.5,-56.5 468.5,-86.5 588.5,-86.5 588.5,-56.5 468.5,-56.5"/>
<text text-anchor="start" x="476.5" y="-74.5" font-family="Helvetica,sans-Serif" font-size="10.00">boost/iterator/iterator</text>
<text text-anchor="middle" x="528.5" y="-63.5" font-family="Helvetica,sans-Serif" font-size="10.00">_facade.hpp</text>
</g>
<!-- Node31&#45;&gt;Node35 -->
<g id="edge46" class="edge"><title>Node31&#45;&gt;Node35</title>
<path fill="none" stroke="midnightblue" d="M495.625,-128.734C500.612,-120.203 508.404,-106.874 515.151,-95.3345"/>
<polygon fill="midnightblue" stroke="midnightblue" points="518.238,-96.9885 520.263,-86.589 512.195,-93.4555 518.238,-96.9885"/>
</g>
<!-- Node36 -->
<g id="node37" class="node"><title>Node36</title>
<polygon fill="none" stroke="#bfbfbf" points="607,-62 607,-81 664,-81 664,-62 607,-62"/>
<text text-anchor="middle" x="635.5" y="-69" font-family="Helvetica,sans-Serif" font-size="10.00">sqlite3.h</text>
</g>
<!-- Node31&#45;&gt;Node36 -->
<g id="edge47" class="edge"><title>Node31&#45;&gt;Node36</title>
<path fill="none" stroke="midnightblue" d="M509.755,-128.869C534.671,-117.699 578.288,-98.1468 607.035,-85.2602"/>
<polygon fill="midnightblue" stroke="midnightblue" points="608.472,-88.4516 616.165,-81.1672 605.609,-82.064 608.472,-88.4516"/>
</g>
<!-- Node37 -->
<g id="node38" class="node"><title>Node37</title>
<polygon fill="none" stroke="#bfbfbf" points="682.5,-62 682.5,-81 724.5,-81 724.5,-62 682.5,-62"/>
<text text-anchor="middle" x="703.5" y="-69" font-family="Helvetica,sans-Serif" font-size="10.00">utility</text>
</g>
<!-- Node31&#45;&gt;Node37 -->
<g id="edge48" class="edge"><title>Node31&#45;&gt;Node37</title>
<path fill="none" stroke="midnightblue" d="M511.073,-128.89C516.376,-126.822 522.11,-124.717 527.5,-123 590.768,-102.843 609.91,-109.171 672.5,-87 674.117,-86.4272 675.764,-85.7991 677.413,-85.1355"/>
<polygon fill="midnightblue" stroke="midnightblue" points="678.929,-88.2927 686.694,-81.0843 676.129,-81.8773 678.929,-88.2927"/>
</g>
<!-- Node38 -->
<g id="node39" class="node"><title>Node38</title>
<g id="a_node39"><a xlink:href="utils_8h.html" target="_top" xlink:title="utils.h">
<polygon fill="none" stroke="black" points="301,-62 301,-81 346,-81 346,-62 301,-62"/>
<text text-anchor="middle" x="323.5" y="-69" font-family="Helvetica,sans-Serif" font-size="10.00">utils.h</text>
</a>
</g>
</g>
<!-- Node31&#45;&gt;Node38 -->
<g id="edge49" class="edge"><title>Node31&#45;&gt;Node38</title>
<path fill="none" stroke="midnightblue" d="M468.41,-128.942C442.539,-118.914 398.395,-101.786 360.5,-87 358.668,-86.2853 356.786,-85.55 354.886,-84.8075"/>
<polygon fill="midnightblue" stroke="midnightblue" points="355.996,-81.4834 345.408,-81.0981 353.445,-88.002 355.996,-81.4834"/>
</g>
<!-- Node38&#45;&gt;Node32 -->
<g id="edge53" class="edge"><title>Node38&#45;&gt;Node32</title>
<path fill="none" stroke="midnightblue" d="M346.157,-65.5909C359.842,-62.6798 377.645,-58.9873 393.5,-56 474.587,-40.7222 570.082,-25.0813 621.399,-16.8673"/>
<polygon fill="midnightblue" stroke="midnightblue" points="622.033,-20.3104 631.357,-15.2779 620.93,-13.3979 622.033,-20.3104"/>
</g>
<!-- Node38&#45;&gt;Node34 -->
<g id="edge54" class="edge"><title>Node38&#45;&gt;Node34</title>
<path fill="none" stroke="midnightblue" d="M341.123,-61.9751C361.674,-52.0338 395.864,-35.4947 419.707,-23.961"/>
<polygon fill="midnightblue" stroke="midnightblue" points="421.432,-27.0145 428.91,-19.5091 418.384,-20.7131 421.432,-27.0145"/>
</g>
<!-- Node39 -->
<g id="node40" class="node"><title>Node39</title>
<polygon fill="none" stroke="#bfbfbf" points="175.5,-0.5 175.5,-19.5 237.5,-19.5 237.5,-0.5 175.5,-0.5"/>
<text text-anchor="middle" x="206.5" y="-7.5" font-family="Helvetica,sans-Serif" font-size="10.00">algorithm</text>
</g>
<!-- Node38&#45;&gt;Node39 -->
<g id="edge50" class="edge"><title>Node38&#45;&gt;Node39</title>
<path fill="none" stroke="midnightblue" d="M306.737,-61.9751C287.275,-52.078 254.955,-35.6416 232.289,-24.1151"/>
<polygon fill="midnightblue" stroke="midnightblue" points="233.732,-20.9224 223.232,-19.5091 230.559,-27.1619 233.732,-20.9224"/>
</g>
<!-- Node40 -->
<g id="node41" class="node"><title>Node40</title>
<polygon fill="none" stroke="#bfbfbf" points="256,-0.5 256,-19.5 313,-19.5 313,-0.5 256,-0.5"/>
<text text-anchor="middle" x="284.5" y="-7.5" font-family="Helvetica,sans-Serif" font-size="10.00">complex</text>
</g>
<!-- Node38&#45;&gt;Node40 -->
<g id="edge51" class="edge"><title>Node38&#45;&gt;Node40</title>
<path fill="none" stroke="midnightblue" d="M317.912,-61.9751C312.12,-53.1384 302.911,-39.0886 295.626,-27.975"/>
<polygon fill="midnightblue" stroke="midnightblue" points="298.487,-25.9539 290.077,-19.5091 292.632,-29.7913 298.487,-25.9539"/>
</g>
<!-- Node41 -->
<g id="node42" class="node"><title>Node41</title>
<polygon fill="none" stroke="#bfbfbf" points="331,-0.5 331,-19.5 394,-19.5 394,-0.5 331,-0.5"/>
<text text-anchor="middle" x="362.5" y="-7.5" font-family="Helvetica,sans-Serif" font-size="10.00">functional</text>
</g>
<!-- Node38&#45;&gt;Node41 -->
<g id="edge52" class="edge"><title>Node38&#45;&gt;Node41</title>
<path fill="none" stroke="midnightblue" d="M329.088,-61.9751C334.88,-53.1384 344.089,-39.0886 351.374,-27.975"/>
<polygon fill="midnightblue" stroke="midnightblue" points="354.368,-29.7913 356.923,-19.5091 348.513,-25.9539 354.368,-29.7913"/>
</g>
<!-- Node42 -->
<g id="node43" class="node"><title>Node42</title>
<polygon fill="none" stroke="#bfbfbf" points="102,-0.5 102,-19.5 157,-19.5 157,-0.5 102,-0.5"/>
<text text-anchor="middle" x="129.5" y="-7.5" font-family="Helvetica,sans-Serif" font-size="10.00">unistd.h</text>
</g>
<!-- Node38&#45;&gt;Node42 -->
<g id="edge55" class="edge"><title>Node38&#45;&gt;Node42</title>
<path fill="none" stroke="midnightblue" d="M305.762,-61.8751C301.174,-59.8075 296.201,-57.7065 291.5,-56 268.735,-47.7365 207.417,-31.2788 167.091,-20.7216"/>
<polygon fill="midnightblue" stroke="midnightblue" points="167.887,-17.3121 157.327,-18.1733 166.119,-24.0852 167.887,-17.3121"/>
</g>
</g>
</svg>
