<?xml version="1.0" encoding="UTF-8" standalone="no"?>
<!DOCTYPE svg PUBLIC "-//W3C//DTD SVG 1.1//EN"
 "http://www.w3.org/Graphics/SVG/1.1/DTD/svg11.dtd">
<!-- Generated by graphviz version 2.38.0 (20140413.2041)
 -->
<!-- Title: selectionRulesMultipoleNew Pages: 1 -->
<svg width="563pt" height="116pt"
 viewBox="0.00 0.00 563.00 115.50" xmlns="http://www.w3.org/2000/svg" xmlns:xlink="http://www.w3.org/1999/xlink">
<g id="graph0" class="graph" transform="scale(1 1) rotate(0) translate(4 111.5)">
<title>selectionRulesMultipoleNew</title>
<!-- Node16 -->
<g id="node1" class="node"><title>Node16</title>
<polygon fill="#bfbfbf" stroke="black" points="5.68434e-14,-50 5.68434e-14,-69 148,-69 148,-50 5.68434e-14,-50"/>
<text text-anchor="middle" x="74" y="-57" font-family="Helvetica,sans-Serif" font-size="10.00">selectionRulesMultipoleNew</text>
</g>
<!-- Node17 -->
<g id="node2" class="node"><title>Node17</title>
<g id="a_node2"><a xlink:href="classSystemTwo.html#a5cc89c42ab8066027b0c375b818c8333" target="_top" xlink:title="Method that allows base class to calculate the interaction /////. ">
<polygon fill="none" stroke="black" points="184,-88 184,-107 351,-107 351,-88 184,-88"/>
<text text-anchor="middle" x="267.5" y="-95" font-family="Helvetica,sans-Serif" font-size="10.00">SystemTwo::initializeInteraction</text>
</a>
</g>
</g>
<!-- Node16&#45;&gt;Node17 -->
<g id="edge1" class="edge"><title>Node16&#45;&gt;Node17</title>
<path fill="none" stroke="midnightblue" d="M133.146,-71.0381C160.459,-76.458 192.626,-82.841 218.524,-87.9799"/>
<polygon fill="midnightblue" stroke="midnightblue" points="133.814,-67.6024 123.324,-69.089 132.451,-74.4685 133.814,-67.6024"/>
</g>
<!-- Node18 -->
<g id="node3" class="node"><title>Node18</title>
<g id="a_node3"><a xlink:href="classSystemOne.html#abf6d26d44765fa787251956c128644a7" target="_top" xlink:title="Method that allows base class to calculate the interaction /////. ">
<polygon fill="none" stroke="black" points="387,-28 387,-47 555,-47 555,-28 387,-28"/>
<text text-anchor="middle" x="471" y="-35" font-family="Helvetica,sans-Serif" font-size="10.00">SystemOne::initializeInteraction</text>
</a>
</g>
</g>
<!-- Node16&#45;&gt;Node18 -->
<g id="edge2" class="edge"><title>Node16&#45;&gt;Node18</title>
<path fill="none" stroke="midnightblue" d="M158.499,-54.8494C225.69,-51.1072 319.649,-45.874 386.768,-42.1357"/>
<polygon fill="midnightblue" stroke="midnightblue" points="158.161,-51.3628 148.371,-55.4135 158.55,-58.3519 158.161,-51.3628"/>
</g>
<!-- Node19 -->
<g id="node4" class="node"><title>Node19</title>
<g id="a_node4"><a xlink:href="classMatrixElementCache.html#a41efbe3c4a7e3e5f2ed2c807a0b3178e" target="_top" xlink:title="MatrixElementCache\l::precalculateDiamagnetism">
<polygon fill="none" stroke="black" points="191.5,-0.5 191.5,-30.5 343.5,-30.5 343.5,-0.5 191.5,-0.5"/>
<text text-anchor="start" x="199.5" y="-18.5" font-family="Helvetica,sans-Serif" font-size="10.00">MatrixElementCache</text>
<text text-anchor="middle" x="267.5" y="-7.5" font-family="Helvetica,sans-Serif" font-size="10.00">::precalculateDiamagnetism</text>
</a>
</g>
</g>
<!-- Node16&#45;&gt;Node19 -->
<g id="edge3" class="edge"><title>Node16&#45;&gt;Node19</title>
<path fill="none" stroke="midnightblue" d="M126.414,-47.6868C149.323,-42.4231 176.578,-36.1609 200.931,-30.5654"/>
<polygon fill="midnightblue" stroke="midnightblue" points="125.515,-44.3022 116.553,-49.9527 127.082,-51.1244 125.515,-44.3022"/>
</g>
<!-- Node19&#45;&gt;Node18 -->
<g id="edge4" class="edge"><title>Node19&#45;&gt;Node18</title>
<path fill="none" stroke="midnightblue" d="M353.547,-24.7856C364.549,-25.9868 375.807,-27.2159 386.779,-28.4138"/>
<polygon fill="midnightblue" stroke="midnightblue" points="353.852,-21.2981 343.531,-23.692 353.092,-28.2568 353.852,-21.2981"/>
</g>
</g>
</svg>
