<?xml version="1.0" encoding="UTF-8" standalone="no"?>
<!DOCTYPE svg PUBLIC "-//W3C//DTD SVG 1.1//EN"
 "http://www.w3.org/Graphics/SVG/1.1/DTD/svg11.dtd">
<!-- Generated by graphviz version 2.38.0 (20140413.2041)
 -->
<!-- Title: selectionRulesMomentumNew Pages: 1 -->
<svg width="561pt" height="56pt"
 viewBox="0.00 0.00 561.00 55.50" xmlns="http://www.w3.org/2000/svg" xmlns:xlink="http://www.w3.org/1999/xlink">
<g id="graph0" class="graph" transform="scale(1 1) rotate(0) translate(4 51.5)">
<title>selectionRulesMomentumNew</title>
<!-- Node4 -->
<g id="node1" class="node"><title>Node4</title>
<polygon fill="#bfbfbf" stroke="black" points="0,-28 0,-47 161,-47 161,-28 0,-28"/>
<text text-anchor="middle" x="80.5" y="-35" font-family="Helvetica,sans-Serif" font-size="10.00">selectionRulesMomentumNew</text>
</g>
<!-- Node5 -->
<g id="node2" class="node"><title>Node5</title>
<g id="a_node2"><a xlink:href="classSystemOne.html#abf6d26d44765fa787251956c128644a7" target="_top" xlink:title="Method that allows base class to calculate the interaction /////. ">
<polygon fill="none" stroke="black" points="385,-28 385,-47 553,-47 553,-28 385,-28"/>
<text text-anchor="middle" x="469" y="-35" font-family="Helvetica,sans-Serif" font-size="10.00">SystemOne::initializeInteraction</text>
</a>
</g>
</g>
<!-- Node4&#45;&gt;Node5 -->
<g id="edge1" class="edge"><title>Node4&#45;&gt;Node5</title>
<path fill="none" stroke="midnightblue" d="M171.229,-40.059C179.938,-40.2387 188.639,-40.3914 197,-40.5 264.55,-41.3771 281.45,-41.3513 349,-40.5 360.572,-40.3542 372.776,-40.1286 384.781,-39.8651"/>
<polygon fill="midnightblue" stroke="midnightblue" points="171.097,-36.5554 161.023,-39.8367 170.945,-43.5537 171.097,-36.5554"/>
</g>
<!-- Node6 -->
<g id="node3" class="node"><title>Node6</title>
<g id="a_node3"><a xlink:href="classMatrixElementCache.html#a41efbe3c4a7e3e5f2ed2c807a0b3178e" target="_top" xlink:title="MatrixElementCache\l::precalculateDiamagnetism">
<polygon fill="none" stroke="black" points="197,-0.5 197,-30.5 349,-30.5 349,-0.5 197,-0.5"/>
<text text-anchor="start" x="205" y="-18.5" font-family="Helvetica,sans-Serif" font-size="10.00">MatrixElementCache</text>
<text text-anchor="middle" x="273" y="-7.5" font-family="Helvetica,sans-Serif" font-size="10.00">::precalculateDiamagnetism</text>
</a>
</g>
</g>
<!-- Node4&#45;&gt;Node6 -->
<g id="edge2" class="edge"><title>Node4&#45;&gt;Node6</title>
<path fill="none" stroke="midnightblue" d="M171.226,-27.138C179.816,-26.1459 188.467,-25.1468 196.897,-24.1733"/>
<polygon fill="midnightblue" stroke="midnightblue" points="170.718,-23.6733 161.185,-28.2975 171.521,-30.6271 170.718,-23.6733"/>
</g>
<!-- Node6&#45;&gt;Node5 -->
<g id="edge3" class="edge"><title>Node6&#45;&gt;Node5</title>
<path fill="none" stroke="midnightblue" d="M358.993,-25.1383C367.564,-26.1103 376.262,-27.0967 384.814,-28.0665"/>
<polygon fill="midnightblue" stroke="midnightblue" points="359.336,-21.655 349.005,-24.0058 358.547,-28.6104 359.336,-21.655"/>
</g>
</g>
</svg>
