<?xml version="1.0" encoding="UTF-8" standalone="no"?>
<!DOCTYPE svg PUBLIC "-//W3C//DTD SVG 1.1//EN"
 "http://www.w3.org/Graphics/SVG/1.1/DTD/svg11.dtd">
<!-- Generated by graphviz version 2.38.0 (20140413.2041)
 -->
<!-- Title: selectionRulesMultipoleNew Pages: 1 -->
<svg width="284pt" height="104pt"
 viewBox="0.00 0.00 284.00 104.00" xmlns="http://www.w3.org/2000/svg" xmlns:xlink="http://www.w3.org/1999/xlink">
<g id="graph0" class="graph" transform="scale(1 1) rotate(0) translate(4 100)">
<title>selectionRulesMultipoleNew</title>
<!-- Node20 -->
<g id="node1" class="node"><title>Node20</title>
<polygon fill="#bfbfbf" stroke="black" points="0,-38.5 0,-57.5 148,-57.5 148,-38.5 0,-38.5"/>
<text text-anchor="middle" x="74" y="-45.5" font-family="Helvetica,sans-Serif" font-size="10.00">selectionRulesMultipoleNew</text>
</g>
<!-- Node21 -->
<g id="node2" class="node"><title>Node21</title>
<g id="a_node2"><a xlink:href="classStateOne.html#aedba5bfce70f73fa324b9d5ae1115578" target="_top" xlink:title="StateOne::getJ">
<polygon fill="none" stroke="black" points="187,-76.5 187,-95.5 273,-95.5 273,-76.5 187,-76.5"/>
<text text-anchor="middle" x="230" y="-83.5" font-family="Helvetica,sans-Serif" font-size="10.00">StateOne::getJ</text>
</a>
</g>
</g>
<!-- Node20&#45;&gt;Node21 -->
<g id="edge1" class="edge"><title>Node20&#45;&gt;Node21</title>
<path fill="none" stroke="midnightblue" d="M113.861,-57.589C134.091,-62.5809 159.021,-68.7324 180.504,-74.0334"/>
<polygon fill="midnightblue" stroke="midnightblue" points="179.871,-77.4823 190.419,-76.4799 181.548,-70.6861 179.871,-77.4823"/>
</g>
<!-- Node22 -->
<g id="node3" class="node"><title>Node22</title>
<g id="a_node3"><a xlink:href="classStateOne.html#a3783cebe5bbd63f072caf8450fea4aca" target="_top" xlink:title="StateOne::getL">
<polygon fill="none" stroke="black" points="185.5,-38.5 185.5,-57.5 274.5,-57.5 274.5,-38.5 185.5,-38.5"/>
<text text-anchor="middle" x="230" y="-45.5" font-family="Helvetica,sans-Serif" font-size="10.00">StateOne::getL</text>
</a>
</g>
</g>
<!-- Node20&#45;&gt;Node22 -->
<g id="edge2" class="edge"><title>Node20&#45;&gt;Node22</title>
<path fill="none" stroke="midnightblue" d="M148.392,-48C157.314,-48 166.301,-48 174.872,-48"/>
<polygon fill="midnightblue" stroke="midnightblue" points="175.089,-51.5001 185.089,-48 175.089,-44.5001 175.089,-51.5001"/>
</g>
<!-- Node23 -->
<g id="node4" class="node"><title>Node23</title>
<g id="a_node4"><a xlink:href="classStateOne.html#aab2b41262381d67893113ed6f5ad18bc" target="_top" xlink:title="StateOne::getM">
<polygon fill="none" stroke="black" points="184,-0.5 184,-19.5 276,-19.5 276,-0.5 184,-0.5"/>
<text text-anchor="middle" x="230" y="-7.5" font-family="Helvetica,sans-Serif" font-size="10.00">StateOne::getM</text>
</a>
</g>
</g>
<!-- Node20&#45;&gt;Node23 -->
<g id="edge3" class="edge"><title>Node20&#45;&gt;Node23</title>
<path fill="none" stroke="midnightblue" d="M113.861,-38.411C134.091,-33.4191 159.021,-27.2676 180.504,-21.9666"/>
<polygon fill="midnightblue" stroke="midnightblue" points="181.548,-25.3139 190.419,-19.5201 179.871,-18.5177 181.548,-25.3139"/>
</g>
</g>
</svg>
