<?xml version="1.0" encoding="UTF-8" standalone="no"?>
<!DOCTYPE svg PUBLIC "-//W3C//DTD SVG 1.1//EN"
 "http://www.w3.org/Graphics/SVG/1.1/DTD/svg11.dtd">
<!-- Generated by graphviz version 2.38.0 (20140413.2041)
 -->
<!-- Title: /travis/pairinteraction/MatrixElements.h Pages: 1 -->
<svg width="387pt" height="240pt"
 viewBox="0.00 0.00 387.00 240.00" xmlns="http://www.w3.org/2000/svg" xmlns:xlink="http://www.w3.org/1999/xlink">
<g id="graph0" class="graph" transform="scale(1 1) rotate(0) translate(4 236)">
<title>/travis/pairinteraction/MatrixElements.h</title>
<!-- Node45 -->
<g id="node1" class="node"><title>Node45</title>
<polygon fill="#bfbfbf" stroke="black" points="174,-201.5 174,-231.5 292,-231.5 292,-201.5 174,-201.5"/>
<text text-anchor="start" x="182" y="-219.5" font-family="Helvetica,sans-Serif" font-size="10.00">/travis/pairinteraction</text>
<text text-anchor="middle" x="233" y="-208.5" font-family="Helvetica,sans-Serif" font-size="10.00">/MatrixElements.h</text>
</g>
<!-- Node46 -->
<g id="node2" class="node"><title>Node46</title>
<g id="a_node2"><a xlink:href="HamiltonianOne_8h.html" target="_top" xlink:title="/travis/pairinteraction\l/HamiltonianOne.h">
<polygon fill="none" stroke="black" points="87,-134.5 87,-164.5 205,-164.5 205,-134.5 87,-134.5"/>
<text text-anchor="start" x="95" y="-152.5" font-family="Helvetica,sans-Serif" font-size="10.00">/travis/pairinteraction</text>
<text text-anchor="middle" x="146" y="-141.5" font-family="Helvetica,sans-Serif" font-size="10.00">/HamiltonianOne.h</text>
</a>
</g>
</g>
<!-- Node45&#45;&gt;Node46 -->
<g id="edge1" class="edge"><title>Node45&#45;&gt;Node46</title>
<path fill="none" stroke="midnightblue" d="M205.786,-195.168C192.482,-185.228 176.804,-173.514 164.841,-164.577"/>
<polygon fill="midnightblue" stroke="midnightblue" points="204.016,-198.215 214.122,-201.396 208.206,-192.607 204.016,-198.215"/>
</g>
<!-- Node48 -->
<g id="node4" class="node"><title>Node48</title>
<g id="a_node4"><a xlink:href="HamiltonianTwo_8h.html" target="_top" xlink:title="/travis/pairinteraction\l/HamiltonianTwo.h">
<polygon fill="none" stroke="black" points="174,-67.5 174,-97.5 292,-97.5 292,-67.5 174,-67.5"/>
<text text-anchor="start" x="182" y="-85.5" font-family="Helvetica,sans-Serif" font-size="10.00">/travis/pairinteraction</text>
<text text-anchor="middle" x="233" y="-74.5" font-family="Helvetica,sans-Serif" font-size="10.00">/HamiltonianTwo.h</text>
</a>
</g>
</g>
<!-- Node45&#45;&gt;Node48 -->
<g id="edge7" class="edge"><title>Node45&#45;&gt;Node48</title>
<path fill="none" stroke="midnightblue" d="M233,-191.024C233,-163.512 233,-119.789 233,-97.5247"/>
<polygon fill="midnightblue" stroke="midnightblue" points="229.5,-191.374 233,-201.374 236.5,-191.374 229.5,-191.374"/>
</g>
<!-- Node51 -->
<g id="node7" class="node"><title>Node51</title>
<g id="a_node7"><a xlink:href="MatrixElements_8cpp.html" target="_top" xlink:title="/travis/pairinteraction\l/MatrixElements.cpp">
<polygon fill="none" stroke="black" points="261,-134.5 261,-164.5 379,-164.5 379,-134.5 261,-134.5"/>
<text text-anchor="start" x="269" y="-152.5" font-family="Helvetica,sans-Serif" font-size="10.00">/travis/pairinteraction</text>
<text text-anchor="middle" x="320" y="-141.5" font-family="Helvetica,sans-Serif" font-size="10.00">/MatrixElements.cpp</text>
</a>
</g>
</g>
<!-- Node45&#45;&gt;Node51 -->
<g id="edge8" class="edge"><title>Node45&#45;&gt;Node51</title>
<path fill="none" stroke="midnightblue" d="M260.214,-195.168C273.518,-185.228 289.196,-173.514 301.159,-164.577"/>
<polygon fill="midnightblue" stroke="midnightblue" points="257.794,-192.607 251.878,-201.396 261.984,-198.215 257.794,-192.607"/>
</g>
<!-- Node47 -->
<g id="node3" class="node"><title>Node47</title>
<g id="a_node3"><a xlink:href="HamiltonianOne_8cpp.html" target="_top" xlink:title="/travis/pairinteraction\l/HamiltonianOne.cpp">
<polygon fill="none" stroke="black" points="0,-67.5 0,-97.5 118,-97.5 118,-67.5 0,-67.5"/>
<text text-anchor="start" x="8" y="-85.5" font-family="Helvetica,sans-Serif" font-size="10.00">/travis/pairinteraction</text>
<text text-anchor="middle" x="59" y="-74.5" font-family="Helvetica,sans-Serif" font-size="10.00">/HamiltonianOne.cpp</text>
</a>
</g>
</g>
<!-- Node46&#45;&gt;Node47 -->
<g id="edge2" class="edge"><title>Node46&#45;&gt;Node47</title>
<path fill="none" stroke="midnightblue" d="M118.786,-128.168C105.482,-118.228 89.8039,-106.514 77.8409,-97.5765"/>
<polygon fill="midnightblue" stroke="midnightblue" points="117.016,-131.215 127.122,-134.396 121.206,-125.607 117.016,-131.215"/>
</g>
<!-- Node46&#45;&gt;Node48 -->
<g id="edge3" class="edge"><title>Node46&#45;&gt;Node48</title>
<path fill="none" stroke="midnightblue" d="M173.214,-128.168C186.518,-118.228 202.196,-106.514 214.159,-97.5765"/>
<polygon fill="midnightblue" stroke="midnightblue" points="170.794,-125.607 164.878,-134.396 174.984,-131.215 170.794,-125.607"/>
</g>
<!-- Node50 -->
<g id="node6" class="node"><title>Node50</title>
<g id="a_node6"><a xlink:href="Interface_8cpp.html" target="_top" xlink:title="/travis/pairinteraction\l/Interface.cpp">
<polygon fill="none" stroke="black" points="87,-0.5 87,-30.5 205,-30.5 205,-0.5 87,-0.5"/>
<text text-anchor="start" x="95" y="-18.5" font-family="Helvetica,sans-Serif" font-size="10.00">/travis/pairinteraction</text>
<text text-anchor="middle" x="146" y="-7.5" font-family="Helvetica,sans-Serif" font-size="10.00">/Interface.cpp</text>
</a>
</g>
</g>
<!-- Node46&#45;&gt;Node50 -->
<g id="edge6" class="edge"><title>Node46&#45;&gt;Node50</title>
<path fill="none" stroke="midnightblue" d="M146,-124.024C146,-96.5121 146,-52.7894 146,-30.5247"/>
<polygon fill="midnightblue" stroke="midnightblue" points="142.5,-124.374 146,-134.374 149.5,-124.374 142.5,-124.374"/>
</g>
<!-- Node49 -->
<g id="node5" class="node"><title>Node49</title>
<g id="a_node5"><a xlink:href="HamiltonianTwo_8cpp.html" target="_top" xlink:title="/travis/pairinteraction\l/HamiltonianTwo.cpp">
<polygon fill="none" stroke="black" points="223,-0.5 223,-30.5 341,-30.5 341,-0.5 223,-0.5"/>
<text text-anchor="start" x="231" y="-18.5" font-family="Helvetica,sans-Serif" font-size="10.00">/travis/pairinteraction</text>
<text text-anchor="middle" x="282" y="-7.5" font-family="Helvetica,sans-Serif" font-size="10.00">/HamiltonianTwo.cpp</text>
</a>
</g>
</g>
<!-- Node48&#45;&gt;Node49 -->
<g id="edge4" class="edge"><title>Node48&#45;&gt;Node49</title>
<path fill="none" stroke="midnightblue" d="M249.843,-59.1575C256.988,-49.6788 265.1,-38.9186 271.388,-30.5765"/>
<polygon fill="midnightblue" stroke="midnightblue" points="246.857,-57.3038 243.632,-67.396 252.447,-61.5176 246.857,-57.3038"/>
</g>
<!-- Node48&#45;&gt;Node50 -->
<g id="edge5" class="edge"><title>Node48&#45;&gt;Node50</title>
<path fill="none" stroke="midnightblue" d="M205.786,-61.1677C192.482,-51.2283 176.804,-39.5144 164.841,-30.5765"/>
<polygon fill="midnightblue" stroke="midnightblue" points="204.016,-64.2145 214.122,-67.396 208.206,-58.6068 204.016,-64.2145"/>
</g>
</g>
</svg>
