<?xml version="1.0" encoding="UTF-8" standalone="no"?>
<!DOCTYPE svg PUBLIC "-//W3C//DTD SVG 1.1//EN"
 "http://www.w3.org/Graphics/SVG/1.1/DTD/svg11.dtd">
<!-- Generated by graphviz version 2.38.0 (20140413.2041)
 -->
<!-- Title: /travis/pairinteraction/MatrixElementCache.h Pages: 1 -->
<!--zoomable 318 -->
<svg id="main" version="1.1" xmlns="http://www.w3.org/2000/svg" xmlns:xlink="http://www.w3.org/1999/xlink" xml:space="preserve" onload="init(evt)">
<style type="text/css"><![CDATA[
.edge:hover path { stroke: red; }
.edge:hover polygon { stroke: red; fill: red; }
]]></style>
<script type="text/javascript"><![CDATA[
var edges = document.getElementsByTagName('g');
if (edges && edges.length) {
  for (var i=0;i<edges.length;i++) {
    if (edges[i].id.substr(0,4)=='edge') {
      edges[i].setAttribute('class','edge');
    }
  }
}
]]></script>
        <defs>
                <circle id="rim" cx="0" cy="0" r="7"/>
                <circle id="rim2" cx="0" cy="0" r="3.5"/>
                <g id="zoomPlus">
                        <use xlink:href="#rim" fill="#404040">
                                <set attributeName="fill" to="#808080" begin="zoomplus.mouseover" end="zoomplus.mouseout"/>
                        </use>
                        <path d="M-4,0h8M0,-4v8" fill="none" stroke="white" stroke-width="1.5" pointer-events="none"/>
                </g>
                <g id="zoomMin">
                        <use xlink:href="#rim" fill="#404040">
                                <set attributeName="fill" to="#808080" begin="zoomminus.mouseover" end="zoomminus.mouseout"/>
                        </use>
                        <path d="M-4,0h8" fill="none" stroke="white" stroke-width="1.5" pointer-events="none"/>
                </g>
                <g id="dirArrow">
                        <path fill="none" stroke="white" stroke-width="1.5" d="M0,-3.0v7 M-2.5,-0.5L0,-3.0L2.5,-0.5"/>
                </g>
               <g id="resetDef">
                       <use xlink:href="#rim2" fill="#404040">
                               <set attributeName="fill" to="#808080" begin="reset.mouseover" end="reset.mouseout"/>
                       </use>
               </g>
        </defs>

<script type="text/javascript">
var viewWidth = 625;
var viewHeight = 318;
var sectionId = 'dynsection-1';
</script>
<script xlink:href="svgpan.js"/>
<svg id="graph" class="graph">
<g id="viewport">
<title>/travis/pairinteraction/MatrixElementCache.h</title>
<!-- Node50 -->
<g id="node1" class="node"><title>Node50</title>
<polygon fill="#bfbfbf" stroke="black" points="235.5,-279.5 235.5,-309.5 363.5,-309.5 363.5,-279.5 235.5,-279.5"/>
<text text-anchor="start" x="243.5" y="-297.5" font-family="Helvetica,sans-Serif" font-size="10.00">/travis/pairinteraction</text>
<text text-anchor="middle" x="299.5" y="-286.5" font-family="Helvetica,sans-Serif" font-size="10.00">/MatrixElementCache.h</text>
</g>
<!-- Node51 -->
<g id="node2" class="node"><title>Node51</title>
<g id="a_node2"><a xlink:href="MatrixElementCache_8cpp.html" target="_top" xlink:title="/travis/pairinteraction\l/MatrixElementCache.cpp">
<polygon fill="none" stroke="black" points="0,-212.5 0,-242.5 139,-242.5 139,-212.5 0,-212.5"/>
<text text-anchor="start" x="8" y="-230.5" font-family="Helvetica,sans-Serif" font-size="10.00">/travis/pairinteraction</text>
<text text-anchor="middle" x="69.5" y="-219.5" font-family="Helvetica,sans-Serif" font-size="10.00">/MatrixElementCache.cpp</text>
</a>
</g>
</g>
<!-- Node50&#45;&gt;Node51 -->
<g id="edge1" class="edge"><title>Node50&#45;&gt;Node51</title>
<path fill="none" stroke="midnightblue" d="M240.107,-276.715C202.678,-266.137 154.9,-252.635 119.431,-242.611"/>
<polygon fill="midnightblue" stroke="midnightblue" points="239.302,-280.124 249.877,-279.476 241.205,-273.388 239.302,-280.124"/>
</g>
<!-- Node52 -->
<g id="node3" class="node"><title>Node52</title>
<g id="a_node3"><a xlink:href="PerturbativeInteraction_8h.html" target="_top" xlink:title="/travis/pairinteraction\l/PerturbativeInteraction.h">
<polygon fill="none" stroke="black" points="157.5,-212.5 157.5,-242.5 295.5,-242.5 295.5,-212.5 157.5,-212.5"/>
<text text-anchor="start" x="165.5" y="-230.5" font-family="Helvetica,sans-Serif" font-size="10.00">/travis/pairinteraction</text>
<text text-anchor="middle" x="226.5" y="-219.5" font-family="Helvetica,sans-Serif" font-size="10.00">/PerturbativeInteraction.h</text>
</a>
</g>
</g>
<!-- Node50&#45;&gt;Node52 -->
<g id="edge2" class="edge"><title>Node50&#45;&gt;Node52</title>
<path fill="none" stroke="midnightblue" d="M276.025,-272.598C265.003,-262.783 252.156,-251.344 242.309,-242.577"/>
<polygon fill="midnightblue" stroke="midnightblue" points="273.864,-275.36 283.66,-279.396 278.519,-270.132 273.864,-275.36"/>
</g>
<!-- Node54 -->
<g id="node5" class="node"><title>Node54</title>
<g id="a_node5"><a xlink:href="SystemBase_8h.html" target="_top" xlink:title="/travis/pairinteraction\l/SystemBase.h">
<polygon fill="none" stroke="black" points="313.5,-212.5 313.5,-242.5 431.5,-242.5 431.5,-212.5 313.5,-212.5"/>
<text text-anchor="start" x="321.5" y="-230.5" font-family="Helvetica,sans-Serif" font-size="10.00">/travis/pairinteraction</text>
<text text-anchor="middle" x="372.5" y="-219.5" font-family="Helvetica,sans-Serif" font-size="10.00">/SystemBase.h</text>
</a>
</g>
</g>
<!-- Node50&#45;&gt;Node54 -->
<g id="edge4" class="edge"><title>Node50&#45;&gt;Node54</title>
<path fill="none" stroke="midnightblue" d="M322.975,-272.598C333.997,-262.783 346.844,-251.344 356.691,-242.577"/>
<polygon fill="midnightblue" stroke="midnightblue" points="320.481,-270.132 315.34,-279.396 325.136,-275.36 320.481,-270.132"/>
</g>
<!-- Node60 -->
<g id="node11" class="node"><title>Node60</title>
<g id="a_node11"><a xlink:href="integration__test_8cpp.html" target="_top" xlink:title="/travis/pairinteraction\l/unit_test/integration\l_test.cpp">
<polygon fill="none" stroke="black" points="498.5,-0.5 498.5,-41.5 616.5,-41.5 616.5,-0.5 498.5,-0.5"/>
<text text-anchor="start" x="506.5" y="-29.5" font-family="Helvetica,sans-Serif" font-size="10.00">/travis/pairinteraction</text>
<text text-anchor="start" x="506.5" y="-18.5" font-family="Helvetica,sans-Serif" font-size="10.00">/unit_test/integration</text>
<text text-anchor="middle" x="557.5" y="-7.5" font-family="Helvetica,sans-Serif" font-size="10.00">_test.cpp</text>
</a>
</g>
</g>
<!-- Node50&#45;&gt;Node60 -->
<g id="edge13" class="edge"><title>Node50&#45;&gt;Node60</title>
<path fill="none" stroke="midnightblue" d="M373.584,-285.393C440.018,-273.687 533.455,-245.19 576.5,-176 602.683,-133.912 581.413,-72.7691 567.377,-41.7052"/>
<polygon fill="midnightblue" stroke="midnightblue" points="372.863,-281.964 363.577,-287.066 374.017,-288.869 372.863,-281.964"/>
</g>
<!-- Node53 -->
<g id="node4" class="node"><title>Node53</title>
<g id="a_node4"><a xlink:href="PerturbativeInteraction_8cpp.html" target="_top" xlink:title="/travis/pairinteraction\l/PerturbativeInteraction.cpp">
<polygon fill="none" stroke="black" points="109,-145.5 109,-175.5 258,-175.5 258,-145.5 109,-145.5"/>
<text text-anchor="start" x="117" y="-163.5" font-family="Helvetica,sans-Serif" font-size="10.00">/travis/pairinteraction</text>
<text text-anchor="middle" x="183.5" y="-152.5" font-family="Helvetica,sans-Serif" font-size="10.00">/PerturbativeInteraction.cpp</text>
</a>
</g>
</g>
<!-- Node52&#45;&gt;Node53 -->
<g id="edge3" class="edge"><title>Node52&#45;&gt;Node53</title>
<path fill="none" stroke="midnightblue" d="M211.527,-203.867C205.304,-194.459 198.274,-183.833 192.812,-175.577"/>
<polygon fill="midnightblue" stroke="midnightblue" points="208.733,-205.987 217.17,-212.396 214.571,-202.125 208.733,-205.987"/>
</g>
<!-- Node55 -->
<g id="node6" class="node"><title>Node55</title>
<g id="a_node6"><a xlink:href="SystemBase_8cpp.html" target="_top" xlink:title="/travis/pairinteraction\l/SystemBase.cpp">
<polygon fill="none" stroke="black" points="313.5,-145.5 313.5,-175.5 431.5,-175.5 431.5,-145.5 313.5,-145.5"/>
<text text-anchor="start" x="321.5" y="-163.5" font-family="Helvetica,sans-Serif" font-size="10.00">/travis/pairinteraction</text>
<text text-anchor="middle" x="372.5" y="-152.5" font-family="Helvetica,sans-Serif" font-size="10.00">/SystemBase.cpp</text>
</a>
</g>
</g>
<!-- Node54&#45;&gt;Node55 -->
<g id="edge5" class="edge"><title>Node54&#45;&gt;Node55</title>
<path fill="none" stroke="midnightblue" d="M372.5,-202.108C372.5,-193.154 372.5,-183.323 372.5,-175.577"/>
<polygon fill="midnightblue" stroke="midnightblue" points="369,-202.396 372.5,-212.396 376,-202.396 369,-202.396"/>
</g>
<!-- Node56 -->
<g id="node7" class="node"><title>Node56</title>
<g id="a_node7"><a xlink:href="SystemOne_8h.html" target="_top" xlink:title="/travis/pairinteraction\l/SystemOne.h">
<polygon fill="none" stroke="black" points="449.5,-145.5 449.5,-175.5 567.5,-175.5 567.5,-145.5 449.5,-145.5"/>
<text text-anchor="start" x="457.5" y="-163.5" font-family="Helvetica,sans-Serif" font-size="10.00">/travis/pairinteraction</text>
<text text-anchor="middle" x="508.5" y="-152.5" font-family="Helvetica,sans-Serif" font-size="10.00">/SystemOne.h</text>
</a>
</g>
</g>
<!-- Node54&#45;&gt;Node56 -->
<g id="edge6" class="edge"><title>Node54&#45;&gt;Node56</title>
<path fill="none" stroke="midnightblue" d="M411.224,-207.992C432.781,-197.689 459.189,-185.068 479.048,-175.577"/>
<polygon fill="midnightblue" stroke="midnightblue" points="409.523,-204.926 402.01,-212.396 412.542,-211.242 409.523,-204.926"/>
</g>
<!-- Node58 -->
<g id="node9" class="node"><title>Node58</title>
<g id="a_node9"><a xlink:href="SystemTwo_8h.html" target="_top" xlink:title="/travis/pairinteraction\l/SystemTwo.h">
<polygon fill="none" stroke="black" points="275.5,-78.5 275.5,-108.5 393.5,-108.5 393.5,-78.5 275.5,-78.5"/>
<text text-anchor="start" x="283.5" y="-96.5" font-family="Helvetica,sans-Serif" font-size="10.00">/travis/pairinteraction</text>
<text text-anchor="middle" x="334.5" y="-85.5" font-family="Helvetica,sans-Serif" font-size="10.00">/SystemTwo.h</text>
</a>
</g>
</g>
<!-- Node54&#45;&gt;Node58 -->
<g id="edge12" class="edge"><title>Node54&#45;&gt;Node58</title>
<path fill="none" stroke="midnightblue" d="M333.6,-206.862C322.089,-198.956 310.871,-188.667 304.5,-176 293.119,-153.371 309.595,-125.343 322.268,-108.748"/>
<polygon fill="midnightblue" stroke="midnightblue" points="332.066,-210.034 342.384,-212.442 335.82,-204.125 332.066,-210.034"/>
</g>
<!-- Node57 -->
<g id="node8" class="node"><title>Node57</title>
<g id="a_node8"><a xlink:href="SystemOne_8cpp.html" target="_top" xlink:title="/travis/pairinteraction\l/SystemOne.cpp">
<polygon fill="none" stroke="black" points="411.5,-78.5 411.5,-108.5 529.5,-108.5 529.5,-78.5 411.5,-78.5"/>
<text text-anchor="start" x="419.5" y="-96.5" font-family="Helvetica,sans-Serif" font-size="10.00">/travis/pairinteraction</text>
<text text-anchor="middle" x="470.5" y="-85.5" font-family="Helvetica,sans-Serif" font-size="10.00">/SystemOne.cpp</text>
</a>
</g>
</g>
<!-- Node56&#45;&gt;Node57 -->
<g id="edge7" class="edge"><title>Node56&#45;&gt;Node57</title>
<path fill="none" stroke="midnightblue" d="M495.098,-136.576C489.641,-127.241 483.507,-116.748 478.729,-108.577"/>
<polygon fill="midnightblue" stroke="midnightblue" points="492.186,-138.529 500.255,-145.396 498.229,-134.997 492.186,-138.529"/>
</g>
<!-- Node56&#45;&gt;Node58 -->
<g id="edge8" class="edge"><title>Node56&#45;&gt;Node58</title>
<path fill="none" stroke="midnightblue" d="M461.168,-141.819C433.2,-131.371 398.273,-118.323 372.182,-108.577"/>
<polygon fill="midnightblue" stroke="midnightblue" points="460.152,-145.175 470.745,-145.396 462.602,-138.618 460.152,-145.175"/>
</g>
<!-- Node56&#45;&gt;Node60 -->
<g id="edge11" class="edge"><title>Node56&#45;&gt;Node60</title>
<path fill="none" stroke="midnightblue" d="M524.196,-136.634C529.378,-128.244 534.765,-118.475 538.5,-109 547.289,-86.7066 552.4,-59.5156 555.065,-41.5303"/>
<polygon fill="midnightblue" stroke="midnightblue" points="521.205,-134.814 518.743,-145.119 527.094,-138.599 521.205,-134.814"/>
</g>
<!-- Node59 -->
<g id="node10" class="node"><title>Node59</title>
<g id="a_node10"><a xlink:href="SystemTwo_8cpp.html" target="_top" xlink:title="/travis/pairinteraction\l/SystemTwo.cpp">
<polygon fill="none" stroke="black" points="275.5,-6 275.5,-36 393.5,-36 393.5,-6 275.5,-6"/>
<text text-anchor="start" x="283.5" y="-24" font-family="Helvetica,sans-Serif" font-size="10.00">/travis/pairinteraction</text>
<text text-anchor="middle" x="334.5" y="-13" font-family="Helvetica,sans-Serif" font-size="10.00">/SystemTwo.cpp</text>
</a>
</g>
</g>
<!-- Node58&#45;&gt;Node59 -->
<g id="edge9" class="edge"><title>Node58&#45;&gt;Node59</title>
<path fill="none" stroke="midnightblue" d="M334.5,-68.2317C334.5,-57.5679 334.5,-45.4145 334.5,-36.2455"/>
<polygon fill="midnightblue" stroke="midnightblue" points="331,-68.2332 334.5,-78.2333 338,-68.2333 331,-68.2332"/>
</g>
<!-- Node58&#45;&gt;Node60 -->
<g id="edge10" class="edge"><title>Node58&#45;&gt;Node60</title>
<path fill="none" stroke="midnightblue" d="M388.378,-75.4668C421.628,-64.9552 464.304,-51.4632 498.468,-40.6625"/>
<polygon fill="midnightblue" stroke="midnightblue" points="387.304,-72.1355 378.824,-78.4872 389.414,-78.8099 387.304,-72.1355"/>
</g>
</g>
</svg>
        <g id="navigator" transform="translate(0 0)" fill="#404254">
                <rect fill="#f2f5e9" fill-opacity="0.5" stroke="#606060" stroke-width=".5" x="0" y="0" width="60" height="60"/>
                <use id="zoomplus" xlink:href="#zoomPlus" x="17" y="9" onmousedown="handleZoom(evt,'in')"/>
                <use id="zoomminus" xlink:href="#zoomMin" x="42" y="9" onmousedown="handleZoom(evt,'out')"/>
                <use id="reset" xlink:href="#resetDef" x="30" y="36" onmousedown="handleReset()"/>
                <g id="arrowUp" xlink:href="#dirArrow" transform="translate(30 24)" onmousedown="handlePan(0,-1)">
                  <use xlink:href="#rim" fill="#404040">
                        <set attributeName="fill" to="#808080" begin="arrowUp.mouseover" end="arrowUp.mouseout"/>
                  </use>
                  <path fill="none" stroke="white" stroke-width="1.5" d="M0,-3.0v7 M-2.5,-0.5L0,-3.0L2.5,-0.5"/>
                </g>
                <g id="arrowRight" xlink:href="#dirArrow" transform="rotate(90) translate(36 -43)" onmousedown="handlePan(1,0)">
                  <use xlink:href="#rim" fill="#404040">
                        <set attributeName="fill" to="#808080" begin="arrowRight.mouseover" end="arrowRight.mouseout"/>
                  </use>
                  <path fill="none" stroke="white" stroke-width="1.5" d="M0,-3.0v7 M-2.5,-0.5L0,-3.0L2.5,-0.5"/>
                </g>
                <g id="arrowDown" xlink:href="#dirArrow" transform="rotate(180) translate(-30 -48)" onmousedown="handlePan(0,1)">
                  <use xlink:href="#rim" fill="#404040">
                        <set attributeName="fill" to="#808080" begin="arrowDown.mouseover" end="arrowDown.mouseout"/>
                  </use>
                  <path fill="none" stroke="white" stroke-width="1.5" d="M0,-3.0v7 M-2.5,-0.5L0,-3.0L2.5,-0.5"/>
                </g>
                <g id="arrowLeft" xlink:href="#dirArrow" transform="rotate(270) translate(-36 17)" onmousedown="handlePan(-1,0)">
                  <use xlink:href="#rim" fill="#404040">
                        <set attributeName="fill" to="#808080" begin="arrowLeft.mouseover" end="arrowLeft.mouseout"/>
                  </use>
                  <path fill="none" stroke="white" stroke-width="1.5" d="M0,-3.0v7 M-2.5,-0.5L0,-3.0L2.5,-0.5"/>
                </g>
        </g>
        <svg viewBox="0 0 15 15" width="100%" height="30px" preserveAspectRatio="xMaxYMin meet">
         <g id="arrow_out" transform="scale(0.3 0.3)">
          <a xlink:href="MatrixElementCache_8h__dep__incl_org.svg" target="_base">
           <rect id="button" ry="5" rx="5" y="6" x="6" height="38" width="38"
                fill="#f2f5e9" fill-opacity="0.5" stroke="#606060" stroke-width="1.0"/>
           <path id="arrow"
             d="M 11.500037,31.436501 C 11.940474,20.09759 22.043105,11.32322 32.158766,21.979434 L 37.068811,17.246167 C 37.068811,17.246167 37.088388,32 37.088388,32 L 22.160133,31.978069 C 22.160133,31.978069 26.997745,27.140456 26.997745,27.140456 C 18.528582,18.264221 13.291696,25.230495 11.500037,31.436501 z"
             style="fill:#404040;"/>
          </a>
         </g>
        </svg>
</svg>
