<?xml version="1.0" encoding="UTF-8" standalone="no"?>
<!DOCTYPE svg PUBLIC "-//W3C//DTD SVG 1.1//EN"
 "http://www.w3.org/Graphics/SVG/1.1/DTD/svg11.dtd">
<!-- Generated by graphviz version 2.38.0 (20140413.2041)
 -->
<!-- Title: selectionRulesMultipole Pages: 1 -->
<svg width="540pt" height="154pt"
 viewBox="0.00 0.00 540.00 153.50" xmlns="http://www.w3.org/2000/svg" xmlns:xlink="http://www.w3.org/1999/xlink">
<g id="graph0" class="graph" transform="scale(1 1) rotate(0) translate(4 149.5)">
<title>selectionRulesMultipole</title>
<!-- Node9 -->
<g id="node1" class="node"><title>Node9</title>
<polygon fill="#bfbfbf" stroke="black" points="0,-69 0,-88 128,-88 128,-69 0,-69"/>
<text text-anchor="middle" x="64" y="-76" font-family="Helvetica,sans-Serif" font-size="10.00">selectionRulesMultipole</text>
</g>
<!-- Node10 -->
<g id="node2" class="node"><title>Node10</title>
<g id="a_node2"><a xlink:href="classHamiltonianOne.html#a9cb71dcb34ab9f0779c0bd66b758185e" target="_top" xlink:title="HamiltonianOne::build">
<polygon fill="none" stroke="black" points="180.5,-126 180.5,-145 302.5,-145 302.5,-126 180.5,-126"/>
<text text-anchor="middle" x="241.5" y="-133" font-family="Helvetica,sans-Serif" font-size="10.00">HamiltonianOne::build</text>
</a>
</g>
</g>
<!-- Node9&#45;&gt;Node10 -->
<g id="edge1" class="edge"><title>Node9&#45;&gt;Node10</title>
<path fill="none" stroke="midnightblue" d="M96.9994,-91.9334C116.216,-99.7106 141.27,-109.345 164,-116.5 174.965,-119.952 186.97,-123.184 198.153,-125.969"/>
<polygon fill="midnightblue" stroke="midnightblue" points="98.1063,-88.6048 87.5255,-88.0587 95.4564,-95.0838 98.1063,-88.6048"/>
</g>
<!-- Node12 -->
<g id="node4" class="node"><title>Node12</title>
<g id="a_node4"><a xlink:href="classHamiltonianTwo.html#a6ca0a318f25170b69e571a07064a5afb" target="_top" xlink:title="HamiltonianTwo::calculate">
<polygon fill="none" stroke="black" points="171,-88 171,-107 312,-107 312,-88 171,-88"/>
<text text-anchor="middle" x="241.5" y="-95" font-family="Helvetica,sans-Serif" font-size="10.00">HamiltonianTwo::calculate</text>
</a>
</g>
</g>
<!-- Node9&#45;&gt;Node12 -->
<g id="edge3" class="edge"><title>Node9&#45;&gt;Node12</title>
<path fill="none" stroke="midnightblue" d="M138.551,-86.4628C149.297,-87.6261 160.334,-88.8211 170.996,-89.9753"/>
<polygon fill="midnightblue" stroke="midnightblue" points="138.678,-82.9562 128.36,-85.3594 137.925,-89.9155 138.678,-82.9562"/>
</g>
<!-- Node14 -->
<g id="node6" class="node"><title>Node14</title>
<g id="a_node6"><a xlink:href="classMatrixElements.html#a0bd2d4229fab692eb6b774fbff09cf83" target="_top" xlink:title="MatrixElements::getRadial">
<polygon fill="none" stroke="black" points="171,-50 171,-69 312,-69 312,-50 171,-50"/>
<text text-anchor="middle" x="241.5" y="-57" font-family="Helvetica,sans-Serif" font-size="10.00">MatrixElements::getRadial</text>
</a>
</g>
</g>
<!-- Node9&#45;&gt;Node14 -->
<g id="edge5" class="edge"><title>Node9&#45;&gt;Node14</title>
<path fill="none" stroke="midnightblue" d="M138.551,-70.5372C149.297,-69.3739 160.334,-68.1789 170.996,-67.0247"/>
<polygon fill="midnightblue" stroke="midnightblue" points="137.925,-67.0845 128.36,-71.6406 138.678,-74.0438 137.925,-67.0845"/>
</g>
<!-- Node15 -->
<g id="node7" class="node"><title>Node15</title>
<g id="a_node7"><a xlink:href="classMatrixElements.html#a3b28f19f9e89e549def8c8030b695489" target="_top" xlink:title="MatrixElements::precalculate\lDiamagnetism">
<polygon fill="none" stroke="black" points="164,-0.5 164,-30.5 319,-30.5 319,-0.5 164,-0.5"/>
<text text-anchor="start" x="172" y="-18.5" font-family="Helvetica,sans-Serif" font-size="10.00">MatrixElements::precalculate</text>
<text text-anchor="middle" x="241.5" y="-7.5" font-family="Helvetica,sans-Serif" font-size="10.00">Diamagnetism</text>
</a>
</g>
</g>
<!-- Node9&#45;&gt;Node15 -->
<g id="edge6" class="edge"><title>Node9&#45;&gt;Node15</title>
<path fill="none" stroke="midnightblue" d="M98.3489,-65.216C117.475,-57.719 141.987,-48.3159 164,-40.5 173.349,-37.1807 183.396,-33.7795 193.036,-30.5973"/>
<polygon fill="midnightblue" stroke="midnightblue" points="96.9024,-62.0239 88.8798,-68.9441 99.4668,-68.5373 96.9024,-62.0239"/>
</g>
<!-- Node11 -->
<g id="node3" class="node"><title>Node11</title>
<g id="a_node3"><a xlink:href="classHamiltonianOne.html#ad3ba2d70879a60c9f065b5a2545dfe36" target="_top" xlink:title="HamiltonianOne::HamiltonianOne">
<polygon fill="none" stroke="black" points="355,-126 355,-145 532,-145 532,-126 355,-126"/>
<text text-anchor="middle" x="443.5" y="-133" font-family="Helvetica,sans-Serif" font-size="10.00">HamiltonianOne::HamiltonianOne</text>
</a>
</g>
</g>
<!-- Node10&#45;&gt;Node11 -->
<g id="edge2" class="edge"><title>Node10&#45;&gt;Node11</title>
<path fill="none" stroke="midnightblue" d="M312.728,-135.5C326.326,-135.5 340.731,-135.5 354.807,-135.5"/>
<polygon fill="midnightblue" stroke="midnightblue" points="312.507,-132 302.507,-135.5 312.507,-139 312.507,-132"/>
</g>
<!-- Node13 -->
<g id="node5" class="node"><title>Node13</title>
<g id="a_node5"><a xlink:href="classHamiltonianTwo.html#abd374713c9b38f72265c7fe496c42b96" target="_top" xlink:title="HamiltonianTwo::HamiltonianTwo">
<polygon fill="none" stroke="black" points="356.5,-88 356.5,-107 530.5,-107 530.5,-88 356.5,-88"/>
<text text-anchor="middle" x="443.5" y="-95" font-family="Helvetica,sans-Serif" font-size="10.00">HamiltonianTwo::HamiltonianTwo</text>
</a>
</g>
</g>
<!-- Node12&#45;&gt;Node13 -->
<g id="edge4" class="edge"><title>Node12&#45;&gt;Node13</title>
<path fill="none" stroke="midnightblue" d="M322.289,-97.5C333.433,-97.5 344.927,-97.5 356.184,-97.5"/>
<polygon fill="midnightblue" stroke="midnightblue" points="322.17,-94.0001 312.17,-97.5 322.169,-101 322.17,-94.0001"/>
</g>
</g>
</svg>
