<?xml version="1.0" encoding="UTF-8" standalone="no"?>
<!DOCTYPE svg PUBLIC "-//W3C//DTD SVG 1.1//EN"
 "http://www.w3.org/Graphics/SVG/1.1/DTD/svg11.dtd">
<!-- Generated by graphviz version 2.38.0 (20140413.2041)
 -->
<!-- Title: utils::conjugate Pages: 1 -->
<svg width="267pt" height="88pt"
 viewBox="0.00 0.00 267.00 88.00" xmlns="http://www.w3.org/2000/svg" xmlns:xlink="http://www.w3.org/1999/xlink">
<g id="graph0" class="graph" transform="scale(1 1) rotate(0) translate(4 84)">
<title>utils::conjugate</title>
<!-- Node1 -->
<g id="node1" class="node"><title>Node1</title>
<polygon fill="#bfbfbf" stroke="black" points="0,-30 0,-49 89,-49 89,-30 0,-30"/>
<text text-anchor="middle" x="44.5" y="-37" font-family="Helvetica,sans-Serif" font-size="10.00">utils::conjugate</text>
</g>
<!-- Node2 -->
<g id="node2" class="node"><title>Node2</title>
<g id="a_node2"><a xlink:href="classSystemBase.html#ae7eefd0ce61dd7a4735eb9c18d060c1a" target="_top" xlink:title="SystemBase\&lt; StateTwo\l \&gt;::addHamiltonianEntry">
<polygon fill="none" stroke="black" points="125,-49.5 125,-79.5 259,-79.5 259,-49.5 125,-49.5"/>
<text text-anchor="start" x="133" y="-67.5" font-family="Helvetica,sans-Serif" font-size="10.00">SystemBase&lt; StateTwo</text>
<text text-anchor="middle" x="192" y="-56.5" font-family="Helvetica,sans-Serif" font-size="10.00"> &gt;::addHamiltonianEntry</text>
</a>
</g>
</g>
<!-- Node1&#45;&gt;Node2 -->
<g id="edge1" class="edge"><title>Node1&#45;&gt;Node2</title>
<path fill="none" stroke="midnightblue" d="M99.1262,-48.7141C107.475,-50.1486 116.185,-51.6452 124.773,-53.1208"/>
<polygon fill="midnightblue" stroke="midnightblue" points="99.6031,-45.2449 89.1548,-47.0008 98.4177,-52.1438 99.6031,-45.2449"/>
</g>
<!-- Node3 -->
<g id="node3" class="node"><title>Node3</title>
<g id="a_node3"><a xlink:href="classSystemBase.html#aefb89db5ee1dde9deae71cf44340e4be" target="_top" xlink:title="SystemBase\&lt; StateTwo\l \&gt;::setHamiltonianEntry">
<polygon fill="none" stroke="black" points="125.5,-0.5 125.5,-30.5 258.5,-30.5 258.5,-0.5 125.5,-0.5"/>
<text text-anchor="start" x="133.5" y="-18.5" font-family="Helvetica,sans-Serif" font-size="10.00">SystemBase&lt; StateTwo</text>
<text text-anchor="middle" x="192" y="-7.5" font-family="Helvetica,sans-Serif" font-size="10.00"> &gt;::setHamiltonianEntry</text>
</a>
</g>
</g>
<!-- Node1&#45;&gt;Node3 -->
<g id="edge2" class="edge"><title>Node1&#45;&gt;Node3</title>
<path fill="none" stroke="midnightblue" d="M99.2782,-30.6294C107.756,-29.231 116.603,-27.7717 125.314,-26.3349"/>
<polygon fill="midnightblue" stroke="midnightblue" points="98.4518,-27.2183 89.1548,-32.2992 99.5911,-34.125 98.4518,-27.2183"/>
</g>
</g>
</svg>
