<?xml version="1.0" encoding="UTF-8" standalone="no"?>
<!DOCTYPE svg PUBLIC "-//W3C//DTD SVG 1.1//EN"
 "http://www.w3.org/Graphics/SVG/1.1/DTD/svg11.dtd">
<!-- Generated by graphviz version 2.38.0 (20140413.2041)
 -->
<!-- Title: whittaker_functions::WhittakerW Pages: 1 -->
<svg width="589pt" height="75pt"
 viewBox="0.00 0.00 589.00 74.50" xmlns="http://www.w3.org/2000/svg" xmlns:xlink="http://www.w3.org/1999/xlink">
<g id="graph0" class="graph" transform="scale(1 1) rotate(0) translate(4 70.5)">
<title>whittaker_functions::WhittakerW</title>
<!-- Node16 -->
<g id="node1" class="node"><title>Node16</title>
<polygon fill="#bfbfbf" stroke="black" points="0,-22.5 0,-52.5 109,-52.5 109,-22.5 0,-22.5"/>
<text text-anchor="start" x="8" y="-40.5" font-family="Helvetica,sans-Serif" font-size="10.00">whittaker_functions</text>
<text text-anchor="middle" x="54.5" y="-29.5" font-family="Helvetica,sans-Serif" font-size="10.00">::WhittakerW</text>
</g>
<!-- Node17 -->
<g id="node2" class="node"><title>Node17</title>
<g id="a_node2"><a xlink:href="classNumerov.html#aac0e95cf7c77162c82d8e51e16bb423c" target="_top" xlink:title="Power kernel for matrix elements. ">
<polygon fill="none" stroke="black" points="291,-47 291,-66 421,-66 421,-47 291,-47"/>
<text text-anchor="middle" x="356" y="-54" font-family="Helvetica,sans-Serif" font-size="10.00">Numerov::power_kernel</text>
</a>
</g>
</g>
<!-- Node16&#45;&gt;Node17 -->
<g id="edge1" class="edge"><title>Node16&#45;&gt;Node17</title>
<path fill="none" stroke="midnightblue" d="M119.211,-41.5418C169.83,-44.753 240.298,-49.2234 290.994,-52.4395"/>
<polygon fill="midnightblue" stroke="midnightblue" points="119.246,-38.0371 109.045,-40.8968 118.803,-45.023 119.246,-38.0371"/>
</g>
<!-- Node18 -->
<g id="node3" class="node"><title>Node18</title>
<g id="a_node3"><a xlink:href="namespacewhittaker__functions.html#ab69b6f45a0c575b401bdaf26a250f084" target="_top" xlink:title="Radial wavefunctions from Whittaker&#39;s function. ">
<polygon fill="none" stroke="black" points="145,-0.5 145,-30.5 255,-30.5 255,-0.5 145,-0.5"/>
<text text-anchor="start" x="153" y="-18.5" font-family="Helvetica,sans-Serif" font-size="10.00">whittaker_functions</text>
<text text-anchor="middle" x="200" y="-7.5" font-family="Helvetica,sans-Serif" font-size="10.00">::RadialWFWhittaker</text>
</a>
</g>
</g>
<!-- Node16&#45;&gt;Node18 -->
<g id="edge2" class="edge"><title>Node16&#45;&gt;Node18</title>
<path fill="none" stroke="midnightblue" d="M119.268,-27.7237C127.809,-26.4143 136.502,-25.0816 144.856,-23.8008"/>
<polygon fill="midnightblue" stroke="midnightblue" points="118.696,-24.2704 109.342,-29.2454 119.757,-31.1895 118.696,-24.2704"/>
</g>
<!-- Node18&#45;&gt;Node17 -->
<g id="edge5" class="edge"><title>Node18&#45;&gt;Node17</title>
<path fill="none" stroke="midnightblue" d="M265.101,-32.5657C283.517,-37.4688 302.946,-42.6416 319.012,-46.9189"/>
<polygon fill="midnightblue" stroke="midnightblue" points="265.859,-29.1457 255.295,-29.9551 264.058,-35.91 265.859,-29.1457"/>
</g>
<!-- Node19 -->
<g id="node4" class="node"><title>Node19</title>
<g id="a_node4"><a xlink:href="classWhittaker.html#ace99701f5bf448389ba485f293fa90cb" target="_top" xlink:title="Evaluate the radial wavefunction. ">
<polygon fill="none" stroke="black" points="300.5,-6 300.5,-25 411.5,-25 411.5,-6 300.5,-6"/>
<text text-anchor="middle" x="356" y="-13" font-family="Helvetica,sans-Serif" font-size="10.00">Whittaker::integrate</text>
</a>
</g>
</g>
<!-- Node18&#45;&gt;Node19 -->
<g id="edge3" class="edge"><title>Node18&#45;&gt;Node19</title>
<path fill="none" stroke="midnightblue" d="M265.399,-15.5C277.045,-15.5 289.085,-15.5 300.417,-15.5"/>
<polygon fill="midnightblue" stroke="midnightblue" points="265.295,-12.0001 255.295,-15.5 265.295,-19.0001 265.295,-12.0001"/>
</g>
<!-- Node20 -->
<g id="node5" class="node"><title>Node20</title>
<g id="a_node5"><a xlink:href="wavefunction__test_8cpp.html#adb72abe457d6e027bde21aa19c0f36a9" target="_top" xlink:title="BOOST_FIXTURE_TEST\l_CASE_TEMPLATE">
<polygon fill="none" stroke="black" points="457,-0.5 457,-30.5 581,-30.5 581,-0.5 457,-0.5"/>
<text text-anchor="start" x="465" y="-18.5" font-family="Helvetica,sans-Serif" font-size="10.00">BOOST_FIXTURE_TEST</text>
<text text-anchor="middle" x="519" y="-7.5" font-family="Helvetica,sans-Serif" font-size="10.00">_CASE_TEMPLATE</text>
</a>
</g>
</g>
<!-- Node19&#45;&gt;Node20 -->
<g id="edge4" class="edge"><title>Node19&#45;&gt;Node20</title>
<path fill="none" stroke="midnightblue" d="M421.599,-15.5C433.247,-15.5 445.358,-15.5 456.903,-15.5"/>
<polygon fill="midnightblue" stroke="midnightblue" points="421.507,-12.0001 411.507,-15.5 421.507,-19.0001 421.507,-12.0001"/>
</g>
</g>
</svg>
