<?xml version="1.0" encoding="UTF-8" standalone="no"?>
<!DOCTYPE svg PUBLIC "-//W3C//DTD SVG 1.1//EN"
 "http://www.w3.org/Graphics/SVG/1.1/DTD/svg11.dtd">
<!-- Generated by graphviz version 2.38.0 (20140413.2041)
 -->
<!-- Title: model_potential::V Pages: 1 -->
<svg width="626pt" height="124pt"
 viewBox="0.00 0.00 626.00 124.00" xmlns="http://www.w3.org/2000/svg" xmlns:xlink="http://www.w3.org/1999/xlink">
<g id="graph0" class="graph" transform="scale(1 1) rotate(0) translate(4 120)">
<title>model_potential::V</title>
<!-- Node8 -->
<g id="node1" class="node"><title>Node8</title>
<polygon fill="#bfbfbf" stroke="black" points="0,-50 0,-69 107,-69 107,-50 0,-50"/>
<text text-anchor="middle" x="53.5" y="-57" font-family="Helvetica,sans-Serif" font-size="10.00">model_potential::V</text>
</g>
<!-- Node9 -->
<g id="node2" class="node"><title>Node9</title>
<g id="a_node2"><a xlink:href="wavefunction__test_8cpp.html#ad533eb5be260ec2c91319b4bc1365657" target="_top" xlink:title="BOOST_FIXTURE_TEST\l_CASE_TEMPLATE">
<polygon fill="none" stroke="black" points="323,-85.5 323,-115.5 447,-115.5 447,-85.5 323,-85.5"/>
<text text-anchor="start" x="331" y="-103.5" font-family="Helvetica,sans-Serif" font-size="10.00">BOOST_FIXTURE_TEST</text>
<text text-anchor="middle" x="385" y="-92.5" font-family="Helvetica,sans-Serif" font-size="10.00">_CASE_TEMPLATE</text>
</a>
</g>
</g>
<!-- Node8&#45;&gt;Node9 -->
<g id="edge1" class="edge"><title>Node8&#45;&gt;Node9</title>
<path fill="none" stroke="midnightblue" d="M103.892,-71.2034C116.582,-73.9071 130.251,-76.5568 143,-78.5 203.848,-87.7745 273.978,-93.6388 322.84,-96.9587"/>
<polygon fill="midnightblue" stroke="midnightblue" points="104.478,-67.749 93.9619,-69.0361 102.986,-74.588 104.478,-67.749"/>
</g>
<!-- Node11 -->
<g id="node4" class="node"><title>Node11</title>
<g id="a_node4"><a xlink:href="namespacemodel__potential.html#a8239dc44dc82bb860c84927579ddda34" target="_top" xlink:title="Helper function for Numerov&#39;s method.s. ">
<polygon fill="none" stroke="black" points="156.5,-50 156.5,-69 262.5,-69 262.5,-50 156.5,-50"/>
<text text-anchor="middle" x="209.5" y="-57" font-family="Helvetica,sans-Serif" font-size="10.00">model_potential::g</text>
</a>
</g>
</g>
<!-- Node8&#45;&gt;Node11 -->
<g id="edge3" class="edge"><title>Node8&#45;&gt;Node11</title>
<path fill="none" stroke="midnightblue" d="M117.336,-59.5C130.327,-59.5 143.874,-59.5 156.431,-59.5"/>
<polygon fill="midnightblue" stroke="midnightblue" points="117.067,-56.0001 107.067,-59.5 117.067,-63.0001 117.067,-56.0001"/>
</g>
<!-- Node14 -->
<g id="node7" class="node"><title>Node14</title>
<g id="a_node7"><a xlink:href="classSystemBase.html#a8da674b7b97c0b8d2dca5d9d2d7952a2" target="_top" xlink:title="SystemBase\&lt; StateTwo\l \&gt;::range">
<polygon fill="none" stroke="black" points="143,-0.5 143,-30.5 276,-30.5 276,-0.5 143,-0.5"/>
<text text-anchor="start" x="151" y="-18.5" font-family="Helvetica,sans-Serif" font-size="10.00">SystemBase&lt; StateTwo</text>
<text text-anchor="middle" x="209.5" y="-7.5" font-family="Helvetica,sans-Serif" font-size="10.00"> &gt;::range</text>
</a>
</g>
</g>
<!-- Node8&#45;&gt;Node14 -->
<g id="edge8" class="edge"><title>Node8&#45;&gt;Node14</title>
<path fill="none" stroke="midnightblue" d="M97.5912,-47.1882C115.643,-42.0306 136.802,-35.9852 155.771,-30.5654"/>
<polygon fill="midnightblue" stroke="midnightblue" points="96.5694,-43.84 87.9157,-49.9527 98.4925,-50.5707 96.5694,-43.84"/>
</g>
<!-- Node10 -->
<g id="node3" class="node"><title>Node10</title>
<g id="a_node3"><a xlink:href="wavefunction__test_8cpp.html#adb72abe457d6e027bde21aa19c0f36a9" target="_top" xlink:title="BOOST_FIXTURE_TEST\l_CASE_TEMPLATE">
<polygon fill="none" stroke="black" points="494,-44.5 494,-74.5 618,-74.5 618,-44.5 494,-44.5"/>
<text text-anchor="start" x="502" y="-62.5" font-family="Helvetica,sans-Serif" font-size="10.00">BOOST_FIXTURE_TEST</text>
<text text-anchor="middle" x="556" y="-51.5" font-family="Helvetica,sans-Serif" font-size="10.00">_CASE_TEMPLATE</text>
</a>
</g>
</g>
<!-- Node9&#45;&gt;Node10 -->
<g id="edge2" class="edge"><title>Node9&#45;&gt;Node10</title>
<path fill="none" stroke="midnightblue" d="M456.772,-83.3304C469.074,-80.346 481.774,-77.2648 493.793,-74.349"/>
<polygon fill="midnightblue" stroke="midnightblue" points="455.906,-79.939 447.013,-85.6981 457.556,-86.7417 455.906,-79.939"/>
</g>
<!-- Node11&#45;&gt;Node9 -->
<g id="edge5" class="edge"><title>Node11&#45;&gt;Node9</title>
<path fill="none" stroke="midnightblue" d="M260.608,-71.3412C280.055,-75.9365 302.51,-81.2431 322.891,-86.0594"/>
<polygon fill="midnightblue" stroke="midnightblue" points="261.277,-67.9029 250.74,-69.0093 259.667,-74.7153 261.277,-67.9029"/>
</g>
<!-- Node12 -->
<g id="node5" class="node"><title>Node12</title>
<g id="a_node5"><a xlink:href="classSystemTwo.html#ada3dc67aecef241fd7f39ddb9e973aa0" target="_top" xlink:title="Method that allows base class to construct Hamiltonian /////////. ">
<polygon fill="none" stroke="black" points="312,-47 312,-66 458,-66 458,-47 312,-47"/>
<text text-anchor="middle" x="385" y="-54" font-family="Helvetica,sans-Serif" font-size="10.00">SystemTwo::addInteraction</text>
</a>
</g>
</g>
<!-- Node11&#45;&gt;Node12 -->
<g id="edge4" class="edge"><title>Node11&#45;&gt;Node12</title>
<path fill="none" stroke="midnightblue" d="M272.558,-58.4269C285.266,-58.2072 298.744,-57.9742 311.773,-57.7489"/>
<polygon fill="midnightblue" stroke="midnightblue" points="272.494,-54.9274 262.556,-58.5999 272.615,-61.9264 272.494,-54.9274"/>
</g>
<!-- Node13 -->
<g id="node6" class="node"><title>Node13</title>
<g id="a_node6"><a xlink:href="classNumerov.html#abe0bc223b504ce1f4736c1879582de8e" target="_top" xlink:title="Perform the integration. ">
<polygon fill="none" stroke="black" points="330,-9 330,-28 440,-28 440,-9 330,-9"/>
<text text-anchor="middle" x="385" y="-16" font-family="Helvetica,sans-Serif" font-size="10.00">Numerov::integrate</text>
</a>
</g>
</g>
<!-- Node11&#45;&gt;Node13 -->
<g id="edge6" class="edge"><title>Node11&#45;&gt;Node13</title>
<path fill="none" stroke="midnightblue" d="M260.557,-47.6709C286.949,-41.4342 318.896,-33.8847 343.678,-28.0286"/>
<polygon fill="midnightblue" stroke="midnightblue" points="259.667,-44.2847 250.74,-49.9907 261.277,-51.0971 259.667,-44.2847"/>
</g>
<!-- Node13&#45;&gt;Node10 -->
<g id="edge7" class="edge"><title>Node13&#45;&gt;Node10</title>
<path fill="none" stroke="midnightblue" d="M435.087,-30.4086C453.444,-34.8621 474.523,-39.9761 493.838,-44.6618"/>
<polygon fill="midnightblue" stroke="midnightblue" points="435.74,-26.9657 425.197,-28.0093 434.09,-33.7683 435.74,-26.9657"/>
</g>
</g>
</svg>
