<?xml version="1.0" encoding="UTF-8" standalone="no"?>
<!DOCTYPE svg PUBLIC "-//W3C//DTD SVG 1.1//EN"
 "http://www.w3.org/Graphics/SVG/1.1/DTD/svg11.dtd">
<!-- Generated by graphviz version 2.38.0 (20140413.2041)
 -->
<!-- Title: whittaker_functions::HypergeometricU Pages: 1 -->
<svg width="734pt" height="99pt"
 viewBox="0.00 0.00 734.00 99.00" xmlns="http://www.w3.org/2000/svg" xmlns:xlink="http://www.w3.org/1999/xlink">
<g id="graph0" class="graph" transform="scale(1 1) rotate(0) translate(4 95)">
<title>whittaker_functions::HypergeometricU</title>
<!-- Node1 -->
<g id="node1" class="node"><title>Node1</title>
<polygon fill="#bfbfbf" stroke="black" points="0,-60.5 0,-90.5 109,-90.5 109,-60.5 0,-60.5"/>
<text text-anchor="start" x="8" y="-78.5" font-family="Helvetica,sans-Serif" font-size="10.00">whittaker_functions</text>
<text text-anchor="middle" x="54.5" y="-67.5" font-family="Helvetica,sans-Serif" font-size="10.00">::HypergeometricU</text>
</g>
<!-- Node2 -->
<g id="node2" class="node"><title>Node2</title>
<g id="a_node2"><a xlink:href="classNumerov.html#aac0e95cf7c77162c82d8e51e16bb423c" target="_top" xlink:title="Power kernel for matrix elements. ">
<polygon fill="none" stroke="black" points="436,-50 436,-69 566,-69 566,-50 436,-50"/>
<text text-anchor="middle" x="501" y="-57" font-family="Helvetica,sans-Serif" font-size="10.00">Numerov::power_kernel</text>
</a>
</g>
</g>
<!-- Node1&#45;&gt;Node2 -->
<g id="edge1" class="edge"><title>Node1&#45;&gt;Node2</title>
<path fill="none" stroke="midnightblue" d="M119.448,-77.9045C128.036,-78.151 136.732,-78.3615 145,-78.5 258.373,-80.3996 286.993,-79.8044 400,-70.5 411.576,-69.5469 423.885,-68.3467 435.766,-67.0921"/>
<polygon fill="midnightblue" stroke="midnightblue" points="119.548,-74.406 109.446,-77.6007 119.335,-81.4028 119.548,-74.406"/>
</g>
<!-- Node3 -->
<g id="node3" class="node"><title>Node3</title>
<g id="a_node3"><a xlink:href="namespacewhittaker__functions.html#a27cc4e33339852cc4bce929bf7c0b4d4" target="_top" xlink:title="Compute the Whittaker function. ">
<polygon fill="none" stroke="black" points="145,-38.5 145,-68.5 254,-68.5 254,-38.5 145,-38.5"/>
<text text-anchor="start" x="153" y="-56.5" font-family="Helvetica,sans-Serif" font-size="10.00">whittaker_functions</text>
<text text-anchor="middle" x="199.5" y="-45.5" font-family="Helvetica,sans-Serif" font-size="10.00">::WhittakerW</text>
</a>
</g>
</g>
<!-- Node1&#45;&gt;Node3 -->
<g id="edge2" class="edge"><title>Node1&#45;&gt;Node3</title>
<path fill="none" stroke="midnightblue" d="M119.046,-65.7237C127.557,-64.4143 136.22,-63.0816 144.545,-61.8008"/>
<polygon fill="midnightblue" stroke="midnightblue" points="118.506,-62.2655 109.155,-67.2454 119.571,-69.1841 118.506,-62.2655"/>
</g>
<!-- Node3&#45;&gt;Node2 -->
<g id="edge7" class="edge"><title>Node3&#45;&gt;Node2</title>
<path fill="none" stroke="midnightblue" d="M264.211,-54.7763C314.83,-55.7904 385.298,-57.2021 435.994,-58.2177"/>
<polygon fill="midnightblue" stroke="midnightblue" points="264.113,-51.2738 254.045,-54.5727 263.972,-58.2724 264.113,-51.2738"/>
</g>
<!-- Node4 -->
<g id="node4" class="node"><title>Node4</title>
<g id="a_node4"><a xlink:href="namespacewhittaker__functions.html#ab69b6f45a0c575b401bdaf26a250f084" target="_top" xlink:title="Radial wavefunctions from Whittaker&#39;s function. ">
<polygon fill="none" stroke="black" points="290,-0.5 290,-30.5 400,-30.5 400,-0.5 290,-0.5"/>
<text text-anchor="start" x="298" y="-18.5" font-family="Helvetica,sans-Serif" font-size="10.00">whittaker_functions</text>
<text text-anchor="middle" x="345" y="-7.5" font-family="Helvetica,sans-Serif" font-size="10.00">::RadialWFWhittaker</text>
</a>
</g>
</g>
<!-- Node3&#45;&gt;Node4 -->
<g id="edge3" class="edge"><title>Node3&#45;&gt;Node4</title>
<path fill="none" stroke="midnightblue" d="M264.268,-36.6136C272.809,-34.352 281.502,-32.05 289.856,-29.8378"/>
<polygon fill="midnightblue" stroke="midnightblue" points="263.113,-33.2988 254.342,-39.2421 264.905,-40.0655 263.113,-33.2988"/>
</g>
<!-- Node4&#45;&gt;Node2 -->
<g id="edge6" class="edge"><title>Node4&#45;&gt;Node2</title>
<path fill="none" stroke="midnightblue" d="M408.211,-33.2745C428.129,-38.9654 449.419,-45.0484 466.476,-49.9217"/>
<polygon fill="midnightblue" stroke="midnightblue" points="409.144,-29.9012 398.567,-30.5192 407.221,-36.6319 409.144,-29.9012"/>
</g>
<!-- Node5 -->
<g id="node5" class="node"><title>Node5</title>
<g id="a_node5"><a xlink:href="classWhittaker.html#ace99701f5bf448389ba485f293fa90cb" target="_top" xlink:title="Evaluate the radial wavefunction. ">
<polygon fill="none" stroke="black" points="445.5,-6 445.5,-25 556.5,-25 556.5,-6 445.5,-6"/>
<text text-anchor="middle" x="501" y="-13" font-family="Helvetica,sans-Serif" font-size="10.00">Whittaker::integrate</text>
</a>
</g>
</g>
<!-- Node4&#45;&gt;Node5 -->
<g id="edge4" class="edge"><title>Node4&#45;&gt;Node5</title>
<path fill="none" stroke="midnightblue" d="M410.399,-15.5C422.045,-15.5 434.085,-15.5 445.417,-15.5"/>
<polygon fill="midnightblue" stroke="midnightblue" points="410.295,-12.0001 400.295,-15.5 410.295,-19.0001 410.295,-12.0001"/>
</g>
<!-- Node6 -->
<g id="node6" class="node"><title>Node6</title>
<g id="a_node6"><a xlink:href="wavefunction__test_8cpp.html#adb72abe457d6e027bde21aa19c0f36a9" target="_top" xlink:title="BOOST_FIXTURE_TEST\l_CASE_TEMPLATE">
<polygon fill="none" stroke="black" points="602,-0.5 602,-30.5 726,-30.5 726,-0.5 602,-0.5"/>
<text text-anchor="start" x="610" y="-18.5" font-family="Helvetica,sans-Serif" font-size="10.00">BOOST_FIXTURE_TEST</text>
<text text-anchor="middle" x="664" y="-7.5" font-family="Helvetica,sans-Serif" font-size="10.00">_CASE_TEMPLATE</text>
</a>
</g>
</g>
<!-- Node5&#45;&gt;Node6 -->
<g id="edge5" class="edge"><title>Node5&#45;&gt;Node6</title>
<path fill="none" stroke="midnightblue" d="M566.599,-15.5C578.247,-15.5 590.358,-15.5 601.903,-15.5"/>
<polygon fill="midnightblue" stroke="midnightblue" points="566.507,-12.0001 556.507,-15.5 566.507,-19.0001 566.507,-12.0001"/>
</g>
</g>
</svg>
