<?xml version="1.0" encoding="UTF-8" standalone="no"?>
<!DOCTYPE svg PUBLIC "-//W3C//DTD SVG 1.1//EN"
 "http://www.w3.org/Graphics/SVG/1.1/DTD/svg11.dtd">
<!-- Generated by graphviz version 2.38.0 (20140413.2041)
 -->
<!-- Title: numpy::internal::check_order_and_alignment Pages: 1 -->
<svg width="278pt" height="78pt"
 viewBox="0.00 0.00 278.00 77.50" xmlns="http://www.w3.org/2000/svg" xmlns:xlink="http://www.w3.org/1999/xlink">
<g id="graph0" class="graph" transform="scale(1 1) rotate(0) translate(4 73.5)">
<title>numpy::internal::check_order_and_alignment</title>
<!-- Node7 -->
<g id="node1" class="node"><title>Node7</title>
<polygon fill="#bfbfbf" stroke="black" points="0,-22.5 0,-52.5 125,-52.5 125,-22.5 0,-22.5"/>
<text text-anchor="start" x="8" y="-40.5" font-family="Helvetica,sans-Serif" font-size="10.00">numpy::internal::check</text>
<text text-anchor="middle" x="62.5" y="-29.5" font-family="Helvetica,sans-Serif" font-size="10.00">_order_and_alignment</text>
</g>
<!-- Node8 -->
<g id="node2" class="node"><title>Node8</title>
<g id="a_node2"><a xlink:href="namespacenumpy.html#a96b898cb85c300d8283beadd6a087ecd" target="_top" xlink:title="Convert a Numpy array to an Eigen::SparseMatrix. ">
<polygon fill="none" stroke="black" points="182,-50 182,-69 249,-69 249,-50 182,-50"/>
<text text-anchor="middle" x="215.5" y="-57" font-family="Helvetica,sans-Serif" font-size="10.00">numpy::as</text>
</a>
</g>
</g>
<!-- Node7&#45;&gt;Node8 -->
<g id="edge1" class="edge"><title>Node7&#45;&gt;Node8</title>
<path fill="none" stroke="midnightblue" d="M135.431,-47.98C151.706,-50.3513 168.203,-52.7548 181.888,-54.7485"/>
<polygon fill="midnightblue" stroke="midnightblue" points="135.753,-44.4901 125.353,-46.5117 134.744,-51.417 135.753,-44.4901"/>
</g>
<!-- Node9 -->
<g id="node3" class="node"><title>Node9</title>
<g id="a_node3"><a xlink:href="namespacenumpy_1_1internal.html#a9d12943d90137c9c91dceeb4775f1b14" target="_top" xlink:title="Deconstruct a numpy array for conversion to dense Eigen type. ">
<polygon fill="none" stroke="black" points="161,-0.5 161,-30.5 270,-30.5 270,-0.5 161,-0.5"/>
<text text-anchor="start" x="169" y="-18.5" font-family="Helvetica,sans-Serif" font-size="10.00">numpy::internal::as</text>
<text text-anchor="middle" x="215.5" y="-7.5" font-family="Helvetica,sans-Serif" font-size="10.00">_dense_impl</text>
</a>
</g>
</g>
<!-- Node7&#45;&gt;Node9 -->
<g id="edge2" class="edge"><title>Node7&#45;&gt;Node9</title>
<path fill="none" stroke="midnightblue" d="M135.33,-27.0346C143.877,-25.7895 152.486,-24.5352 160.718,-23.3358"/>
<polygon fill="midnightblue" stroke="midnightblue" points="134.744,-23.583 125.353,-28.4883 135.753,-30.5099 134.744,-23.583"/>
</g>
</g>
</svg>
