<?xml version="1.0" encoding="UTF-8" standalone="no"?>
<!DOCTYPE svg PUBLIC "-//W3C//DTD SVG 1.1//EN"
 "http://www.w3.org/Graphics/SVG/1.1/DTD/svg11.dtd">
<!-- Generated by graphviz version 2.38.0 (20140413.2041)
 -->
<!-- Title: utils::is_true Pages: 1 -->
<svg width="251pt" height="88pt"
 viewBox="0.00 0.00 251.00 88.00" xmlns="http://www.w3.org/2000/svg" xmlns:xlink="http://www.w3.org/1999/xlink">
<g id="graph0" class="graph" transform="scale(1 1) rotate(0) translate(4 84)">
<title>utils::is_true</title>
<!-- Node23 -->
<g id="node1" class="node"><title>Node23</title>
<polygon fill="#bfbfbf" stroke="black" points="0,-30 0,-49 74,-49 74,-30 0,-30"/>
<text text-anchor="middle" x="37" y="-37" font-family="Helvetica,sans-Serif" font-size="10.00">utils::is_true</text>
</g>
<!-- Node24 -->
<g id="node2" class="node"><title>Node24</title>
<g id="a_node2"><a xlink:href="classSystemBase.html#a748ead73b259b465a7974bc4dc1c578d" target="_top" xlink:title="SystemBase\&lt; StateTwo\l \&gt;::getOverlap">
<polygon fill="none" stroke="black" points="110,-49.5 110,-79.5 243,-79.5 243,-49.5 110,-49.5"/>
<text text-anchor="start" x="118" y="-67.5" font-family="Helvetica,sans-Serif" font-size="10.00">SystemBase&lt; StateTwo</text>
<text text-anchor="middle" x="176.5" y="-56.5" font-family="Helvetica,sans-Serif" font-size="10.00"> &gt;::getOverlap</text>
</a>
</g>
</g>
<!-- Node23&#45;&gt;Node24 -->
<g id="edge1" class="edge"><title>Node23&#45;&gt;Node24</title>
<path fill="none" stroke="midnightblue" d="M83.9728,-47.8587C92.2796,-49.369 101.086,-50.9703 109.827,-52.5594"/>
<polygon fill="midnightblue" stroke="midnightblue" points="84.5913,-44.4138 74.1265,-46.0685 83.3391,-51.3009 84.5913,-44.4138"/>
</g>
<!-- Node25 -->
<g id="node3" class="node"><title>Node25</title>
<g id="a_node3"><a xlink:href="classSystemBase.html#aae9d3057b1cc88835f48b82b89065b0d" target="_top" xlink:title="Methods to manipulate entries of the Hamiltonian ///////////////. ">
<polygon fill="none" stroke="black" points="110,-0.5 110,-30.5 243,-30.5 243,-0.5 110,-0.5"/>
<text text-anchor="start" x="118" y="-18.5" font-family="Helvetica,sans-Serif" font-size="10.00">SystemBase&lt; StateTwo</text>
<text text-anchor="middle" x="176.5" y="-7.5" font-family="Helvetica,sans-Serif" font-size="10.00"> &gt;::getStateIndex</text>
</a>
</g>
</g>
<!-- Node23&#45;&gt;Node25 -->
<g id="edge2" class="edge"><title>Node23&#45;&gt;Node25</title>
<path fill="none" stroke="midnightblue" d="M84.2468,-31.4278C92.4731,-29.992 101.183,-28.4718 109.827,-26.9629"/>
<polygon fill="midnightblue" stroke="midnightblue" points="83.3757,-28.0269 74.1265,-33.1943 84.5794,-34.9226 83.3757,-28.0269"/>
</g>
</g>
</svg>
