<?xml version="1.0" encoding="UTF-8" standalone="no"?>
<!DOCTYPE svg PUBLIC "-//W3C//DTD SVG 1.1//EN"
 "http://www.w3.org/Graphics/SVG/1.1/DTD/svg11.dtd">
<!-- Generated by graphviz version 2.38.0 (20140413.2041)
 -->
<!-- Title: model_potential::g Pages: 1 -->
<svg width="456pt" height="116pt"
 viewBox="0.00 0.00 456.00 116.00" xmlns="http://www.w3.org/2000/svg" xmlns:xlink="http://www.w3.org/1999/xlink">
<g id="graph0" class="graph" transform="scale(1 1) rotate(0) translate(4 112)">
<title>model_potential::g</title>
<!-- Node2 -->
<g id="node1" class="node"><title>Node2</title>
<polygon fill="#bfbfbf" stroke="black" points="0,-44.5 0,-63.5 106,-63.5 106,-44.5 0,-44.5"/>
<text text-anchor="middle" x="53" y="-51.5" font-family="Helvetica,sans-Serif" font-size="10.00">model_potential::g</text>
</g>
<!-- Node3 -->
<g id="node2" class="node"><title>Node3</title>
<g id="a_node2"><a xlink:href="classSystemTwo.html#ada3dc67aecef241fd7f39ddb9e973aa0" target="_top" xlink:title="Method that allows base class to construct Hamiltonian /////////. ">
<polygon fill="none" stroke="black" points="142,-88.5 142,-107.5 288,-107.5 288,-88.5 142,-88.5"/>
<text text-anchor="middle" x="215" y="-95.5" font-family="Helvetica,sans-Serif" font-size="10.00">SystemTwo::addInteraction</text>
</a>
</g>
</g>
<!-- Node2&#45;&gt;Node3 -->
<g id="edge1" class="edge"><title>Node2&#45;&gt;Node3</title>
<path fill="none" stroke="midnightblue" d="M96.6162,-66.2811C111.014,-70.3837 127.19,-74.9425 142,-79 153.471,-82.1426 165.996,-85.4804 177.336,-88.4671"/>
<polygon fill="midnightblue" stroke="midnightblue" points="97.5485,-62.9075 86.9717,-63.5256 95.6254,-69.6382 97.5485,-62.9075"/>
</g>
<!-- Node4 -->
<g id="node3" class="node"><title>Node4</title>
<g id="a_node3"><a xlink:href="wavefunction__test_8cpp.html#ad533eb5be260ec2c91319b4bc1365657" target="_top" xlink:title="BOOST_FIXTURE_TEST\l_CASE_TEMPLATE">
<polygon fill="none" stroke="black" points="153,-39 153,-69 277,-69 277,-39 153,-39"/>
<text text-anchor="start" x="161" y="-57" font-family="Helvetica,sans-Serif" font-size="10.00">BOOST_FIXTURE_TEST</text>
<text text-anchor="middle" x="215" y="-46" font-family="Helvetica,sans-Serif" font-size="10.00">_CASE_TEMPLATE</text>
</a>
</g>
</g>
<!-- Node2&#45;&gt;Node4 -->
<g id="edge2" class="edge"><title>Node2&#45;&gt;Node4</title>
<path fill="none" stroke="midnightblue" d="M116.682,-54C128.583,-54 141.021,-54 152.872,-54"/>
<polygon fill="midnightblue" stroke="midnightblue" points="116.39,-50.5001 106.39,-54 116.39,-57.5001 116.39,-50.5001"/>
</g>
<!-- Node6 -->
<g id="node5" class="node"><title>Node6</title>
<g id="a_node5"><a xlink:href="classNumerov.html#abe0bc223b504ce1f4736c1879582de8e" target="_top" xlink:title="Perform the integration. ">
<polygon fill="none" stroke="black" points="160,-0.5 160,-19.5 270,-19.5 270,-0.5 160,-0.5"/>
<text text-anchor="middle" x="215" y="-7.5" font-family="Helvetica,sans-Serif" font-size="10.00">Numerov::integrate</text>
</a>
</g>
</g>
<!-- Node2&#45;&gt;Node6 -->
<g id="edge4" class="edge"><title>Node2&#45;&gt;Node6</title>
<path fill="none" stroke="midnightblue" d="M98.5376,-41.7522C124.082,-34.7276 155.673,-26.04 179.35,-19.5287"/>
<polygon fill="midnightblue" stroke="midnightblue" points="97.4316,-38.4263 88.7176,-44.4527 99.2877,-45.1757 97.4316,-38.4263"/>
</g>
<!-- Node5 -->
<g id="node4" class="node"><title>Node5</title>
<g id="a_node4"><a xlink:href="wavefunction__test_8cpp.html#adb72abe457d6e027bde21aa19c0f36a9" target="_top" xlink:title="BOOST_FIXTURE_TEST\l_CASE_TEMPLATE">
<polygon fill="none" stroke="black" points="324,-17 324,-47 448,-47 448,-17 324,-17"/>
<text text-anchor="start" x="332" y="-35" font-family="Helvetica,sans-Serif" font-size="10.00">BOOST_FIXTURE_TEST</text>
<text text-anchor="middle" x="386" y="-24" font-family="Helvetica,sans-Serif" font-size="10.00">_CASE_TEMPLATE</text>
</a>
</g>
</g>
<!-- Node4&#45;&gt;Node5 -->
<g id="edge3" class="edge"><title>Node4&#45;&gt;Node5</title>
<path fill="none" stroke="midnightblue" d="M287.138,-44.7394C299.325,-43.1529 311.893,-41.5168 323.793,-39.9678"/>
<polygon fill="midnightblue" stroke="midnightblue" points="286.477,-41.2958 277.013,-46.0575 287.381,-48.2372 286.477,-41.2958"/>
</g>
<!-- Node6&#45;&gt;Node5 -->
<g id="edge5" class="edge"><title>Node6&#45;&gt;Node5</title>
<path fill="none" stroke="midnightblue" d="M280.601,-18.4096C294.835,-20.2625 309.868,-22.2194 323.955,-24.0534"/>
<polygon fill="midnightblue" stroke="midnightblue" points="280.771,-14.9023 270.403,-17.082 279.867,-21.8437 280.771,-14.9023"/>
</g>
</g>
</svg>
