<?xml version="1.0" encoding="UTF-8" standalone="no"?>
<!DOCTYPE svg PUBLIC "-//W3C//DTD SVG 1.1//EN"
 "http://www.w3.org/Graphics/SVG/1.1/DTD/svg11.dtd">
<!-- Generated by graphviz version 2.38.0 (20140413.2041)
 -->
<!-- Title: /travis/pairinteraction/QuantumDefect.h Pages: 1 -->
<svg width="1604pt" height="218pt"
 viewBox="0.00 0.00 1604.00 218.00" xmlns="http://www.w3.org/2000/svg" xmlns:xlink="http://www.w3.org/1999/xlink">
<g id="graph0" class="graph" transform="scale(1 1) rotate(0) translate(4 214)">
<title>/travis/pairinteraction/QuantumDefect.h</title>
<!-- Node0 -->
<g id="node1" class="node"><title>Node0</title>
<polygon fill="#bfbfbf" stroke="black" points="713.5,-179.5 713.5,-209.5 831.5,-209.5 831.5,-179.5 713.5,-179.5"/>
<text text-anchor="start" x="721.5" y="-197.5" font-family="Helvetica,sans-Serif" font-size="10.00">/travis/pairinteraction</text>
<text text-anchor="middle" x="772.5" y="-186.5" font-family="Helvetica,sans-Serif" font-size="10.00">/QuantumDefect.h</text>
</g>
<!-- Node1 -->
<g id="node2" class="node"><title>Node1</title>
<g id="a_node2"><a xlink:href="Cache_8h.html" target="_top" xlink:title="Cache.h">
<polygon fill="none" stroke="black" points="169.5,-123.5 169.5,-142.5 225.5,-142.5 225.5,-123.5 169.5,-123.5"/>
<text text-anchor="middle" x="197.5" y="-130.5" font-family="Helvetica,sans-Serif" font-size="10.00">Cache.h</text>
</a>
</g>
</g>
<!-- Node0&#45;&gt;Node1 -->
<g id="edge1" class="edge"><title>Node0&#45;&gt;Node1</title>
<path fill="none" stroke="midnightblue" d="M713.399,-187.384C595.469,-175.181 333.85,-148.109 235.693,-137.952"/>
<polygon fill="midnightblue" stroke="midnightblue" points="235.937,-134.459 225.629,-136.911 235.216,-141.422 235.937,-134.459"/>
</g>
<!-- Node2 -->
<g id="node3" class="node"><title>Node2</title>
<polygon fill="none" stroke="#bfbfbf" points="0,-62 0,-81 47,-81 47,-62 0,-62"/>
<text text-anchor="middle" x="23.5" y="-69" font-family="Helvetica,sans-Serif" font-size="10.00">mutex</text>
</g>
<!-- Node0&#45;&gt;Node2 -->
<g id="edge30" class="edge"><title>Node0&#45;&gt;Node2</title>
<path fill="none" stroke="midnightblue" d="M713.167,-191.556C580.457,-186.73 263.251,-172.412 160.5,-143 116.754,-130.478 70.6537,-103.468 44.6437,-86.754"/>
<polygon fill="midnightblue" stroke="midnightblue" points="46.2963,-83.6527 36.0117,-81.1078 42.4645,-89.5108 46.2963,-83.6527"/>
</g>
<!-- Node3 -->
<g id="node4" class="node"><title>Node3</title>
<polygon fill="none" stroke="#bfbfbf" points="190,-62 190,-81 283,-81 283,-62 190,-62"/>
<text text-anchor="middle" x="236.5" y="-69" font-family="Helvetica,sans-Serif" font-size="10.00">unordered_map</text>
</g>
<!-- Node0&#45;&gt;Node3 -->
<g id="edge33" class="edge"><title>Node0&#45;&gt;Node3</title>
<path fill="none" stroke="midnightblue" d="M713.459,-181.22C622.565,-162.136 442.989,-123.725 291.5,-87 287.117,-85.9374 282.547,-84.7925 277.997,-83.6284"/>
<polygon fill="midnightblue" stroke="midnightblue" points="278.705,-80.1963 268.147,-81.0739 276.948,-86.9722 278.705,-80.1963"/>
</g>
<!-- Node5 -->
<g id="node6" class="node"><title>Node5</title>
<g id="a_node6"><a xlink:href="SQLite_8h.html" target="_top" xlink:title="SQLite.h">
<polygon fill="none" stroke="black" points="628,-123.5 628,-142.5 685,-142.5 685,-123.5 628,-123.5"/>
<text text-anchor="middle" x="656.5" y="-130.5" font-family="Helvetica,sans-Serif" font-size="10.00">SQLite.h</text>
</a>
</g>
</g>
<!-- Node0&#45;&gt;Node5 -->
<g id="edge5" class="edge"><title>Node0&#45;&gt;Node5</title>
<path fill="none" stroke="midnightblue" d="M745.01,-179.399C726.068,-169.684 701.058,-156.855 682.456,-147.314"/>
<polygon fill="midnightblue" stroke="midnightblue" points="683.874,-144.108 673.379,-142.658 680.679,-150.336 683.874,-144.108"/>
</g>
<!-- Node10 -->
<g id="node11" class="node"><title>Node10</title>
<polygon fill="none" stroke="#bfbfbf" points="1007.5,-62 1007.5,-81 1051.5,-81 1051.5,-62 1007.5,-62"/>
<text text-anchor="middle" x="1029.5" y="-69" font-family="Helvetica,sans-Serif" font-size="10.00">string</text>
</g>
<!-- Node0&#45;&gt;Node10 -->
<g id="edge31" class="edge"><title>Node0&#45;&gt;Node10</title>
<path fill="none" stroke="midnightblue" d="M802.484,-179.383C852.778,-155.704 953.389,-108.334 1001.98,-85.4562"/>
<polygon fill="midnightblue" stroke="midnightblue" points="1003.69,-88.5185 1011.25,-81.0922 1000.71,-82.1853 1003.69,-88.5185"/>
</g>
<!-- Node21 -->
<g id="node22" class="node"><title>Node21</title>
<g id="a_node22"><a xlink:href="dtypes_8h.html" target="_top" xlink:title="dtypes.h">
<polygon fill="none" stroke="black" points="1176.5,-123.5 1176.5,-142.5 1234.5,-142.5 1234.5,-123.5 1176.5,-123.5"/>
<text text-anchor="middle" x="1205.5" y="-130.5" font-family="Helvetica,sans-Serif" font-size="10.00">dtypes.h</text>
</a>
</g>
</g>
<!-- Node0&#45;&gt;Node21 -->
<g id="edge23" class="edge"><title>Node0&#45;&gt;Node21</title>
<path fill="none" stroke="midnightblue" d="M831.799,-185.352C921.722,-172.995 1090.14,-149.851 1166.31,-139.385"/>
<polygon fill="midnightblue" stroke="midnightblue" points="1167,-142.823 1176.43,-137.994 1166.05,-135.888 1167,-142.823"/>
</g>
<!-- Node28 -->
<g id="node29" class="node"><title>Node28</title>
<polygon fill="none" stroke="#bfbfbf" points="1253,-123.5 1253,-142.5 1294,-142.5 1294,-123.5 1253,-123.5"/>
<text text-anchor="middle" x="1273.5" y="-130.5" font-family="Helvetica,sans-Serif" font-size="10.00">tuple</text>
</g>
<!-- Node0&#45;&gt;Node28 -->
<g id="edge32" class="edge"><title>Node0&#45;&gt;Node28</title>
<path fill="none" stroke="midnightblue" d="M831.776,-190.661C919.658,-185.68 1089.68,-173.084 1242.9,-142.729"/>
<polygon fill="midnightblue" stroke="midnightblue" points="1243.86,-146.107 1252.97,-140.704 1242.48,-139.245 1243.86,-146.107"/>
</g>
<!-- Node29 -->
<g id="node30" class="node"><title>Node29</title>
<polygon fill="none" stroke="#bfbfbf" points="1312.5,-123.5 1312.5,-142.5 1452.5,-142.5 1452.5,-123.5 1312.5,-123.5"/>
<text text-anchor="middle" x="1382.5" y="-130.5" font-family="Helvetica,sans-Serif" font-size="10.00">boost/functional/hash.hpp</text>
</g>
<!-- Node0&#45;&gt;Node29 -->
<g id="edge34" class="edge"><title>Node0&#45;&gt;Node29</title>
<path fill="none" stroke="midnightblue" d="M831.864,-188.218C928.227,-179.563 1124.95,-161.563 1302.26,-143.113"/>
<polygon fill="midnightblue" stroke="midnightblue" points="1302.71,-146.585 1312.3,-142.067 1301.99,-139.623 1302.71,-146.585"/>
</g>
<!-- Node1&#45;&gt;Node2 -->
<g id="edge2" class="edge"><title>Node1&#45;&gt;Node2</title>
<path fill="none" stroke="midnightblue" d="M169.379,-123.974C140.705,-115.57 95.0764,-101.585 56.5,-87 54.8903,-86.3914 53.2456,-85.7463 51.5921,-85.0794"/>
<polygon fill="midnightblue" stroke="midnightblue" points="52.7807,-81.7823 42.2062,-81.1265 50.0637,-88.2335 52.7807,-81.7823"/>
</g>
<!-- Node1&#45;&gt;Node3 -->
<g id="edge3" class="edge"><title>Node1&#45;&gt;Node3</title>
<path fill="none" stroke="midnightblue" d="M203.088,-123.475C208.88,-114.638 218.089,-100.589 225.374,-89.475"/>
<polygon fill="midnightblue" stroke="midnightblue" points="228.368,-91.2913 230.923,-81.0091 222.513,-87.4539 228.368,-91.2913"/>
</g>
<!-- Node4 -->
<g id="node5" class="node"><title>Node4</title>
<polygon fill="none" stroke="#bfbfbf" points="65.5,-62 65.5,-81 171.5,-81 171.5,-62 65.5,-62"/>
<text text-anchor="middle" x="118.5" y="-69" font-family="Helvetica,sans-Serif" font-size="10.00">boost/optional.hpp</text>
</g>
<!-- Node1&#45;&gt;Node4 -->
<g id="edge4" class="edge"><title>Node1&#45;&gt;Node4</title>
<path fill="none" stroke="midnightblue" d="M186.181,-123.475C173.627,-114.02 153.149,-98.5961 138.001,-87.1871"/>
<polygon fill="midnightblue" stroke="midnightblue" points="139.891,-84.2295 129.798,-81.0091 135.68,-89.821 139.891,-84.2295"/>
</g>
<!-- Node6 -->
<g id="node7" class="node"><title>Node6</title>
<polygon fill="none" stroke="#bfbfbf" points="301,-62 301,-81 360,-81 360,-62 301,-62"/>
<text text-anchor="middle" x="330.5" y="-69" font-family="Helvetica,sans-Serif" font-size="10.00">iostream</text>
</g>
<!-- Node5&#45;&gt;Node6 -->
<g id="edge6" class="edge"><title>Node5&#45;&gt;Node6</title>
<path fill="none" stroke="midnightblue" d="M627.885,-129.533C575.656,-124.59 461.671,-111.762 368.5,-87 365.841,-86.2932 363.11,-85.4657 360.392,-84.5704"/>
<polygon fill="midnightblue" stroke="midnightblue" points="361.346,-81.1946 350.752,-81.1268 358.992,-87.7867 361.346,-81.1946"/>
</g>
<!-- Node7 -->
<g id="node8" class="node"><title>Node7</title>
<polygon fill="none" stroke="#bfbfbf" points="378,-62 378,-81 435,-81 435,-62 378,-62"/>
<text text-anchor="middle" x="406.5" y="-69" font-family="Helvetica,sans-Serif" font-size="10.00">memory</text>
</g>
<!-- Node5&#45;&gt;Node7 -->
<g id="edge7" class="edge"><title>Node5&#45;&gt;Node7</title>
<path fill="none" stroke="midnightblue" d="M627.794,-126.807C587.602,-119.298 512.42,-104.39 449.5,-87 446.484,-86.1664 443.369,-85.2425 440.258,-84.2762"/>
<polygon fill="midnightblue" stroke="midnightblue" points="441.053,-80.8549 430.461,-81.1049 438.897,-87.5147 441.053,-80.8549"/>
</g>
<!-- Node8 -->
<g id="node9" class="node"><title>Node8</title>
<polygon fill="none" stroke="#bfbfbf" points="378.5,-0.5 378.5,-19.5 432.5,-19.5 432.5,-0.5 378.5,-0.5"/>
<text text-anchor="middle" x="405.5" y="-7.5" font-family="Helvetica,sans-Serif" font-size="10.00">random</text>
</g>
<!-- Node5&#45;&gt;Node8 -->
<g id="edge8" class="edge"><title>Node5&#45;&gt;Node8</title>
<path fill="none" stroke="midnightblue" d="M627.782,-127.791C594.462,-122.064 538.592,-109.814 495.5,-87 465.833,-71.2938 437.21,-44.4845 420.489,-27.267"/>
<polygon fill="midnightblue" stroke="midnightblue" points="422.706,-24.5195 413.283,-19.676 417.629,-29.3385 422.706,-24.5195"/>
</g>
<!-- Node9 -->
<g id="node10" class="node"><title>Node9</title>
<polygon fill="none" stroke="#bfbfbf" points="593.5,-62 593.5,-81 649.5,-81 649.5,-62 593.5,-62"/>
<text text-anchor="middle" x="621.5" y="-69" font-family="Helvetica,sans-Serif" font-size="10.00">sstream</text>
</g>
<!-- Node5&#45;&gt;Node9 -->
<g id="edge9" class="edge"><title>Node5&#45;&gt;Node9</title>
<path fill="none" stroke="midnightblue" d="M651.485,-123.475C646.339,-114.727 638.188,-100.869 631.682,-89.8093"/>
<polygon fill="midnightblue" stroke="midnightblue" points="634.592,-87.8539 626.505,-81.0091 628.559,-91.403 634.592,-87.8539"/>
</g>
<!-- Node5&#45;&gt;Node10 -->
<g id="edge10" class="edge"><title>Node5&#45;&gt;Node10</title>
<path fill="none" stroke="midnightblue" d="M685.031,-131.184C744.494,-128.849 885.542,-119.992 998.5,-87 1000.38,-86.4503 1002.29,-85.8014 1004.2,-85.0879"/>
<polygon fill="midnightblue" stroke="midnightblue" points="1005.63,-88.2832 1013.46,-81.1439 1002.88,-81.8431 1005.63,-88.2832"/>
</g>
<!-- Node11 -->
<g id="node12" class="node"><title>Node11</title>
<polygon fill="none" stroke="#bfbfbf" points="667.5,-62 667.5,-81 715.5,-81 715.5,-62 667.5,-62"/>
<text text-anchor="middle" x="691.5" y="-69" font-family="Helvetica,sans-Serif" font-size="10.00">thread</text>
</g>
<!-- Node5&#45;&gt;Node11 -->
<g id="edge11" class="edge"><title>Node5&#45;&gt;Node11</title>
<path fill="none" stroke="midnightblue" d="M661.515,-123.475C666.661,-114.727 674.812,-100.869 681.318,-89.8093"/>
<polygon fill="midnightblue" stroke="midnightblue" points="684.441,-91.403 686.495,-81.0091 678.408,-87.8539 684.441,-91.403"/>
</g>
<!-- Node12 -->
<g id="node13" class="node"><title>Node12</title>
<polygon fill="none" stroke="#bfbfbf" points="450.5,-0.5 450.5,-19.5 518.5,-19.5 518.5,-0.5 450.5,-0.5"/>
<text text-anchor="middle" x="484.5" y="-7.5" font-family="Helvetica,sans-Serif" font-size="10.00">type_traits</text>
</g>
<!-- Node5&#45;&gt;Node12 -->
<g id="edge12" class="edge"><title>Node5&#45;&gt;Node12</title>
<path fill="none" stroke="midnightblue" d="M627.995,-129.17C597.989,-124.819 550.963,-113.934 520.5,-87 503.363,-71.8482 493.718,-46.775 488.813,-29.6003"/>
<polygon fill="midnightblue" stroke="midnightblue" points="492.13,-28.4473 486.244,-19.6384 485.352,-30.1956 492.13,-28.4473"/>
</g>
<!-- Node13 -->
<g id="node14" class="node"><title>Node13</title>
<polygon fill="none" stroke="#bfbfbf" points="733.5,-56.5 733.5,-86.5 853.5,-86.5 853.5,-56.5 733.5,-56.5"/>
<text text-anchor="start" x="741.5" y="-74.5" font-family="Helvetica,sans-Serif" font-size="10.00">boost/iterator/iterator</text>
<text text-anchor="middle" x="793.5" y="-63.5" font-family="Helvetica,sans-Serif" font-size="10.00">_facade.hpp</text>
</g>
<!-- Node5&#45;&gt;Node13 -->
<g id="edge13" class="edge"><title>Node5&#45;&gt;Node13</title>
<path fill="none" stroke="midnightblue" d="M676.129,-123.475C695.811,-114.927 726.724,-101.501 751.886,-90.5734"/>
<polygon fill="midnightblue" stroke="midnightblue" points="753.434,-93.7169 761.212,-86.523 750.645,-87.2963 753.434,-93.7169"/>
</g>
<!-- Node14 -->
<g id="node15" class="node"><title>Node14</title>
<polygon fill="none" stroke="#bfbfbf" points="872,-62 872,-81 929,-81 929,-62 872,-62"/>
<text text-anchor="middle" x="900.5" y="-69" font-family="Helvetica,sans-Serif" font-size="10.00">sqlite3.h</text>
</g>
<!-- Node5&#45;&gt;Node14 -->
<g id="edge14" class="edge"><title>Node5&#45;&gt;Node14</title>
<path fill="none" stroke="midnightblue" d="M685.165,-127.139C725.278,-120.021 800.232,-105.568 862.5,-87 865.076,-86.232 867.725,-85.3718 870.37,-84.4638"/>
<polygon fill="midnightblue" stroke="midnightblue" points="871.581,-87.7478 879.787,-81.0457 869.193,-81.1679 871.581,-87.7478"/>
</g>
<!-- Node15 -->
<g id="node16" class="node"><title>Node15</title>
<polygon fill="none" stroke="#bfbfbf" points="947.5,-62 947.5,-81 989.5,-81 989.5,-62 947.5,-62"/>
<text text-anchor="middle" x="968.5" y="-69" font-family="Helvetica,sans-Serif" font-size="10.00">utility</text>
</g>
<!-- Node5&#45;&gt;Node15 -->
<g id="edge15" class="edge"><title>Node5&#45;&gt;Node15</title>
<path fill="none" stroke="midnightblue" d="M685.009,-130.068C736.446,-126.006 847.77,-114.575 937.5,-87 939.374,-86.424 941.28,-85.7556 943.179,-85.0281"/>
<polygon fill="midnightblue" stroke="midnightblue" points="944.623,-88.2174 952.428,-81.0534 941.859,-81.7861 944.623,-88.2174"/>
</g>
<!-- Node16 -->
<g id="node17" class="node"><title>Node16</title>
<g id="a_node17"><a xlink:href="utils_8h.html" target="_top" xlink:title="utils.h">
<polygon fill="none" stroke="black" points="530,-62 530,-81 575,-81 575,-62 530,-62"/>
<text text-anchor="middle" x="552.5" y="-69" font-family="Helvetica,sans-Serif" font-size="10.00">utils.h</text>
</a>
</g>
</g>
<!-- Node5&#45;&gt;Node16 -->
<g id="edge16" class="edge"><title>Node5&#45;&gt;Node16</title>
<path fill="none" stroke="midnightblue" d="M641.599,-123.475C624.532,-113.711 596.339,-97.5807 576.238,-86.0808"/>
<polygon fill="midnightblue" stroke="midnightblue" points="577.791,-82.9371 567.373,-81.0091 574.315,-89.013 577.791,-82.9371"/>
</g>
<!-- Node16&#45;&gt;Node8 -->
<g id="edge20" class="edge"><title>Node16&#45;&gt;Node8</title>
<path fill="none" stroke="midnightblue" d="M531.438,-61.9751C506.441,-51.8571 464.558,-34.9046 436.013,-23.3507"/>
<polygon fill="midnightblue" stroke="midnightblue" points="437.105,-20.0168 426.522,-19.5091 434.479,-26.5054 437.105,-20.0168"/>
</g>
<!-- Node16&#45;&gt;Node12 -->
<g id="edge21" class="edge"><title>Node16&#45;&gt;Node12</title>
<path fill="none" stroke="midnightblue" d="M542.757,-61.9751C532.153,-52.6966 514.981,-37.6706 502.021,-26.331"/>
<polygon fill="midnightblue" stroke="midnightblue" points="504.055,-23.4601 494.225,-19.5091 499.446,-28.7282 504.055,-23.4601"/>
</g>
<!-- Node17 -->
<g id="node18" class="node"><title>Node17</title>
<polygon fill="none" stroke="#bfbfbf" points="691.5,-0.5 691.5,-19.5 753.5,-19.5 753.5,-0.5 691.5,-0.5"/>
<text text-anchor="middle" x="722.5" y="-7.5" font-family="Helvetica,sans-Serif" font-size="10.00">algorithm</text>
</g>
<!-- Node16&#45;&gt;Node17 -->
<g id="edge17" class="edge"><title>Node16&#45;&gt;Node17</title>
<path fill="none" stroke="midnightblue" d="M570.628,-61.8672C575.121,-59.8442 579.951,-57.766 584.5,-56 617.348,-43.247 655.483,-31.0002 683.33,-22.5114"/>
<polygon fill="midnightblue" stroke="midnightblue" points="684.535,-25.8035 693.095,-19.56 682.51,-19.1029 684.535,-25.8035"/>
</g>
<!-- Node18 -->
<g id="node19" class="node"><title>Node18</title>
<polygon fill="none" stroke="#bfbfbf" points="772,-0.5 772,-19.5 829,-19.5 829,-0.5 772,-0.5"/>
<text text-anchor="middle" x="800.5" y="-7.5" font-family="Helvetica,sans-Serif" font-size="10.00">complex</text>
</g>
<!-- Node16&#45;&gt;Node18 -->
<g id="edge18" class="edge"><title>Node16&#45;&gt;Node18</title>
<path fill="none" stroke="midnightblue" d="M569.489,-61.9431C574.26,-59.7782 579.509,-57.6126 584.5,-56 658.304,-32.1549 681.834,-36.8724 761.845,-20.0452"/>
<polygon fill="midnightblue" stroke="midnightblue" points="762.85,-23.4091 771.889,-17.883 761.377,-16.5659 762.85,-23.4091"/>
</g>
<!-- Node19 -->
<g id="node20" class="node"><title>Node19</title>
<polygon fill="none" stroke="#bfbfbf" points="537,-0.5 537,-19.5 600,-19.5 600,-0.5 537,-0.5"/>
<text text-anchor="middle" x="568.5" y="-7.5" font-family="Helvetica,sans-Serif" font-size="10.00">functional</text>
</g>
<!-- Node16&#45;&gt;Node19 -->
<g id="edge19" class="edge"><title>Node16&#45;&gt;Node19</title>
<path fill="none" stroke="midnightblue" d="M554.792,-61.9751C557.074,-53.4919 560.647,-40.2043 563.573,-29.3222"/>
<polygon fill="midnightblue" stroke="midnightblue" points="566.995,-30.0749 566.212,-19.5091 560.235,-28.2571 566.995,-30.0749"/>
</g>
<!-- Node20 -->
<g id="node21" class="node"><title>Node20</title>
<polygon fill="none" stroke="#bfbfbf" points="618,-0.5 618,-19.5 673,-19.5 673,-0.5 618,-0.5"/>
<text text-anchor="middle" x="645.5" y="-7.5" font-family="Helvetica,sans-Serif" font-size="10.00">unistd.h</text>
</g>
<!-- Node16&#45;&gt;Node20 -->
<g id="edge22" class="edge"><title>Node16&#45;&gt;Node20</title>
<path fill="none" stroke="midnightblue" d="M565.825,-61.9751C580.88,-52.3431 605.616,-36.5175 623.537,-25.0517"/>
<polygon fill="midnightblue" stroke="midnightblue" points="625.663,-27.8466 632.2,-19.5091 621.89,-21.9501 625.663,-27.8466"/>
</g>
<!-- Node22 -->
<g id="node23" class="node"><title>Node22</title>
<polygon fill="none" stroke="#bfbfbf" points="1070,-62 1070,-81 1147,-81 1147,-62 1070,-62"/>
<text text-anchor="middle" x="1108.5" y="-69" font-family="Helvetica,sans-Serif" font-size="10.00">Eigen/Dense</text>
</g>
<!-- Node21&#45;&gt;Node22 -->
<g id="edge24" class="edge"><title>Node21&#45;&gt;Node22</title>
<path fill="none" stroke="midnightblue" d="M1191.6,-123.475C1175.83,-113.799 1149.86,-97.8721 1131.15,-86.3941"/>
<polygon fill="midnightblue" stroke="midnightblue" points="1132.73,-83.2544 1122.37,-81.0091 1129.07,-89.2213 1132.73,-83.2544"/>
</g>
<!-- Node23 -->
<g id="node24" class="node"><title>Node23</title>
<polygon fill="none" stroke="#bfbfbf" points="1165.5,-62 1165.5,-81 1245.5,-81 1245.5,-62 1165.5,-62"/>
<text text-anchor="middle" x="1205.5" y="-69" font-family="Helvetica,sans-Serif" font-size="10.00">Eigen/Sparse</text>
</g>
<!-- Node21&#45;&gt;Node23 -->
<g id="edge25" class="edge"><title>Node21&#45;&gt;Node23</title>
<path fill="none" stroke="midnightblue" d="M1205.5,-123.475C1205.5,-115.08 1205.5,-101.981 1205.5,-91.1631"/>
<polygon fill="midnightblue" stroke="midnightblue" points="1209,-91.0091 1205.5,-81.0091 1202,-91.0091 1209,-91.0091"/>
</g>
<!-- Node24 -->
<g id="node25" class="node"><title>Node24</title>
<polygon fill="none" stroke="#bfbfbf" points="1264,-62 1264,-81 1305,-81 1305,-62 1264,-62"/>
<text text-anchor="middle" x="1284.5" y="-69" font-family="Helvetica,sans-Serif" font-size="10.00">array</text>
</g>
<!-- Node21&#45;&gt;Node24 -->
<g id="edge26" class="edge"><title>Node21&#45;&gt;Node24</title>
<path fill="none" stroke="midnightblue" d="M1216.82,-123.475C1229.37,-114.02 1249.85,-98.5961 1265,-87.1871"/>
<polygon fill="midnightblue" stroke="midnightblue" points="1267.32,-89.821 1273.2,-81.0091 1263.11,-84.2295 1267.32,-89.821"/>
</g>
<!-- Node25 -->
<g id="node26" class="node"><title>Node25</title>
<polygon fill="none" stroke="#bfbfbf" points="1323,-62 1323,-81 1370,-81 1370,-62 1323,-62"/>
<text text-anchor="middle" x="1346.5" y="-69" font-family="Helvetica,sans-Serif" font-size="10.00">cmath</text>
</g>
<!-- Node21&#45;&gt;Node25 -->
<g id="edge27" class="edge"><title>Node21&#45;&gt;Node25</title>
<path fill="none" stroke="midnightblue" d="M1226.89,-123.418C1248.94,-114.516 1284.25,-100.093 1314.5,-87 1315.86,-86.4094 1317.26,-85.7999 1318.67,-85.1803"/>
<polygon fill="midnightblue" stroke="midnightblue" points="1320.23,-88.3147 1327.93,-81.0411 1317.38,-81.9232 1320.23,-88.3147"/>
</g>
<!-- Node26 -->
<g id="node27" class="node"><title>Node26</title>
<polygon fill="none" stroke="#bfbfbf" points="1388,-56.5 1388,-86.5 1531,-86.5 1531,-56.5 1388,-56.5"/>
<text text-anchor="start" x="1396" y="-74.5" font-family="Helvetica,sans-Serif" font-size="10.00">unsupported/Eigen/CXX11</text>
<text text-anchor="middle" x="1459.5" y="-63.5" font-family="Helvetica,sans-Serif" font-size="10.00">/Tensor</text>
</g>
<!-- Node21&#45;&gt;Node26 -->
<g id="edge28" class="edge"><title>Node21&#45;&gt;Node26</title>
<path fill="none" stroke="midnightblue" d="M1234.64,-125.175C1272.2,-116.375 1338.75,-100.785 1389.74,-88.8418"/>
<polygon fill="midnightblue" stroke="midnightblue" points="1390.78,-92.1933 1399.72,-86.5047 1389.18,-85.3778 1390.78,-92.1933"/>
</g>
<!-- Node27 -->
<g id="node28" class="node"><title>Node27</title>
<polygon fill="none" stroke="#bfbfbf" points="1549,-62 1549,-81 1596,-81 1596,-62 1549,-62"/>
<text text-anchor="middle" x="1572.5" y="-69" font-family="Helvetica,sans-Serif" font-size="10.00">vector</text>
</g>
<!-- Node21&#45;&gt;Node27 -->
<g id="edge29" class="edge"><title>Node21&#45;&gt;Node27</title>
<path fill="none" stroke="midnightblue" d="M1234.82,-124.884C1238.08,-124.198 1241.35,-123.553 1244.5,-123 1375.03,-100.068 1412.89,-122.762 1540.5,-87 1542.65,-86.3982 1544.83,-85.6726 1547.01,-84.8707"/>
<polygon fill="midnightblue" stroke="midnightblue" points="1548.37,-88.0941 1556.25,-81.0151 1545.67,-81.6332 1548.37,-88.0941"/>
</g>
</g>
</svg>
