<?xml version="1.0" encoding="UTF-8" standalone="no"?>
<!DOCTYPE svg PUBLIC "-//W3C//DTD SVG 1.1//EN"
 "http://www.w3.org/Graphics/SVG/1.1/DTD/svg11.dtd">
<!-- Generated by graphviz version 2.38.0 (20140413.2041)
 -->
<!-- Title: energy_level Pages: 1 -->
<svg width="467pt" height="142pt"
 viewBox="0.00 0.00 467.00 142.00" xmlns="http://www.w3.org/2000/svg" xmlns:xlink="http://www.w3.org/1999/xlink">
<g id="graph0" class="graph" transform="scale(1 1) rotate(0) translate(4 138)">
<title>energy_level</title>
<!-- Node1 -->
<g id="node1" class="node"><title>Node1</title>
<polygon fill="#bfbfbf" stroke="black" points="0,-66.5 0,-85.5 77,-85.5 77,-66.5 0,-66.5"/>
<text text-anchor="middle" x="38.5" y="-73.5" font-family="Helvetica,sans-Serif" font-size="10.00">energy_level</text>
</g>
<!-- Node2 -->
<g id="node2" class="node"><title>Node2</title>
<g id="a_node2"><a xlink:href="classHamiltonianOne.html#a9cb71dcb34ab9f0779c0bd66b758185e" target="_top" xlink:title="HamiltonianOne::build">
<polygon fill="none" stroke="black" points="118.5,-109.5 118.5,-128.5 240.5,-128.5 240.5,-109.5 118.5,-109.5"/>
<text text-anchor="middle" x="179.5" y="-116.5" font-family="Helvetica,sans-Serif" font-size="10.00">HamiltonianOne::build</text>
</a>
</g>
</g>
<!-- Node1&#45;&gt;Node2 -->
<g id="edge1" class="edge"><title>Node1&#45;&gt;Node2</title>
<path fill="none" stroke="midnightblue" d="M79.927,-88.5062C101.561,-95.1988 127.78,-103.31 147.738,-109.484"/>
<polygon fill="midnightblue" stroke="midnightblue" points="80.9363,-85.1548 70.3486,-85.5431 78.8675,-91.8422 80.9363,-85.1548"/>
</g>
<!-- Node4 -->
<g id="node4" class="node"><title>Node4</title>
<g id="a_node4"><a xlink:href="classStateOne.html#a6262da11406dbaa811f361cab2cf71b6" target="_top" xlink:title="StateOne::getEnergy">
<polygon fill="none" stroke="black" points="121,-66.5 121,-85.5 238,-85.5 238,-66.5 121,-66.5"/>
<text text-anchor="middle" x="179.5" y="-73.5" font-family="Helvetica,sans-Serif" font-size="10.00">StateOne::getEnergy</text>
</a>
</g>
</g>
<!-- Node1&#45;&gt;Node4 -->
<g id="edge3" class="edge"><title>Node1&#45;&gt;Node4</title>
<path fill="none" stroke="midnightblue" d="M87.2506,-76C98.1152,-76 109.768,-76 120.991,-76"/>
<polygon fill="midnightblue" stroke="midnightblue" points="87.1154,-72.5001 77.1154,-76 87.1154,-79.5001 87.1154,-72.5001"/>
</g>
<!-- Node7 -->
<g id="node7" class="node"><title>Node7</title>
<g id="a_node7"><a xlink:href="classStateOneOld.html#a87391af707be61e934c06b4561ba5059" target="_top" xlink:title="StateOneOld::getEnergy">
<polygon fill="none" stroke="black" points="113,-19.5 113,-38.5 246,-38.5 246,-19.5 113,-19.5"/>
<text text-anchor="middle" x="179.5" y="-26.5" font-family="Helvetica,sans-Serif" font-size="10.00">StateOneOld::getEnergy</text>
</a>
</g>
</g>
<!-- Node1&#45;&gt;Node7 -->
<g id="edge6" class="edge"><title>Node1&#45;&gt;Node7</title>
<path fill="none" stroke="midnightblue" d="M77.3636,-63.1972C100.252,-55.4581 128.959,-45.7512 149.936,-38.6583"/>
<polygon fill="midnightblue" stroke="midnightblue" points="75.9807,-59.9701 67.6287,-66.4888 78.223,-66.6012 75.9807,-59.9701"/>
</g>
<!-- Node3 -->
<g id="node3" class="node"><title>Node3</title>
<g id="a_node3"><a xlink:href="classHamiltonianOne.html#ad3ba2d70879a60c9f065b5a2545dfe36" target="_top" xlink:title="HamiltonianOne::HamiltonianOne">
<polygon fill="none" stroke="black" points="282,-114.5 282,-133.5 459,-133.5 459,-114.5 282,-114.5"/>
<text text-anchor="middle" x="370.5" y="-121.5" font-family="Helvetica,sans-Serif" font-size="10.00">HamiltonianOne::HamiltonianOne</text>
</a>
</g>
</g>
<!-- Node2&#45;&gt;Node3 -->
<g id="edge2" class="edge"><title>Node2&#45;&gt;Node3</title>
<path fill="none" stroke="midnightblue" d="M250.626,-120.855C260.846,-121.126 271.475,-121.407 281.988,-121.685"/>
<polygon fill="midnightblue" stroke="midnightblue" points="250.65,-117.355 240.56,-120.589 250.464,-124.352 250.65,-117.355"/>
</g>
<!-- Node5 -->
<g id="node5" class="node"><title>Node5</title>
<g id="a_node5"><a xlink:href="classSystemOne.html#a1548df0406b8a36e4307f8dbf9226990" target="_top" xlink:title="Method that allows base class to initialize Basis //////////////. ">
<polygon fill="none" stroke="black" points="299,-76.5 299,-95.5 442,-95.5 442,-76.5 299,-76.5"/>
<text text-anchor="middle" x="370.5" y="-83.5" font-family="Helvetica,sans-Serif" font-size="10.00">SystemOne::initializeBasis</text>
</a>
</g>
</g>
<!-- Node4&#45;&gt;Node5 -->
<g id="edge4" class="edge"><title>Node4&#45;&gt;Node5</title>
<path fill="none" stroke="midnightblue" d="M248.276,-79.586C264.679,-80.4539 282.253,-81.3837 298.787,-82.2586"/>
<polygon fill="midnightblue" stroke="midnightblue" points="248.404,-76.088 238.233,-79.0547 248.034,-83.0782 248.404,-76.088"/>
</g>
<!-- Node6 -->
<g id="node6" class="node"><title>Node6</title>
<g id="a_node6"><a xlink:href="integration__test_8cpp.html#a0edc7e03850724a3784df426b75fb1d2" target="_top" xlink:title="BOOST_FIXTURE_TEST_CASE">
<polygon fill="none" stroke="black" points="293,-38.5 293,-57.5 448,-57.5 448,-38.5 293,-38.5"/>
<text text-anchor="middle" x="370.5" y="-45.5" font-family="Helvetica,sans-Serif" font-size="10.00">BOOST_FIXTURE_TEST_CASE</text>
</a>
</g>
</g>
<!-- Node4&#45;&gt;Node6 -->
<g id="edge5" class="edge"><title>Node4&#45;&gt;Node6</title>
<path fill="none" stroke="midnightblue" d="M248.349,-65.9482C266.87,-63.2044 286.879,-60.2402 305.196,-57.5265"/>
<polygon fill="midnightblue" stroke="midnightblue" points="247.612,-62.5192 238.233,-67.4469 248.638,-69.4436 247.612,-62.5192"/>
</g>
<!-- Node8 -->
<g id="node8" class="node"><title>Node8</title>
<g id="a_node8"><a xlink:href="classStateTwoOld.html#a3ecab4e3ec45aa3cc8cfe60b2b46d5f6" target="_top" xlink:title="StateTwoOld::getEnergy">
<polygon fill="none" stroke="black" points="305,-0.5 305,-19.5 436,-19.5 436,-0.5 305,-0.5"/>
<text text-anchor="middle" x="370.5" y="-7.5" font-family="Helvetica,sans-Serif" font-size="10.00">StateTwoOld::getEnergy</text>
</a>
</g>
</g>
<!-- Node7&#45;&gt;Node8 -->
<g id="edge7" class="edge"><title>Node7&#45;&gt;Node8</title>
<path fill="none" stroke="midnightblue" d="M256.449,-21.3649C272.432,-19.7581 289.152,-18.0773 304.682,-16.5161"/>
<polygon fill="midnightblue" stroke="midnightblue" points="255.672,-17.9253 246.073,-22.408 256.373,-24.8902 255.672,-17.9253"/>
</g>
</g>
</svg>
