<?xml version="1.0" encoding="UTF-8" standalone="no"?>
<!DOCTYPE svg PUBLIC "-//W3C//DTD SVG 1.1//EN"
 "http://www.w3.org/Graphics/SVG/1.1/DTD/svg11.dtd">
<!-- Generated by graphviz version 2.38.0 (20140413.2041)
 -->
<!-- Title: /travis/pairinteraction/QuantumDefect.h Pages: 1 -->
<svg width="1222pt" height="474pt"
 viewBox="0.00 0.00 1221.50 474.00" xmlns="http://www.w3.org/2000/svg" xmlns:xlink="http://www.w3.org/1999/xlink">
<g id="graph0" class="graph" transform="scale(1 1) rotate(0) translate(4 470)">
<title>/travis/pairinteraction/QuantumDefect.h</title>
<!-- Node30 -->
<g id="node1" class="node"><title>Node30</title>
<polygon fill="#bfbfbf" stroke="black" points="575,-435.5 575,-465.5 693,-465.5 693,-435.5 575,-435.5"/>
<text text-anchor="start" x="583" y="-453.5" font-family="Helvetica,sans-Serif" font-size="10.00">/travis/pairinteraction</text>
<text text-anchor="middle" x="634" y="-442.5" font-family="Helvetica,sans-Serif" font-size="10.00">/QuantumDefect.h</text>
</g>
<!-- Node31 -->
<g id="node2" class="node"><title>Node31</title>
<g id="a_node2"><a xlink:href="Wavefunction_8h.html" target="_top" xlink:title="/travis/pairinteraction\l/Wavefunction.h">
<polygon fill="none" stroke="black" points="450,-363 450,-393 568,-393 568,-363 450,-363"/>
<text text-anchor="start" x="458" y="-381" font-family="Helvetica,sans-Serif" font-size="10.00">/travis/pairinteraction</text>
<text text-anchor="middle" x="509" y="-370" font-family="Helvetica,sans-Serif" font-size="10.00">/Wavefunction.h</text>
</a>
</g>
</g>
<!-- Node30&#45;&gt;Node31 -->
<g id="edge1" class="edge"><title>Node30&#45;&gt;Node31</title>
<path fill="none" stroke="midnightblue" d="M600.134,-430.399C579.253,-418.622 552.932,-403.778 533.952,-393.073"/>
<polygon fill="midnightblue" stroke="midnightblue" points="598.575,-433.539 609.005,-435.403 602.014,-427.442 598.575,-433.539"/>
</g>
<!-- Node38 -->
<g id="node9" class="node"><title>Node38</title>
<g id="a_node9"><a xlink:href="MatrixElements_8cpp.html" target="_top" xlink:title="/travis/pairinteraction\l/MatrixElements.cpp">
<polygon fill="none" stroke="black" points="0,-212.5 0,-242.5 118,-242.5 118,-212.5 0,-212.5"/>
<text text-anchor="start" x="8" y="-230.5" font-family="Helvetica,sans-Serif" font-size="10.00">/travis/pairinteraction</text>
<text text-anchor="middle" x="59" y="-219.5" font-family="Helvetica,sans-Serif" font-size="10.00">/MatrixElements.cpp</text>
</a>
</g>
</g>
<!-- Node30&#45;&gt;Node38 -->
<g id="edge28" class="edge"><title>Node30&#45;&gt;Node38</title>
<path fill="none" stroke="midnightblue" d="M564.517,-447.963C459.135,-442.385 256.818,-418.635 121,-321 92.7444,-300.688 73.5714,-263.209 64.6777,-242.746"/>
<polygon fill="midnightblue" stroke="midnightblue" points="564.557,-451.469 574.716,-448.462 564.899,-444.477 564.557,-451.469"/>
</g>
<!-- Node40 -->
<g id="node11" class="node"><title>Node40</title>
<g id="a_node11"><a xlink:href="MatrixElementCache_8cpp.html" target="_top" xlink:title="/travis/pairinteraction\l/MatrixElementCache.cpp">
<polygon fill="none" stroke="black" points="318.5,-212.5 318.5,-242.5 457.5,-242.5 457.5,-212.5 318.5,-212.5"/>
<text text-anchor="start" x="326.5" y="-230.5" font-family="Helvetica,sans-Serif" font-size="10.00">/travis/pairinteraction</text>
<text text-anchor="middle" x="388" y="-219.5" font-family="Helvetica,sans-Serif" font-size="10.00">/MatrixElementCache.cpp</text>
</a>
</g>
</g>
<!-- Node30&#45;&gt;Node40 -->
<g id="edge27" class="edge"><title>Node30&#45;&gt;Node40</title>
<path fill="none" stroke="midnightblue" d="M564.609,-446.115C524.433,-440.837 475.205,-428.271 441,-399 393.426,-358.288 387.931,-275.668 387.729,-242.624"/>
<polygon fill="midnightblue" stroke="midnightblue" points="564.27,-449.599 574.613,-447.306 565.097,-442.649 564.27,-449.599"/>
</g>
<!-- Node50 -->
<g id="node21" class="node"><title>Node50</title>
<g id="a_node21"><a xlink:href="wavefunction__test_8cpp.html" target="_top" xlink:title="/travis/pairinteraction\l/unit_test/wavefunction\l_test.cpp">
<polygon fill="none" stroke="black" points="562.5,-279.5 562.5,-320.5 689.5,-320.5 689.5,-279.5 562.5,-279.5"/>
<text text-anchor="start" x="570.5" y="-308.5" font-family="Helvetica,sans-Serif" font-size="10.00">/travis/pairinteraction</text>
<text text-anchor="start" x="570.5" y="-297.5" font-family="Helvetica,sans-Serif" font-size="10.00">/unit_test/wavefunction</text>
<text text-anchor="middle" x="626" y="-286.5" font-family="Helvetica,sans-Serif" font-size="10.00">_test.cpp</text>
</a>
</g>
</g>
<!-- Node30&#45;&gt;Node50 -->
<g id="edge33" class="edge"><title>Node30&#45;&gt;Node50</title>
<path fill="none" stroke="midnightblue" d="M625.886,-425.384C623.489,-417.119 621.19,-407.747 620,-399 616.323,-371.976 619.586,-340.451 622.55,-320.607"/>
<polygon fill="midnightblue" stroke="midnightblue" points="622.602,-426.611 628.897,-435.133 629.29,-424.545 622.602,-426.611"/>
</g>
<!-- Node51 -->
<g id="node22" class="node"><title>Node51</title>
<g id="a_node22"><a xlink:href="Wavefunction_8cpp.html" target="_top" xlink:title="/travis/pairinteraction\l/Wavefunction.cpp">
<polygon fill="none" stroke="black" points="708,-285 708,-315 826,-315 826,-285 708,-285"/>
<text text-anchor="start" x="716" y="-303" font-family="Helvetica,sans-Serif" font-size="10.00">/travis/pairinteraction</text>
<text text-anchor="middle" x="767" y="-292" font-family="Helvetica,sans-Serif" font-size="10.00">/Wavefunction.cpp</text>
</a>
</g>
</g>
<!-- Node30&#45;&gt;Node51 -->
<g id="edge34" class="edge"><title>Node30&#45;&gt;Node51</title>
<path fill="none" stroke="midnightblue" d="M633.333,-425.137C634.007,-404.937 637.935,-376.476 653,-357 668.448,-337.029 692.882,-323.72 715.175,-315.109"/>
<polygon fill="midnightblue" stroke="midnightblue" points="629.831,-425.37 633.244,-435.4 636.831,-425.431 629.831,-425.37"/>
</g>
<!-- Node52 -->
<g id="node23" class="node"><title>Node52</title>
<g id="a_node23"><a xlink:href="QuantumDefect_8cpp.html" target="_top" xlink:title="/travis/pairinteraction\l/QuantumDefect.cpp">
<polygon fill="none" stroke="black" points="662,-363 662,-393 780,-393 780,-363 662,-363"/>
<text text-anchor="start" x="670" y="-381" font-family="Helvetica,sans-Serif" font-size="10.00">/travis/pairinteraction</text>
<text text-anchor="middle" x="721" y="-370" font-family="Helvetica,sans-Serif" font-size="10.00">/QuantumDefect.cpp</text>
</a>
</g>
</g>
<!-- Node30&#45;&gt;Node52 -->
<g id="edge29" class="edge"><title>Node30&#45;&gt;Node52</title>
<path fill="none" stroke="midnightblue" d="M659.56,-428.788C673.778,-417.266 691.096,-403.233 703.717,-393.005"/>
<polygon fill="midnightblue" stroke="midnightblue" points="657.172,-426.218 651.606,-435.233 661.579,-431.657 657.172,-426.218"/>
</g>
<!-- Node53 -->
<g id="node24" class="node"><title>Node53</title>
<g id="a_node24"><a xlink:href="State_8cpp.html" target="_top" xlink:title="/travis/pairinteraction\l/State.cpp">
<polygon fill="none" stroke="black" points="798,-363 798,-393 916,-393 916,-363 798,-363"/>
<text text-anchor="start" x="806" y="-381" font-family="Helvetica,sans-Serif" font-size="10.00">/travis/pairinteraction</text>
<text text-anchor="middle" x="857" y="-370" font-family="Helvetica,sans-Serif" font-size="10.00">/State.cpp</text>
</a>
</g>
</g>
<!-- Node30&#45;&gt;Node53 -->
<g id="edge30" class="edge"><title>Node30&#45;&gt;Node53</title>
<path fill="none" stroke="midnightblue" d="M688.221,-432.358C726.301,-420.32 776.618,-404.412 812.378,-393.107"/>
<polygon fill="midnightblue" stroke="midnightblue" points="686.804,-429.136 678.324,-435.487 688.914,-435.81 686.804,-429.136"/>
</g>
<!-- Node54 -->
<g id="node25" class="node"><title>Node54</title>
<g id="a_node25"><a xlink:href="StateOld_8cpp.html" target="_top" xlink:title="/travis/pairinteraction\l/StateOld.cpp">
<polygon fill="none" stroke="black" points="934,-363 934,-393 1052,-393 1052,-363 934,-363"/>
<text text-anchor="start" x="942" y="-381" font-family="Helvetica,sans-Serif" font-size="10.00">/travis/pairinteraction</text>
<text text-anchor="middle" x="993" y="-370" font-family="Helvetica,sans-Serif" font-size="10.00">/StateOld.cpp</text>
</a>
</g>
</g>
<!-- Node30&#45;&gt;Node54 -->
<g id="edge31" class="edge"><title>Node30&#45;&gt;Node54</title>
<path fill="none" stroke="midnightblue" d="M703.19,-439.77C762.433,-430.896 849.823,-416.518 925,-399 932.43,-397.269 940.25,-395.203 947.835,-393.066"/>
<polygon fill="midnightblue" stroke="midnightblue" points="702.576,-436.322 693.199,-441.254 703.604,-443.246 702.576,-436.322"/>
</g>
<!-- Node55 -->
<g id="node26" class="node"><title>Node55</title>
<g id="a_node26"><a xlink:href="quantum__defect__test_8cpp.html" target="_top" xlink:title="/travis/pairinteraction\l/unit_test/quantum_defect\l_test.cpp">
<polygon fill="none" stroke="black" points="1070.5,-357.5 1070.5,-398.5 1213.5,-398.5 1213.5,-357.5 1070.5,-357.5"/>
<text text-anchor="start" x="1078.5" y="-386.5" font-family="Helvetica,sans-Serif" font-size="10.00">/travis/pairinteraction</text>
<text text-anchor="start" x="1078.5" y="-375.5" font-family="Helvetica,sans-Serif" font-size="10.00">/unit_test/quantum_defect</text>
<text text-anchor="middle" x="1142" y="-364.5" font-family="Helvetica,sans-Serif" font-size="10.00">_test.cpp</text>
</a>
</g>
</g>
<!-- Node30&#45;&gt;Node55 -->
<g id="edge32" class="edge"><title>Node30&#45;&gt;Node55</title>
<path fill="none" stroke="midnightblue" d="M703.072,-443.993C787.833,-436.624 935.729,-421.782 1061,-399 1063.99,-398.456 1067.04,-397.866 1070.11,-397.242"/>
<polygon fill="midnightblue" stroke="midnightblue" points="702.717,-440.51 693.054,-444.855 703.317,-447.485 702.717,-440.51"/>
</g>
<!-- Node32 -->
<g id="node3" class="node"><title>Node32</title>
<g id="a_node3"><a xlink:href="MatrixElements_8h.html" target="_top" xlink:title="/travis/pairinteraction\l/MatrixElements.h">
<polygon fill="none" stroke="black" points="130,-285 130,-315 248,-315 248,-285 130,-285"/>
<text text-anchor="start" x="138" y="-303" font-family="Helvetica,sans-Serif" font-size="10.00">/travis/pairinteraction</text>
<text text-anchor="middle" x="189" y="-292" font-family="Helvetica,sans-Serif" font-size="10.00">/MatrixElements.h</text>
</a>
</g>
</g>
<!-- Node31&#45;&gt;Node32 -->
<g id="edge2" class="edge"><title>Node31&#45;&gt;Node32</title>
<path fill="none" stroke="midnightblue" d="M439.888,-360.586C382.663,-346.995 302.228,-327.892 247.992,-315.011"/>
<polygon fill="midnightblue" stroke="midnightblue" points="439.396,-364.066 449.934,-362.972 441.014,-357.256 439.396,-364.066"/>
</g>
<!-- Node39 -->
<g id="node10" class="node"><title>Node39</title>
<g id="a_node10"><a xlink:href="MatrixElementCache_8h.html" target="_top" xlink:title="/travis/pairinteraction\l/MatrixElementCache.h">
<polygon fill="none" stroke="black" points="416,-285 416,-315 544,-315 544,-285 416,-285"/>
<text text-anchor="start" x="424" y="-303" font-family="Helvetica,sans-Serif" font-size="10.00">/travis/pairinteraction</text>
<text text-anchor="middle" x="480" y="-292" font-family="Helvetica,sans-Serif" font-size="10.00">/MatrixElementCache.h</text>
</a>
</g>
</g>
<!-- Node31&#45;&gt;Node39 -->
<g id="edge11" class="edge"><title>Node31&#45;&gt;Node39</title>
<path fill="none" stroke="midnightblue" d="M499.97,-353.334C495.204,-340.845 489.515,-325.936 485.43,-315.231"/>
<polygon fill="midnightblue" stroke="midnightblue" points="496.71,-354.61 503.545,-362.705 503.25,-352.114 496.71,-354.61"/>
</g>
<!-- Node31&#45;&gt;Node50 -->
<g id="edge25" class="edge"><title>Node31&#45;&gt;Node50</title>
<path fill="none" stroke="midnightblue" d="M539.339,-357.292C556.637,-346.056 578.249,-332.018 595.563,-320.771"/>
<polygon fill="midnightblue" stroke="midnightblue" points="537.212,-354.501 530.733,-362.883 541.025,-360.371 537.212,-354.501"/>
</g>
<!-- Node31&#45;&gt;Node51 -->
<g id="edge26" class="edge"><title>Node31&#45;&gt;Node51</title>
<path fill="none" stroke="midnightblue" d="M566.434,-360.082C612.375,-346.548 676.033,-327.796 719.219,-315.075"/>
<polygon fill="midnightblue" stroke="midnightblue" points="565.225,-356.789 556.622,-362.972 567.203,-363.503 565.225,-356.789"/>
</g>
<!-- Node33 -->
<g id="node4" class="node"><title>Node33</title>
<g id="a_node4"><a xlink:href="HamiltonianOne_8h.html" target="_top" xlink:title="/travis/pairinteraction\l/HamiltonianOne.h">
<polygon fill="none" stroke="black" points="174,-212.5 174,-242.5 292,-242.5 292,-212.5 174,-212.5"/>
<text text-anchor="start" x="182" y="-230.5" font-family="Helvetica,sans-Serif" font-size="10.00">/travis/pairinteraction</text>
<text text-anchor="middle" x="233" y="-219.5" font-family="Helvetica,sans-Serif" font-size="10.00">/HamiltonianOne.h</text>
</a>
</g>
</g>
<!-- Node32&#45;&gt;Node33 -->
<g id="edge3" class="edge"><title>Node32&#45;&gt;Node33</title>
<path fill="none" stroke="midnightblue" d="M203.319,-276.057C210.166,-265.086 218.148,-252.297 224.109,-242.746"/>
<polygon fill="midnightblue" stroke="midnightblue" points="200.23,-274.397 197.904,-284.733 206.168,-278.103 200.23,-274.397"/>
</g>
<!-- Node35 -->
<g id="node6" class="node"><title>Node35</title>
<g id="a_node6"><a xlink:href="HamiltonianTwo_8h.html" target="_top" xlink:title="/travis/pairinteraction\l/HamiltonianTwo.h">
<polygon fill="none" stroke="black" points="79,-145.5 79,-175.5 197,-175.5 197,-145.5 79,-145.5"/>
<text text-anchor="start" x="87" y="-163.5" font-family="Helvetica,sans-Serif" font-size="10.00">/travis/pairinteraction</text>
<text text-anchor="middle" x="138" y="-152.5" font-family="Helvetica,sans-Serif" font-size="10.00">/HamiltonianTwo.h</text>
</a>
</g>
</g>
<!-- Node32&#45;&gt;Node35 -->
<g id="edge9" class="edge"><title>Node32&#45;&gt;Node35</title>
<path fill="none" stroke="midnightblue" d="M178.451,-275.612C174.091,-265.641 169.106,-253.83 165,-243 156.175,-219.725 147.374,-192.134 142.321,-175.763"/>
<polygon fill="midnightblue" stroke="midnightblue" points="175.299,-277.138 182.547,-284.866 181.7,-274.305 175.299,-277.138"/>
</g>
<!-- Node32&#45;&gt;Node38 -->
<g id="edge10" class="edge"><title>Node32&#45;&gt;Node38</title>
<path fill="none" stroke="midnightblue" d="M154.071,-280.058C132.308,-268.256 104.778,-253.326 84.9499,-242.573"/>
<polygon fill="midnightblue" stroke="midnightblue" points="152.546,-283.212 163.005,-284.903 155.883,-277.059 152.546,-283.212"/>
</g>
<!-- Node34 -->
<g id="node5" class="node"><title>Node34</title>
<g id="a_node5"><a xlink:href="HamiltonianOne_8cpp.html" target="_top" xlink:title="/travis/pairinteraction\l/HamiltonianOne.cpp">
<polygon fill="none" stroke="black" points="253,-145.5 253,-175.5 371,-175.5 371,-145.5 253,-145.5"/>
<text text-anchor="start" x="261" y="-163.5" font-family="Helvetica,sans-Serif" font-size="10.00">/travis/pairinteraction</text>
<text text-anchor="middle" x="312" y="-152.5" font-family="Helvetica,sans-Serif" font-size="10.00">/HamiltonianOne.cpp</text>
</a>
</g>
</g>
<!-- Node33&#45;&gt;Node34 -->
<g id="edge4" class="edge"><title>Node33&#45;&gt;Node34</title>
<path fill="none" stroke="midnightblue" d="M258.057,-205.883C270.063,-196.005 284.132,-184.429 294.892,-175.577"/>
<polygon fill="midnightblue" stroke="midnightblue" points="255.64,-203.34 250.142,-212.396 260.088,-208.745 255.64,-203.34"/>
</g>
<!-- Node33&#45;&gt;Node35 -->
<g id="edge5" class="edge"><title>Node33&#45;&gt;Node35</title>
<path fill="none" stroke="midnightblue" d="M204.111,-206.734C189.41,-196.676 171.885,-184.685 158.573,-175.577"/>
<polygon fill="midnightblue" stroke="midnightblue" points="202.157,-209.638 212.386,-212.396 206.11,-203.861 202.157,-209.638"/>
</g>
<!-- Node37 -->
<g id="node8" class="node"><title>Node37</title>
<g id="a_node8"><a xlink:href="Interface_8cpp.html" target="_top" xlink:title="/travis/pairinteraction\l/Interface.cpp">
<polygon fill="none" stroke="black" points="166,-78.5 166,-108.5 284,-108.5 284,-78.5 166,-78.5"/>
<text text-anchor="start" x="174" y="-96.5" font-family="Helvetica,sans-Serif" font-size="10.00">/travis/pairinteraction</text>
<text text-anchor="middle" x="225" y="-85.5" font-family="Helvetica,sans-Serif" font-size="10.00">/Interface.cpp</text>
</a>
</g>
</g>
<!-- Node33&#45;&gt;Node37 -->
<g id="edge8" class="edge"><title>Node33&#45;&gt;Node37</title>
<path fill="none" stroke="midnightblue" d="M231.539,-202.39C229.873,-174.901 227.205,-130.888 225.85,-108.525"/>
<polygon fill="midnightblue" stroke="midnightblue" points="228.045,-202.604 232.144,-212.374 235.032,-202.18 228.045,-202.604"/>
</g>
<!-- Node36 -->
<g id="node7" class="node"><title>Node36</title>
<g id="a_node7"><a xlink:href="HamiltonianTwo_8cpp.html" target="_top" xlink:title="/travis/pairinteraction\l/HamiltonianTwo.cpp">
<polygon fill="none" stroke="black" points="30,-78.5 30,-108.5 148,-108.5 148,-78.5 30,-78.5"/>
<text text-anchor="start" x="38" y="-96.5" font-family="Helvetica,sans-Serif" font-size="10.00">/travis/pairinteraction</text>
<text text-anchor="middle" x="89" y="-85.5" font-family="Helvetica,sans-Serif" font-size="10.00">/HamiltonianTwo.cpp</text>
</a>
</g>
</g>
<!-- Node35&#45;&gt;Node36 -->
<g id="edge6" class="edge"><title>Node35&#45;&gt;Node36</title>
<path fill="none" stroke="midnightblue" d="M121.157,-137.157C114.012,-127.679 105.9,-116.919 99.6115,-108.577"/>
<polygon fill="midnightblue" stroke="midnightblue" points="118.553,-139.518 127.368,-145.396 124.143,-135.304 118.553,-139.518"/>
</g>
<!-- Node35&#45;&gt;Node37 -->
<g id="edge7" class="edge"><title>Node35&#45;&gt;Node37</title>
<path fill="none" stroke="midnightblue" d="M165.214,-139.168C178.518,-129.228 194.196,-117.514 206.159,-108.577"/>
<polygon fill="midnightblue" stroke="midnightblue" points="162.794,-136.607 156.878,-145.396 166.984,-142.215 162.794,-136.607"/>
</g>
<!-- Node39&#45;&gt;Node40 -->
<g id="edge12" class="edge"><title>Node39&#45;&gt;Node40</title>
<path fill="none" stroke="midnightblue" d="M453.392,-278.61C438.279,-267.029 419.747,-252.828 406.276,-242.505"/>
<polygon fill="midnightblue" stroke="midnightblue" points="451.316,-281.429 461.382,-284.733 455.574,-275.873 451.316,-281.429"/>
</g>
<!-- Node41 -->
<g id="node12" class="node"><title>Node41</title>
<g id="a_node12"><a xlink:href="PerturbativeInteraction_8h.html" target="_top" xlink:title="/travis/pairinteraction\l/PerturbativeInteraction.h">
<polygon fill="none" stroke="black" points="758,-212.5 758,-242.5 896,-242.5 896,-212.5 758,-212.5"/>
<text text-anchor="start" x="766" y="-230.5" font-family="Helvetica,sans-Serif" font-size="10.00">/travis/pairinteraction</text>
<text text-anchor="middle" x="827" y="-219.5" font-family="Helvetica,sans-Serif" font-size="10.00">/PerturbativeInteraction.h</text>
</a>
</g>
</g>
<!-- Node39&#45;&gt;Node41 -->
<g id="edge13" class="edge"><title>Node39&#45;&gt;Node41</title>
<path fill="none" stroke="midnightblue" d="M538.771,-282.434C543.572,-281.222 548.36,-280.061 553,-279 591.017,-270.305 689.852,-252.528 757.805,-240.56"/>
<polygon fill="midnightblue" stroke="midnightblue" points="537.745,-279.084 528.939,-284.976 539.497,-285.861 537.745,-279.084"/>
</g>
<!-- Node43 -->
<g id="node14" class="node"><title>Node43</title>
<g id="a_node14"><a xlink:href="SystemBase_8h.html" target="_top" xlink:title="/travis/pairinteraction\l/SystemBase.h">
<polygon fill="none" stroke="black" points="476,-212.5 476,-242.5 594,-242.5 594,-212.5 476,-212.5"/>
<text text-anchor="start" x="484" y="-230.5" font-family="Helvetica,sans-Serif" font-size="10.00">/travis/pairinteraction</text>
<text text-anchor="middle" x="535" y="-219.5" font-family="Helvetica,sans-Serif" font-size="10.00">/SystemBase.h</text>
</a>
</g>
</g>
<!-- Node39&#45;&gt;Node43 -->
<g id="edge15" class="edge"><title>Node39&#45;&gt;Node43</title>
<path fill="none" stroke="midnightblue" d="M497.387,-276.713C506.058,-265.599 516.286,-252.488 523.886,-242.746"/>
<polygon fill="midnightblue" stroke="midnightblue" points="494.522,-274.696 491.13,-284.733 500.041,-279.002 494.522,-274.696"/>
</g>
<!-- Node49 -->
<g id="node20" class="node"><title>Node49</title>
<g id="a_node20"><a xlink:href="integration__test_8cpp.html" target="_top" xlink:title="/travis/pairinteraction\l/unit_test/integration\l_test.cpp">
<polygon fill="none" stroke="black" points="631,-0.5 631,-41.5 749,-41.5 749,-0.5 631,-0.5"/>
<text text-anchor="start" x="639" y="-29.5" font-family="Helvetica,sans-Serif" font-size="10.00">/travis/pairinteraction</text>
<text text-anchor="start" x="639" y="-18.5" font-family="Helvetica,sans-Serif" font-size="10.00">/unit_test/integration</text>
<text text-anchor="middle" x="690" y="-7.5" font-family="Helvetica,sans-Serif" font-size="10.00">_test.cpp</text>
</a>
</g>
</g>
<!-- Node39&#45;&gt;Node49 -->
<g id="edge24" class="edge"><title>Node39&#45;&gt;Node49</title>
<path fill="none" stroke="midnightblue" d="M526.077,-280.99C549.728,-271.014 578.617,-257.674 603,-243 644.816,-217.835 668.127,-219.628 690,-176 711.988,-132.143 702.454,-72.034 695.291,-41.5057"/>
<polygon fill="midnightblue" stroke="midnightblue" points="524.517,-277.848 516.625,-284.916 527.202,-284.312 524.517,-277.848"/>
</g>
<!-- Node42 -->
<g id="node13" class="node"><title>Node42</title>
<g id="a_node13"><a xlink:href="PerturbativeInteraction_8cpp.html" target="_top" xlink:title="/travis/pairinteraction\l/PerturbativeInteraction.cpp">
<polygon fill="none" stroke="black" points="755.5,-145.5 755.5,-175.5 904.5,-175.5 904.5,-145.5 755.5,-145.5"/>
<text text-anchor="start" x="763.5" y="-163.5" font-family="Helvetica,sans-Serif" font-size="10.00">/travis/pairinteraction</text>
<text text-anchor="middle" x="830" y="-152.5" font-family="Helvetica,sans-Serif" font-size="10.00">/PerturbativeInteraction.cpp</text>
</a>
</g>
</g>
<!-- Node41&#45;&gt;Node42 -->
<g id="edge14" class="edge"><title>Node41&#45;&gt;Node42</title>
<path fill="none" stroke="midnightblue" d="M828.112,-202.403C828.529,-193.37 828.989,-183.408 829.35,-175.577"/>
<polygon fill="midnightblue" stroke="midnightblue" points="824.616,-202.245 827.651,-212.396 831.608,-202.568 824.616,-202.245"/>
</g>
<!-- Node44 -->
<g id="node15" class="node"><title>Node44</title>
<g id="a_node15"><a xlink:href="SystemBase_8cpp.html" target="_top" xlink:title="/travis/pairinteraction\l/SystemBase.cpp">
<polygon fill="none" stroke="black" points="389,-145.5 389,-175.5 507,-175.5 507,-145.5 389,-145.5"/>
<text text-anchor="start" x="397" y="-163.5" font-family="Helvetica,sans-Serif" font-size="10.00">/travis/pairinteraction</text>
<text text-anchor="middle" x="448" y="-152.5" font-family="Helvetica,sans-Serif" font-size="10.00">/SystemBase.cpp</text>
</a>
</g>
</g>
<!-- Node43&#45;&gt;Node44 -->
<g id="edge16" class="edge"><title>Node43&#45;&gt;Node44</title>
<path fill="none" stroke="midnightblue" d="M507.786,-206.168C494.482,-196.228 478.804,-184.514 466.841,-175.577"/>
<polygon fill="midnightblue" stroke="midnightblue" points="506.016,-209.215 516.122,-212.396 510.206,-203.607 506.016,-209.215"/>
</g>
<!-- Node45 -->
<g id="node16" class="node"><title>Node45</title>
<g id="a_node16"><a xlink:href="SystemOne_8h.html" target="_top" xlink:title="/travis/pairinteraction\l/SystemOne.h">
<polygon fill="none" stroke="black" points="563,-145.5 563,-175.5 681,-175.5 681,-145.5 563,-145.5"/>
<text text-anchor="start" x="571" y="-163.5" font-family="Helvetica,sans-Serif" font-size="10.00">/travis/pairinteraction</text>
<text text-anchor="middle" x="622" y="-152.5" font-family="Helvetica,sans-Serif" font-size="10.00">/SystemOne.h</text>
</a>
</g>
</g>
<!-- Node43&#45;&gt;Node45 -->
<g id="edge17" class="edge"><title>Node43&#45;&gt;Node45</title>
<path fill="none" stroke="midnightblue" d="M562.214,-206.168C575.518,-196.228 591.196,-184.514 603.159,-175.577"/>
<polygon fill="midnightblue" stroke="midnightblue" points="559.794,-203.607 553.878,-212.396 563.984,-209.215 559.794,-203.607"/>
</g>
<!-- Node47 -->
<g id="node18" class="node"><title>Node47</title>
<g id="a_node18"><a xlink:href="SystemTwo_8h.html" target="_top" xlink:title="/travis/pairinteraction\l/SystemTwo.h">
<polygon fill="none" stroke="black" points="408,-78.5 408,-108.5 526,-108.5 526,-78.5 408,-78.5"/>
<text text-anchor="start" x="416" y="-96.5" font-family="Helvetica,sans-Serif" font-size="10.00">/travis/pairinteraction</text>
<text text-anchor="middle" x="467" y="-85.5" font-family="Helvetica,sans-Serif" font-size="10.00">/SystemTwo.h</text>
</a>
</g>
</g>
<!-- Node43&#45;&gt;Node47 -->
<g id="edge23" class="edge"><title>Node43&#45;&gt;Node47</title>
<path fill="none" stroke="midnightblue" d="M532.808,-202.262C530.477,-185.377 525.708,-162.784 516,-145 508.274,-130.846 495.487,-117.862 484.914,-108.605"/>
<polygon fill="midnightblue" stroke="midnightblue" points="529.36,-202.909 534.015,-212.427 536.311,-202.084 529.36,-202.909"/>
</g>
<!-- Node46 -->
<g id="node17" class="node"><title>Node46</title>
<g id="a_node17"><a xlink:href="SystemOne_8cpp.html" target="_top" xlink:title="/travis/pairinteraction\l/SystemOne.cpp">
<polygon fill="none" stroke="black" points="544,-78.5 544,-108.5 662,-108.5 662,-78.5 544,-78.5"/>
<text text-anchor="start" x="552" y="-96.5" font-family="Helvetica,sans-Serif" font-size="10.00">/travis/pairinteraction</text>
<text text-anchor="middle" x="603" y="-85.5" font-family="Helvetica,sans-Serif" font-size="10.00">/SystemOne.cpp</text>
</a>
</g>
</g>
<!-- Node45&#45;&gt;Node46 -->
<g id="edge18" class="edge"><title>Node45&#45;&gt;Node46</title>
<path fill="none" stroke="midnightblue" d="M615.042,-135.697C612.379,-126.587 609.429,-116.493 607.115,-108.577"/>
<polygon fill="midnightblue" stroke="midnightblue" points="611.712,-136.78 617.877,-145.396 618.431,-134.816 611.712,-136.78"/>
</g>
<!-- Node45&#45;&gt;Node47 -->
<g id="edge19" class="edge"><title>Node45&#45;&gt;Node47</title>
<path fill="none" stroke="midnightblue" d="M578.854,-141.407C554.109,-131.029 523.504,-118.195 500.567,-108.577"/>
<polygon fill="midnightblue" stroke="midnightblue" points="577.792,-144.756 588.367,-145.396 580.499,-138.301 577.792,-144.756"/>
</g>
<!-- Node45&#45;&gt;Node49 -->
<g id="edge22" class="edge"><title>Node45&#45;&gt;Node49</title>
<path fill="none" stroke="midnightblue" d="M647.44,-138.604C656.114,-130.244 665.101,-119.989 671,-109 682.407,-87.7504 686.967,-60.0924 688.789,-41.7269"/>
<polygon fill="midnightblue" stroke="midnightblue" points="644.994,-136.098 639.984,-145.433 649.722,-141.26 644.994,-136.098"/>
</g>
<!-- Node48 -->
<g id="node19" class="node"><title>Node48</title>
<g id="a_node19"><a xlink:href="SystemTwo_8cpp.html" target="_top" xlink:title="/travis/pairinteraction\l/SystemTwo.cpp">
<polygon fill="none" stroke="black" points="408,-6 408,-36 526,-36 526,-6 408,-6"/>
<text text-anchor="start" x="416" y="-24" font-family="Helvetica,sans-Serif" font-size="10.00">/travis/pairinteraction</text>
<text text-anchor="middle" x="467" y="-13" font-family="Helvetica,sans-Serif" font-size="10.00">/SystemTwo.cpp</text>
</a>
</g>
</g>
<!-- Node47&#45;&gt;Node48 -->
<g id="edge20" class="edge"><title>Node47&#45;&gt;Node48</title>
<path fill="none" stroke="midnightblue" d="M467,-68.2317C467,-57.5679 467,-45.4145 467,-36.2455"/>
<polygon fill="midnightblue" stroke="midnightblue" points="463.5,-68.2332 467,-78.2333 470.5,-68.2333 463.5,-68.2332"/>
</g>
<!-- Node47&#45;&gt;Node49 -->
<g id="edge21" class="edge"><title>Node47&#45;&gt;Node49</title>
<path fill="none" stroke="midnightblue" d="M520.878,-75.4668C554.128,-64.9552 596.804,-51.4632 630.968,-40.6625"/>
<polygon fill="midnightblue" stroke="midnightblue" points="519.804,-72.1355 511.324,-78.4872 521.914,-78.8099 519.804,-72.1355"/>
</g>
</g>
</svg>
