<?xml version="1.0" encoding="UTF-8" standalone="no"?>
<!DOCTYPE svg PUBLIC "-//W3C//DTD SVG 1.1//EN"
 "http://www.w3.org/Graphics/SVG/1.1/DTD/svg11.dtd">
<!-- Generated by graphviz version 2.38.0 (20140413.2041)
 -->
<!-- Title: /travis/pairinteraction/QuantumDefect.cpp Pages: 1 -->
<!--zoomable 274 -->
<svg id="main" version="1.1" xmlns="http://www.w3.org/2000/svg" xmlns:xlink="http://www.w3.org/1999/xlink" xml:space="preserve" onload="init(evt)">
<style type="text/css"><![CDATA[
.edge:hover path { stroke: red; }
.edge:hover polygon { stroke: red; fill: red; }
]]></style>
<script type="text/javascript"><![CDATA[
var edges = document.getElementsByTagName('g');
if (edges && edges.length) {
  for (var i=0;i<edges.length;i++) {
    if (edges[i].id.substr(0,4)=='edge') {
      edges[i].setAttribute('class','edge');
    }
  }
}
]]></script>
        <defs>
                <circle id="rim" cx="0" cy="0" r="7"/>
                <circle id="rim2" cx="0" cy="0" r="3.5"/>
                <g id="zoomPlus">
                        <use xlink:href="#rim" fill="#404040">
                                <set attributeName="fill" to="#808080" begin="zoomplus.mouseover" end="zoomplus.mouseout"/>
                        </use>
                        <path d="M-4,0h8M0,-4v8" fill="none" stroke="white" stroke-width="1.5" pointer-events="none"/>
                </g>
                <g id="zoomMin">
                        <use xlink:href="#rim" fill="#404040">
                                <set attributeName="fill" to="#808080" begin="zoomminus.mouseover" end="zoomminus.mouseout"/>
                        </use>
                        <path d="M-4,0h8" fill="none" stroke="white" stroke-width="1.5" pointer-events="none"/>
                </g>
                <g id="dirArrow">
                        <path fill="none" stroke="white" stroke-width="1.5" d="M0,-3.0v7 M-2.5,-0.5L0,-3.0L2.5,-0.5"/>
                </g>
               <g id="resetDef">
                       <use xlink:href="#rim2" fill="#404040">
                               <set attributeName="fill" to="#808080" begin="reset.mouseover" end="reset.mouseout"/>
                       </use>
               </g>
        </defs>

<script type="text/javascript">
var viewWidth = 1865;
var viewHeight = 274;
var sectionId = 'dynsection-0';
</script>
<script xlink:href="svgpan.js"/>
<svg id="graph" class="graph">
<g id="viewport">
<title>/travis/pairinteraction/QuantumDefect.cpp</title>
<!-- Node0 -->
<g id="node1" class="node"><title>Node0</title>
<polygon fill="#bfbfbf" stroke="black" points="1399.5,-235.5 1399.5,-265.5 1517.5,-265.5 1517.5,-235.5 1399.5,-235.5"/>
<text text-anchor="start" x="1407.5" y="-253.5" font-family="Helvetica,sans-Serif" font-size="10.00">/travis/pairinteraction</text>
<text text-anchor="middle" x="1458.5" y="-242.5" font-family="Helvetica,sans-Serif" font-size="10.00">/QuantumDefect.cpp</text>
</g>
<!-- Node1 -->
<g id="node2" class="node"><title>Node1</title>
<g id="a_node2"><a xlink:href="QuantumDefect_8h.html" target="_top" xlink:title="QuantumDefect.h">
<polygon fill="none" stroke="black" points="589.5,-179.5 589.5,-198.5 691.5,-198.5 691.5,-179.5 589.5,-179.5"/>
<text text-anchor="middle" x="640.5" y="-186.5" font-family="Helvetica,sans-Serif" font-size="10.00">QuantumDefect.h</text>
</a>
</g>
</g>
<!-- Node0&#45;&gt;Node1 -->
<g id="edge1" class="edge"><title>Node0&#45;&gt;Node1</title>
<path fill="none" stroke="midnightblue" d="M1399.34,-245.197C1249.12,-234.27 854.049,-205.533 701.666,-194.449"/>
<polygon fill="midnightblue" stroke="midnightblue" points="701.78,-190.948 691.553,-193.713 701.273,-197.93 701.78,-190.948"/>
</g>
<!-- Node6 -->
<g id="node7" class="node"><title>Node6</title>
<g id="a_node7"><a xlink:href="SQLite_8h.html" target="_top" xlink:title="SQLite.h">
<polygon fill="none" stroke="black" points="1219,-123.5 1219,-142.5 1276,-142.5 1276,-123.5 1219,-123.5"/>
<text text-anchor="middle" x="1247.5" y="-130.5" font-family="Helvetica,sans-Serif" font-size="10.00">SQLite.h</text>
</a>
</g>
</g>
<!-- Node0&#45;&gt;Node6 -->
<g id="edge37" class="edge"><title>Node0&#45;&gt;Node6</title>
<path fill="none" stroke="midnightblue" d="M1432.63,-235.337C1391.57,-212.863 1312.05,-169.333 1271.92,-147.367"/>
<polygon fill="midnightblue" stroke="midnightblue" points="1273.52,-144.254 1263.07,-142.522 1270.16,-150.394 1273.52,-144.254"/>
</g>
<!-- Node7 -->
<g id="node8" class="node"><title>Node7</title>
<polygon fill="none" stroke="#bfbfbf" points="1402,-62 1402,-81 1461,-81 1461,-62 1402,-62"/>
<text text-anchor="middle" x="1431.5" y="-69" font-family="Helvetica,sans-Serif" font-size="10.00">iostream</text>
</g>
<!-- Node0&#45;&gt;Node7 -->
<g id="edge41" class="edge"><title>Node0&#45;&gt;Node7</title>
<path fill="none" stroke="midnightblue" d="M1456.34,-235.315C1451.5,-203.633 1439.83,-127.109 1434.39,-91.4186"/>
<polygon fill="midnightblue" stroke="midnightblue" points="1437.82,-90.7319 1432.85,-81.3741 1430.9,-91.7875 1437.82,-90.7319"/>
</g>
<!-- Node10 -->
<g id="node11" class="node"><title>Node10</title>
<polygon fill="none" stroke="#bfbfbf" points="1479.5,-62 1479.5,-81 1535.5,-81 1535.5,-62 1479.5,-62"/>
<text text-anchor="middle" x="1507.5" y="-69" font-family="Helvetica,sans-Serif" font-size="10.00">sstream</text>
</g>
<!-- Node0&#45;&gt;Node10 -->
<g id="edge42" class="edge"><title>Node0&#45;&gt;Node10</title>
<path fill="none" stroke="midnightblue" d="M1462.43,-235.315C1471.2,-203.633 1492.38,-127.109 1502.26,-91.4186"/>
<polygon fill="midnightblue" stroke="midnightblue" points="1505.75,-91.9454 1505.04,-81.3741 1499,-90.0777 1505.75,-91.9454"/>
</g>
<!-- Node11 -->
<g id="node12" class="node"><title>Node11</title>
<polygon fill="none" stroke="#bfbfbf" points="845.5,-62 845.5,-81 889.5,-81 889.5,-62 845.5,-62"/>
<text text-anchor="middle" x="867.5" y="-69" font-family="Helvetica,sans-Serif" font-size="10.00">string</text>
</g>
<!-- Node0&#45;&gt;Node11 -->
<g id="edge43" class="edge"><title>Node0&#45;&gt;Node11</title>
<path fill="none" stroke="midnightblue" d="M1413.26,-235.426C1336.03,-211.522 1173.68,-161.806 1035.5,-123 974.889,-105.979 957.699,-108.424 898.5,-87 896.887,-86.4162 895.243,-85.7796 893.596,-85.1095"/>
<polygon fill="midnightblue" stroke="midnightblue" points="894.885,-81.8532 884.322,-81.041 892.073,-88.2635 894.885,-81.8532"/>
</g>
<!-- Node16 -->
<g id="node17" class="node"><title>Node16</title>
<polygon fill="none" stroke="#bfbfbf" points="1553.5,-62 1553.5,-81 1595.5,-81 1595.5,-62 1553.5,-62"/>
<text text-anchor="middle" x="1574.5" y="-69" font-family="Helvetica,sans-Serif" font-size="10.00">utility</text>
</g>
<!-- Node0&#45;&gt;Node16 -->
<g id="edge44" class="edge"><title>Node0&#45;&gt;Node16</title>
<path fill="none" stroke="midnightblue" d="M1467.8,-235.315C1488.83,-203.221 1540.02,-125.114 1563,-90.0489"/>
<polygon fill="midnightblue" stroke="midnightblue" points="1566.13,-91.6564 1568.68,-81.3741 1560.28,-87.8194 1566.13,-91.6564"/>
</g>
<!-- Node18 -->
<g id="node19" class="node"><title>Node18</title>
<polygon fill="none" stroke="#bfbfbf" points="1505.5,-0.5 1505.5,-19.5 1567.5,-19.5 1567.5,-0.5 1505.5,-0.5"/>
<text text-anchor="middle" x="1536.5" y="-7.5" font-family="Helvetica,sans-Serif" font-size="10.00">algorithm</text>
</g>
<!-- Node0&#45;&gt;Node18 -->
<g id="edge38" class="edge"><title>Node0&#45;&gt;Node18</title>
<path fill="none" stroke="midnightblue" d="M1478.84,-235.404C1512.99,-210.299 1580.46,-154.128 1604.5,-87 1609.14,-74.0287 1611.02,-68.1364 1604.5,-56 1596.88,-41.8153 1582.6,-31.3516 1569.09,-24.1027"/>
<polygon fill="midnightblue" stroke="midnightblue" points="1570.47,-20.8791 1559.95,-19.5916 1567.37,-27.1562 1570.47,-20.8791"/>
</g>
<!-- Node26 -->
<g id="node27" class="node"><title>Node26</title>
<polygon fill="none" stroke="#bfbfbf" points="780,-62 780,-81 827,-81 827,-62 780,-62"/>
<text text-anchor="middle" x="803.5" y="-69" font-family="Helvetica,sans-Serif" font-size="10.00">cmath</text>
</g>
<!-- Node0&#45;&gt;Node26 -->
<g id="edge39" class="edge"><title>Node0&#45;&gt;Node26</title>
<path fill="none" stroke="midnightblue" d="M1399.22,-237.372C1353.07,-227.688 1287.5,-213.4 1230.5,-199 1054,-154.408 1007.79,-148.65 836.5,-87 834.84,-86.4027 833.146,-85.7611 831.445,-85.0922"/>
<polygon fill="midnightblue" stroke="midnightblue" points="832.397,-81.6973 821.82,-81.0816 829.704,-88.1588 832.397,-81.6973"/>
</g>
<!-- Node31 -->
<g id="node32" class="node"><title>Node31</title>
<polygon fill="none" stroke="#bfbfbf" points="1651.5,-179.5 1651.5,-198.5 1775.5,-198.5 1775.5,-179.5 1651.5,-179.5"/>
<text text-anchor="middle" x="1713.5" y="-186.5" font-family="Helvetica,sans-Serif" font-size="10.00">EmbeddedDatabase.h</text>
</g>
<!-- Node0&#45;&gt;Node31 -->
<g id="edge36" class="edge"><title>Node0&#45;&gt;Node31</title>
<path fill="none" stroke="midnightblue" d="M1517.64,-235.7C1563.04,-225.107 1624.85,-210.684 1666.81,-200.895"/>
<polygon fill="midnightblue" stroke="midnightblue" points="1667.82,-204.253 1676.76,-198.572 1666.23,-197.436 1667.82,-204.253"/>
</g>
<!-- Node32 -->
<g id="node33" class="node"><title>Node32</title>
<polygon fill="none" stroke="#bfbfbf" points="1794,-179.5 1794,-198.5 1857,-198.5 1857,-179.5 1794,-179.5"/>
<text text-anchor="middle" x="1825.5" y="-186.5" font-family="Helvetica,sans-Serif" font-size="10.00">exception</text>
</g>
<!-- Node0&#45;&gt;Node32 -->
<g id="edge40" class="edge"><title>Node0&#45;&gt;Node32</title>
<path fill="none" stroke="midnightblue" d="M1517.58,-241.479C1580.93,-232.624 1684.66,-217.394 1783.86,-199.019"/>
<polygon fill="midnightblue" stroke="midnightblue" points="1784.57,-202.448 1793.76,-197.173 1783.28,-195.567 1784.57,-202.448"/>
</g>
<!-- Node2 -->
<g id="node3" class="node"><title>Node2</title>
<g id="a_node3"><a xlink:href="Cache_8h.html" target="_top" xlink:title="Cache.h">
<polygon fill="none" stroke="black" points="183.5,-123.5 183.5,-142.5 239.5,-142.5 239.5,-123.5 183.5,-123.5"/>
<text text-anchor="middle" x="211.5" y="-130.5" font-family="Helvetica,sans-Serif" font-size="10.00">Cache.h</text>
</a>
</g>
</g>
<!-- Node1&#45;&gt;Node2 -->
<g id="edge2" class="edge"><title>Node1&#45;&gt;Node2</title>
<path fill="none" stroke="midnightblue" d="M589.179,-181.54C502.09,-170.578 327.297,-148.576 249.895,-138.833"/>
<polygon fill="midnightblue" stroke="midnightblue" points="249.998,-135.318 239.639,-137.542 249.123,-142.264 249.998,-135.318"/>
</g>
<!-- Node3 -->
<g id="node4" class="node"><title>Node3</title>
<polygon fill="none" stroke="#bfbfbf" points="236,-62 236,-81 283,-81 283,-62 236,-62"/>
<text text-anchor="middle" x="259.5" y="-69" font-family="Helvetica,sans-Serif" font-size="10.00">mutex</text>
</g>
<!-- Node1&#45;&gt;Node3 -->
<g id="edge31" class="edge"><title>Node1&#45;&gt;Node3</title>
<path fill="none" stroke="midnightblue" d="M604.785,-179.473C540.992,-163.845 403.636,-128.388 291.5,-87 289.887,-86.4047 288.241,-85.7647 286.59,-85.0971"/>
<polygon fill="midnightblue" stroke="midnightblue" points="287.821,-81.8167 277.251,-81.0899 285.06,-88.2495 287.821,-81.8167"/>
</g>
<!-- Node4 -->
<g id="node5" class="node"><title>Node4</title>
<polygon fill="none" stroke="#bfbfbf" points="0,-62 0,-81 93,-81 93,-62 0,-62"/>
<text text-anchor="middle" x="46.5" y="-69" font-family="Helvetica,sans-Serif" font-size="10.00">unordered_map</text>
</g>
<!-- Node1&#45;&gt;Node4 -->
<g id="edge34" class="edge"><title>Node1&#45;&gt;Node4</title>
<path fill="none" stroke="midnightblue" d="M589.444,-185.68C485.116,-180.513 250.891,-166.618 174.5,-143 133.45,-130.308 90.692,-103.553 66.4528,-86.8974"/>
<polygon fill="midnightblue" stroke="midnightblue" points="68.3113,-83.926 58.1118,-81.0588 64.2971,-89.6607 68.3113,-83.926"/>
</g>
<!-- Node1&#45;&gt;Node6 -->
<g id="edge6" class="edge"><title>Node1&#45;&gt;Node6</title>
<path fill="none" stroke="midnightblue" d="M691.729,-183.443C810.551,-172.872 1102.82,-146.871 1208.54,-137.466"/>
<polygon fill="midnightblue" stroke="midnightblue" points="1209.11,-140.929 1218.76,-136.557 1208.49,-133.957 1209.11,-140.929"/>
</g>
<!-- Node1&#45;&gt;Node11 -->
<g id="edge32" class="edge"><title>Node1&#45;&gt;Node11</title>
<path fill="none" stroke="midnightblue" d="M691.539,-186.785C732.308,-183.411 788.965,-173.069 828.5,-143 845.506,-130.066 856.103,-107.467 861.884,-91.3416"/>
<polygon fill="midnightblue" stroke="midnightblue" points="865.351,-92.0033 865.137,-81.4106 858.698,-89.8244 865.351,-92.0033"/>
</g>
<!-- Node22 -->
<g id="node23" class="node"><title>Node22</title>
<g id="a_node23"><a xlink:href="dtypes_8h.html" target="_top" xlink:title="dtypes.h">
<polygon fill="none" stroke="black" points="543.5,-123.5 543.5,-142.5 601.5,-142.5 601.5,-123.5 543.5,-123.5"/>
<text text-anchor="middle" x="572.5" y="-130.5" font-family="Helvetica,sans-Serif" font-size="10.00">dtypes.h</text>
</a>
</g>
</g>
<!-- Node1&#45;&gt;Node22 -->
<g id="edge24" class="edge"><title>Node1&#45;&gt;Node22</title>
<path fill="none" stroke="midnightblue" d="M629.575,-179.324C619.325,-171.185 603.779,-158.839 591.499,-149.087"/>
<polygon fill="midnightblue" stroke="midnightblue" points="593.632,-146.312 583.624,-142.834 589.279,-151.794 593.632,-146.312"/>
</g>
<!-- Node29 -->
<g id="node30" class="node"><title>Node29</title>
<polygon fill="none" stroke="#bfbfbf" points="620,-123.5 620,-142.5 661,-142.5 661,-123.5 620,-123.5"/>
<text text-anchor="middle" x="640.5" y="-130.5" font-family="Helvetica,sans-Serif" font-size="10.00">tuple</text>
</g>
<!-- Node1&#45;&gt;Node29 -->
<g id="edge33" class="edge"><title>Node1&#45;&gt;Node29</title>
<path fill="none" stroke="midnightblue" d="M640.5,-179.083C640.5,-172.006 640.5,-161.861 640.5,-152.986"/>
<polygon fill="midnightblue" stroke="midnightblue" points="644,-152.751 640.5,-142.751 637,-152.751 644,-152.751"/>
</g>
<!-- Node30 -->
<g id="node31" class="node"><title>Node30</title>
<polygon fill="none" stroke="#bfbfbf" points="679.5,-123.5 679.5,-142.5 819.5,-142.5 819.5,-123.5 679.5,-123.5"/>
<text text-anchor="middle" x="749.5" y="-130.5" font-family="Helvetica,sans-Serif" font-size="10.00">boost/functional/hash.hpp</text>
</g>
<!-- Node1&#45;&gt;Node30 -->
<g id="edge35" class="edge"><title>Node1&#45;&gt;Node30</title>
<path fill="none" stroke="midnightblue" d="M658.013,-179.324C675.572,-170.625 702.831,-157.12 723.031,-147.113"/>
<polygon fill="midnightblue" stroke="midnightblue" points="724.624,-150.23 732.031,-142.655 721.516,-143.958 724.624,-150.23"/>
</g>
<!-- Node2&#45;&gt;Node3 -->
<g id="edge3" class="edge"><title>Node2&#45;&gt;Node3</title>
<path fill="none" stroke="midnightblue" d="M218.377,-123.475C225.649,-114.462 237.295,-100.025 246.341,-88.8118"/>
<polygon fill="midnightblue" stroke="midnightblue" points="249.081,-90.9898 252.636,-81.0091 243.633,-86.5946 249.081,-90.9898"/>
</g>
<!-- Node2&#45;&gt;Node4 -->
<g id="edge4" class="edge"><title>Node2&#45;&gt;Node4</title>
<path fill="none" stroke="midnightblue" d="M187.86,-123.475C159.556,-113.269 111.967,-96.108 79.9137,-84.5492"/>
<polygon fill="midnightblue" stroke="midnightblue" points="80.691,-81.1089 70.0966,-81.0091 78.3164,-87.6939 80.691,-81.1089"/>
</g>
<!-- Node5 -->
<g id="node6" class="node"><title>Node5</title>
<polygon fill="none" stroke="#bfbfbf" points="111.5,-62 111.5,-81 217.5,-81 217.5,-62 111.5,-62"/>
<text text-anchor="middle" x="164.5" y="-69" font-family="Helvetica,sans-Serif" font-size="10.00">boost/optional.hpp</text>
</g>
<!-- Node2&#45;&gt;Node5 -->
<g id="edge5" class="edge"><title>Node2&#45;&gt;Node5</title>
<path fill="none" stroke="midnightblue" d="M204.766,-123.475C197.716,-114.55 186.465,-100.307 177.646,-89.1425"/>
<polygon fill="midnightblue" stroke="midnightblue" points="180.167,-86.6867 171.221,-81.0091 174.674,-91.0258 180.167,-86.6867"/>
</g>
<!-- Node6&#45;&gt;Node7 -->
<g id="edge7" class="edge"><title>Node6&#45;&gt;Node7</title>
<path fill="none" stroke="midnightblue" d="M1274.36,-123.432C1302.56,-114.421 1348.17,-99.8007 1387.5,-87 1390.22,-86.1132 1393.04,-85.1924 1395.88,-84.2642"/>
<polygon fill="midnightblue" stroke="midnightblue" points="1397.04,-87.5648 1405.45,-81.119 1394.86,-80.9144 1397.04,-87.5648"/>
</g>
<!-- Node8 -->
<g id="node9" class="node"><title>Node8</title>
<polygon fill="none" stroke="#bfbfbf" points="1288,-62 1288,-81 1345,-81 1345,-62 1288,-62"/>
<text text-anchor="middle" x="1316.5" y="-69" font-family="Helvetica,sans-Serif" font-size="10.00">memory</text>
</g>
<!-- Node6&#45;&gt;Node8 -->
<g id="edge8" class="edge"><title>Node6&#45;&gt;Node8</title>
<path fill="none" stroke="midnightblue" d="M1257.39,-123.475C1268.15,-114.197 1285.57,-99.1706 1298.72,-87.831"/>
<polygon fill="midnightblue" stroke="midnightblue" points="1301.34,-90.1902 1306.63,-81.0091 1296.77,-84.889 1301.34,-90.1902"/>
</g>
<!-- Node9 -->
<g id="node10" class="node"><title>Node9</title>
<polygon fill="none" stroke="#bfbfbf" points="1346.5,-0.5 1346.5,-19.5 1400.5,-19.5 1400.5,-0.5 1346.5,-0.5"/>
<text text-anchor="middle" x="1373.5" y="-7.5" font-family="Helvetica,sans-Serif" font-size="10.00">random</text>
</g>
<!-- Node6&#45;&gt;Node9 -->
<g id="edge9" class="edge"><title>Node6&#45;&gt;Node9</title>
<path fill="none" stroke="midnightblue" d="M1276.4,-127.02C1300.42,-121.383 1333.75,-109.828 1353.5,-87 1367.28,-71.0728 1371.72,-46.7179 1373.06,-29.8913"/>
<polygon fill="midnightblue" stroke="midnightblue" points="1376.57,-29.8047 1373.58,-19.641 1369.58,-29.452 1376.57,-29.8047"/>
</g>
<!-- Node6&#45;&gt;Node10 -->
<g id="edge10" class="edge"><title>Node6&#45;&gt;Node10</title>
<path fill="none" stroke="midnightblue" d="M1276.25,-127.725C1318.92,-121.033 1401.33,-106.771 1469.5,-87 1472.08,-86.2514 1474.74,-85.4049 1477.38,-84.5061"/>
<polygon fill="midnightblue" stroke="midnightblue" points="1478.59,-87.7924 1486.8,-81.1037 1476.21,-81.2086 1478.59,-87.7924"/>
</g>
<!-- Node6&#45;&gt;Node11 -->
<g id="edge11" class="edge"><title>Node6&#45;&gt;Node11</title>
<path fill="none" stroke="midnightblue" d="M1218.89,-129.459C1146.71,-122.865 958.704,-104.499 898.5,-87 896.574,-86.4403 894.618,-85.7762 892.672,-85.0448"/>
<polygon fill="midnightblue" stroke="midnightblue" points="893.793,-81.7177 883.222,-81.001 891.039,-88.1531 893.793,-81.7177"/>
</g>
<!-- Node12 -->
<g id="node13" class="node"><title>Node12</title>
<polygon fill="none" stroke="#bfbfbf" points="907.5,-62 907.5,-81 955.5,-81 955.5,-62 907.5,-62"/>
<text text-anchor="middle" x="931.5" y="-69" font-family="Helvetica,sans-Serif" font-size="10.00">thread</text>
</g>
<!-- Node6&#45;&gt;Node12 -->
<g id="edge12" class="edge"><title>Node6&#45;&gt;Node12</title>
<path fill="none" stroke="midnightblue" d="M1218.68,-129.294C1167.74,-124.079 1058.74,-110.979 969.5,-87 966.843,-86.286 964.114,-85.4533 961.397,-84.5547"/>
<polygon fill="midnightblue" stroke="midnightblue" points="962.352,-81.1793 951.757,-81.1056 959.994,-87.7701 962.352,-81.1793"/>
</g>
<!-- Node13 -->
<g id="node14" class="node"><title>Node13</title>
<polygon fill="none" stroke="#bfbfbf" points="989.5,-0.5 989.5,-19.5 1057.5,-19.5 1057.5,-0.5 989.5,-0.5"/>
<text text-anchor="middle" x="1023.5" y="-7.5" font-family="Helvetica,sans-Serif" font-size="10.00">type_traits</text>
</g>
<!-- Node6&#45;&gt;Node13 -->
<g id="edge13" class="edge"><title>Node6&#45;&gt;Node13</title>
<path fill="none" stroke="midnightblue" d="M1218.98,-128.813C1157.38,-121.644 1016.31,-103.572 1002.5,-87 988.454,-70.1391 1000.23,-44.5919 1011,-27.8495"/>
<polygon fill="midnightblue" stroke="midnightblue" points="1013.92,-29.7855 1016.71,-19.5651 1008.16,-25.8136 1013.92,-29.7855"/>
</g>
<!-- Node14 -->
<g id="node15" class="node"><title>Node14</title>
<polygon fill="none" stroke="#bfbfbf" points="1011.5,-56.5 1011.5,-86.5 1131.5,-86.5 1131.5,-56.5 1011.5,-56.5"/>
<text text-anchor="start" x="1019.5" y="-74.5" font-family="Helvetica,sans-Serif" font-size="10.00">boost/iterator/iterator</text>
<text text-anchor="middle" x="1071.5" y="-63.5" font-family="Helvetica,sans-Serif" font-size="10.00">_facade.hpp</text>
</g>
<!-- Node6&#45;&gt;Node14 -->
<g id="edge14" class="edge"><title>Node6&#45;&gt;Node14</title>
<path fill="none" stroke="midnightblue" d="M1222.28,-123.475C1196.44,-114.739 1155.53,-100.907 1122.84,-89.855"/>
<polygon fill="midnightblue" stroke="midnightblue" points="1123.57,-86.41 1112.98,-86.523 1121.33,-93.0413 1123.57,-86.41"/>
</g>
<!-- Node15 -->
<g id="node16" class="node"><title>Node15</title>
<polygon fill="none" stroke="#bfbfbf" points="1150,-62 1150,-81 1207,-81 1207,-62 1150,-62"/>
<text text-anchor="middle" x="1178.5" y="-69" font-family="Helvetica,sans-Serif" font-size="10.00">sqlite3.h</text>
</g>
<!-- Node6&#45;&gt;Node15 -->
<g id="edge15" class="edge"><title>Node6&#45;&gt;Node15</title>
<path fill="none" stroke="midnightblue" d="M1237.61,-123.475C1226.85,-114.197 1209.43,-99.1706 1196.28,-87.831"/>
<polygon fill="midnightblue" stroke="midnightblue" points="1198.23,-84.889 1188.37,-81.0091 1193.66,-90.1902 1198.23,-84.889"/>
</g>
<!-- Node6&#45;&gt;Node16 -->
<g id="edge16" class="edge"><title>Node6&#45;&gt;Node16</title>
<path fill="none" stroke="midnightblue" d="M1276.39,-130.496C1330.23,-127.067 1449.1,-116.542 1544.5,-87 1546.17,-86.4824 1547.87,-85.8846 1549.56,-85.2329"/>
<polygon fill="midnightblue" stroke="midnightblue" points="1551.23,-88.3195 1558.98,-81.0923 1548.42,-81.9109 1551.23,-88.3195"/>
</g>
<!-- Node17 -->
<g id="node18" class="node"><title>Node17</title>
<g id="a_node18"><a xlink:href="utils_8h.html" target="_top" xlink:title="utils.h">
<polygon fill="none" stroke="black" points="1225,-62 1225,-81 1270,-81 1270,-62 1225,-62"/>
<text text-anchor="middle" x="1247.5" y="-69" font-family="Helvetica,sans-Serif" font-size="10.00">utils.h</text>
</a>
</g>
</g>
<!-- Node6&#45;&gt;Node17 -->
<g id="edge17" class="edge"><title>Node6&#45;&gt;Node17</title>
<path fill="none" stroke="midnightblue" d="M1247.5,-123.475C1247.5,-115.08 1247.5,-101.981 1247.5,-91.1631"/>
<polygon fill="midnightblue" stroke="midnightblue" points="1251,-91.0091 1247.5,-81.0091 1244,-91.0091 1251,-91.0091"/>
</g>
<!-- Node17&#45;&gt;Node9 -->
<g id="edge21" class="edge"><title>Node17&#45;&gt;Node9</title>
<path fill="none" stroke="midnightblue" d="M1265.55,-61.9751C1286.7,-51.9897 1321.94,-35.3476 1346.38,-23.8075"/>
<polygon fill="midnightblue" stroke="midnightblue" points="1347.93,-26.9441 1355.48,-19.5091 1344.94,-20.6143 1347.93,-26.9441"/>
</g>
<!-- Node17&#45;&gt;Node13 -->
<g id="edge22" class="edge"><title>Node17&#45;&gt;Node13</title>
<path fill="none" stroke="midnightblue" d="M1230.14,-61.8931C1225.46,-59.7779 1220.35,-57.6497 1215.5,-56 1165.96,-39.1508 1107.13,-26.3803 1067.77,-18.8243"/>
<polygon fill="midnightblue" stroke="midnightblue" points="1068.18,-15.3399 1057.7,-16.9244 1066.88,-22.2184 1068.18,-15.3399"/>
</g>
<!-- Node17&#45;&gt;Node18 -->
<g id="edge18" class="edge"><title>Node17&#45;&gt;Node18</title>
<path fill="none" stroke="midnightblue" d="M1263.59,-61.9914C1268.29,-59.7748 1273.51,-57.5706 1278.5,-56 1352.95,-32.5532 1443.57,-20.3166 1495.19,-14.7992"/>
<polygon fill="midnightblue" stroke="midnightblue" points="1495.7,-18.2651 1505.29,-13.753 1494.98,-11.3024 1495.7,-18.2651"/>
</g>
<!-- Node19 -->
<g id="node20" class="node"><title>Node19</title>
<polygon fill="none" stroke="#bfbfbf" points="1190,-0.5 1190,-19.5 1247,-19.5 1247,-0.5 1190,-0.5"/>
<text text-anchor="middle" x="1218.5" y="-7.5" font-family="Helvetica,sans-Serif" font-size="10.00">complex</text>
</g>
<!-- Node17&#45;&gt;Node19 -->
<g id="edge19" class="edge"><title>Node17&#45;&gt;Node19</title>
<path fill="none" stroke="midnightblue" d="M1243.35,-61.9751C1239.12,-53.3152 1232.46,-39.6486 1227.1,-28.6453"/>
<polygon fill="midnightblue" stroke="midnightblue" points="1230.17,-26.9648 1222.65,-19.5091 1223.88,-30.0317 1230.17,-26.9648"/>
</g>
<!-- Node20 -->
<g id="node21" class="node"><title>Node20</title>
<polygon fill="none" stroke="#bfbfbf" points="1265,-0.5 1265,-19.5 1328,-19.5 1328,-0.5 1265,-0.5"/>
<text text-anchor="middle" x="1296.5" y="-7.5" font-family="Helvetica,sans-Serif" font-size="10.00">functional</text>
</g>
<!-- Node17&#45;&gt;Node20 -->
<g id="edge20" class="edge"><title>Node17&#45;&gt;Node20</title>
<path fill="none" stroke="midnightblue" d="M1254.52,-61.9751C1261.94,-52.9617 1273.83,-38.5246 1283.07,-27.3118"/>
<polygon fill="midnightblue" stroke="midnightblue" points="1285.84,-29.4534 1289.49,-19.5091 1280.43,-25.0034 1285.84,-29.4534"/>
</g>
<!-- Node21 -->
<g id="node22" class="node"><title>Node21</title>
<polygon fill="none" stroke="#bfbfbf" points="1117,-0.5 1117,-19.5 1172,-19.5 1172,-0.5 1117,-0.5"/>
<text text-anchor="middle" x="1144.5" y="-7.5" font-family="Helvetica,sans-Serif" font-size="10.00">unistd.h</text>
</g>
<!-- Node17&#45;&gt;Node21 -->
<g id="edge23" class="edge"><title>Node17&#45;&gt;Node21</title>
<path fill="none" stroke="midnightblue" d="M1232.74,-61.9751C1215.84,-52.2106 1187.92,-36.0807 1168.01,-24.5808"/>
<polygon fill="midnightblue" stroke="midnightblue" points="1169.64,-21.4805 1159.23,-19.5091 1166.14,-27.5419 1169.64,-21.4805"/>
</g>
<!-- Node23 -->
<g id="node24" class="node"><title>Node23</title>
<polygon fill="none" stroke="#bfbfbf" points="527,-62 527,-81 604,-81 604,-62 527,-62"/>
<text text-anchor="middle" x="565.5" y="-69" font-family="Helvetica,sans-Serif" font-size="10.00">Eigen/Dense</text>
</g>
<!-- Node22&#45;&gt;Node23 -->
<g id="edge25" class="edge"><title>Node22&#45;&gt;Node23</title>
<path fill="none" stroke="midnightblue" d="M571.497,-123.475C570.509,-115.08 568.968,-101.981 567.696,-91.1631"/>
<polygon fill="midnightblue" stroke="midnightblue" points="571.146,-90.5316 566.501,-81.0091 564.194,-91.3496 571.146,-90.5316"/>
</g>
<!-- Node24 -->
<g id="node25" class="node"><title>Node24</title>
<polygon fill="none" stroke="#bfbfbf" points="622.5,-62 622.5,-81 702.5,-81 702.5,-62 622.5,-62"/>
<text text-anchor="middle" x="662.5" y="-69" font-family="Helvetica,sans-Serif" font-size="10.00">Eigen/Sparse</text>
</g>
<!-- Node22&#45;&gt;Node24 -->
<g id="edge26" class="edge"><title>Node22&#45;&gt;Node24</title>
<path fill="none" stroke="midnightblue" d="M585.395,-123.475C599.964,-113.843 623.902,-98.0175 641.245,-86.5517"/>
<polygon fill="midnightblue" stroke="midnightblue" points="643.217,-89.4437 649.629,-81.0091 639.357,-83.6044 643.217,-89.4437"/>
</g>
<!-- Node25 -->
<g id="node26" class="node"><title>Node25</title>
<polygon fill="none" stroke="#bfbfbf" points="721,-62 721,-81 762,-81 762,-62 721,-62"/>
<text text-anchor="middle" x="741.5" y="-69" font-family="Helvetica,sans-Serif" font-size="10.00">array</text>
</g>
<!-- Node22&#45;&gt;Node25 -->
<g id="edge27" class="edge"><title>Node22&#45;&gt;Node25</title>
<path fill="none" stroke="midnightblue" d="M601.662,-123.828C630.076,-115.57 674.307,-101.927 711.5,-87 712.876,-86.4479 714.277,-85.861 715.684,-85.2519"/>
<polygon fill="midnightblue" stroke="midnightblue" points="717.233,-88.3919 724.863,-81.0413 714.315,-82.0293 717.233,-88.3919"/>
</g>
<!-- Node22&#45;&gt;Node26 -->
<g id="edge28" class="edge"><title>Node22&#45;&gt;Node26</title>
<path fill="none" stroke="midnightblue" d="M601.538,-125.087C604.563,-124.377 607.593,-123.671 610.5,-123 681.52,-106.601 701.258,-109.766 770.5,-87 772.373,-86.3843 774.284,-85.7006 776.196,-84.9749"/>
<polygon fill="midnightblue" stroke="midnightblue" points="777.669,-88.1539 785.59,-81.1176 775.01,-81.6786 777.669,-88.1539"/>
</g>
<!-- Node27 -->
<g id="node28" class="node"><title>Node27</title>
<polygon fill="none" stroke="#bfbfbf" points="301,-56.5 301,-86.5 444,-86.5 444,-56.5 301,-56.5"/>
<text text-anchor="start" x="309" y="-74.5" font-family="Helvetica,sans-Serif" font-size="10.00">unsupported/Eigen/CXX11</text>
<text text-anchor="middle" x="372.5" y="-63.5" font-family="Helvetica,sans-Serif" font-size="10.00">/Tensor</text>
</g>
<!-- Node22&#45;&gt;Node27 -->
<g id="edge29" class="edge"><title>Node22&#45;&gt;Node27</title>
<path fill="none" stroke="midnightblue" d="M543.845,-123.475C514.1,-114.626 466.781,-100.549 429.4,-89.4277"/>
<polygon fill="midnightblue" stroke="midnightblue" points="430.219,-86.0198 419.636,-86.523 428.223,-92.7292 430.219,-86.0198"/>
</g>
<!-- Node28 -->
<g id="node29" class="node"><title>Node28</title>
<polygon fill="none" stroke="#bfbfbf" points="462,-62 462,-81 509,-81 509,-62 462,-62"/>
<text text-anchor="middle" x="485.5" y="-69" font-family="Helvetica,sans-Serif" font-size="10.00">vector</text>
</g>
<!-- Node22&#45;&gt;Node28 -->
<g id="edge30" class="edge"><title>Node22&#45;&gt;Node28</title>
<path fill="none" stroke="midnightblue" d="M560.035,-123.475C546.081,-113.931 523.235,-98.3073 506.509,-86.8683"/>
<polygon fill="midnightblue" stroke="midnightblue" points="508.172,-83.7653 497.942,-81.0091 504.22,-89.5433 508.172,-83.7653"/>
</g>
</g>
</svg>
        <g id="navigator" transform="translate(0 0)" fill="#404254">
                <rect fill="#f2f5e9" fill-opacity="0.5" stroke="#606060" stroke-width=".5" x="0" y="0" width="60" height="60"/>
                <use id="zoomplus" xlink:href="#zoomPlus" x="17" y="9" onmousedown="handleZoom(evt,'in')"/>
                <use id="zoomminus" xlink:href="#zoomMin" x="42" y="9" onmousedown="handleZoom(evt,'out')"/>
                <use id="reset" xlink:href="#resetDef" x="30" y="36" onmousedown="handleReset()"/>
                <g id="arrowUp" xlink:href="#dirArrow" transform="translate(30 24)" onmousedown="handlePan(0,-1)">
                  <use xlink:href="#rim" fill="#404040">
                        <set attributeName="fill" to="#808080" begin="arrowUp.mouseover" end="arrowUp.mouseout"/>
                  </use>
                  <path fill="none" stroke="white" stroke-width="1.5" d="M0,-3.0v7 M-2.5,-0.5L0,-3.0L2.5,-0.5"/>
                </g>
                <g id="arrowRight" xlink:href="#dirArrow" transform="rotate(90) translate(36 -43)" onmousedown="handlePan(1,0)">
                  <use xlink:href="#rim" fill="#404040">
                        <set attributeName="fill" to="#808080" begin="arrowRight.mouseover" end="arrowRight.mouseout"/>
                  </use>
                  <path fill="none" stroke="white" stroke-width="1.5" d="M0,-3.0v7 M-2.5,-0.5L0,-3.0L2.5,-0.5"/>
                </g>
                <g id="arrowDown" xlink:href="#dirArrow" transform="rotate(180) translate(-30 -48)" onmousedown="handlePan(0,1)">
                  <use xlink:href="#rim" fill="#404040">
                        <set attributeName="fill" to="#808080" begin="arrowDown.mouseover" end="arrowDown.mouseout"/>
                  </use>
                  <path fill="none" stroke="white" stroke-width="1.5" d="M0,-3.0v7 M-2.5,-0.5L0,-3.0L2.5,-0.5"/>
                </g>
                <g id="arrowLeft" xlink:href="#dirArrow" transform="rotate(270) translate(-36 17)" onmousedown="handlePan(-1,0)">
                  <use xlink:href="#rim" fill="#404040">
                        <set attributeName="fill" to="#808080" begin="arrowLeft.mouseover" end="arrowLeft.mouseout"/>
                  </use>
                  <path fill="none" stroke="white" stroke-width="1.5" d="M0,-3.0v7 M-2.5,-0.5L0,-3.0L2.5,-0.5"/>
                </g>
        </g>
        <svg viewBox="0 0 15 15" width="100%" height="30px" preserveAspectRatio="xMaxYMin meet">
         <g id="arrow_out" transform="scale(0.3 0.3)">
          <a xlink:href="QuantumDefect_8cpp__incl_org.svg" target="_base">
           <rect id="button" ry="5" rx="5" y="6" x="6" height="38" width="38"
                fill="#f2f5e9" fill-opacity="0.5" stroke="#606060" stroke-width="1.0"/>
           <path id="arrow"
             d="M 11.500037,31.436501 C 11.940474,20.09759 22.043105,11.32322 32.158766,21.979434 L 37.068811,17.246167 C 37.068811,17.246167 37.088388,32 37.088388,32 L 22.160133,31.978069 C 22.160133,31.978069 26.997745,27.140456 26.997745,27.140456 C 18.528582,18.264221 13.291696,25.230495 11.500037,31.436501 z"
             style="fill:#404040;"/>
          </a>
         </g>
        </svg>
</svg>
