<?xml version="1.0" encoding="UTF-8" standalone="no"?>
<!DOCTYPE svg PUBLIC "-//W3C//DTD SVG 1.1//EN"
 "http://www.w3.org/Graphics/SVG/1.1/DTD/svg11.dtd">
<!-- Generated by graphviz version 2.38.0 (20140413.2041)
 -->
<!-- Title: nstar Pages: 1 -->
<svg width="375pt" height="104pt"
 viewBox="0.00 0.00 375.00 104.00" xmlns="http://www.w3.org/2000/svg" xmlns:xlink="http://www.w3.org/1999/xlink">
<g id="graph0" class="graph" transform="scale(1 1) rotate(0) translate(4 100)">
<title>nstar</title>
<!-- Node10 -->
<g id="node1" class="node"><title>Node10</title>
<polygon fill="#bfbfbf" stroke="black" points="0,-38.5 0,-57.5 41,-57.5 41,-38.5 0,-38.5"/>
<text text-anchor="middle" x="20.5" y="-45.5" font-family="Helvetica,sans-Serif" font-size="10.00">nstar</text>
</g>
<!-- Node11 -->
<g id="node2" class="node"><title>Node11</title>
<g id="a_node2"><a xlink:href="classStateOne.html#ad4e2058552ab21809e3dd455a29214ae" target="_top" xlink:title="StateOne::getNStar">
<polygon fill="none" stroke="black" points="85,-76.5 85,-95.5 197,-95.5 197,-76.5 85,-76.5"/>
<text text-anchor="middle" x="141" y="-83.5" font-family="Helvetica,sans-Serif" font-size="10.00">StateOne::getNStar</text>
</a>
</g>
</g>
<!-- Node10&#45;&gt;Node11 -->
<g id="edge1" class="edge"><title>Node10&#45;&gt;Node11</title>
<path fill="none" stroke="midnightblue" d="M50.6953,-58.2207C59.1594,-61.1224 68.4293,-64.2416 77,-67 86.896,-70.185 97.7171,-73.5064 107.555,-76.4649"/>
<polygon fill="midnightblue" stroke="midnightblue" points="51.8142,-54.9043 41.2195,-54.9487 49.5295,-61.521 51.8142,-54.9043"/>
</g>
<!-- Node12 -->
<g id="node3" class="node"><title>Node12</title>
<g id="a_node3"><a xlink:href="classStateOneOld.html#acf546d02d53655236c9beb4790d69462" target="_top" xlink:title="StateOneOld::getNStar">
<polygon fill="none" stroke="black" points="77,-38.5 77,-57.5 205,-57.5 205,-38.5 77,-38.5"/>
<text text-anchor="middle" x="141" y="-45.5" font-family="Helvetica,sans-Serif" font-size="10.00">StateOneOld::getNStar</text>
</a>
</g>
</g>
<!-- Node10&#45;&gt;Node12 -->
<g id="edge2" class="edge"><title>Node10&#45;&gt;Node12</title>
<path fill="none" stroke="midnightblue" d="M51.1744,-48C59.0711,-48 67.9104,-48 76.8685,-48"/>
<polygon fill="midnightblue" stroke="midnightblue" points="51.0679,-44.5001 41.0679,-48 51.0678,-51.5001 51.0679,-44.5001"/>
</g>
<!-- Node14 -->
<g id="node5" class="node"><title>Node14</title>
<g id="a_node5"><a xlink:href="structno__potential.html#ac32f2ce23a3ae3d1f6a4bcf8dd446158" target="_top" xlink:title="no_potential::what">
<polygon fill="none" stroke="black" points="89,-0.5 89,-19.5 193,-19.5 193,-0.5 89,-0.5"/>
<text text-anchor="middle" x="141" y="-7.5" font-family="Helvetica,sans-Serif" font-size="10.00">no_potential::what</text>
</a>
</g>
</g>
<!-- Node10&#45;&gt;Node14 -->
<g id="edge4" class="edge"><title>Node10&#45;&gt;Node14</title>
<path fill="none" stroke="midnightblue" d="M50.6953,-37.7793C59.1594,-34.8776 68.4293,-31.7584 77,-29 86.896,-25.815 97.7171,-22.4936 107.555,-19.5351"/>
<polygon fill="midnightblue" stroke="midnightblue" points="49.5295,-34.479 41.2195,-41.0513 51.8142,-41.0957 49.5295,-34.479"/>
</g>
<!-- Node13 -->
<g id="node4" class="node"><title>Node13</title>
<g id="a_node4"><a xlink:href="classStateTwoOld.html#ac0a094bb8d10a954236f3af605c0cbca" target="_top" xlink:title="StateTwoOld::getNStar">
<polygon fill="none" stroke="black" points="241,-38.5 241,-57.5 367,-57.5 367,-38.5 241,-38.5"/>
<text text-anchor="middle" x="304" y="-45.5" font-family="Helvetica,sans-Serif" font-size="10.00">StateTwoOld::getNStar</text>
</a>
</g>
</g>
<!-- Node12&#45;&gt;Node13 -->
<g id="edge3" class="edge"><title>Node12&#45;&gt;Node13</title>
<path fill="none" stroke="midnightblue" d="M215.433,-48C223.912,-48 232.495,-48 240.804,-48"/>
<polygon fill="midnightblue" stroke="midnightblue" points="215.169,-44.5001 205.169,-48 215.169,-51.5001 215.169,-44.5001"/>
</g>
</g>
</svg>
