<?xml version="1.0" encoding="UTF-8" standalone="no"?>
<!DOCTYPE svg PUBLIC "-//W3C//DTD SVG 1.1//EN"
 "http://www.w3.org/Graphics/SVG/1.1/DTD/svg11.dtd">
<!-- Generated by graphviz version 2.38.0 (20140413.2041)
 -->
<!-- Title: /travis/pairinteraction/Serializable.h Pages: 1 -->
<svg width="846pt" height="162pt"
 viewBox="0.00 0.00 846.00 162.00" xmlns="http://www.w3.org/2000/svg" xmlns:xlink="http://www.w3.org/1999/xlink">
<g id="graph0" class="graph" transform="scale(1 1) rotate(0) translate(4 158)">
<title>/travis/pairinteraction/Serializable.h</title>
<!-- Node0 -->
<g id="node1" class="node"><title>Node0</title>
<polygon fill="#bfbfbf" stroke="black" points="485.5,-123.5 485.5,-153.5 603.5,-153.5 603.5,-123.5 485.5,-123.5"/>
<text text-anchor="start" x="493.5" y="-141.5" font-family="Helvetica,sans-Serif" font-size="10.00">/travis/pairinteraction</text>
<text text-anchor="middle" x="544.5" y="-130.5" font-family="Helvetica,sans-Serif" font-size="10.00">/Serializable.h</text>
</g>
<!-- Node1 -->
<g id="node2" class="node"><title>Node1</title>
<g id="a_node2"><a xlink:href="dtypes_8h.html" target="_top" xlink:title="dtypes.h">
<polygon fill="none" stroke="black" points="247.5,-67.5 247.5,-86.5 305.5,-86.5 305.5,-67.5 247.5,-67.5"/>
<text text-anchor="middle" x="276.5" y="-74.5" font-family="Helvetica,sans-Serif" font-size="10.00">dtypes.h</text>
</a>
</g>
</g>
<!-- Node0&#45;&gt;Node1 -->
<g id="edge1" class="edge"><title>Node0&#45;&gt;Node1</title>
<path fill="none" stroke="midnightblue" d="M485.354,-124.369C433.729,-112.907 360.278,-96.5999 315.644,-86.6906"/>
<polygon fill="midnightblue" stroke="midnightblue" points="316.283,-83.2473 305.762,-84.4967 314.766,-90.0809 316.283,-83.2473"/>
</g>
<!-- Node7 -->
<g id="node8" class="node"><title>Node7</title>
<polygon fill="none" stroke="#bfbfbf" points="479,-6 479,-25 526,-25 526,-6 479,-6"/>
<text text-anchor="middle" x="502.5" y="-13" font-family="Helvetica,sans-Serif" font-size="10.00">vector</text>
</g>
<!-- Node0&#45;&gt;Node7 -->
<g id="edge13" class="edge"><title>Node0&#45;&gt;Node7</title>
<path fill="none" stroke="midnightblue" d="M485.443,-123.551C466.522,-115.989 447.612,-104.463 436.5,-87 422.356,-64.7723 450.444,-43.2691 474.247,-29.9761"/>
<polygon fill="midnightblue" stroke="midnightblue" points="476.191,-32.907 483.39,-25.134 472.915,-26.7209 476.191,-32.907"/>
</g>
<!-- Node8 -->
<g id="node9" class="node"><title>Node8</title>
<polygon fill="none" stroke="#bfbfbf" points="445.5,-67.5 445.5,-86.5 497.5,-86.5 497.5,-67.5 445.5,-67.5"/>
<text text-anchor="middle" x="471.5" y="-74.5" font-family="Helvetica,sans-Serif" font-size="10.00">iterator</text>
</g>
<!-- Node0&#45;&gt;Node8 -->
<g id="edge8" class="edge"><title>Node0&#45;&gt;Node8</title>
<path fill="none" stroke="midnightblue" d="M527.2,-123.399C516.045,-114.308 501.546,-102.49 490.138,-93.1909"/>
<polygon fill="midnightblue" stroke="midnightblue" points="492.085,-90.2627 482.122,-86.6578 487.662,-95.6887 492.085,-90.2627"/>
</g>
<!-- Node9 -->
<g id="node10" class="node"><title>Node9</title>
<polygon fill="none" stroke="#bfbfbf" points="516,-67.5 516,-86.5 573,-86.5 573,-67.5 516,-67.5"/>
<text text-anchor="middle" x="544.5" y="-74.5" font-family="Helvetica,sans-Serif" font-size="10.00">memory</text>
</g>
<!-- Node0&#45;&gt;Node9 -->
<g id="edge9" class="edge"><title>Node0&#45;&gt;Node9</title>
<path fill="none" stroke="midnightblue" d="M544.5,-123.399C544.5,-115.466 544.5,-105.458 544.5,-96.8583"/>
<polygon fill="midnightblue" stroke="midnightblue" points="548,-96.6577 544.5,-86.6578 541,-96.6578 548,-96.6577"/>
</g>
<!-- Node10 -->
<g id="node11" class="node"><title>Node10</title>
<polygon fill="none" stroke="#bfbfbf" points="591,-67.5 591,-86.5 654,-86.5 654,-67.5 591,-67.5"/>
<text text-anchor="middle" x="622.5" y="-74.5" font-family="Helvetica,sans-Serif" font-size="10.00">typeindex</text>
</g>
<!-- Node0&#45;&gt;Node10 -->
<g id="edge10" class="edge"><title>Node0&#45;&gt;Node10</title>
<path fill="none" stroke="midnightblue" d="M562.985,-123.399C575.02,-114.218 590.7,-102.258 602.943,-92.9182"/>
<polygon fill="midnightblue" stroke="midnightblue" points="605.322,-95.5056 611.15,-86.6578 601.077,-89.9401 605.322,-95.5056"/>
</g>
<!-- Node11 -->
<g id="node12" class="node"><title>Node11</title>
<polygon fill="none" stroke="#bfbfbf" points="672,-67.5 672,-86.5 727,-86.5 727,-67.5 672,-67.5"/>
<text text-anchor="middle" x="699.5" y="-74.5" font-family="Helvetica,sans-Serif" font-size="10.00">typeinfo</text>
</g>
<!-- Node0&#45;&gt;Node11 -->
<g id="edge11" class="edge"><title>Node0&#45;&gt;Node11</title>
<path fill="none" stroke="midnightblue" d="M581.233,-123.399C607.471,-113.327 642.425,-99.9093 667.518,-90.2769"/>
<polygon fill="midnightblue" stroke="midnightblue" points="668.865,-93.5091 676.946,-86.6578 666.356,-86.9741 668.865,-93.5091"/>
</g>
<!-- Node12 -->
<g id="node13" class="node"><title>Node12</title>
<polygon fill="none" stroke="#bfbfbf" points="745,-67.5 745,-86.5 838,-86.5 838,-67.5 745,-67.5"/>
<text text-anchor="middle" x="791.5" y="-74.5" font-family="Helvetica,sans-Serif" font-size="10.00">unordered_map</text>
</g>
<!-- Node0&#45;&gt;Node12 -->
<g id="edge12" class="edge"><title>Node0&#45;&gt;Node12</title>
<path fill="none" stroke="midnightblue" d="M602.723,-123.475C646.638,-112.896 706.006,-98.5946 746.359,-88.874"/>
<polygon fill="midnightblue" stroke="midnightblue" points="747.286,-92.251 756.188,-86.5064 745.646,-85.4457 747.286,-92.251"/>
</g>
<!-- Node2 -->
<g id="node3" class="node"><title>Node2</title>
<polygon fill="none" stroke="#bfbfbf" points="0,-6 0,-25 77,-25 77,-6 0,-6"/>
<text text-anchor="middle" x="38.5" y="-13" font-family="Helvetica,sans-Serif" font-size="10.00">Eigen/Dense</text>
</g>
<!-- Node1&#45;&gt;Node2 -->
<g id="edge2" class="edge"><title>Node1&#45;&gt;Node2</title>
<path fill="none" stroke="midnightblue" d="M247.392,-69.6837C209.989,-61.4355 143.129,-46.2442 86.5,-31 82.9274,-30.0383 79.2182,-28.9963 75.516,-27.9271"/>
<polygon fill="midnightblue" stroke="midnightblue" points="76.4133,-24.5427 65.8316,-25.07 74.4326,-31.2567 76.4133,-24.5427"/>
</g>
<!-- Node3 -->
<g id="node4" class="node"><title>Node3</title>
<polygon fill="none" stroke="#bfbfbf" points="95.5,-6 95.5,-25 175.5,-25 175.5,-6 95.5,-6"/>
<text text-anchor="middle" x="135.5" y="-13" font-family="Helvetica,sans-Serif" font-size="10.00">Eigen/Sparse</text>
</g>
<!-- Node1&#45;&gt;Node3 -->
<g id="edge3" class="edge"><title>Node1&#45;&gt;Node3</title>
<path fill="none" stroke="midnightblue" d="M256.298,-67.4751C232.426,-57.4013 192.498,-40.5525 165.127,-29.0023"/>
<polygon fill="midnightblue" stroke="midnightblue" points="166.238,-25.6724 155.664,-25.0091 163.517,-32.1217 166.238,-25.6724"/>
</g>
<!-- Node4 -->
<g id="node5" class="node"><title>Node4</title>
<polygon fill="none" stroke="#bfbfbf" points="194,-6 194,-25 235,-25 235,-6 194,-6"/>
<text text-anchor="middle" x="214.5" y="-13" font-family="Helvetica,sans-Serif" font-size="10.00">array</text>
</g>
<!-- Node1&#45;&gt;Node4 -->
<g id="edge4" class="edge"><title>Node1&#45;&gt;Node4</title>
<path fill="none" stroke="midnightblue" d="M267.617,-67.4751C258.041,-58.285 242.589,-43.4563 230.814,-32.156"/>
<polygon fill="midnightblue" stroke="midnightblue" points="233.005,-29.408 223.367,-25.0091 228.158,-34.4585 233.005,-29.408"/>
</g>
<!-- Node5 -->
<g id="node6" class="node"><title>Node5</title>
<polygon fill="none" stroke="#bfbfbf" points="253,-6 253,-25 300,-25 300,-6 253,-6"/>
<text text-anchor="middle" x="276.5" y="-13" font-family="Helvetica,sans-Serif" font-size="10.00">cmath</text>
</g>
<!-- Node1&#45;&gt;Node5 -->
<g id="edge5" class="edge"><title>Node1&#45;&gt;Node5</title>
<path fill="none" stroke="midnightblue" d="M276.5,-67.4751C276.5,-59.0803 276.5,-45.9806 276.5,-35.1631"/>
<polygon fill="midnightblue" stroke="midnightblue" points="280,-35.0091 276.5,-25.0091 273,-35.0091 280,-35.0091"/>
</g>
<!-- Node6 -->
<g id="node7" class="node"><title>Node6</title>
<polygon fill="none" stroke="#bfbfbf" points="318,-0.5 318,-30.5 461,-30.5 461,-0.5 318,-0.5"/>
<text text-anchor="start" x="326" y="-18.5" font-family="Helvetica,sans-Serif" font-size="10.00">unsupported/Eigen/CXX11</text>
<text text-anchor="middle" x="389.5" y="-7.5" font-family="Helvetica,sans-Serif" font-size="10.00">/Tensor</text>
</g>
<!-- Node1&#45;&gt;Node6 -->
<g id="edge6" class="edge"><title>Node1&#45;&gt;Node6</title>
<path fill="none" stroke="midnightblue" d="M292.69,-67.4751C308.567,-59.1154 333.303,-46.0902 353.798,-35.2991"/>
<polygon fill="midnightblue" stroke="midnightblue" points="355.65,-38.279 362.868,-30.523 352.389,-32.0852 355.65,-38.279"/>
</g>
<!-- Node1&#45;&gt;Node7 -->
<g id="edge7" class="edge"><title>Node1&#45;&gt;Node7</title>
<path fill="none" stroke="midnightblue" d="M305.593,-71.1084C343.978,-64.2363 413.358,-50.3614 470.5,-31 472.168,-30.4348 473.867,-29.8127 475.568,-29.1536"/>
<polygon fill="midnightblue" stroke="midnightblue" points="477.292,-32.2252 485.146,-25.1145 474.572,-25.7753 477.292,-32.2252"/>
</g>
</g>
</svg>
