<?xml version="1.0" encoding="UTF-8" standalone="no"?>
<!DOCTYPE svg PUBLIC "-//W3C//DTD SVG 1.1//EN"
 "http://www.w3.org/Graphics/SVG/1.1/DTD/svg11.dtd">
<!-- Generated by graphviz version 2.38.0 (20140413.2041)
 -->
<!-- Title: /travis/pairinteraction/Serializable.h Pages: 1 -->
<svg width="402pt" height="374pt"
 viewBox="0.00 0.00 402.00 374.00" xmlns="http://www.w3.org/2000/svg" xmlns:xlink="http://www.w3.org/1999/xlink">
<g id="graph0" class="graph" transform="scale(1 1) rotate(0) translate(4 370)">
<title>/travis/pairinteraction/Serializable.h</title>
<!-- Node13 -->
<g id="node1" class="node"><title>Node13</title>
<polygon fill="#bfbfbf" stroke="black" points="200,-335.5 200,-365.5 318,-365.5 318,-335.5 200,-335.5"/>
<text text-anchor="start" x="208" y="-353.5" font-family="Helvetica,sans-Serif" font-size="10.00">/travis/pairinteraction</text>
<text text-anchor="middle" x="259" y="-342.5" font-family="Helvetica,sans-Serif" font-size="10.00">/Serializable.h</text>
</g>
<!-- Node14 -->
<g id="node2" class="node"><title>Node14</title>
<g id="a_node2"><a xlink:href="Hamiltonianmatrix_8h.html" target="_top" xlink:title="/travis/pairinteraction\l/Hamiltonianmatrix.h">
<polygon fill="none" stroke="black" points="200,-268.5 200,-298.5 318,-298.5 318,-268.5 200,-268.5"/>
<text text-anchor="start" x="208" y="-286.5" font-family="Helvetica,sans-Serif" font-size="10.00">/travis/pairinteraction</text>
<text text-anchor="middle" x="259" y="-275.5" font-family="Helvetica,sans-Serif" font-size="10.00">/Hamiltonianmatrix.h</text>
</a>
</g>
</g>
<!-- Node13&#45;&gt;Node14 -->
<g id="edge1" class="edge"><title>Node13&#45;&gt;Node14</title>
<path fill="none" stroke="midnightblue" d="M259,-325.108C259,-316.154 259,-306.323 259,-298.577"/>
<polygon fill="midnightblue" stroke="midnightblue" points="255.5,-325.396 259,-335.396 262.5,-325.396 255.5,-325.396"/>
</g>
<!-- Node15 -->
<g id="node3" class="node"><title>Node15</title>
<g id="a_node3"><a xlink:href="Hamiltonian_8h.html" target="_top" xlink:title="/travis/pairinteraction\l/Hamiltonian.h">
<polygon fill="none" stroke="black" points="130,-201.5 130,-231.5 248,-231.5 248,-201.5 130,-201.5"/>
<text text-anchor="start" x="138" y="-219.5" font-family="Helvetica,sans-Serif" font-size="10.00">/travis/pairinteraction</text>
<text text-anchor="middle" x="189" y="-208.5" font-family="Helvetica,sans-Serif" font-size="10.00">/Hamiltonian.h</text>
</a>
</g>
</g>
<!-- Node14&#45;&gt;Node15 -->
<g id="edge2" class="edge"><title>Node14&#45;&gt;Node15</title>
<path fill="none" stroke="midnightblue" d="M236.182,-261.311C225.681,-251.561 213.51,-240.259 204.159,-231.577"/>
<polygon fill="midnightblue" stroke="midnightblue" points="234.101,-264.156 243.811,-268.396 238.865,-259.027 234.101,-264.156"/>
</g>
<!-- Node21 -->
<g id="node9" class="node"><title>Node21</title>
<g id="a_node9"><a xlink:href="Hamiltonianmatrix_8cpp.html" target="_top" xlink:title="/travis/pairinteraction\l/Hamiltonianmatrix.cpp">
<polygon fill="none" stroke="black" points="266,-201.5 266,-231.5 394,-231.5 394,-201.5 266,-201.5"/>
<text text-anchor="start" x="274" y="-219.5" font-family="Helvetica,sans-Serif" font-size="10.00">/travis/pairinteraction</text>
<text text-anchor="middle" x="330" y="-208.5" font-family="Helvetica,sans-Serif" font-size="10.00">/Hamiltonianmatrix.cpp</text>
</a>
</g>
</g>
<!-- Node14&#45;&gt;Node21 -->
<g id="edge10" class="edge"><title>Node14&#45;&gt;Node21</title>
<path fill="none" stroke="midnightblue" d="M281.832,-261.598C292.552,-251.783 305.047,-240.344 314.624,-231.577"/>
<polygon fill="midnightblue" stroke="midnightblue" points="279.418,-259.062 274.406,-268.396 284.145,-264.225 279.418,-259.062"/>
</g>
<!-- Node16 -->
<g id="node4" class="node"><title>Node16</title>
<g id="a_node4"><a xlink:href="HamiltonianOne_8h.html" target="_top" xlink:title="/travis/pairinteraction\l/HamiltonianOne.h">
<polygon fill="none" stroke="black" points="87,-134.5 87,-164.5 205,-164.5 205,-134.5 87,-134.5"/>
<text text-anchor="start" x="95" y="-152.5" font-family="Helvetica,sans-Serif" font-size="10.00">/travis/pairinteraction</text>
<text text-anchor="middle" x="146" y="-141.5" font-family="Helvetica,sans-Serif" font-size="10.00">/HamiltonianOne.h</text>
</a>
</g>
</g>
<!-- Node15&#45;&gt;Node16 -->
<g id="edge3" class="edge"><title>Node15&#45;&gt;Node16</title>
<path fill="none" stroke="midnightblue" d="M174.027,-192.867C167.804,-183.459 160.774,-172.833 155.312,-164.577"/>
<polygon fill="midnightblue" stroke="midnightblue" points="171.233,-194.987 179.67,-201.396 177.071,-191.125 171.233,-194.987"/>
</g>
<!-- Node18 -->
<g id="node6" class="node"><title>Node18</title>
<g id="a_node6"><a xlink:href="HamiltonianTwo_8h.html" target="_top" xlink:title="/travis/pairinteraction\l/HamiltonianTwo.h">
<polygon fill="none" stroke="black" points="174,-67.5 174,-97.5 292,-97.5 292,-67.5 174,-67.5"/>
<text text-anchor="start" x="182" y="-85.5" font-family="Helvetica,sans-Serif" font-size="10.00">/travis/pairinteraction</text>
<text text-anchor="middle" x="233" y="-74.5" font-family="Helvetica,sans-Serif" font-size="10.00">/HamiltonianTwo.h</text>
</a>
</g>
</g>
<!-- Node15&#45;&gt;Node18 -->
<g id="edge9" class="edge"><title>Node15&#45;&gt;Node18</title>
<path fill="none" stroke="midnightblue" d="M201.823,-192.423C206.136,-183.98 210.689,-174.233 214,-165 222.24,-142.025 227.848,-114.105 230.729,-97.6257"/>
<polygon fill="midnightblue" stroke="midnightblue" points="198.708,-190.826 197.133,-201.303 204.898,-194.094 198.708,-190.826"/>
</g>
<!-- Node17 -->
<g id="node5" class="node"><title>Node17</title>
<g id="a_node5"><a xlink:href="HamiltonianOne_8cpp.html" target="_top" xlink:title="/travis/pairinteraction\l/HamiltonianOne.cpp">
<polygon fill="none" stroke="black" points="0,-67.5 0,-97.5 118,-97.5 118,-67.5 0,-67.5"/>
<text text-anchor="start" x="8" y="-85.5" font-family="Helvetica,sans-Serif" font-size="10.00">/travis/pairinteraction</text>
<text text-anchor="middle" x="59" y="-74.5" font-family="Helvetica,sans-Serif" font-size="10.00">/HamiltonianOne.cpp</text>
</a>
</g>
</g>
<!-- Node16&#45;&gt;Node17 -->
<g id="edge4" class="edge"><title>Node16&#45;&gt;Node17</title>
<path fill="none" stroke="midnightblue" d="M118.786,-128.168C105.482,-118.228 89.8039,-106.514 77.8409,-97.5765"/>
<polygon fill="midnightblue" stroke="midnightblue" points="117.016,-131.215 127.122,-134.396 121.206,-125.607 117.016,-131.215"/>
</g>
<!-- Node16&#45;&gt;Node18 -->
<g id="edge5" class="edge"><title>Node16&#45;&gt;Node18</title>
<path fill="none" stroke="midnightblue" d="M173.214,-128.168C186.518,-118.228 202.196,-106.514 214.159,-97.5765"/>
<polygon fill="midnightblue" stroke="midnightblue" points="170.794,-125.607 164.878,-134.396 174.984,-131.215 170.794,-125.607"/>
</g>
<!-- Node20 -->
<g id="node8" class="node"><title>Node20</title>
<g id="a_node8"><a xlink:href="Interface_8cpp.html" target="_top" xlink:title="/travis/pairinteraction\l/Interface.cpp">
<polygon fill="none" stroke="black" points="87,-0.5 87,-30.5 205,-30.5 205,-0.5 87,-0.5"/>
<text text-anchor="start" x="95" y="-18.5" font-family="Helvetica,sans-Serif" font-size="10.00">/travis/pairinteraction</text>
<text text-anchor="middle" x="146" y="-7.5" font-family="Helvetica,sans-Serif" font-size="10.00">/Interface.cpp</text>
</a>
</g>
</g>
<!-- Node16&#45;&gt;Node20 -->
<g id="edge8" class="edge"><title>Node16&#45;&gt;Node20</title>
<path fill="none" stroke="midnightblue" d="M146,-124.024C146,-96.5121 146,-52.7894 146,-30.5247"/>
<polygon fill="midnightblue" stroke="midnightblue" points="142.5,-124.374 146,-134.374 149.5,-124.374 142.5,-124.374"/>
</g>
<!-- Node19 -->
<g id="node7" class="node"><title>Node19</title>
<g id="a_node7"><a xlink:href="HamiltonianTwo_8cpp.html" target="_top" xlink:title="/travis/pairinteraction\l/HamiltonianTwo.cpp">
<polygon fill="none" stroke="black" points="223,-0.5 223,-30.5 341,-30.5 341,-0.5 223,-0.5"/>
<text text-anchor="start" x="231" y="-18.5" font-family="Helvetica,sans-Serif" font-size="10.00">/travis/pairinteraction</text>
<text text-anchor="middle" x="282" y="-7.5" font-family="Helvetica,sans-Serif" font-size="10.00">/HamiltonianTwo.cpp</text>
</a>
</g>
</g>
<!-- Node18&#45;&gt;Node19 -->
<g id="edge6" class="edge"><title>Node18&#45;&gt;Node19</title>
<path fill="none" stroke="midnightblue" d="M249.843,-59.1575C256.988,-49.6788 265.1,-38.9186 271.388,-30.5765"/>
<polygon fill="midnightblue" stroke="midnightblue" points="246.857,-57.3038 243.632,-67.396 252.447,-61.5176 246.857,-57.3038"/>
</g>
<!-- Node18&#45;&gt;Node20 -->
<g id="edge7" class="edge"><title>Node18&#45;&gt;Node20</title>
<path fill="none" stroke="midnightblue" d="M205.786,-61.1677C192.482,-51.2283 176.804,-39.5144 164.841,-30.5765"/>
<polygon fill="midnightblue" stroke="midnightblue" points="204.016,-64.2145 214.122,-67.396 208.206,-58.6068 204.016,-64.2145"/>
</g>
</g>
</svg>
