<?xml version="1.0" encoding="UTF-8" standalone="no"?>
<!DOCTYPE svg PUBLIC "-//W3C//DTD SVG 1.1//EN"
 "http://www.w3.org/Graphics/SVG/1.1/DTD/svg11.dtd">
<!-- Generated by graphviz version 2.38.0 (20140413.2041)
 -->
<!-- Title: /travis/pairinteraction/serialization_path.h Pages: 1 -->
<svg width="398pt" height="318pt"
 viewBox="0.00 0.00 398.00 318.00" xmlns="http://www.w3.org/2000/svg" xmlns:xlink="http://www.w3.org/1999/xlink">
<g id="graph0" class="graph" transform="scale(1 1) rotate(0) translate(4 314)">
<title>/travis/pairinteraction/serialization_path.h</title>
<!-- Node2 -->
<g id="node1" class="node"><title>Node2</title>
<polygon fill="#bfbfbf" stroke="black" points="136,-279.5 136,-309.5 254,-309.5 254,-279.5 136,-279.5"/>
<text text-anchor="start" x="144" y="-297.5" font-family="Helvetica,sans-Serif" font-size="10.00">/travis/pairinteraction</text>
<text text-anchor="middle" x="195" y="-286.5" font-family="Helvetica,sans-Serif" font-size="10.00">/serialization_path.h</text>
</g>
<!-- Node3 -->
<g id="node2" class="node"><title>Node3</title>
<g id="a_node2"><a xlink:href="SystemBase_8h.html" target="_top" xlink:title="/travis/pairinteraction\l/SystemBase.h">
<polygon fill="none" stroke="black" points="136,-212.5 136,-242.5 254,-242.5 254,-212.5 136,-212.5"/>
<text text-anchor="start" x="144" y="-230.5" font-family="Helvetica,sans-Serif" font-size="10.00">/travis/pairinteraction</text>
<text text-anchor="middle" x="195" y="-219.5" font-family="Helvetica,sans-Serif" font-size="10.00">/SystemBase.h</text>
</a>
</g>
</g>
<!-- Node2&#45;&gt;Node3 -->
<g id="edge1" class="edge"><title>Node2&#45;&gt;Node3</title>
<path fill="none" stroke="midnightblue" d="M195,-269.108C195,-260.154 195,-250.323 195,-242.577"/>
<polygon fill="midnightblue" stroke="midnightblue" points="191.5,-269.396 195,-279.396 198.5,-269.396 191.5,-269.396"/>
</g>
<!-- Node4 -->
<g id="node3" class="node"><title>Node4</title>
<g id="a_node3"><a xlink:href="SystemBase_8cpp.html" target="_top" xlink:title="/travis/pairinteraction\l/SystemBase.cpp">
<polygon fill="none" stroke="black" points="0,-145.5 0,-175.5 118,-175.5 118,-145.5 0,-145.5"/>
<text text-anchor="start" x="8" y="-163.5" font-family="Helvetica,sans-Serif" font-size="10.00">/travis/pairinteraction</text>
<text text-anchor="middle" x="59" y="-152.5" font-family="Helvetica,sans-Serif" font-size="10.00">/SystemBase.cpp</text>
</a>
</g>
</g>
<!-- Node3&#45;&gt;Node4 -->
<g id="edge2" class="edge"><title>Node3&#45;&gt;Node4</title>
<path fill="none" stroke="midnightblue" d="M156.276,-207.992C134.719,-197.689 108.311,-185.068 88.4524,-175.577"/>
<polygon fill="midnightblue" stroke="midnightblue" points="154.958,-211.242 165.49,-212.396 157.977,-204.926 154.958,-211.242"/>
</g>
<!-- Node5 -->
<g id="node4" class="node"><title>Node5</title>
<g id="a_node4"><a xlink:href="SystemOne_8h.html" target="_top" xlink:title="/travis/pairinteraction\l/SystemOne.h">
<polygon fill="none" stroke="black" points="136,-145.5 136,-175.5 254,-175.5 254,-145.5 136,-145.5"/>
<text text-anchor="start" x="144" y="-163.5" font-family="Helvetica,sans-Serif" font-size="10.00">/travis/pairinteraction</text>
<text text-anchor="middle" x="195" y="-152.5" font-family="Helvetica,sans-Serif" font-size="10.00">/SystemOne.h</text>
</a>
</g>
</g>
<!-- Node3&#45;&gt;Node5 -->
<g id="edge3" class="edge"><title>Node3&#45;&gt;Node5</title>
<path fill="none" stroke="midnightblue" d="M195,-202.108C195,-193.154 195,-183.323 195,-175.577"/>
<polygon fill="midnightblue" stroke="midnightblue" points="191.5,-202.396 195,-212.396 198.5,-202.396 191.5,-202.396"/>
</g>
<!-- Node7 -->
<g id="node6" class="node"><title>Node7</title>
<g id="a_node6"><a xlink:href="SystemTwo_8h.html" target="_top" xlink:title="/travis/pairinteraction\l/SystemTwo.h">
<polygon fill="none" stroke="black" points="223,-78.5 223,-108.5 341,-108.5 341,-78.5 223,-78.5"/>
<text text-anchor="start" x="231" y="-96.5" font-family="Helvetica,sans-Serif" font-size="10.00">/travis/pairinteraction</text>
<text text-anchor="middle" x="282" y="-85.5" font-family="Helvetica,sans-Serif" font-size="10.00">/SystemTwo.h</text>
</a>
</g>
</g>
<!-- Node3&#45;&gt;Node7 -->
<g id="edge9" class="edge"><title>Node3&#45;&gt;Node7</title>
<path fill="none" stroke="midnightblue" d="M230.786,-206.937C242.652,-198.813 254.888,-188.368 263,-176 276.626,-155.226 280.526,-125.841 281.614,-108.618"/>
<polygon fill="midnightblue" stroke="midnightblue" points="228.775,-204.07 222.275,-212.437 232.574,-209.949 228.775,-204.07"/>
</g>
<!-- Node6 -->
<g id="node5" class="node"><title>Node6</title>
<g id="a_node5"><a xlink:href="SystemOne_8cpp.html" target="_top" xlink:title="/travis/pairinteraction\l/SystemOne.cpp">
<polygon fill="none" stroke="black" points="49,-78.5 49,-108.5 167,-108.5 167,-78.5 49,-78.5"/>
<text text-anchor="start" x="57" y="-96.5" font-family="Helvetica,sans-Serif" font-size="10.00">/travis/pairinteraction</text>
<text text-anchor="middle" x="108" y="-85.5" font-family="Helvetica,sans-Serif" font-size="10.00">/SystemOne.cpp</text>
</a>
</g>
</g>
<!-- Node5&#45;&gt;Node6 -->
<g id="edge4" class="edge"><title>Node5&#45;&gt;Node6</title>
<path fill="none" stroke="midnightblue" d="M167.786,-139.168C154.482,-129.228 138.804,-117.514 126.841,-108.577"/>
<polygon fill="midnightblue" stroke="midnightblue" points="166.016,-142.215 176.122,-145.396 170.206,-136.607 166.016,-142.215"/>
</g>
<!-- Node5&#45;&gt;Node7 -->
<g id="edge5" class="edge"><title>Node5&#45;&gt;Node7</title>
<path fill="none" stroke="midnightblue" d="M222.214,-139.168C235.518,-129.228 251.196,-117.514 263.159,-108.577"/>
<polygon fill="midnightblue" stroke="midnightblue" points="219.794,-136.607 213.878,-145.396 223.984,-142.215 219.794,-136.607"/>
</g>
<!-- Node9 -->
<g id="node8" class="node"><title>Node9</title>
<g id="a_node8"><a xlink:href="integration__test_8cpp.html" target="_top" xlink:title="/travis/pairinteraction\l/unit_test/integration\l_test.cpp">
<polygon fill="none" stroke="black" points="136,-0.5 136,-41.5 254,-41.5 254,-0.5 136,-0.5"/>
<text text-anchor="start" x="144" y="-29.5" font-family="Helvetica,sans-Serif" font-size="10.00">/travis/pairinteraction</text>
<text text-anchor="start" x="144" y="-18.5" font-family="Helvetica,sans-Serif" font-size="10.00">/unit_test/integration</text>
<text text-anchor="middle" x="195" y="-7.5" font-family="Helvetica,sans-Serif" font-size="10.00">_test.cpp</text>
</a>
</g>
</g>
<!-- Node5&#45;&gt;Node9 -->
<g id="edge8" class="edge"><title>Node5&#45;&gt;Node9</title>
<path fill="none" stroke="midnightblue" d="M195,-135.263C195,-108.604 195,-66.2796 195,-41.6182"/>
<polygon fill="midnightblue" stroke="midnightblue" points="191.5,-135.303 195,-145.303 198.5,-135.303 191.5,-135.303"/>
</g>
<!-- Node8 -->
<g id="node7" class="node"><title>Node8</title>
<g id="a_node7"><a xlink:href="SystemTwo_8cpp.html" target="_top" xlink:title="/travis/pairinteraction\l/SystemTwo.cpp">
<polygon fill="none" stroke="black" points="272,-6 272,-36 390,-36 390,-6 272,-6"/>
<text text-anchor="start" x="280" y="-24" font-family="Helvetica,sans-Serif" font-size="10.00">/travis/pairinteraction</text>
<text text-anchor="middle" x="331" y="-13" font-family="Helvetica,sans-Serif" font-size="10.00">/SystemTwo.cpp</text>
</a>
</g>
</g>
<!-- Node7&#45;&gt;Node8 -->
<g id="edge6" class="edge"><title>Node7&#45;&gt;Node8</title>
<path fill="none" stroke="midnightblue" d="M297.718,-69.8852C305.393,-58.842 314.394,-45.892 321.099,-36.2455"/>
<polygon fill="midnightblue" stroke="midnightblue" points="294.749,-68.0243 291.916,-78.2333 300.497,-72.0194 294.749,-68.0243"/>
</g>
<!-- Node7&#45;&gt;Node9 -->
<g id="edge7" class="edge"><title>Node7&#45;&gt;Node9</title>
<path fill="none" stroke="midnightblue" d="M256.62,-71.9332C244.809,-62.3628 230.829,-51.034 219.173,-41.5884"/>
<polygon fill="midnightblue" stroke="midnightblue" points="254.421,-74.6567 264.394,-78.2333 258.828,-69.2181 254.421,-74.6567"/>
</g>
</g>
</svg>
