<?xml version="1.0" encoding="UTF-8" standalone="no"?>
<!DOCTYPE svg PUBLIC "-//W3C//DTD SVG 1.1//EN"
 "http://www.w3.org/Graphics/SVG/1.1/DTD/svg11.dtd">
<!-- Generated by graphviz version 2.38.0 (20140413.2041)
 -->
<!-- Title: /travis/pairinteraction/SQLite.h Pages: 1 -->
<svg width="1176pt" height="541pt"
 viewBox="0.00 0.00 1175.90 541.00" xmlns="http://www.w3.org/2000/svg" xmlns:xlink="http://www.w3.org/1999/xlink">
<g id="graph0" class="graph" transform="scale(1 1) rotate(0) translate(4 537)">
<title>/travis/pairinteraction/SQLite.h</title>
<!-- Node16 -->
<g id="node1" class="node"><title>Node16</title>
<polygon fill="#bfbfbf" stroke="black" points="279.399,-502.5 279.399,-532.5 397.399,-532.5 397.399,-502.5 279.399,-502.5"/>
<text text-anchor="start" x="287.399" y="-520.5" font-family="Helvetica,sans-Serif" font-size="10.00">/travis/pairinteraction</text>
<text text-anchor="middle" x="338.399" y="-509.5" font-family="Helvetica,sans-Serif" font-size="10.00">/SQLite.h</text>
</g>
<!-- Node17 -->
<g id="node2" class="node"><title>Node17</title>
<g id="a_node2"><a xlink:href="QuantumDefect_8h.html" target="_top" xlink:title="/travis/pairinteraction\l/QuantumDefect.h">
<polygon fill="none" stroke="black" points="491.399,-435.5 491.399,-465.5 609.399,-465.5 609.399,-435.5 491.399,-435.5"/>
<text text-anchor="start" x="499.399" y="-453.5" font-family="Helvetica,sans-Serif" font-size="10.00">/travis/pairinteraction</text>
<text text-anchor="middle" x="550.399" y="-442.5" font-family="Helvetica,sans-Serif" font-size="10.00">/QuantumDefect.h</text>
</a>
</g>
</g>
<!-- Node16&#45;&gt;Node17 -->
<g id="edge1" class="edge"><title>Node16&#45;&gt;Node17</title>
<path fill="none" stroke="midnightblue" d="M394.027,-499.444C428.392,-488.908 471.961,-475.549 504.376,-465.611"/>
<polygon fill="midnightblue" stroke="midnightblue" points="392.674,-496.198 384.139,-502.476 394.726,-502.891 392.674,-496.198"/>
</g>
<!-- Node20 -->
<g id="node5" class="node"><title>Node20</title>
<g id="a_node5"><a xlink:href="HamiltonianOne_8h.html" target="_top" xlink:title="/travis/pairinteraction\l/HamiltonianOne.h">
<polygon fill="none" stroke="black" points="203.399,-212.5 203.399,-242.5 321.399,-242.5 321.399,-212.5 203.399,-212.5"/>
<text text-anchor="start" x="211.399" y="-230.5" font-family="Helvetica,sans-Serif" font-size="10.00">/travis/pairinteraction</text>
<text text-anchor="middle" x="262.399" y="-219.5" font-family="Helvetica,sans-Serif" font-size="10.00">/HamiltonianOne.h</text>
</a>
</g>
</g>
<!-- Node16&#45;&gt;Node20 -->
<g id="edge36" class="edge"><title>Node16&#45;&gt;Node20</title>
<path fill="none" stroke="midnightblue" d="M310.045,-495.662C300.969,-487.467 291.865,-477.304 286.399,-466 248.966,-388.581 256.448,-280.631 260.626,-242.507"/>
<polygon fill="midnightblue" stroke="midnightblue" points="308.029,-498.542 317.921,-502.337 312.554,-493.202 308.029,-498.542"/>
</g>
<!-- Node22 -->
<g id="node7" class="node"><title>Node22</title>
<g id="a_node7"><a xlink:href="HamiltonianTwo_8h.html" target="_top" xlink:title="/travis/pairinteraction\l/HamiltonianTwo.h">
<polygon fill="none" stroke="black" points="67.399,-145.5 67.399,-175.5 185.399,-175.5 185.399,-145.5 67.399,-145.5"/>
<text text-anchor="start" x="75.399" y="-163.5" font-family="Helvetica,sans-Serif" font-size="10.00">/travis/pairinteraction</text>
<text text-anchor="middle" x="126.399" y="-152.5" font-family="Helvetica,sans-Serif" font-size="10.00">/HamiltonianTwo.h</text>
</a>
</g>
</g>
<!-- Node16&#45;&gt;Node22 -->
<g id="edge37" class="edge"><title>Node16&#45;&gt;Node22</title>
<path fill="none" stroke="midnightblue" d="M269.415,-502.918C170.825,-481.5 1.39904,-436.35 1.39904,-379 1.39904,-379 1.39904,-379 1.39904,-299 1.39904,-259.422 -4.19711,-243.007 20.399,-212 33.954,-194.912 54.6958,-183.286 74.2487,-175.542"/>
<polygon fill="midnightblue" stroke="midnightblue" points="268.801,-506.366 279.312,-505.041 270.269,-499.522 268.801,-506.366"/>
</g>
<!-- Node25 -->
<g id="node10" class="node"><title>Node25</title>
<g id="a_node10"><a xlink:href="MatrixElements_8cpp.html" target="_top" xlink:title="/travis/pairinteraction\l/MatrixElements.cpp">
<polygon fill="none" stroke="black" points="29.399,-212.5 29.399,-242.5 147.399,-242.5 147.399,-212.5 29.399,-212.5"/>
<text text-anchor="start" x="37.399" y="-230.5" font-family="Helvetica,sans-Serif" font-size="10.00">/travis/pairinteraction</text>
<text text-anchor="middle" x="88.399" y="-219.5" font-family="Helvetica,sans-Serif" font-size="10.00">/MatrixElements.cpp</text>
</a>
</g>
</g>
<!-- Node16&#45;&gt;Node25 -->
<g id="edge39" class="edge"><title>Node16&#45;&gt;Node25</title>
<path fill="none" stroke="midnightblue" d="M294.785,-498.054C234.674,-469.923 128.871,-410.01 85.399,-321 72.9889,-295.59 79.0607,-261.398 84.0675,-242.509"/>
<polygon fill="midnightblue" stroke="midnightblue" points="293.475,-501.303 304.024,-502.295 296.396,-494.942 293.475,-501.303"/>
</g>
<!-- Node27 -->
<g id="node12" class="node"><title>Node27</title>
<g id="a_node12"><a xlink:href="MatrixElementCache_8cpp.html" target="_top" xlink:title="/travis/pairinteraction\l/MatrixElementCache.cpp">
<polygon fill="none" stroke="black" points="381.899,-212.5 381.899,-242.5 520.899,-242.5 520.899,-212.5 381.899,-212.5"/>
<text text-anchor="start" x="389.899" y="-230.5" font-family="Helvetica,sans-Serif" font-size="10.00">/travis/pairinteraction</text>
<text text-anchor="middle" x="451.399" y="-219.5" font-family="Helvetica,sans-Serif" font-size="10.00">/MatrixElementCache.cpp</text>
</a>
</g>
</g>
<!-- Node16&#45;&gt;Node27 -->
<g id="edge38" class="edge"><title>Node16&#45;&gt;Node27</title>
<path fill="none" stroke="midnightblue" d="M327.543,-492.975C308.22,-447.244 273.947,-345.053 319.399,-279 333.725,-258.18 357.892,-245.939 381.661,-238.743"/>
<polygon fill="midnightblue" stroke="midnightblue" points="324.423,-494.577 331.63,-502.343 330.839,-491.777 324.423,-494.577"/>
</g>
<!-- Node37 -->
<g id="node22" class="node"><title>Node37</title>
<g id="a_node22"><a xlink:href="wavefunction__test_8cpp.html" target="_top" xlink:title="/travis/pairinteraction\l/unit_test/wavefunction\l_test.cpp">
<polygon fill="none" stroke="black" points="328.899,-279.5 328.899,-320.5 455.899,-320.5 455.899,-279.5 328.899,-279.5"/>
<text text-anchor="start" x="336.899" y="-308.5" font-family="Helvetica,sans-Serif" font-size="10.00">/travis/pairinteraction</text>
<text text-anchor="start" x="336.899" y="-297.5" font-family="Helvetica,sans-Serif" font-size="10.00">/unit_test/wavefunction</text>
<text text-anchor="middle" x="392.399" y="-286.5" font-family="Helvetica,sans-Serif" font-size="10.00">_test.cpp</text>
</a>
</g>
</g>
<!-- Node16&#45;&gt;Node37 -->
<g id="edge43" class="edge"><title>Node16&#45;&gt;Node37</title>
<path fill="none" stroke="midnightblue" d="M344.416,-492.489C355.186,-449.509 377.558,-360.227 387.479,-320.636"/>
<polygon fill="midnightblue" stroke="midnightblue" points="340.978,-491.81 341.942,-502.36 347.768,-493.511 340.978,-491.81"/>
</g>
<!-- Node39 -->
<g id="node24" class="node"><title>Node39</title>
<g id="a_node24"><a xlink:href="QuantumDefect_8cpp.html" target="_top" xlink:title="/travis/pairinteraction\l/QuantumDefect.cpp">
<polygon fill="none" stroke="black" points="888.399,-363 888.399,-393 1006.4,-393 1006.4,-363 888.399,-363"/>
<text text-anchor="start" x="896.399" y="-381" font-family="Helvetica,sans-Serif" font-size="10.00">/travis/pairinteraction</text>
<text text-anchor="middle" x="947.399" y="-370" font-family="Helvetica,sans-Serif" font-size="10.00">/QuantumDefect.cpp</text>
</a>
</g>
</g>
<!-- Node16&#45;&gt;Node39 -->
<g id="edge40" class="edge"><title>Node16&#45;&gt;Node39</title>
<path fill="none" stroke="midnightblue" d="M407.864,-512.565C466.063,-507.279 550.309,-494.911 618.399,-466 640.085,-456.792 639.646,-444.047 661.399,-435 752.07,-397.289 783.67,-420.896 879.399,-399 886.956,-397.271 894.912,-395.182 902.613,-393.015"/>
<polygon fill="midnightblue" stroke="midnightblue" points="407.335,-509.097 397.672,-513.442 407.935,-516.071 407.335,-509.097"/>
</g>
<!-- Node42 -->
<g id="node27" class="node"><title>Node42</title>
<g id="a_node27"><a xlink:href="quantum__defect__test_8cpp.html" target="_top" xlink:title="/travis/pairinteraction\l/unit_test/quantum_defect\l_test.cpp">
<polygon fill="none" stroke="black" points="1024.9,-357.5 1024.9,-398.5 1167.9,-398.5 1167.9,-357.5 1024.9,-357.5"/>
<text text-anchor="start" x="1032.9" y="-386.5" font-family="Helvetica,sans-Serif" font-size="10.00">/travis/pairinteraction</text>
<text text-anchor="start" x="1032.9" y="-375.5" font-family="Helvetica,sans-Serif" font-size="10.00">/unit_test/quantum_defect</text>
<text text-anchor="middle" x="1096.4" y="-364.5" font-family="Helvetica,sans-Serif" font-size="10.00">_test.cpp</text>
</a>
</g>
</g>
<!-- Node16&#45;&gt;Node42 -->
<g id="edge41" class="edge"><title>Node16&#45;&gt;Node42</title>
<path fill="none" stroke="midnightblue" d="M407.893,-515.234C473.827,-511.796 574.437,-500.649 654.399,-466 675.037,-457.057 673.558,-443.457 694.399,-435 827.424,-381.018 874.078,-424.26 1015.4,-399 1018.39,-398.465 1021.44,-397.883 1024.51,-397.265"/>
<polygon fill="midnightblue" stroke="midnightblue" points="407.44,-511.752 397.617,-515.722 407.772,-518.744 407.44,-511.752"/>
</g>
<!-- Node43 -->
<g id="node28" class="node"><title>Node43</title>
<g id="a_node28"><a xlink:href="sqlite__test_8cpp.html" target="_top" xlink:title="/travis/pairinteraction\l/unit_test/sqlite_test.cpp">
<polygon fill="none" stroke="black" points="703.399,-435.5 703.399,-465.5 837.399,-465.5 837.399,-435.5 703.399,-435.5"/>
<text text-anchor="start" x="711.399" y="-453.5" font-family="Helvetica,sans-Serif" font-size="10.00">/travis/pairinteraction</text>
<text text-anchor="middle" x="770.399" y="-442.5" font-family="Helvetica,sans-Serif" font-size="10.00">/unit_test/sqlite_test.cpp</text>
</a>
</g>
</g>
<!-- Node16&#45;&gt;Node43 -->
<g id="edge42" class="edge"><title>Node16&#45;&gt;Node43</title>
<path fill="none" stroke="midnightblue" d="M407.634,-507.251C478.507,-497.617 591.788,-481.754 689.399,-466 693.912,-465.272 698.563,-464.499 703.246,-463.704"/>
<polygon fill="midnightblue" stroke="midnightblue" points="406.931,-503.815 397.492,-508.627 407.872,-510.751 406.931,-503.815"/>
</g>
<!-- Node18 -->
<g id="node3" class="node"><title>Node18</title>
<g id="a_node3"><a xlink:href="Wavefunction_8h.html" target="_top" xlink:title="/travis/pairinteraction\l/Wavefunction.h">
<polygon fill="none" stroke="black" points="404.399,-363 404.399,-393 522.399,-393 522.399,-363 404.399,-363"/>
<text text-anchor="start" x="412.399" y="-381" font-family="Helvetica,sans-Serif" font-size="10.00">/travis/pairinteraction</text>
<text text-anchor="middle" x="463.399" y="-370" font-family="Helvetica,sans-Serif" font-size="10.00">/Wavefunction.h</text>
</a>
</g>
</g>
<!-- Node17&#45;&gt;Node18 -->
<g id="edge2" class="edge"><title>Node17&#45;&gt;Node18</title>
<path fill="none" stroke="midnightblue" d="M524.839,-428.788C510.621,-417.266 493.303,-403.233 480.682,-393.005"/>
<polygon fill="midnightblue" stroke="midnightblue" points="522.82,-431.657 532.793,-435.233 527.227,-426.218 522.82,-431.657"/>
</g>
<!-- Node17&#45;&gt;Node25 -->
<g id="edge29" class="edge"><title>Node17&#45;&gt;Node25</title>
<path fill="none" stroke="midnightblue" d="M481.25,-438.339C369.86,-418.957 158.036,-375.845 107.399,-321 87.4919,-299.439 86.1344,-262.806 87.1188,-242.719"/>
<polygon fill="midnightblue" stroke="midnightblue" points="480.932,-441.836 491.381,-440.085 482.12,-434.937 480.932,-441.836"/>
</g>
<!-- Node17&#45;&gt;Node27 -->
<g id="edge28" class="edge"><title>Node17&#45;&gt;Node27</title>
<path fill="none" stroke="midnightblue" d="M547.811,-425.307C545.212,-406.24 540.279,-379.251 531.399,-357 513.476,-312.091 479.989,-265.355 462.571,-242.619"/>
<polygon fill="midnightblue" stroke="midnightblue" points="544.342,-425.774 549.054,-435.263 551.288,-424.907 544.342,-425.774"/>
</g>
<!-- Node17&#45;&gt;Node37 -->
<g id="edge34" class="edge"><title>Node17&#45;&gt;Node37</title>
<path fill="none" stroke="midnightblue" d="M481.102,-444.555C449.783,-438.487 415.388,-425.667 395.399,-399 378.554,-376.526 382.177,-342.311 386.881,-320.826"/>
<polygon fill="midnightblue" stroke="midnightblue" points="480.689,-448.036 491.141,-446.297 481.886,-441.139 480.689,-448.036"/>
</g>
<!-- Node38 -->
<g id="node23" class="node"><title>Node38</title>
<g id="a_node23"><a xlink:href="Wavefunction_8cpp.html" target="_top" xlink:title="/travis/pairinteraction\l/Wavefunction.cpp">
<polygon fill="none" stroke="black" points="674.399,-285 674.399,-315 792.399,-315 792.399,-285 674.399,-285"/>
<text text-anchor="start" x="682.399" y="-303" font-family="Helvetica,sans-Serif" font-size="10.00">/travis/pairinteraction</text>
<text text-anchor="middle" x="733.399" y="-292" font-family="Helvetica,sans-Serif" font-size="10.00">/Wavefunction.cpp</text>
</a>
</g>
</g>
<!-- Node17&#45;&gt;Node38 -->
<g id="edge35" class="edge"><title>Node17&#45;&gt;Node38</title>
<path fill="none" stroke="midnightblue" d="M559.951,-426.185C569.38,-405.643 585.553,-376.098 607.399,-357 629.476,-337.7 659.276,-324.048 684.353,-315.058"/>
<polygon fill="midnightblue" stroke="midnightblue" points="556.693,-424.898 555.868,-435.46 563.1,-427.718 556.693,-424.898"/>
</g>
<!-- Node17&#45;&gt;Node39 -->
<g id="edge30" class="edge"><title>Node17&#45;&gt;Node39</title>
<path fill="none" stroke="midnightblue" d="M619.605,-435.652C620.879,-435.43 622.145,-435.213 623.399,-435 736.681,-415.8 767.095,-423.275 879.399,-399 887.097,-397.336 895.196,-395.254 903.014,-393.067"/>
<polygon fill="midnightblue" stroke="midnightblue" points="618.934,-432.217 609.71,-437.429 620.171,-439.107 618.934,-432.217"/>
</g>
<!-- Node40 -->
<g id="node25" class="node"><title>Node40</title>
<g id="a_node25"><a xlink:href="State_8cpp.html" target="_top" xlink:title="/travis/pairinteraction\l/State.cpp">
<polygon fill="none" stroke="black" points="616.399,-363 616.399,-393 734.399,-393 734.399,-363 616.399,-363"/>
<text text-anchor="start" x="624.399" y="-381" font-family="Helvetica,sans-Serif" font-size="10.00">/travis/pairinteraction</text>
<text text-anchor="middle" x="675.399" y="-370" font-family="Helvetica,sans-Serif" font-size="10.00">/State.cpp</text>
</a>
</g>
</g>
<!-- Node17&#45;&gt;Node40 -->
<g id="edge31" class="edge"><title>Node17&#45;&gt;Node40</title>
<path fill="none" stroke="midnightblue" d="M584.265,-430.399C605.146,-418.622 631.467,-403.778 650.447,-393.073"/>
<polygon fill="midnightblue" stroke="midnightblue" points="582.385,-427.442 575.394,-435.403 585.824,-433.539 582.385,-427.442"/>
</g>
<!-- Node41 -->
<g id="node26" class="node"><title>Node41</title>
<g id="a_node26"><a xlink:href="StateOld_8cpp.html" target="_top" xlink:title="/travis/pairinteraction\l/StateOld.cpp">
<polygon fill="none" stroke="black" points="752.399,-363 752.399,-393 870.399,-393 870.399,-363 752.399,-363"/>
<text text-anchor="start" x="760.399" y="-381" font-family="Helvetica,sans-Serif" font-size="10.00">/travis/pairinteraction</text>
<text text-anchor="middle" x="811.399" y="-370" font-family="Helvetica,sans-Serif" font-size="10.00">/StateOld.cpp</text>
</a>
</g>
</g>
<!-- Node17&#45;&gt;Node41 -->
<g id="edge32" class="edge"><title>Node17&#45;&gt;Node41</title>
<path fill="none" stroke="midnightblue" d="M615.623,-432.955C653.083,-423.322 700.972,-410.787 743.399,-399 750.157,-397.122 757.277,-395.089 764.263,-393.063"/>
<polygon fill="midnightblue" stroke="midnightblue" points="614.657,-429.589 605.841,-435.465 616.397,-436.369 614.657,-429.589"/>
</g>
<!-- Node17&#45;&gt;Node42 -->
<g id="edge33" class="edge"><title>Node17&#45;&gt;Node42</title>
<path fill="none" stroke="midnightblue" d="M619.396,-440.176C633.294,-438.386 647.806,-436.579 661.399,-435 818.488,-416.756 859.58,-426.022 1015.4,-399 1018.4,-398.48 1021.45,-397.911 1024.52,-397.304"/>
<polygon fill="midnightblue" stroke="midnightblue" points="618.873,-436.715 609.407,-441.474 619.774,-443.656 618.873,-436.715"/>
</g>
<!-- Node19 -->
<g id="node4" class="node"><title>Node19</title>
<g id="a_node4"><a xlink:href="MatrixElements_8h.html" target="_top" xlink:title="/travis/pairinteraction\l/MatrixElements.h">
<polygon fill="none" stroke="black" points="116.399,-285 116.399,-315 234.399,-315 234.399,-285 116.399,-285"/>
<text text-anchor="start" x="124.399" y="-303" font-family="Helvetica,sans-Serif" font-size="10.00">/travis/pairinteraction</text>
<text text-anchor="middle" x="175.399" y="-292" font-family="Helvetica,sans-Serif" font-size="10.00">/MatrixElements.h</text>
</a>
</g>
</g>
<!-- Node18&#45;&gt;Node19 -->
<g id="edge3" class="edge"><title>Node18&#45;&gt;Node19</title>
<path fill="none" stroke="midnightblue" d="M400.252,-360.336C348.898,-346.785 277.247,-327.876 228.736,-315.075"/>
<polygon fill="midnightblue" stroke="midnightblue" points="399.678,-363.804 410.24,-362.972 401.464,-357.036 399.678,-363.804"/>
</g>
<!-- Node26 -->
<g id="node11" class="node"><title>Node26</title>
<g id="a_node11"><a xlink:href="MatrixElementCache_8h.html" target="_top" xlink:title="/travis/pairinteraction\l/MatrixElementCache.h">
<polygon fill="none" stroke="black" points="528.399,-285 528.399,-315 656.399,-315 656.399,-285 528.399,-285"/>
<text text-anchor="start" x="536.399" y="-303" font-family="Helvetica,sans-Serif" font-size="10.00">/travis/pairinteraction</text>
<text text-anchor="middle" x="592.399" y="-292" font-family="Helvetica,sans-Serif" font-size="10.00">/MatrixElementCache.h</text>
</a>
</g>
</g>
<!-- Node18&#45;&gt;Node26 -->
<g id="edge12" class="edge"><title>Node18&#45;&gt;Node26</title>
<path fill="none" stroke="midnightblue" d="M496.253,-357.644C518.813,-344.353 548.239,-327.017 568.566,-315.041"/>
<polygon fill="midnightblue" stroke="midnightblue" points="494.2,-354.791 487.361,-362.883 497.753,-360.823 494.2,-354.791"/>
</g>
<!-- Node18&#45;&gt;Node37 -->
<g id="edge26" class="edge"><title>Node18&#45;&gt;Node37</title>
<path fill="none" stroke="midnightblue" d="M443.062,-355.23C432.89,-344.342 420.673,-331.265 410.784,-320.68"/>
<polygon fill="midnightblue" stroke="midnightblue" points="440.66,-357.787 450.044,-362.705 445.775,-353.008 440.66,-357.787"/>
</g>
<!-- Node18&#45;&gt;Node38 -->
<g id="edge27" class="edge"><title>Node18&#45;&gt;Node38</title>
<path fill="none" stroke="midnightblue" d="M524.824,-360.239C564.891,-349.24 618.301,-334.454 665.399,-321 672.025,-319.107 679.006,-317.086 685.87,-315.082"/>
<polygon fill="midnightblue" stroke="midnightblue" points="523.655,-356.93 514.937,-362.951 525.507,-363.681 523.655,-356.93"/>
</g>
<!-- Node19&#45;&gt;Node20 -->
<g id="edge4" class="edge"><title>Node19&#45;&gt;Node20</title>
<path fill="none" stroke="midnightblue" d="M200.959,-278.288C215.177,-266.766 232.495,-252.733 245.116,-242.505"/>
<polygon fill="midnightblue" stroke="midnightblue" points="198.571,-275.718 193.005,-284.733 202.978,-281.157 198.571,-275.718"/>
</g>
<!-- Node19&#45;&gt;Node22 -->
<g id="edge10" class="edge"><title>Node19&#45;&gt;Node22</title>
<path fill="none" stroke="midnightblue" d="M172.218,-274.611C169.389,-256.823 164.429,-232.367 156.399,-212 151.312,-199.098 143.164,-185.652 136.642,-175.881"/>
<polygon fill="midnightblue" stroke="midnightblue" points="168.789,-275.349 173.713,-284.73 175.714,-274.325 168.789,-275.349"/>
</g>
<!-- Node19&#45;&gt;Node25 -->
<g id="edge11" class="edge"><title>Node19&#45;&gt;Node25</title>
<path fill="none" stroke="midnightblue" d="M149.839,-278.288C135.621,-266.766 118.303,-252.733 105.682,-242.505"/>
<polygon fill="midnightblue" stroke="midnightblue" points="147.82,-281.157 157.793,-284.733 152.227,-275.718 147.82,-281.157"/>
</g>
<!-- Node21 -->
<g id="node6" class="node"><title>Node21</title>
<g id="a_node6"><a xlink:href="HamiltonianOne_8cpp.html" target="_top" xlink:title="/travis/pairinteraction\l/HamiltonianOne.cpp">
<polygon fill="none" stroke="black" points="203.399,-145.5 203.399,-175.5 321.399,-175.5 321.399,-145.5 203.399,-145.5"/>
<text text-anchor="start" x="211.399" y="-163.5" font-family="Helvetica,sans-Serif" font-size="10.00">/travis/pairinteraction</text>
<text text-anchor="middle" x="262.399" y="-152.5" font-family="Helvetica,sans-Serif" font-size="10.00">/HamiltonianOne.cpp</text>
</a>
</g>
</g>
<!-- Node20&#45;&gt;Node21 -->
<g id="edge5" class="edge"><title>Node20&#45;&gt;Node21</title>
<path fill="none" stroke="midnightblue" d="M262.399,-202.108C262.399,-193.154 262.399,-183.323 262.399,-175.577"/>
<polygon fill="midnightblue" stroke="midnightblue" points="258.899,-202.396 262.399,-212.396 265.899,-202.396 258.899,-202.396"/>
</g>
<!-- Node20&#45;&gt;Node22 -->
<g id="edge6" class="edge"><title>Node20&#45;&gt;Node22</title>
<path fill="none" stroke="midnightblue" d="M223.675,-207.992C202.118,-197.689 175.71,-185.068 155.851,-175.577"/>
<polygon fill="midnightblue" stroke="midnightblue" points="222.357,-211.242 232.889,-212.396 225.376,-204.926 222.357,-211.242"/>
</g>
<!-- Node24 -->
<g id="node9" class="node"><title>Node24</title>
<g id="a_node9"><a xlink:href="Interface_8cpp.html" target="_top" xlink:title="/travis/pairinteraction\l/Interface.cpp">
<polygon fill="none" stroke="black" points="247.399,-78.5 247.399,-108.5 365.399,-108.5 365.399,-78.5 247.399,-78.5"/>
<text text-anchor="start" x="255.399" y="-96.5" font-family="Helvetica,sans-Serif" font-size="10.00">/travis/pairinteraction</text>
<text text-anchor="middle" x="306.399" y="-85.5" font-family="Helvetica,sans-Serif" font-size="10.00">/Interface.cpp</text>
</a>
</g>
</g>
<!-- Node20&#45;&gt;Node24 -->
<g id="edge9" class="edge"><title>Node20&#45;&gt;Node24</title>
<path fill="none" stroke="midnightblue" d="M301.299,-206.862C312.81,-198.956 324.028,-188.667 330.399,-176 341.6,-153.73 327.553,-125.345 316.711,-108.625"/>
<polygon fill="midnightblue" stroke="midnightblue" points="299.079,-204.125 292.515,-212.442 302.833,-210.034 299.079,-204.125"/>
</g>
<!-- Node23 -->
<g id="node8" class="node"><title>Node23</title>
<g id="a_node8"><a xlink:href="HamiltonianTwo_8cpp.html" target="_top" xlink:title="/travis/pairinteraction\l/HamiltonianTwo.cpp">
<polygon fill="none" stroke="black" points="67.399,-78.5 67.399,-108.5 185.399,-108.5 185.399,-78.5 67.399,-78.5"/>
<text text-anchor="start" x="75.399" y="-96.5" font-family="Helvetica,sans-Serif" font-size="10.00">/travis/pairinteraction</text>
<text text-anchor="middle" x="126.399" y="-85.5" font-family="Helvetica,sans-Serif" font-size="10.00">/HamiltonianTwo.cpp</text>
</a>
</g>
</g>
<!-- Node22&#45;&gt;Node23 -->
<g id="edge7" class="edge"><title>Node22&#45;&gt;Node23</title>
<path fill="none" stroke="midnightblue" d="M126.399,-135.108C126.399,-126.154 126.399,-116.323 126.399,-108.577"/>
<polygon fill="midnightblue" stroke="midnightblue" points="122.899,-135.396 126.399,-145.396 129.899,-135.396 122.899,-135.396"/>
</g>
<!-- Node22&#45;&gt;Node24 -->
<g id="edge8" class="edge"><title>Node22&#45;&gt;Node24</title>
<path fill="none" stroke="midnightblue" d="M174.984,-141.955C203.98,-131.485 240.31,-118.366 267.418,-108.577"/>
<polygon fill="midnightblue" stroke="midnightblue" points="173.673,-138.708 165.456,-145.396 176.051,-145.291 173.673,-138.708"/>
</g>
<!-- Node26&#45;&gt;Node27 -->
<g id="edge13" class="edge"><title>Node26&#45;&gt;Node27</title>
<path fill="none" stroke="midnightblue" d="M555.145,-280.373C531.444,-268.523 501.242,-253.422 479.545,-242.573"/>
<polygon fill="midnightblue" stroke="midnightblue" points="553.695,-283.561 564.204,-284.903 556.825,-277.3 553.695,-283.561"/>
</g>
<!-- Node28 -->
<g id="node13" class="node"><title>Node28</title>
<g id="a_node13"><a xlink:href="PerturbativeInteraction_8h.html" target="_top" xlink:title="/travis/pairinteraction\l/PerturbativeInteraction.h">
<polygon fill="none" stroke="black" points="580.399,-212.5 580.399,-242.5 718.399,-242.5 718.399,-212.5 580.399,-212.5"/>
<text text-anchor="start" x="588.399" y="-230.5" font-family="Helvetica,sans-Serif" font-size="10.00">/travis/pairinteraction</text>
<text text-anchor="middle" x="649.399" y="-219.5" font-family="Helvetica,sans-Serif" font-size="10.00">/PerturbativeInteraction.h</text>
</a>
</g>
</g>
<!-- Node26&#45;&gt;Node28 -->
<g id="edge14" class="edge"><title>Node26&#45;&gt;Node28</title>
<path fill="none" stroke="midnightblue" d="M610.419,-276.713C619.404,-265.599 630.005,-252.488 637.881,-242.746"/>
<polygon fill="midnightblue" stroke="midnightblue" points="607.499,-274.756 603.934,-284.733 612.943,-279.157 607.499,-274.756"/>
</g>
<!-- Node30 -->
<g id="node15" class="node"><title>Node30</title>
<g id="a_node15"><a xlink:href="SystemBase_8h.html" target="_top" xlink:title="/travis/pairinteraction\l/SystemBase.h">
<polygon fill="none" stroke="black" points="812.399,-212.5 812.399,-242.5 930.399,-242.5 930.399,-212.5 812.399,-212.5"/>
<text text-anchor="start" x="820.399" y="-230.5" font-family="Helvetica,sans-Serif" font-size="10.00">/travis/pairinteraction</text>
<text text-anchor="middle" x="871.399" y="-219.5" font-family="Helvetica,sans-Serif" font-size="10.00">/SystemBase.h</text>
</a>
</g>
</g>
<!-- Node26&#45;&gt;Node30 -->
<g id="edge16" class="edge"><title>Node26&#45;&gt;Node30</title>
<path fill="none" stroke="midnightblue" d="M652.889,-282.292C657.119,-281.165 661.321,-280.058 665.399,-279 714.764,-266.189 771.01,-252.459 812.243,-242.554"/>
<polygon fill="midnightblue" stroke="midnightblue" points="651.761,-278.971 643.011,-284.944 653.576,-285.731 651.761,-278.971"/>
</g>
<!-- Node36 -->
<g id="node21" class="node"><title>Node36</title>
<g id="a_node21"><a xlink:href="integration__test_8cpp.html" target="_top" xlink:title="/travis/pairinteraction\l/unit_test/integration\l_test.cpp">
<polygon fill="none" stroke="black" points="657.399,-0.5 657.399,-41.5 775.399,-41.5 775.399,-0.5 657.399,-0.5"/>
<text text-anchor="start" x="665.399" y="-29.5" font-family="Helvetica,sans-Serif" font-size="10.00">/travis/pairinteraction</text>
<text text-anchor="start" x="665.399" y="-18.5" font-family="Helvetica,sans-Serif" font-size="10.00">/unit_test/integration</text>
<text text-anchor="middle" x="716.399" y="-7.5" font-family="Helvetica,sans-Serif" font-size="10.00">_test.cpp</text>
</a>
</g>
</g>
<!-- Node26&#45;&gt;Node36 -->
<g id="edge25" class="edge"><title>Node26&#45;&gt;Node36</title>
<path fill="none" stroke="midnightblue" d="M580.419,-275.412C566.308,-244.134 547.188,-187.892 567.399,-145 589.847,-97.3608 640.802,-61.8921 676.856,-41.5837"/>
<polygon fill="midnightblue" stroke="midnightblue" points="577.34,-277.087 584.769,-284.641 583.672,-274.103 577.34,-277.087"/>
</g>
<!-- Node29 -->
<g id="node14" class="node"><title>Node29</title>
<g id="a_node14"><a xlink:href="PerturbativeInteraction_8cpp.html" target="_top" xlink:title="/travis/pairinteraction\l/PerturbativeInteraction.cpp">
<polygon fill="none" stroke="black" points="576.899,-145.5 576.899,-175.5 725.899,-175.5 725.899,-145.5 576.899,-145.5"/>
<text text-anchor="start" x="584.899" y="-163.5" font-family="Helvetica,sans-Serif" font-size="10.00">/travis/pairinteraction</text>
<text text-anchor="middle" x="651.399" y="-152.5" font-family="Helvetica,sans-Serif" font-size="10.00">/PerturbativeInteraction.cpp</text>
</a>
</g>
</g>
<!-- Node28&#45;&gt;Node29 -->
<g id="edge15" class="edge"><title>Node28&#45;&gt;Node29</title>
<path fill="none" stroke="midnightblue" d="M650.15,-202.108C650.425,-193.154 650.728,-183.323 650.966,-175.577"/>
<polygon fill="midnightblue" stroke="midnightblue" points="646.642,-202.293 649.833,-212.396 653.639,-202.508 646.642,-202.293"/>
</g>
<!-- Node31 -->
<g id="node16" class="node"><title>Node31</title>
<g id="a_node16"><a xlink:href="SystemBase_8cpp.html" target="_top" xlink:title="/travis/pairinteraction\l/SystemBase.cpp">
<polygon fill="none" stroke="black" points="880.399,-145.5 880.399,-175.5 998.399,-175.5 998.399,-145.5 880.399,-145.5"/>
<text text-anchor="start" x="888.399" y="-163.5" font-family="Helvetica,sans-Serif" font-size="10.00">/travis/pairinteraction</text>
<text text-anchor="middle" x="939.399" y="-152.5" font-family="Helvetica,sans-Serif" font-size="10.00">/SystemBase.cpp</text>
</a>
</g>
</g>
<!-- Node30&#45;&gt;Node31 -->
<g id="edge17" class="edge"><title>Node30&#45;&gt;Node31</title>
<path fill="none" stroke="midnightblue" d="M893.565,-205.311C903.766,-195.561 915.59,-184.259 924.673,-175.577"/>
<polygon fill="midnightblue" stroke="midnightblue" points="890.964,-202.956 886.154,-212.396 895.801,-208.016 890.964,-202.956"/>
</g>
<!-- Node32 -->
<g id="node17" class="node"><title>Node32</title>
<g id="a_node17"><a xlink:href="SystemOne_8h.html" target="_top" xlink:title="/travis/pairinteraction\l/SystemOne.h">
<polygon fill="none" stroke="black" points="744.399,-145.5 744.399,-175.5 862.399,-175.5 862.399,-145.5 744.399,-145.5"/>
<text text-anchor="start" x="752.399" y="-163.5" font-family="Helvetica,sans-Serif" font-size="10.00">/travis/pairinteraction</text>
<text text-anchor="middle" x="803.399" y="-152.5" font-family="Helvetica,sans-Serif" font-size="10.00">/SystemOne.h</text>
</a>
</g>
</g>
<!-- Node30&#45;&gt;Node32 -->
<g id="edge18" class="edge"><title>Node30&#45;&gt;Node32</title>
<path fill="none" stroke="midnightblue" d="M849.233,-205.311C839.032,-195.561 827.209,-184.259 818.125,-175.577"/>
<polygon fill="midnightblue" stroke="midnightblue" points="846.997,-208.016 856.644,-212.396 851.834,-202.956 846.997,-208.016"/>
</g>
<!-- Node34 -->
<g id="node19" class="node"><title>Node34</title>
<g id="a_node19"><a xlink:href="SystemTwo_8h.html" target="_top" xlink:title="/travis/pairinteraction\l/SystemTwo.h">
<polygon fill="none" stroke="black" points="880.399,-78.5 880.399,-108.5 998.399,-108.5 998.399,-78.5 880.399,-78.5"/>
<text text-anchor="start" x="888.399" y="-96.5" font-family="Helvetica,sans-Serif" font-size="10.00">/travis/pairinteraction</text>
<text text-anchor="middle" x="939.399" y="-85.5" font-family="Helvetica,sans-Serif" font-size="10.00">/SystemTwo.h</text>
</a>
</g>
</g>
<!-- Node30&#45;&gt;Node34 -->
<g id="edge24" class="edge"><title>Node30&#45;&gt;Node34</title>
<path fill="none" stroke="midnightblue" d="M940.475,-217.542C965.818,-210.536 992.039,-198.088 1007.4,-176 1015.27,-164.688 1013.59,-157.309 1007.4,-145 999.404,-129.104 983.775,-116.953 969.515,-108.558"/>
<polygon fill="midnightblue" stroke="midnightblue" points="939.304,-214.227 930.456,-220.055 941.007,-221.017 939.304,-214.227"/>
</g>
<!-- Node33 -->
<g id="node18" class="node"><title>Node33</title>
<g id="a_node18"><a xlink:href="SystemOne_8cpp.html" target="_top" xlink:title="/travis/pairinteraction\l/SystemOne.cpp">
<polygon fill="none" stroke="black" points="744.399,-78.5 744.399,-108.5 862.399,-108.5 862.399,-78.5 744.399,-78.5"/>
<text text-anchor="start" x="752.399" y="-96.5" font-family="Helvetica,sans-Serif" font-size="10.00">/travis/pairinteraction</text>
<text text-anchor="middle" x="803.399" y="-85.5" font-family="Helvetica,sans-Serif" font-size="10.00">/SystemOne.cpp</text>
</a>
</g>
</g>
<!-- Node32&#45;&gt;Node33 -->
<g id="edge19" class="edge"><title>Node32&#45;&gt;Node33</title>
<path fill="none" stroke="midnightblue" d="M803.399,-135.108C803.399,-126.154 803.399,-116.323 803.399,-108.577"/>
<polygon fill="midnightblue" stroke="midnightblue" points="799.899,-135.396 803.399,-145.396 806.899,-135.396 799.899,-135.396"/>
</g>
<!-- Node32&#45;&gt;Node34 -->
<g id="edge20" class="edge"><title>Node32&#45;&gt;Node34</title>
<path fill="none" stroke="midnightblue" d="M842.123,-140.992C863.68,-130.689 890.088,-118.068 909.947,-108.577"/>
<polygon fill="midnightblue" stroke="midnightblue" points="840.422,-137.926 832.909,-145.396 843.441,-144.242 840.422,-137.926"/>
</g>
<!-- Node32&#45;&gt;Node36 -->
<g id="edge23" class="edge"><title>Node32&#45;&gt;Node36</title>
<path fill="none" stroke="midnightblue" d="M767.517,-140C755.641,-131.882 743.425,-121.425 735.399,-109 722.229,-88.6112 718.067,-60.5086 716.817,-41.8222"/>
<polygon fill="midnightblue" stroke="midnightblue" points="765.737,-143.017 776.039,-145.492 769.529,-137.133 765.737,-143.017"/>
</g>
<!-- Node35 -->
<g id="node20" class="node"><title>Node35</title>
<g id="a_node20"><a xlink:href="SystemTwo_8cpp.html" target="_top" xlink:title="/travis/pairinteraction\l/SystemTwo.cpp">
<polygon fill="none" stroke="black" points="880.399,-6 880.399,-36 998.399,-36 998.399,-6 880.399,-6"/>
<text text-anchor="start" x="888.399" y="-24" font-family="Helvetica,sans-Serif" font-size="10.00">/travis/pairinteraction</text>
<text text-anchor="middle" x="939.399" y="-13" font-family="Helvetica,sans-Serif" font-size="10.00">/SystemTwo.cpp</text>
</a>
</g>
</g>
<!-- Node34&#45;&gt;Node35 -->
<g id="edge21" class="edge"><title>Node34&#45;&gt;Node35</title>
<path fill="none" stroke="midnightblue" d="M939.399,-68.2317C939.399,-57.5679 939.399,-45.4145 939.399,-36.2455"/>
<polygon fill="midnightblue" stroke="midnightblue" points="935.899,-68.2332 939.399,-78.2333 942.899,-68.2333 935.899,-68.2332"/>
</g>
<!-- Node34&#45;&gt;Node36 -->
<g id="edge22" class="edge"><title>Node34&#45;&gt;Node36</title>
<path fill="none" stroke="midnightblue" d="M885.521,-75.4668C852.271,-64.9552 809.595,-51.4632 775.431,-40.6625"/>
<polygon fill="midnightblue" stroke="midnightblue" points="884.485,-78.8099 895.075,-78.4872 886.595,-72.1355 884.485,-78.8099"/>
</g>
</g>
</svg>
