<?xml version="1.0" encoding="UTF-8" standalone="no"?>
<!DOCTYPE svg PUBLIC "-//W3C//DTD SVG 1.1//EN"
 "http://www.w3.org/Graphics/SVG/1.1/DTD/svg11.dtd">
<!-- Generated by graphviz version 2.38.0 (20140413.2041)
 -->
<!-- Title: /travis/pairinteraction/SQLite.h Pages: 1 -->
<!--zoomable 162 -->
<svg id="main" version="1.1" xmlns="http://www.w3.org/2000/svg" xmlns:xlink="http://www.w3.org/1999/xlink" xml:space="preserve" onload="init(evt)">
<style type="text/css"><![CDATA[
.edge:hover path { stroke: red; }
.edge:hover polygon { stroke: red; fill: red; }
]]></style>
<script type="text/javascript"><![CDATA[
var edges = document.getElementsByTagName('g');
if (edges && edges.length) {
  for (var i=0;i<edges.length;i++) {
    if (edges[i].id.substr(0,4)=='edge') {
      edges[i].setAttribute('class','edge');
    }
  }
}
]]></script>
        <defs>
                <circle id="rim" cx="0" cy="0" r="7"/>
                <circle id="rim2" cx="0" cy="0" r="3.5"/>
                <g id="zoomPlus">
                        <use xlink:href="#rim" fill="#404040">
                                <set attributeName="fill" to="#808080" begin="zoomplus.mouseover" end="zoomplus.mouseout"/>
                        </use>
                        <path d="M-4,0h8M0,-4v8" fill="none" stroke="white" stroke-width="1.5" pointer-events="none"/>
                </g>
                <g id="zoomMin">
                        <use xlink:href="#rim" fill="#404040">
                                <set attributeName="fill" to="#808080" begin="zoomminus.mouseover" end="zoomminus.mouseout"/>
                        </use>
                        <path d="M-4,0h8" fill="none" stroke="white" stroke-width="1.5" pointer-events="none"/>
                </g>
                <g id="dirArrow">
                        <path fill="none" stroke="white" stroke-width="1.5" d="M0,-3.0v7 M-2.5,-0.5L0,-3.0L2.5,-0.5"/>
                </g>
               <g id="resetDef">
                       <use xlink:href="#rim2" fill="#404040">
                               <set attributeName="fill" to="#808080" begin="reset.mouseover" end="reset.mouseout"/>
                       </use>
               </g>
        </defs>

<script type="text/javascript">
var viewWidth = 759;
var viewHeight = 162;
var sectionId = 'dynsection-0';
</script>
<script xlink:href="svgpan.js"/>
<svg id="graph" class="graph">
<g id="viewport">
<title>/travis/pairinteraction/SQLite.h</title>
<!-- Node0 -->
<g id="node1" class="node"><title>Node0</title>
<polygon fill="#bfbfbf" stroke="black" points="261.5,-123.5 261.5,-153.5 379.5,-153.5 379.5,-123.5 261.5,-123.5"/>
<text text-anchor="start" x="269.5" y="-141.5" font-family="Helvetica,sans-Serif" font-size="10.00">/travis/pairinteraction</text>
<text text-anchor="middle" x="320.5" y="-130.5" font-family="Helvetica,sans-Serif" font-size="10.00">/SQLite.h</text>
</g>
<!-- Node1 -->
<g id="node2" class="node"><title>Node1</title>
<polygon fill="none" stroke="#bfbfbf" points="0,-62 0,-81 59,-81 59,-62 0,-62"/>
<text text-anchor="middle" x="29.5" y="-69" font-family="Helvetica,sans-Serif" font-size="10.00">iostream</text>
</g>
<!-- Node0&#45;&gt;Node1 -->
<g id="edge1" class="edge"><title>Node0&#45;&gt;Node1</title>
<path fill="none" stroke="midnightblue" d="M261.294,-128.567C209.589,-120.084 132.807,-105.834 67.5,-87 64.9176,-86.2553 62.263,-85.4114 59.6149,-84.5145"/>
<polygon fill="midnightblue" stroke="midnightblue" points="60.7873,-81.2167 50.1929,-81.1152 58.4117,-87.8013 60.7873,-81.2167"/>
</g>
<!-- Node2 -->
<g id="node3" class="node"><title>Node2</title>
<polygon fill="none" stroke="#bfbfbf" points="77,-62 77,-81 134,-81 134,-62 77,-62"/>
<text text-anchor="middle" x="105.5" y="-69" font-family="Helvetica,sans-Serif" font-size="10.00">memory</text>
</g>
<!-- Node0&#45;&gt;Node2 -->
<g id="edge2" class="edge"><title>Node0&#45;&gt;Node2</title>
<path fill="none" stroke="midnightblue" d="M270.665,-123.434C236.242,-113.579 189.46,-99.9136 148.5,-87 145.753,-86.1339 142.913,-85.2194 140.064,-84.288"/>
<polygon fill="midnightblue" stroke="midnightblue" points="141.05,-80.9278 130.457,-81.1021 138.847,-87.572 141.05,-80.9278"/>
</g>
<!-- Node3 -->
<g id="node4" class="node"><title>Node3</title>
<polygon fill="none" stroke="#bfbfbf" points="77.5,-0.5 77.5,-19.5 131.5,-19.5 131.5,-0.5 77.5,-0.5"/>
<text text-anchor="middle" x="104.5" y="-7.5" font-family="Helvetica,sans-Serif" font-size="10.00">random</text>
</g>
<!-- Node0&#45;&gt;Node3 -->
<g id="edge3" class="edge"><title>Node0&#45;&gt;Node3</title>
<path fill="none" stroke="midnightblue" d="M276.398,-123.49C251.716,-114.729 220.897,-102.22 195.5,-87 166.671,-69.7236 137.597,-43.5679 120.319,-26.8879"/>
<polygon fill="midnightblue" stroke="midnightblue" points="122.425,-24.0503 112.838,-19.5412 117.52,-29.0449 122.425,-24.0503"/>
</g>
<!-- Node4 -->
<g id="node5" class="node"><title>Node4</title>
<polygon fill="none" stroke="#bfbfbf" points="292.5,-62 292.5,-81 348.5,-81 348.5,-62 292.5,-62"/>
<text text-anchor="middle" x="320.5" y="-69" font-family="Helvetica,sans-Serif" font-size="10.00">sstream</text>
</g>
<!-- Node0&#45;&gt;Node4 -->
<g id="edge4" class="edge"><title>Node0&#45;&gt;Node4</title>
<path fill="none" stroke="midnightblue" d="M320.5,-123.396C320.5,-114.064 320.5,-101.714 320.5,-91.5173"/>
<polygon fill="midnightblue" stroke="midnightblue" points="324,-91.1945 320.5,-81.1945 317,-91.1946 324,-91.1945"/>
</g>
<!-- Node5 -->
<g id="node6" class="node"><title>Node5</title>
<polygon fill="none" stroke="#bfbfbf" points="366.5,-62 366.5,-81 410.5,-81 410.5,-62 366.5,-62"/>
<text text-anchor="middle" x="388.5" y="-69" font-family="Helvetica,sans-Serif" font-size="10.00">string</text>
</g>
<!-- Node0&#45;&gt;Node5 -->
<g id="edge5" class="edge"><title>Node0&#45;&gt;Node5</title>
<path fill="none" stroke="midnightblue" d="M335.255,-123.396C346.068,-113.06 360.752,-99.0237 371.961,-88.309"/>
<polygon fill="midnightblue" stroke="midnightblue" points="374.594,-90.6344 379.404,-81.1945 369.757,-85.5743 374.594,-90.6344"/>
</g>
<!-- Node6 -->
<g id="node7" class="node"><title>Node6</title>
<polygon fill="none" stroke="#bfbfbf" points="428.5,-62 428.5,-81 476.5,-81 476.5,-62 428.5,-62"/>
<text text-anchor="middle" x="452.5" y="-69" font-family="Helvetica,sans-Serif" font-size="10.00">thread</text>
</g>
<!-- Node0&#45;&gt;Node6 -->
<g id="edge6" class="edge"><title>Node0&#45;&gt;Node6</title>
<path fill="none" stroke="midnightblue" d="M349.142,-123.396C371.995,-112.142 403.759,-96.501 426.024,-85.5375"/>
<polygon fill="midnightblue" stroke="midnightblue" points="427.799,-88.5647 435.224,-81.007 424.707,-82.2848 427.799,-88.5647"/>
</g>
<!-- Node7 -->
<g id="node8" class="node"><title>Node7</title>
<polygon fill="none" stroke="#bfbfbf" points="149.5,-0.5 149.5,-19.5 217.5,-19.5 217.5,-0.5 149.5,-0.5"/>
<text text-anchor="middle" x="183.5" y="-7.5" font-family="Helvetica,sans-Serif" font-size="10.00">type_traits</text>
</g>
<!-- Node0&#45;&gt;Node7 -->
<g id="edge7" class="edge"><title>Node0&#45;&gt;Node7</title>
<path fill="none" stroke="midnightblue" d="M277.698,-123.5C258.021,-115.348 235.546,-103.391 219.5,-87 203.582,-70.7394 193.702,-46.1077 188.409,-29.3253"/>
<polygon fill="midnightblue" stroke="midnightblue" points="191.732,-28.2194 185.575,-19.5972 185.012,-30.177 191.732,-28.2194"/>
</g>
<!-- Node8 -->
<g id="node9" class="node"><title>Node8</title>
<polygon fill="none" stroke="#bfbfbf" points="494.5,-56.5 494.5,-86.5 614.5,-86.5 614.5,-56.5 494.5,-56.5"/>
<text text-anchor="start" x="502.5" y="-74.5" font-family="Helvetica,sans-Serif" font-size="10.00">boost/iterator/iterator</text>
<text text-anchor="middle" x="554.5" y="-63.5" font-family="Helvetica,sans-Serif" font-size="10.00">_facade.hpp</text>
</g>
<!-- Node0&#45;&gt;Node8 -->
<g id="edge8" class="edge"><title>Node0&#45;&gt;Node8</title>
<path fill="none" stroke="midnightblue" d="M370.986,-123.476C407,-113.472 455.603,-99.9714 493.743,-89.3769"/>
<polygon fill="midnightblue" stroke="midnightblue" points="495.002,-92.6597 503.701,-86.6109 493.129,-85.9151 495.002,-92.6597"/>
</g>
<!-- Node9 -->
<g id="node10" class="node"><title>Node9</title>
<polygon fill="none" stroke="#bfbfbf" points="633,-62 633,-81 690,-81 690,-62 633,-62"/>
<text text-anchor="middle" x="661.5" y="-69" font-family="Helvetica,sans-Serif" font-size="10.00">sqlite3.h</text>
</g>
<!-- Node0&#45;&gt;Node9 -->
<g id="edge9" class="edge"><title>Node0&#45;&gt;Node9</title>
<path fill="none" stroke="midnightblue" d="M379.615,-131.187C441.236,-123.786 540.247,-109.579 623.5,-87 626.156,-86.2797 628.883,-85.4428 631.6,-84.5413"/>
<polygon fill="midnightblue" stroke="midnightblue" points="633.005,-87.7559 641.238,-81.0875 630.643,-81.1662 633.005,-87.7559"/>
</g>
<!-- Node10 -->
<g id="node11" class="node"><title>Node10</title>
<polygon fill="none" stroke="#bfbfbf" points="708.5,-62 708.5,-81 750.5,-81 750.5,-62 708.5,-62"/>
<text text-anchor="middle" x="729.5" y="-69" font-family="Helvetica,sans-Serif" font-size="10.00">utility</text>
</g>
<!-- Node0&#45;&gt;Node10 -->
<g id="edge10" class="edge"><title>Node0&#45;&gt;Node10</title>
<path fill="none" stroke="midnightblue" d="M379.825,-135.402C455.48,-131.419 589.661,-119.938 699.5,-87 701.176,-86.4974 702.875,-85.911 704.568,-85.2678"/>
<polygon fill="midnightblue" stroke="midnightblue" points="706.235,-88.3591 713.998,-81.1486 703.433,-81.9445 706.235,-88.3591"/>
</g>
<!-- Node11 -->
<g id="node12" class="node"><title>Node11</title>
<g id="a_node12"><a xlink:href="utils_8h.html" target="_top" xlink:title="utils.h">
<polygon fill="none" stroke="black" points="229,-62 229,-81 274,-81 274,-62 229,-62"/>
<text text-anchor="middle" x="251.5" y="-69" font-family="Helvetica,sans-Serif" font-size="10.00">utils.h</text>
</a>
</g>
</g>
<!-- Node0&#45;&gt;Node11 -->
<g id="edge11" class="edge"><title>Node0&#45;&gt;Node11</title>
<path fill="none" stroke="midnightblue" d="M305.528,-123.396C294.556,-113.06 279.656,-99.0237 268.282,-88.309"/>
<polygon fill="midnightblue" stroke="midnightblue" points="270.408,-85.5039 260.73,-81.1945 265.609,-90.5991 270.408,-85.5039"/>
</g>
<!-- Node11&#45;&gt;Node3 -->
<g id="edge15" class="edge"><title>Node11&#45;&gt;Node3</title>
<path fill="none" stroke="midnightblue" d="M230.438,-61.9751C205.441,-51.8571 163.558,-34.9046 135.013,-23.3507"/>
<polygon fill="midnightblue" stroke="midnightblue" points="136.105,-20.0168 125.522,-19.5091 133.479,-26.5054 136.105,-20.0168"/>
</g>
<!-- Node11&#45;&gt;Node7 -->
<g id="edge16" class="edge"><title>Node11&#45;&gt;Node7</title>
<path fill="none" stroke="midnightblue" d="M241.757,-61.9751C231.153,-52.6966 213.981,-37.6706 201.021,-26.331"/>
<polygon fill="midnightblue" stroke="midnightblue" points="203.055,-23.4601 193.225,-19.5091 198.446,-28.7282 203.055,-23.4601"/>
</g>
<!-- Node12 -->
<g id="node13" class="node"><title>Node12</title>
<polygon fill="none" stroke="#bfbfbf" points="390.5,-0.5 390.5,-19.5 452.5,-19.5 452.5,-0.5 390.5,-0.5"/>
<text text-anchor="middle" x="421.5" y="-7.5" font-family="Helvetica,sans-Serif" font-size="10.00">algorithm</text>
</g>
<!-- Node11&#45;&gt;Node12 -->
<g id="edge12" class="edge"><title>Node11&#45;&gt;Node12</title>
<path fill="none" stroke="midnightblue" d="M269.628,-61.8672C274.121,-59.8442 278.951,-57.766 283.5,-56 316.348,-43.247 354.483,-31.0002 382.33,-22.5114"/>
<polygon fill="midnightblue" stroke="midnightblue" points="383.535,-25.8035 392.095,-19.56 381.51,-19.1029 383.535,-25.8035"/>
</g>
<!-- Node13 -->
<g id="node14" class="node"><title>Node13</title>
<polygon fill="none" stroke="#bfbfbf" points="471,-0.5 471,-19.5 528,-19.5 528,-0.5 471,-0.5"/>
<text text-anchor="middle" x="499.5" y="-7.5" font-family="Helvetica,sans-Serif" font-size="10.00">complex</text>
</g>
<!-- Node11&#45;&gt;Node13 -->
<g id="edge13" class="edge"><title>Node11&#45;&gt;Node13</title>
<path fill="none" stroke="midnightblue" d="M268.489,-61.9431C273.26,-59.7782 278.509,-57.6126 283.5,-56 357.304,-32.1549 380.834,-36.8724 460.845,-20.0452"/>
<polygon fill="midnightblue" stroke="midnightblue" points="461.85,-23.4091 470.889,-17.883 460.377,-16.5659 461.85,-23.4091"/>
</g>
<!-- Node14 -->
<g id="node15" class="node"><title>Node14</title>
<polygon fill="none" stroke="#bfbfbf" points="236,-0.5 236,-19.5 299,-19.5 299,-0.5 236,-0.5"/>
<text text-anchor="middle" x="267.5" y="-7.5" font-family="Helvetica,sans-Serif" font-size="10.00">functional</text>
</g>
<!-- Node11&#45;&gt;Node14 -->
<g id="edge14" class="edge"><title>Node11&#45;&gt;Node14</title>
<path fill="none" stroke="midnightblue" d="M253.792,-61.9751C256.074,-53.4919 259.647,-40.2043 262.573,-29.3222"/>
<polygon fill="midnightblue" stroke="midnightblue" points="265.995,-30.0749 265.212,-19.5091 259.235,-28.2571 265.995,-30.0749"/>
</g>
<!-- Node15 -->
<g id="node16" class="node"><title>Node15</title>
<polygon fill="none" stroke="#bfbfbf" points="317,-0.5 317,-19.5 372,-19.5 372,-0.5 317,-0.5"/>
<text text-anchor="middle" x="344.5" y="-7.5" font-family="Helvetica,sans-Serif" font-size="10.00">unistd.h</text>
</g>
<!-- Node11&#45;&gt;Node15 -->
<g id="edge17" class="edge"><title>Node11&#45;&gt;Node15</title>
<path fill="none" stroke="midnightblue" d="M264.825,-61.9751C279.88,-52.3431 304.616,-36.5175 322.537,-25.0517"/>
<polygon fill="midnightblue" stroke="midnightblue" points="324.663,-27.8466 331.2,-19.5091 320.89,-21.9501 324.663,-27.8466"/>
</g>
</g>
</svg>
        <g id="navigator" transform="translate(0 0)" fill="#404254">
                <rect fill="#f2f5e9" fill-opacity="0.5" stroke="#606060" stroke-width=".5" x="0" y="0" width="60" height="60"/>
                <use id="zoomplus" xlink:href="#zoomPlus" x="17" y="9" onmousedown="handleZoom(evt,'in')"/>
                <use id="zoomminus" xlink:href="#zoomMin" x="42" y="9" onmousedown="handleZoom(evt,'out')"/>
                <use id="reset" xlink:href="#resetDef" x="30" y="36" onmousedown="handleReset()"/>
                <g id="arrowUp" xlink:href="#dirArrow" transform="translate(30 24)" onmousedown="handlePan(0,-1)">
                  <use xlink:href="#rim" fill="#404040">
                        <set attributeName="fill" to="#808080" begin="arrowUp.mouseover" end="arrowUp.mouseout"/>
                  </use>
                  <path fill="none" stroke="white" stroke-width="1.5" d="M0,-3.0v7 M-2.5,-0.5L0,-3.0L2.5,-0.5"/>
                </g>
                <g id="arrowRight" xlink:href="#dirArrow" transform="rotate(90) translate(36 -43)" onmousedown="handlePan(1,0)">
                  <use xlink:href="#rim" fill="#404040">
                        <set attributeName="fill" to="#808080" begin="arrowRight.mouseover" end="arrowRight.mouseout"/>
                  </use>
                  <path fill="none" stroke="white" stroke-width="1.5" d="M0,-3.0v7 M-2.5,-0.5L0,-3.0L2.5,-0.5"/>
                </g>
                <g id="arrowDown" xlink:href="#dirArrow" transform="rotate(180) translate(-30 -48)" onmousedown="handlePan(0,1)">
                  <use xlink:href="#rim" fill="#404040">
                        <set attributeName="fill" to="#808080" begin="arrowDown.mouseover" end="arrowDown.mouseout"/>
                  </use>
                  <path fill="none" stroke="white" stroke-width="1.5" d="M0,-3.0v7 M-2.5,-0.5L0,-3.0L2.5,-0.5"/>
                </g>
                <g id="arrowLeft" xlink:href="#dirArrow" transform="rotate(270) translate(-36 17)" onmousedown="handlePan(-1,0)">
                  <use xlink:href="#rim" fill="#404040">
                        <set attributeName="fill" to="#808080" begin="arrowLeft.mouseover" end="arrowLeft.mouseout"/>
                  </use>
                  <path fill="none" stroke="white" stroke-width="1.5" d="M0,-3.0v7 M-2.5,-0.5L0,-3.0L2.5,-0.5"/>
                </g>
        </g>
        <svg viewBox="0 0 15 15" width="100%" height="30px" preserveAspectRatio="xMaxYMin meet">
         <g id="arrow_out" transform="scale(0.3 0.3)">
          <a xlink:href="SQLite_8h__incl_org.svg" target="_base">
           <rect id="button" ry="5" rx="5" y="6" x="6" height="38" width="38"
                fill="#f2f5e9" fill-opacity="0.5" stroke="#606060" stroke-width="1.0"/>
           <path id="arrow"
             d="M 11.500037,31.436501 C 11.940474,20.09759 22.043105,11.32322 32.158766,21.979434 L 37.068811,17.246167 C 37.068811,17.246167 37.088388,32 37.088388,32 L 22.160133,31.978069 C 22.160133,31.978069 26.997745,27.140456 26.997745,27.140456 C 18.528582,18.264221 13.291696,25.230495 11.500037,31.436501 z"
             style="fill:#404040;"/>
          </a>
         </g>
        </svg>
</svg>
