<?xml version="1.0" encoding="UTF-8" standalone="no"?>
<!DOCTYPE svg PUBLIC "-//W3C//DTD SVG 1.1//EN"
 "http://www.w3.org/Graphics/SVG/1.1/DTD/svg11.dtd">
<!-- Generated by graphviz version 2.38.0 (20140413.2041)
 -->
<!-- Title: /travis/pairinteraction/StateOld.h Pages: 1 -->
<svg width="1078pt" height="452pt"
 viewBox="0.00 0.00 1077.57 452.00" xmlns="http://www.w3.org/2000/svg" xmlns:xlink="http://www.w3.org/1999/xlink">
<g id="graph0" class="graph" transform="scale(1 1) rotate(0) translate(4 448)">
<title>/travis/pairinteraction/StateOld.h</title>
<!-- Node14 -->
<g id="node1" class="node"><title>Node14</title>
<polygon fill="#bfbfbf" stroke="black" points="763,-413.5 763,-443.5 881,-443.5 881,-413.5 763,-413.5"/>
<text text-anchor="start" x="771" y="-431.5" font-family="Helvetica,sans-Serif" font-size="10.00">/travis/pairinteraction</text>
<text text-anchor="middle" x="822" y="-420.5" font-family="Helvetica,sans-Serif" font-size="10.00">/StateOld.h</text>
</g>
<!-- Node15 -->
<g id="node2" class="node"><title>Node15</title>
<g id="a_node2"><a xlink:href="Basisnames_8h.html" target="_top" xlink:title="/travis/pairinteraction\l/Basisnames.h">
<polygon fill="none" stroke="black" points="720,-346.5 720,-376.5 838,-376.5 838,-346.5 720,-346.5"/>
<text text-anchor="start" x="728" y="-364.5" font-family="Helvetica,sans-Serif" font-size="10.00">/travis/pairinteraction</text>
<text text-anchor="middle" x="779" y="-353.5" font-family="Helvetica,sans-Serif" font-size="10.00">/Basisnames.h</text>
</a>
</g>
</g>
<!-- Node14&#45;&gt;Node15 -->
<g id="edge1" class="edge"><title>Node14&#45;&gt;Node15</title>
<path fill="none" stroke="midnightblue" d="M807.027,-404.867C800.804,-395.459 793.774,-384.833 788.312,-376.577"/>
<polygon fill="midnightblue" stroke="midnightblue" points="804.233,-406.987 812.67,-413.396 810.071,-403.125 804.233,-406.987"/>
</g>
<!-- Node17 -->
<g id="node4" class="node"><title>Node17</title>
<g id="a_node4"><a xlink:href="Hamiltonianmatrix_8h.html" target="_top" xlink:title="/travis/pairinteraction\l/Hamiltonianmatrix.h">
<polygon fill="none" stroke="black" points="342,-279.5 342,-309.5 460,-309.5 460,-279.5 342,-279.5"/>
<text text-anchor="start" x="350" y="-297.5" font-family="Helvetica,sans-Serif" font-size="10.00">/travis/pairinteraction</text>
<text text-anchor="middle" x="401" y="-286.5" font-family="Helvetica,sans-Serif" font-size="10.00">/Hamiltonianmatrix.h</text>
</a>
</g>
</g>
<!-- Node14&#45;&gt;Node17 -->
<g id="edge33" class="edge"><title>Node14&#45;&gt;Node17</title>
<path fill="none" stroke="midnightblue" d="M767.731,-410.484C683.707,-384.14 523.715,-333.976 445.832,-309.556"/>
<polygon fill="midnightblue" stroke="midnightblue" points="766.755,-413.846 777.344,-413.499 768.849,-407.167 766.755,-413.846"/>
</g>
<!-- Node25 -->
<g id="node12" class="node"><title>Node25</title>
<g id="a_node12"><a xlink:href="MatrixElements_8h.html" target="_top" xlink:title="/travis/pairinteraction\l/MatrixElements.h">
<polygon fill="none" stroke="black" points="938,-279.5 938,-309.5 1056,-309.5 1056,-279.5 938,-279.5"/>
<text text-anchor="start" x="946" y="-297.5" font-family="Helvetica,sans-Serif" font-size="10.00">/travis/pairinteraction</text>
<text text-anchor="middle" x="997" y="-286.5" font-family="Helvetica,sans-Serif" font-size="10.00">/MatrixElements.h</text>
</a>
</g>
</g>
<!-- Node14&#45;&gt;Node25 -->
<g id="edge34" class="edge"><title>Node14&#45;&gt;Node25</title>
<path fill="none" stroke="midnightblue" d="M835.241,-404.732C846.577,-386.849 864.319,-362.323 885,-346 905.175,-330.076 931.172,-317.954 953.04,-309.583"/>
<polygon fill="midnightblue" stroke="midnightblue" points="832.168,-403.046 829.914,-413.399 838.132,-406.711 832.168,-403.046"/>
</g>
<!-- Node38 -->
<g id="node25" class="node"><title>Node38</title>
<g id="a_node25"><a xlink:href="StateOld_8cpp.html" target="_top" xlink:title="/travis/pairinteraction\l/StateOld.cpp">
<polygon fill="none" stroke="black" points="894,-346.5 894,-376.5 1012,-376.5 1012,-346.5 894,-346.5"/>
<text text-anchor="start" x="902" y="-364.5" font-family="Helvetica,sans-Serif" font-size="10.00">/travis/pairinteraction</text>
<text text-anchor="middle" x="953" y="-353.5" font-family="Helvetica,sans-Serif" font-size="10.00">/StateOld.cpp</text>
</a>
</g>
</g>
<!-- Node14&#45;&gt;Node38 -->
<g id="edge35" class="edge"><title>Node14&#45;&gt;Node38</title>
<path fill="none" stroke="midnightblue" d="M859.58,-408.853C880.293,-398.576 905.588,-386.025 924.63,-376.577"/>
<polygon fill="midnightblue" stroke="midnightblue" points="857.827,-405.816 850.425,-413.396 860.939,-412.086 857.827,-405.816"/>
</g>
<!-- Node16 -->
<g id="node3" class="node"><title>Node16</title>
<g id="a_node3"><a xlink:href="Basisnames_8cpp.html" target="_top" xlink:title="/travis/pairinteraction\l/Basisnames.cpp">
<polygon fill="none" stroke="black" points="764,-279.5 764,-309.5 882,-309.5 882,-279.5 764,-279.5"/>
<text text-anchor="start" x="772" y="-297.5" font-family="Helvetica,sans-Serif" font-size="10.00">/travis/pairinteraction</text>
<text text-anchor="middle" x="823" y="-286.5" font-family="Helvetica,sans-Serif" font-size="10.00">/Basisnames.cpp</text>
</a>
</g>
</g>
<!-- Node15&#45;&gt;Node16 -->
<g id="edge2" class="edge"><title>Node15&#45;&gt;Node16</title>
<path fill="none" stroke="midnightblue" d="M794.321,-337.867C800.689,-328.459 807.882,-317.833 813.471,-309.577"/>
<polygon fill="midnightblue" stroke="midnightblue" points="791.255,-336.153 788.547,-346.396 797.051,-340.077 791.255,-336.153"/>
</g>
<!-- Node15&#45;&gt;Node17 -->
<g id="edge3" class="edge"><title>Node15&#45;&gt;Node17</title>
<path fill="none" stroke="midnightblue" d="M709.638,-349.869C647.329,-340.134 553.391,-325 472,-310 468.165,-309.293 464.217,-308.545 460.24,-307.776"/>
<polygon fill="midnightblue" stroke="midnightblue" points="709.323,-353.362 719.742,-351.444 710.401,-346.446 709.323,-353.362"/>
</g>
<!-- Node19 -->
<g id="node6" class="node"><title>Node19</title>
<g id="a_node6"><a xlink:href="HamiltonianOne_8h.html" target="_top" xlink:title="/travis/pairinteraction\l/HamiltonianOne.h">
<polygon fill="none" stroke="black" points="740,-145.5 740,-175.5 858,-175.5 858,-145.5 740,-145.5"/>
<text text-anchor="start" x="748" y="-163.5" font-family="Helvetica,sans-Serif" font-size="10.00">/travis/pairinteraction</text>
<text text-anchor="middle" x="799" y="-152.5" font-family="Helvetica,sans-Serif" font-size="10.00">/HamiltonianOne.h</text>
</a>
</g>
</g>
<!-- Node15&#45;&gt;Node19 -->
<g id="edge13" class="edge"><title>Node15&#45;&gt;Node19</title>
<path fill="none" stroke="midnightblue" d="M764.81,-337.462C756.541,-321.105 748.846,-298.65 755,-279 760.822,-260.411 772.092,-260.802 780,-243 789.967,-220.561 795.055,-192.23 797.362,-175.566"/>
<polygon fill="midnightblue" stroke="midnightblue" points="761.782,-339.22 769.645,-346.321 767.927,-335.867 761.782,-339.22"/>
</g>
<!-- Node21 -->
<g id="node8" class="node"><title>Node21</title>
<g id="a_node8"><a xlink:href="HamiltonianTwo_8h.html" target="_top" xlink:title="/travis/pairinteraction\l/HamiltonianTwo.h">
<polygon fill="none" stroke="black" points="863,-78.5 863,-108.5 981,-108.5 981,-78.5 863,-78.5"/>
<text text-anchor="start" x="871" y="-96.5" font-family="Helvetica,sans-Serif" font-size="10.00">/travis/pairinteraction</text>
<text text-anchor="middle" x="922" y="-85.5" font-family="Helvetica,sans-Serif" font-size="10.00">/HamiltonianTwo.h</text>
</a>
</g>
</g>
<!-- Node15&#45;&gt;Node21 -->
<g id="edge18" class="edge"><title>Node15&#45;&gt;Node21</title>
<path fill="none" stroke="midnightblue" d="M847.193,-342.566C863.849,-335.079 880.017,-324.597 891,-310 937.928,-247.629 929.319,-145.661 924.235,-108.56"/>
<polygon fill="midnightblue" stroke="midnightblue" points="845.808,-339.351 837.919,-346.424 848.497,-345.814 845.808,-339.351"/>
</g>
<!-- Node15&#45;&gt;Node25 -->
<g id="edge14" class="edge"><title>Node15&#45;&gt;Node25</title>
<path fill="none" stroke="midnightblue" d="M835.748,-343.58C871.155,-333.022 916.199,-319.592 949.674,-309.611"/>
<polygon fill="midnightblue" stroke="midnightblue" points="834.617,-340.264 826.034,-346.476 836.618,-346.973 834.617,-340.264"/>
</g>
<!-- Node27 -->
<g id="node14" class="node"><title>Node27</title>
<g id="a_node14"><a xlink:href="MatrixElementCache_8h.html" target="_top" xlink:title="/travis/pairinteraction\l/MatrixElementCache.h">
<polygon fill="none" stroke="black" points="481,-279.5 481,-309.5 609,-309.5 609,-279.5 481,-279.5"/>
<text text-anchor="start" x="489" y="-297.5" font-family="Helvetica,sans-Serif" font-size="10.00">/travis/pairinteraction</text>
<text text-anchor="middle" x="545" y="-286.5" font-family="Helvetica,sans-Serif" font-size="10.00">/MatrixElementCache.h</text>
</a>
</g>
</g>
<!-- Node15&#45;&gt;Node27 -->
<g id="edge19" class="edge"><title>Node15&#45;&gt;Node27</title>
<path fill="none" stroke="midnightblue" d="M718.574,-343.715C680.494,-333.137 631.885,-319.635 595.799,-309.611"/>
<polygon fill="midnightblue" stroke="midnightblue" points="717.942,-347.172 728.514,-346.476 719.815,-340.427 717.942,-347.172"/>
</g>
<!-- Node18 -->
<g id="node5" class="node"><title>Node18</title>
<g id="a_node5"><a xlink:href="Hamiltonian_8h.html" target="_top" xlink:title="/travis/pairinteraction\l/Hamiltonian.h">
<polygon fill="none" stroke="black" points="339,-212.5 339,-242.5 457,-242.5 457,-212.5 339,-212.5"/>
<text text-anchor="start" x="347" y="-230.5" font-family="Helvetica,sans-Serif" font-size="10.00">/travis/pairinteraction</text>
<text text-anchor="middle" x="398" y="-219.5" font-family="Helvetica,sans-Serif" font-size="10.00">/Hamiltonian.h</text>
</a>
</g>
</g>
<!-- Node17&#45;&gt;Node18 -->
<g id="edge4" class="edge"><title>Node17&#45;&gt;Node18</title>
<path fill="none" stroke="midnightblue" d="M399.888,-269.403C399.471,-260.37 399.011,-250.408 398.65,-242.577"/>
<polygon fill="midnightblue" stroke="midnightblue" points="396.392,-269.568 400.349,-279.396 403.384,-269.245 396.392,-269.568"/>
</g>
<!-- Node24 -->
<g id="node11" class="node"><title>Node24</title>
<g id="a_node11"><a xlink:href="Hamiltonianmatrix_8cpp.html" target="_top" xlink:title="/travis/pairinteraction\l/Hamiltonianmatrix.cpp">
<polygon fill="none" stroke="black" points="0,-212.5 0,-242.5 128,-242.5 128,-212.5 0,-212.5"/>
<text text-anchor="start" x="8" y="-230.5" font-family="Helvetica,sans-Serif" font-size="10.00">/travis/pairinteraction</text>
<text text-anchor="middle" x="64" y="-219.5" font-family="Helvetica,sans-Serif" font-size="10.00">/Hamiltonianmatrix.cpp</text>
</a>
</g>
</g>
<!-- Node17&#45;&gt;Node24 -->
<g id="edge12" class="edge"><title>Node17&#45;&gt;Node24</title>
<path fill="none" stroke="midnightblue" d="M331.815,-280.156C272.073,-268.633 186.429,-252.114 128.19,-240.881"/>
<polygon fill="midnightblue" stroke="midnightblue" points="331.432,-283.646 341.913,-282.103 332.757,-276.773 331.432,-283.646"/>
</g>
<!-- Node18&#45;&gt;Node19 -->
<g id="edge5" class="edge"><title>Node18&#45;&gt;Node19</title>
<path fill="none" stroke="midnightblue" d="M467.363,-211.844C584.396,-191.868 616.505,-195.638 730,-176 733.257,-175.437 736.594,-174.831 739.958,-174.197"/>
<polygon fill="midnightblue" stroke="midnightblue" points="466.545,-208.433 457.288,-213.586 467.738,-215.331 466.545,-208.433"/>
</g>
<!-- Node18&#45;&gt;Node21 -->
<g id="edge11" class="edge"><title>Node18&#45;&gt;Node21</title>
<path fill="none" stroke="midnightblue" d="M437.445,-208.157C457.471,-198.731 482.128,-186.951 504,-176 530.487,-162.738 534.732,-153.851 563,-145 687.366,-106.061 725.485,-130.609 854,-109 856.857,-108.52 859.776,-108.002 862.72,-107.458"/>
<polygon fill="midnightblue" stroke="midnightblue" points="435.873,-205.028 428.308,-212.446 438.848,-211.365 435.873,-205.028"/>
</g>
<!-- Node20 -->
<g id="node7" class="node"><title>Node20</title>
<g id="a_node7"><a xlink:href="HamiltonianOne_8cpp.html" target="_top" xlink:title="/travis/pairinteraction\l/HamiltonianOne.cpp">
<polygon fill="none" stroke="black" points="727,-78.5 727,-108.5 845,-108.5 845,-78.5 727,-78.5"/>
<text text-anchor="start" x="735" y="-96.5" font-family="Helvetica,sans-Serif" font-size="10.00">/travis/pairinteraction</text>
<text text-anchor="middle" x="786" y="-85.5" font-family="Helvetica,sans-Serif" font-size="10.00">/HamiltonianOne.cpp</text>
</a>
</g>
</g>
<!-- Node19&#45;&gt;Node20 -->
<g id="edge6" class="edge"><title>Node19&#45;&gt;Node20</title>
<path fill="none" stroke="midnightblue" d="M794.181,-135.403C792.374,-126.37 790.382,-116.408 788.815,-108.577"/>
<polygon fill="midnightblue" stroke="midnightblue" points="790.786,-136.277 796.179,-145.396 797.65,-134.904 790.786,-136.277"/>
</g>
<!-- Node19&#45;&gt;Node21 -->
<g id="edge7" class="edge"><title>Node19&#45;&gt;Node21</title>
<path fill="none" stroke="midnightblue" d="M834.548,-140.714C853.947,-130.463 877.564,-117.983 895.363,-108.577"/>
<polygon fill="midnightblue" stroke="midnightblue" points="832.895,-137.629 825.689,-145.396 836.166,-143.818 832.895,-137.629"/>
</g>
<!-- Node23 -->
<g id="node10" class="node"><title>Node23</title>
<g id="a_node10"><a xlink:href="Interface_8cpp.html" target="_top" xlink:title="/travis/pairinteraction\l/Interface.cpp">
<polygon fill="none" stroke="black" points="683,-6 683,-36 801,-36 801,-6 683,-6"/>
<text text-anchor="start" x="691" y="-24" font-family="Helvetica,sans-Serif" font-size="10.00">/travis/pairinteraction</text>
<text text-anchor="middle" x="742" y="-13" font-family="Helvetica,sans-Serif" font-size="10.00">/Interface.cpp</text>
</a>
</g>
</g>
<!-- Node19&#45;&gt;Node23 -->
<g id="edge10" class="edge"><title>Node19&#45;&gt;Node23</title>
<path fill="none" stroke="midnightblue" d="M751.239,-140.448C738.111,-132.741 725.448,-122.421 718,-109 704.847,-85.299 720.431,-53.9002 731.919,-36.0314"/>
<polygon fill="midnightblue" stroke="midnightblue" points="749.883,-143.693 760.344,-145.371 753.212,-137.536 749.883,-143.693"/>
</g>
<!-- Node22 -->
<g id="node9" class="node"><title>Node22</title>
<g id="a_node9"><a xlink:href="HamiltonianTwo_8cpp.html" target="_top" xlink:title="/travis/pairinteraction\l/HamiltonianTwo.cpp">
<polygon fill="none" stroke="black" points="863,-6 863,-36 981,-36 981,-6 863,-6"/>
<text text-anchor="start" x="871" y="-24" font-family="Helvetica,sans-Serif" font-size="10.00">/travis/pairinteraction</text>
<text text-anchor="middle" x="922" y="-13" font-family="Helvetica,sans-Serif" font-size="10.00">/HamiltonianTwo.cpp</text>
</a>
</g>
</g>
<!-- Node21&#45;&gt;Node22 -->
<g id="edge8" class="edge"><title>Node21&#45;&gt;Node22</title>
<path fill="none" stroke="midnightblue" d="M922,-68.2317C922,-57.5679 922,-45.4145 922,-36.2455"/>
<polygon fill="midnightblue" stroke="midnightblue" points="918.5,-68.2332 922,-78.2333 925.5,-68.2333 918.5,-68.2332"/>
</g>
<!-- Node21&#45;&gt;Node23 -->
<g id="edge9" class="edge"><title>Node21&#45;&gt;Node23</title>
<path fill="none" stroke="midnightblue" d="M876.437,-74.6546C845.897,-62.6929 806.242,-47.1615 777.931,-36.0729"/>
<polygon fill="midnightblue" stroke="midnightblue" points="875.419,-78.0147 886.007,-78.4027 877.972,-71.4968 875.419,-78.0147"/>
</g>
<!-- Node25&#45;&gt;Node19 -->
<g id="edge15" class="edge"><title>Node25&#45;&gt;Node19</title>
<path fill="none" stroke="midnightblue" d="M967.439,-273.793C927.004,-246.836 855.438,-199.125 820.037,-175.525"/>
<polygon fill="midnightblue" stroke="midnightblue" points="965.549,-276.739 975.811,-279.374 969.431,-270.914 965.549,-276.739"/>
</g>
<!-- Node25&#45;&gt;Node21 -->
<g id="edge16" class="edge"><title>Node25&#45;&gt;Node21</title>
<path fill="none" stroke="midnightblue" d="M1035.9,-273.862C1047.41,-265.956 1058.63,-255.667 1065,-243 1071.19,-230.691 1070.89,-224.457 1065,-212 1041.66,-162.613 986.258,-127.003 951.669,-108.651"/>
<polygon fill="midnightblue" stroke="midnightblue" points="1033.68,-271.125 1027.12,-279.442 1037.43,-277.034 1033.68,-271.125"/>
</g>
<!-- Node26 -->
<g id="node13" class="node"><title>Node26</title>
<g id="a_node13"><a xlink:href="MatrixElements_8cpp.html" target="_top" xlink:title="/travis/pairinteraction\l/MatrixElements.cpp">
<polygon fill="none" stroke="black" points="938,-212.5 938,-242.5 1056,-242.5 1056,-212.5 938,-212.5"/>
<text text-anchor="start" x="946" y="-230.5" font-family="Helvetica,sans-Serif" font-size="10.00">/travis/pairinteraction</text>
<text text-anchor="middle" x="997" y="-219.5" font-family="Helvetica,sans-Serif" font-size="10.00">/MatrixElements.cpp</text>
</a>
</g>
</g>
<!-- Node25&#45;&gt;Node26 -->
<g id="edge17" class="edge"><title>Node25&#45;&gt;Node26</title>
<path fill="none" stroke="midnightblue" d="M997,-269.108C997,-260.154 997,-250.323 997,-242.577"/>
<polygon fill="midnightblue" stroke="midnightblue" points="993.5,-269.396 997,-279.396 1000.5,-269.396 993.5,-269.396"/>
</g>
<!-- Node28 -->
<g id="node15" class="node"><title>Node28</title>
<g id="a_node15"><a xlink:href="MatrixElementCache_8cpp.html" target="_top" xlink:title="/travis/pairinteraction\l/MatrixElementCache.cpp">
<polygon fill="none" stroke="black" points="475.5,-212.5 475.5,-242.5 614.5,-242.5 614.5,-212.5 475.5,-212.5"/>
<text text-anchor="start" x="483.5" y="-230.5" font-family="Helvetica,sans-Serif" font-size="10.00">/travis/pairinteraction</text>
<text text-anchor="middle" x="545" y="-219.5" font-family="Helvetica,sans-Serif" font-size="10.00">/MatrixElementCache.cpp</text>
</a>
</g>
</g>
<!-- Node27&#45;&gt;Node28 -->
<g id="edge20" class="edge"><title>Node27&#45;&gt;Node28</title>
<path fill="none" stroke="midnightblue" d="M545,-269.108C545,-260.154 545,-250.323 545,-242.577"/>
<polygon fill="midnightblue" stroke="midnightblue" points="541.5,-269.396 545,-279.396 548.5,-269.396 541.5,-269.396"/>
</g>
<!-- Node29 -->
<g id="node16" class="node"><title>Node29</title>
<g id="a_node16"><a xlink:href="PerturbativeInteraction_8h.html" target="_top" xlink:title="/travis/pairinteraction\l/PerturbativeInteraction.h">
<polygon fill="none" stroke="black" points="633,-212.5 633,-242.5 771,-242.5 771,-212.5 633,-212.5"/>
<text text-anchor="start" x="641" y="-230.5" font-family="Helvetica,sans-Serif" font-size="10.00">/travis/pairinteraction</text>
<text text-anchor="middle" x="702" y="-219.5" font-family="Helvetica,sans-Serif" font-size="10.00">/PerturbativeInteraction.h</text>
</a>
</g>
</g>
<!-- Node27&#45;&gt;Node29 -->
<g id="edge21" class="edge"><title>Node27&#45;&gt;Node29</title>
<path fill="none" stroke="midnightblue" d="M588.37,-275.544C613.493,-265.143 644.664,-252.238 668,-242.577"/>
<polygon fill="midnightblue" stroke="midnightblue" points="586.967,-272.337 579.067,-279.396 589.645,-278.804 586.967,-272.337"/>
</g>
<!-- Node31 -->
<g id="node18" class="node"><title>Node31</title>
<g id="a_node18"><a xlink:href="SystemBase_8h.html" target="_top" xlink:title="/travis/pairinteraction\l/SystemBase.h">
<polygon fill="none" stroke="black" points="203,-212.5 203,-242.5 321,-242.5 321,-212.5 203,-212.5"/>
<text text-anchor="start" x="211" y="-230.5" font-family="Helvetica,sans-Serif" font-size="10.00">/travis/pairinteraction</text>
<text text-anchor="middle" x="262" y="-219.5" font-family="Helvetica,sans-Serif" font-size="10.00">/SystemBase.h</text>
</a>
</g>
</g>
<!-- Node27&#45;&gt;Node31 -->
<g id="edge23" class="edge"><title>Node27&#45;&gt;Node31</title>
<path fill="none" stroke="midnightblue" d="M474.091,-277.214C426.875,-266.369 365.561,-252.286 321.01,-242.054"/>
<polygon fill="midnightblue" stroke="midnightblue" points="473.412,-280.649 483.942,-279.476 474.979,-273.826 473.412,-280.649"/>
</g>
<!-- Node37 -->
<g id="node24" class="node"><title>Node37</title>
<g id="a_node24"><a xlink:href="integration__test_8cpp.html" target="_top" xlink:title="/travis/pairinteraction\l/unit_test/integration\l_test.cpp">
<polygon fill="none" stroke="black" points="135,-0.5 135,-41.5 253,-41.5 253,-0.5 135,-0.5"/>
<text text-anchor="start" x="143" y="-29.5" font-family="Helvetica,sans-Serif" font-size="10.00">/travis/pairinteraction</text>
<text text-anchor="start" x="143" y="-18.5" font-family="Helvetica,sans-Serif" font-size="10.00">/unit_test/integration</text>
<text text-anchor="middle" x="194" y="-7.5" font-family="Helvetica,sans-Serif" font-size="10.00">_test.cpp</text>
</a>
</g>
</g>
<!-- Node27&#45;&gt;Node37 -->
<g id="edge32" class="edge"><title>Node27&#45;&gt;Node37</title>
<path fill="none" stroke="midnightblue" d="M470.81,-279.293C470.204,-279.194 469.601,-279.097 469,-279 408.148,-269.221 234.654,-289.323 194,-243 143.763,-185.758 171.433,-84.4138 186.397,-41.776"/>
<polygon fill="midnightblue" stroke="midnightblue" points="470.334,-282.762 480.777,-280.974 471.498,-275.86 470.334,-282.762"/>
</g>
<!-- Node30 -->
<g id="node17" class="node"><title>Node30</title>
<g id="a_node17"><a xlink:href="PerturbativeInteraction_8cpp.html" target="_top" xlink:title="/travis/pairinteraction\l/PerturbativeInteraction.cpp">
<polygon fill="none" stroke="black" points="572.5,-145.5 572.5,-175.5 721.5,-175.5 721.5,-145.5 572.5,-145.5"/>
<text text-anchor="start" x="580.5" y="-163.5" font-family="Helvetica,sans-Serif" font-size="10.00">/travis/pairinteraction</text>
<text text-anchor="middle" x="647" y="-152.5" font-family="Helvetica,sans-Serif" font-size="10.00">/PerturbativeInteraction.cpp</text>
</a>
</g>
</g>
<!-- Node29&#45;&gt;Node30 -->
<g id="edge22" class="edge"><title>Node29&#45;&gt;Node30</title>
<path fill="none" stroke="midnightblue" d="M683.584,-204.736C675.447,-195.119 666.114,-184.089 658.911,-175.577"/>
<polygon fill="midnightblue" stroke="midnightblue" points="680.935,-207.023 690.066,-212.396 686.278,-202.501 680.935,-207.023"/>
</g>
<!-- Node32 -->
<g id="node19" class="node"><title>Node32</title>
<g id="a_node19"><a xlink:href="SystemBase_8cpp.html" target="_top" xlink:title="/travis/pairinteraction\l/SystemBase.cpp">
<polygon fill="none" stroke="black" points="377,-145.5 377,-175.5 495,-175.5 495,-145.5 377,-145.5"/>
<text text-anchor="start" x="385" y="-163.5" font-family="Helvetica,sans-Serif" font-size="10.00">/travis/pairinteraction</text>
<text text-anchor="middle" x="436" y="-152.5" font-family="Helvetica,sans-Serif" font-size="10.00">/SystemBase.cpp</text>
</a>
</g>
</g>
<!-- Node31&#45;&gt;Node32 -->
<g id="edge24" class="edge"><title>Node31&#45;&gt;Node32</title>
<path fill="none" stroke="midnightblue" d="M309.332,-208.819C337.3,-198.371 372.227,-185.323 398.318,-175.577"/>
<polygon fill="midnightblue" stroke="midnightblue" points="307.898,-205.618 299.755,-212.396 310.348,-212.175 307.898,-205.618"/>
</g>
<!-- Node33 -->
<g id="node20" class="node"><title>Node33</title>
<g id="a_node20"><a xlink:href="SystemOne_8h.html" target="_top" xlink:title="/travis/pairinteraction\l/SystemOne.h">
<polygon fill="none" stroke="black" points="203,-145.5 203,-175.5 321,-175.5 321,-145.5 203,-145.5"/>
<text text-anchor="start" x="211" y="-163.5" font-family="Helvetica,sans-Serif" font-size="10.00">/travis/pairinteraction</text>
<text text-anchor="middle" x="262" y="-152.5" font-family="Helvetica,sans-Serif" font-size="10.00">/SystemOne.h</text>
</a>
</g>
</g>
<!-- Node31&#45;&gt;Node33 -->
<g id="edge25" class="edge"><title>Node31&#45;&gt;Node33</title>
<path fill="none" stroke="midnightblue" d="M262,-202.108C262,-193.154 262,-183.323 262,-175.577"/>
<polygon fill="midnightblue" stroke="midnightblue" points="258.5,-202.396 262,-212.396 265.5,-202.396 258.5,-202.396"/>
</g>
<!-- Node35 -->
<g id="node22" class="node"><title>Node35</title>
<g id="a_node22"><a xlink:href="SystemTwo_8h.html" target="_top" xlink:title="/travis/pairinteraction\l/SystemTwo.h">
<polygon fill="none" stroke="black" points="358,-78.5 358,-108.5 476,-108.5 476,-78.5 358,-78.5"/>
<text text-anchor="start" x="366" y="-96.5" font-family="Helvetica,sans-Serif" font-size="10.00">/travis/pairinteraction</text>
<text text-anchor="middle" x="417" y="-85.5" font-family="Helvetica,sans-Serif" font-size="10.00">/SystemTwo.h</text>
</a>
</g>
</g>
<!-- Node31&#45;&gt;Node35 -->
<g id="edge31" class="edge"><title>Node31&#45;&gt;Node35</title>
<path fill="none" stroke="midnightblue" d="M290.301,-206.591C302.73,-197.567 317.344,-186.568 330,-176 356.847,-153.581 386.163,-125.244 402.987,-108.573"/>
<polygon fill="midnightblue" stroke="midnightblue" points="288.169,-203.813 282.096,-212.494 292.257,-209.495 288.169,-203.813"/>
</g>
<!-- Node34 -->
<g id="node21" class="node"><title>Node34</title>
<g id="a_node21"><a xlink:href="SystemOne_8cpp.html" target="_top" xlink:title="/travis/pairinteraction\l/SystemOne.cpp">
<polygon fill="none" stroke="black" points="222,-78.5 222,-108.5 340,-108.5 340,-78.5 222,-78.5"/>
<text text-anchor="start" x="230" y="-96.5" font-family="Helvetica,sans-Serif" font-size="10.00">/travis/pairinteraction</text>
<text text-anchor="middle" x="281" y="-85.5" font-family="Helvetica,sans-Serif" font-size="10.00">/SystemOne.cpp</text>
</a>
</g>
</g>
<!-- Node33&#45;&gt;Node34 -->
<g id="edge26" class="edge"><title>Node33&#45;&gt;Node34</title>
<path fill="none" stroke="midnightblue" d="M268.958,-135.697C271.621,-126.587 274.571,-116.493 276.885,-108.577"/>
<polygon fill="midnightblue" stroke="midnightblue" points="265.569,-134.816 266.123,-145.396 272.288,-136.78 265.569,-134.816"/>
</g>
<!-- Node33&#45;&gt;Node35 -->
<g id="edge27" class="edge"><title>Node33&#45;&gt;Node35</title>
<path fill="none" stroke="midnightblue" d="M305.146,-141.407C329.891,-131.029 360.496,-118.195 383.433,-108.577"/>
<polygon fill="midnightblue" stroke="midnightblue" points="303.501,-138.301 295.633,-145.396 306.208,-144.756 303.501,-138.301"/>
</g>
<!-- Node33&#45;&gt;Node37 -->
<g id="edge30" class="edge"><title>Node33&#45;&gt;Node37</title>
<path fill="none" stroke="midnightblue" d="M236.56,-138.604C227.886,-130.244 218.899,-119.989 213,-109 201.593,-87.7504 197.033,-60.0924 195.211,-41.7269"/>
<polygon fill="midnightblue" stroke="midnightblue" points="234.278,-141.26 244.016,-145.433 239.006,-136.098 234.278,-141.26"/>
</g>
<!-- Node36 -->
<g id="node23" class="node"><title>Node36</title>
<g id="a_node23"><a xlink:href="SystemTwo_8cpp.html" target="_top" xlink:title="/travis/pairinteraction\l/SystemTwo.cpp">
<polygon fill="none" stroke="black" points="358,-6 358,-36 476,-36 476,-6 358,-6"/>
<text text-anchor="start" x="366" y="-24" font-family="Helvetica,sans-Serif" font-size="10.00">/travis/pairinteraction</text>
<text text-anchor="middle" x="417" y="-13" font-family="Helvetica,sans-Serif" font-size="10.00">/SystemTwo.cpp</text>
</a>
</g>
</g>
<!-- Node35&#45;&gt;Node36 -->
<g id="edge28" class="edge"><title>Node35&#45;&gt;Node36</title>
<path fill="none" stroke="midnightblue" d="M417,-68.2317C417,-57.5679 417,-45.4145 417,-36.2455"/>
<polygon fill="midnightblue" stroke="midnightblue" points="413.5,-68.2332 417,-78.2333 420.5,-68.2333 413.5,-68.2332"/>
</g>
<!-- Node35&#45;&gt;Node37 -->
<g id="edge29" class="edge"><title>Node35&#45;&gt;Node37</title>
<path fill="none" stroke="midnightblue" d="M363.122,-75.4668C329.872,-64.9552 287.196,-51.4632 253.032,-40.6625"/>
<polygon fill="midnightblue" stroke="midnightblue" points="362.086,-78.8099 372.676,-78.4872 364.196,-72.1355 362.086,-78.8099"/>
</g>
</g>
</svg>
