<?xml version="1.0" encoding="UTF-8" standalone="no"?>
<!DOCTYPE svg PUBLIC "-//W3C//DTD SVG 1.1//EN"
 "http://www.w3.org/Graphics/SVG/1.1/DTD/svg11.dtd">
<!-- Generated by graphviz version 2.38.0 (20140413.2041)
 -->
<!-- Title: /travis/pairinteraction/State.h Pages: 1 -->
<!--zoomable 385 -->
<svg id="main" version="1.1" xmlns="http://www.w3.org/2000/svg" xmlns:xlink="http://www.w3.org/1999/xlink" xml:space="preserve" onload="init(evt)">
<style type="text/css"><![CDATA[
.edge:hover path { stroke: red; }
.edge:hover polygon { stroke: red; fill: red; }
]]></style>
<script type="text/javascript"><![CDATA[
var edges = document.getElementsByTagName('g');
if (edges && edges.length) {
  for (var i=0;i<edges.length;i++) {
    if (edges[i].id.substr(0,4)=='edge') {
      edges[i].setAttribute('class','edge');
    }
  }
}
]]></script>
        <defs>
                <circle id="rim" cx="0" cy="0" r="7"/>
                <circle id="rim2" cx="0" cy="0" r="3.5"/>
                <g id="zoomPlus">
                        <use xlink:href="#rim" fill="#404040">
                                <set attributeName="fill" to="#808080" begin="zoomplus.mouseover" end="zoomplus.mouseout"/>
                        </use>
                        <path d="M-4,0h8M0,-4v8" fill="none" stroke="white" stroke-width="1.5" pointer-events="none"/>
                </g>
                <g id="zoomMin">
                        <use xlink:href="#rim" fill="#404040">
                                <set attributeName="fill" to="#808080" begin="zoomminus.mouseover" end="zoomminus.mouseout"/>
                        </use>
                        <path d="M-4,0h8" fill="none" stroke="white" stroke-width="1.5" pointer-events="none"/>
                </g>
                <g id="dirArrow">
                        <path fill="none" stroke="white" stroke-width="1.5" d="M0,-3.0v7 M-2.5,-0.5L0,-3.0L2.5,-0.5"/>
                </g>
               <g id="resetDef">
                       <use xlink:href="#rim2" fill="#404040">
                               <set attributeName="fill" to="#808080" begin="reset.mouseover" end="reset.mouseout"/>
                       </use>
               </g>
        </defs>

<script type="text/javascript">
var viewWidth = 870;
var viewHeight = 385;
var sectionId = 'dynsection-1';
</script>
<script xlink:href="svgpan.js"/>
<svg id="graph" class="graph">
<g id="viewport">
<title>/travis/pairinteraction/State.h</title>
<!-- Node15 -->
<g id="node1" class="node"><title>Node15</title>
<polygon fill="#bfbfbf" stroke="black" points="419.5,-346.5 419.5,-376.5 537.5,-376.5 537.5,-346.5 419.5,-346.5"/>
<text text-anchor="start" x="427.5" y="-364.5" font-family="Helvetica,sans-Serif" font-size="10.00">/travis/pairinteraction</text>
<text text-anchor="middle" x="478.5" y="-353.5" font-family="Helvetica,sans-Serif" font-size="10.00">/State.h</text>
</g>
<!-- Node16 -->
<g id="node2" class="node"><title>Node16</title>
<g id="a_node2"><a xlink:href="MatrixElementCache_8h.html" target="_top" xlink:title="/travis/pairinteraction\l/MatrixElementCache.h">
<polygon fill="none" stroke="black" points="211.5,-279.5 211.5,-309.5 339.5,-309.5 339.5,-279.5 211.5,-279.5"/>
<text text-anchor="start" x="219.5" y="-297.5" font-family="Helvetica,sans-Serif" font-size="10.00">/travis/pairinteraction</text>
<text text-anchor="middle" x="275.5" y="-286.5" font-family="Helvetica,sans-Serif" font-size="10.00">/MatrixElementCache.h</text>
</a>
</g>
</g>
<!-- Node15&#45;&gt;Node16 -->
<g id="edge1" class="edge"><title>Node15&#45;&gt;Node16</title>
<path fill="none" stroke="midnightblue" d="M424.558,-343.228C391.719,-332.713 350.3,-319.451 319.462,-309.577"/>
<polygon fill="midnightblue" stroke="midnightblue" points="423.861,-346.68 434.452,-346.396 425.996,-340.013 423.861,-346.68"/>
</g>
<!-- Node18 -->
<g id="node4" class="node"><title>Node18</title>
<g id="a_node4"><a xlink:href="PerturbativeInteraction_8h.html" target="_top" xlink:title="/travis/pairinteraction\l/PerturbativeInteraction.h">
<polygon fill="none" stroke="black" points="5.5,-212.5 5.5,-242.5 143.5,-242.5 143.5,-212.5 5.5,-212.5"/>
<text text-anchor="start" x="13.5" y="-230.5" font-family="Helvetica,sans-Serif" font-size="10.00">/travis/pairinteraction</text>
<text text-anchor="middle" x="74.5" y="-219.5" font-family="Helvetica,sans-Serif" font-size="10.00">/PerturbativeInteraction.h</text>
</a>
</g>
</g>
<!-- Node15&#45;&gt;Node18 -->
<g id="edge15" class="edge"><title>Node15&#45;&gt;Node18</title>
<path fill="none" stroke="midnightblue" d="M409.354,-355.282C352.273,-349.241 269.981,-336.482 202.5,-310 159.584,-293.158 115.528,-261.257 91.9448,-242.756"/>
<polygon fill="midnightblue" stroke="midnightblue" points="409.051,-358.769 419.354,-356.299 409.759,-351.805 409.051,-358.769"/>
</g>
<!-- Node20 -->
<g id="node6" class="node"><title>Node20</title>
<g id="a_node6"><a xlink:href="SystemBase_8h.html" target="_top" xlink:title="/travis/pairinteraction\l/SystemBase.h">
<polygon fill="none" stroke="black" points="419.5,-212.5 419.5,-242.5 537.5,-242.5 537.5,-212.5 419.5,-212.5"/>
<text text-anchor="start" x="427.5" y="-230.5" font-family="Helvetica,sans-Serif" font-size="10.00">/travis/pairinteraction</text>
<text text-anchor="middle" x="478.5" y="-219.5" font-family="Helvetica,sans-Serif" font-size="10.00">/SystemBase.h</text>
</a>
</g>
</g>
<!-- Node15&#45;&gt;Node20 -->
<g id="edge17" class="edge"><title>Node15&#45;&gt;Node20</title>
<path fill="none" stroke="midnightblue" d="M478.5,-336.024C478.5,-308.512 478.5,-264.789 478.5,-242.525"/>
<polygon fill="midnightblue" stroke="midnightblue" points="475,-336.374 478.5,-346.374 482,-336.374 475,-336.374"/>
</g>
<!-- Node22 -->
<g id="node8" class="node"><title>Node22</title>
<g id="a_node8"><a xlink:href="SystemOne_8h.html" target="_top" xlink:title="/travis/pairinteraction\l/SystemOne.h">
<polygon fill="none" stroke="black" points="531.5,-145.5 531.5,-175.5 649.5,-175.5 649.5,-145.5 531.5,-145.5"/>
<text text-anchor="start" x="539.5" y="-163.5" font-family="Helvetica,sans-Serif" font-size="10.00">/travis/pairinteraction</text>
<text text-anchor="middle" x="590.5" y="-152.5" font-family="Helvetica,sans-Serif" font-size="10.00">/SystemOne.h</text>
</a>
</g>
</g>
<!-- Node15&#45;&gt;Node22 -->
<g id="edge18" class="edge"><title>Node15&#45;&gt;Node22</title>
<path fill="none" stroke="midnightblue" d="M492.034,-337.579C505.904,-313.98 527.999,-276.088 546.5,-243 559.605,-219.562 574.336,-192.021 582.995,-175.704"/>
<polygon fill="midnightblue" stroke="midnightblue" points="488.857,-336.076 486.8,-346.469 494.889,-339.627 488.857,-336.076"/>
</g>
<!-- Node24 -->
<g id="node10" class="node"><title>Node24</title>
<g id="a_node10"><a xlink:href="SystemTwo_8h.html" target="_top" xlink:title="/travis/pairinteraction\l/SystemTwo.h">
<polygon fill="none" stroke="black" points="618.5,-78.5 618.5,-108.5 736.5,-108.5 736.5,-78.5 618.5,-78.5"/>
<text text-anchor="start" x="626.5" y="-96.5" font-family="Helvetica,sans-Serif" font-size="10.00">/travis/pairinteraction</text>
<text text-anchor="middle" x="677.5" y="-85.5" font-family="Helvetica,sans-Serif" font-size="10.00">/SystemTwo.h</text>
</a>
</g>
</g>
<!-- Node15&#45;&gt;Node24 -->
<g id="edge19" class="edge"><title>Node15&#45;&gt;Node24</title>
<path fill="none" stroke="midnightblue" d="M513.428,-341.337C561.584,-312.665 646.293,-253.571 680.5,-176 690.155,-154.106 685.755,-125.601 681.649,-108.755"/>
<polygon fill="midnightblue" stroke="midnightblue" points="511.464,-338.431 504.596,-346.498 514.995,-344.475 511.464,-338.431"/>
</g>
<!-- Node26 -->
<g id="node12" class="node"><title>Node26</title>
<g id="a_node12"><a xlink:href="integration__test_8cpp.html" target="_top" xlink:title="/travis/pairinteraction\l/unit_test/integration\l_test.cpp">
<polygon fill="none" stroke="black" points="339.5,-0.5 339.5,-41.5 457.5,-41.5 457.5,-0.5 339.5,-0.5"/>
<text text-anchor="start" x="347.5" y="-29.5" font-family="Helvetica,sans-Serif" font-size="10.00">/travis/pairinteraction</text>
<text text-anchor="start" x="347.5" y="-18.5" font-family="Helvetica,sans-Serif" font-size="10.00">/unit_test/integration</text>
<text text-anchor="middle" x="398.5" y="-7.5" font-family="Helvetica,sans-Serif" font-size="10.00">_test.cpp</text>
</a>
</g>
</g>
<!-- Node15&#45;&gt;Node26 -->
<g id="edge20" class="edge"><title>Node15&#45;&gt;Node26</title>
<path fill="none" stroke="midnightblue" d="M445.986,-340.766C413.23,-318.123 367.5,-277.7 367.5,-228.5 367.5,-228.5 367.5,-228.5 367.5,-159.5 367.5,-116.676 381.986,-68.1468 391.153,-41.724"/>
<polygon fill="midnightblue" stroke="midnightblue" points="444.157,-343.754 454.415,-346.405 448.049,-337.935 444.157,-343.754"/>
</g>
<!-- Node27 -->
<g id="node13" class="node"><title>Node27</title>
<g id="a_node13"><a xlink:href="State_8cpp.html" target="_top" xlink:title="/travis/pairinteraction\l/State.cpp">
<polygon fill="none" stroke="black" points="743.5,-279.5 743.5,-309.5 861.5,-309.5 861.5,-279.5 743.5,-279.5"/>
<text text-anchor="start" x="751.5" y="-297.5" font-family="Helvetica,sans-Serif" font-size="10.00">/travis/pairinteraction</text>
<text text-anchor="middle" x="802.5" y="-286.5" font-family="Helvetica,sans-Serif" font-size="10.00">/State.cpp</text>
</a>
</g>
</g>
<!-- Node15&#45;&gt;Node27 -->
<g id="edge16" class="edge"><title>Node15&#45;&gt;Node27</title>
<path fill="none" stroke="midnightblue" d="M547.396,-346.678C605.59,-335.004 688.049,-318.461 743.309,-307.375"/>
<polygon fill="midnightblue" stroke="midnightblue" points="546.666,-343.255 537.55,-348.654 548.043,-350.118 546.666,-343.255"/>
</g>
<!-- Node17 -->
<g id="node3" class="node"><title>Node17</title>
<g id="a_node3"><a xlink:href="MatrixElementCache_8cpp.html" target="_top" xlink:title="/travis/pairinteraction\l/MatrixElementCache.cpp">
<polygon fill="none" stroke="black" points="162,-212.5 162,-242.5 301,-242.5 301,-212.5 162,-212.5"/>
<text text-anchor="start" x="170" y="-230.5" font-family="Helvetica,sans-Serif" font-size="10.00">/travis/pairinteraction</text>
<text text-anchor="middle" x="231.5" y="-219.5" font-family="Helvetica,sans-Serif" font-size="10.00">/MatrixElementCache.cpp</text>
</a>
</g>
</g>
<!-- Node16&#45;&gt;Node17 -->
<g id="edge2" class="edge"><title>Node16&#45;&gt;Node17</title>
<path fill="none" stroke="midnightblue" d="M260.179,-270.867C253.811,-261.459 246.618,-250.833 241.029,-242.577"/>
<polygon fill="midnightblue" stroke="midnightblue" points="257.449,-273.077 265.953,-279.396 263.245,-269.153 257.449,-273.077"/>
</g>
<!-- Node16&#45;&gt;Node18 -->
<g id="edge3" class="edge"><title>Node16&#45;&gt;Node18</title>
<path fill="none" stroke="midnightblue" d="M222.089,-276.228C189.574,-265.713 148.563,-252.451 118.029,-242.577"/>
<polygon fill="midnightblue" stroke="midnightblue" points="221.294,-279.649 231.886,-279.396 223.448,-272.989 221.294,-279.649"/>
</g>
<!-- Node16&#45;&gt;Node20 -->
<g id="edge5" class="edge"><title>Node16&#45;&gt;Node20</title>
<path fill="none" stroke="midnightblue" d="M329.442,-276.228C362.281,-265.713 403.7,-252.451 434.538,-242.577"/>
<polygon fill="midnightblue" stroke="midnightblue" points="328.004,-273.013 319.548,-279.396 330.139,-279.68 328.004,-273.013"/>
</g>
<!-- Node16&#45;&gt;Node26 -->
<g id="edge14" class="edge"><title>Node16&#45;&gt;Node26</title>
<path fill="none" stroke="midnightblue" d="M292.953,-271.052C298.867,-262.617 305.086,-252.712 309.5,-243 340.903,-173.905 319.212,-145.709 353.5,-78 360.205,-64.759 370.4,-51.7276 379.392,-41.5719"/>
<polygon fill="midnightblue" stroke="midnightblue" points="290.047,-269.096 286.988,-279.24 295.705,-273.218 290.047,-269.096"/>
</g>
<!-- Node19 -->
<g id="node5" class="node"><title>Node19</title>
<g id="a_node5"><a xlink:href="PerturbativeInteraction_8cpp.html" target="_top" xlink:title="/travis/pairinteraction\l/PerturbativeInteraction.cpp">
<polygon fill="none" stroke="black" points="0,-145.5 0,-175.5 149,-175.5 149,-145.5 0,-145.5"/>
<text text-anchor="start" x="8" y="-163.5" font-family="Helvetica,sans-Serif" font-size="10.00">/travis/pairinteraction</text>
<text text-anchor="middle" x="74.5" y="-152.5" font-family="Helvetica,sans-Serif" font-size="10.00">/PerturbativeInteraction.cpp</text>
</a>
</g>
</g>
<!-- Node18&#45;&gt;Node19 -->
<g id="edge4" class="edge"><title>Node18&#45;&gt;Node19</title>
<path fill="none" stroke="midnightblue" d="M74.5,-202.108C74.5,-193.154 74.5,-183.323 74.5,-175.577"/>
<polygon fill="midnightblue" stroke="midnightblue" points="71.0001,-202.396 74.5,-212.396 78.0001,-202.396 71.0001,-202.396"/>
</g>
<!-- Node21 -->
<g id="node7" class="node"><title>Node21</title>
<g id="a_node7"><a xlink:href="SystemBase_8cpp.html" target="_top" xlink:title="/travis/pairinteraction\l/SystemBase.cpp">
<polygon fill="none" stroke="black" points="395.5,-145.5 395.5,-175.5 513.5,-175.5 513.5,-145.5 395.5,-145.5"/>
<text text-anchor="start" x="403.5" y="-163.5" font-family="Helvetica,sans-Serif" font-size="10.00">/travis/pairinteraction</text>
<text text-anchor="middle" x="454.5" y="-152.5" font-family="Helvetica,sans-Serif" font-size="10.00">/SystemBase.cpp</text>
</a>
</g>
</g>
<!-- Node20&#45;&gt;Node21 -->
<g id="edge6" class="edge"><title>Node20&#45;&gt;Node21</title>
<path fill="none" stroke="midnightblue" d="M469.82,-202.991C466.428,-193.804 462.652,-183.578 459.697,-175.577"/>
<polygon fill="midnightblue" stroke="midnightblue" points="466.545,-204.227 473.292,-212.396 473.112,-201.803 466.545,-204.227"/>
</g>
<!-- Node20&#45;&gt;Node22 -->
<g id="edge7" class="edge"><title>Node20&#45;&gt;Node22</title>
<path fill="none" stroke="midnightblue" d="M511.591,-207.296C529.116,-197.125 550.258,-184.855 566.245,-175.577"/>
<polygon fill="midnightblue" stroke="midnightblue" points="509.694,-204.349 502.802,-212.396 513.208,-210.404 509.694,-204.349"/>
</g>
<!-- Node20&#45;&gt;Node24 -->
<g id="edge13" class="edge"><title>Node20&#45;&gt;Node24</title>
<path fill="none" stroke="midnightblue" d="M548.209,-223.596C585.768,-218.369 630.099,-205.694 658.5,-176 675.974,-157.731 678.472,-126.646 678.279,-108.606"/>
<polygon fill="midnightblue" stroke="midnightblue" points="547.309,-220.18 537.814,-224.881 548.167,-227.128 547.309,-220.18"/>
</g>
<!-- Node23 -->
<g id="node9" class="node"><title>Node23</title>
<g id="a_node9"><a xlink:href="SystemOne_8cpp.html" target="_top" xlink:title="/travis/pairinteraction\l/SystemOne.cpp">
<polygon fill="none" stroke="black" points="482.5,-78.5 482.5,-108.5 600.5,-108.5 600.5,-78.5 482.5,-78.5"/>
<text text-anchor="start" x="490.5" y="-96.5" font-family="Helvetica,sans-Serif" font-size="10.00">/travis/pairinteraction</text>
<text text-anchor="middle" x="541.5" y="-85.5" font-family="Helvetica,sans-Serif" font-size="10.00">/SystemOne.cpp</text>
</a>
</g>
</g>
<!-- Node22&#45;&gt;Node23 -->
<g id="edge8" class="edge"><title>Node22&#45;&gt;Node23</title>
<path fill="none" stroke="midnightblue" d="M573.657,-137.157C566.512,-127.679 558.4,-116.919 552.112,-108.577"/>
<polygon fill="midnightblue" stroke="midnightblue" points="571.053,-139.518 579.868,-145.396 576.643,-135.304 571.053,-139.518"/>
</g>
<!-- Node22&#45;&gt;Node24 -->
<g id="edge9" class="edge"><title>Node22&#45;&gt;Node24</title>
<path fill="none" stroke="midnightblue" d="M617.714,-139.168C631.018,-129.228 646.696,-117.514 658.659,-108.577"/>
<polygon fill="midnightblue" stroke="midnightblue" points="615.294,-136.607 609.378,-145.396 619.484,-142.215 615.294,-136.607"/>
</g>
<!-- Node22&#45;&gt;Node26 -->
<g id="edge12" class="edge"><title>Node22&#45;&gt;Node26</title>
<path fill="none" stroke="midnightblue" d="M535.624,-141.742C515.033,-133.602 492.127,-122.679 473.5,-109 447.782,-90.1146 424.915,-60.8515 411.381,-41.56"/>
<polygon fill="midnightblue" stroke="midnightblue" points="534.616,-145.104 545.207,-145.4 537.113,-138.564 534.616,-145.104"/>
</g>
<!-- Node25 -->
<g id="node11" class="node"><title>Node25</title>
<g id="a_node11"><a xlink:href="SystemTwo_8cpp.html" target="_top" xlink:title="/travis/pairinteraction\l/SystemTwo.cpp">
<polygon fill="none" stroke="black" points="618.5,-6 618.5,-36 736.5,-36 736.5,-6 618.5,-6"/>
<text text-anchor="start" x="626.5" y="-24" font-family="Helvetica,sans-Serif" font-size="10.00">/travis/pairinteraction</text>
<text text-anchor="middle" x="677.5" y="-13" font-family="Helvetica,sans-Serif" font-size="10.00">/SystemTwo.cpp</text>
</a>
</g>
</g>
<!-- Node24&#45;&gt;Node25 -->
<g id="edge10" class="edge"><title>Node24&#45;&gt;Node25</title>
<path fill="none" stroke="midnightblue" d="M677.5,-68.2317C677.5,-57.5679 677.5,-45.4145 677.5,-36.2455"/>
<polygon fill="midnightblue" stroke="midnightblue" points="674,-68.2332 677.5,-78.2333 681,-68.2333 674,-68.2332"/>
</g>
<!-- Node24&#45;&gt;Node26 -->
<g id="edge11" class="edge"><title>Node24&#45;&gt;Node26</title>
<path fill="none" stroke="midnightblue" d="M612.316,-76.0289C565.551,-64.2118 503.048,-48.418 457.705,-36.9605"/>
<polygon fill="midnightblue" stroke="midnightblue" points="611.492,-79.4306 622.045,-78.4872 613.207,-72.6439 611.492,-79.4306"/>
</g>
</g>
</svg>
        <g id="navigator" transform="translate(0 0)" fill="#404254">
                <rect fill="#f2f5e9" fill-opacity="0.5" stroke="#606060" stroke-width=".5" x="0" y="0" width="60" height="60"/>
                <use id="zoomplus" xlink:href="#zoomPlus" x="17" y="9" onmousedown="handleZoom(evt,'in')"/>
                <use id="zoomminus" xlink:href="#zoomMin" x="42" y="9" onmousedown="handleZoom(evt,'out')"/>
                <use id="reset" xlink:href="#resetDef" x="30" y="36" onmousedown="handleReset()"/>
                <g id="arrowUp" xlink:href="#dirArrow" transform="translate(30 24)" onmousedown="handlePan(0,-1)">
                  <use xlink:href="#rim" fill="#404040">
                        <set attributeName="fill" to="#808080" begin="arrowUp.mouseover" end="arrowUp.mouseout"/>
                  </use>
                  <path fill="none" stroke="white" stroke-width="1.5" d="M0,-3.0v7 M-2.5,-0.5L0,-3.0L2.5,-0.5"/>
                </g>
                <g id="arrowRight" xlink:href="#dirArrow" transform="rotate(90) translate(36 -43)" onmousedown="handlePan(1,0)">
                  <use xlink:href="#rim" fill="#404040">
                        <set attributeName="fill" to="#808080" begin="arrowRight.mouseover" end="arrowRight.mouseout"/>
                  </use>
                  <path fill="none" stroke="white" stroke-width="1.5" d="M0,-3.0v7 M-2.5,-0.5L0,-3.0L2.5,-0.5"/>
                </g>
                <g id="arrowDown" xlink:href="#dirArrow" transform="rotate(180) translate(-30 -48)" onmousedown="handlePan(0,1)">
                  <use xlink:href="#rim" fill="#404040">
                        <set attributeName="fill" to="#808080" begin="arrowDown.mouseover" end="arrowDown.mouseout"/>
                  </use>
                  <path fill="none" stroke="white" stroke-width="1.5" d="M0,-3.0v7 M-2.5,-0.5L0,-3.0L2.5,-0.5"/>
                </g>
                <g id="arrowLeft" xlink:href="#dirArrow" transform="rotate(270) translate(-36 17)" onmousedown="handlePan(-1,0)">
                  <use xlink:href="#rim" fill="#404040">
                        <set attributeName="fill" to="#808080" begin="arrowLeft.mouseover" end="arrowLeft.mouseout"/>
                  </use>
                  <path fill="none" stroke="white" stroke-width="1.5" d="M0,-3.0v7 M-2.5,-0.5L0,-3.0L2.5,-0.5"/>
                </g>
        </g>
        <svg viewBox="0 0 15 15" width="100%" height="30px" preserveAspectRatio="xMaxYMin meet">
         <g id="arrow_out" transform="scale(0.3 0.3)">
          <a xlink:href="State_8h__dep__incl_org.svg" target="_base">
           <rect id="button" ry="5" rx="5" y="6" x="6" height="38" width="38"
                fill="#f2f5e9" fill-opacity="0.5" stroke="#606060" stroke-width="1.0"/>
           <path id="arrow"
             d="M 11.500037,31.436501 C 11.940474,20.09759 22.043105,11.32322 32.158766,21.979434 L 37.068811,17.246167 C 37.068811,17.246167 37.088388,32 37.088388,32 L 22.160133,31.978069 C 22.160133,31.978069 26.997745,27.140456 26.997745,27.140456 C 18.528582,18.264221 13.291696,25.230495 11.500037,31.436501 z"
             style="fill:#404040;"/>
          </a>
         </g>
        </svg>
</svg>
