<?xml version="1.0" encoding="UTF-8" standalone="no"?>
<!DOCTYPE svg PUBLIC "-//W3C//DTD SVG 1.1//EN"
 "http://www.w3.org/Graphics/SVG/1.1/DTD/svg11.dtd">
<!-- Generated by graphviz version 2.38.0 (20140413.2041)
 -->
<!-- Title: operator&lt;&lt; Pages: 1 -->
<svg width="240pt" height="256pt"
 viewBox="0.00 0.00 240.00 256.00" xmlns="http://www.w3.org/2000/svg" xmlns:xlink="http://www.w3.org/1999/xlink">
<g id="graph0" class="graph" transform="scale(1 1) rotate(0) translate(4 252)">
<title>operator&lt;&lt;</title>
<!-- Node0 -->
<g id="node1" class="node"><title>Node0</title>
<polygon fill="#bfbfbf" stroke="black" points="0,-114.5 0,-133.5 74,-133.5 74,-114.5 0,-114.5"/>
<text text-anchor="middle" x="37" y="-121.5" font-family="Helvetica,sans-Serif" font-size="10.00">operator&lt;&lt;</text>
</g>
<!-- Node1 -->
<g id="node2" class="node"><title>Node1</title>
<g id="a_node2"><a xlink:href="classStateOne.html#aedba5bfce70f73fa324b9d5ae1115578" target="_top" xlink:title="StateOne::getJ">
<polygon fill="none" stroke="black" points="128,-228.5 128,-247.5 214,-247.5 214,-228.5 128,-228.5"/>
<text text-anchor="middle" x="171" y="-235.5" font-family="Helvetica,sans-Serif" font-size="10.00">StateOne::getJ</text>
</a>
</g>
</g>
<!-- Node0&#45;&gt;Node1 -->
<g id="edge1" class="edge"><title>Node0&#45;&gt;Node1</title>
<path fill="none" stroke="midnightblue" d="M42.6994,-133.648C52.5108,-152.792 77.027,-195.735 110,-219 112.723,-220.921 115.649,-222.655 118.69,-224.217"/>
<polygon fill="midnightblue" stroke="midnightblue" points="117.518,-227.527 128.076,-228.411 120.374,-221.136 117.518,-227.527"/>
</g>
<!-- Node2 -->
<g id="node3" class="node"><title>Node2</title>
<g id="a_node3"><a xlink:href="classStateOne.html#a3783cebe5bbd63f072caf8450fea4aca" target="_top" xlink:title="StateOne::getL">
<polygon fill="none" stroke="black" points="126.5,-190.5 126.5,-209.5 215.5,-209.5 215.5,-190.5 126.5,-190.5"/>
<text text-anchor="middle" x="171" y="-197.5" font-family="Helvetica,sans-Serif" font-size="10.00">StateOne::getL</text>
</a>
</g>
</g>
<!-- Node0&#45;&gt;Node2 -->
<g id="edge2" class="edge"><title>Node0&#45;&gt;Node2</title>
<path fill="none" stroke="midnightblue" d="M47.8879,-133.794C61.0421,-146.333 85.4994,-167.99 110,-181 114.183,-183.221 118.669,-185.235 123.236,-187.048"/>
<polygon fill="midnightblue" stroke="midnightblue" points="122.06,-190.344 132.654,-190.489 124.462,-183.769 122.06,-190.344"/>
</g>
<!-- Node3 -->
<g id="node4" class="node"><title>Node3</title>
<g id="a_node4"><a xlink:href="classStateOne.html#a03013e84d149334796ea8525b1bb39dc" target="_top" xlink:title="StateOne::getLabel">
<polygon fill="none" stroke="black" points="116,-152.5 116,-171.5 226,-171.5 226,-152.5 116,-152.5"/>
<text text-anchor="middle" x="171" y="-159.5" font-family="Helvetica,sans-Serif" font-size="10.00">StateOne::getLabel</text>
</a>
</g>
</g>
<!-- Node0&#45;&gt;Node3 -->
<g id="edge3" class="edge"><title>Node0&#45;&gt;Node3</title>
<path fill="none" stroke="midnightblue" d="M71.3092,-133.589C88.1928,-138.449 108.895,-144.409 126.971,-149.613"/>
<polygon fill="midnightblue" stroke="midnightblue" points="126.123,-153.011 136.701,-152.414 128.06,-146.284 126.123,-153.011"/>
</g>
<!-- Node4 -->
<g id="node5" class="node"><title>Node4</title>
<g id="a_node5"><a xlink:href="classStateOne.html#aab2b41262381d67893113ed6f5ad18bc" target="_top" xlink:title="StateOne::getM">
<polygon fill="none" stroke="black" points="125,-114.5 125,-133.5 217,-133.5 217,-114.5 125,-114.5"/>
<text text-anchor="middle" x="171" y="-121.5" font-family="Helvetica,sans-Serif" font-size="10.00">StateOne::getM</text>
</a>
</g>
</g>
<!-- Node0&#45;&gt;Node4 -->
<g id="edge4" class="edge"><title>Node0&#45;&gt;Node4</title>
<path fill="none" stroke="midnightblue" d="M74.0696,-124C86.4785,-124 100.678,-124 114.281,-124"/>
<polygon fill="midnightblue" stroke="midnightblue" points="114.527,-127.5 124.527,-124 114.527,-120.5 114.527,-127.5"/>
</g>
<!-- Node5 -->
<g id="node6" class="node"><title>Node5</title>
<g id="a_node6"><a xlink:href="classStateOne.html#a7deae740570ef5262e7fd2d254a8c530" target="_top" xlink:title="StateOne::getN">
<polygon fill="none" stroke="black" points="125,-76.5 125,-95.5 217,-95.5 217,-76.5 125,-76.5"/>
<text text-anchor="middle" x="171" y="-83.5" font-family="Helvetica,sans-Serif" font-size="10.00">StateOne::getN</text>
</a>
</g>
</g>
<!-- Node0&#45;&gt;Node5 -->
<g id="edge5" class="edge"><title>Node0&#45;&gt;Node5</title>
<path fill="none" stroke="midnightblue" d="M71.3092,-114.411C88.1928,-109.551 108.895,-103.591 126.971,-98.3873"/>
<polygon fill="midnightblue" stroke="midnightblue" points="128.06,-101.716 136.701,-95.5859 126.123,-94.989 128.06,-101.716"/>
</g>
<!-- Node6 -->
<g id="node7" class="node"><title>Node6</title>
<g id="a_node7"><a xlink:href="classStateOne.html#a45b245f5da0068df4ff72093c654da89" target="_top" xlink:title="StateOne::getSpecies">
<polygon fill="none" stroke="black" points="110,-38.5 110,-57.5 232,-57.5 232,-38.5 110,-38.5"/>
<text text-anchor="middle" x="171" y="-45.5" font-family="Helvetica,sans-Serif" font-size="10.00">StateOne::getSpecies</text>
</a>
</g>
</g>
<!-- Node0&#45;&gt;Node6 -->
<g id="edge6" class="edge"><title>Node0&#45;&gt;Node6</title>
<path fill="none" stroke="midnightblue" d="M47.8879,-114.206C61.0421,-101.667 85.4994,-80.0104 110,-67 114.183,-64.7788 118.669,-62.7652 123.236,-60.9524"/>
<polygon fill="midnightblue" stroke="midnightblue" points="124.462,-64.2309 132.654,-57.5114 122.06,-57.656 124.462,-64.2309"/>
</g>
<!-- Node7 -->
<g id="node8" class="node"><title>Node7</title>
<g id="a_node8"><a xlink:href="classStateOne.html#afadd4cdf8426dd3a5cbf7b060b4415ca" target="_top" xlink:title="StateOne::isArtificial">
<polygon fill="none" stroke="black" points="114.5,-0.5 114.5,-19.5 227.5,-19.5 227.5,-0.5 114.5,-0.5"/>
<text text-anchor="middle" x="171" y="-7.5" font-family="Helvetica,sans-Serif" font-size="10.00">StateOne::isArtificial</text>
</a>
</g>
</g>
<!-- Node0&#45;&gt;Node7 -->
<g id="edge7" class="edge"><title>Node0&#45;&gt;Node7</title>
<path fill="none" stroke="midnightblue" d="M42.6994,-114.352C52.5108,-95.2079 77.027,-52.2655 110,-29 112.723,-27.0787 115.649,-25.3455 118.69,-23.7829"/>
<polygon fill="midnightblue" stroke="midnightblue" points="120.374,-26.8642 128.076,-19.5891 117.518,-20.4732 120.374,-26.8642"/>
</g>
</g>
</svg>
