<?xml version="1.0" encoding="UTF-8" standalone="no"?>
<!DOCTYPE svg PUBLIC "-//W3C//DTD SVG 1.1//EN"
 "http://www.w3.org/Graphics/SVG/1.1/DTD/svg11.dtd">
<!-- Generated by graphviz version 2.38.0 (20140413.2041)
 -->
<!-- Title: /travis/pairinteraction/State.cpp Pages: 1 -->
<!--zoomable 285 -->
<svg id="main" version="1.1" xmlns="http://www.w3.org/2000/svg" xmlns:xlink="http://www.w3.org/1999/xlink" xml:space="preserve" onload="init(evt)">
<style type="text/css"><![CDATA[
.edge:hover path { stroke: red; }
.edge:hover polygon { stroke: red; fill: red; }
]]></style>
<script type="text/javascript"><![CDATA[
var edges = document.getElementsByTagName('g');
if (edges && edges.length) {
  for (var i=0;i<edges.length;i++) {
    if (edges[i].id.substr(0,4)=='edge') {
      edges[i].setAttribute('class','edge');
    }
  }
}
]]></script>
        <defs>
                <circle id="rim" cx="0" cy="0" r="7"/>
                <circle id="rim2" cx="0" cy="0" r="3.5"/>
                <g id="zoomPlus">
                        <use xlink:href="#rim" fill="#404040">
                                <set attributeName="fill" to="#808080" begin="zoomplus.mouseover" end="zoomplus.mouseout"/>
                        </use>
                        <path d="M-4,0h8M0,-4v8" fill="none" stroke="white" stroke-width="1.5" pointer-events="none"/>
                </g>
                <g id="zoomMin">
                        <use xlink:href="#rim" fill="#404040">
                                <set attributeName="fill" to="#808080" begin="zoomminus.mouseover" end="zoomminus.mouseout"/>
                        </use>
                        <path d="M-4,0h8" fill="none" stroke="white" stroke-width="1.5" pointer-events="none"/>
                </g>
                <g id="dirArrow">
                        <path fill="none" stroke="white" stroke-width="1.5" d="M0,-3.0v7 M-2.5,-0.5L0,-3.0L2.5,-0.5"/>
                </g>
               <g id="resetDef">
                       <use xlink:href="#rim2" fill="#404040">
                               <set attributeName="fill" to="#808080" begin="reset.mouseover" end="reset.mouseout"/>
                       </use>
               </g>
        </defs>

<script type="text/javascript">
var viewWidth = 1710;
var viewHeight = 285;
var sectionId = 'dynsection-0';
</script>
<script xlink:href="svgpan.js"/>
<svg id="graph" class="graph">
<g id="viewport">
<title>/travis/pairinteraction/State.cpp</title>
<!-- Node0 -->
<g id="node1" class="node"><title>Node0</title>
<polygon fill="#bfbfbf" stroke="black" points="828.568,-246.5 828.568,-276.5 946.568,-276.5 946.568,-246.5 828.568,-246.5"/>
<text text-anchor="start" x="836.568" y="-264.5" font-family="Helvetica,sans-Serif" font-size="10.00">/travis/pairinteraction</text>
<text text-anchor="middle" x="887.568" y="-253.5" font-family="Helvetica,sans-Serif" font-size="10.00">/State.cpp</text>
</g>
<!-- Node1 -->
<g id="node2" class="node"><title>Node1</title>
<g id="a_node2"><a xlink:href="State_8h.html" target="_top" xlink:title="State.h">
<polygon fill="none" stroke="black" points="475.568,-190.5 475.568,-209.5 527.568,-209.5 527.568,-190.5 475.568,-190.5"/>
<text text-anchor="middle" x="501.568" y="-197.5" font-family="Helvetica,sans-Serif" font-size="10.00">State.h</text>
</a>
</g>
</g>
<!-- Node0&#45;&gt;Node1 -->
<g id="edge1" class="edge"><title>Node0&#45;&gt;Node1</title>
<path fill="none" stroke="midnightblue" d="M828.523,-251.398C747.534,-238.914 604.447,-216.858 537.718,-206.572"/>
<polygon fill="midnightblue" stroke="midnightblue" points="538.101,-203.09 527.685,-205.026 537.035,-210.008 538.101,-203.09"/>
</g>
<!-- Node2 -->
<g id="node3" class="node"><title>Node2</title>
<g id="a_node3"><a xlink:href="dtypes_8h.html" target="_top" xlink:title="dtypes.h">
<polygon fill="none" stroke="black" points="529.568,-129 529.568,-148 587.568,-148 587.568,-129 529.568,-129"/>
<text text-anchor="middle" x="558.568" y="-136" font-family="Helvetica,sans-Serif" font-size="10.00">dtypes.h</text>
</a>
</g>
</g>
<!-- Node0&#45;&gt;Node2 -->
<g id="edge47" class="edge"><title>Node0&#45;&gt;Node2</title>
<path fill="none" stroke="midnightblue" d="M828.169,-251.117C785.291,-243.178 726.561,-229.877 677.568,-210 640.637,-195.017 601.575,-169.829 578.667,-153.966"/>
<polygon fill="midnightblue" stroke="midnightblue" points="580.636,-151.072 570.442,-148.188 576.612,-156.8 580.636,-151.072"/>
</g>
<!-- Node5 -->
<g id="node6" class="node"><title>Node5</title>
<polygon fill="none" stroke="#bfbfbf" points="106.068,-62 106.068,-81 147.068,-81 147.068,-62 106.068,-62"/>
<text text-anchor="middle" x="126.568" y="-69" font-family="Helvetica,sans-Serif" font-size="10.00">array</text>
</g>
<!-- Node0&#45;&gt;Node5 -->
<g id="edge48" class="edge"><title>Node0&#45;&gt;Node5</title>
<path fill="none" stroke="midnightblue" d="M828.358,-257.802C639.738,-248.609 62.1151,-215.606 7.56809,-154 -22.9239,-119.562 51.6124,-92.5836 96.1514,-80.0908"/>
<polygon fill="midnightblue" stroke="midnightblue" points="97.2116,-83.4298 105.95,-77.4384 95.3825,-76.673 97.2116,-83.4298"/>
</g>
<!-- Node10 -->
<g id="node11" class="node"><title>Node10</title>
<polygon fill="none" stroke="#bfbfbf" points="650.068,-62 650.068,-81 709.068,-81 709.068,-62 650.068,-62"/>
<text text-anchor="middle" x="679.568" y="-69" font-family="Helvetica,sans-Serif" font-size="10.00">iostream</text>
</g>
<!-- Node0&#45;&gt;Node10 -->
<g id="edge51" class="edge"><title>Node0&#45;&gt;Node10</title>
<path fill="none" stroke="midnightblue" d="M849.672,-246.455C809.944,-229.951 748.176,-198.987 710.568,-154 695.203,-135.62 686.988,-108.821 682.955,-91.0341"/>
<polygon fill="midnightblue" stroke="midnightblue" points="686.347,-90.1504 680.916,-81.0532 679.489,-91.5514 686.347,-90.1504"/>
</g>
<!-- Node11 -->
<g id="node12" class="node"><title>Node11</title>
<polygon fill="none" stroke="#bfbfbf" points="727.568,-62 727.568,-81 771.568,-81 771.568,-62 727.568,-62"/>
<text text-anchor="middle" x="749.568" y="-69" font-family="Helvetica,sans-Serif" font-size="10.00">string</text>
</g>
<!-- Node0&#45;&gt;Node11 -->
<g id="edge52" class="edge"><title>Node0&#45;&gt;Node11</title>
<path fill="none" stroke="midnightblue" d="M889.863,-246.293C893.401,-219.237 897.08,-159.745 868.568,-123 842.663,-89.6143 819.274,-103.957 780.568,-87 779.374,-86.477 778.157,-85.9371 776.93,-85.3871"/>
<polygon fill="midnightblue" stroke="midnightblue" points="778.081,-82.0646 767.531,-81.0847 775.167,-88.4295 778.081,-82.0646"/>
</g>
<!-- Node16 -->
<g id="node17" class="node"><title>Node16</title>
<g id="a_node17"><a xlink:href="QuantumDefect_8h.html" target="_top" xlink:title="QuantumDefect.h">
<polygon fill="none" stroke="black" points="931.568,-190.5 931.568,-209.5 1033.57,-209.5 1033.57,-190.5 931.568,-190.5"/>
<text text-anchor="middle" x="982.568" y="-197.5" font-family="Helvetica,sans-Serif" font-size="10.00">QuantumDefect.h</text>
</a>
</g>
</g>
<!-- Node0&#45;&gt;Node16 -->
<g id="edge18" class="edge"><title>Node0&#45;&gt;Node16</title>
<path fill="none" stroke="midnightblue" d="M910.082,-246.399C925.167,-236.951 944.953,-224.559 960.041,-215.109"/>
<polygon fill="midnightblue" stroke="midnightblue" points="962.128,-217.932 968.745,-209.658 958.412,-212 962.128,-217.932"/>
</g>
<!-- Node29 -->
<g id="node30" class="node"><title>Node29</title>
<polygon fill="none" stroke="#bfbfbf" points="1358.57,-62 1358.57,-81 1400.57,-81 1400.57,-62 1358.57,-62"/>
<text text-anchor="middle" x="1379.57" y="-69" font-family="Helvetica,sans-Serif" font-size="10.00">utility</text>
</g>
<!-- Node0&#45;&gt;Node29 -->
<g id="edge53" class="edge"><title>Node0&#45;&gt;Node29</title>
<path fill="none" stroke="midnightblue" d="M933.285,-246.494C964.298,-236.775 1006.13,-223.244 1042.57,-210 1111.45,-184.968 1281.35,-116.203 1348.57,-87 1349.76,-86.4806 1350.98,-85.9438 1352.21,-85.3963"/>
<polygon fill="midnightblue" stroke="midnightblue" points="1353.97,-88.4405 1361.61,-81.1036 1351.06,-82.0727 1353.97,-88.4405"/>
</g>
<!-- Node36 -->
<g id="node37" class="node"><title>Node36</title>
<polygon fill="none" stroke="#bfbfbf" points="1105.57,-190.5 1105.57,-209.5 1153.57,-209.5 1153.57,-190.5 1105.57,-190.5"/>
<text text-anchor="middle" x="1129.57" y="-197.5" font-family="Helvetica,sans-Serif" font-size="10.00">cctype</text>
</g>
<!-- Node0&#45;&gt;Node36 -->
<g id="edge49" class="edge"><title>Node0&#45;&gt;Node36</title>
<path fill="none" stroke="midnightblue" d="M944.612,-246.475C991.561,-234.932 1056.54,-218.956 1095.66,-209.336"/>
<polygon fill="midnightblue" stroke="midnightblue" points="1096.63,-212.703 1105.5,-206.917 1094.96,-205.906 1096.63,-212.703"/>
</g>
<!-- Node37 -->
<g id="node38" class="node"><title>Node37</title>
<polygon fill="none" stroke="#bfbfbf" points="1172.07,-190.5 1172.07,-209.5 1227.07,-209.5 1227.07,-190.5 1172.07,-190.5"/>
<text text-anchor="middle" x="1199.57" y="-197.5" font-family="Helvetica,sans-Serif" font-size="10.00">iomanip</text>
</g>
<!-- Node0&#45;&gt;Node37 -->
<g id="edge50" class="edge"><title>Node0&#45;&gt;Node37</title>
<path fill="none" stroke="midnightblue" d="M946.769,-250.633C1000.3,-241.483 1081.51,-227.039 1161.48,-210.135"/>
<polygon fill="midnightblue" stroke="midnightblue" points="1162.67,-213.458 1171.73,-207.952 1161.22,-206.611 1162.67,-213.458"/>
</g>
<!-- Node1&#45;&gt;Node2 -->
<g id="edge2" class="edge"><title>Node1&#45;&gt;Node2</title>
<path fill="none" stroke="midnightblue" d="M509.735,-190.475C518.454,-181.373 532.472,-166.741 543.257,-155.483"/>
<polygon fill="midnightblue" stroke="midnightblue" points="546.026,-157.651 550.417,-148.009 540.971,-152.809 546.026,-157.651"/>
</g>
<!-- Node1&#45;&gt;Node5 -->
<g id="edge9" class="edge"><title>Node1&#45;&gt;Node5</title>
<path fill="none" stroke="midnightblue" d="M475.446,-193.761C446.223,-187.211 398.07,-174.323 360.568,-154 341.405,-143.615 342.21,-132.447 322.568,-123 254.144,-90.0901 227.2,-112.176 155.568,-87 154.141,-86.4984 152.694,-85.9423 151.247,-85.3487"/>
<polygon fill="midnightblue" stroke="midnightblue" points="152.456,-82.0527 141.907,-81.0667 149.538,-88.4159 152.456,-82.0527"/>
</g>
<!-- Node6 -->
<g id="node7" class="node"><title>Node6</title>
<polygon fill="none" stroke="#bfbfbf" points="165.068,-62 165.068,-81 212.068,-81 212.068,-62 165.068,-62"/>
<text text-anchor="middle" x="188.568" y="-69" font-family="Helvetica,sans-Serif" font-size="10.00">cmath</text>
</g>
<!-- Node1&#45;&gt;Node6 -->
<g id="edge11" class="edge"><title>Node1&#45;&gt;Node6</title>
<path fill="none" stroke="midnightblue" d="M502.244,-190.394C502.975,-174.468 502.006,-140.437 482.568,-123 438.821,-83.7568 277.032,-103.298 220.568,-87 218.634,-86.4418 216.667,-85.7866 214.708,-85.0687"/>
<polygon fill="midnightblue" stroke="midnightblue" points="215.74,-81.7077 205.161,-81.1147 213.061,-88.175 215.74,-81.7077"/>
</g>
<!-- Node9 -->
<g id="node10" class="node"><title>Node9</title>
<polygon fill="none" stroke="#bfbfbf" points="719.568,-129 719.568,-148 859.568,-148 859.568,-129 719.568,-129"/>
<text text-anchor="middle" x="789.568" y="-136" font-family="Helvetica,sans-Serif" font-size="10.00">boost/functional/hash.hpp</text>
</g>
<!-- Node1&#45;&gt;Node9 -->
<g id="edge10" class="edge"><title>Node1&#45;&gt;Node9</title>
<path fill="none" stroke="midnightblue" d="M527.634,-193.615C575.115,-183.805 676.489,-162.862 738.268,-150.098"/>
<polygon fill="midnightblue" stroke="midnightblue" points="739.117,-153.497 748.202,-148.046 737.7,-146.642 739.117,-153.497"/>
</g>
<!-- Node1&#45;&gt;Node10 -->
<g id="edge12" class="edge"><title>Node1&#45;&gt;Node10</title>
<path fill="none" stroke="midnightblue" d="M524.998,-190.459C544.979,-182.594 573.97,-169.771 596.568,-154 623.893,-134.929 650.474,-106.585 665.919,-88.844"/>
<polygon fill="midnightblue" stroke="midnightblue" points="668.724,-90.9492 672.561,-81.0735 663.403,-86.4009 668.724,-90.9492"/>
</g>
<!-- Node1&#45;&gt;Node11 -->
<g id="edge13" class="edge"><title>Node1&#45;&gt;Node11</title>
<path fill="none" stroke="midnightblue" d="M527.873,-191.925C554.332,-184.313 595.921,-170.979 629.568,-154 667.678,-134.769 707.928,-105.275 730.778,-87.5398"/>
<polygon fill="midnightblue" stroke="midnightblue" points="733.211,-90.0799 738.912,-81.15 728.886,-84.5753 733.211,-90.0799"/>
</g>
<!-- Node12 -->
<g id="node13" class="node"><title>Node12</title>
<polygon fill="none" stroke="#bfbfbf" points="136.068,-129 136.068,-148 191.068,-148 191.068,-129 136.068,-129"/>
<text text-anchor="middle" x="163.568" y="-136" font-family="Helvetica,sans-Serif" font-size="10.00">typeinfo</text>
</g>
<!-- Node1&#45;&gt;Node12 -->
<g id="edge14" class="edge"><title>Node1&#45;&gt;Node12</title>
<path fill="none" stroke="midnightblue" d="M475.398,-197.08C422.653,-192.778 300.113,-180.582 200.568,-154 197.91,-153.29 195.183,-152.45 192.471,-151.537"/>
<polygon fill="midnightblue" stroke="midnightblue" points="193.473,-148.176 182.879,-148.014 191.06,-154.747 193.473,-148.176"/>
</g>
<!-- Node13 -->
<g id="node14" class="node"><title>Node13</title>
<polygon fill="none" stroke="#bfbfbf" points="209.568,-123.5 209.568,-153.5 313.568,-153.5 313.568,-123.5 209.568,-123.5"/>
<text text-anchor="start" x="217.568" y="-141.5" font-family="Helvetica,sans-Serif" font-size="10.00">boost/serialization</text>
<text text-anchor="middle" x="261.568" y="-130.5" font-family="Helvetica,sans-Serif" font-size="10.00">/array.hpp</text>
</g>
<!-- Node1&#45;&gt;Node13 -->
<g id="edge15" class="edge"><title>Node1&#45;&gt;Node13</title>
<path fill="none" stroke="midnightblue" d="M475.427,-192.519C439.283,-183.559 372.937,-167.11 323.691,-154.901"/>
<polygon fill="midnightblue" stroke="midnightblue" points="324.32,-151.451 313.772,-152.442 322.636,-158.246 324.32,-151.451"/>
</g>
<!-- Node14 -->
<g id="node15" class="node"><title>Node14</title>
<polygon fill="none" stroke="#bfbfbf" points="369.568,-123.5 369.568,-153.5 473.568,-153.5 473.568,-123.5 369.568,-123.5"/>
<text text-anchor="start" x="377.568" y="-141.5" font-family="Helvetica,sans-Serif" font-size="10.00">boost/serialization</text>
<text text-anchor="middle" x="421.568" y="-130.5" font-family="Helvetica,sans-Serif" font-size="10.00">/string.hpp</text>
</g>
<!-- Node1&#45;&gt;Node14 -->
<g id="edge16" class="edge"><title>Node1&#45;&gt;Node14</title>
<path fill="none" stroke="midnightblue" d="M490.106,-190.475C479.372,-182.492 462.918,-170.254 448.822,-159.77"/>
<polygon fill="midnightblue" stroke="midnightblue" points="450.535,-156.682 440.423,-153.523 446.358,-162.299 450.535,-156.682"/>
</g>
<!-- Node15 -->
<g id="node16" class="node"><title>Node15</title>
<polygon fill="none" stroke="#bfbfbf" points="17.0681,-129 17.0681,-148 118.068,-148 118.068,-129 17.0681,-129"/>
<text text-anchor="middle" x="67.5681" y="-136" font-family="Helvetica,sans-Serif" font-size="10.00">boost/variant.hpp</text>
</g>
<!-- Node1&#45;&gt;Node15 -->
<g id="edge17" class="edge"><title>Node1&#45;&gt;Node15</title>
<path fill="none" stroke="midnightblue" d="M475.491,-196.97C414.242,-191.962 256.555,-177.681 126.568,-154 120.99,-152.984 115.154,-151.755 109.413,-150.448"/>
<polygon fill="midnightblue" stroke="midnightblue" points="109.798,-146.942 99.2603,-148.039 108.182,-153.753 109.798,-146.942"/>
</g>
<!-- Node3 -->
<g id="node4" class="node"><title>Node3</title>
<polygon fill="none" stroke="#bfbfbf" points="230.068,-62 230.068,-81 307.068,-81 307.068,-62 230.068,-62"/>
<text text-anchor="middle" x="268.568" y="-69" font-family="Helvetica,sans-Serif" font-size="10.00">Eigen/Dense</text>
</g>
<!-- Node2&#45;&gt;Node3 -->
<g id="edge3" class="edge"><title>Node2&#45;&gt;Node3</title>
<path fill="none" stroke="midnightblue" d="M535.098,-128.894C528.809,-126.779 521.977,-124.651 515.568,-123 428.529,-100.58 403.953,-108.03 316.568,-87 312.68,-86.0643 308.642,-84.9976 304.633,-83.8769"/>
<polygon fill="midnightblue" stroke="midnightblue" points="305.407,-80.4572 294.828,-81.024 303.452,-87.1785 305.407,-80.4572"/>
</g>
<!-- Node4 -->
<g id="node5" class="node"><title>Node4</title>
<polygon fill="none" stroke="#bfbfbf" points="325.568,-62 325.568,-81 405.568,-81 405.568,-62 325.568,-62"/>
<text text-anchor="middle" x="365.568" y="-69" font-family="Helvetica,sans-Serif" font-size="10.00">Eigen/Sparse</text>
</g>
<!-- Node2&#45;&gt;Node4 -->
<g id="edge4" class="edge"><title>Node2&#45;&gt;Node4</title>
<path fill="none" stroke="midnightblue" d="M533.103,-128.911C527.337,-126.966 521.242,-124.912 515.568,-123 476.265,-109.757 431.164,-94.5751 400.765,-84.3441"/>
<polygon fill="midnightblue" stroke="midnightblue" points="401.643,-80.9467 391.048,-81.0742 399.41,-87.5811 401.643,-80.9467"/>
</g>
<!-- Node2&#45;&gt;Node5 -->
<g id="edge5" class="edge"><title>Node2&#45;&gt;Node5</title>
<path fill="none" stroke="midnightblue" d="M529.427,-131.382C515.32,-128.564 498.11,-125.334 482.568,-123 337.979,-101.282 295.814,-128.34 155.568,-87 153.898,-86.5076 152.207,-85.9225 150.527,-85.2742"/>
<polygon fill="midnightblue" stroke="midnightblue" points="151.761,-81.9916 141.206,-81.0768 148.887,-88.3743 151.761,-81.9916"/>
</g>
<!-- Node2&#45;&gt;Node6 -->
<g id="edge6" class="edge"><title>Node2&#45;&gt;Node6</title>
<path fill="none" stroke="midnightblue" d="M536.053,-128.946C529.523,-126.729 522.329,-124.536 515.568,-123 386.765,-93.7458 347.745,-122.669 220.568,-87 218.421,-86.3978 216.234,-85.6718 214.063,-84.8697"/>
<polygon fill="midnightblue" stroke="midnightblue" points="215.393,-81.6323 204.817,-81.0138 212.699,-88.0931 215.393,-81.6323"/>
</g>
<!-- Node7 -->
<g id="node8" class="node"><title>Node7</title>
<polygon fill="none" stroke="#bfbfbf" points="424.068,-56.5 424.068,-86.5 567.068,-86.5 567.068,-56.5 424.068,-56.5"/>
<text text-anchor="start" x="432.068" y="-74.5" font-family="Helvetica,sans-Serif" font-size="10.00">unsupported/Eigen/CXX11</text>
<text text-anchor="middle" x="495.568" y="-63.5" font-family="Helvetica,sans-Serif" font-size="10.00">/Tensor</text>
</g>
<!-- Node2&#45;&gt;Node7 -->
<g id="edge7" class="edge"><title>Node2&#45;&gt;Node7</title>
<path fill="none" stroke="midnightblue" d="M550.072,-128.734C541.476,-119.865 527.854,-105.811 516.38,-93.9722"/>
<polygon fill="midnightblue" stroke="midnightblue" points="518.697,-91.3338 509.224,-86.589 513.67,-96.2056 518.697,-91.3338"/>
</g>
<!-- Node8 -->
<g id="node9" class="node"><title>Node8</title>
<polygon fill="none" stroke="#bfbfbf" points="585.068,-62 585.068,-81 632.068,-81 632.068,-62 585.068,-62"/>
<text text-anchor="middle" x="608.568" y="-69" font-family="Helvetica,sans-Serif" font-size="10.00">vector</text>
</g>
<!-- Node2&#45;&gt;Node8 -->
<g id="edge8" class="edge"><title>Node2&#45;&gt;Node8</title>
<path fill="none" stroke="midnightblue" d="M565.311,-128.734C573.108,-118.598 586.114,-101.69 595.833,-89.0556"/>
<polygon fill="midnightblue" stroke="midnightblue" points="598.609,-91.1876 601.932,-81.1273 593.06,-86.9196 598.609,-91.1876"/>
</g>
<!-- Node16&#45;&gt;Node2 -->
<g id="edge41" class="edge"><title>Node16&#45;&gt;Node2</title>
<path fill="none" stroke="midnightblue" d="M931.424,-191.823C845.701,-179.793 674.858,-155.819 597.835,-145.01"/>
<polygon fill="midnightblue" stroke="midnightblue" points="597.997,-141.499 587.608,-143.575 597.024,-148.431 597.997,-141.499"/>
</g>
<!-- Node16&#45;&gt;Node9 -->
<g id="edge46" class="edge"><title>Node16&#45;&gt;Node9</title>
<path fill="none" stroke="midnightblue" d="M954.916,-190.475C921.38,-180.136 864.696,-162.661 827.2,-151.102"/>
<polygon fill="midnightblue" stroke="midnightblue" points="827.756,-147.611 817.169,-148.009 825.694,-154.3 827.756,-147.611"/>
</g>
<!-- Node16&#45;&gt;Node11 -->
<g id="edge43" class="edge"><title>Node16&#45;&gt;Node11</title>
<path fill="none" stroke="midnightblue" d="M975.731,-190.337C962.876,-174.621 933.506,-141.344 901.568,-123 852.915,-95.0546 833.012,-106.941 780.568,-87 779.145,-86.4589 777.696,-85.8808 776.241,-85.2786"/>
<polygon fill="midnightblue" stroke="midnightblue" points="777.314,-81.9265 766.752,-81.0901 774.487,-88.3304 777.314,-81.9265"/>
</g>
<!-- Node17 -->
<g id="node18" class="node"><title>Node17</title>
<g id="a_node18"><a xlink:href="Cache_8h.html" target="_top" xlink:title="Cache.h">
<polygon fill="none" stroke="black" points="1414.57,-129 1414.57,-148 1470.57,-148 1470.57,-129 1414.57,-129"/>
<text text-anchor="middle" x="1442.57" y="-136" font-family="Helvetica,sans-Serif" font-size="10.00">Cache.h</text>
</a>
</g>
</g>
<!-- Node16&#45;&gt;Node17 -->
<g id="edge19" class="edge"><title>Node16&#45;&gt;Node17</title>
<path fill="none" stroke="midnightblue" d="M1034,-192.348C1127.19,-180.294 1321.94,-155.103 1404.39,-144.438"/>
<polygon fill="midnightblue" stroke="midnightblue" points="1404.87,-147.906 1414.33,-143.152 1403.97,-140.964 1404.87,-147.906"/>
</g>
<!-- Node18 -->
<g id="node19" class="node"><title>Node18</title>
<polygon fill="none" stroke="#bfbfbf" points="1419.07,-62 1419.07,-81 1466.07,-81 1466.07,-62 1419.07,-62"/>
<text text-anchor="middle" x="1442.57" y="-69" font-family="Helvetica,sans-Serif" font-size="10.00">mutex</text>
</g>
<!-- Node16&#45;&gt;Node18 -->
<g id="edge42" class="edge"><title>Node16&#45;&gt;Node18</title>
<path fill="none" stroke="midnightblue" d="M1023.83,-190.449C1100.79,-174.005 1270.97,-135.287 1409.57,-87 1411.23,-86.4196 1412.93,-85.7913 1414.64,-85.1326"/>
<polygon fill="midnightblue" stroke="midnightblue" points="1416.37,-88.2047 1424.27,-81.1501 1413.69,-81.7356 1416.37,-88.2047"/>
</g>
<!-- Node19 -->
<g id="node20" class="node"><title>Node19</title>
<polygon fill="none" stroke="#bfbfbf" points="1609.07,-62 1609.07,-81 1702.07,-81 1702.07,-62 1609.07,-62"/>
<text text-anchor="middle" x="1655.57" y="-69" font-family="Helvetica,sans-Serif" font-size="10.00">unordered_map</text>
</g>
<!-- Node16&#45;&gt;Node19 -->
<g id="edge45" class="edge"><title>Node16&#45;&gt;Node19</title>
<path fill="none" stroke="midnightblue" d="M1034.06,-194.92C1171.29,-184.036 1535.61,-155.062 1538.57,-154 1578.88,-139.53 1618.15,-107.388 1639.37,-88.0733"/>
<polygon fill="midnightblue" stroke="midnightblue" points="1641.89,-90.5072 1646.83,-81.1311 1637.12,-85.3841 1641.89,-90.5072"/>
</g>
<!-- Node21 -->
<g id="node22" class="node"><title>Node21</title>
<g id="a_node22"><a xlink:href="SQLite_8h.html" target="_top" xlink:title="SQLite.h">
<polygon fill="none" stroke="black" points="954.068,-129 954.068,-148 1011.07,-148 1011.07,-129 954.068,-129"/>
<text text-anchor="middle" x="982.568" y="-136" font-family="Helvetica,sans-Serif" font-size="10.00">SQLite.h</text>
</a>
</g>
</g>
<!-- Node16&#45;&gt;Node21 -->
<g id="edge23" class="edge"><title>Node16&#45;&gt;Node21</title>
<path fill="none" stroke="midnightblue" d="M982.568,-190.475C982.568,-182.08 982.568,-168.981 982.568,-158.163"/>
<polygon fill="midnightblue" stroke="midnightblue" points="986.068,-158.009 982.568,-148.009 979.068,-158.009 986.068,-158.009"/>
</g>
<!-- Node35 -->
<g id="node36" class="node"><title>Node35</title>
<polygon fill="none" stroke="#bfbfbf" points="1489.07,-129 1489.07,-148 1530.07,-148 1530.07,-129 1489.07,-129"/>
<text text-anchor="middle" x="1509.57" y="-136" font-family="Helvetica,sans-Serif" font-size="10.00">tuple</text>
</g>
<!-- Node16&#45;&gt;Node35 -->
<g id="edge44" class="edge"><title>Node16&#45;&gt;Node35</title>
<path fill="none" stroke="midnightblue" d="M1033.57,-194.878C1156.06,-184.91 1458.3,-159.891 1479.57,-154 1481.29,-153.522 1483.04,-152.948 1484.78,-152.308"/>
<polygon fill="midnightblue" stroke="midnightblue" points="1486.63,-155.319 1494.41,-148.13 1483.85,-148.896 1486.63,-155.319"/>
</g>
<!-- Node17&#45;&gt;Node18 -->
<g id="edge20" class="edge"><title>Node17&#45;&gt;Node18</title>
<path fill="none" stroke="midnightblue" d="M1442.57,-128.734C1442.57,-119.183 1442.57,-103.618 1442.57,-91.2829"/>
<polygon fill="midnightblue" stroke="midnightblue" points="1446.07,-91.1273 1442.57,-81.1273 1439.07,-91.1273 1446.07,-91.1273"/>
</g>
<!-- Node17&#45;&gt;Node19 -->
<g id="edge21" class="edge"><title>Node17&#45;&gt;Node19</title>
<path fill="none" stroke="midnightblue" d="M1463.57,-128.873C1468.77,-126.85 1474.34,-124.77 1479.57,-123 1524.24,-107.876 1576.24,-93.3215 1612.08,-83.7555"/>
<polygon fill="midnightblue" stroke="midnightblue" points="1613.42,-87.019 1622.19,-81.0727 1611.63,-80.2529 1613.42,-87.019"/>
</g>
<!-- Node20 -->
<g id="node21" class="node"><title>Node20</title>
<polygon fill="none" stroke="#bfbfbf" points="1484.57,-62 1484.57,-81 1590.57,-81 1590.57,-62 1484.57,-62"/>
<text text-anchor="middle" x="1537.57" y="-69" font-family="Helvetica,sans-Serif" font-size="10.00">boost/optional.hpp</text>
</g>
<!-- Node17&#45;&gt;Node20 -->
<g id="edge22" class="edge"><title>Node17&#45;&gt;Node20</title>
<path fill="none" stroke="midnightblue" d="M1455.38,-128.734C1471.05,-118.013 1497.79,-99.7165 1516.5,-86.9137"/>
<polygon fill="midnightblue" stroke="midnightblue" points="1518.68,-89.6628 1524.96,-81.1273 1514.73,-83.8856 1518.68,-89.6628"/>
</g>
<!-- Node21&#45;&gt;Node10 -->
<g id="edge24" class="edge"><title>Node21&#45;&gt;Node10</title>
<path fill="none" stroke="midnightblue" d="M953.687,-133.59C904.739,-126.605 802.611,-110.484 718.568,-87 715.92,-86.26 713.197,-85.4196 710.481,-84.5249"/>
<polygon fill="midnightblue" stroke="midnightblue" points="711.407,-81.1408 700.813,-81.1296 709.088,-87.7454 711.407,-81.1408"/>
</g>
<!-- Node21&#45;&gt;Node11 -->
<g id="edge28" class="edge"><title>Node21&#45;&gt;Node11</title>
<path fill="none" stroke="midnightblue" d="M958.597,-128.932C952.434,-126.863 945.787,-124.748 939.568,-123 869.815,-103.398 849.112,-110.485 780.568,-87 778.945,-86.4439 777.294,-85.8288 775.641,-85.1751"/>
<polygon fill="midnightblue" stroke="midnightblue" points="776.919,-81.9142 766.351,-81.1503 774.136,-88.3373 776.919,-81.9142"/>
</g>
<!-- Node22 -->
<g id="node23" class="node"><title>Node22</title>
<polygon fill="none" stroke="#bfbfbf" points="853.068,-62 853.068,-81 910.068,-81 910.068,-62 853.068,-62"/>
<text text-anchor="middle" x="881.568" y="-69" font-family="Helvetica,sans-Serif" font-size="10.00">memory</text>
</g>
<!-- Node21&#45;&gt;Node22 -->
<g id="edge25" class="edge"><title>Node21&#45;&gt;Node22</title>
<path fill="none" stroke="midnightblue" d="M968.947,-128.734C952.137,-117.916 923.34,-99.3832 903.424,-86.5659"/>
<polygon fill="midnightblue" stroke="midnightblue" points="905.277,-83.5959 894.974,-81.1273 901.489,-89.4823 905.277,-83.5959"/>
</g>
<!-- Node23 -->
<g id="node24" class="node"><title>Node23</title>
<polygon fill="none" stroke="#bfbfbf" points="923.568,-0.5 923.568,-19.5 977.568,-19.5 977.568,-0.5 923.568,-0.5"/>
<text text-anchor="middle" x="950.568" y="-7.5" font-family="Helvetica,sans-Serif" font-size="10.00">random</text>
</g>
<!-- Node21&#45;&gt;Node23 -->
<g id="edge26" class="edge"><title>Node21&#45;&gt;Node23</title>
<path fill="none" stroke="midnightblue" d="M977.11,-128.958C971.189,-119.221 961.99,-102.626 957.568,-87 952.221,-68.1026 950.719,-45.6111 950.402,-30.0221"/>
<polygon fill="midnightblue" stroke="midnightblue" points="953.9,-29.6016 950.347,-19.6203 946.9,-29.6388 953.9,-29.6016"/>
</g>
<!-- Node24 -->
<g id="node25" class="node"><title>Node24</title>
<polygon fill="none" stroke="#bfbfbf" points="966.568,-62 966.568,-81 1022.57,-81 1022.57,-62 966.568,-62"/>
<text text-anchor="middle" x="994.568" y="-69" font-family="Helvetica,sans-Serif" font-size="10.00">sstream</text>
</g>
<!-- Node21&#45;&gt;Node24 -->
<g id="edge27" class="edge"><title>Node21&#45;&gt;Node24</title>
<path fill="none" stroke="midnightblue" d="M984.186,-128.734C985.95,-119.183 988.823,-103.618 991.1,-91.2829"/>
<polygon fill="midnightblue" stroke="midnightblue" points="994.602,-91.5966 992.975,-81.1273 987.718,-90.3257 994.602,-91.5966"/>
</g>
<!-- Node25 -->
<g id="node26" class="node"><title>Node25</title>
<polygon fill="none" stroke="#bfbfbf" points="1040.57,-62 1040.57,-81 1088.57,-81 1088.57,-62 1040.57,-62"/>
<text text-anchor="middle" x="1064.57" y="-69" font-family="Helvetica,sans-Serif" font-size="10.00">thread</text>
</g>
<!-- Node21&#45;&gt;Node25 -->
<g id="edge29" class="edge"><title>Node21&#45;&gt;Node25</title>
<path fill="none" stroke="midnightblue" d="M993.627,-128.734C1006.91,-118.208 1029.4,-100.379 1045.5,-87.6174"/>
<polygon fill="midnightblue" stroke="midnightblue" points="1048.02,-90.0821 1053.68,-81.1273 1043.67,-84.5965 1048.02,-90.0821"/>
</g>
<!-- Node26 -->
<g id="node27" class="node"><title>Node26</title>
<polygon fill="none" stroke="#bfbfbf" points="1044.57,-0.5 1044.57,-19.5 1112.57,-19.5 1112.57,-0.5 1044.57,-0.5"/>
<text text-anchor="middle" x="1078.57" y="-7.5" font-family="Helvetica,sans-Serif" font-size="10.00">type_traits</text>
</g>
<!-- Node21&#45;&gt;Node26 -->
<g id="edge30" class="edge"><title>Node21&#45;&gt;Node26</title>
<path fill="none" stroke="midnightblue" d="M1005.54,-128.963C1037.53,-116.845 1092.2,-95.2158 1097.57,-87 1109.25,-69.1039 1099.43,-44.5388 1090.11,-28.2371"/>
<polygon fill="midnightblue" stroke="midnightblue" points="1093.07,-26.3758 1084.84,-19.7067 1087.11,-30.054 1093.07,-26.3758"/>
</g>
<!-- Node27 -->
<g id="node28" class="node"><title>Node27</title>
<polygon fill="none" stroke="#bfbfbf" points="1144.57,-56.5 1144.57,-86.5 1264.57,-86.5 1264.57,-56.5 1144.57,-56.5"/>
<text text-anchor="start" x="1152.57" y="-74.5" font-family="Helvetica,sans-Serif" font-size="10.00">boost/iterator/iterator</text>
<text text-anchor="middle" x="1204.57" y="-63.5" font-family="Helvetica,sans-Serif" font-size="10.00">_facade.hpp</text>
</g>
<!-- Node21&#45;&gt;Node27 -->
<g id="edge31" class="edge"><title>Node21&#45;&gt;Node27</title>
<path fill="none" stroke="midnightblue" d="M1007.51,-128.853C1013.41,-126.872 1019.7,-124.817 1025.57,-123 1064.17,-111.054 1107.81,-98.7195 1142.33,-89.231"/>
<polygon fill="midnightblue" stroke="midnightblue" points="1143.56,-92.5247 1152.28,-86.5073 1141.71,-85.7734 1143.56,-92.5247"/>
</g>
<!-- Node28 -->
<g id="node29" class="node"><title>Node28</title>
<polygon fill="none" stroke="#bfbfbf" points="1283.07,-62 1283.07,-81 1340.07,-81 1340.07,-62 1283.07,-62"/>
<text text-anchor="middle" x="1311.57" y="-69" font-family="Helvetica,sans-Serif" font-size="10.00">sqlite3.h</text>
</g>
<!-- Node21&#45;&gt;Node28 -->
<g id="edge32" class="edge"><title>Node21&#45;&gt;Node28</title>
<path fill="none" stroke="midnightblue" d="M1005.55,-128.894C1011.96,-126.729 1018.98,-124.576 1025.57,-123 1133.89,-97.0996 1165.77,-115.023 1273.57,-87 1276.39,-86.2671 1279.28,-85.394 1282.16,-84.4448"/>
<polygon fill="midnightblue" stroke="midnightblue" points="1283.49,-87.6869 1291.72,-81.0178 1281.13,-81.0974 1283.49,-87.6869"/>
</g>
<!-- Node21&#45;&gt;Node29 -->
<g id="edge33" class="edge"><title>Node21&#45;&gt;Node29</title>
<path fill="none" stroke="midnightblue" d="M1005.07,-128.9C1011.6,-126.682 1018.8,-124.5 1025.57,-123 1166.59,-91.7436 1209.52,-126.12 1348.57,-87 1350.5,-86.4569 1352.46,-85.805 1354.41,-85.0824"/>
<polygon fill="midnightblue" stroke="midnightblue" points="1356.03,-88.1946 1363.86,-81.0568 1353.29,-81.7541 1356.03,-88.1946"/>
</g>
<!-- Node30 -->
<g id="node31" class="node"><title>Node30</title>
<g id="a_node31"><a xlink:href="utils_8h.html" target="_top" xlink:title="utils.h">
<polygon fill="none" stroke="black" points="790.068,-62 790.068,-81 835.068,-81 835.068,-62 790.068,-62"/>
<text text-anchor="middle" x="812.568" y="-69" font-family="Helvetica,sans-Serif" font-size="10.00">utils.h</text>
</a>
</g>
</g>
<!-- Node21&#45;&gt;Node30 -->
<g id="edge34" class="edge"><title>Node21&#45;&gt;Node30</title>
<path fill="none" stroke="midnightblue" d="M956.943,-128.956C928.852,-119.414 882.584,-103.175 843.568,-87 842.196,-86.4312 840.796,-85.8351 839.387,-85.2227"/>
<polygon fill="midnightblue" stroke="midnightblue" points="840.707,-81.9782 830.152,-81.0558 837.828,-88.3589 840.707,-81.9782"/>
</g>
<!-- Node30&#45;&gt;Node23 -->
<g id="edge38" class="edge"><title>Node30&#45;&gt;Node23</title>
<path fill="none" stroke="midnightblue" d="M830.545,-61.9454C834.8,-59.9611 839.332,-57.8805 843.568,-56 869.284,-44.5836 898.776,-32.2349 920.276,-23.3666"/>
<polygon fill="midnightblue" stroke="midnightblue" points="921.633,-26.5932 929.55,-19.5528 918.971,-20.1193 921.633,-26.5932"/>
</g>
<!-- Node30&#45;&gt;Node26 -->
<g id="edge39" class="edge"><title>Node30&#45;&gt;Node26</title>
<path fill="none" stroke="midnightblue" d="M828.992,-61.8935C833.614,-59.7283 838.707,-57.5751 843.568,-56 908.364,-35.0042 986.563,-22.4432 1034.41,-16.1253"/>
<polygon fill="midnightblue" stroke="midnightblue" points="1034.97,-19.5829 1044.44,-14.8346 1034.07,-12.6402 1034.97,-19.5829"/>
</g>
<!-- Node31 -->
<g id="node32" class="node"><title>Node31</title>
<polygon fill="none" stroke="#bfbfbf" points="613.568,-0.5 613.568,-19.5 675.568,-19.5 675.568,-0.5 613.568,-0.5"/>
<text text-anchor="middle" x="644.568" y="-7.5" font-family="Helvetica,sans-Serif" font-size="10.00">algorithm</text>
</g>
<!-- Node30&#45;&gt;Node31 -->
<g id="edge35" class="edge"><title>Node30&#45;&gt;Node31</title>
<path fill="none" stroke="midnightblue" d="M794.434,-61.8811C789.942,-59.8578 785.113,-57.7758 780.568,-56 748.074,-43.3035 710.357,-31.01 682.897,-22.49"/>
<polygon fill="midnightblue" stroke="midnightblue" points="683.86,-19.1244 673.273,-19.528 681.801,-25.8147 683.86,-19.1244"/>
</g>
<!-- Node32 -->
<g id="node33" class="node"><title>Node32</title>
<polygon fill="none" stroke="#bfbfbf" points="694.068,-0.5 694.068,-19.5 751.068,-19.5 751.068,-0.5 694.068,-0.5"/>
<text text-anchor="middle" x="722.568" y="-7.5" font-family="Helvetica,sans-Serif" font-size="10.00">complex</text>
</g>
<!-- Node30&#45;&gt;Node32 -->
<g id="edge36" class="edge"><title>Node30&#45;&gt;Node32</title>
<path fill="none" stroke="midnightblue" d="M799.673,-61.9751C785.104,-52.3431 761.166,-36.5175 743.823,-25.0517"/>
<polygon fill="midnightblue" stroke="midnightblue" points="745.711,-22.1044 735.439,-19.5091 741.851,-27.9437 745.711,-22.1044"/>
</g>
<!-- Node33 -->
<g id="node34" class="node"><title>Node33</title>
<polygon fill="none" stroke="#bfbfbf" points="769.068,-0.5 769.068,-19.5 832.068,-19.5 832.068,-0.5 769.068,-0.5"/>
<text text-anchor="middle" x="800.568" y="-7.5" font-family="Helvetica,sans-Serif" font-size="10.00">functional</text>
</g>
<!-- Node30&#45;&gt;Node33 -->
<g id="edge37" class="edge"><title>Node30&#45;&gt;Node33</title>
<path fill="none" stroke="midnightblue" d="M810.849,-61.9751C809.138,-53.4919 806.458,-40.2043 804.263,-29.3222"/>
<polygon fill="midnightblue" stroke="midnightblue" points="807.692,-28.6197 802.284,-19.5091 800.83,-30.0037 807.692,-28.6197"/>
</g>
<!-- Node34 -->
<g id="node35" class="node"><title>Node34</title>
<polygon fill="none" stroke="#bfbfbf" points="850.068,-0.5 850.068,-19.5 905.068,-19.5 905.068,-0.5 850.068,-0.5"/>
<text text-anchor="middle" x="877.568" y="-7.5" font-family="Helvetica,sans-Serif" font-size="10.00">unistd.h</text>
</g>
<!-- Node30&#45;&gt;Node34 -->
<g id="edge40" class="edge"><title>Node30&#45;&gt;Node34</title>
<path fill="none" stroke="midnightblue" d="M821.881,-61.9751C832.017,-52.6966 848.432,-37.6706 860.82,-26.331"/>
<polygon fill="midnightblue" stroke="midnightblue" points="863.259,-28.8429 868.272,-19.5091 858.533,-23.6795 863.259,-28.8429"/>
</g>
</g>
</svg>
        <g id="navigator" transform="translate(0 0)" fill="#404254">
                <rect fill="#f2f5e9" fill-opacity="0.5" stroke="#606060" stroke-width=".5" x="0" y="0" width="60" height="60"/>
                <use id="zoomplus" xlink:href="#zoomPlus" x="17" y="9" onmousedown="handleZoom(evt,'in')"/>
                <use id="zoomminus" xlink:href="#zoomMin" x="42" y="9" onmousedown="handleZoom(evt,'out')"/>
                <use id="reset" xlink:href="#resetDef" x="30" y="36" onmousedown="handleReset()"/>
                <g id="arrowUp" xlink:href="#dirArrow" transform="translate(30 24)" onmousedown="handlePan(0,-1)">
                  <use xlink:href="#rim" fill="#404040">
                        <set attributeName="fill" to="#808080" begin="arrowUp.mouseover" end="arrowUp.mouseout"/>
                  </use>
                  <path fill="none" stroke="white" stroke-width="1.5" d="M0,-3.0v7 M-2.5,-0.5L0,-3.0L2.5,-0.5"/>
                </g>
                <g id="arrowRight" xlink:href="#dirArrow" transform="rotate(90) translate(36 -43)" onmousedown="handlePan(1,0)">
                  <use xlink:href="#rim" fill="#404040">
                        <set attributeName="fill" to="#808080" begin="arrowRight.mouseover" end="arrowRight.mouseout"/>
                  </use>
                  <path fill="none" stroke="white" stroke-width="1.5" d="M0,-3.0v7 M-2.5,-0.5L0,-3.0L2.5,-0.5"/>
                </g>
                <g id="arrowDown" xlink:href="#dirArrow" transform="rotate(180) translate(-30 -48)" onmousedown="handlePan(0,1)">
                  <use xlink:href="#rim" fill="#404040">
                        <set attributeName="fill" to="#808080" begin="arrowDown.mouseover" end="arrowDown.mouseout"/>
                  </use>
                  <path fill="none" stroke="white" stroke-width="1.5" d="M0,-3.0v7 M-2.5,-0.5L0,-3.0L2.5,-0.5"/>
                </g>
                <g id="arrowLeft" xlink:href="#dirArrow" transform="rotate(270) translate(-36 17)" onmousedown="handlePan(-1,0)">
                  <use xlink:href="#rim" fill="#404040">
                        <set attributeName="fill" to="#808080" begin="arrowLeft.mouseover" end="arrowLeft.mouseout"/>
                  </use>
                  <path fill="none" stroke="white" stroke-width="1.5" d="M0,-3.0v7 M-2.5,-0.5L0,-3.0L2.5,-0.5"/>
                </g>
        </g>
        <svg viewBox="0 0 15 15" width="100%" height="30px" preserveAspectRatio="xMaxYMin meet">
         <g id="arrow_out" transform="scale(0.3 0.3)">
          <a xlink:href="State_8cpp__incl_org.svg" target="_base">
           <rect id="button" ry="5" rx="5" y="6" x="6" height="38" width="38"
                fill="#f2f5e9" fill-opacity="0.5" stroke="#606060" stroke-width="1.0"/>
           <path id="arrow"
             d="M 11.500037,31.436501 C 11.940474,20.09759 22.043105,11.32322 32.158766,21.979434 L 37.068811,17.246167 C 37.068811,17.246167 37.088388,32 37.088388,32 L 22.160133,31.978069 C 22.160133,31.978069 26.997745,27.140456 26.997745,27.140456 C 18.528582,18.264221 13.291696,25.230495 11.500037,31.436501 z"
             style="fill:#404040;"/>
          </a>
         </g>
        </svg>
</svg>
