<?xml version="1.0" encoding="UTF-8" standalone="no"?>
<!DOCTYPE svg PUBLIC "-//W3C//DTD SVG 1.1//EN"
 "http://www.w3.org/Graphics/SVG/1.1/DTD/svg11.dtd">
<!-- Generated by graphviz version 2.38.0 (20140413.2041)
 -->
<!-- Title: /travis/pairinteraction/StateOld.cpp Pages: 1 -->
<svg width="1646pt" height="285pt"
 viewBox="0.00 0.00 1646.00 285.00" xmlns="http://www.w3.org/2000/svg" xmlns:xlink="http://www.w3.org/1999/xlink">
<g id="graph0" class="graph" transform="scale(1 1) rotate(0) translate(4 281)">
<title>/travis/pairinteraction/StateOld.cpp</title>
<!-- Node0 -->
<g id="node1" class="node"><title>Node0</title>
<polygon fill="#bfbfbf" stroke="black" points="816.5,-246.5 816.5,-276.5 934.5,-276.5 934.5,-246.5 816.5,-246.5"/>
<text text-anchor="start" x="824.5" y="-264.5" font-family="Helvetica,sans-Serif" font-size="10.00">/travis/pairinteraction</text>
<text text-anchor="middle" x="875.5" y="-253.5" font-family="Helvetica,sans-Serif" font-size="10.00">/StateOld.cpp</text>
</g>
<!-- Node1 -->
<g id="node2" class="node"><title>Node1</title>
<g id="a_node2"><a xlink:href="StateOld_8h.html" target="_top" xlink:title="StateOld.h">
<polygon fill="none" stroke="black" points="542.5,-190.5 542.5,-209.5 610.5,-209.5 610.5,-190.5 542.5,-190.5"/>
<text text-anchor="middle" x="576.5" y="-197.5" font-family="Helvetica,sans-Serif" font-size="10.00">StateOld.h</text>
</a>
</g>
</g>
<!-- Node0&#45;&gt;Node1 -->
<g id="edge1" class="edge"><title>Node0&#45;&gt;Node1</title>
<path fill="none" stroke="midnightblue" d="M816.427,-248.745C758.828,-237.283 672.544,-220.112 620.664,-209.788"/>
<polygon fill="midnightblue" stroke="midnightblue" points="621.256,-206.338 610.765,-207.819 619.89,-213.203 621.256,-206.338"/>
</g>
<!-- Node2 -->
<g id="node3" class="node"><title>Node2</title>
<g id="a_node3"><a xlink:href="dtypes_8h.html" target="_top" xlink:title="dtypes.h">
<polygon fill="none" stroke="black" points="273.5,-129 273.5,-148 331.5,-148 331.5,-129 273.5,-129"/>
<text text-anchor="middle" x="302.5" y="-136" font-family="Helvetica,sans-Serif" font-size="10.00">dtypes.h</text>
</a>
</g>
</g>
<!-- Node0&#45;&gt;Node2 -->
<g id="edge46" class="edge"><title>Node0&#45;&gt;Node2</title>
<path fill="none" stroke="midnightblue" d="M816.349,-258.88C703.058,-255.054 459.912,-243.142 383.5,-210 355.827,-197.997 330.778,-173.005 316.091,-156.238"/>
<polygon fill="midnightblue" stroke="midnightblue" points="318.529,-153.701 309.396,-148.331 313.187,-158.224 318.529,-153.701"/>
</g>
<!-- Node5 -->
<g id="node6" class="node"><title>Node5</title>
<polygon fill="none" stroke="#bfbfbf" points="0,-62 0,-81 41,-81 41,-62 0,-62"/>
<text text-anchor="middle" x="20.5" y="-69" font-family="Helvetica,sans-Serif" font-size="10.00">array</text>
</g>
<!-- Node0&#45;&gt;Node5 -->
<g id="edge47" class="edge"><title>Node0&#45;&gt;Node5</title>
<path fill="none" stroke="midnightblue" d="M816.439,-258.201C718.344,-253.636 515.941,-241.045 347.5,-210 255.458,-193.036 229.754,-192.617 144.5,-154 104.341,-135.809 62.4594,-105.518 39.1056,-87.4334"/>
<polygon fill="midnightblue" stroke="midnightblue" points="41.1311,-84.5738 31.1044,-81.1509 36.808,-90.0794 41.1311,-84.5738"/>
</g>
<!-- Node10 -->
<g id="node11" class="node"><title>Node10</title>
<polygon fill="none" stroke="#bfbfbf" points="544,-62 544,-81 603,-81 603,-62 544,-62"/>
<text text-anchor="middle" x="573.5" y="-69" font-family="Helvetica,sans-Serif" font-size="10.00">iostream</text>
</g>
<!-- Node0&#45;&gt;Node10 -->
<g id="edge50" class="edge"><title>Node0&#45;&gt;Node10</title>
<path fill="none" stroke="midnightblue" d="M816.473,-259.224C746.798,-256.048 628.408,-245.363 533.5,-210 490.059,-193.814 467.808,-194.638 445.5,-154 438.87,-141.922 437.749,-134.391 445.5,-123 446.942,-120.881 504.003,-98.8973 541.445,-84.6421"/>
<polygon fill="midnightblue" stroke="midnightblue" points="542.855,-87.8504 550.958,-81.0253 540.367,-81.3073 542.855,-87.8504"/>
</g>
<!-- Node11 -->
<g id="node12" class="node"><title>Node11</title>
<polygon fill="none" stroke="#bfbfbf" points="663.5,-62 663.5,-81 707.5,-81 707.5,-62 663.5,-62"/>
<text text-anchor="middle" x="685.5" y="-69" font-family="Helvetica,sans-Serif" font-size="10.00">string</text>
</g>
<!-- Node0&#45;&gt;Node11 -->
<g id="edge51" class="edge"><title>Node0&#45;&gt;Node11</title>
<path fill="none" stroke="midnightblue" d="M875.567,-246.244C874.902,-218.571 869.422,-157.286 835.5,-123 796.637,-83.7201 768.103,-106.757 716.5,-87 715.078,-86.4556 713.63,-85.8749 712.176,-85.2707"/>
<polygon fill="midnightblue" stroke="midnightblue" points="713.251,-81.9192 702.69,-81.0757 710.42,-88.3211 713.251,-81.9192"/>
</g>
<!-- Node15 -->
<g id="node16" class="node"><title>Node15</title>
<g id="a_node16"><a xlink:href="QuantumDefect_8h.html" target="_top" xlink:title="QuantumDefect.h">
<polygon fill="none" stroke="black" points="1077.5,-190.5 1077.5,-209.5 1179.5,-209.5 1179.5,-190.5 1077.5,-190.5"/>
<text text-anchor="middle" x="1128.5" y="-197.5" font-family="Helvetica,sans-Serif" font-size="10.00">QuantumDefect.h</text>
</a>
</g>
</g>
<!-- Node0&#45;&gt;Node15 -->
<g id="edge17" class="edge"><title>Node0&#45;&gt;Node15</title>
<path fill="none" stroke="midnightblue" d="M934.817,-246.55C979.883,-235.951 1040.97,-221.584 1082.41,-211.84"/>
<polygon fill="midnightblue" stroke="midnightblue" points="1083.3,-215.225 1092.24,-209.528 1081.7,-208.411 1083.3,-215.225"/>
</g>
<!-- Node28 -->
<g id="node29" class="node"><title>Node28</title>
<polygon fill="none" stroke="#bfbfbf" points="1294.5,-62 1294.5,-81 1336.5,-81 1336.5,-62 1294.5,-62"/>
<text text-anchor="middle" x="1315.5" y="-69" font-family="Helvetica,sans-Serif" font-size="10.00">utility</text>
</g>
<!-- Node0&#45;&gt;Node28 -->
<g id="edge52" class="edge"><title>Node0&#45;&gt;Node28</title>
<path fill="none" stroke="midnightblue" d="M934.593,-255.59C1012.76,-248.314 1145.64,-233.001 1188.5,-210 1242.76,-180.883 1286.28,-119.535 1305.22,-89.6236"/>
<polygon fill="midnightblue" stroke="midnightblue" points="1308.21,-91.4438 1310.5,-81.0976 1302.26,-87.7626 1308.21,-91.4438"/>
</g>
<!-- Node35 -->
<g id="node36" class="node"><title>Node35</title>
<polygon fill="none" stroke="#bfbfbf" points="1251.5,-190.5 1251.5,-209.5 1299.5,-209.5 1299.5,-190.5 1251.5,-190.5"/>
<text text-anchor="middle" x="1275.5" y="-197.5" font-family="Helvetica,sans-Serif" font-size="10.00">cctype</text>
</g>
<!-- Node0&#45;&gt;Node35 -->
<g id="edge48" class="edge"><title>Node0&#45;&gt;Node35</title>
<path fill="none" stroke="midnightblue" d="M934.716,-253.971C1006.63,-245.643 1131.48,-229.905 1237.5,-210 1238.77,-209.761 1240.07,-209.507 1241.38,-209.242"/>
<polygon fill="midnightblue" stroke="midnightblue" points="1242.42,-212.598 1251.45,-207.056 1240.94,-205.757 1242.42,-212.598"/>
</g>
<!-- Node36 -->
<g id="node37" class="node"><title>Node36</title>
<polygon fill="none" stroke="#bfbfbf" points="1318,-190.5 1318,-209.5 1373,-209.5 1373,-190.5 1318,-190.5"/>
<text text-anchor="middle" x="1345.5" y="-197.5" font-family="Helvetica,sans-Serif" font-size="10.00">iomanip</text>
</g>
<!-- Node0&#45;&gt;Node36 -->
<g id="edge49" class="edge"><title>Node0&#45;&gt;Node36</title>
<path fill="none" stroke="midnightblue" d="M934.666,-255.912C1016.4,-249.063 1168.55,-234.472 1307.7,-209.934"/>
<polygon fill="midnightblue" stroke="midnightblue" points="1308.47,-213.352 1317.7,-208.15 1307.24,-206.461 1308.47,-213.352"/>
</g>
<!-- Node1&#45;&gt;Node2 -->
<g id="edge2" class="edge"><title>Node1&#45;&gt;Node2</title>
<path fill="none" stroke="midnightblue" d="M542.126,-193.77C496.715,-186.527 414.423,-172.247 345.5,-154 342.301,-153.153 338.995,-152.194 335.702,-151.182"/>
<polygon fill="midnightblue" stroke="midnightblue" points="336.577,-147.787 325.986,-148.047 334.428,-154.449 336.577,-147.787"/>
</g>
<!-- Node1&#45;&gt;Node5 -->
<g id="edge9" class="edge"><title>Node1&#45;&gt;Node5</title>
<path fill="none" stroke="midnightblue" d="M542.474,-195.88C484.784,-190.194 364.313,-176.6 264.5,-154 166.883,-131.897 142.341,-124.391 49.5,-87 48.2958,-86.515 47.0732,-85.9997 45.8453,-85.4636"/>
<polygon fill="midnightblue" stroke="midnightblue" points="47.0857,-82.1795 36.546,-81.1001 44.1122,-88.5165 47.0857,-82.1795"/>
</g>
<!-- Node6 -->
<g id="node7" class="node"><title>Node6</title>
<polygon fill="none" stroke="#bfbfbf" points="479,-62 479,-81 526,-81 526,-62 479,-62"/>
<text text-anchor="middle" x="502.5" y="-69" font-family="Helvetica,sans-Serif" font-size="10.00">cmath</text>
</g>
<!-- Node1&#45;&gt;Node6 -->
<g id="edge11" class="edge"><title>Node1&#45;&gt;Node6</title>
<path fill="none" stroke="midnightblue" d="M542.424,-197.772C511.455,-194.628 467.366,-184.631 445.5,-154 428.85,-130.676 457.747,-103.339 480.131,-86.996"/>
<polygon fill="midnightblue" stroke="midnightblue" points="482.379,-89.6952 488.579,-81.1039 478.375,-83.9537 482.379,-89.6952"/>
</g>
<!-- Node9 -->
<g id="node10" class="node"><title>Node9</title>
<polygon fill="none" stroke="#bfbfbf" points="903.5,-129 903.5,-148 1043.5,-148 1043.5,-129 903.5,-129"/>
<text text-anchor="middle" x="973.5" y="-136" font-family="Helvetica,sans-Serif" font-size="10.00">boost/functional/hash.hpp</text>
</g>
<!-- Node1&#45;&gt;Node9 -->
<g id="edge10" class="edge"><title>Node1&#45;&gt;Node9</title>
<path fill="none" stroke="midnightblue" d="M610.692,-193.876C676.298,-184.043 820.91,-162.369 906.425,-149.553"/>
<polygon fill="midnightblue" stroke="midnightblue" points="907.18,-152.979 916.551,-148.035 906.143,-146.056 907.18,-152.979"/>
</g>
<!-- Node1&#45;&gt;Node10 -->
<g id="edge12" class="edge"><title>Node1&#45;&gt;Node10</title>
<path fill="none" stroke="midnightblue" d="M542.453,-196.731C513.711,-192.807 474.186,-182.244 454.5,-154 446.622,-142.697 446.895,-134.489 454.5,-123 457.107,-119.061 507.765,-98.4569 542.137,-84.814"/>
<polygon fill="midnightblue" stroke="midnightblue" points="543.767,-87.9333 551.778,-81 541.192,-81.4241 543.767,-87.9333"/>
</g>
<!-- Node1&#45;&gt;Node11 -->
<g id="edge13" class="edge"><title>Node1&#45;&gt;Node11</title>
<path fill="none" stroke="midnightblue" d="M610.67,-197.795C670.792,-194.878 791.597,-185.187 817.5,-154 826.303,-143.401 825.44,-134.26 817.5,-123 790.036,-84.0546 760.578,-105.116 716.5,-87 715.126,-86.4353 713.725,-85.8427 712.315,-85.2329"/>
<polygon fill="midnightblue" stroke="midnightblue" points="713.632,-81.9873 703.076,-81.0748 710.759,-88.3706 713.632,-81.9873"/>
</g>
<!-- Node12 -->
<g id="node13" class="node"><title>Node12</title>
<polygon fill="none" stroke="#bfbfbf" points="463.5,-123.5 463.5,-153.5 567.5,-153.5 567.5,-123.5 463.5,-123.5"/>
<text text-anchor="start" x="471.5" y="-141.5" font-family="Helvetica,sans-Serif" font-size="10.00">boost/serialization</text>
<text text-anchor="middle" x="515.5" y="-130.5" font-family="Helvetica,sans-Serif" font-size="10.00">/array.hpp</text>
</g>
<!-- Node1&#45;&gt;Node12 -->
<g id="edge14" class="edge"><title>Node1&#45;&gt;Node12</title>
<path fill="none" stroke="midnightblue" d="M567.76,-190.475C559.807,-182.718 547.736,-170.943 537.198,-160.665"/>
<polygon fill="midnightblue" stroke="midnightblue" points="539.479,-158 529.876,-153.523 534.591,-163.011 539.479,-158"/>
</g>
<!-- Node13 -->
<g id="node14" class="node"><title>Node13</title>
<polygon fill="none" stroke="#bfbfbf" points="585.5,-123.5 585.5,-153.5 689.5,-153.5 689.5,-123.5 585.5,-123.5"/>
<text text-anchor="start" x="593.5" y="-141.5" font-family="Helvetica,sans-Serif" font-size="10.00">boost/serialization</text>
<text text-anchor="middle" x="637.5" y="-130.5" font-family="Helvetica,sans-Serif" font-size="10.00">/string.hpp</text>
</g>
<!-- Node1&#45;&gt;Node13 -->
<g id="edge15" class="edge"><title>Node1&#45;&gt;Node13</title>
<path fill="none" stroke="midnightblue" d="M585.24,-190.475C593.193,-182.718 605.264,-170.943 615.802,-160.665"/>
<polygon fill="midnightblue" stroke="midnightblue" points="618.409,-163.011 623.124,-153.523 613.521,-158 618.409,-163.011"/>
</g>
<!-- Node14 -->
<g id="node15" class="node"><title>Node14</title>
<polygon fill="none" stroke="#bfbfbf" points="708,-129 708,-148 809,-148 809,-129 708,-129"/>
<text text-anchor="middle" x="758.5" y="-136" font-family="Helvetica,sans-Serif" font-size="10.00">boost/variant.hpp</text>
</g>
<!-- Node1&#45;&gt;Node14 -->
<g id="edge16" class="edge"><title>Node1&#45;&gt;Node14</title>
<path fill="none" stroke="midnightblue" d="M602.576,-190.475C634.066,-180.18 687.198,-162.81 722.558,-151.25"/>
<polygon fill="midnightblue" stroke="midnightblue" points="724.055,-154.443 732.472,-148.009 721.88,-147.79 724.055,-154.443"/>
</g>
<!-- Node3 -->
<g id="node4" class="node"><title>Node3</title>
<polygon fill="none" stroke="#bfbfbf" points="59,-62 59,-81 136,-81 136,-62 59,-62"/>
<text text-anchor="middle" x="97.5" y="-69" font-family="Helvetica,sans-Serif" font-size="10.00">Eigen/Dense</text>
</g>
<!-- Node2&#45;&gt;Node3 -->
<g id="edge3" class="edge"><title>Node2&#45;&gt;Node3</title>
<path fill="none" stroke="midnightblue" d="M275.278,-128.869C239.031,-117.376 174.795,-97.0082 134.269,-84.1586"/>
<polygon fill="midnightblue" stroke="midnightblue" points="135.099,-80.7499 124.508,-81.0637 132.983,-87.4225 135.099,-80.7499"/>
</g>
<!-- Node4 -->
<g id="node5" class="node"><title>Node4</title>
<polygon fill="none" stroke="#bfbfbf" points="154.5,-62 154.5,-81 234.5,-81 234.5,-62 154.5,-62"/>
<text text-anchor="middle" x="194.5" y="-69" font-family="Helvetica,sans-Serif" font-size="10.00">Eigen/Sparse</text>
</g>
<!-- Node2&#45;&gt;Node4 -->
<g id="edge4" class="edge"><title>Node2&#45;&gt;Node4</title>
<path fill="none" stroke="midnightblue" d="M287.935,-128.734C269.879,-117.867 238.89,-99.2161 217.584,-86.3931"/>
<polygon fill="midnightblue" stroke="midnightblue" points="219.207,-83.2852 208.835,-81.1273 215.598,-89.2827 219.207,-83.2852"/>
</g>
<!-- Node2&#45;&gt;Node5 -->
<g id="edge5" class="edge"><title>Node2&#45;&gt;Node5</title>
<path fill="none" stroke="midnightblue" d="M273.387,-134.251C225.628,-128.359 128.094,-113.949 49.5,-87 48.069,-86.5093 46.6188,-85.9619 45.1693,-85.3749"/>
<polygon fill="midnightblue" stroke="midnightblue" points="46.3735,-82.0774 35.8226,-81.113 43.4692,-88.4465 46.3735,-82.0774"/>
</g>
<!-- Node2&#45;&gt;Node6 -->
<g id="edge6" class="edge"><title>Node2&#45;&gt;Node6</title>
<path fill="none" stroke="midnightblue" d="M327.453,-128.885C333.354,-126.903 339.637,-124.839 345.5,-123 400.257,-105.828 415.559,-106.585 469.5,-87 471.158,-86.398 472.851,-85.7528 474.551,-85.0812"/>
<polygon fill="midnightblue" stroke="midnightblue" points="476.294,-88.1462 484.173,-81.0629 473.597,-81.6869 476.294,-88.1462"/>
</g>
<!-- Node7 -->
<g id="node8" class="node"><title>Node7</title>
<polygon fill="none" stroke="#bfbfbf" points="253,-56.5 253,-86.5 396,-86.5 396,-56.5 253,-56.5"/>
<text text-anchor="start" x="261" y="-74.5" font-family="Helvetica,sans-Serif" font-size="10.00">unsupported/Eigen/CXX11</text>
<text text-anchor="middle" x="324.5" y="-63.5" font-family="Helvetica,sans-Serif" font-size="10.00">/Tensor</text>
</g>
<!-- Node2&#45;&gt;Node7 -->
<g id="edge7" class="edge"><title>Node2&#45;&gt;Node7</title>
<path fill="none" stroke="midnightblue" d="M305.467,-128.734C308.269,-120.456 312.599,-107.662 316.422,-96.3674"/>
<polygon fill="midnightblue" stroke="midnightblue" points="319.841,-97.1833 319.731,-86.589 313.21,-94.9391 319.841,-97.1833"/>
</g>
<!-- Node8 -->
<g id="node9" class="node"><title>Node8</title>
<polygon fill="none" stroke="#bfbfbf" points="414,-62 414,-81 461,-81 461,-62 414,-62"/>
<text text-anchor="middle" x="437.5" y="-69" font-family="Helvetica,sans-Serif" font-size="10.00">vector</text>
</g>
<!-- Node2&#45;&gt;Node8 -->
<g id="edge8" class="edge"><title>Node2&#45;&gt;Node8</title>
<path fill="none" stroke="midnightblue" d="M320.427,-128.869C343.423,-117.796 383.529,-98.4862 410.297,-85.5978"/>
<polygon fill="midnightblue" stroke="midnightblue" points="412.007,-88.6589 419.499,-81.1672 408.97,-82.3519 412.007,-88.6589"/>
</g>
<!-- Node15&#45;&gt;Node2 -->
<g id="edge40" class="edge"><title>Node15&#45;&gt;Node2</title>
<path fill="none" stroke="midnightblue" d="M1077.31,-196.081C964.66,-189.547 686.821,-172.833 454.5,-154 416.211,-150.896 372.564,-146.66 341.895,-143.568"/>
<polygon fill="midnightblue" stroke="midnightblue" points="341.92,-140.053 331.618,-142.526 341.214,-147.017 341.92,-140.053"/>
</g>
<!-- Node15&#45;&gt;Node9 -->
<g id="edge45" class="edge"><title>Node15&#45;&gt;Node9</title>
<path fill="none" stroke="midnightblue" d="M1106.29,-190.475C1079.82,-180.313 1035.39,-163.256 1005.28,-151.7"/>
<polygon fill="midnightblue" stroke="midnightblue" points="1006.26,-148.325 995.667,-148.009 1003.75,-154.86 1006.26,-148.325"/>
</g>
<!-- Node15&#45;&gt;Node11 -->
<g id="edge42" class="edge"><title>Node15&#45;&gt;Node11</title>
<path fill="none" stroke="midnightblue" d="M1121.13,-190.292C1105.52,-172.075 1069.17,-130.97 1052.5,-123 917.008,-58.2058 861.161,-127.367 716.5,-87 714.569,-86.461 712.607,-85.8121 710.658,-85.0917"/>
<polygon fill="midnightblue" stroke="midnightblue" points="711.775,-81.7632 701.202,-81.0707 709.035,-88.2049 711.775,-81.7632"/>
</g>
<!-- Node16 -->
<g id="node17" class="node"><title>Node16</title>
<g id="a_node17"><a xlink:href="Cache_8h.html" target="_top" xlink:title="Cache.h">
<polygon fill="none" stroke="black" points="1350.5,-129 1350.5,-148 1406.5,-148 1406.5,-129 1350.5,-129"/>
<text text-anchor="middle" x="1378.5" y="-136" font-family="Helvetica,sans-Serif" font-size="10.00">Cache.h</text>
</a>
</g>
</g>
<!-- Node15&#45;&gt;Node16 -->
<g id="edge18" class="edge"><title>Node15&#45;&gt;Node16</title>
<path fill="none" stroke="midnightblue" d="M1164.32,-190.475C1211.11,-179.339 1292.69,-159.922 1340.52,-148.538"/>
<polygon fill="midnightblue" stroke="midnightblue" points="1341.56,-151.889 1350.48,-146.168 1339.94,-145.079 1341.56,-151.889"/>
</g>
<!-- Node17 -->
<g id="node18" class="node"><title>Node17</title>
<polygon fill="none" stroke="#bfbfbf" points="1355,-62 1355,-81 1402,-81 1402,-62 1355,-62"/>
<text text-anchor="middle" x="1378.5" y="-69" font-family="Helvetica,sans-Serif" font-size="10.00">mutex</text>
</g>
<!-- Node15&#45;&gt;Node17 -->
<g id="edge41" class="edge"><title>Node15&#45;&gt;Node17</title>
<path fill="none" stroke="midnightblue" d="M1145.68,-190.305C1188.69,-168.542 1301.2,-111.615 1352.42,-85.6958"/>
<polygon fill="midnightblue" stroke="midnightblue" points="1354.18,-88.7264 1361.53,-81.0884 1351.02,-82.4804 1354.18,-88.7264"/>
</g>
<!-- Node18 -->
<g id="node19" class="node"><title>Node18</title>
<polygon fill="none" stroke="#bfbfbf" points="1545,-62 1545,-81 1638,-81 1638,-62 1545,-62"/>
<text text-anchor="middle" x="1591.5" y="-69" font-family="Helvetica,sans-Serif" font-size="10.00">unordered_map</text>
</g>
<!-- Node15&#45;&gt;Node18 -->
<g id="edge44" class="edge"><title>Node15&#45;&gt;Node18</title>
<path fill="none" stroke="midnightblue" d="M1179.58,-193.713C1269.13,-184.241 1447.59,-164.402 1474.5,-154 1514.25,-138.634 1553.45,-107.08 1574.86,-88.0578"/>
<polygon fill="midnightblue" stroke="midnightblue" points="1577.35,-90.5232 1582.41,-81.2122 1572.65,-85.3383 1577.35,-90.5232"/>
</g>
<!-- Node20 -->
<g id="node21" class="node"><title>Node20</title>
<g id="a_node21"><a xlink:href="SQLite_8h.html" target="_top" xlink:title="SQLite.h">
<polygon fill="none" stroke="black" points="1100,-129 1100,-148 1157,-148 1157,-129 1100,-129"/>
<text text-anchor="middle" x="1128.5" y="-136" font-family="Helvetica,sans-Serif" font-size="10.00">SQLite.h</text>
</a>
</g>
</g>
<!-- Node15&#45;&gt;Node20 -->
<g id="edge22" class="edge"><title>Node15&#45;&gt;Node20</title>
<path fill="none" stroke="midnightblue" d="M1128.5,-190.475C1128.5,-182.08 1128.5,-168.981 1128.5,-158.163"/>
<polygon fill="midnightblue" stroke="midnightblue" points="1132,-158.009 1128.5,-148.009 1125,-158.009 1132,-158.009"/>
</g>
<!-- Node34 -->
<g id="node35" class="node"><title>Node34</title>
<polygon fill="none" stroke="#bfbfbf" points="1425,-129 1425,-148 1466,-148 1466,-129 1425,-129"/>
<text text-anchor="middle" x="1445.5" y="-136" font-family="Helvetica,sans-Serif" font-size="10.00">tuple</text>
</g>
<!-- Node15&#45;&gt;Node34 -->
<g id="edge43" class="edge"><title>Node15&#45;&gt;Node34</title>
<path fill="none" stroke="midnightblue" d="M1179.56,-195.552C1237.76,-190.583 1335.23,-179.084 1415.5,-154 1417.17,-153.478 1418.86,-152.877 1420.55,-152.223"/>
<polygon fill="midnightblue" stroke="midnightblue" points="1422.23,-155.308 1429.98,-148.076 1419.41,-148.901 1422.23,-155.308"/>
</g>
<!-- Node16&#45;&gt;Node17 -->
<g id="edge19" class="edge"><title>Node16&#45;&gt;Node17</title>
<path fill="none" stroke="midnightblue" d="M1378.5,-128.734C1378.5,-119.183 1378.5,-103.618 1378.5,-91.2829"/>
<polygon fill="midnightblue" stroke="midnightblue" points="1382,-91.1273 1378.5,-81.1273 1375,-91.1273 1382,-91.1273"/>
</g>
<!-- Node16&#45;&gt;Node18 -->
<g id="edge20" class="edge"><title>Node16&#45;&gt;Node18</title>
<path fill="none" stroke="midnightblue" d="M1399.51,-128.873C1404.7,-126.85 1410.27,-124.77 1415.5,-123 1460.17,-107.876 1512.17,-93.3215 1548.01,-83.7555"/>
<polygon fill="midnightblue" stroke="midnightblue" points="1549.36,-87.019 1558.13,-81.0727 1547.56,-80.2529 1549.36,-87.019"/>
</g>
<!-- Node19 -->
<g id="node20" class="node"><title>Node19</title>
<polygon fill="none" stroke="#bfbfbf" points="1420.5,-62 1420.5,-81 1526.5,-81 1526.5,-62 1420.5,-62"/>
<text text-anchor="middle" x="1473.5" y="-69" font-family="Helvetica,sans-Serif" font-size="10.00">boost/optional.hpp</text>
</g>
<!-- Node16&#45;&gt;Node19 -->
<g id="edge21" class="edge"><title>Node16&#45;&gt;Node19</title>
<path fill="none" stroke="midnightblue" d="M1391.31,-128.734C1406.98,-118.013 1433.72,-99.7165 1452.43,-86.9137"/>
<polygon fill="midnightblue" stroke="midnightblue" points="1454.61,-89.6628 1460.89,-81.1273 1450.66,-83.8856 1454.61,-89.6628"/>
</g>
<!-- Node20&#45;&gt;Node10 -->
<g id="edge23" class="edge"><title>Node20&#45;&gt;Node10</title>
<path fill="none" stroke="midnightblue" d="M1099.74,-131.322C1085.57,-128.455 1068.2,-125.202 1052.5,-123 876.611,-98.3272 830.527,-110.671 654.5,-87 640.982,-85.1822 626.28,-82.7034 613.158,-80.3095"/>
<polygon fill="midnightblue" stroke="midnightblue" points="613.498,-76.8127 603.026,-78.4221 612.216,-83.6943 613.498,-76.8127"/>
</g>
<!-- Node20&#45;&gt;Node11 -->
<g id="edge27" class="edge"><title>Node20&#45;&gt;Node11</title>
<path fill="none" stroke="midnightblue" d="M1106.45,-128.992C1099.81,-126.72 1092.43,-124.487 1085.5,-123 924.384,-88.4498 875.423,-130.536 716.5,-87 714.566,-86.4702 712.603,-85.8281 710.653,-85.1124"/>
<polygon fill="midnightblue" stroke="midnightblue" points="711.767,-81.7833 701.194,-81.1015 709.034,-88.2278 711.767,-81.7833"/>
</g>
<!-- Node21 -->
<g id="node22" class="node"><title>Node21</title>
<polygon fill="none" stroke="#bfbfbf" points="1079,-62 1079,-81 1136,-81 1136,-62 1079,-62"/>
<text text-anchor="middle" x="1107.5" y="-69" font-family="Helvetica,sans-Serif" font-size="10.00">memory</text>
</g>
<!-- Node20&#45;&gt;Node21 -->
<g id="edge24" class="edge"><title>Node20&#45;&gt;Node21</title>
<path fill="none" stroke="midnightblue" d="M1125.67,-128.734C1122.55,-119.085 1117.45,-103.3 1113.45,-90.9063"/>
<polygon fill="midnightblue" stroke="midnightblue" points="1116.69,-89.567 1110.29,-81.1273 1110.03,-91.719 1116.69,-89.567"/>
</g>
<!-- Node22 -->
<g id="node23" class="node"><title>Node22</title>
<polygon fill="none" stroke="#bfbfbf" points="1079.5,-0.5 1079.5,-19.5 1133.5,-19.5 1133.5,-0.5 1079.5,-0.5"/>
<text text-anchor="middle" x="1106.5" y="-7.5" font-family="Helvetica,sans-Serif" font-size="10.00">random</text>
</g>
<!-- Node20&#45;&gt;Node22 -->
<g id="edge25" class="edge"><title>Node20&#45;&gt;Node22</title>
<path fill="none" stroke="midnightblue" d="M1133.26,-128.693C1140.82,-113.479 1153.81,-81.4591 1144.5,-56 1140.44,-44.9083 1132.31,-34.6651 1124.61,-26.7625"/>
<polygon fill="midnightblue" stroke="midnightblue" points="1126.86,-24.0747 1117.21,-19.6955 1122.03,-29.1351 1126.86,-24.0747"/>
</g>
<!-- Node23 -->
<g id="node24" class="node"><title>Node23</title>
<polygon fill="none" stroke="#bfbfbf" points="725.5,-62 725.5,-81 781.5,-81 781.5,-62 725.5,-62"/>
<text text-anchor="middle" x="753.5" y="-69" font-family="Helvetica,sans-Serif" font-size="10.00">sstream</text>
</g>
<!-- Node20&#45;&gt;Node23 -->
<g id="edge26" class="edge"><title>Node20&#45;&gt;Node23</title>
<path fill="none" stroke="midnightblue" d="M1105.98,-128.946C1099.45,-126.729 1092.26,-124.536 1085.5,-123 956.697,-93.7458 918.56,-119.354 790.5,-87 787.833,-86.3261 785.099,-85.5104 782.383,-84.6133"/>
<polygon fill="midnightblue" stroke="midnightblue" points="783.378,-81.2508 772.784,-81.1164 780.982,-87.828 783.378,-81.2508"/>
</g>
<!-- Node24 -->
<g id="node25" class="node"><title>Node24</title>
<polygon fill="none" stroke="#bfbfbf" points="799.5,-62 799.5,-81 847.5,-81 847.5,-62 799.5,-62"/>
<text text-anchor="middle" x="823.5" y="-69" font-family="Helvetica,sans-Serif" font-size="10.00">thread</text>
</g>
<!-- Node20&#45;&gt;Node24 -->
<g id="edge28" class="edge"><title>Node20&#45;&gt;Node24</title>
<path fill="none" stroke="midnightblue" d="M1105.5,-128.945C1099.09,-126.78 1092.08,-124.614 1085.5,-123 985.44,-98.4518 955.373,-115.963 856.5,-87 854.353,-86.3711 852.162,-85.635 849.982,-84.8341"/>
<polygon fill="midnightblue" stroke="midnightblue" points="851.236,-81.566 840.655,-81.0377 848.597,-88.0495 851.236,-81.566"/>
</g>
<!-- Node25 -->
<g id="node26" class="node"><title>Node25</title>
<polygon fill="none" stroke="#bfbfbf" points="1151.5,-0.5 1151.5,-19.5 1219.5,-19.5 1219.5,-0.5 1151.5,-0.5"/>
<text text-anchor="middle" x="1185.5" y="-7.5" font-family="Helvetica,sans-Serif" font-size="10.00">type_traits</text>
</g>
<!-- Node20&#45;&gt;Node25 -->
<g id="edge29" class="edge"><title>Node20&#45;&gt;Node25</title>
<path fill="none" stroke="midnightblue" d="M1134.86,-128.94C1141.87,-119.188 1153.14,-102.579 1160.5,-87 1169.38,-68.2023 1176.42,-45.4065 1180.74,-29.713"/>
<polygon fill="midnightblue" stroke="midnightblue" points="1184.21,-30.2624 1183.39,-19.6998 1177.45,-28.4715 1184.21,-30.2624"/>
</g>
<!-- Node26 -->
<g id="node27" class="node"><title>Node26</title>
<polygon fill="none" stroke="#bfbfbf" points="865.5,-56.5 865.5,-86.5 985.5,-86.5 985.5,-56.5 865.5,-56.5"/>
<text text-anchor="start" x="873.5" y="-74.5" font-family="Helvetica,sans-Serif" font-size="10.00">boost/iterator/iterator</text>
<text text-anchor="middle" x="925.5" y="-63.5" font-family="Helvetica,sans-Serif" font-size="10.00">_facade.hpp</text>
</g>
<!-- Node20&#45;&gt;Node26 -->
<g id="edge30" class="edge"><title>Node20&#45;&gt;Node26</title>
<path fill="none" stroke="midnightblue" d="M1103.52,-128.983C1097.62,-126.998 1091.34,-124.907 1085.5,-123 1050.64,-111.623 1011.38,-99.2251 980.473,-89.5603"/>
<polygon fill="midnightblue" stroke="midnightblue" points="981.337,-86.1633 970.748,-86.5232 979.25,-92.8451 981.337,-86.1633"/>
</g>
<!-- Node27 -->
<g id="node28" class="node"><title>Node27</title>
<polygon fill="none" stroke="#bfbfbf" points="1004,-62 1004,-81 1061,-81 1061,-62 1004,-62"/>
<text text-anchor="middle" x="1032.5" y="-69" font-family="Helvetica,sans-Serif" font-size="10.00">sqlite3.h</text>
</g>
<!-- Node20&#45;&gt;Node27 -->
<g id="edge31" class="edge"><title>Node20&#45;&gt;Node27</title>
<path fill="none" stroke="midnightblue" d="M1115.55,-128.734C1099.65,-117.964 1072.45,-99.55 1053.53,-86.7395"/>
<polygon fill="midnightblue" stroke="midnightblue" points="1055.48,-83.8357 1045.24,-81.1273 1051.56,-89.6321 1055.48,-83.8357"/>
</g>
<!-- Node20&#45;&gt;Node28 -->
<g id="edge32" class="edge"><title>Node20&#45;&gt;Node28</title>
<path fill="none" stroke="midnightblue" d="M1153.49,-128.995C1159.39,-127.008 1165.66,-124.915 1171.5,-123 1221.59,-106.578 1235.41,-106.206 1284.5,-87 1285.92,-86.4452 1287.36,-85.8562 1288.81,-85.2454"/>
<polygon fill="midnightblue" stroke="midnightblue" points="1290.58,-88.2916 1298.29,-81.0295 1287.73,-81.8958 1290.58,-88.2916"/>
</g>
<!-- Node29 -->
<g id="node30" class="node"><title>Node29</title>
<g id="a_node30"><a xlink:href="utils_8h.html" target="_top" xlink:title="utils.h">
<polygon fill="none" stroke="black" points="1231,-62 1231,-81 1276,-81 1276,-62 1231,-62"/>
<text text-anchor="middle" x="1253.5" y="-69" font-family="Helvetica,sans-Serif" font-size="10.00">utils.h</text>
</a>
</g>
</g>
<!-- Node20&#45;&gt;Node29 -->
<g id="edge33" class="edge"><title>Node20&#45;&gt;Node29</title>
<path fill="none" stroke="midnightblue" d="M1145.1,-128.869C1166.21,-117.893 1202.88,-98.8243 1227.66,-85.9385"/>
<polygon fill="midnightblue" stroke="midnightblue" points="1229.57,-88.886 1236.83,-81.1672 1226.35,-82.6755 1229.57,-88.886"/>
</g>
<!-- Node29&#45;&gt;Node22 -->
<g id="edge37" class="edge"><title>Node29&#45;&gt;Node22</title>
<path fill="none" stroke="midnightblue" d="M1232.44,-61.9751C1207.44,-51.8571 1165.56,-34.9046 1137.01,-23.3507"/>
<polygon fill="midnightblue" stroke="midnightblue" points="1138.11,-20.0168 1127.52,-19.5091 1135.48,-26.5054 1138.11,-20.0168"/>
</g>
<!-- Node29&#45;&gt;Node25 -->
<g id="edge38" class="edge"><title>Node29&#45;&gt;Node25</title>
<path fill="none" stroke="midnightblue" d="M1243.76,-61.9751C1233.15,-52.6966 1215.98,-37.6706 1203.02,-26.331"/>
<polygon fill="midnightblue" stroke="midnightblue" points="1205.06,-23.4601 1195.22,-19.5091 1200.45,-28.7282 1205.06,-23.4601"/>
</g>
<!-- Node30 -->
<g id="node31" class="node"><title>Node30</title>
<polygon fill="none" stroke="#bfbfbf" points="1392.5,-0.5 1392.5,-19.5 1454.5,-19.5 1454.5,-0.5 1392.5,-0.5"/>
<text text-anchor="middle" x="1423.5" y="-7.5" font-family="Helvetica,sans-Serif" font-size="10.00">algorithm</text>
</g>
<!-- Node29&#45;&gt;Node30 -->
<g id="edge34" class="edge"><title>Node29&#45;&gt;Node30</title>
<path fill="none" stroke="midnightblue" d="M1271.63,-61.8672C1276.12,-59.8442 1280.95,-57.766 1285.5,-56 1318.35,-43.247 1356.48,-31.0002 1384.33,-22.5114"/>
<polygon fill="midnightblue" stroke="midnightblue" points="1385.54,-25.8035 1394.1,-19.56 1383.51,-19.1029 1385.54,-25.8035"/>
</g>
<!-- Node31 -->
<g id="node32" class="node"><title>Node31</title>
<polygon fill="none" stroke="#bfbfbf" points="1473,-0.5 1473,-19.5 1530,-19.5 1530,-0.5 1473,-0.5"/>
<text text-anchor="middle" x="1501.5" y="-7.5" font-family="Helvetica,sans-Serif" font-size="10.00">complex</text>
</g>
<!-- Node29&#45;&gt;Node31 -->
<g id="edge35" class="edge"><title>Node29&#45;&gt;Node31</title>
<path fill="none" stroke="midnightblue" d="M1270.49,-61.9431C1275.26,-59.7782 1280.51,-57.6126 1285.5,-56 1359.3,-32.1549 1382.83,-36.8724 1462.84,-20.0452"/>
<polygon fill="midnightblue" stroke="midnightblue" points="1463.85,-23.4091 1472.89,-17.883 1462.38,-16.5659 1463.85,-23.4091"/>
</g>
<!-- Node32 -->
<g id="node33" class="node"><title>Node32</title>
<polygon fill="none" stroke="#bfbfbf" points="1238,-0.5 1238,-19.5 1301,-19.5 1301,-0.5 1238,-0.5"/>
<text text-anchor="middle" x="1269.5" y="-7.5" font-family="Helvetica,sans-Serif" font-size="10.00">functional</text>
</g>
<!-- Node29&#45;&gt;Node32 -->
<g id="edge36" class="edge"><title>Node29&#45;&gt;Node32</title>
<path fill="none" stroke="midnightblue" d="M1255.79,-61.9751C1258.07,-53.4919 1261.65,-40.2043 1264.57,-29.3222"/>
<polygon fill="midnightblue" stroke="midnightblue" points="1267.99,-30.0749 1267.21,-19.5091 1261.24,-28.2571 1267.99,-30.0749"/>
</g>
<!-- Node33 -->
<g id="node34" class="node"><title>Node33</title>
<polygon fill="none" stroke="#bfbfbf" points="1319,-0.5 1319,-19.5 1374,-19.5 1374,-0.5 1319,-0.5"/>
<text text-anchor="middle" x="1346.5" y="-7.5" font-family="Helvetica,sans-Serif" font-size="10.00">unistd.h</text>
</g>
<!-- Node29&#45;&gt;Node33 -->
<g id="edge39" class="edge"><title>Node29&#45;&gt;Node33</title>
<path fill="none" stroke="midnightblue" d="M1266.82,-61.9751C1281.88,-52.3431 1306.62,-36.5175 1324.54,-25.0517"/>
<polygon fill="midnightblue" stroke="midnightblue" points="1326.66,-27.8466 1333.2,-19.5091 1322.89,-21.9501 1326.66,-27.8466"/>
</g>
</g>
</svg>
