<?xml version="1.0" encoding="UTF-8" standalone="no"?>
<!DOCTYPE svg PUBLIC "-//W3C//DTD SVG 1.1//EN"
 "http://www.w3.org/Graphics/SVG/1.1/DTD/svg11.dtd">
<!-- Generated by graphviz version 2.38.0 (20140413.2041)
 -->
<!-- Title: /travis/pairinteraction/StateOld.h Pages: 1 -->
<svg width="996pt" height="173pt"
 viewBox="0.00 0.00 996.00 173.00" xmlns="http://www.w3.org/2000/svg" xmlns:xlink="http://www.w3.org/1999/xlink">
<g id="graph0" class="graph" transform="scale(1 1) rotate(0) translate(4 169)">
<title>/travis/pairinteraction/StateOld.h</title>
<!-- Node0 -->
<g id="node1" class="node"><title>Node0</title>
<polygon fill="#bfbfbf" stroke="black" points="473.5,-134.5 473.5,-164.5 591.5,-164.5 591.5,-134.5 473.5,-134.5"/>
<text text-anchor="start" x="481.5" y="-152.5" font-family="Helvetica,sans-Serif" font-size="10.00">/travis/pairinteraction</text>
<text text-anchor="middle" x="532.5" y="-141.5" font-family="Helvetica,sans-Serif" font-size="10.00">/StateOld.h</text>
</g>
<!-- Node1 -->
<g id="node2" class="node"><title>Node1</title>
<g id="a_node2"><a xlink:href="dtypes_8h.html" target="_top" xlink:title="dtypes.h">
<polygon fill="none" stroke="black" points="230.5,-73 230.5,-92 288.5,-92 288.5,-73 230.5,-73"/>
<text text-anchor="middle" x="259.5" y="-80" font-family="Helvetica,sans-Serif" font-size="10.00">dtypes.h</text>
</a>
</g>
</g>
<!-- Node0&#45;&gt;Node1 -->
<g id="edge1" class="edge"><title>Node0&#45;&gt;Node1</title>
<path fill="none" stroke="midnightblue" d="M473.455,-137.381C426.735,-128.141 360.014,-113.96 302.5,-98 299.485,-97.1633 296.37,-96.2372 293.259,-95.2695"/>
<polygon fill="midnightblue" stroke="midnightblue" points="294.056,-91.8484 283.464,-92.0959 291.898,-98.5076 294.056,-91.8484"/>
</g>
<!-- Node4 -->
<g id="node5" class="node"><title>Node4</title>
<polygon fill="none" stroke="#bfbfbf" points="0,-6 0,-25 41,-25 41,-6 0,-6"/>
<text text-anchor="middle" x="20.5" y="-13" font-family="Helvetica,sans-Serif" font-size="10.00">array</text>
</g>
<!-- Node0&#45;&gt;Node4 -->
<g id="edge8" class="edge"><title>Node0&#45;&gt;Node4</title>
<path fill="none" stroke="midnightblue" d="M473.247,-142.635C410.082,-135.516 307.521,-121.457 221.5,-98 142.35,-76.4171 124.491,-64.2688 49.5,-31 48.3423,-30.4864 47.1641,-29.9511 45.9779,-29.4018"/>
<polygon fill="midnightblue" stroke="midnightblue" points="47.4654,-26.2335 36.9371,-25.0475 44.4279,-32.5401 47.4654,-26.2335"/>
</g>
<!-- Node5 -->
<g id="node6" class="node"><title>Node5</title>
<polygon fill="none" stroke="#bfbfbf" points="479,-6 479,-25 526,-25 526,-6 479,-6"/>
<text text-anchor="middle" x="502.5" y="-13" font-family="Helvetica,sans-Serif" font-size="10.00">cmath</text>
</g>
<!-- Node0&#45;&gt;Node5 -->
<g id="edge10" class="edge"><title>Node0&#45;&gt;Node5</title>
<path fill="none" stroke="midnightblue" d="M473.036,-141.289C421.399,-133.661 352.329,-119.688 335.5,-98 327.053,-87.115 327.106,-77.9256 335.5,-67 373.332,-17.758 412.021,-51.8855 470.5,-31 472.159,-30.4077 473.85,-29.7645 475.546,-29.0894"/>
<polygon fill="midnightblue" stroke="midnightblue" points="477.286,-32.1523 485.109,-25.0074 474.538,-25.7143 477.286,-32.1523"/>
</g>
<!-- Node8 -->
<g id="node9" class="node"><title>Node8</title>
<polygon fill="none" stroke="#bfbfbf" points="344.5,-73 344.5,-92 484.5,-92 484.5,-73 344.5,-73"/>
<text text-anchor="middle" x="414.5" y="-80" font-family="Helvetica,sans-Serif" font-size="10.00">boost/functional/hash.hpp</text>
</g>
<!-- Node0&#45;&gt;Node8 -->
<g id="edge9" class="edge"><title>Node0&#45;&gt;Node8</title>
<path fill="none" stroke="midnightblue" d="M506.896,-134.396C486.649,-123.243 458.58,-107.781 438.706,-96.8336"/>
<polygon fill="midnightblue" stroke="midnightblue" points="440.391,-93.7663 429.943,-92.007 437.014,-99.8976 440.391,-93.7663"/>
</g>
<!-- Node9 -->
<g id="node10" class="node"><title>Node9</title>
<polygon fill="none" stroke="#bfbfbf" points="503,-73 503,-92 562,-92 562,-73 503,-73"/>
<text text-anchor="middle" x="532.5" y="-80" font-family="Helvetica,sans-Serif" font-size="10.00">iostream</text>
</g>
<!-- Node0&#45;&gt;Node9 -->
<g id="edge11" class="edge"><title>Node0&#45;&gt;Node9</title>
<path fill="none" stroke="midnightblue" d="M532.5,-134.396C532.5,-125.064 532.5,-112.714 532.5,-102.517"/>
<polygon fill="midnightblue" stroke="midnightblue" points="536,-102.195 532.5,-92.1945 529,-102.195 536,-102.195"/>
</g>
<!-- Node10 -->
<g id="node11" class="node"><title>Node10</title>
<polygon fill="none" stroke="#bfbfbf" points="580.5,-73 580.5,-92 624.5,-92 624.5,-73 580.5,-73"/>
<text text-anchor="middle" x="602.5" y="-80" font-family="Helvetica,sans-Serif" font-size="10.00">string</text>
</g>
<!-- Node0&#45;&gt;Node10 -->
<g id="edge12" class="edge"><title>Node0&#45;&gt;Node10</title>
<path fill="none" stroke="midnightblue" d="M547.689,-134.396C558.82,-124.06 573.936,-110.024 585.475,-99.309"/>
<polygon fill="midnightblue" stroke="midnightblue" points="588.19,-101.564 593.137,-92.1945 583.427,-96.4343 588.19,-101.564"/>
</g>
<!-- Node11 -->
<g id="node12" class="node"><title>Node11</title>
<polygon fill="none" stroke="#bfbfbf" points="642.5,-67.5 642.5,-97.5 746.5,-97.5 746.5,-67.5 642.5,-67.5"/>
<text text-anchor="start" x="650.5" y="-85.5" font-family="Helvetica,sans-Serif" font-size="10.00">boost/serialization</text>
<text text-anchor="middle" x="694.5" y="-74.5" font-family="Helvetica,sans-Serif" font-size="10.00">/array.hpp</text>
</g>
<!-- Node0&#45;&gt;Node11 -->
<g id="edge13" class="edge"><title>Node0&#45;&gt;Node11</title>
<path fill="none" stroke="midnightblue" d="M567.652,-134.396C591.746,-124.728 623.911,-111.823 649.822,-101.426"/>
<polygon fill="midnightblue" stroke="midnightblue" points="651.44,-104.549 659.417,-97.5765 648.833,-98.0521 651.44,-104.549"/>
</g>
<!-- Node12 -->
<g id="node13" class="node"><title>Node12</title>
<polygon fill="none" stroke="#bfbfbf" points="764.5,-67.5 764.5,-97.5 868.5,-97.5 868.5,-67.5 764.5,-67.5"/>
<text text-anchor="start" x="772.5" y="-85.5" font-family="Helvetica,sans-Serif" font-size="10.00">boost/serialization</text>
<text text-anchor="middle" x="816.5" y="-74.5" font-family="Helvetica,sans-Serif" font-size="10.00">/string.hpp</text>
</g>
<!-- Node0&#45;&gt;Node12 -->
<g id="edge14" class="edge"><title>Node0&#45;&gt;Node12</title>
<path fill="none" stroke="midnightblue" d="M591.698,-135.275C634.378,-125.698 693.625,-112.32 754.486,-98.2233"/>
<polygon fill="midnightblue" stroke="midnightblue" points="755.315,-101.624 764.265,-95.9552 753.733,-94.805 755.315,-101.624"/>
</g>
<!-- Node13 -->
<g id="node14" class="node"><title>Node13</title>
<polygon fill="none" stroke="#bfbfbf" points="887,-73 887,-92 988,-92 988,-73 887,-73"/>
<text text-anchor="middle" x="937.5" y="-80" font-family="Helvetica,sans-Serif" font-size="10.00">boost/variant.hpp</text>
</g>
<!-- Node0&#45;&gt;Node13 -->
<g id="edge15" class="edge"><title>Node0&#45;&gt;Node13</title>
<path fill="none" stroke="midnightblue" d="M591.687,-141.515C660.628,-132.991 777.805,-117.301 877.5,-98 883.024,-96.9306 888.805,-95.6901 894.506,-94.3935"/>
<polygon fill="midnightblue" stroke="midnightblue" points="895.673,-97.715 904.609,-92.0239 894.074,-90.8999 895.673,-97.715"/>
</g>
<!-- Node2 -->
<g id="node3" class="node"><title>Node2</title>
<polygon fill="none" stroke="#bfbfbf" points="59,-6 59,-25 136,-25 136,-6 59,-6"/>
<text text-anchor="middle" x="97.5" y="-13" font-family="Helvetica,sans-Serif" font-size="10.00">Eigen/Dense</text>
</g>
<!-- Node1&#45;&gt;Node2 -->
<g id="edge2" class="edge"><title>Node1&#45;&gt;Node2</title>
<path fill="none" stroke="midnightblue" d="M237.988,-72.8685C209.83,-61.5706 160.296,-41.6961 128.201,-28.8183"/>
<polygon fill="midnightblue" stroke="midnightblue" points="129.427,-25.5392 118.843,-25.0637 126.821,-32.0358 129.427,-25.5392"/>
</g>
<!-- Node3 -->
<g id="node4" class="node"><title>Node3</title>
<polygon fill="none" stroke="#bfbfbf" points="154.5,-6 154.5,-25 234.5,-25 234.5,-6 154.5,-6"/>
<text text-anchor="middle" x="194.5" y="-13" font-family="Helvetica,sans-Serif" font-size="10.00">Eigen/Sparse</text>
</g>
<!-- Node1&#45;&gt;Node3 -->
<g id="edge3" class="edge"><title>Node1&#45;&gt;Node3</title>
<path fill="none" stroke="midnightblue" d="M250.734,-72.7338C240.403,-62.403 223.037,-45.0371 210.332,-32.3315"/>
<polygon fill="midnightblue" stroke="midnightblue" points="212.673,-29.7235 203.127,-25.1273 207.724,-34.6733 212.673,-29.7235"/>
</g>
<!-- Node1&#45;&gt;Node4 -->
<g id="edge4" class="edge"><title>Node1&#45;&gt;Node4</title>
<path fill="none" stroke="midnightblue" d="M230.357,-76.6634C189.236,-69.3547 112.203,-53.8758 49.5,-31 48.1119,-30.4936 46.7035,-29.9386 45.2937,-29.3502"/>
<polygon fill="midnightblue" stroke="midnightblue" points="46.7137,-26.1509 36.1665,-25.1464 43.7852,-32.5089 46.7137,-26.1509"/>
</g>
<!-- Node1&#45;&gt;Node5 -->
<g id="edge5" class="edge"><title>Node1&#45;&gt;Node5</title>
<path fill="none" stroke="midnightblue" d="M283.458,-72.8823C289.62,-70.8145 296.271,-68.7117 302.5,-67 376.132,-46.7671 397.973,-54.8955 470.5,-31 472.368,-30.3845 474.274,-29.6939 476.177,-28.957"/>
<polygon fill="midnightblue" stroke="midnightblue" points="477.649,-32.1348 485.498,-25.0188 474.925,-25.6866 477.649,-32.1348"/>
</g>
<!-- Node6 -->
<g id="node7" class="node"><title>Node6</title>
<polygon fill="none" stroke="#bfbfbf" points="253,-0.5 253,-30.5 396,-30.5 396,-0.5 253,-0.5"/>
<text text-anchor="start" x="261" y="-18.5" font-family="Helvetica,sans-Serif" font-size="10.00">unsupported/Eigen/CXX11</text>
<text text-anchor="middle" x="324.5" y="-7.5" font-family="Helvetica,sans-Serif" font-size="10.00">/Tensor</text>
</g>
<!-- Node1&#45;&gt;Node6 -->
<g id="edge6" class="edge"><title>Node1&#45;&gt;Node6</title>
<path fill="none" stroke="midnightblue" d="M268.266,-72.7338C277.135,-63.8649 291.189,-49.8111 303.028,-37.9722"/>
<polygon fill="midnightblue" stroke="midnightblue" points="305.815,-40.135 310.411,-30.589 300.865,-35.1852 305.815,-40.135"/>
</g>
<!-- Node7 -->
<g id="node8" class="node"><title>Node7</title>
<polygon fill="none" stroke="#bfbfbf" points="414,-6 414,-25 461,-25 461,-6 414,-6"/>
<text text-anchor="middle" x="437.5" y="-13" font-family="Helvetica,sans-Serif" font-size="10.00">vector</text>
</g>
<!-- Node1&#45;&gt;Node7 -->
<g id="edge7" class="edge"><title>Node1&#45;&gt;Node7</title>
<path fill="none" stroke="midnightblue" d="M284.616,-72.9542C323.246,-59.7886 394.008,-35.5798 405.5,-31 406.916,-30.4355 408.361,-29.843 409.816,-29.2333"/>
<polygon fill="midnightblue" stroke="midnightblue" points="411.582,-32.2814 419.349,-25.0756 408.784,-25.8651 411.582,-32.2814"/>
</g>
</g>
</svg>
