<?xml version="1.0" encoding="UTF-8" standalone="no"?>
<!DOCTYPE svg PUBLIC "-//W3C//DTD SVG 1.1//EN"
 "http://www.w3.org/Graphics/SVG/1.1/DTD/svg11.dtd">
<!-- Generated by graphviz version 2.38.0 (20140413.2041)
 -->
<!-- Title: /travis/pairinteraction/SystemOne.cpp Pages: 1 -->
<svg width="3318pt" height="542pt"
 viewBox="0.00 0.00 3318.29 542.00" xmlns="http://www.w3.org/2000/svg" xmlns:xlink="http://www.w3.org/1999/xlink">
<g id="graph0" class="graph" transform="scale(1 1) rotate(0) translate(4 538)">
<title>/travis/pairinteraction/SystemOne.cpp</title>
<!-- Node0 -->
<g id="node1" class="node"><title>Node0</title>
<polygon fill="#bfbfbf" stroke="black" points="2985.29,-503.5 2985.29,-533.5 3103.29,-533.5 3103.29,-503.5 2985.29,-503.5"/>
<text text-anchor="start" x="2993.29" y="-521.5" font-family="Helvetica,sans-Serif" font-size="10.00">/travis/pairinteraction</text>
<text text-anchor="middle" x="3044.29" y="-510.5" font-family="Helvetica,sans-Serif" font-size="10.00">/SystemOne.cpp</text>
</g>
<!-- Node1 -->
<g id="node2" class="node"><title>Node1</title>
<g id="a_node2"><a xlink:href="SystemOne_8h.html" target="_top" xlink:title="SystemOne.h">
<polygon fill="none" stroke="black" points="1840.29,-447.5 1840.29,-466.5 1922.29,-466.5 1922.29,-447.5 1840.29,-447.5"/>
<text text-anchor="middle" x="1881.29" y="-454.5" font-family="Helvetica,sans-Serif" font-size="10.00">SystemOne.h</text>
</a>
</g>
</g>
<!-- Node0&#45;&gt;Node1 -->
<g id="edge1" class="edge"><title>Node0&#45;&gt;Node1</title>
<path fill="none" stroke="midnightblue" d="M2985.02,-514.468C2782.85,-504.125 2122.48,-470.339 1932.71,-460.631"/>
<polygon fill="midnightblue" stroke="midnightblue" points="1932.63,-457.122 1922.46,-460.106 1932.27,-464.113 1932.63,-457.122"/>
</g>
<!-- Node3 -->
<g id="node4" class="node"><title>Node3</title>
<g id="a_node4"><a xlink:href="dtypes_8h.html" target="_top" xlink:title="dtypes.h">
<polygon fill="none" stroke="black" points="1118.29,-129 1118.29,-148 1176.29,-148 1176.29,-129 1118.29,-129"/>
<text text-anchor="middle" x="1147.29" y="-136" font-family="Helvetica,sans-Serif" font-size="10.00">dtypes.h</text>
</a>
</g>
</g>
<!-- Node0&#45;&gt;Node3 -->
<g id="edge135" class="edge"><title>Node0&#45;&gt;Node3</title>
<path fill="none" stroke="midnightblue" d="M2985.12,-517.636C2580.6,-518.284 235.901,-517.435 133.288,-411 20.6956,-294.213 -184.609,-451.014 361.288,-313 690.793,-229.694 783.317,-250.206 1109.29,-154 1111.87,-153.239 1114.52,-152.384 1117.16,-151.48"/>
<polygon fill="midnightblue" stroke="midnightblue" points="1118.37,-154.764 1126.58,-148.067 1115.99,-148.183 1118.37,-154.764"/>
</g>
<!-- Node7 -->
<g id="node8" class="node"><title>Node7</title>
<polygon fill="none" stroke="#bfbfbf" points="222.788,-62 222.788,-81 269.788,-81 269.788,-62 222.788,-62"/>
<text text-anchor="middle" x="246.288" y="-69" font-family="Helvetica,sans-Serif" font-size="10.00">cmath</text>
</g>
<!-- Node0&#45;&gt;Node7 -->
<g id="edge137" class="edge"><title>Node0&#45;&gt;Node7</title>
<path fill="none" stroke="midnightblue" d="M2985.12,-517.345C2609.04,-516.239 558.717,-508.337 283.288,-467 171.236,-450.183 38.2883,-509.807 38.2883,-396.5 38.2883,-396.5 38.2883,-396.5 38.2883,-199 38.2883,-118.46 153.538,-87.7313 212.461,-77.2838"/>
<polygon fill="midnightblue" stroke="midnightblue" points="213.143,-80.7184 222.428,-75.6149 211.987,-73.8145 213.143,-80.7184"/>
</g>
<!-- Node9 -->
<g id="node10" class="node"><title>Node9</title>
<polygon fill="none" stroke="#bfbfbf" points="2341.79,-62 2341.79,-81 2388.79,-81 2388.79,-62 2341.79,-62"/>
<text text-anchor="middle" x="2365.29" y="-69" font-family="Helvetica,sans-Serif" font-size="10.00">vector</text>
</g>
<!-- Node0&#45;&gt;Node9 -->
<g id="edge144" class="edge"><title>Node0&#45;&gt;Node9</title>
<path fill="none" stroke="midnightblue" d="M3053.91,-503.187C3059.88,-493.445 3067.01,-480.005 3070.29,-467 3094.93,-369.149 3093.99,-312.717 3018.29,-246 2804.55,-57.6247 2666.07,-181.488 2397.29,-87 2395.63,-86.4159 2393.93,-85.7791 2392.24,-85.1089"/>
<polygon fill="midnightblue" stroke="midnightblue" points="2393.24,-81.7328 2382.67,-81.0399 2390.5,-88.1745 2393.24,-81.7328"/>
</g>
<!-- Node12 -->
<g id="node13" class="node"><title>Node12</title>
<polygon fill="none" stroke="#bfbfbf" points="1482.29,-62 1482.29,-81 1526.29,-81 1526.29,-62 1482.29,-62"/>
<text text-anchor="middle" x="1504.29" y="-69" font-family="Helvetica,sans-Serif" font-size="10.00">string</text>
</g>
<!-- Node0&#45;&gt;Node12 -->
<g id="edge140" class="edge"><title>Node0&#45;&gt;Node12</title>
<path fill="none" stroke="midnightblue" d="M2985.23,-512.535C2826.79,-498.429 2404.29,-455.301 2404.29,-396.5 2404.29,-396.5 2404.29,-396.5 2404.29,-327.5 2404.29,-253.222 2373.66,-227.057 2309.29,-190 2220.81,-139.067 1952.33,-168.619 1851.29,-154 1815.77,-148.861 1569.32,-98.4 1535.29,-87 1533.62,-86.4421 1531.93,-85.8197 1530.23,-85.1551"/>
<polygon fill="midnightblue" stroke="midnightblue" points="1531.3,-81.8031 1520.73,-81.0432 1528.52,-88.2273 1531.3,-81.8031"/>
</g>
<!-- Node29 -->
<g id="node30" class="node"><title>Node29</title>
<polygon fill="none" stroke="#bfbfbf" points="2214.29,-190.5 2214.29,-209.5 2300.29,-209.5 2300.29,-190.5 2214.29,-190.5"/>
<text text-anchor="middle" x="2257.29" y="-197.5" font-family="Helvetica,sans-Serif" font-size="10.00">unordered_set</text>
</g>
<!-- Node0&#45;&gt;Node29 -->
<g id="edge142" class="edge"><title>Node0&#45;&gt;Node29</title>
<path fill="none" stroke="midnightblue" d="M3048.66,-503.076C3051.47,-493.061 3054.84,-479.351 3056.29,-467 3064.57,-396.3 3062.53,-363.424 3012.29,-313 2963.88,-264.42 2939.54,-263.699 2873.29,-246 2767.76,-217.809 2440.05,-205.988 2310.64,-202.336"/>
<polygon fill="midnightblue" stroke="midnightblue" points="2310.66,-198.836 2300.57,-202.057 2310.47,-205.833 2310.66,-198.836"/>
</g>
<!-- Node39 -->
<g id="node40" class="node"><title>Node39</title>
<polygon fill="none" stroke="#bfbfbf" points="3070.29,-0.5 3070.29,-19.5 3138.29,-19.5 3138.29,-0.5 3070.29,-0.5"/>
<text text-anchor="middle" x="3104.29" y="-7.5" font-family="Helvetica,sans-Serif" font-size="10.00">type_traits</text>
</g>
<!-- Node0&#45;&gt;Node39 -->
<g id="edge141" class="edge"><title>Node0&#45;&gt;Node39</title>
<path fill="none" stroke="midnightblue" d="M3103.55,-507.634C3133.02,-500.346 3167.7,-487.92 3193.29,-467 3221.35,-444.056 3234.29,-432.747 3234.29,-396.5 3234.29,-396.5 3234.29,-396.5 3234.29,-137.5 3234.29,-81.9056 3172.47,-42.8298 3134.09,-23.9282"/>
<polygon fill="midnightblue" stroke="midnightblue" points="3135.42,-20.6873 3124.89,-19.5596 3132.42,-27.0107 3135.42,-20.6873"/>
</g>
<!-- Node42 -->
<g id="node43" class="node"><title>Node42</title>
<polygon fill="none" stroke="#bfbfbf" points="2985.29,-62 2985.29,-81 3027.29,-81 3027.29,-62 2985.29,-62"/>
<text text-anchor="middle" x="3006.29" y="-69" font-family="Helvetica,sans-Serif" font-size="10.00">utility</text>
</g>
<!-- Node0&#45;&gt;Node42 -->
<g id="edge143" class="edge"><title>Node0&#45;&gt;Node42</title>
<path fill="none" stroke="midnightblue" d="M3103.35,-505.72C3127.5,-498.235 3153.99,-486.192 3172.29,-467 3195.13,-443.044 3196.29,-429.599 3196.29,-396.5 3196.29,-396.5 3196.29,-396.5 3196.29,-327.5 3196.29,-216.016 3078.07,-121.748 3028.13,-86.9008"/>
<polygon fill="midnightblue" stroke="midnightblue" points="3029.88,-83.8531 3019.65,-81.0949 3025.93,-89.6303 3029.88,-83.8531"/>
</g>
<!-- Node56 -->
<g id="node57" class="node"><title>Node56</title>
<polygon fill="none" stroke="#bfbfbf" points="2808.29,-252 2808.29,-271 2864.29,-271 2864.29,-252 2808.29,-252"/>
<text text-anchor="middle" x="2836.29" y="-259" font-family="Helvetica,sans-Serif" font-size="10.00">numeric</text>
</g>
<!-- Node0&#45;&gt;Node56 -->
<g id="edge139" class="edge"><title>Node0&#45;&gt;Node56</title>
<path fill="none" stroke="midnightblue" d="M3044.7,-503.346C3044.97,-466.588 3040.46,-367.195 2987.29,-313 2957.37,-282.512 2908.56,-270.431 2874.56,-265.643"/>
<polygon fill="midnightblue" stroke="midnightblue" points="2874.88,-262.156 2864.52,-264.379 2874.01,-269.101 2874.88,-262.156"/>
</g>
<!-- Node68 -->
<g id="node69" class="node"><title>Node68</title>
<polygon fill="none" stroke="#bfbfbf" points="2936.29,-319 2936.29,-338 2978.29,-338 2978.29,-319 2936.29,-319"/>
<text text-anchor="middle" x="2957.29" y="-326" font-family="Helvetica,sans-Serif" font-size="10.00">limits</text>
</g>
<!-- Node0&#45;&gt;Node68 -->
<g id="edge138" class="edge"><title>Node0&#45;&gt;Node68</title>
<path fill="none" stroke="midnightblue" d="M3037.75,-503.369C3022.14,-469.65 2982.75,-384.522 2965.54,-347.34"/>
<polygon fill="midnightblue" stroke="midnightblue" points="2968.69,-345.812 2961.32,-338.206 2962.34,-348.751 2968.69,-345.812"/>
</g>
<!-- Node71 -->
<g id="node72" class="node"><title>Node71</title>
<polygon fill="none" stroke="#bfbfbf" points="3262.29,-447.5 3262.29,-466.5 3310.29,-466.5 3310.29,-447.5 3262.29,-447.5"/>
<text text-anchor="middle" x="3286.29" y="-454.5" font-family="Helvetica,sans-Serif" font-size="10.00">cctype</text>
</g>
<!-- Node0&#45;&gt;Node71 -->
<g id="edge136" class="edge"><title>Node0&#45;&gt;Node71</title>
<path fill="none" stroke="midnightblue" d="M3101.33,-503.475C3148.28,-491.932 3213.26,-475.956 3252.38,-466.336"/>
<polygon fill="midnightblue" stroke="midnightblue" points="3253.35,-469.703 3262.22,-463.917 3251.68,-462.906 3253.35,-469.703"/>
</g>
<!-- Node2 -->
<g id="node3" class="node"><title>Node2</title>
<g id="a_node3"><a xlink:href="State_8h.html" target="_top" xlink:title="State.h">
<polygon fill="none" stroke="black" points="390.288,-190.5 390.288,-209.5 442.288,-209.5 442.288,-190.5 390.288,-190.5"/>
<text text-anchor="middle" x="416.288" y="-197.5" font-family="Helvetica,sans-Serif" font-size="10.00">State.h</text>
</a>
</g>
</g>
<!-- Node1&#45;&gt;Node2 -->
<g id="edge2" class="edge"><title>Node1&#45;&gt;Node2</title>
<path fill="none" stroke="midnightblue" d="M1839.95,-455.583C1596.86,-453.037 363.252,-438.761 336.288,-411 284.857,-358.048 317.229,-309.25 355.288,-246 363.236,-232.791 376.683,-222.248 388.932,-214.697"/>
<polygon fill="midnightblue" stroke="midnightblue" points="391.028,-217.53 397.954,-209.512 387.54,-211.461 391.028,-217.53"/>
</g>
<!-- Node6 -->
<g id="node7" class="node"><title>Node6</title>
<polygon fill="none" stroke="#bfbfbf" points="463.788,-62 463.788,-81 504.788,-81 504.788,-62 463.788,-62"/>
<text text-anchor="middle" x="484.288" y="-69" font-family="Helvetica,sans-Serif" font-size="10.00">array</text>
</g>
<!-- Node1&#45;&gt;Node6 -->
<g id="edge127" class="edge"><title>Node1&#45;&gt;Node6</title>
<path fill="none" stroke="midnightblue" d="M1840.25,-455.633C1579.85,-453.218 167.467,-438.851 133.288,-411 104.456,-387.505 114.288,-366.694 114.288,-329.5 114.288,-329.5 114.288,-329.5 114.288,-199 114.288,-127.486 364.894,-88.0027 453.614,-76.2654"/>
<polygon fill="midnightblue" stroke="midnightblue" points="454.135,-79.7271 463.603,-74.9713 453.236,-72.7851 454.135,-79.7271"/>
</g>
<!-- Node1&#45;&gt;Node7 -->
<g id="edge131" class="edge"><title>Node1&#45;&gt;Node7</title>
<path fill="none" stroke="midnightblue" d="M1840.15,-455.829C1599.48,-454.702 381.999,-447.22 312.288,-411 213.376,-359.608 197.411,-315.789 162.288,-210 146.083,-161.19 196.479,-111.57 226.172,-87.4775"/>
<polygon fill="midnightblue" stroke="midnightblue" points="228.572,-90.0429 234.276,-81.1145 224.249,-84.5372 228.572,-90.0429"/>
</g>
<!-- Node10 -->
<g id="node11" class="node"><title>Node10</title>
<polygon fill="none" stroke="#bfbfbf" points="960.288,-129 960.288,-148 1100.29,-148 1100.29,-129 960.288,-129"/>
<text text-anchor="middle" x="1030.29" y="-136" font-family="Helvetica,sans-Serif" font-size="10.00">boost/functional/hash.hpp</text>
</g>
<!-- Node1&#45;&gt;Node10 -->
<g id="edge128" class="edge"><title>Node1&#45;&gt;Node10</title>
<path fill="none" stroke="midnightblue" d="M1840.26,-456.22C1608.01,-457.045 464.788,-455.407 361.288,-344 351.911,-333.906 352.857,-323.897 361.288,-313 371.158,-300.245 836.573,-186.477 985.186,-150.415"/>
<polygon fill="midnightblue" stroke="midnightblue" points="986.026,-153.813 994.919,-148.054 984.376,-147.01 986.026,-153.813"/>
</g>
<!-- Node17 -->
<g id="node18" class="node"><title>Node17</title>
<g id="a_node18"><a xlink:href="SystemBase_8h.html" target="_top" xlink:title="SystemBase.h">
<polygon fill="none" stroke="black" points="1838.29,-386 1838.29,-405 1924.29,-405 1924.29,-386 1838.29,-386"/>
<text text-anchor="middle" x="1881.29" y="-393" font-family="Helvetica,sans-Serif" font-size="10.00">SystemBase.h</text>
</a>
</g>
</g>
<!-- Node1&#45;&gt;Node17 -->
<g id="edge19" class="edge"><title>Node1&#45;&gt;Node17</title>
<path fill="none" stroke="midnightblue" d="M1881.29,-447.475C1881.29,-439.08 1881.29,-425.981 1881.29,-415.163"/>
<polygon fill="midnightblue" stroke="midnightblue" points="1884.79,-415.009 1881.29,-405.009 1877.79,-415.009 1884.79,-415.009"/>
</g>
<!-- Node28 -->
<g id="node29" class="node"><title>Node28</title>
<polygon fill="none" stroke="#bfbfbf" points="2164.29,-190.5 2164.29,-209.5 2196.29,-209.5 2196.29,-190.5 2164.29,-190.5"/>
<text text-anchor="middle" x="2180.29" y="-197.5" font-family="Helvetica,sans-Serif" font-size="10.00">set</text>
</g>
<!-- Node1&#45;&gt;Node28 -->
<g id="edge132" class="edge"><title>Node1&#45;&gt;Node28</title>
<path fill="none" stroke="midnightblue" d="M1922.42,-455.512C1971.39,-453.325 2054.33,-444.439 2116.29,-411 2189.31,-371.593 2215.12,-353.899 2246.29,-277 2251.46,-264.231 2252.73,-258.181 2246.29,-246 2237.73,-229.807 2220.44,-218.345 2205.7,-211.042"/>
<polygon fill="midnightblue" stroke="midnightblue" points="2207.05,-207.812 2196.5,-206.836 2204.14,-214.178 2207.05,-207.812"/>
</g>
<!-- Node34 -->
<g id="node35" class="node"><title>Node34</title>
<polygon fill="none" stroke="#bfbfbf" points="2406.79,-62 2406.79,-81 2499.79,-81 2499.79,-62 2406.79,-62"/>
<text text-anchor="middle" x="2453.29" y="-69" font-family="Helvetica,sans-Serif" font-size="10.00">unordered_map</text>
</g>
<!-- Node1&#45;&gt;Node34 -->
<g id="edge134" class="edge"><title>Node1&#45;&gt;Node34</title>
<path fill="none" stroke="midnightblue" d="M1922.49,-455.022C2114.41,-450.051 2914.45,-424.583 2987.29,-344 3072.23,-250.02 2923.88,-172.538 2807.29,-123 2708.72,-81.1189 2582.24,-72.7509 2510.23,-71.747"/>
<polygon fill="midnightblue" stroke="midnightblue" points="2510.04,-68.2452 2500.01,-71.6492 2509.97,-75.2448 2510.04,-68.2452"/>
</g>
<!-- Node1&#45;&gt;Node39 -->
<g id="edge133" class="edge"><title>Node1&#45;&gt;Node39</title>
<path fill="none" stroke="midnightblue" d="M1922.38,-455.486C2078.48,-453.305 2634.65,-443.385 2808.29,-411 2901.27,-393.658 2929.37,-392.974 3010.29,-344 3088.54,-296.642 3158.29,-292.466 3158.29,-201 3158.29,-201 3158.29,-201 3158.29,-137.5 3158.29,-95.525 3132.83,-51.5514 3116.87,-28.1143"/>
<polygon fill="midnightblue" stroke="midnightblue" points="3119.53,-25.8125 3110.91,-19.6555 3113.81,-29.8455 3119.53,-25.8125"/>
</g>
<!-- Node51 -->
<g id="node52" class="node"><title>Node51</title>
<polygon fill="none" stroke="#bfbfbf" points="2068.79,-246.5 2068.79,-276.5 2185.79,-276.5 2185.79,-246.5 2068.79,-246.5"/>
<text text-anchor="start" x="2076.79" y="-264.5" font-family="Helvetica,sans-Serif" font-size="10.00">boost/serialization</text>
<text text-anchor="middle" x="2127.29" y="-253.5" font-family="Helvetica,sans-Serif" font-size="10.00">/unordered_map.hpp</text>
</g>
<!-- Node1&#45;&gt;Node51 -->
<g id="edge130" class="edge"><title>Node1&#45;&gt;Node51</title>
<path fill="none" stroke="midnightblue" d="M1922.41,-453.078C1985.46,-446.126 2104.29,-422.708 2157.29,-344 2169.48,-325.895 2158.29,-302.205 2146.26,-285.035"/>
<polygon fill="midnightblue" stroke="midnightblue" points="2148.82,-282.611 2140.02,-276.715 2143.22,-286.814 2148.82,-282.611"/>
</g>
<!-- Node70 -->
<g id="node71" class="node"><title>Node70</title>
<polygon fill="none" stroke="#bfbfbf" points="142.288,-380.5 142.288,-410.5 246.288,-410.5 246.288,-380.5 142.288,-380.5"/>
<text text-anchor="start" x="150.288" y="-398.5" font-family="Helvetica,sans-Serif" font-size="10.00">boost/serialization</text>
<text text-anchor="middle" x="194.288" y="-387.5" font-family="Helvetica,sans-Serif" font-size="10.00">/base_object.hpp</text>
</g>
<!-- Node1&#45;&gt;Node70 -->
<g id="edge129" class="edge"><title>Node1&#45;&gt;Node70</title>
<path fill="none" stroke="midnightblue" d="M1840.24,-455.909C1620.32,-455.262 579.548,-450.146 260.288,-411 259.011,-410.843 257.722,-410.674 256.425,-410.492"/>
<polygon fill="midnightblue" stroke="midnightblue" points="256.796,-407.007 246.371,-408.893 255.697,-413.92 256.796,-407.007"/>
</g>
<!-- Node2&#45;&gt;Node3 -->
<g id="edge3" class="edge"><title>Node2&#45;&gt;Node3</title>
<path fill="none" stroke="midnightblue" d="M442.576,-197.76C561.144,-192.102 1043.25,-168.4 1109.29,-154 1112.36,-153.33 1115.52,-152.453 1118.63,-151.463"/>
<polygon fill="midnightblue" stroke="midnightblue" points="1120.05,-154.674 1128.3,-148.024 1117.7,-148.079 1120.05,-154.674"/>
</g>
<!-- Node2&#45;&gt;Node6 -->
<g id="edge10" class="edge"><title>Node2&#45;&gt;Node6</title>
<path fill="none" stroke="midnightblue" d="M390.134,-193.849C344.912,-184.684 256.077,-165.435 247.288,-154 238.892,-143.076 238.62,-133.71 247.288,-123 272.89,-91.3687 395.143,-78.7053 453.349,-74.4058"/>
<polygon fill="midnightblue" stroke="midnightblue" points="453.704,-77.8896 463.434,-73.6976 453.213,-70.9068 453.704,-77.8896"/>
</g>
<!-- Node2&#45;&gt;Node7 -->
<g id="edge12" class="edge"><title>Node2&#45;&gt;Node7</title>
<path fill="none" stroke="midnightblue" d="M405.824,-190.316C388.384,-175.933 352.138,-146.429 320.288,-123 303.065,-110.33 283.001,-96.7054 268.113,-86.8048"/>
<polygon fill="midnightblue" stroke="midnightblue" points="269.856,-83.761 259.584,-81.1633 265.994,-89.5994 269.856,-83.761"/>
</g>
<!-- Node2&#45;&gt;Node10 -->
<g id="edge11" class="edge"><title>Node2&#45;&gt;Node10</title>
<path fill="none" stroke="midnightblue" d="M442.671,-196.443C529.725,-188.007 810.234,-160.825 949.831,-147.297"/>
<polygon fill="midnightblue" stroke="midnightblue" points="950.426,-150.756 960.042,-146.307 949.751,-143.788 950.426,-150.756"/>
</g>
<!-- Node11 -->
<g id="node12" class="node"><title>Node11</title>
<polygon fill="none" stroke="#bfbfbf" points="864.788,-62 864.788,-81 923.788,-81 923.788,-62 864.788,-62"/>
<text text-anchor="middle" x="894.288" y="-69" font-family="Helvetica,sans-Serif" font-size="10.00">iostream</text>
</g>
<!-- Node2&#45;&gt;Node11 -->
<g id="edge13" class="edge"><title>Node2&#45;&gt;Node11</title>
<path fill="none" stroke="midnightblue" d="M410.56,-190.213C401.165,-174.596 385.153,-141.873 402.288,-123 430.202,-92.2547 733.005,-91.4911 774.288,-87 801.063,-84.0872 831.153,-80.4505 854.503,-77.5479"/>
<polygon fill="midnightblue" stroke="midnightblue" points="855.233,-80.9841 864.722,-76.2712 854.365,-74.0381 855.233,-80.9841"/>
</g>
<!-- Node2&#45;&gt;Node12 -->
<g id="edge14" class="edge"><title>Node2&#45;&gt;Node12</title>
<path fill="none" stroke="midnightblue" d="M415.451,-190.205C414.451,-173.963 414.989,-139.427 435.288,-123 479.884,-86.9119 1411.11,-98.6324 1467.29,-87 1470.3,-86.3766 1473.38,-85.5309 1476.42,-84.5591"/>
<polygon fill="midnightblue" stroke="midnightblue" points="1477.63,-87.8428 1485.84,-81.1434 1475.25,-81.2621 1477.63,-87.8428"/>
</g>
<!-- Node13 -->
<g id="node14" class="node"><title>Node13</title>
<polygon fill="none" stroke="#bfbfbf" points="256.788,-129 256.788,-148 311.788,-148 311.788,-129 256.788,-129"/>
<text text-anchor="middle" x="284.288" y="-136" font-family="Helvetica,sans-Serif" font-size="10.00">typeinfo</text>
</g>
<!-- Node2&#45;&gt;Node13 -->
<g id="edge15" class="edge"><title>Node2&#45;&gt;Node13</title>
<path fill="none" stroke="midnightblue" d="M397.376,-190.475C375.125,-180.445 337.976,-163.7 312.362,-152.155"/>
<polygon fill="midnightblue" stroke="midnightblue" points="313.721,-148.928 303.166,-148.009 310.844,-155.309 313.721,-148.928"/>
</g>
<!-- Node14 -->
<g id="node15" class="node"><title>Node14</title>
<polygon fill="none" stroke="#bfbfbf" points="564.288,-123.5 564.288,-153.5 668.288,-153.5 668.288,-123.5 564.288,-123.5"/>
<text text-anchor="start" x="572.288" y="-141.5" font-family="Helvetica,sans-Serif" font-size="10.00">boost/serialization</text>
<text text-anchor="middle" x="616.288" y="-130.5" font-family="Helvetica,sans-Serif" font-size="10.00">/array.hpp</text>
</g>
<!-- Node2&#45;&gt;Node14 -->
<g id="edge16" class="edge"><title>Node2&#45;&gt;Node14</title>
<path fill="none" stroke="midnightblue" d="M442.435,-191.221C471.886,-182.46 520.646,-167.954 559.045,-156.53"/>
<polygon fill="midnightblue" stroke="midnightblue" points="560.482,-159.754 569.069,-153.548 558.486,-153.045 560.482,-159.754"/>
</g>
<!-- Node15 -->
<g id="node16" class="node"><title>Node15</title>
<polygon fill="none" stroke="#bfbfbf" points="686.288,-123.5 686.288,-153.5 790.288,-153.5 790.288,-123.5 686.288,-123.5"/>
<text text-anchor="start" x="694.288" y="-141.5" font-family="Helvetica,sans-Serif" font-size="10.00">boost/serialization</text>
<text text-anchor="middle" x="738.288" y="-130.5" font-family="Helvetica,sans-Serif" font-size="10.00">/string.hpp</text>
</g>
<!-- Node2&#45;&gt;Node15 -->
<g id="edge17" class="edge"><title>Node2&#45;&gt;Node15</title>
<path fill="none" stroke="midnightblue" d="M442.321,-195.065C487.733,-188.082 584.576,-172.667 676.111,-154.168"/>
<polygon fill="midnightblue" stroke="midnightblue" points="676.993,-157.561 686.093,-152.134 675.595,-150.702 676.993,-157.561"/>
</g>
<!-- Node16 -->
<g id="node17" class="node"><title>Node16</title>
<polygon fill="none" stroke="#bfbfbf" points="444.788,-129 444.788,-148 545.788,-148 545.788,-129 444.788,-129"/>
<text text-anchor="middle" x="495.288" y="-136" font-family="Helvetica,sans-Serif" font-size="10.00">boost/variant.hpp</text>
</g>
<!-- Node2&#45;&gt;Node16 -->
<g id="edge18" class="edge"><title>Node2&#45;&gt;Node16</title>
<path fill="none" stroke="midnightblue" d="M427.607,-190.475C440.161,-181.02 460.64,-165.596 475.788,-154.187"/>
<polygon fill="midnightblue" stroke="midnightblue" points="478.108,-156.821 483.991,-148.009 473.897,-151.23 478.108,-156.821"/>
</g>
<!-- Node4 -->
<g id="node5" class="node"><title>Node4</title>
<polygon fill="none" stroke="#bfbfbf" points="1001.79,-62 1001.79,-81 1078.79,-81 1078.79,-62 1001.79,-62"/>
<text text-anchor="middle" x="1040.29" y="-69" font-family="Helvetica,sans-Serif" font-size="10.00">Eigen/Dense</text>
</g>
<!-- Node3&#45;&gt;Node4 -->
<g id="edge4" class="edge"><title>Node3&#45;&gt;Node4</title>
<path fill="none" stroke="midnightblue" d="M1132.86,-128.734C1114.97,-117.867 1084.27,-99.2161 1063.16,-86.3931"/>
<polygon fill="midnightblue" stroke="midnightblue" points="1064.85,-83.3279 1054.49,-81.1273 1061.22,-89.3105 1064.85,-83.3279"/>
</g>
<!-- Node5 -->
<g id="node6" class="node"><title>Node5</title>
<polygon fill="none" stroke="#bfbfbf" points="685.288,-62 685.288,-81 765.288,-81 765.288,-62 685.288,-62"/>
<text text-anchor="middle" x="725.288" y="-69" font-family="Helvetica,sans-Serif" font-size="10.00">Eigen/Sparse</text>
</g>
<!-- Node3&#45;&gt;Node5 -->
<g id="edge5" class="edge"><title>Node3&#45;&gt;Node5</title>
<path fill="none" stroke="midnightblue" d="M1127.46,-128.93C1121.69,-126.712 1115.31,-124.523 1109.29,-123 1077.6,-114.989 872.574,-90.0201 775.762,-78.4705"/>
<polygon fill="midnightblue" stroke="midnightblue" points="775.968,-74.9704 765.624,-77.2629 775.14,-81.9212 775.968,-74.9704"/>
</g>
<!-- Node3&#45;&gt;Node6 -->
<g id="edge6" class="edge"><title>Node3&#45;&gt;Node6</title>
<path fill="none" stroke="midnightblue" d="M1127.89,-128.886C1122.02,-126.611 1115.49,-124.403 1109.29,-123 1094.62,-119.68 639.174,-84.4323 515.188,-74.8775"/>
<polygon fill="midnightblue" stroke="midnightblue" points="515.128,-71.3626 504.889,-74.0842 514.591,-78.342 515.128,-71.3626"/>
</g>
<!-- Node3&#45;&gt;Node7 -->
<g id="edge7" class="edge"><title>Node3&#45;&gt;Node7</title>
<path fill="none" stroke="midnightblue" d="M1128.31,-128.937C1122.34,-126.605 1115.64,-124.352 1109.29,-123 824.126,-62.3043 745.274,-105.138 454.288,-87 392.803,-83.1674 321.143,-78.0224 280.009,-75.0037"/>
<polygon fill="midnightblue" stroke="midnightblue" points="280.218,-71.5097 269.988,-74.2659 279.704,-78.4908 280.218,-71.5097"/>
</g>
<!-- Node8 -->
<g id="node9" class="node"><title>Node8</title>
<polygon fill="none" stroke="#bfbfbf" points="1096.79,-56.5 1096.79,-86.5 1239.79,-86.5 1239.79,-56.5 1096.79,-56.5"/>
<text text-anchor="start" x="1104.79" y="-74.5" font-family="Helvetica,sans-Serif" font-size="10.00">unsupported/Eigen/CXX11</text>
<text text-anchor="middle" x="1168.29" y="-63.5" font-family="Helvetica,sans-Serif" font-size="10.00">/Tensor</text>
</g>
<!-- Node3&#45;&gt;Node8 -->
<g id="edge8" class="edge"><title>Node3&#45;&gt;Node8</title>
<path fill="none" stroke="midnightblue" d="M1150.12,-128.734C1152.79,-120.456 1156.93,-107.662 1160.58,-96.3674"/>
<polygon fill="midnightblue" stroke="midnightblue" points="1163.99,-97.1808 1163.74,-86.589 1157.33,-95.0287 1163.99,-97.1808"/>
</g>
<!-- Node3&#45;&gt;Node9 -->
<g id="edge9" class="edge"><title>Node3&#45;&gt;Node9</title>
<path fill="none" stroke="midnightblue" d="M1176.58,-135.529C1221.94,-132.525 1311.88,-126.755 1388.29,-123 1597.97,-112.695 2127.7,-134.053 2332.29,-87 2334.66,-86.4556 2337.06,-85.743 2339.45,-84.9257"/>
<polygon fill="midnightblue" stroke="midnightblue" points="2340.93,-88.1006 2348.92,-81.1392 2338.33,-81.6006 2340.93,-88.1006"/>
</g>
<!-- Node17&#45;&gt;Node2 -->
<g id="edge91" class="edge"><title>Node17&#45;&gt;Node2</title>
<path fill="none" stroke="midnightblue" d="M1838.28,-394.735C1596.36,-395.851 414.009,-398.501 361.288,-344 326.109,-307.633 373.578,-246.356 400.294,-217.268"/>
<polygon fill="midnightblue" stroke="midnightblue" points="403.17,-219.32 407.499,-209.65 398.085,-214.51 403.17,-219.32"/>
</g>
<!-- Node17&#45;&gt;Node3 -->
<g id="edge99" class="edge"><title>Node17&#45;&gt;Node3</title>
<path fill="none" stroke="midnightblue" d="M1860.61,-385.848C1839.02,-376.522 1804.45,-360.748 1776.29,-344 1756.04,-331.959 1755.53,-320.784 1733.29,-313 1655.91,-285.912 1052.83,-336.371 996.288,-277 949.366,-227.73 1057.64,-175.064 1114.8,-151.778"/>
<polygon fill="midnightblue" stroke="midnightblue" points="1116.18,-154.997 1124.17,-148.038 1113.58,-148.496 1116.18,-154.997"/>
</g>
<!-- Node17&#45;&gt;Node9 -->
<g id="edge126" class="edge"><title>Node17&#45;&gt;Node9</title>
<path fill="none" stroke="midnightblue" d="M1924.33,-392.007C2043.03,-383.965 2366.29,-353.691 2366.29,-262.5 2366.29,-262.5 2366.29,-262.5 2366.29,-199 2366.29,-160.701 2365.82,-115.882 2365.53,-91.1968"/>
<polygon fill="midnightblue" stroke="midnightblue" points="2369.03,-91.045 2365.4,-81.0892 2362.03,-91.1319 2369.03,-91.045"/>
</g>
<!-- Node17&#45;&gt;Node12 -->
<g id="edge122" class="edge"><title>Node17&#45;&gt;Node12</title>
<path fill="none" stroke="midnightblue" d="M1868.67,-385.921C1854.2,-376.014 1829.81,-359.135 1809.29,-344 1791.19,-330.65 1790.38,-320.824 1769.29,-313 1696.06,-285.832 1121.08,-333.623 1067.29,-277 1057.8,-267.011 1059.55,-257.399 1067.29,-246 1068.82,-243.743 1372.89,-124.126 1472.85,-84.8483"/>
<polygon fill="midnightblue" stroke="midnightblue" points="1474.38,-88.0082 1482.41,-81.0937 1471.82,-81.493 1474.38,-88.0082"/>
</g>
<!-- Node18 -->
<g id="node19" class="node"><title>Node18</title>
<g id="a_node19"><a xlink:href="MatrixElementCache_8h.html" target="_top" xlink:title="MatrixElementCache.h">
<polygon fill="none" stroke="black" points="1818.79,-319 1818.79,-338 1943.79,-338 1943.79,-319 1818.79,-319"/>
<text text-anchor="middle" x="1881.29" y="-326" font-family="Helvetica,sans-Serif" font-size="10.00">MatrixElementCache.h</text>
</a>
</g>
</g>
<!-- Node17&#45;&gt;Node18 -->
<g id="edge20" class="edge"><title>Node17&#45;&gt;Node18</title>
<path fill="none" stroke="midnightblue" d="M1881.29,-385.734C1881.29,-376.183 1881.29,-360.618 1881.29,-348.283"/>
<polygon fill="midnightblue" stroke="midnightblue" points="1884.79,-348.127 1881.29,-338.127 1877.79,-348.127 1884.79,-348.127"/>
</g>
<!-- Node27 -->
<g id="node28" class="node"><title>Node27</title>
<polygon fill="none" stroke="#bfbfbf" points="2076.79,-62 2076.79,-81 2133.79,-81 2133.79,-62 2076.79,-62"/>
<text text-anchor="middle" x="2105.29" y="-69" font-family="Helvetica,sans-Serif" font-size="10.00">memory</text>
</g>
<!-- Node17&#45;&gt;Node27 -->
<g id="edge118" class="edge"><title>Node17&#45;&gt;Node27</title>
<path fill="none" stroke="midnightblue" d="M1924.49,-391.098C1992.52,-385.008 2120.66,-370.348 2157.29,-344 2195.08,-316.813 2212.96,-288.648 2194.29,-246 2184.83,-224.391 2168.35,-229.639 2155.29,-210 2129.81,-171.711 2115.36,-118.804 2109.09,-91.1088"/>
<polygon fill="midnightblue" stroke="midnightblue" points="2112.48,-90.2385 2106.95,-81.2011 2105.64,-91.7143 2112.48,-90.2385"/>
</g>
<!-- Node17&#45;&gt;Node28 -->
<g id="edge120" class="edge"><title>Node17&#45;&gt;Node28</title>
<path fill="none" stroke="midnightblue" d="M1924.45,-392.007C1999.02,-386.966 2148.03,-373.439 2190.29,-344 2228.62,-317.298 2246.86,-288.865 2228.29,-246 2223.02,-233.84 2212.67,-223.459 2202.92,-215.743"/>
<polygon fill="midnightblue" stroke="midnightblue" points="2204.79,-212.771 2194.66,-209.67 2200.64,-218.412 2204.79,-212.771"/>
</g>
<!-- Node17&#45;&gt;Node29 -->
<g id="edge124" class="edge"><title>Node17&#45;&gt;Node29</title>
<path fill="none" stroke="midnightblue" d="M1924.48,-393.425C2005.57,-390.564 2176.47,-380.282 2221.29,-344 2258.68,-313.728 2260.57,-250.843 2258.94,-219.537"/>
<polygon fill="midnightblue" stroke="midnightblue" points="2262.43,-219.281 2258.23,-209.552 2255.45,-219.773 2262.43,-219.281"/>
</g>
<!-- Node17&#45;&gt;Node34 -->
<g id="edge123" class="edge"><title>Node17&#45;&gt;Node34</title>
<path fill="none" stroke="midnightblue" d="M1924.43,-394.19C2075.57,-392.758 2580.43,-384.949 2736.29,-344 2752.68,-339.694 2864.32,-291.375 2873.29,-277 2960.65,-137.026 2643.89,-90.374 2510.16,-77.1192"/>
<polygon fill="midnightblue" stroke="midnightblue" points="2510.38,-73.6243 2500.09,-76.1502 2509.71,-80.5921 2510.38,-73.6243"/>
</g>
<!-- Node17&#45;&gt;Node42 -->
<g id="edge125" class="edge"><title>Node17&#45;&gt;Node42</title>
<path fill="none" stroke="midnightblue" d="M1924.35,-393.617C2100.14,-389.824 2758.28,-373.75 2846.29,-344 2852.54,-341.888 2940.39,-282.318 2944.29,-277 2987.23,-218.437 3000.75,-129.866 3004.74,-91.4187"/>
<polygon fill="midnightblue" stroke="midnightblue" points="3008.25,-91.4662 3005.69,-81.1848 3001.28,-90.8173 3008.25,-91.4662"/>
</g>
<!-- Node44 -->
<g id="node45" class="node"><title>Node44</title>
<polygon fill="none" stroke="#bfbfbf" points="1915.29,-0.5 1915.29,-19.5 1977.29,-19.5 1977.29,-0.5 1915.29,-0.5"/>
<text text-anchor="middle" x="1946.29" y="-7.5" font-family="Helvetica,sans-Serif" font-size="10.00">algorithm</text>
</g>
<!-- Node17&#45;&gt;Node44 -->
<g id="edge105" class="edge"><title>Node17&#45;&gt;Node44</title>
<path fill="none" stroke="midnightblue" d="M1902.71,-385.906C1919.6,-377.851 1941.96,-364.03 1952.29,-344 1958.61,-331.756 1956.65,-326.071 1952.29,-313 1945.96,-294.026 1931.61,-295.974 1925.29,-277 1917.51,-253.668 1937.09,-85.9905 1943.99,-29.5129"/>
<polygon fill="midnightblue" stroke="midnightblue" points="1947.47,-29.8598 1945.22,-19.5069 1940.52,-29.0041 1947.47,-29.8598"/>
</g>
<!-- Node45 -->
<g id="node46" class="node"><title>Node45</title>
<polygon fill="none" stroke="#bfbfbf" points="2751.79,-0.5 2751.79,-19.5 2808.79,-19.5 2808.79,-0.5 2751.79,-0.5"/>
<text text-anchor="middle" x="2780.29" y="-7.5" font-family="Helvetica,sans-Serif" font-size="10.00">complex</text>
</g>
<!-- Node17&#45;&gt;Node45 -->
<g id="edge114" class="edge"><title>Node17&#45;&gt;Node45</title>
<path fill="none" stroke="midnightblue" d="M1924.38,-394.925C2081.49,-396.038 2622.81,-395.932 2786.29,-344 2813.03,-335.506 2874.53,-297.864 2893.29,-277 2918.4,-249.061 2930.29,-238.568 2930.29,-201 2930.29,-201 2930.29,-201 2930.29,-137.5 2930.29,-78.1175 2860.74,-40.9523 2816.36,-23.2809"/>
<polygon fill="midnightblue" stroke="midnightblue" points="2817.35,-19.9134 2806.76,-19.6048 2814.85,-26.4503 2817.35,-19.9134"/>
</g>
<!-- Node46 -->
<g id="node47" class="node"><title>Node46</title>
<polygon fill="none" stroke="#bfbfbf" points="2880.79,-0.5 2880.79,-19.5 2943.79,-19.5 2943.79,-0.5 2880.79,-0.5"/>
<text text-anchor="middle" x="2912.29" y="-7.5" font-family="Helvetica,sans-Serif" font-size="10.00">functional</text>
</g>
<!-- Node17&#45;&gt;Node46 -->
<g id="edge115" class="edge"><title>Node17&#45;&gt;Node46</title>
<path fill="none" stroke="midnightblue" d="M1924.53,-393.894C2105.01,-391.151 2792.93,-378.502 2883.29,-344 2894.36,-339.772 2959.11,-286.435 2966.29,-277 3028.65,-194.983 3095.42,-140.371 3036.29,-56 3017.85,-29.6936 2982.39,-18.7052 2954.09,-14.1462"/>
<polygon fill="midnightblue" stroke="midnightblue" points="2954.43,-10.6589 2944.04,-12.741 2953.46,-17.5915 2954.43,-10.6589"/>
</g>
<!-- Node50 -->
<g id="node51" class="node"><title>Node50</title>
<polygon fill="none" stroke="#bfbfbf" points="1934.29,-252 1934.29,-271 2050.29,-271 2050.29,-252 1934.29,-252"/>
<text text-anchor="middle" x="1992.29" y="-259" font-family="Helvetica,sans-Serif" font-size="10.00">boost/filesystem.hpp</text>
</g>
<!-- Node17&#45;&gt;Node50 -->
<g id="edge106" class="edge"><title>Node17&#45;&gt;Node50</title>
<path fill="none" stroke="midnightblue" d="M1920.75,-385.965C1943.81,-378.804 1971.26,-366.067 1986.29,-344 1998.93,-325.444 1998.23,-298.686 1995.86,-280.957"/>
<polygon fill="midnightblue" stroke="midnightblue" points="1999.3,-280.313 1994.23,-271.013 1992.39,-281.448 1999.3,-280.313"/>
</g>
<!-- Node53 -->
<g id="node54" class="node"><title>Node53</title>
<g id="a_node54"><a xlink:href="WignerD_8h.html" target="_top" xlink:title="WignerD.h">
<polygon fill="none" stroke="black" points="2614.79,-319 2614.79,-338 2679.79,-338 2679.79,-319 2614.79,-319"/>
<text text-anchor="middle" x="2647.29" y="-326" font-family="Helvetica,sans-Serif" font-size="10.00">WignerD.h</text>
</a>
</g>
</g>
<!-- Node17&#45;&gt;Node53 -->
<g id="edge92" class="edge"><title>Node17&#45;&gt;Node53</title>
<path fill="none" stroke="midnightblue" d="M1924.39,-390.843C2058.9,-379.428 2469.96,-344.548 2604.31,-333.147"/>
<polygon fill="midnightblue" stroke="midnightblue" points="2604.93,-336.607 2614.6,-332.274 2604.34,-329.632 2604.93,-336.607"/>
</g>
<!-- Node17&#45;&gt;Node56 -->
<g id="edge119" class="edge"><title>Node17&#45;&gt;Node56</title>
<path fill="none" stroke="midnightblue" d="M1924.39,-394.3C2070.18,-393.235 2543.84,-386.506 2689.29,-344 2738.61,-329.586 2789.63,-296.439 2816.68,-277.151"/>
<polygon fill="midnightblue" stroke="midnightblue" points="2818.86,-279.895 2824.9,-271.188 2814.75,-274.229 2818.86,-279.895"/>
</g>
<!-- Node57 -->
<g id="node58" class="node"><title>Node57</title>
<g id="a_node58"><a xlink:href="serialization__eigen_8h.html" target="_top" xlink:title="serialization_eigen.h">
<polygon fill="none" stroke="black" points="171.288,-190.5 171.288,-209.5 285.288,-209.5 285.288,-190.5 171.288,-190.5"/>
<text text-anchor="middle" x="228.288" y="-197.5" font-family="Helvetica,sans-Serif" font-size="10.00">serialization_eigen.h</text>
</a>
</g>
</g>
<!-- Node17&#45;&gt;Node57 -->
<g id="edge100" class="edge"><title>Node17&#45;&gt;Node57</title>
<path fill="none" stroke="midnightblue" d="M1837.92,-394.083C1595.24,-391.621 413.946,-377.928 345.288,-344 290.276,-316.815 252.149,-250.409 236.39,-218.577"/>
<polygon fill="midnightblue" stroke="midnightblue" points="239.543,-217.058 232.066,-209.551 233.23,-220.082 239.543,-217.058"/>
</g>
<!-- Node58 -->
<g id="node59" class="node"><title>Node58</title>
<g id="a_node59"><a xlink:href="serialization__path_8h.html" target="_top" xlink:title="serialization_path.h">
<polygon fill="none" stroke="black" points="2038.29,-319 2038.29,-338 2148.29,-338 2148.29,-319 2038.29,-319"/>
<text text-anchor="middle" x="2093.29" y="-326" font-family="Helvetica,sans-Serif" font-size="10.00">serialization_path.h</text>
</a>
</g>
</g>
<!-- Node17&#45;&gt;Node58 -->
<g id="edge102" class="edge"><title>Node17&#45;&gt;Node58</title>
<path fill="none" stroke="midnightblue" d="M1909.44,-385.869C1947.08,-374.327 2013.92,-353.835 2055.79,-340.996"/>
<polygon fill="midnightblue" stroke="midnightblue" points="2056.82,-344.341 2065.36,-338.064 2054.77,-337.649 2056.82,-344.341"/>
</g>
<!-- Node59 -->
<g id="node60" class="node"><title>Node59</title>
<polygon fill="none" stroke="#bfbfbf" points="370.788,-313.5 370.788,-343.5 509.788,-343.5 509.788,-313.5 370.788,-313.5"/>
<text text-anchor="start" x="378.788" y="-331.5" font-family="Helvetica,sans-Serif" font-size="10.00">unsupported/Eigen/Matrix</text>
<text text-anchor="middle" x="440.288" y="-320.5" font-family="Helvetica,sans-Serif" font-size="10.00">Functions</text>
</g>
<!-- Node17&#45;&gt;Node59 -->
<g id="edge104" class="edge"><title>Node17&#45;&gt;Node59</title>
<path fill="none" stroke="midnightblue" d="M1838.19,-393.741C1638.9,-390.106 804.759,-373.465 520.287,-343.958"/>
<polygon fill="midnightblue" stroke="midnightblue" points="520.31,-340.441 509.995,-342.858 519.566,-347.401 520.31,-340.441"/>
</g>
<!-- Node60 -->
<g id="node61" class="node"><title>Node60</title>
<polygon fill="none" stroke="#bfbfbf" points="528.288,-313.5 528.288,-343.5 668.288,-343.5 668.288,-313.5 528.288,-313.5"/>
<text text-anchor="start" x="536.288" y="-331.5" font-family="Helvetica,sans-Serif" font-size="10.00">boost/multi_index/hashed</text>
<text text-anchor="middle" x="598.288" y="-320.5" font-family="Helvetica,sans-Serif" font-size="10.00">_index.hpp</text>
</g>
<!-- Node17&#45;&gt;Node60 -->
<g id="edge107" class="edge"><title>Node17&#45;&gt;Node60</title>
<path fill="none" stroke="midnightblue" d="M1838.2,-394.861C1682.9,-395.704 1137.3,-394.717 678.564,-344.028"/>
<polygon fill="midnightblue" stroke="midnightblue" points="678.75,-340.527 668.424,-342.898 677.975,-347.484 678.75,-340.527"/>
</g>
<!-- Node61 -->
<g id="node62" class="node"><title>Node61</title>
<polygon fill="none" stroke="#bfbfbf" points="686.788,-319 686.788,-338 853.788,-338 853.788,-319 686.788,-319"/>
<text text-anchor="middle" x="770.288" y="-326" font-family="Helvetica,sans-Serif" font-size="10.00">boost/multi_index/member.hpp</text>
</g>
<!-- Node17&#45;&gt;Node61 -->
<g id="edge108" class="edge"><title>Node17&#45;&gt;Node61</title>
<path fill="none" stroke="midnightblue" d="M1838,-393.978C1697.19,-391.934 1239.56,-382.558 863.288,-344 852.212,-342.865 840.443,-341.307 829.135,-339.631"/>
<polygon fill="midnightblue" stroke="midnightblue" points="829.327,-336.12 818.912,-338.068 828.268,-343.04 829.327,-336.12"/>
</g>
<!-- Node62 -->
<g id="node63" class="node"><title>Node62</title>
<polygon fill="none" stroke="#bfbfbf" points="872.288,-313.5 872.288,-343.5 1014.29,-343.5 1014.29,-313.5 872.288,-313.5"/>
<text text-anchor="start" x="880.288" y="-331.5" font-family="Helvetica,sans-Serif" font-size="10.00">boost/multi_index/random</text>
<text text-anchor="middle" x="943.288" y="-320.5" font-family="Helvetica,sans-Serif" font-size="10.00">_access_index.hpp</text>
</g>
<!-- Node17&#45;&gt;Node62 -->
<g id="edge109" class="edge"><title>Node17&#45;&gt;Node62</title>
<path fill="none" stroke="midnightblue" d="M1838.27,-393.799C1713.81,-391.383 1342.52,-381.433 1024.66,-344.061"/>
<polygon fill="midnightblue" stroke="midnightblue" points="1024.66,-340.537 1014.32,-342.833 1023.84,-347.488 1024.66,-340.537"/>
</g>
<!-- Node63 -->
<g id="node64" class="node"><title>Node63</title>
<polygon fill="none" stroke="#bfbfbf" points="1032.79,-319 1032.79,-338 1205.79,-338 1205.79,-319 1032.79,-319"/>
<text text-anchor="middle" x="1119.29" y="-326" font-family="Helvetica,sans-Serif" font-size="10.00">boost/multi_index_container.hpp</text>
</g>
<!-- Node17&#45;&gt;Node63 -->
<g id="edge110" class="edge"><title>Node17&#45;&gt;Node63</title>
<path fill="none" stroke="midnightblue" d="M1837.94,-392.33C1731.61,-386.765 1449.47,-370.527 1215.29,-344 1204.15,-342.738 1192.32,-341.153 1180.9,-339.498"/>
<polygon fill="midnightblue" stroke="midnightblue" points="1181.42,-336.036 1171.01,-338.032 1180.39,-342.96 1181.42,-336.036"/>
</g>
<!-- Node64 -->
<g id="node65" class="node"><title>Node64</title>
<polygon fill="none" stroke="#bfbfbf" points="1224.29,-313.5 1224.29,-343.5 1328.29,-343.5 1328.29,-313.5 1224.29,-313.5"/>
<text text-anchor="start" x="1232.29" y="-331.5" font-family="Helvetica,sans-Serif" font-size="10.00">boost/serialization</text>
<text text-anchor="middle" x="1276.29" y="-320.5" font-family="Helvetica,sans-Serif" font-size="10.00">/complex.hpp</text>
</g>
<!-- Node17&#45;&gt;Node64 -->
<g id="edge111" class="edge"><title>Node17&#45;&gt;Node64</title>
<path fill="none" stroke="midnightblue" d="M1838.01,-392.555C1747.13,-388.027 1529.73,-374.855 1338.39,-344.029"/>
<polygon fill="midnightblue" stroke="midnightblue" points="1338.87,-340.561 1328.43,-342.405 1337.74,-347.47 1338.87,-340.561"/>
</g>
<!-- Node65 -->
<g id="node66" class="node"><title>Node65</title>
<polygon fill="none" stroke="#bfbfbf" points="1346.29,-313.5 1346.29,-343.5 1450.29,-343.5 1450.29,-313.5 1346.29,-313.5"/>
<text text-anchor="start" x="1354.29" y="-331.5" font-family="Helvetica,sans-Serif" font-size="10.00">boost/serialization</text>
<text text-anchor="middle" x="1398.29" y="-320.5" font-family="Helvetica,sans-Serif" font-size="10.00">/set.hpp</text>
</g>
<!-- Node17&#45;&gt;Node65 -->
<g id="edge112" class="edge"><title>Node17&#45;&gt;Node65</title>
<path fill="none" stroke="midnightblue" d="M1838.22,-390.984C1763.33,-384.514 1604.13,-369.192 1460.34,-344.061"/>
<polygon fill="midnightblue" stroke="midnightblue" points="1460.91,-340.608 1450.45,-342.313 1459.69,-347.501 1460.91,-340.608"/>
</g>
<!-- Node66 -->
<g id="node67" class="node"><title>Node66</title>
<polygon fill="none" stroke="#bfbfbf" points="1468.29,-313.5 1468.29,-343.5 1572.29,-343.5 1572.29,-313.5 1468.29,-313.5"/>
<text text-anchor="start" x="1476.29" y="-331.5" font-family="Helvetica,sans-Serif" font-size="10.00">boost/serialization</text>
<text text-anchor="middle" x="1520.29" y="-320.5" font-family="Helvetica,sans-Serif" font-size="10.00">/vector.hpp</text>
</g>
<!-- Node17&#45;&gt;Node66 -->
<g id="edge113" class="edge"><title>Node17&#45;&gt;Node66</title>
<path fill="none" stroke="midnightblue" d="M1838.15,-388.162C1781.66,-379.659 1679.34,-363.562 1582.44,-344.159"/>
<polygon fill="midnightblue" stroke="midnightblue" points="1582.98,-340.696 1572.48,-342.148 1581.59,-347.557 1582.98,-340.696"/>
</g>
<!-- Node67 -->
<g id="node68" class="node"><title>Node67</title>
<polygon fill="none" stroke="#bfbfbf" points="1590.29,-319 1590.29,-338 1642.29,-338 1642.29,-319 1590.29,-319"/>
<text text-anchor="middle" x="1616.29" y="-326" font-family="Helvetica,sans-Serif" font-size="10.00">iterator</text>
</g>
<!-- Node17&#45;&gt;Node67 -->
<g id="edge116" class="edge"><title>Node17&#45;&gt;Node67</title>
<path fill="none" stroke="midnightblue" d="M1837.88,-387.333C1791.19,-379.079 1715.06,-364.037 1651.29,-344 1649.15,-343.327 1646.95,-342.576 1644.76,-341.78"/>
<polygon fill="midnightblue" stroke="midnightblue" points="1645.91,-338.469 1635.32,-338.098 1643.36,-344.991 1645.91,-338.469"/>
</g>
<!-- Node17&#45;&gt;Node68 -->
<g id="edge117" class="edge"><title>Node17&#45;&gt;Node68</title>
<path fill="none" stroke="midnightblue" d="M1924.56,-394.374C2096,-393.573 2727.64,-387.654 2922.29,-344 2924.96,-343.4 2927.7,-342.611 2930.4,-341.71"/>
<polygon fill="midnightblue" stroke="midnightblue" points="2931.77,-344.931 2939.87,-338.098 2929.28,-338.39 2931.77,-344.931"/>
</g>
<!-- Node69 -->
<g id="node70" class="node"><title>Node69</title>
<polygon fill="none" stroke="#bfbfbf" points="1660.29,-319 1660.29,-338 1724.29,-338 1724.29,-319 1660.29,-319"/>
<text text-anchor="middle" x="1692.29" y="-326" font-family="Helvetica,sans-Serif" font-size="10.00">stdexcept</text>
</g>
<!-- Node17&#45;&gt;Node69 -->
<g id="edge121" class="edge"><title>Node17&#45;&gt;Node69</title>
<path fill="none" stroke="midnightblue" d="M1856.19,-385.869C1822.91,-374.424 1764.05,-354.181 1726.66,-341.322"/>
<polygon fill="midnightblue" stroke="midnightblue" points="1727.78,-338.006 1717.19,-338.064 1725.51,-344.626 1727.78,-338.006"/>
</g>
<!-- Node18&#45;&gt;Node2 -->
<g id="edge45" class="edge"><title>Node18&#45;&gt;Node2</title>
<path fill="none" stroke="midnightblue" d="M1818.7,-320.651C1792.35,-317.955 1761.36,-315.026 1733.29,-313 1389.37,-288.181 1301.62,-308.976 958.288,-277 766.69,-259.156 539.041,-221.982 452.285,-207.229"/>
<polygon fill="midnightblue" stroke="midnightblue" points="452.861,-203.777 442.415,-205.544 451.683,-210.677 452.861,-203.777"/>
</g>
<!-- Node18&#45;&gt;Node3 -->
<g id="edge79" class="edge"><title>Node18&#45;&gt;Node3</title>
<path fill="none" stroke="midnightblue" d="M1820.5,-318.983C1803.03,-316.766 1783.93,-314.564 1766.29,-313 1727.56,-309.565 1094.07,-305.194 1067.29,-277 1030.99,-238.787 1093.26,-181.141 1127.32,-154.267"/>
<polygon fill="midnightblue" stroke="midnightblue" points="1129.5,-157.002 1135.29,-148.128 1125.23,-151.456 1129.5,-157.002"/>
</g>
<!-- Node18&#45;&gt;Node10 -->
<g id="edge83" class="edge"><title>Node18&#45;&gt;Node10</title>
<path fill="none" stroke="midnightblue" d="M1820.5,-318.971C1803.03,-316.754 1783.93,-314.555 1766.29,-313 1687.16,-306.027 1111.41,-330.047 1052.29,-277 1018.94,-247.081 1022.35,-188.421 1026.77,-158.312"/>
<polygon fill="midnightblue" stroke="midnightblue" points="1030.25,-158.73 1028.44,-148.29 1023.34,-157.579 1030.25,-158.73"/>
</g>
<!-- Node18&#45;&gt;Node12 -->
<g id="edge88" class="edge"><title>Node18&#45;&gt;Node12</title>
<path fill="none" stroke="midnightblue" d="M1837.19,-319C1765,-305.048 1629.34,-278.661 1627.29,-277 1569.44,-230.114 1604.88,-183.374 1561.29,-123 1551.32,-109.199 1536.96,-96.5067 1525.15,-87.2984"/>
<polygon fill="midnightblue" stroke="midnightblue" points="1527.2,-84.4559 1517.1,-81.2431 1522.99,-90.0506 1527.2,-84.4559"/>
</g>
<!-- Node19 -->
<g id="node20" class="node"><title>Node19</title>
<g id="a_node20"><a xlink:href="Basisnames_8h.html" target="_top" xlink:title="Basisnames.h">
<polygon fill="none" stroke="black" points="1496.29,-252 1496.29,-271 1580.29,-271 1580.29,-252 1496.29,-252"/>
<text text-anchor="middle" x="1538.29" y="-259" font-family="Helvetica,sans-Serif" font-size="10.00">Basisnames.h</text>
</a>
</g>
</g>
<!-- Node18&#45;&gt;Node19 -->
<g id="edge21" class="edge"><title>Node18&#45;&gt;Node19</title>
<path fill="none" stroke="midnightblue" d="M1836.52,-318.942C1825.96,-316.958 1814.73,-314.878 1804.29,-313 1711.09,-296.237 1686.87,-296.886 1594.29,-277 1589.32,-275.933 1584.13,-274.722 1579,-273.465"/>
<polygon fill="midnightblue" stroke="midnightblue" points="1579.83,-270.065 1569.28,-271.018 1578.12,-276.853 1579.83,-270.065"/>
</g>
<!-- Node22 -->
<g id="node23" class="node"><title>Node22</title>
<polygon fill="none" stroke="#bfbfbf" points="1544.29,-62 1544.29,-81 1600.29,-81 1600.29,-62 1544.29,-62"/>
<text text-anchor="middle" x="1572.29" y="-69" font-family="Helvetica,sans-Serif" font-size="10.00">sstream</text>
</g>
<!-- Node18&#45;&gt;Node22 -->
<g id="edge87" class="edge"><title>Node18&#45;&gt;Node22</title>
<path fill="none" stroke="midnightblue" d="M1875.21,-318.668C1856.7,-291.89 1800.91,-212.09 1778.29,-190 1741.58,-154.155 1728.77,-148.555 1684.29,-123 1658.35,-108.1 1627.22,-94.3688 1604.37,-84.9982"/>
<polygon fill="midnightblue" stroke="midnightblue" points="1605.39,-81.6379 1594.81,-81.1349 1602.77,-88.1277 1605.39,-81.6379"/>
</g>
<!-- Node18&#45;&gt;Node27 -->
<g id="edge86" class="edge"><title>Node18&#45;&gt;Node27</title>
<path fill="none" stroke="midnightblue" d="M1880.46,-318.761C1879.39,-303.096 1879.03,-269.666 1892.29,-246 1915.83,-203.989 2034.76,-120.303 2083.95,-86.827"/>
<polygon fill="midnightblue" stroke="midnightblue" points="2085.97,-89.6879 2092.28,-81.182 2082.04,-83.8922 2085.97,-89.6879"/>
</g>
<!-- Node30 -->
<g id="node31" class="node"><title>Node30</title>
<g id="a_node31"><a xlink:href="Wavefunction_8h.html" target="_top" xlink:title="Wavefunction.h">
<polygon fill="none" stroke="black" points="1636.79,-252 1636.79,-271 1725.79,-271 1725.79,-252 1636.79,-252"/>
<text text-anchor="middle" x="1681.29" y="-259" font-family="Helvetica,sans-Serif" font-size="10.00">Wavefunction.h</text>
</a>
</g>
</g>
<!-- Node18&#45;&gt;Node30 -->
<g id="edge46" class="edge"><title>Node18&#45;&gt;Node30</title>
<path fill="none" stroke="midnightblue" d="M1854.73,-318.869C1819.37,-307.376 1756.7,-287.008 1717.16,-274.159"/>
<polygon fill="midnightblue" stroke="midnightblue" points="1718.23,-270.826 1707.64,-271.064 1716.07,-277.483 1718.23,-270.826"/>
</g>
<!-- Node18&#45;&gt;Node34 -->
<g id="edge90" class="edge"><title>Node18&#45;&gt;Node34</title>
<path fill="none" stroke="midnightblue" d="M1883.44,-318.84C1888.08,-302.069 1900.65,-265.127 1925.29,-246 2058.81,-142.364 2136.04,-213.383 2294.29,-154 2344.87,-135.02 2400.21,-104.147 2430.43,-86.3453"/>
<polygon fill="midnightblue" stroke="midnightblue" points="2432.52,-89.177 2439.32,-81.0566 2428.94,-83.1609 2432.52,-89.177"/>
</g>
<!-- Node43 -->
<g id="node44" class="node"><title>Node43</title>
<g id="a_node44"><a xlink:href="utils_8h.html" target="_top" xlink:title="utils.h">
<polygon fill="none" stroke="black" points="1974.79,-62 1974.79,-81 2019.79,-81 2019.79,-62 1974.79,-62"/>
<text text-anchor="middle" x="1997.29" y="-69" font-family="Helvetica,sans-Serif" font-size="10.00">utils.h</text>
</a>
</g>
</g>
<!-- Node18&#45;&gt;Node43 -->
<g id="edge80" class="edge"><title>Node18&#45;&gt;Node43</title>
<path fill="none" stroke="midnightblue" d="M1874.58,-318.886C1863.82,-303.965 1844.82,-272.374 1854.29,-246 1857.67,-236.568 1947.68,-130.589 1983.13,-89.0555"/>
<polygon fill="midnightblue" stroke="midnightblue" points="1985.98,-91.1054 1989.82,-81.2287 1980.66,-86.5585 1985.98,-91.1054"/>
</g>
<!-- Node48 -->
<g id="node49" class="node"><title>Node48</title>
<polygon fill="none" stroke="#bfbfbf" points="1493.79,-129 1493.79,-148 1534.79,-148 1534.79,-129 1493.79,-129"/>
<text text-anchor="middle" x="1514.29" y="-136" font-family="Helvetica,sans-Serif" font-size="10.00">tuple</text>
</g>
<!-- Node18&#45;&gt;Node48 -->
<g id="edge89" class="edge"><title>Node18&#45;&gt;Node48</title>
<path fill="none" stroke="midnightblue" d="M1839.02,-318.965C1827.76,-316.85 1815.59,-314.703 1804.29,-313 1664.08,-291.866 1621.7,-322.161 1487.29,-277 1459.62,-267.702 1388.74,-235.366 1374.29,-210 1337.16,-144.827 1424.56,-178.084 1484.29,-154 1485.66,-153.446 1487.06,-152.857 1488.47,-152.247"/>
<polygon fill="midnightblue" stroke="midnightblue" points="1490.02,-155.386 1497.65,-148.032 1487.1,-149.025 1490.02,-155.386"/>
</g>
<!-- Node49 -->
<g id="node50" class="node"><title>Node49</title>
<polygon fill="none" stroke="#bfbfbf" points="1076.79,-246.5 1076.79,-276.5 1273.79,-276.5 1273.79,-246.5 1076.79,-246.5"/>
<text text-anchor="start" x="1084.79" y="-264.5" font-family="Helvetica,sans-Serif" font-size="10.00">wignerSymbols/include</text>
<text text-anchor="middle" x="1175.29" y="-253.5" font-family="Helvetica,sans-Serif" font-size="10.00">/wignerSymbols/wignerSymbols&#45;cpp.h</text>
</g>
<!-- Node18&#45;&gt;Node49 -->
<g id="edge81" class="edge"><title>Node18&#45;&gt;Node49</title>
<path fill="none" stroke="midnightblue" d="M1840.67,-318.93C1828.97,-316.712 1816.16,-314.523 1804.29,-313 1577.33,-283.891 1515.94,-299.983 1283.95,-277.013"/>
<polygon fill="midnightblue" stroke="midnightblue" points="1284.15,-273.515 1273.85,-275.999 1283.45,-280.48 1284.15,-273.515"/>
</g>
<!-- Node18&#45;&gt;Node50 -->
<g id="edge82" class="edge"><title>Node18&#45;&gt;Node50</title>
<path fill="none" stroke="midnightblue" d="M1896.26,-318.734C1914.9,-307.818 1946.95,-289.049 1968.86,-276.221"/>
<polygon fill="midnightblue" stroke="midnightblue" points="1970.69,-279.201 1977.56,-271.127 1967.16,-273.16 1970.69,-279.201"/>
</g>
<!-- Node18&#45;&gt;Node51 -->
<g id="edge84" class="edge"><title>Node18&#45;&gt;Node51</title>
<path fill="none" stroke="midnightblue" d="M1913.7,-318.936C1951.91,-308.841 2016.27,-291.833 2064.38,-279.122"/>
<polygon fill="midnightblue" stroke="midnightblue" points="2065.31,-282.498 2074.08,-276.559 2063.52,-275.73 2065.31,-282.498"/>
</g>
<!-- Node52 -->
<g id="node53" class="node"><title>Node52</title>
<polygon fill="none" stroke="#bfbfbf" points="1292.29,-246.5 1292.29,-276.5 1402.29,-276.5 1402.29,-246.5 1292.29,-246.5"/>
<text text-anchor="start" x="1300.29" y="-264.5" font-family="Helvetica,sans-Serif" font-size="10.00">boost/serialization</text>
<text text-anchor="middle" x="1347.29" y="-253.5" font-family="Helvetica,sans-Serif" font-size="10.00">/unordered_set.hpp</text>
</g>
<!-- Node18&#45;&gt;Node52 -->
<g id="edge85" class="edge"><title>Node18&#45;&gt;Node52</title>
<path fill="none" stroke="midnightblue" d="M1839.85,-318.959C1828.36,-316.794 1815.87,-314.625 1804.29,-313 1632.78,-288.949 1587.53,-302.85 1416.29,-277 1415.03,-276.81 1413.76,-276.611 1412.48,-276.405"/>
<polygon fill="midnightblue" stroke="midnightblue" points="1413,-272.943 1402.55,-274.695 1411.81,-279.842 1413,-272.943"/>
</g>
<!-- Node19&#45;&gt;Node3 -->
<g id="edge38" class="edge"><title>Node19&#45;&gt;Node3</title>
<path fill="none" stroke="midnightblue" d="M1508.39,-251.975C1474.02,-242.118 1415.96,-225.285 1366.29,-210 1301.43,-190.044 1226.22,-165.528 1182.95,-151.292"/>
<polygon fill="midnightblue" stroke="midnightblue" points="1183.77,-147.879 1173.18,-148.074 1181.58,-154.527 1183.77,-147.879"/>
</g>
<!-- Node19&#45;&gt;Node9 -->
<g id="edge44" class="edge"><title>Node19&#45;&gt;Node9</title>
<path fill="none" stroke="midnightblue" d="M1580.35,-253.066C1656.44,-239.715 1822.09,-211.103 1962.29,-190 2080.7,-172.178 2121.16,-205.445 2229.29,-154 2247.46,-145.354 2245.74,-134.445 2262.29,-123 2275.14,-114.111 2310.95,-97.1399 2336.73,-85.3378"/>
<polygon fill="midnightblue" stroke="midnightblue" points="2338.41,-88.423 2346.06,-81.0953 2335.51,-82.0517 2338.41,-88.423"/>
</g>
<!-- Node19&#45;&gt;Node12 -->
<g id="edge42" class="edge"><title>Node19&#45;&gt;Node12</title>
<path fill="none" stroke="midnightblue" d="M1540.69,-251.821C1546.38,-229.638 1559.1,-169.346 1543.29,-123 1538.81,-109.864 1529.37,-97.489 1520.9,-88.2771"/>
<polygon fill="midnightblue" stroke="midnightblue" points="1523.35,-85.7709 1513.86,-81.0563 1518.33,-90.6587 1523.35,-85.7709"/>
</g>
<!-- Node20 -->
<g id="node21" class="node"><title>Node20</title>
<g id="a_node21"><a xlink:href="ConfParser_8h.html" target="_top" xlink:title="ConfParser.h">
<polygon fill="none" stroke="black" points="1397.29,-129 1397.29,-148 1475.29,-148 1475.29,-129 1397.29,-129"/>
<text text-anchor="middle" x="1436.29" y="-136" font-family="Helvetica,sans-Serif" font-size="10.00">ConfParser.h</text>
</a>
</g>
</g>
<!-- Node19&#45;&gt;Node20 -->
<g id="edge22" class="edge"><title>Node19&#45;&gt;Node20</title>
<path fill="none" stroke="midnightblue" d="M1495.99,-253.312C1452.41,-244.943 1388.84,-229.712 1374.29,-210 1358.9,-189.164 1386.51,-167.031 1409.66,-153.24"/>
<polygon fill="midnightblue" stroke="midnightblue" points="1411.56,-156.186 1418.53,-148.211 1408.11,-150.096 1411.56,-156.186"/>
</g>
<!-- Node24 -->
<g id="node25" class="node"><title>Node24</title>
<g id="a_node25"><a xlink:href="Iter_8h.html" target="_top" xlink:title="Iter.h">
<polygon fill="none" stroke="black" points="1383.79,-190.5 1383.79,-209.5 1424.79,-209.5 1424.79,-190.5 1383.79,-190.5"/>
<text text-anchor="middle" x="1404.29" y="-197.5" font-family="Helvetica,sans-Serif" font-size="10.00">Iter.h</text>
</a>
</g>
</g>
<!-- Node19&#45;&gt;Node24 -->
<g id="edge27" class="edge"><title>Node19&#45;&gt;Node24</title>
<path fill="none" stroke="midnightblue" d="M1519.09,-251.975C1496.5,-241.945 1458.79,-225.2 1432.79,-213.655"/>
<polygon fill="midnightblue" stroke="midnightblue" points="1434.01,-210.369 1423.45,-209.509 1431.17,-216.766 1434.01,-210.369"/>
</g>
<!-- Node25 -->
<g id="node26" class="node"><title>Node25</title>
<g id="a_node26"><a xlink:href="StateOld_8h.html" target="_top" xlink:title="StateOld.h">
<polygon fill="none" stroke="black" points="652.288,-190.5 652.288,-209.5 720.288,-209.5 720.288,-190.5 652.288,-190.5"/>
<text text-anchor="middle" x="686.288" y="-197.5" font-family="Helvetica,sans-Serif" font-size="10.00">StateOld.h</text>
</a>
</g>
</g>
<!-- Node19&#45;&gt;Node25 -->
<g id="edge28" class="edge"><title>Node19&#45;&gt;Node25</title>
<path fill="none" stroke="midnightblue" d="M1496.28,-253.16C1480.08,-250.554 1461.36,-247.82 1444.29,-246 1174.16,-217.212 847.771,-205.612 730.722,-202.182"/>
<polygon fill="midnightblue" stroke="midnightblue" points="730.476,-198.674 720.38,-201.885 730.275,-205.671 730.476,-198.674"/>
</g>
<!-- Node26 -->
<g id="node27" class="node"><title>Node26</title>
<polygon fill="none" stroke="#bfbfbf" points="1443.29,-190.5 1443.29,-209.5 1497.29,-209.5 1497.29,-190.5 1443.29,-190.5"/>
<text text-anchor="middle" x="1470.29" y="-197.5" font-family="Helvetica,sans-Serif" font-size="10.00">fstream</text>
</g>
<!-- Node19&#45;&gt;Node26 -->
<g id="edge39" class="edge"><title>Node19&#45;&gt;Node26</title>
<path fill="none" stroke="midnightblue" d="M1528.55,-251.975C1517.94,-242.697 1500.77,-227.671 1487.81,-216.331"/>
<polygon fill="midnightblue" stroke="midnightblue" points="1489.84,-213.46 1480.01,-209.509 1485.23,-218.728 1489.84,-213.46"/>
</g>
<!-- Node19&#45;&gt;Node27 -->
<g id="edge40" class="edge"><title>Node19&#45;&gt;Node27</title>
<path fill="none" stroke="midnightblue" d="M1580.4,-253.671C1628.7,-245.37 1710.04,-229.962 1778.29,-210 1845.79,-190.256 1861.36,-181.03 1926.29,-154 1980.89,-131.268 2043.55,-101.986 2078.37,-85.4246"/>
<polygon fill="midnightblue" stroke="midnightblue" points="2079.9,-88.5712 2087.42,-81.1068 2076.89,-82.2532 2079.9,-88.5712"/>
</g>
<!-- Node19&#45;&gt;Node28 -->
<g id="edge41" class="edge"><title>Node19&#45;&gt;Node28</title>
<path fill="none" stroke="midnightblue" d="M1580.29,-252.945C1595.11,-250.47 1611.9,-247.876 1627.29,-246 1829.11,-221.389 2074.06,-206.77 2153.82,-202.397"/>
<polygon fill="midnightblue" stroke="midnightblue" points="2154.16,-205.884 2163.95,-201.848 2153.78,-198.894 2154.16,-205.884"/>
</g>
<!-- Node19&#45;&gt;Node29 -->
<g id="edge43" class="edge"><title>Node19&#45;&gt;Node29</title>
<path fill="none" stroke="midnightblue" d="M1580.72,-252.705C1595.43,-250.239 1612.04,-247.712 1627.29,-246 1879.82,-217.635 1947.93,-239.424 2204.23,-209.99"/>
<polygon fill="midnightblue" stroke="midnightblue" points="2204.68,-213.461 2214.21,-208.829 2203.87,-206.508 2204.68,-213.461"/>
</g>
<!-- Node20&#45;&gt;Node12 -->
<g id="edge25" class="edge"><title>Node20&#45;&gt;Node12</title>
<path fill="none" stroke="midnightblue" d="M1445.46,-128.734C1456.27,-118.403 1474.43,-101.037 1487.73,-88.3315"/>
<polygon fill="midnightblue" stroke="midnightblue" points="1490.45,-90.5672 1495.26,-81.1273 1485.62,-85.5071 1490.45,-90.5672"/>
</g>
<!-- Node21 -->
<g id="node22" class="node"><title>Node21</title>
<polygon fill="none" stroke="#bfbfbf" points="1420.29,-62 1420.29,-81 1458.29,-81 1458.29,-62 1420.29,-62"/>
<text text-anchor="middle" x="1439.29" y="-69" font-family="Helvetica,sans-Serif" font-size="10.00">map</text>
</g>
<!-- Node20&#45;&gt;Node21 -->
<g id="edge23" class="edge"><title>Node20&#45;&gt;Node21</title>
<path fill="none" stroke="midnightblue" d="M1436.69,-128.734C1437.13,-119.183 1437.85,-103.618 1438.42,-91.2829"/>
<polygon fill="midnightblue" stroke="midnightblue" points="1441.93,-91.2781 1438.89,-81.1273 1434.93,-90.9553 1441.93,-91.2781"/>
</g>
<!-- Node20&#45;&gt;Node22 -->
<g id="edge24" class="edge"><title>Node20&#45;&gt;Node22</title>
<path fill="none" stroke="midnightblue" d="M1454.35,-128.869C1477.51,-117.796 1517.92,-98.4862 1544.88,-85.5978"/>
<polygon fill="midnightblue" stroke="midnightblue" points="1546.64,-88.6373 1554.15,-81.1672 1543.62,-82.3216 1546.64,-88.6373"/>
</g>
<!-- Node23 -->
<g id="node24" class="node"><title>Node23</title>
<polygon fill="none" stroke="#bfbfbf" points="1280.29,-62 1280.29,-81 1402.29,-81 1402.29,-62 1280.29,-62"/>
<text text-anchor="middle" x="1341.29" y="-69" font-family="Helvetica,sans-Serif" font-size="10.00">boost/lexical_cast.hpp</text>
</g>
<!-- Node20&#45;&gt;Node23 -->
<g id="edge26" class="edge"><title>Node20&#45;&gt;Node23</title>
<path fill="none" stroke="midnightblue" d="M1423.48,-128.734C1407.81,-118.013 1381.07,-99.7165 1362.35,-86.9137"/>
<polygon fill="midnightblue" stroke="midnightblue" points="1364.13,-83.8856 1353.9,-81.1273 1360.17,-89.6628 1364.13,-83.8856"/>
</g>
<!-- Node25&#45;&gt;Node3 -->
<g id="edge29" class="edge"><title>Node25&#45;&gt;Node3</title>
<path fill="none" stroke="midnightblue" d="M720.465,-195.423C820.264,-184.969 1104.55,-155.135 1109.29,-154 1112.28,-153.282 1115.36,-152.389 1118.4,-151.4"/>
<polygon fill="midnightblue" stroke="midnightblue" points="1119.63,-154.677 1127.87,-148.015 1117.28,-148.085 1119.63,-154.677"/>
</g>
<!-- Node25&#45;&gt;Node6 -->
<g id="edge30" class="edge"><title>Node25&#45;&gt;Node6</title>
<path fill="none" stroke="midnightblue" d="M720.585,-190.698C761.566,-180.435 825.495,-163.203 832.288,-154 840.471,-142.915 841.304,-133.418 832.288,-123 811.595,-99.0872 596.434,-80.8017 515.151,-74.699"/>
<polygon fill="midnightblue" stroke="midnightblue" points="515.273,-71.1985 505.042,-73.9512 514.757,-78.1794 515.273,-71.1985"/>
</g>
<!-- Node25&#45;&gt;Node7 -->
<g id="edge32" class="edge"><title>Node25&#45;&gt;Node7</title>
<path fill="none" stroke="midnightblue" d="M718.606,-190.498C748.557,-181.888 789.866,-167.894 799.288,-154 807.021,-142.597 808.577,-133.176 799.288,-123 790.465,-113.335 398.558,-83.7193 279.947,-74.963"/>
<polygon fill="midnightblue" stroke="midnightblue" points="280.203,-71.4725 269.973,-74.2283 279.689,-78.4536 280.203,-71.4725"/>
</g>
<!-- Node25&#45;&gt;Node10 -->
<g id="edge31" class="edge"><title>Node25&#45;&gt;Node10</title>
<path fill="none" stroke="midnightblue" d="M720.364,-192.536C725.04,-191.671 729.781,-190.805 734.288,-190 828.37,-173.193 852.088,-170.128 946.288,-154 954.273,-152.633 962.685,-151.187 970.974,-149.76"/>
<polygon fill="midnightblue" stroke="midnightblue" points="971.729,-153.181 980.989,-148.033 970.54,-146.283 971.729,-153.181"/>
</g>
<!-- Node25&#45;&gt;Node11 -->
<g id="edge33" class="edge"><title>Node25&#45;&gt;Node11</title>
<path fill="none" stroke="midnightblue" d="M720.581,-191.112C765.578,-180.53 840.062,-162.131 850.288,-154 870.699,-137.77 882.907,-109.397 889.114,-90.7787"/>
<polygon fill="midnightblue" stroke="midnightblue" points="892.494,-91.6965 892.092,-81.1093 885.804,-89.6362 892.494,-91.6965"/>
</g>
<!-- Node25&#45;&gt;Node12 -->
<g id="edge34" class="edge"><title>Node25&#45;&gt;Node12</title>
<path fill="none" stroke="midnightblue" d="M720.37,-192.635C758.746,-185.076 822.738,-171.287 876.288,-154 910.613,-142.92 916.176,-131.251 951.288,-123 1175.08,-70.4108 1243.02,-137.522 1467.29,-87 1470.29,-86.3243 1473.36,-85.4445 1476.4,-84.4521"/>
<polygon fill="midnightblue" stroke="midnightblue" points="1477.62,-87.7314 1485.81,-81.0105 1475.22,-81.157 1477.62,-87.7314"/>
</g>
<!-- Node25&#45;&gt;Node14 -->
<g id="edge35" class="edge"><title>Node25&#45;&gt;Node14</title>
<path fill="none" stroke="midnightblue" d="M676.259,-190.475C666.956,-182.567 652.741,-170.485 640.485,-160.067"/>
<polygon fill="midnightblue" stroke="midnightblue" points="642.672,-157.333 632.786,-153.523 638.139,-162.666 642.672,-157.333"/>
</g>
<!-- Node25&#45;&gt;Node15 -->
<g id="edge36" class="edge"><title>Node25&#45;&gt;Node15</title>
<path fill="none" stroke="midnightblue" d="M693.739,-190.475C700.386,-182.869 710.41,-171.399 719.267,-161.265"/>
<polygon fill="midnightblue" stroke="midnightblue" points="722.088,-163.356 726.033,-153.523 716.817,-158.749 722.088,-163.356"/>
</g>
<!-- Node25&#45;&gt;Node16 -->
<g id="edge37" class="edge"><title>Node25&#45;&gt;Node16</title>
<path fill="none" stroke="midnightblue" d="M658.923,-190.475C625.734,-180.136 569.637,-162.661 532.531,-151.102"/>
<polygon fill="midnightblue" stroke="midnightblue" points="533.192,-147.642 522.603,-148.009 531.11,-154.325 533.192,-147.642"/>
</g>
<!-- Node30&#45;&gt;Node3 -->
<g id="edge76" class="edge"><title>Node30&#45;&gt;Node3</title>
<path fill="none" stroke="midnightblue" d="M1663.89,-251.828C1632.98,-236.8 1566.09,-205.996 1506.29,-190 1392.59,-159.588 1253.45,-146.66 1186.69,-141.901"/>
<polygon fill="midnightblue" stroke="midnightblue" points="1186.84,-138.402 1176.62,-141.205 1186.35,-145.385 1186.84,-138.402"/>
</g>
<!-- Node30&#45;&gt;Node9 -->
<g id="edge78" class="edge"><title>Node30&#45;&gt;Node9</title>
<path fill="none" stroke="midnightblue" d="M1726.26,-252.556C1860.51,-228.801 2249.93,-159.6 2262.29,-154 2297.73,-137.946 2331.68,-107.087 2350.39,-88.2906"/>
<polygon fill="midnightblue" stroke="midnightblue" points="2352.97,-90.6599 2357.43,-81.0517 2347.95,-85.7786 2352.97,-90.6599"/>
</g>
<!-- Node30&#45;&gt;Node12 -->
<g id="edge77" class="edge"><title>Node30&#45;&gt;Node12</title>
<path fill="none" stroke="midnightblue" d="M1677.33,-251.844C1663.87,-222.448 1620.41,-127.993 1615.29,-123 1587.38,-95.7722 1570.73,-103.26 1535.29,-87 1534.13,-86.4704 1532.96,-85.9281 1531.77,-85.379"/>
<polygon fill="midnightblue" stroke="midnightblue" points="1533.17,-82.1717 1522.63,-81.1319 1530.22,-88.5199 1533.17,-82.1717"/>
</g>
<!-- Node31 -->
<g id="node32" class="node"><title>Node31</title>
<g id="a_node32"><a xlink:href="QuantumDefect_8h.html" target="_top" xlink:title="QuantumDefect.h">
<polygon fill="none" stroke="black" points="1667.29,-190.5 1667.29,-209.5 1769.29,-209.5 1769.29,-190.5 1667.29,-190.5"/>
<text text-anchor="middle" x="1718.29" y="-197.5" font-family="Helvetica,sans-Serif" font-size="10.00">QuantumDefect.h</text>
</a>
</g>
</g>
<!-- Node30&#45;&gt;Node31 -->
<g id="edge47" class="edge"><title>Node30&#45;&gt;Node31</title>
<path fill="none" stroke="midnightblue" d="M1686.59,-251.975C1692.03,-243.227 1700.65,-229.369 1707.52,-218.309"/>
<polygon fill="midnightblue" stroke="midnightblue" points="1710.69,-219.849 1713,-209.509 1704.74,-216.153 1710.69,-219.849"/>
</g>
<!-- Node31&#45;&gt;Node3 -->
<g id="edge70" class="edge"><title>Node31&#45;&gt;Node3</title>
<path fill="none" stroke="midnightblue" d="M1667.11,-193.667C1554.49,-181.931 1287.19,-154.078 1186.54,-143.59"/>
<polygon fill="midnightblue" stroke="midnightblue" points="1186.8,-140.098 1176.49,-142.543 1186.07,-147.061 1186.8,-140.098"/>
</g>
<!-- Node31&#45;&gt;Node10 -->
<g id="edge75" class="edge"><title>Node31&#45;&gt;Node10</title>
<path fill="none" stroke="midnightblue" d="M1667.17,-197.085C1562.25,-192.746 1315.13,-180.417 1109.29,-154 1100.45,-152.865 1091.09,-151.393 1082.03,-149.822"/>
<polygon fill="midnightblue" stroke="midnightblue" points="1082.44,-146.338 1071.98,-148.02 1081.2,-153.229 1082.44,-146.338"/>
</g>
<!-- Node31&#45;&gt;Node12 -->
<g id="edge72" class="edge"><title>Node31&#45;&gt;Node12</title>
<path fill="none" stroke="midnightblue" d="M1713.21,-190.302C1703.56,-174.53 1681.03,-141.164 1653.29,-123 1607.41,-92.9658 1586.47,-106.665 1535.29,-87 1533.87,-86.454 1532.42,-85.8719 1530.97,-85.2666"/>
<polygon fill="midnightblue" stroke="midnightblue" points="1532.04,-81.9154 1521.48,-81.0683 1529.21,-88.3164 1532.04,-81.9154"/>
</g>
<!-- Node32 -->
<g id="node33" class="node"><title>Node32</title>
<g id="a_node33"><a xlink:href="Cache_8h.html" target="_top" xlink:title="Cache.h">
<polygon fill="none" stroke="black" points="2164.29,-129 2164.29,-148 2220.29,-148 2220.29,-129 2164.29,-129"/>
<text text-anchor="middle" x="2192.29" y="-136" font-family="Helvetica,sans-Serif" font-size="10.00">Cache.h</text>
</a>
</g>
</g>
<!-- Node31&#45;&gt;Node32 -->
<g id="edge48" class="edge"><title>Node31&#45;&gt;Node32</title>
<path fill="none" stroke="midnightblue" d="M1769.44,-197.448C1850.92,-194.135 2014.83,-184.023 2150.29,-154 2153.71,-153.243 2157.23,-152.298 2160.72,-151.257"/>
<polygon fill="midnightblue" stroke="midnightblue" points="2161.9,-154.555 2170.33,-148.14 2159.74,-147.896 2161.9,-154.555"/>
</g>
<!-- Node33 -->
<g id="node34" class="node"><title>Node33</title>
<polygon fill="none" stroke="#bfbfbf" points="2151.79,-62 2151.79,-81 2198.79,-81 2198.79,-62 2151.79,-62"/>
<text text-anchor="middle" x="2175.29" y="-69" font-family="Helvetica,sans-Serif" font-size="10.00">mutex</text>
</g>
<!-- Node31&#45;&gt;Node33 -->
<g id="edge71" class="edge"><title>Node31&#45;&gt;Node33</title>
<path fill="none" stroke="midnightblue" d="M1763.19,-190.469C1805.5,-182.152 1870.54,-168.646 1926.29,-154 2023.5,-128.46 2048.13,-122.162 2142.29,-87 2143.94,-86.3829 2145.63,-85.726 2147.33,-85.0453"/>
<polygon fill="midnightblue" stroke="midnightblue" points="2149.08,-88.1055 2156.94,-81.0021 2146.36,-81.653 2149.08,-88.1055"/>
</g>
<!-- Node31&#45;&gt;Node34 -->
<g id="edge74" class="edge"><title>Node31&#45;&gt;Node34</title>
<path fill="none" stroke="midnightblue" d="M1769.36,-198.884C1862.1,-197.71 2063.88,-190.71 2229.29,-154 2302.41,-137.772 2384.1,-103.753 2425.7,-85.2111"/>
<polygon fill="midnightblue" stroke="midnightblue" points="2427.22,-88.3635 2434.9,-81.0671 2424.35,-81.9804 2427.22,-88.3635"/>
</g>
<!-- Node36 -->
<g id="node37" class="node"><title>Node36</title>
<g id="a_node37"><a xlink:href="SQLite_8h.html" target="_top" xlink:title="SQLite.h">
<polygon fill="none" stroke="black" points="1860.79,-129 1860.79,-148 1917.79,-148 1917.79,-129 1860.79,-129"/>
<text text-anchor="middle" x="1889.29" y="-136" font-family="Helvetica,sans-Serif" font-size="10.00">SQLite.h</text>
</a>
</g>
</g>
<!-- Node31&#45;&gt;Node36 -->
<g id="edge52" class="edge"><title>Node31&#45;&gt;Node36</title>
<path fill="none" stroke="midnightblue" d="M1742.79,-190.475C1772.25,-180.225 1821.87,-162.959 1855.09,-151.399"/>
<polygon fill="midnightblue" stroke="midnightblue" points="1856.54,-154.601 1864.83,-148.009 1854.24,-147.99 1856.54,-154.601"/>
</g>
<!-- Node31&#45;&gt;Node48 -->
<g id="edge73" class="edge"><title>Node31&#45;&gt;Node48</title>
<path fill="none" stroke="midnightblue" d="M1689.06,-190.475C1650.63,-179.266 1583.44,-159.669 1544.52,-148.317"/>
<polygon fill="midnightblue" stroke="midnightblue" points="1545.38,-144.923 1534.8,-145.483 1543.42,-151.643 1545.38,-144.923"/>
</g>
<!-- Node32&#45;&gt;Node33 -->
<g id="edge49" class="edge"><title>Node32&#45;&gt;Node33</title>
<path fill="none" stroke="midnightblue" d="M2190,-128.734C2187.47,-119.085 2183.34,-103.3 2180.1,-90.9063"/>
<polygon fill="midnightblue" stroke="midnightblue" points="2183.46,-89.9163 2177.54,-81.1273 2176.69,-91.6875 2183.46,-89.9163"/>
</g>
<!-- Node32&#45;&gt;Node34 -->
<g id="edge50" class="edge"><title>Node32&#45;&gt;Node34</title>
<path fill="none" stroke="midnightblue" d="M2220.5,-130.662C2260.05,-121.051 2334.21,-102.936 2397.29,-87 2401.62,-85.905 2406.14,-84.7524 2410.65,-83.5953"/>
<polygon fill="midnightblue" stroke="midnightblue" points="2411.63,-86.9593 2420.44,-81.0757 2409.88,-80.1806 2411.63,-86.9593"/>
</g>
<!-- Node35 -->
<g id="node36" class="node"><title>Node35</title>
<polygon fill="none" stroke="#bfbfbf" points="2217.29,-62 2217.29,-81 2323.29,-81 2323.29,-62 2217.29,-62"/>
<text text-anchor="middle" x="2270.29" y="-69" font-family="Helvetica,sans-Serif" font-size="10.00">boost/optional.hpp</text>
</g>
<!-- Node32&#45;&gt;Node35 -->
<g id="edge51" class="edge"><title>Node32&#45;&gt;Node35</title>
<path fill="none" stroke="midnightblue" d="M2202.81,-128.734C2215.44,-118.208 2236.83,-100.379 2252.15,-87.6174"/>
<polygon fill="midnightblue" stroke="midnightblue" points="2254.49,-90.218 2259.94,-81.1273 2250.01,-84.8404 2254.49,-90.218"/>
</g>
<!-- Node36&#45;&gt;Node11 -->
<g id="edge53" class="edge"><title>Node36&#45;&gt;Node11</title>
<path fill="none" stroke="midnightblue" d="M1860.69,-136.24C1727.48,-130.319 1166.86,-104.792 992.288,-87 972.979,-85.032 951.65,-81.9814 933.833,-79.185"/>
<polygon fill="midnightblue" stroke="midnightblue" points="934.219,-75.7022 923.791,-77.5781 933.113,-82.6143 934.219,-75.7022"/>
</g>
<!-- Node36&#45;&gt;Node12 -->
<g id="edge57" class="edge"><title>Node36&#45;&gt;Node12</title>
<path fill="none" stroke="midnightblue" d="M1860.48,-132.01C1845.03,-129.15 1825.65,-125.698 1808.29,-123 1687.36,-104.212 1652.76,-121.328 1535.29,-87 1533.41,-86.45 1531.49,-85.8009 1529.59,-85.0873"/>
<polygon fill="midnightblue" stroke="midnightblue" points="1530.91,-81.8426 1520.33,-81.143 1528.16,-88.2825 1530.91,-81.8426"/>
</g>
<!-- Node36&#45;&gt;Node22 -->
<g id="edge56" class="edge"><title>Node36&#45;&gt;Node22</title>
<path fill="none" stroke="midnightblue" d="M1866.29,-128.937C1859.88,-126.772 1852.87,-124.608 1846.29,-123 1744.92,-98.2385 1715.56,-112.126 1614.29,-87 1611.07,-86.2013 1607.75,-85.2618 1604.45,-84.2513"/>
<polygon fill="midnightblue" stroke="midnightblue" points="1605.33,-80.8576 1594.74,-81.077 1603.15,-87.5111 1605.33,-80.8576"/>
</g>
<!-- Node36&#45;&gt;Node27 -->
<g id="edge54" class="edge"><title>Node36&#45;&gt;Node27</title>
<path fill="none" stroke="midnightblue" d="M1917.87,-129.548C1952.26,-119.888 2011.7,-102.907 2062.29,-87 2065.04,-86.136 2067.88,-85.2231 2070.73,-84.2928"/>
<polygon fill="midnightblue" stroke="midnightblue" points="2071.94,-87.5769 2080.33,-81.1087 2069.74,-80.9323 2071.94,-87.5769"/>
</g>
<!-- Node37 -->
<g id="node38" class="node"><title>Node37</title>
<polygon fill="none" stroke="#bfbfbf" points="1722.29,-0.5 1722.29,-19.5 1776.29,-19.5 1776.29,-0.5 1722.29,-0.5"/>
<text text-anchor="middle" x="1749.29" y="-7.5" font-family="Helvetica,sans-Serif" font-size="10.00">random</text>
</g>
<!-- Node36&#45;&gt;Node37 -->
<g id="edge55" class="edge"><title>Node36&#45;&gt;Node37</title>
<path fill="none" stroke="midnightblue" d="M1865.82,-128.894C1859.53,-126.779 1852.7,-124.651 1846.29,-123 1802.77,-111.79 1676.1,-121.49 1647.29,-87 1638.46,-76.426 1639.76,-67.5423 1647.29,-56 1661.56,-34.107 1689.15,-22.7899 1712.04,-16.9828"/>
<polygon fill="midnightblue" stroke="midnightblue" points="1712.86,-20.3851 1721.84,-14.7503 1711.31,-13.5601 1712.86,-20.3851"/>
</g>
<!-- Node38 -->
<g id="node39" class="node"><title>Node38</title>
<polygon fill="none" stroke="#bfbfbf" points="1870.29,-62 1870.29,-81 1918.29,-81 1918.29,-62 1870.29,-62"/>
<text text-anchor="middle" x="1894.29" y="-69" font-family="Helvetica,sans-Serif" font-size="10.00">thread</text>
</g>
<!-- Node36&#45;&gt;Node38 -->
<g id="edge58" class="edge"><title>Node36&#45;&gt;Node38</title>
<path fill="none" stroke="midnightblue" d="M1889.96,-128.734C1890.7,-119.183 1891.89,-103.618 1892.84,-91.2829"/>
<polygon fill="midnightblue" stroke="midnightblue" points="1896.35,-91.3663 1893.62,-81.1273 1889.37,-90.8294 1896.35,-91.3663"/>
</g>
<!-- Node36&#45;&gt;Node39 -->
<g id="edge59" class="edge"><title>Node36&#45;&gt;Node39</title>
<path fill="none" stroke="midnightblue" d="M1917.87,-130.059C1946.82,-121.861 1992.32,-107.119 2028.29,-87 2047.61,-76.1899 2046.54,-63.7194 2067.29,-56 2159.63,-21.6511 2854.89,-24.9312 2953.29,-20 2989.19,-18.2011 3029.86,-15.7532 3059.94,-13.8645"/>
<polygon fill="midnightblue" stroke="midnightblue" points="3060.36,-17.3454 3070.12,-13.2218 3059.91,-10.3594 3060.36,-17.3454"/>
</g>
<!-- Node40 -->
<g id="node41" class="node"><title>Node40</title>
<polygon fill="none" stroke="#bfbfbf" points="1656.29,-56.5 1656.29,-86.5 1776.29,-86.5 1776.29,-56.5 1656.29,-56.5"/>
<text text-anchor="start" x="1664.29" y="-74.5" font-family="Helvetica,sans-Serif" font-size="10.00">boost/iterator/iterator</text>
<text text-anchor="middle" x="1716.29" y="-63.5" font-family="Helvetica,sans-Serif" font-size="10.00">_facade.hpp</text>
</g>
<!-- Node36&#45;&gt;Node40 -->
<g id="edge60" class="edge"><title>Node36&#45;&gt;Node40</title>
<path fill="none" stroke="midnightblue" d="M1866.32,-128.869C1840.13,-119.031 1796.64,-102.689 1763.21,-90.1277"/>
<polygon fill="midnightblue" stroke="midnightblue" points="1764.22,-86.7689 1753.62,-86.5281 1761.75,-93.3217 1764.22,-86.7689"/>
</g>
<!-- Node41 -->
<g id="node42" class="node"><title>Node41</title>
<polygon fill="none" stroke="#bfbfbf" points="1794.79,-62 1794.79,-81 1851.79,-81 1851.79,-62 1794.79,-62"/>
<text text-anchor="middle" x="1823.29" y="-69" font-family="Helvetica,sans-Serif" font-size="10.00">sqlite3.h</text>
</g>
<!-- Node36&#45;&gt;Node41 -->
<g id="edge61" class="edge"><title>Node36&#45;&gt;Node41</title>
<path fill="none" stroke="midnightblue" d="M1880.39,-128.734C1869.9,-118.403 1852.26,-101.037 1839.36,-88.3315"/>
<polygon fill="midnightblue" stroke="midnightblue" points="1841.63,-85.6505 1832.05,-81.1273 1836.72,-90.6379 1841.63,-85.6505"/>
</g>
<!-- Node36&#45;&gt;Node42 -->
<g id="edge62" class="edge"><title>Node36&#45;&gt;Node42</title>
<path fill="none" stroke="midnightblue" d="M1918.02,-135.828C2073.41,-126.786 2812.21,-83.794 2974.65,-74.3409"/>
<polygon fill="midnightblue" stroke="midnightblue" points="2975.14,-77.8184 2984.92,-73.7433 2974.74,-70.8302 2975.14,-77.8184"/>
</g>
<!-- Node36&#45;&gt;Node43 -->
<g id="edge63" class="edge"><title>Node36&#45;&gt;Node43</title>
<path fill="none" stroke="midnightblue" d="M1903.85,-128.734C1921.91,-117.867 1952.9,-99.2161 1974.2,-86.3931"/>
<polygon fill="midnightblue" stroke="midnightblue" points="1976.19,-89.2827 1982.95,-81.1273 1972.58,-83.2852 1976.19,-89.2827"/>
</g>
<!-- Node43&#45;&gt;Node37 -->
<g id="edge67" class="edge"><title>Node43&#45;&gt;Node37</title>
<path fill="none" stroke="midnightblue" d="M1974.4,-65.009C1931.46,-54.7061 1838.45,-32.3924 1786.43,-19.9108"/>
<polygon fill="midnightblue" stroke="midnightblue" points="1787.14,-16.4817 1776.6,-17.552 1785.51,-23.2885 1787.14,-16.4817"/>
</g>
<!-- Node43&#45;&gt;Node39 -->
<g id="edge68" class="edge"><title>Node43&#45;&gt;Node39</title>
<path fill="none" stroke="midnightblue" d="M2015.74,-61.873C2021.55,-59.5387 2028.08,-57.3003 2034.29,-56 2234.33,-14.1301 2749.16,-30.0805 2953.29,-20 2989.19,-18.2272 3029.86,-15.7776 3059.94,-13.8815"/>
<polygon fill="midnightblue" stroke="midnightblue" points="3060.36,-17.3623 3070.12,-13.236 3059.91,-10.3764 3060.36,-17.3623"/>
</g>
<!-- Node43&#45;&gt;Node44 -->
<g id="edge64" class="edge"><title>Node43&#45;&gt;Node44</title>
<path fill="none" stroke="midnightblue" d="M1989.98,-61.9751C1982.26,-52.9617 1969.88,-38.5246 1960.27,-27.3118"/>
<polygon fill="midnightblue" stroke="midnightblue" points="1962.75,-24.8239 1953.58,-19.5091 1957.43,-29.3795 1962.75,-24.8239"/>
</g>
<!-- Node43&#45;&gt;Node45 -->
<g id="edge65" class="edge"><title>Node43&#45;&gt;Node45</title>
<path fill="none" stroke="midnightblue" d="M2015.76,-61.9536C2021.57,-59.6226 2028.09,-57.3658 2034.29,-56 2171.23,-25.827 2608.73,-14.5259 2741.63,-11.7385"/>
<polygon fill="midnightblue" stroke="midnightblue" points="2741.82,-15.2354 2751.75,-11.5305 2741.68,-8.23688 2741.82,-15.2354"/>
</g>
<!-- Node43&#45;&gt;Node46 -->
<g id="edge66" class="edge"><title>Node43&#45;&gt;Node46</title>
<path fill="none" stroke="midnightblue" d="M2015.74,-61.8988C2021.56,-59.5655 2028.08,-57.3212 2034.29,-56 2204.87,-19.696 2644.32,-32.315 2818.29,-20 2835.32,-18.794 2854.06,-17.0791 2870.3,-15.4692"/>
<polygon fill="midnightblue" stroke="midnightblue" points="2870.96,-18.9199 2880.56,-14.4328 2870.26,-11.9554 2870.96,-18.9199"/>
</g>
<!-- Node47 -->
<g id="node48" class="node"><title>Node47</title>
<polygon fill="none" stroke="#bfbfbf" points="1995.79,-0.5 1995.79,-19.5 2050.79,-19.5 2050.79,-0.5 1995.79,-0.5"/>
<text text-anchor="middle" x="2023.29" y="-7.5" font-family="Helvetica,sans-Serif" font-size="10.00">unistd.h</text>
</g>
<!-- Node43&#45;&gt;Node47 -->
<g id="edge69" class="edge"><title>Node43&#45;&gt;Node47</title>
<path fill="none" stroke="midnightblue" d="M2001.01,-61.9751C2004.76,-53.4035 2010.65,-39.9269 2015.43,-28.983"/>
<polygon fill="midnightblue" stroke="midnightblue" points="2018.77,-30.0739 2019.57,-19.5091 2012.36,-27.271 2018.77,-30.0739"/>
</g>
<!-- Node53&#45;&gt;Node7 -->
<g id="edge95" class="edge"><title>Node53&#45;&gt;Node7</title>
<path fill="none" stroke="midnightblue" d="M2614.69,-326.396C2432.22,-320.179 1543.81,-289.367 1487.29,-277 1451.65,-269.203 1446.96,-253.644 1411.29,-246 963.401,-150.014 829.948,-302.31 381.288,-210 347.658,-203.081 256.674,-182.338 237.288,-154 224.509,-135.319 231.076,-108.404 237.887,-90.6895"/>
<polygon fill="midnightblue" stroke="midnightblue" points="241.312,-91.5778 241.989,-81.0046 234.866,-88.8479 241.312,-91.5778"/>
</g>
<!-- Node53&#45;&gt;Node9 -->
<g id="edge98" class="edge"><title>Node53&#45;&gt;Node9</title>
<path fill="none" stroke="midnightblue" d="M2670.9,-318.993C2688.86,-311.128 2712.28,-297.523 2723.29,-277 2729.8,-264.857 2730.6,-257.675 2723.29,-246 2718.43,-238.242 2475.87,-124.24 2392.83,-85.3708"/>
<polygon fill="midnightblue" stroke="midnightblue" points="2394.28,-82.1861 2383.74,-81.1185 2391.31,-88.5265 2394.28,-82.1861"/>
</g>
<!-- Node53&#45;&gt;Node45 -->
<g id="edge96" class="edge"><title>Node53&#45;&gt;Node45</title>
<path fill="none" stroke="midnightblue" d="M2670.84,-319C2691,-310.772 2719.78,-296.654 2739.29,-277 2766.33,-249.763 2780.29,-239.38 2780.29,-201 2780.29,-201 2780.29,-201 2780.29,-137.5 2780.29,-99.2024 2780.29,-54.3829 2780.29,-29.6971"/>
<polygon fill="midnightblue" stroke="midnightblue" points="2783.79,-29.5894 2780.29,-19.5894 2776.79,-29.5895 2783.79,-29.5894"/>
</g>
<!-- Node54 -->
<g id="node55" class="node"><title>Node54</title>
<polygon fill="none" stroke="#bfbfbf" points="2432.29,-246.5 2432.29,-276.5 2562.29,-276.5 2562.29,-246.5 2432.29,-246.5"/>
<text text-anchor="start" x="2440.29" y="-264.5" font-family="Helvetica,sans-Serif" font-size="10.00">boost/math/special</text>
<text text-anchor="middle" x="2497.29" y="-253.5" font-family="Helvetica,sans-Serif" font-size="10.00">_functions/binomial.hpp</text>
</g>
<!-- Node53&#45;&gt;Node54 -->
<g id="edge93" class="edge"><title>Node53&#45;&gt;Node54</title>
<path fill="none" stroke="midnightblue" d="M2627.37,-318.869C2604.96,-309.157 2567.92,-293.109 2539.09,-280.615"/>
<polygon fill="midnightblue" stroke="midnightblue" points="2540.23,-277.293 2529.66,-276.528 2537.44,-283.716 2540.23,-277.293"/>
</g>
<!-- Node55 -->
<g id="node56" class="node"><title>Node55</title>
<polygon fill="none" stroke="#bfbfbf" points="2580.79,-246.5 2580.79,-276.5 2713.79,-276.5 2713.79,-246.5 2580.79,-246.5"/>
<text text-anchor="start" x="2588.79" y="-264.5" font-family="Helvetica,sans-Serif" font-size="10.00">boost/math/special</text>
<text text-anchor="middle" x="2647.29" y="-253.5" font-family="Helvetica,sans-Serif" font-size="10.00">_functions/factorials.hpp</text>
</g>
<!-- Node53&#45;&gt;Node55 -->
<g id="edge94" class="edge"><title>Node53&#45;&gt;Node55</title>
<path fill="none" stroke="midnightblue" d="M2647.29,-318.734C2647.29,-310.541 2647.29,-297.923 2647.29,-286.714"/>
<polygon fill="midnightblue" stroke="midnightblue" points="2650.79,-286.589 2647.29,-276.589 2643.79,-286.589 2650.79,-286.589"/>
</g>
<!-- Node53&#45;&gt;Node56 -->
<g id="edge97" class="edge"><title>Node53&#45;&gt;Node56</title>
<path fill="none" stroke="midnightblue" d="M2672.26,-318.934C2701.51,-308.897 2751.42,-291.762 2794.29,-277 2796.71,-276.165 2799.22,-275.302 2801.74,-274.433"/>
<polygon fill="midnightblue" stroke="midnightblue" points="2803.11,-277.664 2811.42,-271.094 2800.82,-271.046 2803.11,-277.664"/>
</g>
<!-- Node57&#45;&gt;Node5 -->
<g id="edge101" class="edge"><title>Node57&#45;&gt;Node5</title>
<path fill="none" stroke="midnightblue" d="M227.562,-190.337C226.747,-174.315 227.58,-140.131 247.288,-123 263.295,-109.087 555.402,-85.4184 674.935,-76.2673"/>
<polygon fill="midnightblue" stroke="midnightblue" points="675.231,-79.755 684.936,-75.5047 674.699,-72.7752 675.231,-79.755"/>
</g>
<!-- Node58&#45;&gt;Node50 -->
<g id="edge103" class="edge"><title>Node58&#45;&gt;Node50</title>
<path fill="none" stroke="midnightblue" d="M2079.67,-318.734C2062.86,-307.916 2034.06,-289.383 2014.14,-276.566"/>
<polygon fill="midnightblue" stroke="midnightblue" points="2016,-273.596 2005.69,-271.127 2012.21,-279.482 2016,-273.596"/>
</g>
</g>
</svg>
