<?xml version="1.0" encoding="UTF-8" standalone="no"?>
<!DOCTYPE svg PUBLIC "-//W3C//DTD SVG 1.1//EN"
 "http://www.w3.org/Graphics/SVG/1.1/DTD/svg11.dtd">
<!-- Generated by graphviz version 2.38.0 (20140413.2041)
 -->
<!-- Title: /travis/pairinteraction/SystemOne.h Pages: 1 -->
<svg width="349pt" height="184pt"
 viewBox="0.00 0.00 349.00 184.00" xmlns="http://www.w3.org/2000/svg" xmlns:xlink="http://www.w3.org/1999/xlink">
<g id="graph0" class="graph" transform="scale(1 1) rotate(0) translate(4 180)">
<title>/travis/pairinteraction/SystemOne.h</title>
<!-- Node70 -->
<g id="node1" class="node"><title>Node70</title>
<polygon fill="#bfbfbf" stroke="black" points="136,-145.5 136,-175.5 254,-175.5 254,-145.5 136,-145.5"/>
<text text-anchor="start" x="144" y="-163.5" font-family="Helvetica,sans-Serif" font-size="10.00">/travis/pairinteraction</text>
<text text-anchor="middle" x="195" y="-152.5" font-family="Helvetica,sans-Serif" font-size="10.00">/SystemOne.h</text>
</g>
<!-- Node71 -->
<g id="node2" class="node"><title>Node71</title>
<g id="a_node2"><a xlink:href="SystemOne_8cpp.html" target="_top" xlink:title="/travis/pairinteraction\l/SystemOne.cpp">
<polygon fill="none" stroke="black" points="0,-78.5 0,-108.5 118,-108.5 118,-78.5 0,-78.5"/>
<text text-anchor="start" x="8" y="-96.5" font-family="Helvetica,sans-Serif" font-size="10.00">/travis/pairinteraction</text>
<text text-anchor="middle" x="59" y="-85.5" font-family="Helvetica,sans-Serif" font-size="10.00">/SystemOne.cpp</text>
</a>
</g>
</g>
<!-- Node70&#45;&gt;Node71 -->
<g id="edge1" class="edge"><title>Node70&#45;&gt;Node71</title>
<path fill="none" stroke="midnightblue" d="M156.276,-140.992C134.719,-130.689 108.311,-118.068 88.4524,-108.577"/>
<polygon fill="midnightblue" stroke="midnightblue" points="154.958,-144.242 165.49,-145.396 157.977,-137.926 154.958,-144.242"/>
</g>
<!-- Node72 -->
<g id="node3" class="node"><title>Node72</title>
<g id="a_node3"><a xlink:href="SystemTwo_8h.html" target="_top" xlink:title="/travis/pairinteraction\l/SystemTwo.h">
<polygon fill="none" stroke="black" points="136,-78.5 136,-108.5 254,-108.5 254,-78.5 136,-78.5"/>
<text text-anchor="start" x="144" y="-96.5" font-family="Helvetica,sans-Serif" font-size="10.00">/travis/pairinteraction</text>
<text text-anchor="middle" x="195" y="-85.5" font-family="Helvetica,sans-Serif" font-size="10.00">/SystemTwo.h</text>
</a>
</g>
</g>
<!-- Node70&#45;&gt;Node72 -->
<g id="edge2" class="edge"><title>Node70&#45;&gt;Node72</title>
<path fill="none" stroke="midnightblue" d="M195,-135.108C195,-126.154 195,-116.323 195,-108.577"/>
<polygon fill="midnightblue" stroke="midnightblue" points="191.5,-135.396 195,-145.396 198.5,-135.396 191.5,-135.396"/>
</g>
<!-- Node74 -->
<g id="node5" class="node"><title>Node74</title>
<g id="a_node5"><a xlink:href="integration__test_8cpp.html" target="_top" xlink:title="/travis/pairinteraction\l/unit_test/integration\l_test.cpp">
<polygon fill="none" stroke="black" points="223,-0.5 223,-41.5 341,-41.5 341,-0.5 223,-0.5"/>
<text text-anchor="start" x="231" y="-29.5" font-family="Helvetica,sans-Serif" font-size="10.00">/travis/pairinteraction</text>
<text text-anchor="start" x="231" y="-18.5" font-family="Helvetica,sans-Serif" font-size="10.00">/unit_test/integration</text>
<text text-anchor="middle" x="282" y="-7.5" font-family="Helvetica,sans-Serif" font-size="10.00">_test.cpp</text>
</a>
</g>
</g>
<!-- Node70&#45;&gt;Node74 -->
<g id="edge5" class="edge"><title>Node70&#45;&gt;Node74</title>
<path fill="none" stroke="midnightblue" d="M230.882,-140C242.758,-131.882 254.974,-121.425 263,-109 276.17,-88.6112 280.332,-60.5086 281.582,-41.8222"/>
<polygon fill="midnightblue" stroke="midnightblue" points="228.87,-137.133 222.36,-145.492 232.662,-143.017 228.87,-137.133"/>
</g>
<!-- Node73 -->
<g id="node4" class="node"><title>Node73</title>
<g id="a_node4"><a xlink:href="SystemTwo_8cpp.html" target="_top" xlink:title="/travis/pairinteraction\l/SystemTwo.cpp">
<polygon fill="none" stroke="black" points="87,-6 87,-36 205,-36 205,-6 87,-6"/>
<text text-anchor="start" x="95" y="-24" font-family="Helvetica,sans-Serif" font-size="10.00">/travis/pairinteraction</text>
<text text-anchor="middle" x="146" y="-13" font-family="Helvetica,sans-Serif" font-size="10.00">/SystemTwo.cpp</text>
</a>
</g>
</g>
<!-- Node72&#45;&gt;Node73 -->
<g id="edge3" class="edge"><title>Node72&#45;&gt;Node73</title>
<path fill="none" stroke="midnightblue" d="M179.282,-69.8852C171.607,-58.842 162.606,-45.892 155.901,-36.2455"/>
<polygon fill="midnightblue" stroke="midnightblue" points="176.503,-72.0194 185.084,-78.2333 182.251,-68.0243 176.503,-72.0194"/>
</g>
<!-- Node72&#45;&gt;Node74 -->
<g id="edge4" class="edge"><title>Node72&#45;&gt;Node74</title>
<path fill="none" stroke="midnightblue" d="M220.38,-71.9332C232.191,-62.3628 246.171,-51.034 257.827,-41.5884"/>
<polygon fill="midnightblue" stroke="midnightblue" points="218.172,-69.2181 212.606,-78.2333 222.579,-74.6567 218.172,-69.2181"/>
</g>
</g>
</svg>
