<?xml version="1.0" encoding="UTF-8" standalone="no"?>
<!DOCTYPE svg PUBLIC "-//W3C//DTD SVG 1.1//EN"
 "http://www.w3.org/Graphics/SVG/1.1/DTD/svg11.dtd">
<!-- Generated by graphviz version 2.38.0 (20140413.2041)
 -->
<!-- Title: /travis/pairinteraction/utils.h Pages: 1 -->
<svg width="1786pt" height="608pt"
 viewBox="0.00 0.00 1786.00 608.00" xmlns="http://www.w3.org/2000/svg" xmlns:xlink="http://www.w3.org/1999/xlink">
<g id="graph0" class="graph" transform="scale(1 1) rotate(0) translate(4 604)">
<title>/travis/pairinteraction/utils.h</title>
<!-- Node7 -->
<g id="node1" class="node"><title>Node7</title>
<polygon fill="#bfbfbf" stroke="black" points="1118,-569.5 1118,-599.5 1236,-599.5 1236,-569.5 1118,-569.5"/>
<text text-anchor="start" x="1126" y="-587.5" font-family="Helvetica,sans-Serif" font-size="10.00">/travis/pairinteraction</text>
<text text-anchor="middle" x="1177" y="-576.5" font-family="Helvetica,sans-Serif" font-size="10.00">/utils.h</text>
</g>
<!-- Node8 -->
<g id="node2" class="node"><title>Node8</title>
<g id="a_node2"><a xlink:href="Hamiltonianmatrix_8h.html" target="_top" xlink:title="/travis/pairinteraction\l/Hamiltonianmatrix.h">
<polygon fill="none" stroke="black" points="146,-363 146,-393 264,-393 264,-363 146,-363"/>
<text text-anchor="start" x="154" y="-381" font-family="Helvetica,sans-Serif" font-size="10.00">/travis/pairinteraction</text>
<text text-anchor="middle" x="205" y="-370" font-family="Helvetica,sans-Serif" font-size="10.00">/Hamiltonianmatrix.h</text>
</a>
</g>
</g>
<!-- Node7&#45;&gt;Node8 -->
<g id="edge1" class="edge"><title>Node7&#45;&gt;Node8</title>
<path fill="none" stroke="midnightblue" d="M1107.72,-580.891C922.667,-572.92 421.179,-544.465 278,-466 247.05,-449.039 223.691,-413.262 212.44,-393.274"/>
<polygon fill="midnightblue" stroke="midnightblue" points="1107.73,-584.395 1117.87,-581.322 1108.03,-577.401 1107.73,-584.395"/>
</g>
<!-- Node16 -->
<g id="node10" class="node"><title>Node16</title>
<g id="a_node10"><a xlink:href="SQLite_8h.html" target="_top" xlink:title="/travis/pairinteraction\l/SQLite.h">
<polygon fill="none" stroke="black" points="956,-502.5 956,-532.5 1074,-532.5 1074,-502.5 956,-502.5"/>
<text text-anchor="start" x="964" y="-520.5" font-family="Helvetica,sans-Serif" font-size="10.00">/travis/pairinteraction</text>
<text text-anchor="middle" x="1015" y="-509.5" font-family="Helvetica,sans-Serif" font-size="10.00">/SQLite.h</text>
</a>
</g>
</g>
<!-- Node7&#45;&gt;Node16 -->
<g id="edge11" class="edge"><title>Node7&#45;&gt;Node16</title>
<path fill="none" stroke="midnightblue" d="M1132.25,-565.544C1106.33,-555.143 1074.16,-542.238 1050.08,-532.577"/>
<polygon fill="midnightblue" stroke="midnightblue" points="1131.26,-568.92 1141.85,-569.396 1133.87,-562.424 1131.26,-568.92"/>
</g>
<!-- Node21 -->
<g id="node15" class="node"><title>Node21</title>
<g id="a_node15"><a xlink:href="MatrixElementCache_8h.html" target="_top" xlink:title="/travis/pairinteraction\l/MatrixElementCache.h">
<polygon fill="none" stroke="black" points="1333,-285 1333,-315 1461,-315 1461,-285 1333,-285"/>
<text text-anchor="start" x="1341" y="-303" font-family="Helvetica,sans-Serif" font-size="10.00">/travis/pairinteraction</text>
<text text-anchor="middle" x="1397" y="-292" font-family="Helvetica,sans-Serif" font-size="10.00">/MatrixElementCache.h</text>
</a>
</g>
</g>
<!-- Node7&#45;&gt;Node21 -->
<g id="edge50" class="edge"><title>Node7&#45;&gt;Node21</title>
<path fill="none" stroke="midnightblue" d="M1207.23,-563.574C1237.74,-542.284 1284.68,-506.13 1316,-466 1354.68,-416.44 1381.79,-345.447 1392.24,-315.355"/>
<polygon fill="midnightblue" stroke="midnightblue" points="1204.97,-560.884 1198.71,-569.434 1208.93,-566.652 1204.97,-560.884"/>
</g>
<!-- Node39 -->
<g id="node33" class="node"><title>Node39</title>
<g id="a_node33"><a xlink:href="utils__test_8cpp.html" target="_top" xlink:title="/travis/pairinteraction\l/unit_test/utils_test.cpp">
<polygon fill="none" stroke="black" points="1368,-502.5 1368,-532.5 1496,-532.5 1496,-502.5 1368,-502.5"/>
<text text-anchor="start" x="1376" y="-520.5" font-family="Helvetica,sans-Serif" font-size="10.00">/travis/pairinteraction</text>
<text text-anchor="middle" x="1432" y="-509.5" font-family="Helvetica,sans-Serif" font-size="10.00">/unit_test/utils_test.cpp</text>
</a>
</g>
</g>
<!-- Node7&#45;&gt;Node39 -->
<g id="edge51" class="edge"><title>Node7&#45;&gt;Node39</title>
<path fill="none" stroke="midnightblue" d="M1241.79,-566.984C1283.44,-556.367 1336.98,-542.72 1376.64,-532.611"/>
<polygon fill="midnightblue" stroke="midnightblue" points="1240.84,-563.614 1232.02,-569.476 1242.57,-570.397 1240.84,-563.614"/>
</g>
<!-- Node9 -->
<g id="node3" class="node"><title>Node9</title>
<g id="a_node3"><a xlink:href="Hamiltonian_8h.html" target="_top" xlink:title="/travis/pairinteraction\l/Hamiltonian.h">
<polygon fill="none" stroke="black" points="146,-285 146,-315 264,-315 264,-285 146,-285"/>
<text text-anchor="start" x="154" y="-303" font-family="Helvetica,sans-Serif" font-size="10.00">/travis/pairinteraction</text>
<text text-anchor="middle" x="205" y="-292" font-family="Helvetica,sans-Serif" font-size="10.00">/Hamiltonian.h</text>
</a>
</g>
</g>
<!-- Node8&#45;&gt;Node9 -->
<g id="edge2" class="edge"><title>Node8&#45;&gt;Node9</title>
<path fill="none" stroke="midnightblue" d="M205,-352.59C205,-340.257 205,-325.724 205,-315.231"/>
<polygon fill="midnightblue" stroke="midnightblue" points="201.5,-352.705 205,-362.705 208.5,-352.705 201.5,-352.705"/>
</g>
<!-- Node15 -->
<g id="node9" class="node"><title>Node15</title>
<g id="a_node9"><a xlink:href="Hamiltonianmatrix_8cpp.html" target="_top" xlink:title="/travis/pairinteraction\l/Hamiltonianmatrix.cpp">
<polygon fill="none" stroke="black" points="0,-285 0,-315 128,-315 128,-285 0,-285"/>
<text text-anchor="start" x="8" y="-303" font-family="Helvetica,sans-Serif" font-size="10.00">/travis/pairinteraction</text>
<text text-anchor="middle" x="64" y="-292" font-family="Helvetica,sans-Serif" font-size="10.00">/Hamiltonianmatrix.cpp</text>
</a>
</g>
</g>
<!-- Node8&#45;&gt;Node15 -->
<g id="edge10" class="edge"><title>Node8&#45;&gt;Node15</title>
<path fill="none" stroke="midnightblue" d="M169.746,-357.998C145.004,-344.662 112.465,-327.123 90.0503,-315.041"/>
<polygon fill="midnightblue" stroke="midnightblue" points="168.346,-361.219 178.809,-362.883 171.667,-355.057 168.346,-361.219"/>
</g>
<!-- Node10 -->
<g id="node4" class="node"><title>Node10</title>
<g id="a_node4"><a xlink:href="HamiltonianOne_8h.html" target="_top" xlink:title="/travis/pairinteraction\l/HamiltonianOne.h">
<polygon fill="none" stroke="black" points="291,-212.5 291,-242.5 409,-242.5 409,-212.5 291,-212.5"/>
<text text-anchor="start" x="299" y="-230.5" font-family="Helvetica,sans-Serif" font-size="10.00">/travis/pairinteraction</text>
<text text-anchor="middle" x="350" y="-219.5" font-family="Helvetica,sans-Serif" font-size="10.00">/HamiltonianOne.h</text>
</a>
</g>
</g>
<!-- Node9&#45;&gt;Node10 -->
<g id="edge3" class="edge"><title>Node9&#45;&gt;Node10</title>
<path fill="none" stroke="midnightblue" d="M242.988,-280.53C267.409,-268.656 298.644,-253.47 321.056,-242.573"/>
<polygon fill="midnightblue" stroke="midnightblue" points="241.457,-277.382 233.994,-284.903 244.518,-283.678 241.457,-277.382"/>
</g>
<!-- Node12 -->
<g id="node6" class="node"><title>Node12</title>
<g id="a_node6"><a xlink:href="HamiltonianTwo_8h.html" target="_top" xlink:title="/travis/pairinteraction\l/HamiltonianTwo.h">
<polygon fill="none" stroke="black" points="467,-145.5 467,-175.5 585,-175.5 585,-145.5 467,-145.5"/>
<text text-anchor="start" x="475" y="-163.5" font-family="Helvetica,sans-Serif" font-size="10.00">/travis/pairinteraction</text>
<text text-anchor="middle" x="526" y="-152.5" font-family="Helvetica,sans-Serif" font-size="10.00">/HamiltonianTwo.h</text>
</a>
</g>
</g>
<!-- Node9&#45;&gt;Node12 -->
<g id="edge9" class="edge"><title>Node9&#45;&gt;Node12</title>
<path fill="none" stroke="midnightblue" d="M274.173,-287.896C317.058,-279.317 372.459,-265.098 418,-243 454.772,-225.157 491.45,-193.918 511.174,-175.737"/>
<polygon fill="midnightblue" stroke="midnightblue" points="273.26,-284.508 264.112,-289.852 274.596,-291.379 273.26,-284.508"/>
</g>
<!-- Node11 -->
<g id="node5" class="node"><title>Node11</title>
<g id="a_node5"><a xlink:href="HamiltonianOne_8cpp.html" target="_top" xlink:title="/travis/pairinteraction\l/HamiltonianOne.cpp">
<polygon fill="none" stroke="black" points="269,-145.5 269,-175.5 387,-175.5 387,-145.5 269,-145.5"/>
<text text-anchor="start" x="277" y="-163.5" font-family="Helvetica,sans-Serif" font-size="10.00">/travis/pairinteraction</text>
<text text-anchor="middle" x="328" y="-152.5" font-family="Helvetica,sans-Serif" font-size="10.00">/HamiltonianOne.cpp</text>
</a>
</g>
</g>
<!-- Node10&#45;&gt;Node11 -->
<g id="edge4" class="edge"><title>Node10&#45;&gt;Node11</title>
<path fill="none" stroke="midnightblue" d="M341.944,-202.697C338.86,-193.587 335.444,-183.493 332.764,-175.577"/>
<polygon fill="midnightblue" stroke="midnightblue" points="338.705,-204.046 345.226,-212.396 345.336,-201.802 338.705,-204.046"/>
</g>
<!-- Node10&#45;&gt;Node12 -->
<g id="edge5" class="edge"><title>Node10&#45;&gt;Node12</title>
<path fill="none" stroke="midnightblue" d="M397.876,-208.819C426.166,-198.371 461.494,-185.323 487.885,-175.577"/>
<polygon fill="midnightblue" stroke="midnightblue" points="396.357,-205.648 388.189,-212.396 398.783,-212.215 396.357,-205.648"/>
</g>
<!-- Node14 -->
<g id="node8" class="node"><title>Node14</title>
<g id="a_node8"><a xlink:href="Interface_8cpp.html" target="_top" xlink:title="/travis/pairinteraction\l/Interface.cpp">
<polygon fill="none" stroke="black" points="356,-78.5 356,-108.5 474,-108.5 474,-78.5 356,-78.5"/>
<text text-anchor="start" x="364" y="-96.5" font-family="Helvetica,sans-Serif" font-size="10.00">/travis/pairinteraction</text>
<text text-anchor="middle" x="415" y="-85.5" font-family="Helvetica,sans-Serif" font-size="10.00">/Interface.cpp</text>
</a>
</g>
</g>
<!-- Node10&#45;&gt;Node14 -->
<g id="edge8" class="edge"><title>Node10&#45;&gt;Node14</title>
<path fill="none" stroke="midnightblue" d="M374.026,-205.055C382.081,-196.712 390.424,-186.609 396,-176 407.491,-154.137 412.099,-125.371 413.898,-108.511"/>
<polygon fill="midnightblue" stroke="midnightblue" points="371.457,-202.672 366.796,-212.186 376.373,-207.656 371.457,-202.672"/>
</g>
<!-- Node13 -->
<g id="node7" class="node"><title>Node13</title>
<g id="a_node7"><a xlink:href="HamiltonianTwo_8cpp.html" target="_top" xlink:title="/travis/pairinteraction\l/HamiltonianTwo.cpp">
<polygon fill="none" stroke="black" points="492,-78.5 492,-108.5 610,-108.5 610,-78.5 492,-78.5"/>
<text text-anchor="start" x="500" y="-96.5" font-family="Helvetica,sans-Serif" font-size="10.00">/travis/pairinteraction</text>
<text text-anchor="middle" x="551" y="-85.5" font-family="Helvetica,sans-Serif" font-size="10.00">/HamiltonianTwo.cpp</text>
</a>
</g>
</g>
<!-- Node12&#45;&gt;Node13 -->
<g id="edge6" class="edge"><title>Node12&#45;&gt;Node13</title>
<path fill="none" stroke="midnightblue" d="M535.042,-135.991C538.575,-126.804 542.508,-116.578 545.586,-108.577"/>
<polygon fill="midnightblue" stroke="midnightblue" points="531.748,-134.806 531.425,-145.396 538.281,-137.319 531.748,-134.806"/>
</g>
<!-- Node12&#45;&gt;Node14 -->
<g id="edge7" class="edge"><title>Node12&#45;&gt;Node14</title>
<path fill="none" stroke="midnightblue" d="M493.205,-140.296C475.836,-130.125 454.883,-117.855 439.038,-108.577"/>
<polygon fill="midnightblue" stroke="midnightblue" points="491.517,-143.363 501.915,-145.396 495.054,-137.322 491.517,-143.363"/>
</g>
<!-- Node16&#45;&gt;Node10 -->
<g id="edge42" class="edge"><title>Node16&#45;&gt;Node10</title>
<path fill="none" stroke="midnightblue" d="M945.829,-513.851C794.189,-507.618 442.141,-490.666 394,-466 359.206,-448.172 350.496,-435.693 337,-399 316.811,-344.113 335.393,-272.734 345.03,-242.748"/>
<polygon fill="midnightblue" stroke="midnightblue" points="945.824,-517.353 955.958,-514.264 946.109,-510.359 945.824,-517.353"/>
</g>
<!-- Node16&#45;&gt;Node12 -->
<g id="edge43" class="edge"><title>Node16&#45;&gt;Node12</title>
<path fill="none" stroke="midnightblue" d="M1084.23,-512.831C1169.15,-504.164 1302,-475.228 1302,-379 1302,-379 1302,-379 1302,-299 1302,-259.325 1312.2,-237.734 1282,-212 1229.41,-167.18 753.823,-161.914 585.063,-161.466"/>
<polygon fill="midnightblue" stroke="midnightblue" points="1083.74,-509.361 1074.12,-513.79 1084.4,-516.329 1083.74,-509.361"/>
</g>
<!-- Node17 -->
<g id="node11" class="node"><title>Node17</title>
<g id="a_node11"><a xlink:href="QuantumDefect_8h.html" target="_top" xlink:title="/travis/pairinteraction\l/QuantumDefect.h">
<polygon fill="none" stroke="black" points="891,-435.5 891,-465.5 1009,-465.5 1009,-435.5 891,-435.5"/>
<text text-anchor="start" x="899" y="-453.5" font-family="Helvetica,sans-Serif" font-size="10.00">/travis/pairinteraction</text>
<text text-anchor="middle" x="950" y="-442.5" font-family="Helvetica,sans-Serif" font-size="10.00">/QuantumDefect.h</text>
</a>
</g>
</g>
<!-- Node16&#45;&gt;Node17 -->
<g id="edge12" class="edge"><title>Node16&#45;&gt;Node17</title>
<path fill="none" stroke="midnightblue" d="M993.811,-495.311C984.061,-485.561 972.759,-474.259 964.077,-465.577"/>
<polygon fill="midnightblue" stroke="midnightblue" points="991.35,-497.8 1000.9,-502.396 996.3,-492.85 991.35,-497.8"/>
</g>
<!-- Node20 -->
<g id="node14" class="node"><title>Node20</title>
<g id="a_node14"><a xlink:href="MatrixElements_8cpp.html" target="_top" xlink:title="/travis/pairinteraction\l/MatrixElements.cpp">
<polygon fill="none" stroke="black" points="929,-212.5 929,-242.5 1047,-242.5 1047,-212.5 929,-212.5"/>
<text text-anchor="start" x="937" y="-230.5" font-family="Helvetica,sans-Serif" font-size="10.00">/travis/pairinteraction</text>
<text text-anchor="middle" x="988" y="-219.5" font-family="Helvetica,sans-Serif" font-size="10.00">/MatrixElements.cpp</text>
</a>
</g>
</g>
<!-- Node16&#45;&gt;Node20 -->
<g id="edge45" class="edge"><title>Node16&#45;&gt;Node20</title>
<path fill="none" stroke="midnightblue" d="M1069.82,-499.041C1138.76,-473.91 1243.82,-423.188 1206,-357 1170.58,-295.013 1092.29,-259.944 1039.83,-242.596"/>
<polygon fill="midnightblue" stroke="midnightblue" points="1068.6,-495.762 1060.35,-502.416 1070.95,-502.356 1068.6,-495.762"/>
</g>
<!-- Node22 -->
<g id="node16" class="node"><title>Node22</title>
<g id="a_node16"><a xlink:href="MatrixElementCache_8cpp.html" target="_top" xlink:title="/travis/pairinteraction\l/MatrixElementCache.cpp">
<polygon fill="none" stroke="black" points="1134.5,-212.5 1134.5,-242.5 1273.5,-242.5 1273.5,-212.5 1134.5,-212.5"/>
<text text-anchor="start" x="1142.5" y="-230.5" font-family="Helvetica,sans-Serif" font-size="10.00">/travis/pairinteraction</text>
<text text-anchor="middle" x="1204" y="-219.5" font-family="Helvetica,sans-Serif" font-size="10.00">/MatrixElementCache.cpp</text>
</a>
</g>
</g>
<!-- Node16&#45;&gt;Node22 -->
<g id="edge44" class="edge"><title>Node16&#45;&gt;Node22</title>
<path fill="none" stroke="midnightblue" d="M1084.16,-506.404C1115.74,-499.159 1152.21,-486.838 1180,-466 1208.5,-444.629 1213.79,-433.132 1224,-399 1240.82,-342.748 1219.91,-272.105 1209.38,-242.531"/>
<polygon fill="midnightblue" stroke="midnightblue" points="1083.13,-503.046 1074.1,-508.583 1084.61,-509.888 1083.13,-503.046"/>
</g>
<!-- Node32 -->
<g id="node26" class="node"><title>Node32</title>
<g id="a_node26"><a xlink:href="wavefunction__test_8cpp.html" target="_top" xlink:title="/travis/pairinteraction\l/unit_test/wavefunction\l_test.cpp">
<polygon fill="none" stroke="black" points="440.5,-279.5 440.5,-320.5 567.5,-320.5 567.5,-279.5 440.5,-279.5"/>
<text text-anchor="start" x="448.5" y="-308.5" font-family="Helvetica,sans-Serif" font-size="10.00">/travis/pairinteraction</text>
<text text-anchor="start" x="448.5" y="-297.5" font-family="Helvetica,sans-Serif" font-size="10.00">/unit_test/wavefunction</text>
<text text-anchor="middle" x="504" y="-286.5" font-family="Helvetica,sans-Serif" font-size="10.00">_test.cpp</text>
</a>
</g>
</g>
<!-- Node16&#45;&gt;Node32 -->
<g id="edge49" class="edge"><title>Node16&#45;&gt;Node32</title>
<path fill="none" stroke="midnightblue" d="M945.418,-515.48C789.678,-511.524 421.019,-492.294 349,-399 337.593,-384.224 338.275,-372.278 349,-357 369.631,-327.61 407.285,-313.578 440.313,-306.908"/>
<polygon fill="midnightblue" stroke="midnightblue" points="945.728,-518.988 955.809,-515.729 945.896,-511.99 945.728,-518.988"/>
</g>
<!-- Node34 -->
<g id="node28" class="node"><title>Node34</title>
<g id="a_node28"><a xlink:href="QuantumDefect_8cpp.html" target="_top" xlink:title="/travis/pairinteraction\l/QuantumDefect.cpp">
<polygon fill="none" stroke="black" points="358,-363 358,-393 476,-393 476,-363 358,-363"/>
<text text-anchor="start" x="366" y="-381" font-family="Helvetica,sans-Serif" font-size="10.00">/travis/pairinteraction</text>
<text text-anchor="middle" x="417" y="-370" font-family="Helvetica,sans-Serif" font-size="10.00">/QuantumDefect.cpp</text>
</a>
</g>
</g>
<!-- Node16&#45;&gt;Node34 -->
<g id="edge46" class="edge"><title>Node16&#45;&gt;Node34</title>
<path fill="none" stroke="midnightblue" d="M945.854,-506.148C887.908,-497.019 803.155,-482.608 730,-466 633.749,-444.148 522.826,-411.517 462.269,-393.055"/>
<polygon fill="midnightblue" stroke="midnightblue" points="945.573,-509.647 955.994,-507.735 946.655,-502.731 945.573,-509.647"/>
</g>
<!-- Node37 -->
<g id="node31" class="node"><title>Node37</title>
<g id="a_node31"><a xlink:href="quantum__defect__test_8cpp.html" target="_top" xlink:title="/travis/pairinteraction\l/unit_test/quantum_defect\l_test.cpp">
<polygon fill="none" stroke="black" points="1054.5,-357.5 1054.5,-398.5 1197.5,-398.5 1197.5,-357.5 1054.5,-357.5"/>
<text text-anchor="start" x="1062.5" y="-386.5" font-family="Helvetica,sans-Serif" font-size="10.00">/travis/pairinteraction</text>
<text text-anchor="start" x="1062.5" y="-375.5" font-family="Helvetica,sans-Serif" font-size="10.00">/unit_test/quantum_defect</text>
<text text-anchor="middle" x="1126" y="-364.5" font-family="Helvetica,sans-Serif" font-size="10.00">_test.cpp</text>
</a>
</g>
</g>
<!-- Node16&#45;&gt;Node37 -->
<g id="edge47" class="edge"><title>Node16&#45;&gt;Node37</title>
<path fill="none" stroke="midnightblue" d="M1032.87,-494.362C1054.25,-467.873 1089.72,-423.937 1110.16,-398.618"/>
<polygon fill="midnightblue" stroke="midnightblue" points="1030.02,-492.323 1026.46,-502.303 1035.47,-496.72 1030.02,-492.323"/>
</g>
<!-- Node38 -->
<g id="node32" class="node"><title>Node38</title>
<g id="a_node32"><a xlink:href="sqlite__test_8cpp.html" target="_top" xlink:title="/travis/pairinteraction\l/unit_test/sqlite_test.cpp">
<polygon fill="none" stroke="black" points="739,-435.5 739,-465.5 873,-465.5 873,-435.5 739,-435.5"/>
<text text-anchor="start" x="747" y="-453.5" font-family="Helvetica,sans-Serif" font-size="10.00">/travis/pairinteraction</text>
<text text-anchor="middle" x="806" y="-442.5" font-family="Helvetica,sans-Serif" font-size="10.00">/unit_test/sqlite_test.cpp</text>
</a>
</g>
</g>
<!-- Node16&#45;&gt;Node38 -->
<g id="edge48" class="edge"><title>Node16&#45;&gt;Node38</title>
<path fill="none" stroke="midnightblue" d="M960.159,-499.444C926.28,-488.908 883.328,-475.549 851.372,-465.611"/>
<polygon fill="midnightblue" stroke="midnightblue" points="959.319,-502.848 969.907,-502.476 961.398,-496.164 959.319,-502.848"/>
</g>
<!-- Node18 -->
<g id="node12" class="node"><title>Node18</title>
<g id="a_node12"><a xlink:href="Wavefunction_8h.html" target="_top" xlink:title="/travis/pairinteraction\l/Wavefunction.h">
<polygon fill="none" stroke="black" points="804,-363 804,-393 922,-393 922,-363 804,-363"/>
<text text-anchor="start" x="812" y="-381" font-family="Helvetica,sans-Serif" font-size="10.00">/travis/pairinteraction</text>
<text text-anchor="middle" x="863" y="-370" font-family="Helvetica,sans-Serif" font-size="10.00">/Wavefunction.h</text>
</a>
</g>
</g>
<!-- Node17&#45;&gt;Node18 -->
<g id="edge13" class="edge"><title>Node17&#45;&gt;Node18</title>
<path fill="none" stroke="midnightblue" d="M924.44,-428.788C910.222,-417.266 892.904,-403.233 880.283,-393.005"/>
<polygon fill="midnightblue" stroke="midnightblue" points="922.421,-431.657 932.394,-435.233 926.828,-426.218 922.421,-431.657"/>
</g>
<!-- Node17&#45;&gt;Node20 -->
<g id="edge35" class="edge"><title>Node17&#45;&gt;Node20</title>
<path fill="none" stroke="midnightblue" d="M954.161,-425.302C962.116,-379.037 979.254,-279.363 985.585,-242.543"/>
<polygon fill="midnightblue" stroke="midnightblue" points="950.68,-424.891 952.435,-435.339 957.579,-426.077 950.68,-424.891"/>
</g>
<!-- Node17&#45;&gt;Node22 -->
<g id="edge34" class="edge"><title>Node17&#45;&gt;Node22</title>
<path fill="none" stroke="midnightblue" d="M970.994,-427.955C989.896,-408.827 1018.67,-380.368 1045,-357 1094.11,-313.415 1155.27,-265.717 1185.43,-242.612"/>
<polygon fill="midnightblue" stroke="midnightblue" points="968.294,-425.709 963.776,-435.292 973.284,-430.618 968.294,-425.709"/>
</g>
<!-- Node17&#45;&gt;Node32 -->
<g id="edge40" class="edge"><title>Node17&#45;&gt;Node32</title>
<path fill="none" stroke="midnightblue" d="M880.694,-435.128C787.056,-424.709 580.089,-451.088 523,-399 501.492,-379.376 500.03,-343.303 501.567,-320.822"/>
<polygon fill="midnightblue" stroke="midnightblue" points="880.36,-438.614 890.733,-436.46 881.281,-431.675 880.36,-438.614"/>
</g>
<!-- Node33 -->
<g id="node27" class="node"><title>Node33</title>
<g id="a_node27"><a xlink:href="Wavefunction_8cpp.html" target="_top" xlink:title="/travis/pairinteraction\l/Wavefunction.cpp">
<polygon fill="none" stroke="black" points="823,-285 823,-315 941,-315 941,-285 823,-285"/>
<text text-anchor="start" x="831" y="-303" font-family="Helvetica,sans-Serif" font-size="10.00">/travis/pairinteraction</text>
<text text-anchor="middle" x="882" y="-292" font-family="Helvetica,sans-Serif" font-size="10.00">/Wavefunction.cpp</text>
</a>
</g>
</g>
<!-- Node17&#45;&gt;Node33 -->
<g id="edge41" class="edge"><title>Node17&#45;&gt;Node33</title>
<path fill="none" stroke="midnightblue" d="M948.426,-425.202C946.387,-405.872 941.712,-378.583 931,-357 922.959,-340.8 909.059,-325.57 898.112,-315.095"/>
<polygon fill="midnightblue" stroke="midnightblue" points="944.952,-425.648 949.328,-435.297 951.924,-425.025 944.952,-425.648"/>
</g>
<!-- Node17&#45;&gt;Node34 -->
<g id="edge36" class="edge"><title>Node17&#45;&gt;Node34</title>
<path fill="none" stroke="midnightblue" d="M880.761,-434.938C707.248,-409.491 658.95,-429.656 490,-399 481.337,-397.428 472.209,-395.309 463.451,-393.037"/>
<polygon fill="midnightblue" stroke="midnightblue" points="880.33,-438.413 890.738,-436.431 881.366,-431.49 880.33,-438.413"/>
</g>
<!-- Node35 -->
<g id="node29" class="node"><title>Node35</title>
<g id="a_node29"><a xlink:href="State_8cpp.html" target="_top" xlink:title="/travis/pairinteraction\l/State.cpp">
<polygon fill="none" stroke="black" points="532,-363 532,-393 650,-393 650,-363 532,-363"/>
<text text-anchor="start" x="540" y="-381" font-family="Helvetica,sans-Serif" font-size="10.00">/travis/pairinteraction</text>
<text text-anchor="middle" x="591" y="-370" font-family="Helvetica,sans-Serif" font-size="10.00">/State.cpp</text>
</a>
</g>
</g>
<!-- Node17&#45;&gt;Node35 -->
<g id="edge37" class="edge"><title>Node17&#45;&gt;Node35</title>
<path fill="none" stroke="midnightblue" d="M880.863,-434.854C781.6,-416.792 753.848,-420.514 659,-399 651.44,-397.285 643.482,-395.203 635.781,-393.038"/>
<polygon fill="midnightblue" stroke="midnightblue" points="880.227,-438.296 890.697,-436.672 881.5,-431.413 880.227,-438.296"/>
</g>
<!-- Node36 -->
<g id="node30" class="node"><title>Node36</title>
<g id="a_node30"><a xlink:href="StateOld_8cpp.html" target="_top" xlink:title="/travis/pairinteraction\l/StateOld.cpp">
<polygon fill="none" stroke="black" points="668,-363 668,-393 786,-393 786,-363 668,-363"/>
<text text-anchor="start" x="676" y="-381" font-family="Helvetica,sans-Serif" font-size="10.00">/travis/pairinteraction</text>
<text text-anchor="middle" x="727" y="-370" font-family="Helvetica,sans-Serif" font-size="10.00">/StateOld.cpp</text>
</a>
</g>
</g>
<!-- Node17&#45;&gt;Node36 -->
<g id="edge38" class="edge"><title>Node17&#45;&gt;Node36</title>
<path fill="none" stroke="midnightblue" d="M895.779,-432.358C857.699,-420.32 807.382,-404.412 771.622,-393.107"/>
<polygon fill="midnightblue" stroke="midnightblue" points="895.086,-435.81 905.676,-435.487 897.196,-429.136 895.086,-435.81"/>
</g>
<!-- Node17&#45;&gt;Node37 -->
<g id="edge39" class="edge"><title>Node17&#45;&gt;Node37</title>
<path fill="none" stroke="midnightblue" d="M994.521,-431.666C1019.74,-421.565 1051.32,-408.916 1077.2,-398.546"/>
<polygon fill="midnightblue" stroke="midnightblue" points="993.175,-428.435 985.193,-435.403 995.778,-434.933 993.175,-428.435"/>
</g>
<!-- Node19 -->
<g id="node13" class="node"><title>Node19</title>
<g id="a_node13"><a xlink:href="MatrixElements_8h.html" target="_top" xlink:title="/travis/pairinteraction\l/MatrixElements.h">
<polygon fill="none" stroke="black" points="646,-285 646,-315 764,-315 764,-285 646,-285"/>
<text text-anchor="start" x="654" y="-303" font-family="Helvetica,sans-Serif" font-size="10.00">/travis/pairinteraction</text>
<text text-anchor="middle" x="705" y="-292" font-family="Helvetica,sans-Serif" font-size="10.00">/MatrixElements.h</text>
</a>
</g>
</g>
<!-- Node18&#45;&gt;Node19 -->
<g id="edge14" class="edge"><title>Node18&#45;&gt;Node19</title>
<path fill="none" stroke="midnightblue" d="M824.59,-358.524C796.737,-345.126 759.64,-327.283 734.191,-315.041"/>
<polygon fill="midnightblue" stroke="midnightblue" points="823.123,-361.702 833.652,-362.883 826.157,-355.394 823.123,-361.702"/>
</g>
<!-- Node18&#45;&gt;Node21 -->
<g id="edge18" class="edge"><title>Node18&#45;&gt;Node21</title>
<path fill="none" stroke="midnightblue" d="M932.285,-367.139C1036.47,-352.312 1232,-324.484 1332.99,-310.11"/>
<polygon fill="midnightblue" stroke="midnightblue" points="931.595,-363.702 922.188,-368.576 932.581,-370.632 931.595,-363.702"/>
</g>
<!-- Node18&#45;&gt;Node32 -->
<g id="edge32" class="edge"><title>Node18&#45;&gt;Node32</title>
<path fill="none" stroke="midnightblue" d="M807.568,-360.222C803.328,-359.084 799.103,-357.996 795,-357 717.38,-338.163 626.882,-321.578 567.672,-311.441"/>
<polygon fill="midnightblue" stroke="midnightblue" points="806.869,-363.66 817.44,-362.947 808.732,-356.912 806.869,-363.66"/>
</g>
<!-- Node18&#45;&gt;Node33 -->
<g id="edge33" class="edge"><title>Node18&#45;&gt;Node33</title>
<path fill="none" stroke="midnightblue" d="M869.009,-352.963C872.112,-340.551 875.793,-325.83 878.442,-315.231"/>
<polygon fill="midnightblue" stroke="midnightblue" points="865.604,-352.155 866.574,-362.705 872.395,-353.852 865.604,-352.155"/>
</g>
<!-- Node19&#45;&gt;Node10 -->
<g id="edge15" class="edge"><title>Node19&#45;&gt;Node10</title>
<path fill="none" stroke="midnightblue" d="M636.088,-285.315C570.123,-272.215 471.663,-252.661 409.161,-240.249"/>
<polygon fill="midnightblue" stroke="midnightblue" points="635.49,-288.764 645.98,-287.279 636.854,-281.898 635.49,-288.764"/>
</g>
<!-- Node19&#45;&gt;Node12 -->
<g id="edge16" class="edge"><title>Node19&#45;&gt;Node12</title>
<path fill="none" stroke="midnightblue" d="M678.248,-278.45C641.443,-250.179 576.148,-200.022 544.381,-175.62"/>
<polygon fill="midnightblue" stroke="midnightblue" points="676.456,-281.487 686.518,-284.803 680.72,-275.936 676.456,-281.487"/>
</g>
<!-- Node19&#45;&gt;Node20 -->
<g id="edge17" class="edge"><title>Node19&#45;&gt;Node20</title>
<path fill="none" stroke="midnightblue" d="M771.05,-282.546C819.683,-270.431 885.121,-254.129 931.372,-242.607"/>
<polygon fill="midnightblue" stroke="midnightblue" points="770.107,-279.174 761.25,-284.987 771.8,-285.966 770.107,-279.174"/>
</g>
<!-- Node21&#45;&gt;Node22 -->
<g id="edge19" class="edge"><title>Node21&#45;&gt;Node22</title>
<path fill="none" stroke="midnightblue" d="M1349,-281.465C1316.14,-269.462 1273.14,-253.758 1242.53,-242.573"/>
<polygon fill="midnightblue" stroke="midnightblue" points="1347.81,-284.759 1358.41,-284.903 1350.22,-278.184 1347.81,-284.759"/>
</g>
<!-- Node23 -->
<g id="node17" class="node"><title>Node23</title>
<g id="a_node17"><a xlink:href="PerturbativeInteraction_8h.html" target="_top" xlink:title="/travis/pairinteraction\l/PerturbativeInteraction.h">
<polygon fill="none" stroke="black" points="1330,-212.5 1330,-242.5 1468,-242.5 1468,-212.5 1330,-212.5"/>
<text text-anchor="start" x="1338" y="-230.5" font-family="Helvetica,sans-Serif" font-size="10.00">/travis/pairinteraction</text>
<text text-anchor="middle" x="1399" y="-219.5" font-family="Helvetica,sans-Serif" font-size="10.00">/PerturbativeInteraction.h</text>
</a>
</g>
</g>
<!-- Node21&#45;&gt;Node23 -->
<g id="edge20" class="edge"><title>Node21&#45;&gt;Node23</title>
<path fill="none" stroke="midnightblue" d="M1397.69,-274.732C1397.99,-264.068 1398.34,-251.914 1398.6,-242.746"/>
<polygon fill="midnightblue" stroke="midnightblue" points="1394.19,-274.638 1397.4,-284.733 1401.19,-274.837 1394.19,-274.638"/>
</g>
<!-- Node25 -->
<g id="node19" class="node"><title>Node25</title>
<g id="a_node19"><a xlink:href="SystemBase_8h.html" target="_top" xlink:title="/travis/pairinteraction\l/SystemBase.h">
<polygon fill="none" stroke="black" points="1486,-212.5 1486,-242.5 1604,-242.5 1604,-212.5 1486,-212.5"/>
<text text-anchor="start" x="1494" y="-230.5" font-family="Helvetica,sans-Serif" font-size="10.00">/travis/pairinteraction</text>
<text text-anchor="middle" x="1545" y="-219.5" font-family="Helvetica,sans-Serif" font-size="10.00">/SystemBase.h</text>
</a>
</g>
</g>
<!-- Node21&#45;&gt;Node25 -->
<g id="edge22" class="edge"><title>Node21&#45;&gt;Node25</title>
<path fill="none" stroke="midnightblue" d="M1435.77,-280.53C1460.7,-268.656 1492.58,-253.47 1515.46,-242.573"/>
<polygon fill="midnightblue" stroke="midnightblue" points="1434.12,-277.442 1426.59,-284.903 1437.13,-283.762 1434.12,-277.442"/>
</g>
<!-- Node31 -->
<g id="node25" class="node"><title>Node31</title>
<g id="a_node25"><a xlink:href="integration__test_8cpp.html" target="_top" xlink:title="/travis/pairinteraction\l/unit_test/integration\l_test.cpp">
<polygon fill="none" stroke="black" points="1660,-0.5 1660,-41.5 1778,-41.5 1778,-0.5 1660,-0.5"/>
<text text-anchor="start" x="1668" y="-29.5" font-family="Helvetica,sans-Serif" font-size="10.00">/travis/pairinteraction</text>
<text text-anchor="start" x="1668" y="-18.5" font-family="Helvetica,sans-Serif" font-size="10.00">/unit_test/integration</text>
<text text-anchor="middle" x="1719" y="-7.5" font-family="Helvetica,sans-Serif" font-size="10.00">_test.cpp</text>
</a>
</g>
</g>
<!-- Node21&#45;&gt;Node31 -->
<g id="edge31" class="edge"><title>Node21&#45;&gt;Node31</title>
<path fill="none" stroke="midnightblue" d="M1471.19,-291.655C1543.07,-280.177 1648.54,-250.841 1700,-176 1728.16,-135.044 1725.6,-73.1327 1721.97,-41.7442"/>
<polygon fill="midnightblue" stroke="midnightblue" points="1470.64,-288.198 1461.28,-293.159 1471.69,-295.119 1470.64,-288.198"/>
</g>
<!-- Node24 -->
<g id="node18" class="node"><title>Node24</title>
<g id="a_node18"><a xlink:href="PerturbativeInteraction_8cpp.html" target="_top" xlink:title="/travis/pairinteraction\l/PerturbativeInteraction.cpp">
<polygon fill="none" stroke="black" points="1231.5,-145.5 1231.5,-175.5 1380.5,-175.5 1380.5,-145.5 1231.5,-145.5"/>
<text text-anchor="start" x="1239.5" y="-163.5" font-family="Helvetica,sans-Serif" font-size="10.00">/travis/pairinteraction</text>
<text text-anchor="middle" x="1306" y="-152.5" font-family="Helvetica,sans-Serif" font-size="10.00">/PerturbativeInteraction.cpp</text>
</a>
</g>
</g>
<!-- Node23&#45;&gt;Node24 -->
<g id="edge21" class="edge"><title>Node23&#45;&gt;Node24</title>
<path fill="none" stroke="midnightblue" d="M1370.31,-206.451C1356.01,-196.452 1339.05,-184.6 1326.14,-175.577"/>
<polygon fill="midnightblue" stroke="midnightblue" points="1368.62,-209.536 1378.82,-212.396 1372.63,-203.798 1368.62,-209.536"/>
</g>
<!-- Node26 -->
<g id="node20" class="node"><title>Node26</title>
<g id="a_node20"><a xlink:href="SystemBase_8cpp.html" target="_top" xlink:title="/travis/pairinteraction\l/SystemBase.cpp">
<polygon fill="none" stroke="black" points="1399,-145.5 1399,-175.5 1517,-175.5 1517,-145.5 1399,-145.5"/>
<text text-anchor="start" x="1407" y="-163.5" font-family="Helvetica,sans-Serif" font-size="10.00">/travis/pairinteraction</text>
<text text-anchor="middle" x="1458" y="-152.5" font-family="Helvetica,sans-Serif" font-size="10.00">/SystemBase.cpp</text>
</a>
</g>
</g>
<!-- Node25&#45;&gt;Node26 -->
<g id="edge23" class="edge"><title>Node25&#45;&gt;Node26</title>
<path fill="none" stroke="midnightblue" d="M1517.79,-206.168C1504.48,-196.228 1488.8,-184.514 1476.84,-175.577"/>
<polygon fill="midnightblue" stroke="midnightblue" points="1516.02,-209.215 1526.12,-212.396 1520.21,-203.607 1516.02,-209.215"/>
</g>
<!-- Node27 -->
<g id="node21" class="node"><title>Node27</title>
<g id="a_node21"><a xlink:href="SystemOne_8h.html" target="_top" xlink:title="/travis/pairinteraction\l/SystemOne.h">
<polygon fill="none" stroke="black" points="1573,-145.5 1573,-175.5 1691,-175.5 1691,-145.5 1573,-145.5"/>
<text text-anchor="start" x="1581" y="-163.5" font-family="Helvetica,sans-Serif" font-size="10.00">/travis/pairinteraction</text>
<text text-anchor="middle" x="1632" y="-152.5" font-family="Helvetica,sans-Serif" font-size="10.00">/SystemOne.h</text>
</a>
</g>
</g>
<!-- Node25&#45;&gt;Node27 -->
<g id="edge24" class="edge"><title>Node25&#45;&gt;Node27</title>
<path fill="none" stroke="midnightblue" d="M1572.21,-206.168C1585.52,-196.228 1601.2,-184.514 1613.16,-175.577"/>
<polygon fill="midnightblue" stroke="midnightblue" points="1569.79,-203.607 1563.88,-212.396 1573.98,-209.215 1569.79,-203.607"/>
</g>
<!-- Node29 -->
<g id="node23" class="node"><title>Node29</title>
<g id="a_node23"><a xlink:href="SystemTwo_8h.html" target="_top" xlink:title="/travis/pairinteraction\l/SystemTwo.h">
<polygon fill="none" stroke="black" points="1437,-78.5 1437,-108.5 1555,-108.5 1555,-78.5 1437,-78.5"/>
<text text-anchor="start" x="1445" y="-96.5" font-family="Helvetica,sans-Serif" font-size="10.00">/travis/pairinteraction</text>
<text text-anchor="middle" x="1496" y="-85.5" font-family="Helvetica,sans-Serif" font-size="10.00">/SystemTwo.h</text>
</a>
</g>
</g>
<!-- Node25&#45;&gt;Node29 -->
<g id="edge30" class="edge"><title>Node25&#45;&gt;Node29</title>
<path fill="none" stroke="midnightblue" d="M1541.37,-202.304C1538.41,-185.77 1533.47,-163.575 1526,-145 1520.82,-132.134 1512.68,-118.685 1506.18,-108.905"/>
<polygon fill="midnightblue" stroke="midnightblue" points="1537.93,-202.973 1543.04,-212.257 1544.84,-201.816 1537.93,-202.973"/>
</g>
<!-- Node28 -->
<g id="node22" class="node"><title>Node28</title>
<g id="a_node22"><a xlink:href="SystemOne_8cpp.html" target="_top" xlink:title="/travis/pairinteraction\l/SystemOne.cpp">
<polygon fill="none" stroke="black" points="1573,-78.5 1573,-108.5 1691,-108.5 1691,-78.5 1573,-78.5"/>
<text text-anchor="start" x="1581" y="-96.5" font-family="Helvetica,sans-Serif" font-size="10.00">/travis/pairinteraction</text>
<text text-anchor="middle" x="1632" y="-85.5" font-family="Helvetica,sans-Serif" font-size="10.00">/SystemOne.cpp</text>
</a>
</g>
</g>
<!-- Node27&#45;&gt;Node28 -->
<g id="edge25" class="edge"><title>Node27&#45;&gt;Node28</title>
<path fill="none" stroke="midnightblue" d="M1632,-135.108C1632,-126.154 1632,-116.323 1632,-108.577"/>
<polygon fill="midnightblue" stroke="midnightblue" points="1628.5,-135.396 1632,-145.396 1635.5,-135.396 1628.5,-135.396"/>
</g>
<!-- Node27&#45;&gt;Node29 -->
<g id="edge26" class="edge"><title>Node27&#45;&gt;Node29</title>
<path fill="none" stroke="midnightblue" d="M1593.28,-140.992C1571.72,-130.689 1545.31,-118.068 1525.45,-108.577"/>
<polygon fill="midnightblue" stroke="midnightblue" points="1591.96,-144.242 1602.49,-145.396 1594.98,-137.926 1591.96,-144.242"/>
</g>
<!-- Node27&#45;&gt;Node31 -->
<g id="edge29" class="edge"><title>Node27&#45;&gt;Node31</title>
<path fill="none" stroke="midnightblue" d="M1667.88,-140C1679.76,-131.882 1691.97,-121.425 1700,-109 1713.17,-88.6112 1717.33,-60.5086 1718.58,-41.8222"/>
<polygon fill="midnightblue" stroke="midnightblue" points="1665.87,-137.133 1659.36,-145.492 1669.66,-143.017 1665.87,-137.133"/>
</g>
<!-- Node30 -->
<g id="node24" class="node"><title>Node30</title>
<g id="a_node24"><a xlink:href="SystemTwo_8cpp.html" target="_top" xlink:title="/travis/pairinteraction\l/SystemTwo.cpp">
<polygon fill="none" stroke="black" points="1437,-6 1437,-36 1555,-36 1555,-6 1437,-6"/>
<text text-anchor="start" x="1445" y="-24" font-family="Helvetica,sans-Serif" font-size="10.00">/travis/pairinteraction</text>
<text text-anchor="middle" x="1496" y="-13" font-family="Helvetica,sans-Serif" font-size="10.00">/SystemTwo.cpp</text>
</a>
</g>
</g>
<!-- Node29&#45;&gt;Node30 -->
<g id="edge27" class="edge"><title>Node29&#45;&gt;Node30</title>
<path fill="none" stroke="midnightblue" d="M1496,-68.2317C1496,-57.5679 1496,-45.4145 1496,-36.2455"/>
<polygon fill="midnightblue" stroke="midnightblue" points="1492.5,-68.2332 1496,-78.2333 1499.5,-68.2333 1492.5,-68.2332"/>
</g>
<!-- Node29&#45;&gt;Node31 -->
<g id="edge28" class="edge"><title>Node29&#45;&gt;Node31</title>
<path fill="none" stroke="midnightblue" d="M1549.88,-75.4668C1583.13,-64.9552 1625.8,-51.4632 1659.97,-40.6625"/>
<polygon fill="midnightblue" stroke="midnightblue" points="1548.8,-72.1355 1540.32,-78.4872 1550.91,-78.8099 1548.8,-72.1355"/>
</g>
</g>
</svg>
