<?xml version="1.0" encoding="UTF-8" standalone="no"?>
<!DOCTYPE svg PUBLIC "-//W3C//DTD SVG 1.1//EN"
 "http://www.w3.org/Graphics/SVG/1.1/DTD/svg11.dtd">
<!-- Generated by graphviz version 2.38.0 (20140413.2041)
 -->
<!-- Title: /travis/pairinteraction/utils.h Pages: 1 -->
<svg width="459pt" height="95pt"
 viewBox="0.00 0.00 458.50 95.00" xmlns="http://www.w3.org/2000/svg" xmlns:xlink="http://www.w3.org/1999/xlink">
<g id="graph0" class="graph" transform="scale(1 1) rotate(0) translate(4 91)">
<title>/travis/pairinteraction/utils.h</title>
<!-- Node0 -->
<g id="node1" class="node"><title>Node0</title>
<polygon fill="#bfbfbf" stroke="black" points="166,-56.5 166,-86.5 284,-86.5 284,-56.5 166,-56.5"/>
<text text-anchor="start" x="174" y="-74.5" font-family="Helvetica,sans-Serif" font-size="10.00">/travis/pairinteraction</text>
<text text-anchor="middle" x="225" y="-63.5" font-family="Helvetica,sans-Serif" font-size="10.00">/utils.h</text>
</g>
<!-- Node1 -->
<g id="node2" class="node"><title>Node1</title>
<polygon fill="none" stroke="#bfbfbf" points="0,-0.5 0,-19.5 62,-19.5 62,-0.5 0,-0.5"/>
<text text-anchor="middle" x="31" y="-7.5" font-family="Helvetica,sans-Serif" font-size="10.00">algorithm</text>
</g>
<!-- Node0&#45;&gt;Node1 -->
<g id="edge1" class="edge"><title>Node0&#45;&gt;Node1</title>
<path fill="none" stroke="midnightblue" d="M179.025,-56.3993C145.357,-46.0733 100.223,-32.2309 68.6782,-22.5559"/>
<polygon fill="midnightblue" stroke="midnightblue" points="69.5323,-19.157 58.9455,-19.5709 67.4797,-25.8494 69.5323,-19.157"/>
</g>
<!-- Node2 -->
<g id="node3" class="node"><title>Node2</title>
<polygon fill="none" stroke="#bfbfbf" points="80.5,-0.5 80.5,-19.5 137.5,-19.5 137.5,-0.5 80.5,-0.5"/>
<text text-anchor="middle" x="109" y="-7.5" font-family="Helvetica,sans-Serif" font-size="10.00">complex</text>
</g>
<!-- Node0&#45;&gt;Node2 -->
<g id="edge2" class="edge"><title>Node0&#45;&gt;Node2</title>
<path fill="none" stroke="midnightblue" d="M197.51,-56.3993C178.568,-46.6837 153.558,-33.8551 134.956,-24.3137"/>
<polygon fill="midnightblue" stroke="midnightblue" points="136.374,-21.1076 125.879,-19.6578 133.179,-27.336 136.374,-21.1076"/>
</g>
<!-- Node3 -->
<g id="node4" class="node"><title>Node3</title>
<polygon fill="none" stroke="#bfbfbf" points="155.5,-0.5 155.5,-19.5 218.5,-19.5 218.5,-0.5 155.5,-0.5"/>
<text text-anchor="middle" x="187" y="-7.5" font-family="Helvetica,sans-Serif" font-size="10.00">functional</text>
</g>
<!-- Node0&#45;&gt;Node3 -->
<g id="edge3" class="edge"><title>Node0&#45;&gt;Node3</title>
<path fill="none" stroke="midnightblue" d="M215.995,-56.3993C210.587,-47.9315 203.668,-37.0991 197.946,-28.1393"/>
<polygon fill="midnightblue" stroke="midnightblue" points="200.862,-26.2018 192.529,-19.6578 194.962,-29.9695 200.862,-26.2018"/>
</g>
<!-- Node4 -->
<g id="node5" class="node"><title>Node4</title>
<polygon fill="none" stroke="#bfbfbf" points="237,-0.5 237,-19.5 291,-19.5 291,-0.5 237,-0.5"/>
<text text-anchor="middle" x="264" y="-7.5" font-family="Helvetica,sans-Serif" font-size="10.00">random</text>
</g>
<!-- Node0&#45;&gt;Node4 -->
<g id="edge4" class="edge"><title>Node0&#45;&gt;Node4</title>
<path fill="none" stroke="midnightblue" d="M234.242,-56.3993C239.793,-47.9315 246.893,-37.0991 252.766,-28.1393"/>
<polygon fill="midnightblue" stroke="midnightblue" points="255.77,-29.94 258.325,-19.6578 249.916,-26.1026 255.77,-29.94"/>
</g>
<!-- Node5 -->
<g id="node6" class="node"><title>Node5</title>
<polygon fill="none" stroke="#bfbfbf" points="309,-0.5 309,-19.5 377,-19.5 377,-0.5 309,-0.5"/>
<text text-anchor="middle" x="343" y="-7.5" font-family="Helvetica,sans-Serif" font-size="10.00">type_traits</text>
</g>
<!-- Node0&#45;&gt;Node5 -->
<g id="edge5" class="edge"><title>Node0&#45;&gt;Node5</title>
<path fill="none" stroke="midnightblue" d="M252.964,-56.3993C272.321,-46.6391 297.908,-33.7373 316.856,-24.1826"/>
<polygon fill="midnightblue" stroke="midnightblue" points="318.477,-27.2854 325.83,-19.6578 315.325,-21.035 318.477,-27.2854"/>
</g>
<!-- Node6 -->
<g id="node7" class="node"><title>Node6</title>
<polygon fill="none" stroke="#bfbfbf" points="395.5,-0.5 395.5,-19.5 450.5,-19.5 450.5,-0.5 395.5,-0.5"/>
<text text-anchor="middle" x="423" y="-7.5" font-family="Helvetica,sans-Serif" font-size="10.00">unistd.h</text>
</g>
<!-- Node0&#45;&gt;Node6 -->
<g id="edge6" class="edge"><title>Node0&#45;&gt;Node6</title>
<path fill="none" stroke="midnightblue" d="M271.673,-56.4747C306.336,-46.0581 353.011,-32.0321 385.316,-22.3241"/>
<polygon fill="midnightblue" stroke="midnightblue" points="386.697,-25.5638 395.267,-19.3339 384.683,-18.86 386.697,-25.5638"/>
</g>
</g>
</svg>
