<?xml version="1.0" encoding="UTF-8" standalone="no"?>
<!DOCTYPE svg PUBLIC "-//W3C//DTD SVG 1.1//EN"
 "http://www.w3.org/Graphics/SVG/1.1/DTD/svg11.dtd">
<!-- Generated by graphviz version 2.38.0 (20140413.2041)
 -->
<!-- Title: /travis/pairinteraction/Wavefunction.h Pages: 1 -->
<svg width="989pt" height="396pt"
 viewBox="0.00 0.00 989.00 396.00" xmlns="http://www.w3.org/2000/svg" xmlns:xlink="http://www.w3.org/1999/xlink">
<g id="graph0" class="graph" transform="scale(1 1) rotate(0) translate(4 392)">
<title>/travis/pairinteraction/Wavefunction.h</title>
<!-- Node31 -->
<g id="node1" class="node"><title>Node31</title>
<polygon fill="#bfbfbf" stroke="black" points="577,-357.5 577,-387.5 695,-387.5 695,-357.5 577,-357.5"/>
<text text-anchor="start" x="585" y="-375.5" font-family="Helvetica,sans-Serif" font-size="10.00">/travis/pairinteraction</text>
<text text-anchor="middle" x="636" y="-364.5" font-family="Helvetica,sans-Serif" font-size="10.00">/Wavefunction.h</text>
</g>
<!-- Node32 -->
<g id="node2" class="node"><title>Node32</title>
<g id="a_node2"><a xlink:href="MatrixElements_8h.html" target="_top" xlink:title="/travis/pairinteraction\l/MatrixElements.h">
<polygon fill="none" stroke="black" points="133,-285 133,-315 251,-315 251,-285 133,-285"/>
<text text-anchor="start" x="141" y="-303" font-family="Helvetica,sans-Serif" font-size="10.00">/travis/pairinteraction</text>
<text text-anchor="middle" x="192" y="-292" font-family="Helvetica,sans-Serif" font-size="10.00">/MatrixElements.h</text>
</a>
</g>
</g>
<!-- Node31&#45;&gt;Node32 -->
<g id="edge1" class="edge"><title>Node31&#45;&gt;Node32</title>
<path fill="none" stroke="midnightblue" d="M566.562,-360.474C479.765,-346.692 332.708,-323.342 251.067,-310.379"/>
<polygon fill="midnightblue" stroke="midnightblue" points="566.156,-363.954 576.581,-362.065 567.254,-357.04 566.156,-363.954"/>
</g>
<!-- Node39 -->
<g id="node9" class="node"><title>Node39</title>
<g id="a_node9"><a xlink:href="MatrixElementCache_8h.html" target="_top" xlink:title="/travis/pairinteraction\l/MatrixElementCache.h">
<polygon fill="none" stroke="black" points="499,-285 499,-315 627,-315 627,-285 499,-285"/>
<text text-anchor="start" x="507" y="-303" font-family="Helvetica,sans-Serif" font-size="10.00">/travis/pairinteraction</text>
<text text-anchor="middle" x="563" y="-292" font-family="Helvetica,sans-Serif" font-size="10.00">/MatrixElementCache.h</text>
</a>
</g>
</g>
<!-- Node31&#45;&gt;Node39 -->
<g id="edge10" class="edge"><title>Node31&#45;&gt;Node39</title>
<path fill="none" stroke="midnightblue" d="M613.932,-350.188C602.216,-338.873 588.135,-325.274 577.751,-315.246"/>
<polygon fill="midnightblue" stroke="midnightblue" points="611.603,-352.804 621.227,-357.233 616.466,-347.769 611.603,-352.804"/>
</g>
<!-- Node50 -->
<g id="node20" class="node"><title>Node50</title>
<g id="a_node20"><a xlink:href="wavefunction__test_8cpp.html" target="_top" xlink:title="/travis/pairinteraction\l/unit_test/wavefunction\l_test.cpp">
<polygon fill="none" stroke="black" points="645.5,-279.5 645.5,-320.5 772.5,-320.5 772.5,-279.5 645.5,-279.5"/>
<text text-anchor="start" x="653.5" y="-308.5" font-family="Helvetica,sans-Serif" font-size="10.00">/travis/pairinteraction</text>
<text text-anchor="start" x="653.5" y="-297.5" font-family="Helvetica,sans-Serif" font-size="10.00">/unit_test/wavefunction</text>
<text text-anchor="middle" x="709" y="-286.5" font-family="Helvetica,sans-Serif" font-size="10.00">_test.cpp</text>
</a>
</g>
</g>
<!-- Node31&#45;&gt;Node50 -->
<g id="edge24" class="edge"><title>Node31&#45;&gt;Node50</title>
<path fill="none" stroke="midnightblue" d="M658.158,-350.101C667.881,-340.711 679.219,-329.762 688.717,-320.588"/>
<polygon fill="midnightblue" stroke="midnightblue" points="655.534,-347.769 650.773,-357.233 660.397,-352.804 655.534,-347.769"/>
</g>
<!-- Node51 -->
<g id="node21" class="node"><title>Node51</title>
<g id="a_node21"><a xlink:href="Wavefunction_8cpp.html" target="_top" xlink:title="/travis/pairinteraction\l/Wavefunction.cpp">
<polygon fill="none" stroke="black" points="791,-285 791,-315 909,-315 909,-285 791,-285"/>
<text text-anchor="start" x="799" y="-303" font-family="Helvetica,sans-Serif" font-size="10.00">/travis/pairinteraction</text>
<text text-anchor="middle" x="850" y="-292" font-family="Helvetica,sans-Serif" font-size="10.00">/Wavefunction.cpp</text>
</a>
</g>
</g>
<!-- Node31&#45;&gt;Node51 -->
<g id="edge25" class="edge"><title>Node31&#45;&gt;Node51</title>
<path fill="none" stroke="midnightblue" d="M688.5,-354.205C724.987,-342.184 773.008,-326.364 807.179,-315.107"/>
<polygon fill="midnightblue" stroke="midnightblue" points="686.938,-351.034 678.535,-357.487 689.128,-357.682 686.938,-351.034"/>
</g>
<!-- Node33 -->
<g id="node3" class="node"><title>Node33</title>
<g id="a_node3"><a xlink:href="HamiltonianOne_8h.html" target="_top" xlink:title="/travis/pairinteraction\l/HamiltonianOne.h">
<polygon fill="none" stroke="black" points="201,-212.5 201,-242.5 319,-242.5 319,-212.5 201,-212.5"/>
<text text-anchor="start" x="209" y="-230.5" font-family="Helvetica,sans-Serif" font-size="10.00">/travis/pairinteraction</text>
<text text-anchor="middle" x="260" y="-219.5" font-family="Helvetica,sans-Serif" font-size="10.00">/HamiltonianOne.h</text>
</a>
</g>
</g>
<!-- Node32&#45;&gt;Node33 -->
<g id="edge2" class="edge"><title>Node32&#45;&gt;Node33</title>
<path fill="none" stroke="midnightblue" d="M212.869,-277.364C223.72,-266.114 236.679,-252.679 246.26,-242.746"/>
<polygon fill="midnightblue" stroke="midnightblue" points="210.184,-275.106 205.761,-284.733 215.222,-279.966 210.184,-275.106"/>
</g>
<!-- Node35 -->
<g id="node5" class="node"><title>Node35</title>
<g id="a_node5"><a xlink:href="HamiltonianTwo_8h.html" target="_top" xlink:title="/travis/pairinteraction\l/HamiltonianTwo.h">
<polygon fill="none" stroke="black" points="0,-145.5 0,-175.5 118,-175.5 118,-145.5 0,-145.5"/>
<text text-anchor="start" x="8" y="-163.5" font-family="Helvetica,sans-Serif" font-size="10.00">/travis/pairinteraction</text>
<text text-anchor="middle" x="59" y="-152.5" font-family="Helvetica,sans-Serif" font-size="10.00">/HamiltonianTwo.h</text>
</a>
</g>
</g>
<!-- Node32&#45;&gt;Node35 -->
<g id="edge8" class="edge"><title>Node32&#45;&gt;Node35</title>
<path fill="none" stroke="midnightblue" d="M123.075,-287.308C97.5999,-279.283 71.2446,-265.764 56,-243 42.4489,-222.765 48.4613,-192.93 53.866,-175.53"/>
<polygon fill="midnightblue" stroke="midnightblue" points="122.191,-290.696 132.77,-290.123 124.143,-283.973 122.191,-290.696"/>
</g>
<!-- Node38 -->
<g id="node8" class="node"><title>Node38</title>
<g id="a_node8"><a xlink:href="MatrixElements_8cpp.html" target="_top" xlink:title="/travis/pairinteraction\l/MatrixElements.cpp">
<polygon fill="none" stroke="black" points="65,-212.5 65,-242.5 183,-242.5 183,-212.5 65,-212.5"/>
<text text-anchor="start" x="73" y="-230.5" font-family="Helvetica,sans-Serif" font-size="10.00">/travis/pairinteraction</text>
<text text-anchor="middle" x="124" y="-219.5" font-family="Helvetica,sans-Serif" font-size="10.00">/MatrixElements.cpp</text>
</a>
</g>
</g>
<!-- Node32&#45;&gt;Node38 -->
<g id="edge9" class="edge"><title>Node32&#45;&gt;Node38</title>
<path fill="none" stroke="midnightblue" d="M171.131,-277.364C160.28,-266.114 147.321,-252.679 137.74,-242.746"/>
<polygon fill="midnightblue" stroke="midnightblue" points="168.778,-279.966 178.239,-284.733 173.816,-275.106 168.778,-279.966"/>
</g>
<!-- Node34 -->
<g id="node4" class="node"><title>Node34</title>
<g id="a_node4"><a xlink:href="HamiltonianOne_8cpp.html" target="_top" xlink:title="/travis/pairinteraction\l/HamiltonianOne.cpp">
<polygon fill="none" stroke="black" points="136,-145.5 136,-175.5 254,-175.5 254,-145.5 136,-145.5"/>
<text text-anchor="start" x="144" y="-163.5" font-family="Helvetica,sans-Serif" font-size="10.00">/travis/pairinteraction</text>
<text text-anchor="middle" x="195" y="-152.5" font-family="Helvetica,sans-Serif" font-size="10.00">/HamiltonianOne.cpp</text>
</a>
</g>
</g>
<!-- Node33&#45;&gt;Node34 -->
<g id="edge3" class="edge"><title>Node33&#45;&gt;Node34</title>
<path fill="none" stroke="midnightblue" d="M238.811,-205.311C229.061,-195.561 217.759,-184.259 209.077,-175.577"/>
<polygon fill="midnightblue" stroke="midnightblue" points="236.35,-207.8 245.896,-212.396 241.3,-202.85 236.35,-207.8"/>
</g>
<!-- Node33&#45;&gt;Node35 -->
<g id="edge4" class="edge"><title>Node33&#45;&gt;Node35</title>
<path fill="none" stroke="midnightblue" d="M206.589,-209.228C174.074,-198.713 133.063,-185.451 102.529,-175.577"/>
<polygon fill="midnightblue" stroke="midnightblue" points="205.794,-212.649 216.386,-212.396 207.948,-205.989 205.794,-212.649"/>
</g>
<!-- Node37 -->
<g id="node7" class="node"><title>Node37</title>
<g id="a_node7"><a xlink:href="Interface_8cpp.html" target="_top" xlink:title="/travis/pairinteraction\l/Interface.cpp">
<polygon fill="none" stroke="black" points="179,-78.5 179,-108.5 297,-108.5 297,-78.5 179,-78.5"/>
<text text-anchor="start" x="187" y="-96.5" font-family="Helvetica,sans-Serif" font-size="10.00">/travis/pairinteraction</text>
<text text-anchor="middle" x="238" y="-85.5" font-family="Helvetica,sans-Serif" font-size="10.00">/Interface.cpp</text>
</a>
</g>
</g>
<!-- Node33&#45;&gt;Node37 -->
<g id="edge7" class="edge"><title>Node33&#45;&gt;Node37</title>
<path fill="none" stroke="midnightblue" d="M264.229,-202.105C266.258,-185.74 267.403,-163.819 263,-145 259.969,-132.045 253.103,-118.602 247.332,-108.846"/>
<polygon fill="midnightblue" stroke="midnightblue" points="260.702,-202.044 262.741,-212.44 267.63,-203.041 260.702,-202.044"/>
</g>
<!-- Node36 -->
<g id="node6" class="node"><title>Node36</title>
<g id="a_node6"><a xlink:href="HamiltonianTwo_8cpp.html" target="_top" xlink:title="/travis/pairinteraction\l/HamiltonianTwo.cpp">
<polygon fill="none" stroke="black" points="0,-78.5 0,-108.5 118,-108.5 118,-78.5 0,-78.5"/>
<text text-anchor="start" x="8" y="-96.5" font-family="Helvetica,sans-Serif" font-size="10.00">/travis/pairinteraction</text>
<text text-anchor="middle" x="59" y="-85.5" font-family="Helvetica,sans-Serif" font-size="10.00">/HamiltonianTwo.cpp</text>
</a>
</g>
</g>
<!-- Node35&#45;&gt;Node36 -->
<g id="edge5" class="edge"><title>Node35&#45;&gt;Node36</title>
<path fill="none" stroke="midnightblue" d="M59,-135.108C59,-126.154 59,-116.323 59,-108.577"/>
<polygon fill="midnightblue" stroke="midnightblue" points="55.5001,-135.396 59,-145.396 62.5001,-135.396 55.5001,-135.396"/>
</g>
<!-- Node35&#45;&gt;Node37 -->
<g id="edge6" class="edge"><title>Node35&#45;&gt;Node37</title>
<path fill="none" stroke="midnightblue" d="M107.316,-141.955C136.15,-131.485 172.278,-118.366 199.235,-108.577"/>
<polygon fill="midnightblue" stroke="midnightblue" points="106.045,-138.693 97.8403,-145.396 108.434,-145.273 106.045,-138.693"/>
</g>
<!-- Node40 -->
<g id="node10" class="node"><title>Node40</title>
<g id="a_node10"><a xlink:href="MatrixElementCache_8cpp.html" target="_top" xlink:title="/travis/pairinteraction\l/MatrixElementCache.cpp">
<polygon fill="none" stroke="black" points="493.5,-212.5 493.5,-242.5 632.5,-242.5 632.5,-212.5 493.5,-212.5"/>
<text text-anchor="start" x="501.5" y="-230.5" font-family="Helvetica,sans-Serif" font-size="10.00">/travis/pairinteraction</text>
<text text-anchor="middle" x="563" y="-219.5" font-family="Helvetica,sans-Serif" font-size="10.00">/MatrixElementCache.cpp</text>
</a>
</g>
</g>
<!-- Node39&#45;&gt;Node40 -->
<g id="edge11" class="edge"><title>Node39&#45;&gt;Node40</title>
<path fill="none" stroke="midnightblue" d="M563,-274.732C563,-264.068 563,-251.914 563,-242.746"/>
<polygon fill="midnightblue" stroke="midnightblue" points="559.5,-274.733 563,-284.733 566.5,-274.733 559.5,-274.733"/>
</g>
<!-- Node41 -->
<g id="node11" class="node"><title>Node41</title>
<g id="a_node11"><a xlink:href="PerturbativeInteraction_8h.html" target="_top" xlink:title="/travis/pairinteraction\l/PerturbativeInteraction.h">
<polygon fill="none" stroke="black" points="337,-212.5 337,-242.5 475,-242.5 475,-212.5 337,-212.5"/>
<text text-anchor="start" x="345" y="-230.5" font-family="Helvetica,sans-Serif" font-size="10.00">/travis/pairinteraction</text>
<text text-anchor="middle" x="406" y="-219.5" font-family="Helvetica,sans-Serif" font-size="10.00">/PerturbativeInteraction.h</text>
</a>
</g>
</g>
<!-- Node39&#45;&gt;Node41 -->
<g id="edge12" class="edge"><title>Node39&#45;&gt;Node41</title>
<path fill="none" stroke="midnightblue" d="M522.217,-280.687C495.724,-268.79 461.713,-253.518 437.34,-242.573"/>
<polygon fill="midnightblue" stroke="midnightblue" points="521.05,-283.999 531.606,-284.903 523.917,-277.613 521.05,-283.999"/>
</g>
<!-- Node43 -->
<g id="node13" class="node"><title>Node43</title>
<g id="a_node13"><a xlink:href="SystemBase_8h.html" target="_top" xlink:title="/travis/pairinteraction\l/SystemBase.h">
<polygon fill="none" stroke="black" points="757,-212.5 757,-242.5 875,-242.5 875,-212.5 757,-212.5"/>
<text text-anchor="start" x="765" y="-230.5" font-family="Helvetica,sans-Serif" font-size="10.00">/travis/pairinteraction</text>
<text text-anchor="middle" x="816" y="-219.5" font-family="Helvetica,sans-Serif" font-size="10.00">/SystemBase.h</text>
</a>
</g>
</g>
<!-- Node39&#45;&gt;Node43 -->
<g id="edge14" class="edge"><title>Node39&#45;&gt;Node43</title>
<path fill="none" stroke="midnightblue" d="M623.141,-282.241C666.502,-270.159 724.373,-254.033 765.375,-242.607"/>
<polygon fill="midnightblue" stroke="midnightblue" points="621.981,-278.931 613.287,-284.987 623.86,-285.674 621.981,-278.931"/>
</g>
<!-- Node49 -->
<g id="node19" class="node"><title>Node49</title>
<g id="a_node19"><a xlink:href="integration__test_8cpp.html" target="_top" xlink:title="/travis/pairinteraction\l/unit_test/integration\l_test.cpp">
<polygon fill="none" stroke="black" points="640,-0.5 640,-41.5 758,-41.5 758,-0.5 640,-0.5"/>
<text text-anchor="start" x="648" y="-29.5" font-family="Helvetica,sans-Serif" font-size="10.00">/travis/pairinteraction</text>
<text text-anchor="start" x="648" y="-18.5" font-family="Helvetica,sans-Serif" font-size="10.00">/unit_test/integration</text>
<text text-anchor="middle" x="699" y="-7.5" font-family="Helvetica,sans-Serif" font-size="10.00">_test.cpp</text>
</a>
</g>
</g>
<!-- Node39&#45;&gt;Node49 -->
<g id="edge23" class="edge"><title>Node39&#45;&gt;Node49</title>
<path fill="none" stroke="midnightblue" d="M600.643,-279.49C615.184,-270.23 630.753,-257.901 641,-243 663.926,-209.661 687.144,-89.1189 695.631,-41.5242"/>
<polygon fill="midnightblue" stroke="midnightblue" points="598.522,-276.682 591.779,-284.855 602.146,-282.671 598.522,-276.682"/>
</g>
<!-- Node42 -->
<g id="node12" class="node"><title>Node42</title>
<g id="a_node12"><a xlink:href="PerturbativeInteraction_8cpp.html" target="_top" xlink:title="/travis/pairinteraction\l/PerturbativeInteraction.cpp">
<polygon fill="none" stroke="black" points="331.5,-145.5 331.5,-175.5 480.5,-175.5 480.5,-145.5 331.5,-145.5"/>
<text text-anchor="start" x="339.5" y="-163.5" font-family="Helvetica,sans-Serif" font-size="10.00">/travis/pairinteraction</text>
<text text-anchor="middle" x="406" y="-152.5" font-family="Helvetica,sans-Serif" font-size="10.00">/PerturbativeInteraction.cpp</text>
</a>
</g>
</g>
<!-- Node41&#45;&gt;Node42 -->
<g id="edge13" class="edge"><title>Node41&#45;&gt;Node42</title>
<path fill="none" stroke="midnightblue" d="M406,-202.108C406,-193.154 406,-183.323 406,-175.577"/>
<polygon fill="midnightblue" stroke="midnightblue" points="402.5,-202.396 406,-212.396 409.5,-202.396 402.5,-202.396"/>
</g>
<!-- Node44 -->
<g id="node14" class="node"><title>Node44</title>
<g id="a_node14"><a xlink:href="SystemBase_8cpp.html" target="_top" xlink:title="/travis/pairinteraction\l/SystemBase.cpp">
<polygon fill="none" stroke="black" points="825,-145.5 825,-175.5 943,-175.5 943,-145.5 825,-145.5"/>
<text text-anchor="start" x="833" y="-163.5" font-family="Helvetica,sans-Serif" font-size="10.00">/travis/pairinteraction</text>
<text text-anchor="middle" x="884" y="-152.5" font-family="Helvetica,sans-Serif" font-size="10.00">/SystemBase.cpp</text>
</a>
</g>
</g>
<!-- Node43&#45;&gt;Node44 -->
<g id="edge15" class="edge"><title>Node43&#45;&gt;Node44</title>
<path fill="none" stroke="midnightblue" d="M838.166,-205.311C848.367,-195.561 860.191,-184.259 869.274,-175.577"/>
<polygon fill="midnightblue" stroke="midnightblue" points="835.565,-202.956 830.755,-212.396 840.402,-208.016 835.565,-202.956"/>
</g>
<!-- Node45 -->
<g id="node15" class="node"><title>Node45</title>
<g id="a_node15"><a xlink:href="SystemOne_8h.html" target="_top" xlink:title="/travis/pairinteraction\l/SystemOne.h">
<polygon fill="none" stroke="black" points="689,-145.5 689,-175.5 807,-175.5 807,-145.5 689,-145.5"/>
<text text-anchor="start" x="697" y="-163.5" font-family="Helvetica,sans-Serif" font-size="10.00">/travis/pairinteraction</text>
<text text-anchor="middle" x="748" y="-152.5" font-family="Helvetica,sans-Serif" font-size="10.00">/SystemOne.h</text>
</a>
</g>
</g>
<!-- Node43&#45;&gt;Node45 -->
<g id="edge16" class="edge"><title>Node43&#45;&gt;Node45</title>
<path fill="none" stroke="midnightblue" d="M793.834,-205.311C783.633,-195.561 771.809,-184.259 762.726,-175.577"/>
<polygon fill="midnightblue" stroke="midnightblue" points="791.598,-208.016 801.245,-212.396 796.435,-202.956 791.598,-208.016"/>
</g>
<!-- Node47 -->
<g id="node17" class="node"><title>Node47</title>
<g id="a_node17"><a xlink:href="SystemTwo_8h.html" target="_top" xlink:title="/travis/pairinteraction\l/SystemTwo.h">
<polygon fill="none" stroke="black" points="863,-78.5 863,-108.5 981,-108.5 981,-78.5 863,-78.5"/>
<text text-anchor="start" x="871" y="-96.5" font-family="Helvetica,sans-Serif" font-size="10.00">/travis/pairinteraction</text>
<text text-anchor="middle" x="922" y="-85.5" font-family="Helvetica,sans-Serif" font-size="10.00">/SystemTwo.h</text>
</a>
</g>
</g>
<!-- Node43&#45;&gt;Node47 -->
<g id="edge22" class="edge"><title>Node43&#45;&gt;Node47</title>
<path fill="none" stroke="midnightblue" d="M885.076,-217.542C910.419,-210.536 936.64,-198.088 952,-176 966.634,-154.956 948.603,-125.921 934.837,-108.789"/>
<polygon fill="midnightblue" stroke="midnightblue" points="883.905,-214.227 875.057,-220.055 885.608,-221.017 883.905,-214.227"/>
</g>
<!-- Node46 -->
<g id="node16" class="node"><title>Node46</title>
<g id="a_node16"><a xlink:href="SystemOne_8cpp.html" target="_top" xlink:title="/travis/pairinteraction\l/SystemOne.cpp">
<polygon fill="none" stroke="black" points="727,-78.5 727,-108.5 845,-108.5 845,-78.5 727,-78.5"/>
<text text-anchor="start" x="735" y="-96.5" font-family="Helvetica,sans-Serif" font-size="10.00">/travis/pairinteraction</text>
<text text-anchor="middle" x="786" y="-85.5" font-family="Helvetica,sans-Serif" font-size="10.00">/SystemOne.cpp</text>
</a>
</g>
</g>
<!-- Node45&#45;&gt;Node46 -->
<g id="edge17" class="edge"><title>Node45&#45;&gt;Node46</title>
<path fill="none" stroke="midnightblue" d="M761.402,-136.576C766.859,-127.241 772.993,-116.748 777.771,-108.577"/>
<polygon fill="midnightblue" stroke="midnightblue" points="758.271,-134.997 756.245,-145.396 764.314,-138.529 758.271,-134.997"/>
</g>
<!-- Node45&#45;&gt;Node47 -->
<g id="edge18" class="edge"><title>Node45&#45;&gt;Node47</title>
<path fill="none" stroke="midnightblue" d="M795.332,-141.819C823.3,-131.371 858.227,-118.323 884.318,-108.577"/>
<polygon fill="midnightblue" stroke="midnightblue" points="793.898,-138.618 785.755,-145.396 796.348,-145.175 793.898,-138.618"/>
</g>
<!-- Node45&#45;&gt;Node49 -->
<g id="edge21" class="edge"><title>Node45&#45;&gt;Node49</title>
<path fill="none" stroke="midnightblue" d="M732.304,-136.634C727.122,-128.244 721.735,-118.475 718,-109 709.211,-86.7066 704.1,-59.5156 701.435,-41.5303"/>
<polygon fill="midnightblue" stroke="midnightblue" points="729.406,-138.599 737.757,-145.119 735.295,-134.814 729.406,-138.599"/>
</g>
<!-- Node48 -->
<g id="node18" class="node"><title>Node48</title>
<g id="a_node18"><a xlink:href="SystemTwo_8cpp.html" target="_top" xlink:title="/travis/pairinteraction\l/SystemTwo.cpp">
<polygon fill="none" stroke="black" points="863,-6 863,-36 981,-36 981,-6 863,-6"/>
<text text-anchor="start" x="871" y="-24" font-family="Helvetica,sans-Serif" font-size="10.00">/travis/pairinteraction</text>
<text text-anchor="middle" x="922" y="-13" font-family="Helvetica,sans-Serif" font-size="10.00">/SystemTwo.cpp</text>
</a>
</g>
</g>
<!-- Node47&#45;&gt;Node48 -->
<g id="edge19" class="edge"><title>Node47&#45;&gt;Node48</title>
<path fill="none" stroke="midnightblue" d="M922,-68.2317C922,-57.5679 922,-45.4145 922,-36.2455"/>
<polygon fill="midnightblue" stroke="midnightblue" points="918.5,-68.2332 922,-78.2333 925.5,-68.2333 918.5,-68.2332"/>
</g>
<!-- Node47&#45;&gt;Node49 -->
<g id="edge20" class="edge"><title>Node47&#45;&gt;Node49</title>
<path fill="none" stroke="midnightblue" d="M868.122,-75.4668C834.872,-64.9552 792.196,-51.4632 758.032,-40.6625"/>
<polygon fill="midnightblue" stroke="midnightblue" points="867.086,-78.8099 877.676,-78.4872 869.196,-72.1355 867.086,-78.8099"/>
</g>
</g>
</svg>
