<?xml version="1.0" encoding="UTF-8" standalone="no"?>
<!DOCTYPE svg PUBLIC "-//W3C//DTD SVG 1.1//EN"
 "http://www.w3.org/Graphics/SVG/1.1/DTD/svg11.dtd">
<!-- Generated by graphviz version 2.38.0 (20140413.2041)
 -->
<!-- Title: /travis/pairinteraction/Wavefunction.cpp Pages: 1 -->
<svg width="1642pt" height="330pt"
 viewBox="0.00 0.00 1641.50 330.00" xmlns="http://www.w3.org/2000/svg" xmlns:xlink="http://www.w3.org/1999/xlink">
<g id="graph0" class="graph" transform="scale(1 1) rotate(0) translate(4 326)">
<title>/travis/pairinteraction/Wavefunction.cpp</title>
<!-- Node0 -->
<g id="node1" class="node"><title>Node0</title>
<polygon fill="#bfbfbf" stroke="black" points="1280.5,-291.5 1280.5,-321.5 1398.5,-321.5 1398.5,-291.5 1280.5,-291.5"/>
<text text-anchor="start" x="1288.5" y="-309.5" font-family="Helvetica,sans-Serif" font-size="10.00">/travis/pairinteraction</text>
<text text-anchor="middle" x="1339.5" y="-298.5" font-family="Helvetica,sans-Serif" font-size="10.00">/Wavefunction.cpp</text>
</g>
<!-- Node1 -->
<g id="node2" class="node"><title>Node1</title>
<g id="a_node2"><a xlink:href="Wavefunction_8h.html" target="_top" xlink:title="Wavefunction.h">
<polygon fill="none" stroke="black" points="1200,-235.5 1200,-254.5 1289,-254.5 1289,-235.5 1200,-235.5"/>
<text text-anchor="middle" x="1244.5" y="-242.5" font-family="Helvetica,sans-Serif" font-size="10.00">Wavefunction.h</text>
</a>
</g>
</g>
<!-- Node0&#45;&gt;Node1 -->
<g id="edge1" class="edge"><title>Node0&#45;&gt;Node1</title>
<path fill="none" stroke="midnightblue" d="M1316.99,-291.399C1301.9,-281.951 1282.11,-269.559 1267.03,-260.109"/>
<polygon fill="midnightblue" stroke="midnightblue" points="1268.66,-257 1258.32,-254.658 1264.94,-262.932 1268.66,-257"/>
</g>
<!-- Node2 -->
<g id="node3" class="node"><title>Node2</title>
<g id="a_node3"><a xlink:href="QuantumDefect_8h.html" target="_top" xlink:title="QuantumDefect.h">
<polygon fill="none" stroke="black" points="624.5,-179.5 624.5,-198.5 726.5,-198.5 726.5,-179.5 624.5,-179.5"/>
<text text-anchor="middle" x="675.5" y="-186.5" font-family="Helvetica,sans-Serif" font-size="10.00">QuantumDefect.h</text>
</a>
</g>
</g>
<!-- Node0&#45;&gt;Node2 -->
<g id="edge40" class="edge"><title>Node0&#45;&gt;Node2</title>
<path fill="none" stroke="midnightblue" d="M1280.28,-295.199C1154.3,-273.285 860.934,-222.255 734.84,-200.322"/>
<polygon fill="midnightblue" stroke="midnightblue" points="735.062,-196.808 724.61,-198.542 733.862,-203.704 735.062,-196.808"/>
</g>
<!-- Node12 -->
<g id="node13" class="node"><title>Node12</title>
<polygon fill="none" stroke="#bfbfbf" points="1007.5,-62 1007.5,-81 1051.5,-81 1051.5,-62 1007.5,-62"/>
<text text-anchor="middle" x="1029.5" y="-69" font-family="Helvetica,sans-Serif" font-size="10.00">string</text>
</g>
<!-- Node0&#45;&gt;Node12 -->
<g id="edge44" class="edge"><title>Node0&#45;&gt;Node12</title>
<path fill="none" stroke="midnightblue" d="M1280.4,-293.066C1251.65,-285.19 1217.56,-273.012 1190.5,-255 1121.38,-208.987 1063.5,-126.069 1040.34,-90.0243"/>
<polygon fill="midnightblue" stroke="midnightblue" points="1043.05,-87.7556 1034.75,-81.1704 1037.13,-91.4941 1043.05,-87.7556"/>
</g>
<!-- Node27 -->
<g id="node28" class="node"><title>Node27</title>
<polygon fill="none" stroke="#bfbfbf" points="1484,-62 1484,-81 1531,-81 1531,-62 1484,-62"/>
<text text-anchor="middle" x="1507.5" y="-69" font-family="Helvetica,sans-Serif" font-size="10.00">cmath</text>
</g>
<!-- Node0&#45;&gt;Node27 -->
<g id="edge43" class="edge"><title>Node0&#45;&gt;Node27</title>
<path fill="none" stroke="midnightblue" d="M1336.74,-291.189C1331.14,-257.563 1322.21,-172.623 1363.5,-123 1396.67,-83.1321 1426.03,-105.455 1474.5,-87 1476.11,-86.3876 1477.75,-85.7395 1479.4,-85.0704"/>
<polygon fill="midnightblue" stroke="midnightblue" points="1480.94,-88.2234 1488.79,-81.111 1478.21,-81.774 1480.94,-88.2234"/>
</g>
<!-- Node29 -->
<g id="node30" class="node"><title>Node29</title>
<polygon fill="none" stroke="#bfbfbf" points="1549,-62 1549,-81 1596,-81 1596,-62 1549,-62"/>
<text text-anchor="middle" x="1572.5" y="-69" font-family="Helvetica,sans-Serif" font-size="10.00">vector</text>
</g>
<!-- Node0&#45;&gt;Node29 -->
<g id="edge45" class="edge"><title>Node0&#45;&gt;Node29</title>
<path fill="none" stroke="midnightblue" d="M1349.86,-291.493C1360.88,-276.9 1379.07,-253.612 1396.5,-235 1450.52,-177.318 1521.31,-115.736 1554.22,-87.8242"/>
<polygon fill="midnightblue" stroke="midnightblue" points="1556.71,-90.3006 1562.09,-81.1748 1552.19,-84.9523 1556.71,-90.3006"/>
</g>
<!-- Node32 -->
<g id="node33" class="node"><title>Node32</title>
<polygon fill="none" stroke="#bfbfbf" points="1405.5,-235.5 1405.5,-254.5 1567.5,-254.5 1567.5,-235.5 1405.5,-235.5"/>
<text text-anchor="middle" x="1486.5" y="-242.5" font-family="Helvetica,sans-Serif" font-size="10.00">boost/core/ignore_unused.hpp</text>
</g>
<!-- Node0&#45;&gt;Node32 -->
<g id="edge41" class="edge"><title>Node0&#45;&gt;Node32</title>
<path fill="none" stroke="midnightblue" d="M1374.34,-291.399C1399,-281.416 1431.79,-268.147 1455.53,-258.534"/>
<polygon fill="midnightblue" stroke="midnightblue" points="1457.15,-261.654 1465.11,-254.658 1454.53,-255.165 1457.15,-261.654"/>
</g>
<!-- Node33 -->
<g id="node34" class="node"><title>Node33</title>
<polygon fill="none" stroke="#bfbfbf" points="1585.5,-235.5 1585.5,-254.5 1633.5,-254.5 1633.5,-235.5 1585.5,-235.5"/>
<text text-anchor="middle" x="1609.5" y="-242.5" font-family="Helvetica,sans-Serif" font-size="10.00">cctype</text>
</g>
<!-- Node0&#45;&gt;Node33 -->
<g id="edge42" class="edge"><title>Node0&#45;&gt;Node33</title>
<path fill="none" stroke="midnightblue" d="M1398.63,-293.862C1444.45,-284.625 1509.73,-270.987 1575.66,-255.103"/>
<polygon fill="midnightblue" stroke="midnightblue" points="1576.5,-258.502 1585.39,-252.744 1574.85,-251.699 1576.5,-258.502"/>
</g>
<!-- Node1&#45;&gt;Node2 -->
<g id="edge2" class="edge"><title>Node1&#45;&gt;Node2</title>
<path fill="none" stroke="midnightblue" d="M1199.85,-239.763C1098.76,-230.169 852.236,-206.773 736.895,-195.827"/>
<polygon fill="midnightblue" stroke="midnightblue" points="737.104,-192.331 726.818,-194.87 736.442,-199.299 737.104,-192.331"/>
</g>
<!-- Node1&#45;&gt;Node12 -->
<g id="edge38" class="edge"><title>Node1&#45;&gt;Node12</title>
<path fill="none" stroke="midnightblue" d="M1233.84,-235.495C1199.52,-208.122 1091.64,-122.067 1048.05,-87.2943"/>
<polygon fill="midnightblue" stroke="midnightblue" points="1050.23,-84.5558 1040.23,-81.056 1045.86,-90.0281 1050.23,-84.5558"/>
</g>
<!-- Node23 -->
<g id="node24" class="node"><title>Node23</title>
<g id="a_node24"><a xlink:href="dtypes_8h.html" target="_top" xlink:title="dtypes.h">
<polygon fill="none" stroke="black" points="1215.5,-123.5 1215.5,-142.5 1273.5,-142.5 1273.5,-123.5 1215.5,-123.5"/>
<text text-anchor="middle" x="1244.5" y="-130.5" font-family="Helvetica,sans-Serif" font-size="10.00">dtypes.h</text>
</a>
</g>
</g>
<!-- Node1&#45;&gt;Node23 -->
<g id="edge37" class="edge"><title>Node1&#45;&gt;Node23</title>
<path fill="none" stroke="midnightblue" d="M1244.5,-235.368C1244.5,-217.617 1244.5,-176.666 1244.5,-152.597"/>
<polygon fill="midnightblue" stroke="midnightblue" points="1248,-152.591 1244.5,-142.591 1241,-152.591 1248,-152.591"/>
</g>
<!-- Node1&#45;&gt;Node29 -->
<g id="edge39" class="edge"><title>Node1&#45;&gt;Node29</title>
<path fill="none" stroke="midnightblue" d="M1250.24,-235.272C1265.61,-212.67 1310.17,-151.979 1363.5,-123 1433.65,-84.8798 1463.41,-111.195 1539.5,-87 1541.42,-86.3884 1543.39,-85.7008 1545.35,-84.966"/>
<polygon fill="midnightblue" stroke="midnightblue" points="1547.03,-88.0604 1554.96,-81.0327 1544.37,-81.5821 1547.03,-88.0604"/>
</g>
<!-- Node3 -->
<g id="node4" class="node"><title>Node3</title>
<g id="a_node4"><a xlink:href="Cache_8h.html" target="_top" xlink:title="Cache.h">
<polygon fill="none" stroke="black" points="208.5,-123.5 208.5,-142.5 264.5,-142.5 264.5,-123.5 208.5,-123.5"/>
<text text-anchor="middle" x="236.5" y="-130.5" font-family="Helvetica,sans-Serif" font-size="10.00">Cache.h</text>
</a>
</g>
</g>
<!-- Node2&#45;&gt;Node3 -->
<g id="edge3" class="edge"><title>Node2&#45;&gt;Node3</title>
<path fill="none" stroke="midnightblue" d="M624.282,-181.7C535.209,-170.743 353.737,-148.421 274.707,-138.7"/>
<polygon fill="midnightblue" stroke="midnightblue" points="275.052,-135.216 264.699,-137.469 274.197,-142.163 275.052,-135.216"/>
</g>
<!-- Node4 -->
<g id="node5" class="node"><title>Node4</title>
<polygon fill="none" stroke="#bfbfbf" points="0,-62 0,-81 47,-81 47,-62 0,-62"/>
<text text-anchor="middle" x="23.5" y="-69" font-family="Helvetica,sans-Serif" font-size="10.00">mutex</text>
</g>
<!-- Node2&#45;&gt;Node4 -->
<g id="edge32" class="edge"><title>Node2&#45;&gt;Node4</title>
<path fill="none" stroke="midnightblue" d="M624.195,-185.669C518.106,-180.438 277.962,-166.36 199.5,-143 181.208,-137.554 179.023,-130.562 161.5,-123 116.204,-103.454 102.456,-104.938 56.5,-87 54.8969,-86.3742 53.2574,-85.7156 51.6078,-85.0384"/>
<polygon fill="midnightblue" stroke="midnightblue" points="52.8058,-81.7446 42.2334,-81.0557 50.0687,-88.1873 52.8058,-81.7446"/>
</g>
<!-- Node5 -->
<g id="node6" class="node"><title>Node5</title>
<polygon fill="none" stroke="#bfbfbf" points="190,-62 190,-81 283,-81 283,-62 190,-62"/>
<text text-anchor="middle" x="236.5" y="-69" font-family="Helvetica,sans-Serif" font-size="10.00">unordered_map</text>
</g>
<!-- Node2&#45;&gt;Node5 -->
<g id="edge35" class="edge"><title>Node2&#45;&gt;Node5</title>
<path fill="none" stroke="midnightblue" d="M643.133,-179.493C577.045,-162.123 421.823,-121.318 291.5,-87 287.364,-85.9109 283.053,-84.7752 278.745,-83.6399"/>
<polygon fill="midnightblue" stroke="midnightblue" points="279.343,-80.1781 268.781,-81.0138 277.559,-86.9469 279.343,-80.1781"/>
</g>
<!-- Node7 -->
<g id="node8" class="node"><title>Node7</title>
<g id="a_node8"><a xlink:href="SQLite_8h.html" target="_top" xlink:title="SQLite.h">
<polygon fill="none" stroke="black" points="613,-123.5 613,-142.5 670,-142.5 670,-123.5 613,-123.5"/>
<text text-anchor="middle" x="641.5" y="-130.5" font-family="Helvetica,sans-Serif" font-size="10.00">SQLite.h</text>
</a>
</g>
</g>
<!-- Node2&#45;&gt;Node7 -->
<g id="edge7" class="edge"><title>Node2&#45;&gt;Node7</title>
<path fill="none" stroke="midnightblue" d="M669.886,-179.083C665.133,-171.534 658.182,-160.495 652.348,-151.23"/>
<polygon fill="midnightblue" stroke="midnightblue" points="655.3,-149.349 647.01,-142.751 649.376,-153.078 655.3,-149.349"/>
</g>
<!-- Node2&#45;&gt;Node12 -->
<g id="edge33" class="edge"><title>Node2&#45;&gt;Node12</title>
<path fill="none" stroke="midnightblue" d="M707.016,-179.492C765.168,-163.49 892.956,-126.912 997.5,-87 999.106,-86.3868 1000.75,-85.7329 1002.39,-85.0546"/>
<polygon fill="midnightblue" stroke="midnightblue" points="1003.93,-88.2016 1011.72,-81.0177 1001.15,-81.7774 1003.93,-88.2016"/>
</g>
<!-- Node2&#45;&gt;Node23 -->
<g id="edge25" class="edge"><title>Node2&#45;&gt;Node23</title>
<path fill="none" stroke="midnightblue" d="M726.747,-183.137C839.14,-172.47 1105.24,-147.216 1205.43,-137.707"/>
<polygon fill="midnightblue" stroke="midnightblue" points="1205.81,-141.188 1215.43,-136.758 1205.15,-134.219 1205.81,-141.188"/>
</g>
<!-- Node30 -->
<g id="node31" class="node"><title>Node30</title>
<polygon fill="none" stroke="#bfbfbf" points="688,-123.5 688,-142.5 729,-142.5 729,-123.5 688,-123.5"/>
<text text-anchor="middle" x="708.5" y="-130.5" font-family="Helvetica,sans-Serif" font-size="10.00">tuple</text>
</g>
<!-- Node2&#45;&gt;Node30 -->
<g id="edge34" class="edge"><title>Node2&#45;&gt;Node30</title>
<path fill="none" stroke="midnightblue" d="M680.949,-179.083C685.514,-171.613 692.168,-160.724 697.793,-151.52"/>
<polygon fill="midnightblue" stroke="midnightblue" points="700.924,-153.109 703.152,-142.751 694.951,-149.459 700.924,-153.109"/>
</g>
<!-- Node31 -->
<g id="node32" class="node"><title>Node31</title>
<polygon fill="none" stroke="#bfbfbf" points="12.5,-123.5 12.5,-142.5 152.5,-142.5 152.5,-123.5 12.5,-123.5"/>
<text text-anchor="middle" x="82.5" y="-130.5" font-family="Helvetica,sans-Serif" font-size="10.00">boost/functional/hash.hpp</text>
</g>
<!-- Node2&#45;&gt;Node31 -->
<g id="edge36" class="edge"><title>Node2&#45;&gt;Node31</title>
<path fill="none" stroke="midnightblue" d="M624.175,-183.779C532.329,-176.156 333.813,-159.358 166.5,-143 165.227,-142.876 163.944,-142.749 162.652,-142.621"/>
<polygon fill="midnightblue" stroke="midnightblue" points="162.917,-139.13 152.616,-141.611 162.215,-146.095 162.917,-139.13"/>
</g>
<!-- Node3&#45;&gt;Node4 -->
<g id="edge4" class="edge"><title>Node3&#45;&gt;Node4</title>
<path fill="none" stroke="midnightblue" d="M208.448,-125.599C165.261,-115.641 84.5407,-96.5886 56.5,-87 54.6348,-86.3622 52.729,-85.6618 50.8208,-84.9239"/>
<polygon fill="midnightblue" stroke="midnightblue" points="52.0152,-81.6303 41.4369,-81.0377 49.3368,-88.0977 52.0152,-81.6303"/>
</g>
<!-- Node3&#45;&gt;Node5 -->
<g id="edge5" class="edge"><title>Node3&#45;&gt;Node5</title>
<path fill="none" stroke="midnightblue" d="M236.5,-123.475C236.5,-115.08 236.5,-101.981 236.5,-91.1631"/>
<polygon fill="midnightblue" stroke="midnightblue" points="240,-91.0091 236.5,-81.0091 233,-91.0091 240,-91.0091"/>
</g>
<!-- Node6 -->
<g id="node7" class="node"><title>Node6</title>
<polygon fill="none" stroke="#bfbfbf" points="65.5,-62 65.5,-81 171.5,-81 171.5,-62 65.5,-62"/>
<text text-anchor="middle" x="118.5" y="-69" font-family="Helvetica,sans-Serif" font-size="10.00">boost/optional.hpp</text>
</g>
<!-- Node3&#45;&gt;Node6 -->
<g id="edge6" class="edge"><title>Node3&#45;&gt;Node6</title>
<path fill="none" stroke="midnightblue" d="M219.593,-123.475C199.966,-113.578 167.369,-97.1416 144.51,-85.6151"/>
<polygon fill="midnightblue" stroke="midnightblue" points="145.88,-82.3863 135.375,-81.0091 142.728,-88.6367 145.88,-82.3863"/>
</g>
<!-- Node8 -->
<g id="node9" class="node"><title>Node8</title>
<polygon fill="none" stroke="#bfbfbf" points="301,-62 301,-81 360,-81 360,-62 301,-62"/>
<text text-anchor="middle" x="330.5" y="-69" font-family="Helvetica,sans-Serif" font-size="10.00">iostream</text>
</g>
<!-- Node7&#45;&gt;Node8 -->
<g id="edge8" class="edge"><title>Node7&#45;&gt;Node8</title>
<path fill="none" stroke="midnightblue" d="M612.801,-129.191C562.611,-123.855 455.911,-110.623 368.5,-87 365.844,-86.2821 363.115,-85.4468 360.399,-84.5464"/>
<polygon fill="midnightblue" stroke="midnightblue" points="361.355,-81.1712 350.76,-81.0944 358.995,-87.7613 361.355,-81.1712"/>
</g>
<!-- Node9 -->
<g id="node10" class="node"><title>Node9</title>
<polygon fill="none" stroke="#bfbfbf" points="378,-62 378,-81 435,-81 435,-62 378,-62"/>
<text text-anchor="middle" x="406.5" y="-69" font-family="Helvetica,sans-Serif" font-size="10.00">memory</text>
</g>
<!-- Node7&#45;&gt;Node9 -->
<g id="edge9" class="edge"><title>Node7&#45;&gt;Node9</title>
<path fill="none" stroke="midnightblue" d="M612.98,-126.202C575.292,-118.338 506.954,-103.38 449.5,-87 446.491,-86.1421 443.38,-85.2013 440.272,-84.2241"/>
<polygon fill="midnightblue" stroke="midnightblue" points="441.073,-80.804 430.481,-81.0352 438.905,-87.4599 441.073,-80.804"/>
</g>
<!-- Node10 -->
<g id="node11" class="node"><title>Node10</title>
<polygon fill="none" stroke="#bfbfbf" points="548.5,-0.5 548.5,-19.5 602.5,-19.5 602.5,-0.5 548.5,-0.5"/>
<text text-anchor="middle" x="575.5" y="-7.5" font-family="Helvetica,sans-Serif" font-size="10.00">random</text>
</g>
<!-- Node7&#45;&gt;Node10 -->
<g id="edge10" class="edge"><title>Node7&#45;&gt;Node10</title>
<path fill="none" stroke="midnightblue" d="M612.93,-128.061C571.563,-121.706 498.204,-107.765 482.5,-87 474.189,-76.0109 475.181,-67.6728 482.5,-56 494.783,-36.4111 518.277,-25.1399 538.576,-18.7766"/>
<polygon fill="midnightblue" stroke="midnightblue" points="539.561,-22.1353 548.222,-16.0322 537.646,-15.4025 539.561,-22.1353"/>
</g>
<!-- Node11 -->
<g id="node12" class="node"><title>Node11</title>
<polygon fill="none" stroke="#bfbfbf" points="491.5,-62 491.5,-81 547.5,-81 547.5,-62 491.5,-62"/>
<text text-anchor="middle" x="519.5" y="-69" font-family="Helvetica,sans-Serif" font-size="10.00">sstream</text>
</g>
<!-- Node7&#45;&gt;Node11 -->
<g id="edge11" class="edge"><title>Node7&#45;&gt;Node11</title>
<path fill="none" stroke="midnightblue" d="M624.02,-123.475C603.637,-113.534 569.725,-96.9947 546.075,-85.461"/>
<polygon fill="midnightblue" stroke="midnightblue" points="547.469,-82.2468 536.947,-81.0091 544.401,-88.5385 547.469,-82.2468"/>
</g>
<!-- Node7&#45;&gt;Node12 -->
<g id="edge12" class="edge"><title>Node7&#45;&gt;Node12</title>
<path fill="none" stroke="midnightblue" d="M670.108,-124.664C672.933,-124.053 675.766,-123.485 678.5,-123 818.986,-98.0893 859.95,-124.907 997.5,-87 999.65,-86.4075 1001.84,-85.6885 1004.01,-84.8912"/>
<polygon fill="midnightblue" stroke="midnightblue" points="1005.37,-88.1162 1013.26,-81.044 1002.68,-81.653 1005.37,-88.1162"/>
</g>
<!-- Node13 -->
<g id="node14" class="node"><title>Node13</title>
<polygon fill="none" stroke="#bfbfbf" points="565.5,-62 565.5,-81 613.5,-81 613.5,-62 565.5,-62"/>
<text text-anchor="middle" x="589.5" y="-69" font-family="Helvetica,sans-Serif" font-size="10.00">thread</text>
</g>
<!-- Node7&#45;&gt;Node13 -->
<g id="edge13" class="edge"><title>Node7&#45;&gt;Node13</title>
<path fill="none" stroke="midnightblue" d="M634.05,-123.475C626.172,-114.462 613.555,-100.025 603.756,-88.8118"/>
<polygon fill="midnightblue" stroke="midnightblue" points="606.153,-86.2356 596.937,-81.0091 600.882,-90.842 606.153,-86.2356"/>
</g>
<!-- Node14 -->
<g id="node15" class="node"><title>Node14</title>
<polygon fill="none" stroke="#bfbfbf" points="669.5,-0.5 669.5,-19.5 737.5,-19.5 737.5,-0.5 669.5,-0.5"/>
<text text-anchor="middle" x="703.5" y="-7.5" font-family="Helvetica,sans-Serif" font-size="10.00">type_traits</text>
</g>
<!-- Node7&#45;&gt;Node14 -->
<g id="edge14" class="edge"><title>Node7&#45;&gt;Node14</title>
<path fill="none" stroke="midnightblue" d="M642.245,-123.03C643.791,-108.235 648.287,-78.1536 660.5,-56 666.588,-44.9563 676.062,-34.6297 684.569,-26.6616"/>
<polygon fill="midnightblue" stroke="midnightblue" points="687.14,-29.0589 692.287,-19.7982 682.488,-23.828 687.14,-29.0589"/>
</g>
<!-- Node15 -->
<g id="node16" class="node"><title>Node15</title>
<polygon fill="none" stroke="#bfbfbf" points="669.5,-56.5 669.5,-86.5 789.5,-86.5 789.5,-56.5 669.5,-56.5"/>
<text text-anchor="start" x="677.5" y="-74.5" font-family="Helvetica,sans-Serif" font-size="10.00">boost/iterator/iterator</text>
<text text-anchor="middle" x="729.5" y="-63.5" font-family="Helvetica,sans-Serif" font-size="10.00">_facade.hpp</text>
</g>
<!-- Node7&#45;&gt;Node15 -->
<g id="edge15" class="edge"><title>Node7&#45;&gt;Node15</title>
<path fill="none" stroke="midnightblue" d="M654.108,-123.475C666.138,-115.341 684.7,-102.791 700.395,-92.1788"/>
<polygon fill="midnightblue" stroke="midnightblue" points="702.436,-95.0237 708.76,-86.523 698.516,-89.2248 702.436,-95.0237"/>
</g>
<!-- Node16 -->
<g id="node17" class="node"><title>Node16</title>
<polygon fill="none" stroke="#bfbfbf" points="808,-62 808,-81 865,-81 865,-62 808,-62"/>
<text text-anchor="middle" x="836.5" y="-69" font-family="Helvetica,sans-Serif" font-size="10.00">sqlite3.h</text>
</g>
<!-- Node7&#45;&gt;Node16 -->
<g id="edge16" class="edge"><title>Node7&#45;&gt;Node16</title>
<path fill="none" stroke="midnightblue" d="M670.087,-124.594C701.726,-116.215 754.117,-101.798 798.5,-87 800.761,-86.2462 803.086,-85.4391 805.419,-84.6059"/>
<polygon fill="midnightblue" stroke="midnightblue" points="806.742,-87.8486 814.912,-81.1033 804.319,-81.2813 806.742,-87.8486"/>
</g>
<!-- Node17 -->
<g id="node18" class="node"><title>Node17</title>
<polygon fill="none" stroke="#bfbfbf" points="883.5,-62 883.5,-81 925.5,-81 925.5,-62 883.5,-62"/>
<text text-anchor="middle" x="904.5" y="-69" font-family="Helvetica,sans-Serif" font-size="10.00">utility</text>
</g>
<!-- Node7&#45;&gt;Node17 -->
<g id="edge17" class="edge"><title>Node7&#45;&gt;Node17</title>
<path fill="none" stroke="midnightblue" d="M670.147,-124.864C672.965,-124.213 675.785,-123.58 678.5,-123 764.684,-104.578 789.571,-113.888 873.5,-87 875.173,-86.4641 876.873,-85.8586 878.571,-85.2068"/>
<polygon fill="midnightblue" stroke="midnightblue" points="880.271,-88.2859 888.082,-81.1279 877.512,-81.8524 880.271,-88.2859"/>
</g>
<!-- Node18 -->
<g id="node19" class="node"><title>Node18</title>
<g id="a_node19"><a xlink:href="utils_8h.html" target="_top" xlink:title="utils.h">
<polygon fill="none" stroke="black" points="944,-62 944,-81 989,-81 989,-62 944,-62"/>
<text text-anchor="middle" x="966.5" y="-69" font-family="Helvetica,sans-Serif" font-size="10.00">utils.h</text>
</a>
</g>
</g>
<!-- Node7&#45;&gt;Node18 -->
<g id="edge18" class="edge"><title>Node7&#45;&gt;Node18</title>
<path fill="none" stroke="midnightblue" d="M670.122,-124.742C672.945,-124.115 675.773,-123.522 678.5,-123 791.348,-101.396 824.16,-119.037 934.5,-87 936.433,-86.4388 938.399,-85.7813 940.358,-85.0617"/>
<polygon fill="midnightblue" stroke="midnightblue" points="942.007,-88.1673 949.904,-81.1042 939.326,-81.701 942.007,-88.1673"/>
</g>
<!-- Node18&#45;&gt;Node10 -->
<g id="edge22" class="edge"><title>Node18&#45;&gt;Node10</title>
<path fill="none" stroke="midnightblue" d="M950.248,-61.9971C945.306,-59.7258 939.783,-57.491 934.5,-56 903.997,-47.3911 698.443,-24.3856 612.821,-15.0353"/>
<polygon fill="midnightblue" stroke="midnightblue" points="613.075,-11.5424 602.754,-13.9387 612.316,-18.5012 613.075,-11.5424"/>
</g>
<!-- Node18&#45;&gt;Node14 -->
<g id="edge23" class="edge"><title>Node18&#45;&gt;Node14</title>
<path fill="none" stroke="midnightblue" d="M949.518,-61.9195C944.748,-59.7544 939.497,-57.5948 934.5,-56 871.173,-35.7897 795.038,-23.0925 747.952,-16.5217"/>
<polygon fill="midnightblue" stroke="midnightblue" points="748.167,-13.0186 737.786,-15.1354 747.221,-19.9545 748.167,-13.0186"/>
</g>
<!-- Node19 -->
<g id="node20" class="node"><title>Node19</title>
<polygon fill="none" stroke="#bfbfbf" points="973.5,-0.5 973.5,-19.5 1035.5,-19.5 1035.5,-0.5 973.5,-0.5"/>
<text text-anchor="middle" x="1004.5" y="-7.5" font-family="Helvetica,sans-Serif" font-size="10.00">algorithm</text>
</g>
<!-- Node18&#45;&gt;Node19 -->
<g id="edge19" class="edge"><title>Node18&#45;&gt;Node19</title>
<path fill="none" stroke="midnightblue" d="M971.944,-61.9751C977.588,-53.1384 986.561,-39.0886 993.659,-27.975"/>
<polygon fill="midnightblue" stroke="midnightblue" points="996.633,-29.8208 999.066,-19.5091 990.733,-26.0531 996.633,-29.8208"/>
</g>
<!-- Node20 -->
<g id="node21" class="node"><title>Node20</title>
<polygon fill="none" stroke="#bfbfbf" points="1054,-0.5 1054,-19.5 1111,-19.5 1111,-0.5 1054,-0.5"/>
<text text-anchor="middle" x="1082.5" y="-7.5" font-family="Helvetica,sans-Serif" font-size="10.00">complex</text>
</g>
<!-- Node18&#45;&gt;Node20 -->
<g id="edge20" class="edge"><title>Node18&#45;&gt;Node20</title>
<path fill="none" stroke="midnightblue" d="M983.12,-61.9751C1002.42,-52.078 1034.46,-35.6416 1056.93,-24.1151"/>
<polygon fill="midnightblue" stroke="midnightblue" points="1058.61,-27.1873 1065.91,-19.5091 1055.42,-20.9589 1058.61,-27.1873"/>
</g>
<!-- Node21 -->
<g id="node22" class="node"><title>Node21</title>
<polygon fill="none" stroke="#bfbfbf" points="819,-0.5 819,-19.5 882,-19.5 882,-0.5 819,-0.5"/>
<text text-anchor="middle" x="850.5" y="-7.5" font-family="Helvetica,sans-Serif" font-size="10.00">functional</text>
</g>
<!-- Node18&#45;&gt;Node21 -->
<g id="edge21" class="edge"><title>Node18&#45;&gt;Node21</title>
<path fill="none" stroke="midnightblue" d="M949.88,-61.9751C930.585,-52.078 898.541,-35.6416 876.069,-24.1151"/>
<polygon fill="midnightblue" stroke="midnightblue" points="877.584,-20.9589 867.089,-19.5091 874.39,-27.1873 877.584,-20.9589"/>
</g>
<!-- Node22 -->
<g id="node23" class="node"><title>Node22</title>
<polygon fill="none" stroke="#bfbfbf" points="900,-0.5 900,-19.5 955,-19.5 955,-0.5 900,-0.5"/>
<text text-anchor="middle" x="927.5" y="-7.5" font-family="Helvetica,sans-Serif" font-size="10.00">unistd.h</text>
</g>
<!-- Node18&#45;&gt;Node22 -->
<g id="edge24" class="edge"><title>Node18&#45;&gt;Node22</title>
<path fill="none" stroke="midnightblue" d="M960.912,-61.9751C955.12,-53.1384 945.911,-39.0886 938.626,-27.975"/>
<polygon fill="midnightblue" stroke="midnightblue" points="941.487,-25.9539 933.077,-19.5091 935.632,-29.7913 941.487,-25.9539"/>
</g>
<!-- Node24 -->
<g id="node25" class="node"><title>Node24</title>
<polygon fill="none" stroke="#bfbfbf" points="1070,-62 1070,-81 1147,-81 1147,-62 1070,-62"/>
<text text-anchor="middle" x="1108.5" y="-69" font-family="Helvetica,sans-Serif" font-size="10.00">Eigen/Dense</text>
</g>
<!-- Node23&#45;&gt;Node24 -->
<g id="edge26" class="edge"><title>Node23&#45;&gt;Node24</title>
<path fill="none" stroke="midnightblue" d="M1225.01,-123.475C1202.09,-113.445 1163.81,-96.7002 1137.42,-85.1546"/>
<polygon fill="midnightblue" stroke="midnightblue" points="1138.51,-81.8108 1127.95,-81.0091 1135.71,-88.2239 1138.51,-81.8108"/>
</g>
<!-- Node25 -->
<g id="node26" class="node"><title>Node25</title>
<polygon fill="none" stroke="#bfbfbf" points="1165.5,-62 1165.5,-81 1245.5,-81 1245.5,-62 1165.5,-62"/>
<text text-anchor="middle" x="1205.5" y="-69" font-family="Helvetica,sans-Serif" font-size="10.00">Eigen/Sparse</text>
</g>
<!-- Node23&#45;&gt;Node25 -->
<g id="edge27" class="edge"><title>Node23&#45;&gt;Node25</title>
<path fill="none" stroke="midnightblue" d="M1238.91,-123.475C1233.12,-114.638 1223.91,-100.589 1216.63,-89.475"/>
<polygon fill="midnightblue" stroke="midnightblue" points="1219.49,-87.4539 1211.08,-81.0091 1213.63,-91.2913 1219.49,-87.4539"/>
</g>
<!-- Node26 -->
<g id="node27" class="node"><title>Node26</title>
<polygon fill="none" stroke="#bfbfbf" points="1264,-62 1264,-81 1305,-81 1305,-62 1264,-62"/>
<text text-anchor="middle" x="1284.5" y="-69" font-family="Helvetica,sans-Serif" font-size="10.00">array</text>
</g>
<!-- Node23&#45;&gt;Node26 -->
<g id="edge28" class="edge"><title>Node23&#45;&gt;Node26</title>
<path fill="none" stroke="midnightblue" d="M1250.23,-123.475C1256.17,-114.638 1265.62,-100.589 1273.09,-89.475"/>
<polygon fill="midnightblue" stroke="midnightblue" points="1276.11,-91.2608 1278.78,-81.0091 1270.3,-87.3554 1276.11,-91.2608"/>
</g>
<!-- Node23&#45;&gt;Node27 -->
<g id="edge29" class="edge"><title>Node23&#45;&gt;Node27</title>
<path fill="none" stroke="midnightblue" d="M1273.63,-125.836C1278.27,-124.875 1283.01,-123.901 1287.5,-123 1370.48,-106.33 1393.7,-112.181 1474.5,-87 1476.43,-86.3996 1478.39,-85.7203 1480.35,-84.9916"/>
<polygon fill="midnightblue" stroke="midnightblue" points="1482.03,-88.0887 1489.97,-81.0721 1479.39,-81.6068 1482.03,-88.0887"/>
</g>
<!-- Node28 -->
<g id="node29" class="node"><title>Node28</title>
<polygon fill="none" stroke="#bfbfbf" points="1323,-56.5 1323,-86.5 1466,-86.5 1466,-56.5 1323,-56.5"/>
<text text-anchor="start" x="1331" y="-74.5" font-family="Helvetica,sans-Serif" font-size="10.00">unsupported/Eigen/CXX11</text>
<text text-anchor="middle" x="1394.5" y="-63.5" font-family="Helvetica,sans-Serif" font-size="10.00">/Tensor</text>
</g>
<!-- Node23&#45;&gt;Node28 -->
<g id="edge30" class="edge"><title>Node23&#45;&gt;Node28</title>
<path fill="none" stroke="midnightblue" d="M1265.99,-123.475C1287.73,-114.852 1321.99,-101.264 1349.66,-90.2852"/>
<polygon fill="midnightblue" stroke="midnightblue" points="1351.14,-93.4636 1359.15,-86.523 1348.56,-86.9568 1351.14,-93.4636"/>
</g>
<!-- Node23&#45;&gt;Node29 -->
<g id="edge31" class="edge"><title>Node23&#45;&gt;Node29</title>
<path fill="none" stroke="midnightblue" d="M1273.6,-125.645C1278.24,-124.708 1282.99,-123.793 1287.5,-123 1398.93,-103.401 1430.71,-118.043 1539.5,-87 1541.65,-86.3862 1543.85,-85.661 1546.03,-84.8675"/>
<polygon fill="midnightblue" stroke="midnightblue" points="1547.41,-88.0856 1555.36,-81.0856 1544.78,-81.5982 1547.41,-88.0856"/>
</g>
</g>
</svg>
