<?xml version="1.0" encoding="UTF-8" standalone="no"?>
<!DOCTYPE svg PUBLIC "-//W3C//DTD SVG 1.1//EN"
 "http://www.w3.org/Graphics/SVG/1.1/DTD/svg11.dtd">
<!-- Generated by graphviz version 2.38.0 (20140413.2041)
 -->
<!-- Title: /travis/pairinteraction/Wavefunction.h Pages: 1 -->
<svg width="1604pt" height="274pt"
 viewBox="0.00 0.00 1603.50 274.00" xmlns="http://www.w3.org/2000/svg" xmlns:xlink="http://www.w3.org/1999/xlink">
<g id="graph0" class="graph" transform="scale(1 1) rotate(0) translate(4 270)">
<title>/travis/pairinteraction/Wavefunction.h</title>
<!-- Node0 -->
<g id="node1" class="node"><title>Node0</title>
<polygon fill="#bfbfbf" stroke="black" points="919,-235.5 919,-265.5 1037,-265.5 1037,-235.5 919,-235.5"/>
<text text-anchor="start" x="927" y="-253.5" font-family="Helvetica,sans-Serif" font-size="10.00">/travis/pairinteraction</text>
<text text-anchor="middle" x="978" y="-242.5" font-family="Helvetica,sans-Serif" font-size="10.00">/Wavefunction.h</text>
</g>
<!-- Node1 -->
<g id="node2" class="node"><title>Node1</title>
<g id="a_node2"><a xlink:href="QuantumDefect_8h.html" target="_top" xlink:title="QuantumDefect.h">
<polygon fill="none" stroke="black" points="826,-179.5 826,-198.5 928,-198.5 928,-179.5 826,-179.5"/>
<text text-anchor="middle" x="877" y="-186.5" font-family="Helvetica,sans-Serif" font-size="10.00">QuantumDefect.h</text>
</a>
</g>
</g>
<!-- Node0&#45;&gt;Node1 -->
<g id="edge1" class="edge"><title>Node0&#45;&gt;Node1</title>
<path fill="none" stroke="midnightblue" d="M954.064,-235.399C937.875,-225.862 916.593,-213.325 900.497,-203.842"/>
<polygon fill="midnightblue" stroke="midnightblue" points="902.089,-200.718 891.696,-198.658 898.536,-206.749 902.089,-200.718"/>
</g>
<!-- Node11 -->
<g id="node12" class="node"><title>Node11</title>
<polygon fill="none" stroke="#bfbfbf" points="0,-62 0,-81 44,-81 44,-62 0,-62"/>
<text text-anchor="middle" x="22" y="-69" font-family="Helvetica,sans-Serif" font-size="10.00">string</text>
</g>
<!-- Node0&#45;&gt;Node11 -->
<g id="edge37" class="edge"><title>Node0&#45;&gt;Node11</title>
<path fill="none" stroke="midnightblue" d="M918.761,-246.56C786.283,-238.891 456.82,-213.714 191,-143 138.1,-128.927 79.9061,-101.891 47.4718,-85.6967"/>
<polygon fill="midnightblue" stroke="midnightblue" points="48.771,-82.4318 38.2673,-81.0453 45.6138,-88.6794 48.771,-82.4318"/>
</g>
<!-- Node22 -->
<g id="node23" class="node"><title>Node22</title>
<g id="a_node23"><a xlink:href="dtypes_8h.html" target="_top" xlink:title="dtypes.h">
<polygon fill="none" stroke="black" points="1215,-123.5 1215,-142.5 1273,-142.5 1273,-123.5 1215,-123.5"/>
<text text-anchor="middle" x="1244" y="-130.5" font-family="Helvetica,sans-Serif" font-size="10.00">dtypes.h</text>
</a>
</g>
</g>
<!-- Node0&#45;&gt;Node22 -->
<g id="edge36" class="edge"><title>Node0&#45;&gt;Node22</title>
<path fill="none" stroke="midnightblue" d="M1010.35,-235.453C1062.66,-212.739 1165,-168.304 1215.04,-146.573"/>
<polygon fill="midnightblue" stroke="midnightblue" points="1216.55,-149.736 1224.33,-142.542 1213.76,-143.315 1216.55,-149.736"/>
</g>
<!-- Node28 -->
<g id="node29" class="node"><title>Node28</title>
<polygon fill="none" stroke="#bfbfbf" points="1548.5,-62 1548.5,-81 1595.5,-81 1595.5,-62 1548.5,-62"/>
<text text-anchor="middle" x="1572" y="-69" font-family="Helvetica,sans-Serif" font-size="10.00">vector</text>
</g>
<!-- Node0&#45;&gt;Node28 -->
<g id="edge38" class="edge"><title>Node0&#45;&gt;Node28</title>
<path fill="none" stroke="midnightblue" d="M1036.74,-235.488C1139.99,-210.202 1360.14,-153.358 1540,-87 1541.61,-86.4049 1543.26,-85.765 1544.91,-85.0975"/>
<polygon fill="midnightblue" stroke="midnightblue" points="1546.44,-88.25 1554.25,-81.0906 1543.68,-81.8171 1546.44,-88.25"/>
</g>
<!-- Node2 -->
<g id="node3" class="node"><title>Node2</title>
<g id="a_node3"><a xlink:href="Cache_8h.html" target="_top" xlink:title="Cache.h">
<polygon fill="none" stroke="black" points="905,-123.5 905,-142.5 961,-142.5 961,-123.5 905,-123.5"/>
<text text-anchor="middle" x="933" y="-130.5" font-family="Helvetica,sans-Serif" font-size="10.00">Cache.h</text>
</a>
</g>
</g>
<!-- Node1&#45;&gt;Node2 -->
<g id="edge2" class="edge"><title>Node1&#45;&gt;Node2</title>
<path fill="none" stroke="midnightblue" d="M885.997,-179.324C894.194,-171.42 906.506,-159.548 916.472,-149.938"/>
<polygon fill="midnightblue" stroke="midnightblue" points="919.07,-152.295 923.839,-142.834 914.211,-147.256 919.07,-152.295"/>
</g>
<!-- Node3 -->
<g id="node4" class="node"><title>Node3</title>
<polygon fill="none" stroke="#bfbfbf" points="1004.5,-62 1004.5,-81 1051.5,-81 1051.5,-62 1004.5,-62"/>
<text text-anchor="middle" x="1028" y="-69" font-family="Helvetica,sans-Serif" font-size="10.00">mutex</text>
</g>
<!-- Node1&#45;&gt;Node3 -->
<g id="edge31" class="edge"><title>Node1&#45;&gt;Node3</title>
<path fill="none" stroke="midnightblue" d="M901.55,-179.494C921.312,-171.888 949.135,-159.412 970,-143 989.188,-127.907 1006.28,-105.453 1016.86,-89.9612"/>
<polygon fill="midnightblue" stroke="midnightblue" points="1019.96,-91.6139 1022.56,-81.3426 1014.12,-87.7516 1019.96,-91.6139"/>
</g>
<!-- Node4 -->
<g id="node5" class="node"><title>Node4</title>
<polygon fill="none" stroke="#bfbfbf" points="768.5,-62 768.5,-81 861.5,-81 861.5,-62 768.5,-62"/>
<text text-anchor="middle" x="815" y="-69" font-family="Helvetica,sans-Serif" font-size="10.00">unordered_map</text>
</g>
<!-- Node1&#45;&gt;Node4 -->
<g id="edge34" class="edge"><title>Node1&#45;&gt;Node4</title>
<path fill="none" stroke="midnightblue" d="M875.628,-179.139C873.361,-166.193 868.05,-141.624 858,-123 851.148,-110.303 840.702,-97.9374 831.823,-88.6204"/>
<polygon fill="midnightblue" stroke="midnightblue" points="834.078,-85.9237 824.552,-81.2859 829.106,-90.8519 834.078,-85.9237"/>
</g>
<!-- Node6 -->
<g id="node7" class="node"><title>Node6</title>
<g id="a_node7"><a xlink:href="SQLite_8h.html" target="_top" xlink:title="SQLite.h">
<polygon fill="none" stroke="black" points="348.5,-123.5 348.5,-142.5 405.5,-142.5 405.5,-123.5 348.5,-123.5"/>
<text text-anchor="middle" x="377" y="-130.5" font-family="Helvetica,sans-Serif" font-size="10.00">SQLite.h</text>
</a>
</g>
</g>
<!-- Node1&#45;&gt;Node6 -->
<g id="edge6" class="edge"><title>Node1&#45;&gt;Node6</title>
<path fill="none" stroke="midnightblue" d="M825.841,-182.475C725.527,-171.641 505.012,-147.825 415.7,-138.18"/>
<polygon fill="midnightblue" stroke="midnightblue" points="416.042,-134.696 405.724,-137.102 415.291,-141.656 416.042,-134.696"/>
</g>
<!-- Node1&#45;&gt;Node11 -->
<g id="edge32" class="edge"><title>Node1&#45;&gt;Node11</title>
<path fill="none" stroke="midnightblue" d="M825.983,-185.605C730.188,-180.693 517.007,-167.795 339,-143 210.714,-125.13 176.134,-127.182 53,-87 51.3302,-86.4551 49.6326,-85.8427 47.936,-85.1856"/>
<polygon fill="midnightblue" stroke="midnightblue" points="48.9978,-81.8322 38.4287,-81.0932 46.2301,-88.2618 48.9978,-81.8322"/>
</g>
<!-- Node1&#45;&gt;Node22 -->
<g id="edge24" class="edge"><title>Node1&#45;&gt;Node22</title>
<path fill="none" stroke="midnightblue" d="M928.03,-180.492C1002.06,-169.598 1137.7,-149.641 1204.58,-139.8"/>
<polygon fill="midnightblue" stroke="midnightblue" points="1205.32,-143.229 1214.7,-138.311 1204.3,-136.304 1205.32,-143.229"/>
</g>
<!-- Node29 -->
<g id="node30" class="node"><title>Node29</title>
<polygon fill="none" stroke="#bfbfbf" points="649.5,-123.5 649.5,-142.5 690.5,-142.5 690.5,-123.5 649.5,-123.5"/>
<text text-anchor="middle" x="670" y="-130.5" font-family="Helvetica,sans-Serif" font-size="10.00">tuple</text>
</g>
<!-- Node1&#45;&gt;Node29 -->
<g id="edge33" class="edge"><title>Node1&#45;&gt;Node29</title>
<path fill="none" stroke="midnightblue" d="M841.622,-179.475C807.837,-171.229 755.27,-158.132 700.508,-143.05"/>
<polygon fill="midnightblue" stroke="midnightblue" points="701.195,-139.609 690.623,-140.313 699.326,-146.355 701.195,-139.609"/>
</g>
<!-- Node30 -->
<g id="node31" class="node"><title>Node30</title>
<polygon fill="none" stroke="#bfbfbf" points="709,-123.5 709,-142.5 849,-142.5 849,-123.5 709,-123.5"/>
<text text-anchor="middle" x="779" y="-130.5" font-family="Helvetica,sans-Serif" font-size="10.00">boost/functional/hash.hpp</text>
</g>
<!-- Node1&#45;&gt;Node30 -->
<g id="edge35" class="edge"><title>Node1&#45;&gt;Node30</title>
<path fill="none" stroke="midnightblue" d="M861.255,-179.324C845.681,-170.743 821.623,-157.486 803.541,-147.522"/>
<polygon fill="midnightblue" stroke="midnightblue" points="805.154,-144.415 794.706,-142.655 801.776,-150.546 805.154,-144.415"/>
</g>
<!-- Node2&#45;&gt;Node3 -->
<g id="edge3" class="edge"><title>Node2&#45;&gt;Node3</title>
<path fill="none" stroke="midnightblue" d="M946.611,-123.475C962.061,-113.799 987.49,-97.8721 1005.82,-86.3941"/>
<polygon fill="midnightblue" stroke="midnightblue" points="1007.8,-89.2834 1014.41,-81.0091 1004.08,-83.3509 1007.8,-89.2834"/>
</g>
<!-- Node2&#45;&gt;Node4 -->
<g id="edge4" class="edge"><title>Node2&#45;&gt;Node4</title>
<path fill="none" stroke="midnightblue" d="M916.093,-123.475C896.466,-113.578 863.869,-97.1416 841.01,-85.6151"/>
<polygon fill="midnightblue" stroke="midnightblue" points="842.38,-82.3863 831.875,-81.0091 839.228,-88.6367 842.38,-82.3863"/>
</g>
<!-- Node5 -->
<g id="node6" class="node"><title>Node5</title>
<polygon fill="none" stroke="#bfbfbf" points="880,-62 880,-81 986,-81 986,-62 880,-62"/>
<text text-anchor="middle" x="933" y="-69" font-family="Helvetica,sans-Serif" font-size="10.00">boost/optional.hpp</text>
</g>
<!-- Node2&#45;&gt;Node5 -->
<g id="edge5" class="edge"><title>Node2&#45;&gt;Node5</title>
<path fill="none" stroke="midnightblue" d="M933,-123.475C933,-115.08 933,-101.981 933,-91.1631"/>
<polygon fill="midnightblue" stroke="midnightblue" points="936.5,-91.0091 933,-81.0091 929.5,-91.0091 936.5,-91.0091"/>
</g>
<!-- Node7 -->
<g id="node8" class="node"><title>Node7</title>
<polygon fill="none" stroke="#bfbfbf" points="62.5,-62 62.5,-81 121.5,-81 121.5,-62 62.5,-62"/>
<text text-anchor="middle" x="92" y="-69" font-family="Helvetica,sans-Serif" font-size="10.00">iostream</text>
</g>
<!-- Node6&#45;&gt;Node7 -->
<g id="edge7" class="edge"><title>Node6&#45;&gt;Node7</title>
<path fill="none" stroke="midnightblue" d="M348.463,-128.542C302.071,-122.533 207.665,-108.692 130,-87 127.35,-86.2598 124.626,-85.4089 121.912,-84.4983"/>
<polygon fill="midnightblue" stroke="midnightblue" points="122.873,-81.1242 112.278,-81.0291 120.501,-87.7102 122.873,-81.1242"/>
</g>
<!-- Node8 -->
<g id="node9" class="node"><title>Node8</title>
<polygon fill="none" stroke="#bfbfbf" points="139.5,-62 139.5,-81 196.5,-81 196.5,-62 139.5,-62"/>
<text text-anchor="middle" x="168" y="-69" font-family="Helvetica,sans-Serif" font-size="10.00">memory</text>
</g>
<!-- Node6&#45;&gt;Node8 -->
<g id="edge8" class="edge"><title>Node6&#45;&gt;Node8</title>
<path fill="none" stroke="midnightblue" d="M348.358,-124.798C315.152,-116.318 258.855,-101.54 211,-87 208.079,-86.1125 205.057,-85.1614 202.032,-84.1864"/>
<polygon fill="midnightblue" stroke="midnightblue" points="203.069,-80.8431 192.476,-81.0388 200.879,-87.4917 203.069,-80.8431"/>
</g>
<!-- Node9 -->
<g id="node10" class="node"><title>Node9</title>
<polygon fill="none" stroke="#bfbfbf" points="311,-0.5 311,-19.5 365,-19.5 365,-0.5 311,-0.5"/>
<text text-anchor="middle" x="338" y="-7.5" font-family="Helvetica,sans-Serif" font-size="10.00">random</text>
</g>
<!-- Node6&#45;&gt;Node9 -->
<g id="edge9" class="edge"><title>Node6&#45;&gt;Node9</title>
<path fill="none" stroke="midnightblue" d="M348.273,-131.438C316.801,-129.095 267.657,-119.979 244,-87 235.969,-75.8048 236.656,-67.6575 244,-56 256.514,-36.1346 280.495,-24.8461 301.101,-18.5436"/>
<polygon fill="midnightblue" stroke="midnightblue" points="302.178,-21.8771 310.881,-15.8345 300.309,-15.1312 302.178,-21.8771"/>
</g>
<!-- Node10 -->
<g id="node11" class="node"><title>Node10</title>
<polygon fill="none" stroke="#bfbfbf" points="253,-62 253,-81 309,-81 309,-62 253,-62"/>
<text text-anchor="middle" x="281" y="-69" font-family="Helvetica,sans-Serif" font-size="10.00">sstream</text>
</g>
<!-- Node6&#45;&gt;Node10 -->
<g id="edge10" class="edge"><title>Node6&#45;&gt;Node10</title>
<path fill="none" stroke="midnightblue" d="M363.246,-123.475C347.634,-113.799 321.937,-97.8721 303.417,-86.3941"/>
<polygon fill="midnightblue" stroke="midnightblue" points="305.073,-83.3023 294.729,-81.0091 301.385,-89.2522 305.073,-83.3023"/>
</g>
<!-- Node6&#45;&gt;Node11 -->
<g id="edge11" class="edge"><title>Node6&#45;&gt;Node11</title>
<path fill="none" stroke="midnightblue" d="M348.448,-129.142C280.039,-122.116 108.34,-103.379 53,-87 51.1199,-86.4435 49.2094,-85.7896 47.3075,-85.0726"/>
<polygon fill="midnightblue" stroke="midnightblue" points="48.6227,-81.8285 38.0516,-81.1206 45.874,-88.2662 48.6227,-81.8285"/>
</g>
<!-- Node12 -->
<g id="node13" class="node"><title>Node12</title>
<polygon fill="none" stroke="#bfbfbf" points="327,-62 327,-81 375,-81 375,-62 327,-62"/>
<text text-anchor="middle" x="351" y="-69" font-family="Helvetica,sans-Serif" font-size="10.00">thread</text>
</g>
<!-- Node6&#45;&gt;Node12 -->
<g id="edge12" class="edge"><title>Node6&#45;&gt;Node12</title>
<path fill="none" stroke="midnightblue" d="M373.275,-123.475C369.529,-114.904 363.64,-101.427 358.858,-90.483"/>
<polygon fill="midnightblue" stroke="midnightblue" points="361.93,-88.771 354.718,-81.0091 355.515,-91.5739 361.93,-88.771"/>
</g>
<!-- Node13 -->
<g id="node14" class="node"><title>Node13</title>
<polygon fill="none" stroke="#bfbfbf" points="432,-0.5 432,-19.5 500,-19.5 500,-0.5 432,-0.5"/>
<text text-anchor="middle" x="466" y="-7.5" font-family="Helvetica,sans-Serif" font-size="10.00">type_traits</text>
</g>
<!-- Node6&#45;&gt;Node13 -->
<g id="edge13" class="edge"><title>Node6&#45;&gt;Node13</title>
<path fill="none" stroke="midnightblue" d="M381.36,-123.136C388.751,-108.495 404.64,-78.6294 422,-56 430.045,-45.5128 440.312,-34.8887 448.904,-26.5988"/>
<polygon fill="midnightblue" stroke="midnightblue" points="451.334,-29.1178 456.212,-19.7127 446.534,-24.023 451.334,-29.1178"/>
</g>
<!-- Node14 -->
<g id="node15" class="node"><title>Node14</title>
<polygon fill="none" stroke="#bfbfbf" points="431,-56.5 431,-86.5 551,-86.5 551,-56.5 431,-56.5"/>
<text text-anchor="start" x="439" y="-74.5" font-family="Helvetica,sans-Serif" font-size="10.00">boost/iterator/iterator</text>
<text text-anchor="middle" x="491" y="-63.5" font-family="Helvetica,sans-Serif" font-size="10.00">_facade.hpp</text>
</g>
<!-- Node6&#45;&gt;Node14 -->
<g id="edge14" class="edge"><title>Node6&#45;&gt;Node14</title>
<path fill="none" stroke="midnightblue" d="M393.333,-123.475C409.422,-115.078 434.531,-101.973 455.261,-91.1534"/>
<polygon fill="midnightblue" stroke="midnightblue" points="456.887,-94.2528 464.132,-86.523 453.648,-88.0472 456.887,-94.2528"/>
</g>
<!-- Node15 -->
<g id="node16" class="node"><title>Node15</title>
<polygon fill="none" stroke="#bfbfbf" points="569.5,-62 569.5,-81 626.5,-81 626.5,-62 569.5,-62"/>
<text text-anchor="middle" x="598" y="-69" font-family="Helvetica,sans-Serif" font-size="10.00">sqlite3.h</text>
</g>
<!-- Node6&#45;&gt;Node15 -->
<g id="edge15" class="edge"><title>Node6&#45;&gt;Node15</title>
<path fill="none" stroke="midnightblue" d="M405.513,-126.132C441.769,-118.411 506.131,-103.83 560,-87 562.418,-86.2446 564.904,-85.4161 567.393,-84.5499"/>
<polygon fill="midnightblue" stroke="midnightblue" points="568.663,-87.8121 576.858,-81.0969 566.264,-81.236 568.663,-87.8121"/>
</g>
<!-- Node16 -->
<g id="node17" class="node"><title>Node16</title>
<polygon fill="none" stroke="#bfbfbf" points="645,-62 645,-81 687,-81 687,-62 645,-62"/>
<text text-anchor="middle" x="666" y="-69" font-family="Helvetica,sans-Serif" font-size="10.00">utility</text>
</g>
<!-- Node6&#45;&gt;Node16 -->
<g id="edge16" class="edge"><title>Node6&#45;&gt;Node16</title>
<path fill="none" stroke="midnightblue" d="M405.838,-129.483C454.154,-124.714 554.118,-112.472 635,-87 636.87,-86.411 638.773,-85.733 640.67,-84.9985"/>
<polygon fill="midnightblue" stroke="midnightblue" points="642.12,-88.1849 649.914,-81.0086 639.346,-81.7579 642.12,-88.1849"/>
</g>
<!-- Node17 -->
<g id="node18" class="node"><title>Node17</title>
<g id="a_node18"><a xlink:href="utils_8h.html" target="_top" xlink:title="utils.h">
<polygon fill="none" stroke="black" points="705.5,-62 705.5,-81 750.5,-81 750.5,-62 705.5,-62"/>
<text text-anchor="middle" x="728" y="-69" font-family="Helvetica,sans-Serif" font-size="10.00">utils.h</text>
</a>
</g>
</g>
<!-- Node6&#45;&gt;Node17 -->
<g id="edge17" class="edge"><title>Node6&#45;&gt;Node17</title>
<path fill="none" stroke="midnightblue" d="M405.735,-130.688C462.335,-127.508 591.805,-117.277 696,-87 697.933,-86.4384 699.899,-85.7806 701.858,-85.0608"/>
<polygon fill="midnightblue" stroke="midnightblue" points="703.507,-88.1662 711.403,-81.1028 700.825,-81.7001 703.507,-88.1662"/>
</g>
<!-- Node17&#45;&gt;Node9 -->
<g id="edge21" class="edge"><title>Node17&#45;&gt;Node9</title>
<path fill="none" stroke="midnightblue" d="M711.748,-61.9983C706.806,-59.727 701.283,-57.4919 696,-56 665.582,-47.4095 460.601,-24.3934 375.217,-15.0378"/>
<polygon fill="midnightblue" stroke="midnightblue" points="375.499,-11.5479 365.178,-13.9405 374.739,-18.5065 375.499,-11.5479"/>
</g>
<!-- Node17&#45;&gt;Node13 -->
<g id="edge22" class="edge"><title>Node17&#45;&gt;Node13</title>
<path fill="none" stroke="midnightblue" d="M711.018,-61.9222C706.247,-59.7571 700.996,-57.5968 696,-56 632.945,-35.8483 557.14,-23.1352 510.259,-16.545"/>
<polygon fill="midnightblue" stroke="midnightblue" points="510.52,-13.0481 500.137,-15.1543 509.567,-19.9829 510.52,-13.0481"/>
</g>
<!-- Node18 -->
<g id="node19" class="node"><title>Node18</title>
<polygon fill="none" stroke="#bfbfbf" points="812,-0.5 812,-19.5 874,-19.5 874,-0.5 812,-0.5"/>
<text text-anchor="middle" x="843" y="-7.5" font-family="Helvetica,sans-Serif" font-size="10.00">algorithm</text>
</g>
<!-- Node17&#45;&gt;Node18 -->
<g id="edge18" class="edge"><title>Node17&#45;&gt;Node18</title>
<path fill="none" stroke="midnightblue" d="M744.477,-61.9751C763.605,-52.078 795.373,-35.6416 817.652,-24.1151"/>
<polygon fill="midnightblue" stroke="midnightblue" points="819.281,-27.213 826.554,-19.5091 816.064,-20.9958 819.281,-27.213"/>
</g>
<!-- Node19 -->
<g id="node20" class="node"><title>Node19</title>
<polygon fill="none" stroke="#bfbfbf" points="582.5,-0.5 582.5,-19.5 639.5,-19.5 639.5,-0.5 582.5,-0.5"/>
<text text-anchor="middle" x="611" y="-7.5" font-family="Helvetica,sans-Serif" font-size="10.00">complex</text>
</g>
<!-- Node17&#45;&gt;Node19 -->
<g id="edge19" class="edge"><title>Node17&#45;&gt;Node19</title>
<path fill="none" stroke="midnightblue" d="M711.237,-61.9751C691.775,-52.078 659.455,-35.6416 636.789,-24.1151"/>
<polygon fill="midnightblue" stroke="midnightblue" points="638.232,-20.9224 627.732,-19.5091 635.059,-27.1619 638.232,-20.9224"/>
</g>
<!-- Node20 -->
<g id="node21" class="node"><title>Node20</title>
<polygon fill="none" stroke="#bfbfbf" points="657.5,-0.5 657.5,-19.5 720.5,-19.5 720.5,-0.5 657.5,-0.5"/>
<text text-anchor="middle" x="689" y="-7.5" font-family="Helvetica,sans-Serif" font-size="10.00">functional</text>
</g>
<!-- Node17&#45;&gt;Node20 -->
<g id="edge20" class="edge"><title>Node17&#45;&gt;Node20</title>
<path fill="none" stroke="midnightblue" d="M722.412,-61.9751C716.62,-53.1384 707.411,-39.0886 700.126,-27.975"/>
<polygon fill="midnightblue" stroke="midnightblue" points="702.987,-25.9539 694.577,-19.5091 697.132,-29.7913 702.987,-25.9539"/>
</g>
<!-- Node21 -->
<g id="node22" class="node"><title>Node21</title>
<polygon fill="none" stroke="#bfbfbf" points="738.5,-0.5 738.5,-19.5 793.5,-19.5 793.5,-0.5 738.5,-0.5"/>
<text text-anchor="middle" x="766" y="-7.5" font-family="Helvetica,sans-Serif" font-size="10.00">unistd.h</text>
</g>
<!-- Node17&#45;&gt;Node21 -->
<g id="edge23" class="edge"><title>Node17&#45;&gt;Node21</title>
<path fill="none" stroke="midnightblue" d="M733.444,-61.9751C739.088,-53.1384 748.061,-39.0886 755.159,-27.975"/>
<polygon fill="midnightblue" stroke="midnightblue" points="758.133,-29.8208 760.566,-19.5091 752.233,-26.0531 758.133,-29.8208"/>
</g>
<!-- Node23 -->
<g id="node24" class="node"><title>Node23</title>
<polygon fill="none" stroke="#bfbfbf" points="1069.5,-62 1069.5,-81 1146.5,-81 1146.5,-62 1069.5,-62"/>
<text text-anchor="middle" x="1108" y="-69" font-family="Helvetica,sans-Serif" font-size="10.00">Eigen/Dense</text>
</g>
<!-- Node22&#45;&gt;Node23 -->
<g id="edge25" class="edge"><title>Node22&#45;&gt;Node23</title>
<path fill="none" stroke="midnightblue" d="M1224.51,-123.475C1201.59,-113.445 1163.31,-96.7002 1136.92,-85.1546"/>
<polygon fill="midnightblue" stroke="midnightblue" points="1138.01,-81.8108 1127.45,-81.0091 1135.21,-88.2239 1138.01,-81.8108"/>
</g>
<!-- Node24 -->
<g id="node25" class="node"><title>Node24</title>
<polygon fill="none" stroke="#bfbfbf" points="1165,-62 1165,-81 1245,-81 1245,-62 1165,-62"/>
<text text-anchor="middle" x="1205" y="-69" font-family="Helvetica,sans-Serif" font-size="10.00">Eigen/Sparse</text>
</g>
<!-- Node22&#45;&gt;Node24 -->
<g id="edge26" class="edge"><title>Node22&#45;&gt;Node24</title>
<path fill="none" stroke="midnightblue" d="M1238.41,-123.475C1232.62,-114.638 1223.41,-100.589 1216.13,-89.475"/>
<polygon fill="midnightblue" stroke="midnightblue" points="1218.99,-87.4539 1210.58,-81.0091 1213.13,-91.2913 1218.99,-87.4539"/>
</g>
<!-- Node25 -->
<g id="node26" class="node"><title>Node25</title>
<polygon fill="none" stroke="#bfbfbf" points="1263.5,-62 1263.5,-81 1304.5,-81 1304.5,-62 1263.5,-62"/>
<text text-anchor="middle" x="1284" y="-69" font-family="Helvetica,sans-Serif" font-size="10.00">array</text>
</g>
<!-- Node22&#45;&gt;Node25 -->
<g id="edge27" class="edge"><title>Node22&#45;&gt;Node25</title>
<path fill="none" stroke="midnightblue" d="M1249.73,-123.475C1255.67,-114.638 1265.12,-100.589 1272.59,-89.475"/>
<polygon fill="midnightblue" stroke="midnightblue" points="1275.61,-91.2608 1278.28,-81.0091 1269.8,-87.3554 1275.61,-91.2608"/>
</g>
<!-- Node26 -->
<g id="node27" class="node"><title>Node26</title>
<polygon fill="none" stroke="#bfbfbf" points="1322.5,-62 1322.5,-81 1369.5,-81 1369.5,-62 1322.5,-62"/>
<text text-anchor="middle" x="1346" y="-69" font-family="Helvetica,sans-Serif" font-size="10.00">cmath</text>
</g>
<!-- Node22&#45;&gt;Node26 -->
<g id="edge28" class="edge"><title>Node22&#45;&gt;Node26</title>
<path fill="none" stroke="midnightblue" d="M1258.61,-123.475C1275.35,-113.711 1303,-97.5807 1322.72,-86.0808"/>
<polygon fill="midnightblue" stroke="midnightblue" points="1324.54,-89.0711 1331.41,-81.0091 1321.01,-83.0246 1324.54,-89.0711"/>
</g>
<!-- Node27 -->
<g id="node28" class="node"><title>Node27</title>
<polygon fill="none" stroke="#bfbfbf" points="1387.5,-56.5 1387.5,-86.5 1530.5,-86.5 1530.5,-56.5 1387.5,-56.5"/>
<text text-anchor="start" x="1395.5" y="-74.5" font-family="Helvetica,sans-Serif" font-size="10.00">unsupported/Eigen/CXX11</text>
<text text-anchor="middle" x="1459" y="-63.5" font-family="Helvetica,sans-Serif" font-size="10.00">/Tensor</text>
</g>
<!-- Node22&#45;&gt;Node27 -->
<g id="edge29" class="edge"><title>Node22&#45;&gt;Node27</title>
<path fill="none" stroke="midnightblue" d="M1273.44,-123.852C1305.42,-115.001 1357.4,-100.617 1398.22,-89.3209"/>
<polygon fill="midnightblue" stroke="midnightblue" points="1399.37,-92.635 1408.07,-86.5945 1397.5,-85.8885 1399.37,-92.635"/>
</g>
<!-- Node22&#45;&gt;Node28 -->
<g id="edge30" class="edge"><title>Node22&#45;&gt;Node28</title>
<path fill="none" stroke="midnightblue" d="M1273.15,-130.227C1326.89,-126.377 1444.81,-115.214 1540,-87 1541.93,-86.428 1543.89,-85.7625 1545.85,-85.0372"/>
<polygon fill="midnightblue" stroke="midnightblue" points="1547.5,-88.1401 1555.39,-81.0671 1544.82,-81.6772 1547.5,-88.1401"/>
</g>
</g>
</svg>
